/* XPM */
static char * bbwb_xpm[] = {
"71 71 243 2",
"  	c None",
". 	c #000000",
"+ 	c #0A0A0A",
"@ 	c #121212",
"# 	c #0C0C0C",
"$ 	c #010101",
"% 	c #080808",
"& 	c #090909",
"* 	c #060606",
"= 	c #141414",
"- 	c #171717",
"; 	c #161616",
"> 	c #181818",
", 	c #151515",
"' 	c #0F0F0F",
") 	c #707070",
"! 	c #575757",
"~ 	c #0E0E0E",
"{ 	c #626262",
"] 	c #111111",
"^ 	c #515151",
"/ 	c #FCFCFC",
"( 	c #C3C3C3",
"_ 	c #191919",
": 	c #131313",
"< 	c #282828",
"[ 	c #E3E3E3",
"} 	c #E4E4E4",
"| 	c #333333",
"1 	c #D4D4D4",
"2 	c #919191",
"3 	c #A4A4A4",
"4 	c #B6B6B6",
"5 	c #232323",
"6 	c #393939",
"7 	c #1B1B1B",
"8 	c #020202",
"9 	c #0D0D0D",
"0 	c #272727",
"a 	c #313131",
"b 	c #040404",
"c 	c #070707",
"d 	c #030303",
"e 	c #1F1F1F",
"f 	c #202020",
"g 	c #828282",
"h 	c #5A5A5A",
"i 	c #0B0B0B",
"j 	c #414141",
"k 	c #5F5F5F",
"l 	c #323232",
"m 	c #A6A6A6",
"n 	c #FFFFFF",
"o 	c #E5E5E5",
"p 	c #757575",
"q 	c #383838",
"r 	c #B2B2B2",
"s 	c #F1F1F1",
"t 	c #666666",
"u 	c #3F3F3F",
"v 	c #BBBBBB",
"w 	c #FEFEFE",
"x 	c #838383",
"y 	c #929292",
"z 	c #DFDFDF",
"A 	c #585858",
"B 	c #404040",
"C 	c #BFBFBF",
"D 	c #969696",
"E 	c #1C1C1C",
"F 	c #C9C9C9",
"G 	c #3D3D3D",
"H 	c #101010",
"I 	c #C0C0C0",
"J 	c #9C9C9C",
"K 	c #ADADAD",
"L 	c #1A1A1A",
"M 	c #FAFAFA",
"N 	c #E7E7E7",
"O 	c #EFEFEF",
"P 	c #939393",
"Q 	c #717171",
"R 	c #858585",
"S 	c #3B3B3B",
"T 	c #F7F7F7",
"U 	c #4E4E4E",
"V 	c #464646",
"W 	c #4F4F4F",
"X 	c #D0D0D0",
"Y 	c #808080",
"Z 	c #878787",
"` 	c #EDEDED",
" .	c #525252",
"..	c #222222",
"+.	c #292929",
"@.	c #343434",
"#.	c #F5F5F5",
"$.	c #ACACAC",
"%.	c #949494",
"&.	c #DDDDDD",
"*.	c #2F2F2F",
"=.	c #CACACA",
"-.	c #4A4A4A",
";.	c #959595",
">.	c #D3D3D3",
",.	c #3E3E3E",
"'.	c #434343",
").	c #DBDBDB",
"!.	c #FDFDFD",
"~.	c #6B6B6B",
"{.	c #6E6E6E",
"].	c #A5A5A5",
"^.	c #797979",
"/.	c #C1C1C1",
"(.	c #3A3A3A",
"_.	c #FBFBFB",
":.	c #676767",
"<.	c #5E5E5E",
"[.	c #9B9B9B",
"}.	c #C2C2C2",
"|.	c #6A6A6A",
"1.	c #F2F2F2",
"2.	c #6D6D6D",
"3.	c #E0E0E0",
"4.	c #050505",
"5.	c #A2A2A2",
"6.	c #565656",
"7.	c #E9E9E9",
"8.	c #AAAAAA",
"9.	c #262626",
"0.	c #F4F4F4",
"a.	c #4C4C4C",
"b.	c #EEEEEE",
"c.	c #7C7C7C",
"d.	c #EBEBEB",
"e.	c #9E9E9E",
"f.	c #494949",
"g.	c #474747",
"h.	c #DEDEDE",
"i.	c #363636",
"j.	c #5D5D5D",
"k.	c #898989",
"l.	c #CBCBCB",
"m.	c #8C8C8C",
"n.	c #C4C4C4",
"o.	c #BABABA",
"p.	c #F9F9F9",
"q.	c #595959",
"r.	c #9F9F9F",
"s.	c #AFAFAF",
"t.	c #CCCCCC",
"u.	c #909090",
"v.	c #6C6C6C",
"w.	c #353535",
"x.	c #D6D6D6",
"y.	c #C7C7C7",
"z.	c #BEBEBE",
"A.	c #F3F3F3",
"B.	c #606060",
"C.	c #C8C8C8",
"D.	c #F8F8F8",
"E.	c #E2E2E2",
"F.	c #D8D8D8",
"G.	c #E6E6E6",
"H.	c #5B5B5B",
"I.	c #CDCDCD",
"J.	c #868686",
"K.	c #727272",
"L.	c #444444",
"M.	c #787878",
"N.	c #656565",
"O.	c #737373",
"P.	c #C6C6C6",
"Q.	c #989898",
"R.	c #555555",
"S.	c #9D9D9D",
"T.	c #8D8D8D",
"U.	c #636363",
"V.	c #A3A3A3",
"W.	c #999999",
"X.	c #F0F0F0",
"Y.	c #BCBCBC",
"Z.	c #B8B8B8",
"`.	c #CFCFCF",
" +	c #A8A8A8",
".+	c #A1A1A1",
"++	c #212121",
"@+	c #8E8E8E",
"#+	c #818181",
"$+	c #242424",
"%+	c #7A7A7A",
"&+	c #252525",
"*+	c #D7D7D7",
"=+	c #2D2D2D",
"-+	c #D5D5D5",
";+	c #4B4B4B",
">+	c #EAEAEA",
",+	c #1D1D1D",
"'+	c #F6F6F6",
")+	c #CECECE",
"!+	c #E8E8E8",
"~+	c #303030",
"{+	c #616161",
"]+	c #7B7B7B",
"^+	c #484848",
"/+	c #2C2C2C",
"(+	c #D2D2D2",
"_+	c #696969",
":+	c #D9D9D9",
"<+	c #BDBDBD",
"[+	c #8F8F8F",
"}+	c #7D7D7D",
"|+	c #424242",
"1+	c #4D4D4D",
"2+	c #1E1E1E",
"3+	c #979797",
"4+	c #2B2B2B",
"5+	c #505050",
"6+	c #D1D1D1",
"7+	c #DADADA",
"8+	c #2E2E2E",
"9+	c #B3B3B3",
"0+	c #3C3C3C",
"a+	c #A7A7A7",
"b+	c #B9B9B9",
"c+	c #DCDCDC",
"d+	c #535353",
"e+	c #777777",
"f+	c #8B8B8B",
"g+	c #747474",
"h+	c #7F7F7F",
"i+	c #888888",
"j+	c #2A2A2A",
"k+	c #ECECEC",
"l+	c #E1E1E1",
"m+	c #7E7E7E",
"n+	c #5C5C5C",
"o+	c #ABABAB",
"p+	c #545454",
"q+	c #6F6F6F",
"r+	c #B7B7B7",
"s+	c #373737",
"t+	c #686868",
". . . . . . . . . . . . . . . . . . + @ # . . . . . . . . . . . . . . . . . . . . . . . . . . . . . . . . . . . . . . . . . . . . . . . . . . ",
". . . . . . . . . . . . . . . . . . . . . . . . . . . . . . . . . . . . . . . . . . . . . . . . . . . . . . . . . . . . . . . . . . . . . . . ",
". . . . . . . . . . . . . . . . . . . . . . . . . . . . . . . . . . . . . . . . . . . . . . . . . . . . . . . . . . . . . . . . . . . . . . . ",
". . . . . . . . . . . . . . . . . . . . . . . . . . . . . . . . . $ + % . . . . . & * . . . . . . . . . . . . . . . . . . . . . . . . . . . . ",
". . . . . . . . . . . . . . . . . . . . . . . . . . . . . . . . = @ - ; - . . . > ; , ' $ . . . . . . . . . . . . . . . . . . . . . . . . . . ",
". . . . . . . . . . . . . . . . . . . . . . . . . . . . . . . . = , ) ! , ~ . ~ , { { ] , . . . . . . . . . . . . . . . . . . . . . . . . . . ",
". . . . . . . . . . . . . . . . . . . . . . . . . . . . . . . $ @ ^ / ( _ = . : < [ } < , . . . . . . . . . . . . . . . . . . . . . . . . . . ",
". . . . . . . . . . . . . . . . . . . . . . . . . . . . . . . $ ' | 1 2 : ] . ] , 3 4 5 : . . . . . . . . . . . . . . . . . . . . . . . . . . ",
". . . . . . . . . . . . . . . . . . . . . . . . . . . . . . . . , @ 6 7 = 8 . + 9 0 a , b . . . . . . . . . . . . . . . . . . . . . . . . . . ",
". . . . . . . . . . . . . . . . . . . . . . . . . . . . . . . . = # c + 5 d . . > 9 & e . . . . . . . . . . . . . . . . . . . . . . . . . . . ",
". . . . . . . . . . . . . . . . . . . . . . . . . . . . . . . ~ ] f g h i ] _ $ 9 j k + d . . . . . . . . . . . . . . . . . . . . . . . . . . ",
". . . . . . . . . . . . . . . . . . . . . . . . . . . . . . > - l m n o p . ' - q r s t & , . . . . . . . . . . . . . . . . . . . . . . . . . ",
". . . . . . . . . . . . . . . . . . . . . . . . . . . . . c ' u v n n n w x 9 _ y n n z A - ' . . . . . . . . . . . . . . . . . . . . . . . . ",
". . . . . . . . . . . . . . . . . . . . . . . . . . . . d d B C n n n n n n D E k z n n F G ] ] . . . . . . . . . . . . . . . . . . . . . . . ",
". . . . . . . . . . . . . . . . . . . . . . . . . . . H c j I n n n n n n n n J 7 k [ n n K _ 9 c . . . . . . . . . . . . . . . . . . . . . . ",
". . . . . . . . . . . . . . . . . . . . . . . . . . ; L B I n n M N N N O n n n P % Q / n n R + @ . . . . . . . . . . . . . . . . . . . . . . ",
". . . . . . . . . . . . . . . . . . . . . . . . . @ ' S C n n T p S U V W X n n n Y . Z n n `  .: @ . . . . . . . . . . . . . . . . . . . . . ",
". . . . . . . . . . . . . . . . . . . . . . . . H ] ..K n n n z +.D o F @.J n n n #.t > $.n n r : ' $ . . . . . . . . . . . . . . . . . . . . ",
". . . . . . . . . . . . . . . . . . . . . . . . ; * %.n n n n &.*.=.n T -.;.n n n n >.,.'.).n !.~.' @ . . . . . . . . . . . . . . . . . . . . ",
". . . . . . . . . . . . . . . . . . . . . . . ' = {.!.n n n n &.*.=.n T -.;.n n n n n ].# ^.n n /.- ] $ . . . . . . . . . . . . . . . . . . . ",
". . . . . . . . . . . . . . . . . . . . . . # H (.1 n n n n n &.*.=.n T -.;.n n n n n _.:.7 C n M <.H ~ . . . . . . . . . . . . . . . . . . . ",
". . . . . . . . . . . . . . . . . . . . . . : # [.n n n n n n &.*.=.n T -.;.n n n n n n }.E |./ n m i ; . . . . . . . . . . . . . . . . . . . ",
". . . . . . . . . . . . . . . . . . . . . 9 @ W 1.n n n n n n &.*.=.n T -.;.n n n n n n w 2.L =.n 3.0 , 4.. . . . . . . . . . . . . . . . . . ",
". . . . . . . . . . . . . . . . . . . . . : 9 5.n n n n n n n &.*.=.n T -.%.n n n n n n n v ] g n M 6.] # . . . . . . . . . . . . . . . . . . ",
". . . . . . . . . . . . . . . . . . . . c H 6 7.n n n w T s N 8.9.=.n T -.2.3.` 0._.n n n 0.a.,.b.n g % H . . . . . . . . . . . . . . . . . . ",
". . . . . . . . . . . . . . . . . . . . = i c.n n d.e.~.f.S *.f g.h.n / c.; +.i.'.j.k.l.n n m.H n.n m % , . . . . . . . . . . . . . . . . . . ",
". . . . . . . . . . . . . . . . . . . . H # o.n p.{.= q.R r.s.}.} n n n #.t.4 m u.v.*.w.x.n y.] u.n z.i , . . . . . . . . . . . . . . . . . . ",
". . . . . . . . . . . . . . . . . . . c = < [ n A.G g _.n n n n n n n n n n n n n w z.0 ( n d.l B._.C.~ - 8 . . . . . . . . . . . . . . . . . ",
". . . . . . . . . . . . . . . . . . . + 9 a.D.n A.u r.n n D.7.).E.n n n s F.[ A.!.n G.l ( n _.H.q O I.@ > d . . . . . . . . . . . . . . . . . ",
". . . . . . . . . . . . . . . . . . . H % 2.w n A.V U J.K.U a f L.&.n / M.L +.B N.x O.- P.n n g e h.F H _ b . . . . . . . . . . . . . . . . . ",
". . . . . . . . . . . . . . . . . . . = 4.J.n n n Q.u ,.R.^.S.T.0 l.n T -.k ].k.U.L.q v.b.n n V.= l.n.# - 8 . . . . . . . . . . . . . . . . . ",
". . . . . . . . . . . . . . . . . . . , 4.W.n n n n X.1.M n n &.*.=.n T -.;.n n / #.X.D.n n n Y.: Z.v & , . . . . . . . . . . . . . . . . . . ",
"d . . . . . . . . . . . . . . . . . . , * 5.n n n n n n n n n &.*.=.n T -.;.n n n n n n n n n `.-  +m % - . . . . . . . . . . . . . . . . . . ",
"8 . . . . . . . . . . . . . . . . . . ; * .+n n n n n n n n n &.*.=.n T -.;.n n n n n n n n n F.L [.Z % : . . . . . . . . . . . . . . . . . . ",
". . . . . . . . . . . . . . . . . . . = 4.D n n n n n n n n n &.*.=.n T -.;.n n n n n n n n n 3.++@+B.9 ~ . . . . . . . . . . . . . . . . . . ",
". . . . . . . . . . . . . . . . . . . : % #+n n n n n n n n n &.*.=.n T -.;.n n n n n n n n n } $+%+w., + . . . . . . . . . . . . . . . . . . ",
". . . . . . . . . . . . . . . . . . . # + U.!.n n n n n n n n &.*.=.n T -.;.n n n n n n n n n } &+S @ @ . . . . . . . . . . . . . . . . . . . ",
". . . . . . . . . . . . . . . . . . . & @ ,.s n n n n n n n n &.*.=.n T -.;.n n n n n n n n n [ 5 d c : . . . . . . . . . . . . . . . . . . . ",
". . . . . . . . . . . . . . . . . . . . @ E *+n n n n n n n n z =+3 N -+S [.n n n n n n n n n ).7 . ] ~ . . . . . . . . . . . . . . . . . . . ",
". . . . . . . . . . . . . . . . . . . . = + r.n n n n n n n n #.|.j W ;+'.C.n n n n n n n n n >.; . ] 8 . . . . . . . . . . . . . . . . . . . ",
". . . . . . . . . . . . . . . . . . . . # ' k M n n n n n n n n A.N N N >+n n n n n n n n n n n.# + = . . . . . . . . . . . . . . . . . . . . ",
". . . . . . . . . . . . . . . . . . . . 8 @ ,+`.n n n n n n n n n n n n n n n n n n n n n n n r 4.= i . . . . . . . . . . . . . . . . . . . . ",
". . . . . . . . . . . . . . . . . . . . . H # g n n n n n w '+7.).)+( ( ( ( =.*+G.A.!.n n n n D 8 ] . . . . . . . . . . . . . . . . . . . . . ",
". . . . . . . . . . . . . . . . . . . . . * @ l h.n O F [.{.g.=+E : i i i i ' > < B :.%.( !+/ p # @ . . . . . . . . . . . . . . . . . . . . . ",
". . . . . . . . . . . . . . . . . . . . . . @ 9 Q #+u @ * - ~+-.{+Q ]+#+#+%+) B.^+*., b ' *.<./+; & . . . . . . . . . . . . . . . . . . . . . ",
". . . . . . . . . . . . . . . . . . . . . . * = 4.i w.{.3 (+d.D.!.w n n n n w / T >+X .+_+a + . , . . . . . . . . . . . . . . . . . . . . . . ",
". . . . . . . . . . . . . . . . . . . . . . . , @ T.>+w n 1.:+<+5.[+g }+c.x u.V.z.).0.n !.!+R ' = . . . . . . . . . . . . . . . . . . . . . . ",
". . . . . . . . . . . . . . . . . . . . . . . ' ' r.X.v c.|+E + d 4. .r.[.1+8 d i 2+V Y C 1.2 % ] . . . . . . . . . . . . . . . . . . . . . . ",
". . . . . . . . . . . . . . . . . . . . . . . # ] ,.g.~ . . . . a 3+A.n n X.2 /+. . . . H ;+6 c ~ . . . . . . . . . . . . . . . . . . . . . . ",
". . . . . . . . . . . . . . . . . . . . . . . i @ 4+1+f . . . 0 z.n n n n n n v 5 . . . ..5+&+& ' . . . . . . . . . . . . . . . . . . . . . . ",
". . . . . . . . . . . . . . . . . . . . . . . + 9 c.T 6+'.. . @ x z n n n n 7+c.& . . 1+F.D.{.% H . . . . . . . . . . . . . . . . . . . . . . ",
". . . . . . . . . . . . . . . . . . . . . . . 9 + ;.n C 8+. . . . w.R t.C.Y ~+. . . . @.y.n Z % : . . . . . . . . . . . . . . . . . . . . . . ",
". . . . . . . . . . . . . . . . . . . . . . . : ' 9+P.L.. . . 8 i - f ,.0+f ; + $ . . .  .x.a+% - . . . . . . . . . . . . . . . . . . . . . . ",
". . . . . . . . . . . . . . . . . . . . . . . , L 3+V . ' q |.3+<+>.z G.G.z (+v ;.:.w.9 . 6.S.@ - d . . . . . . . . . . . . . . . . . . . . . ",
". . . . . . . . . . . . . . . . . . . . . . * - ~ *.a ^.<+` w n n n n n n n n n n !.d.b+p =+@.9 @ c . . . . . . . . . . . . . . . . . . . . . ",
". . . . . . . . . . . . . . . . . . . . . . ~ ' 5 2 E.n n n n n n n n n n n n n n n n n w h.m.E 9 ~ . . . . . . . . . . . . . . . . . . . . . ",
". . . . . . . . . . . . . . . . . . . . . . & H e y ` n n n n n n n n n n n n n n n n n n 7.m._ 9 c . . . . . . . . . . . . . . . . . . . . . ",
". . . . . . . . . . . . . . . . . . . . . . . : ] = g.Q.z _.n n n n n n n n n n n n _.c+%.'.& @ @ . . . . . . . . . . . . . . . . . . . . . . ",
". . . . . . . . . . . . * ~ @ ; ; ] ' ~ * 8 . . d @ ] 9 < {+3+n.3.b.A.T T A.` h.}.;.k 0 9 : : i . . . * # ' ] ; , @ ' & . . . . . . . . . . . ",
". . . . . . . . . . c ] - 4+|+ .! f.i.9.> = , # b . * ] @ ] + ' f l u ^+^+,.a f 9 9 , - @ * . . b ' @ - &+6 a.A d+|+/+L H ' . . . . . . . . . ",
". . . . . . . . . = H ^+y x.s M _.0.>+-+$.e+L.f @ @ ] i + - i 2.f+g+~+* # j.h+i+^ 9 = 9 * ' 9 @ = j+j.W.`.k+'+_.M 1.c+a+U.$+] 9 . . . . . . . ",
"b . . . . . . * ] ~+R o n n n !.p.'+M w n n b.}.k.A w.$+..w.J.w n 3.V , 9 g+w n l+m+(.5 2+4+q n+u.`.p.n n n w !.w n n n X.o+p+] @ . . . . . . ",
"b . . . . . 7 ; 2+R.]+v M `.;.|. .W A ~.@+o.E._.n p.N *+x.[ n n w g+: H H - Y !.n n >+*+x.:+7.p.n / !+y.3 x q+_+v.#+m *+r+,.,.i , , . . . . . ",
". . . . . , ; . i ; u @+2.+.@ : ] H = - = 7 ~+B.J 6+O _.n n w l+M.& ' . . 7 @ {.I._.n n n M O 1 .+:.s+e = - : ' ] , = 4+t+~+] : ~ ' H . . . . ",
". . . . @ _ ' = e _ j+i.: H d . . . . . d H - @ @ 5 S H.K.]+~.u : ] . . . . # @ =+j.M.]+2.h u &+L - ] # * d . . . d & @ H ] & , H ' 0 # . . . ",
". . . . c H ] $ H % ~ = . . . . . . . . . . . $ % ' ] - - - , : % . . . . . . % @ , ; > , = H # * . . . . . . . . . . . * ] ; ; : . & . . . . ",
". . . . . 4.. # ] - # . . . . . . . . . . . . . . . . . . 8 . . . . . . . . . . . . . 8 . . . . . . . . . . . . . . . . . . 7 E ] . . . . . . ",
". . . . . . . : 0 E . . . . . . . . . . . . . . . . . . . . . . . . . . . . . . . . . . . . . . . . . . . . . . . . . . . . . _ E * . . . . . ",
". . . . . . . . & . . . . . . . . . . . . . . . . . . . . . . . . . . . . . . . . . . . . . . . . . . . . . . . . . . . . . . . 8 . . . . . . ",
". . . . . . . . . . . . . . . . . . . . . . . . . . . . . . . . . . . . . . . . . . . . . . . . . . . . . . . . . . . . . . . . . . . . . . . ",
". . . . . . . . . . . . . . . . . . . . . . . . . . . . . . . . . . . . . . . . . . . . . . . . . . . . . . . . . . . . . . . . . . . . . . . "};
