/* XPM */
static char * bbwn_xpm[] = {
"71 71 215 2",
"  	c None",
". 	c #000000",
"+ 	c #010101",
"@ 	c #060606",
"# 	c #0A0A0A",
"$ 	c #101010",
"% 	c #151515",
"& 	c #020202",
"* 	c #0F0F0F",
"= 	c #121212",
"- 	c #0D0D0D",
"; 	c #181818",
"> 	c #1C1C1C",
", 	c #111111",
"' 	c #0C0C0C",
") 	c #141414",
"! 	c #070707",
"~ 	c #161616",
"{ 	c #232323",
"] 	c #1B1B1B",
"^ 	c #171717",
"/ 	c #484848",
"( 	c #3E3E3E",
"_ 	c #131313",
": 	c #0E0E0E",
"< 	c #040404",
"[ 	c #9A9A9A",
"} 	c #9E9E9E",
"| 	c #191919",
"1 	c #8D8D8D",
"2 	c #0B0B0B",
"3 	c #BEBEBE",
"4 	c #E7E7E7",
"5 	c #2F2F2F",
"6 	c #090909",
"7 	c #262626",
"8 	c #6D6D6D",
"9 	c #C5C5C5",
"0 	c #FCFCFC",
"a 	c #656565",
"b 	c #030303",
"c 	c #D2D2D2",
"d 	c #FFFFFF",
"e 	c #9F9F9F",
"f 	c #080808",
"g 	c #353535",
"h 	c #646464",
"i 	c #D7D7D7",
"j 	c #D5D5D5",
"k 	c #050505",
"l 	c #474747",
"m 	c #BABABA",
"n 	c #686868",
"o 	c #575757",
"p 	c #E5E5E5",
"q 	c #F6F6F6",
"r 	c #ADADAD",
"s 	c #D4D4D4",
"t 	c #B8B8B8",
"u 	c #818181",
"v 	c #454545",
"w 	c #343434",
"x 	c #C2C2C2",
"y 	c #A8A8A8",
"z 	c #4A4A4A",
"A 	c #EFEFEF",
"B 	c #FEFEFE",
"C 	c #F2F2F2",
"D 	c #BFBFBF",
"E 	c #767676",
"F 	c #282828",
"G 	c #989898",
"H 	c #8C8C8C",
"I 	c #303030",
"J 	c #B2B2B2",
"K 	c #D6D6D6",
"L 	c #7F7F7F",
"M 	c #242424",
"N 	c #1A1A1A",
"O 	c #383838",
"P 	c #EAEAEA",
"Q 	c #CECECE",
"R 	c #858585",
"S 	c #AEAEAE",
"T 	c #C4C4C4",
"U 	c #616161",
"V 	c #717171",
"W 	c #8F8F8F",
"X 	c #1F1F1F",
"Y 	c #A4A4A4",
"Z 	c #AAAAAA",
"` 	c #BDBDBD",
" .	c #3F3F3F",
"..	c #1D1D1D",
"+.	c #505050",
"@.	c #EEEEEE",
"#.	c #CACACA",
"$.	c #BCBCBC",
"%.	c #C0C0C0",
"&.	c #F8F8F8",
"*.	c #464646",
"=.	c #757575",
"-.	c #898989",
";.	c #A6A6A6",
">.	c #4E4E4E",
",.	c #A0A0A0",
"'.	c #727272",
").	c #747474",
"!.	c #F5F5F5",
"~.	c #D1D1D1",
"{.	c #2E2E2E",
"].	c #E8E8E8",
"^.	c #8B8B8B",
"/.	c #202020",
"(.	c #B5B5B5",
"_.	c #2C2C2C",
":.	c #CFCFCF",
"<.	c #F4F4F4",
"[.	c #606060",
"}.	c #878787",
"|.	c #DDDDDD",
"1.	c #323232",
"2.	c #565656",
"3.	c #525252",
"4.	c #C8C8C8",
"5.	c #999999",
"6.	c #333333",
"7.	c #EDEDED",
"8.	c #C7C7C7",
"9.	c #2A2A2A",
"0.	c #4B4B4B",
"a.	c #A7A7A7",
"b.	c #E0E0E0",
"c.	c #3A3A3A",
"d.	c #E2E2E2",
"e.	c #909090",
"f.	c #ABABAB",
"g.	c #888888",
"h.	c #919191",
"i.	c #8E8E8E",
"j.	c #E4E4E4",
"k.	c #555555",
"l.	c #D9D9D9",
"m.	c #7C7C7C",
"n.	c #B0B0B0",
"o.	c #515151",
"p.	c #979797",
"q.	c #FDFDFD",
"r.	c #3B3B3B",
"s.	c #5A5A5A",
"t.	c #737373",
"u.	c #8A8A8A",
"v.	c #B6B6B6",
"w.	c #6F6F6F",
"x.	c #212121",
"y.	c #5B5B5B",
"z.	c #A9A9A9",
"A.	c #FBFBFB",
"B.	c #DBDBDB",
"C.	c #929292",
"D.	c #808080",
"E.	c #363636",
"F.	c #2D2D2D",
"G.	c #E3E3E3",
"H.	c #B9B9B9",
"I.	c #222222",
"J.	c #868686",
"K.	c #1E1E1E",
"L.	c #F7F7F7",
"M.	c #A2A2A2",
"N.	c #676767",
"O.	c #AFAFAF",
"P.	c #F1F1F1",
"Q.	c #4F4F4F",
"R.	c #CBCBCB",
"S.	c #424242",
"T.	c #393939",
"U.	c #7A7A7A",
"V.	c #E9E9E9",
"W.	c #777777",
"X.	c #828282",
"Y.	c #F3F3F3",
"Z.	c #444444",
"`.	c #595959",
" +	c #707070",
".+	c #B3B3B3",
"++	c #545454",
"@+	c #2B2B2B",
"#+	c #E6E6E6",
"$+	c #7D7D7D",
"%+	c #B7B7B7",
"&+	c #5F5F5F",
"*+	c #FAFAFA",
"=+	c #9D9D9D",
"-+	c #B1B1B1",
";+	c #A3A3A3",
">+	c #9C9C9C",
",+	c #A1A1A1",
"'+	c #272727",
")+	c #939393",
"!+	c #6B6B6B",
"~+	c #6C6C6C",
"{+	c #787878",
"]+	c #494949",
"^+	c #252525",
"/+	c #ECECEC",
"(+	c #373737",
"_+	c #6E6E6E",
":+	c #292929",
"<+	c #7E7E7E",
"[+	c #DADADA",
"}+	c #848484",
"|+	c #9B9B9B",
"1+	c #CDCDCD",
"2+	c #414141",
". . . . . . . . . . . . . . . . . . . . . . . . . . . . . . . . . . . . . . . . . . . . . . . . . . . . . . . . . . . . . . . . . . . . . . . ",
". . . . . . . . . . . . . . . . . . . . . . . . . . . . . . . . . . . . . . . . . . . . . . . . . . . . . . . . . . . . . . . . . . . . . . . ",
". . . . . . . . . . . . . . . . . . . . . . . . . . . . . . . . . . . . . . . . . . . . . . . . . . . . . . . . . . . . . . . . . . . . . . . ",
". . . . . . . . . . . . . . . . . . . . . . . . . . . . . . . . . . . . . . . . . . . . . . . . . . . . . . . . . . . . . . . . . . . . . . . ",
". . . . . . . . . . . . . . . . . . . . . . . . . . . . . . . . . . . . . . . . . . . . . . . . . . . . . . . . . . . . . . . . . . . . . . . ",
". . . . . . . . . . . . . . . . . . . . . . . . . . . . . . . . . . . . . . . . . . . . . . . . . . . . . . . . . . . . . . . . . . . . . . . ",
". . . . . . . . . . . . . . . . . . . . . . . . . . . . + @ . . . . . . . . . . . . . . . . . . . . . . . . . . . . . . . . . . . . . . . . . ",
". . . . . . . . . . . . . . . . . . . # $ % . . . . . & * = - . . . . . . . . . . . . . . . . . . . . . . . . . . . . . . . . . . . . . . . . ",
". . . . . . . . . . . . . . . . . . . = & ; > . . . . , ' . $ & . . . . . . . . . . . . . . . . . . . . . . . . . . . . . . . . . . . . . . . ",
". . . . . . . . . . . . . . . . . . + ; . . $ * . . . % . . * , . . . . . . . . . . . . . . . . . . . . . . . . . . . . . . . . . . . . . . . ",
". . . . . . . . . . . . . . . . . . . ; . , . ) $ . ! ~ . { ] = . . . . . . . . . . . . . . . . . . . . . . . . . . . . . . . . . . . . . . . ",
". . . . . . . . . . . . . . . . . . . ^ + / ( & _ . # : < [ } | , . . . . . . . . . . . . . . . . . . . . . . . . . . . . . . . . . . . . . . ",
". . . . . . . . . . . . . . . . . . . % < / 1 & = % ~ 2 2 3 4 5 % * . . . . . . . . . . . . . . . . . . . . . . . . . . . . . . . . . . . . . ",
". . . . . . . . . . . . . . . . . . . ) 6 7 8 2 . @ @ . ' 9 0 a . * ) : - , = * : @ . . . . . . . . . . . . . . . . . . . . . . . . . . . . . ",
". . . . . . . . . . . . . . . . . . . * 2 . . b . . . . % c d e b . ! ' # ! f f ' _ f . . . . . . . . . . . . . . . . . . . . . . . . . . . . ",
". . . . . . . . . . . . . . . . . . . % # . g h | . . . ; i d j ] ! ; # . . . . . * % # k + . . . . . . . . . . . . . . . . . . . . . . . . . ",
". . . . . . . . . . . . . . . . . . f _ . l m n . . . ~ o p d q e r s t u v = . . . ' : = ) ^ $ . . . . . . . . . . . . . . . . . . . . . . . ",
". . . . . . . . . . . . . . . . . . ) ' w x y < . _ z m A d d d B d d d d C D E F . . . . . ! ] ~ . . . . . . . . . . . . . . . . . . . . . . ",
". . . . . . . . . . . . . . . . . b , k G d H . I J p d d d d d d d d d d d d d K L M . . . ^ N * . . . . . . . . . . . . . . . . . . . . . . ",
". . . . . . . . . . . . . . . . . - * O P d Q R S d d d d d d d d d d d d d d d d d T U + . : , = ) ' + . . . . . . . . . . . . . . . . . . . ",
". . . . . . . . . . . . . . . . . ~ 6 V B d d B d d d d d d d d d d d d d d d d d d d q W X . . . ! * , ) . . . . . . . . . . . . . . . . . . ",
". . . . . . . . . . . . . . . . . _ < Y d d d d d d d d d d d d d d d d d d d d d d d d d Z O . . . . . $ - . . . . . . . . . . . . . . . . . ",
". . . . . . . . . . . . . . . . ! ) ] j d d d d d d d d d d d d d d d d d d d d d d d d d d `  .. . : ..% , . . . . . . . . . . . . . . . . . ",
". . . . . . . . . . . . . . . . ' : +.q d d @.#.$.%.s &.d d d d d d d B B d d d d d d d d d d $.w . f ^ , . . . . . . . . . . . . . . . . . . ",
". . . . . . . . . . . . . . . . , ! G d B } *.$ 6 ~ ; =.&.d d d d d B -.W d d d d d d d d d d d ;.> . . , = . . . . . . . . . . . . . . . . . ",
". . . . . . . . . . . . . . . $ ) >.P B L f M _ M ,.'.).!.d d d d d ~.^ {.].d d d d d d d d d d d ^.. . . ) $ < . . . . . . . . . . . . . . . ",
". . . . . . . . . . . . . . @ = /.(.d W + _.#.W | :.0 q d d d d d d S < 7 p d d d d d d d d d d d <.[.. . . k f @ . . . . . . . . . . . . . . ",
". . . . . . . . . . . . . . = 2 }.d |.1.2.3.:.^., 4.d d d d d d d d 5.. 6.7.d d d d d d d d d d d d 8.9.. . . + * . . . . . . . . . . . . . . ",
". . . . . . . . . . . . . # _ 0.P d a.1.b.E { * c.d.d d d d d d d d e.. 3.P f.b.d d d d d d d d d d d g.. . . . _ $ . . . . . . . . . . . . . ",
". . . . . . . . . . . . . , = a.d d h.n 0 4 i.L ` d d d d d d d d d ^.. u 1 . h.d d d d d d d d d d d j. .. # $ ~ _ . . . . . . . . . . . . . ",
". . . . . . . . . . . . ' , k.!.d d |.l.d d d B d d d d d d d d d d m.# n.o.< ;.d d d d d d d d d d d d p.& ) _ + . . . . . . . . . . . . . . ",
". . . . . . . . . . . . ) $ y d d d d d d d d d d d d d d d d d d q.U w 4.7  .p d d d d d d d d d d d d 4 r.. < b + . . . . . . . . . . . . . ",
". . . . . . . . . . . , , s.!.d d d d d d d d d d d d d d d d d d 7.O t.H 6 } d d d d d d d d d d d d d d u.. . + < + . . . . . . . . . . . . ",
". . . . . . . . . . . = ~ v.d d d d d d d d d d d d d d d d d d d n.' I % w.q.d d d d d d d d d d d d d d s x.. . : ~ . . . . . . . . . . . . ",
". . . . . . . . . . - * E B d d d d d d d d d d d d d d d d d d !.y.. . 3.a.z.A.d d d d d d d d d d d d d 0 a . . . : $ . . . . . . . . . . . ",
". . . . . . . . . , , l B.d d d d d d d d d d d d d d d d d d d C.b . 5 D.E./.B.d d d d d d d d d d d d d d z.! . . . % $ . . . . . . . . . . ",
". . . . . . . . - = F.u Y q.d d d d d d d d d d G.,.q d d d d H.9.. . I.6., J.d d d d d d d d d d d d d d d G._.. = , , , . . . . . . . . . . ",
". . . . . . . . = K.G s.s.L.d d d d d d d d d d ~.N M.d d d 3  .. . . k l y d d d d d d d d d d d d d d d d q.N.. ; x.2 f . . . . . . . . . . ",
". . . . . . . = = D.O.N Z d d d d d d d d d d d P.g Q.9 R.H S.N ~ c.V ;.P d d d d d d d d d d d d d d d d d d M.< . _ # . . . . . . . . . . . ",
". . . . . . @ , T.4.3.U.B d d d d d d d d d d d V.F.- F 7 _ , ' _ Z B d d d d d d d d d d d d d d d d d d d d K ] . . # % . . . . . . . . . . ",
". . . . . . _ ' L W.>.V.d d d d d d d d d d d C X.~ , f b . . % ] R.d d d d d d d d d d d d d d d d d d d d d Y.Z.. . . , * . . . . . . . . . ",
". . . . . . ^ : z.`.>  +C d d d d d d d d d .+++% N . . . . . % @+#+d d d d d d d d d d d d d d d d d d d d d d E . . . . , + . . . . . . . . ",
". . . . . . % ~ c b.$+6 %+d d d d d d d d ,.I.) * . . . . . 2 % &+*+d d d d d d d d d d d d d d d d d d d d d d ;.< . 6 . * _ . . . . . . . . ",
". . . . . & ~ ^ i d i | =+d d d d d d d -+F _ , . . . . . . _ - ;+d d d d d d d d d d d d d d d d d d d d d d d :.) . | ] _ ~ + . . . . . . . ",
". . . . . < ^ _ :.d >+: O.` .+d d d d ,+F., % . . . . . . f = v P d d d d d d d d d d d d d d d d d d d d d d d P 5 . 6 $ 6 2 . . . . . . . . ",
". . . . . + ~ 2 ` P 2.[.f.'+6.4 d B X.= ) ) . . . . . . . * , M.d d d d d d d d d d d d d d d d d d d d d d d d *+3.. . $ , . . . . . . . . . ",
". . . . . . ~ f )+d i 7.!+. ~+0 d -.. : _ . . . . . . . , = 8 0 d d d d d d d d d d d d d d d d d d d d d d d d d {+. . . , ! . . . . . . . . ",
". . . . . . ' , 3.!.d Y.]+^+4.d /+(+. % @ . . . . . . , _ v j d d d d d d d d d d d d d d d d d d d d d d d d d d >+& . . 2 , . . . . . . . . ",
". . . . . . . * # {+i 4 3._+d d j ] ! , . . . . . . ~ ' M J d d d d d d d d d d d d d d d d d d d d d d d d d d d $.2 . . . _ ! . . . . . . . ",
". . . . . . . . * ) K.:+! )+d d }.. _ 2 . . . . . ! % f p.d d d d d d d d d d d d d d d d d d d d d d d d d d d d j ; . * ' 2 # . . . . . . . ",
". . . . . . . . . , = _ . k.Y $+; # , . . . . . . , k <+d d d d d d d d d d d d d d d d d d d d d d d d d d d d d 4 9.. ^ '+) ' . . . . . . . ",
". . . . . . . . . . . * = f # k * f . . . . . . $ , h C d d d d d d d d d d d d d d d d d d d d d d d d d d d d d Y.( . . , k . . . . . . . . ",
". . . . . . . . . . . . 2 $ ) = * . . . . . . * , z [+d d d d d d d d d d d d d d d d d d d d d d d d d d d d d d A.k.. . : = . . . . . . . . ",
". . . . . . . . . . . . . . . . . . . . . . 6 = x.(.d d d d d d d d d d d d d d d d d d d d d d d d d d d d d d d d 8 . . . , f . . . . . . . ",
". . . . . . . . . . . . . . . . . . . . . . = # J.d d d d d d d d d d d d d d d d d d d d d d d d d d d d d d d d d }+. . . ! = . . . . . . . ",
". . . . . . . . . . . . . . . . . . . . . 2 _ ( j.d d d d d d d d d d d d d d d d d d d d d d d d d d d d d d d d d |+& . b . % k . . . . . . ",
". . . . . . . . . . . . . . . . . . . . . , f 1 d d d d d d d d d d d d d d d d d d d d d d d d d d d d d d d d d d S < : I._ | 6 . . . . . . ",
". . . . . . . . . . . . . . . . . . . . b = N c d d d d d d d d d d d d d d d d d d d d d d d d d d d d d d d d d d 3 # . = * @ . . . . . . . ",
". . . . . . . . . . . . . . . . . . . . 6 * S.<.d d d d d d d d d d d d d d d d d d d d d d d d d d d d d d d d d d #.* . ! = . . . . . . . . ",
". . . . . . . . . . . . . . . . . . . . : 2 h q L.L.L.L.L.L.L.L.L.L.L.L.L.L.L.L.L.L.L.L.L.L.L.L.L.L.L.L.L.L.L.L.L.L.1+^ . . _ f . . . . . . . ",
". . . . . . . . . . . . . . . . . . . . , @ /.l l l l l l l l l l l l l l l l l l l l l l l l l l l l l l l l l l l 2+& . . - * . . . . . . . ",
". . . . . . . . . . . . . . . . . . . . ) ) : : : : : : : : : : : : : : : : : : : : : : : : : : : : : : : : : : : : : : : : ~ , . . . . . . . ",
". . . . . . . . . . . . . . . . . . . . ! : : : : : : : : : : : : : : : : : : : : : : : : : : : : : : : : : : : : : : : : : : @ . . . . . . . ",
". . . . . . . . . . . . . . . . . . . . . . . . . . . . . . . . . . . . . . . . . . . . . . . . . . . . . . . . . . . . . . . . . . . . . . . ",
". . . . . . . . . . . . . . . . . . . . . . . . . . . . . . . . . . . . . . . . . . . . . . . . . . . . . . . . . . . . . . . . . . . . . . . ",
". . . . . . . . . . . . . . . . . . . . . . . . . . . . . . . . . . . . . . . . . . . . . . . . . . . . . . . . . . . . . . . . . . . . . . . ",
". . . . . . . . . . . . . . . . . . . . . . . . . . . . . . . . . . . . . . . . . . . . . . . . . . . . . . . . . . . . . . . . . . . . . . . ",
". . . . . . . . . . . . . . . . . . . . . . . . . . . . . . . . . . . . . . . . . . . . . . . . . . . . . . . . . . . . . . . . . . . . . . . ",
". . . . . . . . . . . . . . . . . . . . . . . . . . . . . . . . . . . . . . . . . . . . . . . . . . . . . . . . . . . . . . . . . . . . . . . ",
". . . . . . . . . . . . . . . . . . . . . . . . . . . . . . . . . . . . . . . . . . . . . . . . . . . . . . . . . . . . . . . . . . . . . . . ",
". . . . . . . . . . . . . . . . . . . . . . . . . . . . . . . . . . . . . . . . . . . . . . . . . . . . . . . . . . . . . . . . . . . . . . . "};
