/* XPM */
static char * bbwp_xpm[] = {
"71 71 154 2",
"  	c None",
". 	c #000000",
"+ 	c #010101",
"@ 	c #040404",
"# 	c #0B0B0B",
"$ 	c #121212",
"% 	c #161616",
"& 	c #171717",
"* 	c #141414",
"= 	c #0C0C0C",
"- 	c #0F0F0F",
"; 	c #090909",
"> 	c #1B1B1B",
", 	c #1A1A1A",
"' 	c #131313",
") 	c #393939",
"! 	c #9C9C9C",
"~ 	c #D7D7D7",
"{ 	c #D6D6D6",
"] 	c #969696",
"^ 	c #353535",
"/ 	c #232323",
"( 	c #BABABA",
"_ 	c #FFFFFF",
": 	c #B5B5B5",
"< 	c #0A0A0A",
"[ 	c #6A6A6A",
"} 	c #FEFEFE",
"| 	c #FCFCFC",
"1 	c #5F5F5F",
"2 	c #101010",
"3 	c #878787",
"4 	c #797979",
"5 	c #060606",
"6 	c #111111",
"7 	c #070707",
"8 	c #6E6E6E",
"9 	c #FDFDFD",
"0 	c #636363",
"a 	c #2A2A2A",
"b 	c #C3C3C3",
"c 	c #BBBBBB",
"d 	c #222222",
"e 	c #434343",
"f 	c #ABABAB",
"g 	c #E5E5E5",
"h 	c #E4E4E4",
"i 	c #A6A6A6",
"j 	c #3D3D3D",
"k 	c #080808",
"l 	c #272727",
"m 	c #262626",
"n 	c #191919",
"o 	c #626262",
"p 	c #7F7F7F",
"q 	c #616161",
"r 	c #0D0D0D",
"s 	c #7A7A7A",
"t 	c #050505",
"u 	c #747474",
"v 	c #F0F0F0",
"w 	c #666666",
"x 	c #E9E9E9",
"y 	c #E0E0E0",
"z 	c #1C1C1C",
"A 	c #181818",
"B 	c #5A5A5A",
"C 	c #DFDFDF",
"D 	c #DDDDDD",
"E 	c #515151",
"F 	c #151515",
"G 	c #BFBFBF",
"H 	c #B3B3B3",
"I 	c #777777",
"J 	c #B9B9B9",
"K 	c #B2B2B2",
"L 	c #717171",
"M 	c #020202",
"N 	c #030303",
"O 	c #0E0E0E",
"P 	c #6C6C6C",
"Q 	c #888888",
"R 	c #686868",
"S 	c #2B2B2B",
"T 	c #DCDCDC",
"U 	c #6D6D6D",
"V 	c #FAFAFA",
"W 	c #AFAFAF",
"X 	c #727272",
"Y 	c #6B6B6B",
"Z 	c #5E5E5E",
"` 	c #E1E1E1",
" .	c #DBDBDB",
"..	c #555555",
"+.	c #535353",
"@.	c #D0D0D0",
"#.	c #484848",
"$.	c #B8B8B8",
"%.	c #202020",
"&.	c #7E7E7E",
"*.	c #757575",
"=.	c #C0C0C0",
"-.	c #B4B4B4",
";.	c #D8D8D8",
">.	c #D1D1D1",
",.	c #D5D5D5",
"'.	c #CDCDCD",
").	c #A9A9A9",
"!.	c #9D9D9D",
"~.	c #5C5C5C",
"{.	c #F7F7F7",
"].	c #F1F1F1",
"^.	c #505050",
"/.	c #828282",
"(.	c #CBCBCB",
"_.	c #585858",
":.	c #7B7B7B",
"<.	c #565656",
"[.	c #1F1F1F",
"}.	c #B6B6B6",
"|.	c #474747",
"1.	c #EFEFEF",
"2.	c #3C3C3C",
"3.	c #999999",
"4.	c #909090",
"5.	c #F2F2F2",
"6.	c #EDEDED",
"7.	c #414141",
"8.	c #C4C4C4",
"9.	c #3F3F3F",
"0.	c #BEBEBE",
"a.	c #1D1D1D",
"b.	c #595959",
"c.	c #CACACA",
"d.	c #C2C2C2",
"e.	c #606060",
"f.	c #E3E3E3",
"g.	c #333333",
"h.	c #C7C7C7",
"i.	c #292929",
"j.	c #8A8A8A",
"k.	c #C5C5C5",
"l.	c #343434",
"m.	c #E8E8E8",
"n.	c #2C2C2C",
"o.	c #F5F5F5",
"p.	c #3A3A3A",
"q.	c #373737",
"r.	c #EBEBEB",
"s.	c #303030",
"t.	c #B1B1B1",
"u.	c #AAAAAA",
"v.	c #2D2D2D",
"w.	c #676767",
". . . . . . . . . . . . . . . . . . . . . . . . . . . . . . . . . . . . . . . . . . . . . . . . . . + @ . . . . . . . . . . . . . . . . . . . ",
". . . . . . . . . . . . . . . . . . . . . . . . . . . . . . . . . . . . . . . . . . . . . . . . . . . . . . . . . . . . . . . . . . . . . . . ",
". . . . . . . . . . . . . . . . . . . . . . . . . . . . . . . . . . . . . . . . . . . . . . . . . . . . . . . . . . . . . . . . . . . . . . . ",
". . . . . . . . . . . . . . . . . . . . . . . . . . . . . . . . . . . . . . . . . . . . . . . . . . . . . . . . . . . . . . . . . . . . . . . ",
". . . . . . . . . . . . . . . . . . . . . . . . . . . . . . . . . . . . . . . . . . . . . . . . . . . . . . . . . . . . . . . . . . . . . . . ",
". . . . . . . . . . . . . . . . . . . . . . . . . . . . . . . . . . . . . . . . . . . . . . . . . . . . . . . . . . . . . . . . . . . . . . . ",
". . . . . . . . . . . . . . . . . . . . . . . . . . . . . . . . . # $ % & * = . . . . . . . . . . . . . . . . . . . . . . . . . . . . . . . . ",
". . . . . . . . . . . . . . . . . . . . . . . . . . . . . . . . * - ; > , ; ' * . . . . . . . . . . . . . . . . . . . . . . . . . . . . . . . ",
". . . . . . . . . . . . . . . . . . . . . . . . . . . . . . . % , ) ! ~ { ] ^ - - . . . . . . . . . . . . . . . . . . . . . . . . . . . . . . ",
". . . . . . . . . . . . . . . . . . . . . . . . . . . . . . = $ / ( _ _ _ _ : > * < . . . . . . . . . . . . . . . . . . . . . . . . . . . . . ",
". . . . . . . . . . . . . . . . . . . . . . . . . . . . . . ' ; [ } _ _ _ _ | 1 ; - . . . . . . . . . . . . . . . . . . . . . . . . . . . . . ",
". . . . . . . . . . . . . . . . . . . . . . . . . . . . . . 2 @ 3 _ _ _ _ _ _ 4 5 ' . . . . . . . . . . . . . . . . . . . . . . . . . . . . . ",
". . . . . . . . . . . . . . . . . . . . . . . . . . . . . . 6 7 8 } _ _ _ _ 9 0 7 6 . . . . . . . . . . . . . . . . . . . . . . . . . . . . . ",
". . . . . . . . . . . . . . . . . . . . . . . . . . . . . . = - a b _ _ _ _ c d 6 # . . . . . . . . . . . . . . . . . . . . . . . . . . . . . ",
". . . . . . . . . . . . . . . . . . . . . . . . . . . . . . . - $ e f g h i j k # . . . . . . . . . . . . . . . . . . . . . . . . . . . . . . ",
". . . . . . . . . . . . . . . . . . . . . . . . . . . . . . . . % . # l m ; . 2 . . . . . . . . . . . . . . . . . . . . . . . . . . . . . . . ",
". . . . . . . . . . . . . . . . . . . . . . . . . . . . . . . % n . o p p q . 6 k . . . . . . . . . . . . . . . . . . . . . . . . . . . . . . ",
". . . . . . . . . . . . . . . . . . . . . . . . . . . . . . 7 r . p _ _ _ } s . t # . . . . . . . . . . . . . . . . . . . . . . . . . . . . . ",
". . . . . . . . . . . . . . . . . . . . . . . . . . . . . # t . u | _ _ _ _ v w . $ , . . . . . . . . . . . . . . . . . . . . . . . . . . . . ",
". . . . . . . . . . . . . . . . . . . . . . . . . . . . , ' . o x _ _ _ _ _ _ y 1 . z n . . . . . . . . . . . . . . . . . . . . . . . . . . . ",
". . . . . . . . . . . . . . . . . . . . . . . . . . . A > . B C _ _ _ _ _ _ _ _ D E . $ k . . . . . . . . . . . . . . . . . . . . . . . . . . ",
". . . . . . . . . . . . . . . . . . . . . . . . . . ; ' . F G _ _ _ _ _ _ _ _ _ _ H 2 . @ + . . . . . . . . . . . . . . . . . . . . . . . . . ",
". . . . . . . . . . . . . . . . . . . . . . . . . + 5 . . @ I H J J J J J J J J K L . . k 6 . . . . . . . . . . . . . . . . . . . . . . . . . ",
". . . . . . . . . . . . . . . . . . . . . . . . . r 6 M M N . k k k k k k k k k k . M M M A r . . . . . . . . . . . . . . . . . . . . . . . . ",
". . . . . . . . . . . . . . . . . . . . . . . . . 7 # k k O O k P Q Q Q Q Q Q R 5 r = k k r < . . . . . . . . . . . . . . . . . . . . . . . . ",
". . . . . . . . . . . . . . . . . . . . . . . . . . . . . 7 2 S h _ _ _ _ _ _ T / 6 7 . . . . . . . . . . . . . . . . . . . . . . . . . . . . ",
". . . . . . . . . . . . . . . . . . . . . . . . . . . . . - < U } _ _ _ _ _ _ V 0 # 6 . . . . . . . . . . . . . . . . . . . . . . . . . . . . ",
". . . . . . . . . . . . . . . . . . . . . . . . . . . . r F ' ( _ _ _ _ _ _ _ _ W = - 5 . . . . . . . . . . . . . . . . . . . . . . . . . . . ",
". . . . . . . . . . . . . . . . . . . . . . . . . . . . 6 @ X } _ _ _ _ _ _ _ _ V Y < A . . . . . . . . . . . . . . . . . . . . . . . . . . . ",
". . . . . . . . . . . . . . . . . . . . . . . . . . . z , Z ` _ _ _ _ _ _ _ _ _ _  ...> n . . . . . . . . . . . . . . . . . . . . . . . . . . ",
". . . . . . . . . . . . . . . . . . . . . . . . . . - * +.T _ _ _ _ _ _ _ _ _ _ _ _ @.#.$ - . . . . . . . . . . . . . . . . . . . . . . . . . ",
". . . . . . . . . . . . . . . . . . . . . . . . . # 6 a b _ _ _ _ _ _ _ _ _ _ _ _ _ _ $.%.$ # . . . . . . . . . . . . . . . . . . . . . . . . ",
". . . . . . . . . . . . . . . . . . . . . . . . . * 5 &._ _ _ _ _ _ _ _ _ _ _ _ _ _ _ _ *.k $ . . . . . . . . . . . . . . . . . . . . . . . . ",
". . . . . . . . . . . . . . . . . . . . . . . . @ % O =._ _ _ _ _ _ _ _ _ _ _ _ _ _ _ _ -.; ' . . . . . . . . . . . . . . . . . . . . . . . . ",
". . . . . . . . . . . . . . . . . . . . . . . . 5 * , ;._ _ _ _ _ _ _ _ _ _ _ _ _ _ _ _ >.F F @ . . . . . . . . . . . . . . . . . . . . . . . ",
". . . . . . . . . . . . . . . . . . . . . . . . 5 & A ,._ _ _ _ _ _ _ _ _ _ _ _ _ _ _ _ '.' & @ . . . . . . . . . . . . . . . . . . . . . . . ",
". . . . . . . . . . . . . . . . . . . . . . . . . F 7 )._ _ _ _ _ _ _ _ _ _ _ _ _ _ _ _ !.@ * . . . . . . . . . . . . . . . . . . . . . . . . ",
". . . . . . . . . . . . . . . . . . . . . . . . . ' r ~.{._ _ _ _ _ _ _ _ _ _ _ _ _ _ ].^.O O . . . . . . . . . . . . . . . . . . . . . . . . ",
". . . . . . . . . . . . . . . . . . . . . . . . . 5 6 . /.} _ _ _ _ _ _ _ _ _ _ _ _ 9 p . % M . . . . . . . . . . . . . . . . . . . . . . . . ",
". . . . . . . . . . . . . . . . . . . . . . . . . . = 5 M X @.V _ _ _ _ _ _ _ _ V (.8 . O ' . . . . . . . . . . . . . . . . . . . . . . . . . ",
". . . . . . . . . . . . . . . . . . . . . . . . . . . - 6 N / _.:.3 Q Q Q Q 3 4 <.[.- ' F . . . . . . . . . . . . . . . . . . . . . . . . . . ",
". . . . . . . . . . . . . . . . . . . . . . . . . . . . t = . 7 # # # # # # # # t . F M . . . . . . . . . . . . . . . . . . . . . . . . . . . ",
". . . . . . . . . . . . . . . . . . . . . . . . . . . . . & k *.b b b b b b b b 8 t % . . . . . . . . . . . . . . . . . . . . . . . . . . . . ",
". . . . . . . . . . . . . . . . . . . . . . . . . . . . . ' $ =._ _ _ _ _ _ _ _ }.O F . . . . . . . . . . . . . . . . . . . . . . . . . . . . ",
". . . . . . . . . . . . . . . . . . . . . . . . . . . . < * |.1._ _ _ _ _ _ _ _ x 2.$ k . . . . . . . . . . . . . . . . . . . . . . . . . . . ",
". . . . . . . . . . . . . . . . . . . . . . . . . . . . - r 3._ _ _ _ _ _ _ _ _ _ 4.< F . . . . . . . . . . . . . . . . . . . . . . . . . . . ",
". . . . . . . . . . . . . . . . . . . . . . . . . . . & ' Z 5._ _ _ _ _ _ _ _ _ _ 6...- 5 . . . . . . . . . . . . . . . . . . . . . . . . . . ",
". . . . . . . . . . . . . . . . . . . . . . . . . . A & 7.(._ _ _ _ _ _ _ _ _ _ _ _ 8.9.7 $ . . . . . . . . . . . . . . . . . . . . . . . . . ",
". . . . . . . . . . . . . . . . . . . . . . . . . 6 2 7.G _ _ _ _ _ _ _ _ _ _ _ _ _ _ 0.9.' = . . . . . . . . . . . . . . . . . . . . . . . . ",
". . . . . . . . . . . . . . . . . . . . . . . . a.> b.c._ _ _ _ _ _ _ _ _ _ _ _ _ _ _ _ d.^.r O . . . . . . . . . . . . . . . . . . . . . . . ",
". . . . . . . . . . . . . . . . . . . . . . . r & 0 C _ _ _ _ _ _ _ _ _ _ _ _ _ _ _ _ _ _ T 1 ; O . . . . . . . . . . . . . . . . . . . . . . ",
". . . . . . . . . . . . . . . . . . . . . . 2 = e.f._ _ _ _ _ _ _ _ _ _ _ _ _ _ _ _ _ _ _ _ C B ' - . . . . . . . . . . . . . . . . . . . . . ",
". . . . . . . . . . . . . . . . . . . . . k $ g.@._ _ _ _ _ _ _ _ _ _ _ _ _ _ _ _ _ _ _ _ _ _ h.i.6 5 . . . . . . . . . . . . . . . . . . . . ",
". . . . . . . . . . . . . . . . . . . . . $ ; j._ _ _ _ _ _ _ _ _ _ _ _ _ _ _ _ _ _ _ _ _ _ _ _ p = $ . . . . . . . . . . . . . . . . . . . . ",
". . . . . . . . . . . . . . . . . . . . t ' A @._ _ _ _ _ _ _ _ _ _ _ _ _ _ _ _ _ _ _ _ _ _ _ _ k.$ 6 t . . . . . . . . . . . . . . . . . . . ",
". . . . . . . . . . . . . . . . . . . . - = l.1._ _ _ _ _ _ _ _ _ _ _ _ _ _ _ _ _ _ _ _ _ _ _ _ m.n.6 2 . . . . . . . . . . . . . . . . . . . ",
". . . . . . . . . . . . . . . . . . . . F t 9.o._ _ _ _ _ _ _ _ _ _ _ _ _ _ _ _ _ _ _ _ _ _ _ _ 5.p.5 F . . . . . . . . . . . . . . . . . . . ",
". . . . . . . . . . . . . . . . . . . M $ . q.v _ _ _ _ _ _ _ _ _ _ _ _ _ _ _ _ _ _ _ _ _ _ _ _ r.s.. % . . . . . . . . . . . . . . . . . . . ",
". . . . . . . . . . . . . . . . . . . 5 ' . $ t.9 9 9 9 9 9 9 9 9 9 9 9 9 9 9 9 9 9 9 9 9 9 9 9 u.= . * N . . . . . . . . . . . . . . . . . . ",
". . . . . . . . . . . . . . . . . . . 5 - . . v.q w.w.w.w.w.w.w.w.w.w.w.w.w.w.w.w.w.w.w.w.w.w.1 a . . * 7 . . . . . . . . . . . . . . . . . . ",
". . . . . . . . . . . . . . . . . . . 7 - . . . . . . . . . . . . . . . . . . . . . . . . . . . . . . 6 t . . . . . . . . . . . . . . . . . . ",
". . . . . . . . . . . . . . . . . . . k A O O O O O O O O O O O O O O O O O O O O O O O O O O O O O O n 5 . . . . . . . . . . . . . . . . . . ",
". . . . . . . . . . . . . . . . . . . . r O O O O O O O O O O O O O O O O O O O O O O O O O O O O O O = . . . . . . . . . . . . . . . . . . . ",
". . . . . . . . . . . . . . . . . . . . . . . . . . . . . . . . . . . . . . . . . . . . . . . . . . . . . . . . . . . . . . . . . . . . . . . ",
". . . . . . . . . . . . . . . . . . . . . . . . . . . . . . . . . . . . . . . . . . . . . . . . . . . . . . . . . . . . . . . . . . . . . . . ",
". . . . . . . . . . . . . . . . . . . . . . . . . . . . . . . . . . . . . . . . . . . . . . . . . . . . . . . . . . . . . . . . . . . . . . . ",
". . . . . . . . . . . . . . . . . . . . . . . . . . . . . . . . . . . . . . . . . . . . . . . . . . . . . . . . . . . . . . . . . . . . . . . ",
". . . . . . . . . . . . . . . . . . . . . . . . . . . . . . . . . . . . . . . . . . . . . . . . . . . . . . . . . . . . . . . . . . . . . . . ",
". . . . . . . . . . . . . . . . . . . . . . . . . . . . . . . . . . . . . . . . . . . . . . . . . . . . . . . . . . . . . . . . . . . . . . . ",
". . . . . . . . . . . . . . . . . . . . . . . . . . . . . . . . . . . . . . . . . . . . . . . . . . . . . . . . . . . . . . . . . . . . . . . ",
". . . . . . . . . . . . . . . . . . . . . . . . . . . . . . . . . . . . . . . . . . . . . . . . . . . . . . . . . . . . . . . . . . . . . . . "};
