/* XPM */
static char * bbwq_xpm[] = {
"71 71 246 2",
"  	c None",
". 	c #000000",
"+ 	c #010101",
"@ 	c #080808",
"# 	c #090909",
"$ 	c #131313",
"% 	c #0F0F0F",
"& 	c #151515",
"* 	c #171717",
"= 	c #121212",
"- 	c #0B0B0B",
"; 	c #4E4E4E",
"> 	c #979797",
", 	c #949494",
"' 	c #464646",
") 	c #161616",
"! 	c #303030",
"~ 	c #D2D2D2",
"{ 	c #FFFFFF",
"] 	c #C7C7C7",
"^ 	c #292929",
"/ 	c #494949",
"( 	c #FAFAFA",
"_ 	c #F5F5F5",
": 	c #414141",
"< 	c #343434",
"[ 	c #D7D7D7",
"} 	c #2D2D2D",
"| 	c #141414",
"1 	c #111111",
"2 	c #181818",
"3 	c #585858",
"4 	c #ADADAD",
"5 	c #A9A9A9",
"6 	c #555555",
"7 	c #0D0D0D",
"8 	c #0A0A0A",
"9 	c #040404",
"0 	c #0E0E0E",
"a 	c #060606",
"b 	c #101010",
"c 	c #0C0C0C",
"d 	c #070707",
"e 	c #252525",
"f 	c #8B8B8B",
"g 	c #9C9C9C",
"h 	c #3E3E3E",
"i 	c #020202",
"j 	c #A1A1A1",
"k 	c #888888",
"l 	c #030303",
"m 	c #666666",
"n 	c #AAAAAA",
"o 	c #FEFEFE",
"p 	c #5C5C5C",
"q 	c #5A5A5A",
"r 	c #FBFBFB",
"s 	c #8A8A8A",
"t 	c #969696",
"u 	c #F6F6F6",
"v 	c #515151",
"w 	c #1B1B1B",
"x 	c #212121",
"y 	c #676767",
"z 	c #1A1A1A",
"A 	c #191919",
"B 	c #565656",
"C 	c #4C4C4C",
"D 	c #2A2A2A",
"E 	c #878787",
"F 	c #7B7B7B",
"G 	c #2B2B2B",
"H 	c #232323",
"I 	c #4A4A4A",
"J 	c #CBCBCB",
"K 	c #D4D4D4",
"L 	c #5D5D5D",
"M 	c #B2B2B2",
"N 	c #A7A7A7",
"O 	c #DCDCDC",
"P 	c #C4C4C4",
"Q 	c #7A7A7A",
"R 	c #999999",
"S 	c #1F1F1F",
"T 	c #D6D6D6",
"U 	c #CECECE",
"V 	c #A8A8A8",
"W 	c #6B6B6B",
"X 	c #D5D5D5",
"Y 	c #E6E6E6",
"Z 	c #696969",
"` 	c #383838",
" .	c #EFEFEF",
"..	c #E9E9E9",
"+.	c #2F2F2F",
"@.	c #3B3B3B",
"#.	c #1D1D1D",
"$.	c #717171",
"%.	c #EBEBEB",
"&.	c #D1D1D1",
"*.	c #454545",
"=.	c #616161",
"-.	c #FCFCFC",
";.	c #050505",
">.	c #8D8D8D",
",.	c #1E1E1E",
"'.	c #4D4D4D",
").	c #8C8C8C",
"!.	c #808080",
"~.	c #575757",
"{.	c #C9C9C9",
"].	c #9B9B9B",
"^.	c #B7B7B7",
"/.	c #ABABAB",
"(.	c #A5A5A5",
"_.	c #E5E5E5",
":.	c #222222",
"<.	c #DADADA",
"[.	c #1C1C1C",
"}.	c #424242",
"|.	c #868686",
"1.	c #3C3C3C",
"2.	c #F1F1F1",
"3.	c #ECECEC",
"4.	c #333333",
"5.	c #909090",
"6.	c #D3D3D3",
"7.	c #262626",
"8.	c #FDFDFD",
"9.	c #DDDDDD",
"0.	c #525252",
"a.	c #3D3D3D",
"b.	c #323232",
"c.	c #707070",
"d.	c #919191",
"e.	c #A3A3A3",
"f.	c #7C7C7C",
"g.	c #A2A2A2",
"h.	c #BFBFBF",
"i.	c #BEBEBE",
"j.	c #BCBCBC",
"k.	c #B9B9B9",
"l.	c #B1B1B1",
"m.	c #BBBBBB",
"n.	c #727272",
"o.	c #363636",
"p.	c #E4E4E4",
"q.	c #818181",
"r.	c #4F4F4F",
"s.	c #242424",
"t.	c #8E8E8E",
"u.	c #3F3F3F",
"v.	c #9E9E9E",
"w.	c #373737",
"x.	c #CCCCCC",
"y.	c #898989",
"z.	c #9D9D9D",
"A.	c #606060",
"B.	c #F8F8F8",
"C.	c #929292",
"D.	c #D0D0D0",
"E.	c #404040",
"F.	c #393939",
"G.	c #828282",
"H.	c #2C2C2C",
"I.	c #9F9F9F",
"J.	c #484848",
"K.	c #D8D8D8",
"L.	c #E2E2E2",
"M.	c #AFAFAF",
"N.	c #C5C5C5",
"O.	c #6C6C6C",
"P.	c #C6C6C6",
"Q.	c #C0C0C0",
"R.	c #202020",
"S.	c #282828",
"T.	c #8F8F8F",
"U.	c #B6B6B6",
"V.	c #DEDEDE",
"W.	c #838383",
"X.	c #444444",
"Y.	c #7D7D7D",
"Z.	c #DFDFDF",
"`.	c #C1C1C1",
" +	c #C8C8C8",
".+	c #E1E1E1",
"++	c #F9F9F9",
"@+	c #737373",
"#+	c #6E6E6E",
"$+	c #434343",
"%+	c #7E7E7E",
"&+	c #F7F7F7",
"*+	c #F0F0F0",
"=+	c #EDEDED",
"-+	c #F2F2F2",
";+	c #767676",
">+	c #E8E8E8",
",+	c #F3F3F3",
"'+	c #F4F4F4",
")+	c #7F7F7F",
"!+	c #646464",
"~+	c #535353",
"{+	c #656565",
"]+	c #A4A4A4",
"^+	c #B8B8B8",
"/+	c #CACACA",
"(+	c #DBDBDB",
"_+	c #EAEAEA",
":+	c #777777",
"<+	c #272727",
"[+	c #2E2E2E",
"}+	c #626262",
"|+	c #848484",
"1+	c #AEAEAE",
"2+	c #D9D9D9",
"3+	c #9A9A9A",
"4+	c #4B4B4B",
"5+	c #EEEEEE",
"6+	c #ACACAC",
"7+	c #797979",
"8+	c #CDCDCD",
"9+	c #5B5B5B",
"0+	c #A0A0A0",
"a+	c #686868",
"b+	c #858585",
"c+	c #B5B5B5",
"d+	c #353535",
"e+	c #6A6A6A",
"f+	c #C3C3C3",
"g+	c #C2C2C2",
"h+	c #787878",
"i+	c #B0B0B0",
"j+	c #636363",
"k+	c #E3E3E3",
"l+	c #959595",
"m+	c #3A3A3A",
"n+	c #E7E7E7",
"o+	c #757575",
"p+	c #5E5E5E",
"q+	c #5F5F5F",
"r+	c #939393",
"s+	c #CFCFCF",
"t+	c #505050",
"u+	c #E0E0E0",
"v+	c #545454",
"w+	c #B3B3B3",
". . . . . . . . . . . . . . . . . . . . . . . . . . . . . . . . . . . . . . . . . . . . . . . . . . . . . . . . . . . . . . . . . . . . . . . ",
". . . . . . . . . . . . . . . . . . . . . . . . . . . . . . . . . . . . . . . . . . . . . . . . . . . . . . . . . . . . . . . . . . . . . . . ",
". . . . . . . . . . . . . . . . . . . . . . . . . . . . . . . . . . . . . . . . . . . . . . . . . . . . . . . . . . . . . . . . . . . . . . . ",
". . . . . . . . . . . . . . . . . . . . . . . . . . . . . . . . . . . . . . . . . . . . . . . . . . . . . . . . . . . . . . . . . . . . . . . ",
". . . . . . . . . . . . . . . . . . . . . . . . . . . . . . . . . . . . . . . . . . . . . . . . . . . . . . . . . . . . . . . . . . . . . . . ",
". . . . . . . . . . . . . . . . . . . . . . . . . . . . . . . . . . . . . . . . . . . . . . . . . . . . . . . . . . . . . . . . . . . . . . . ",
". . . . . . . . . . . . . . . . . . . . . . . . . . . . . . . . . . . . . . . . . . . . . . . . . . . . . . . . . . . . . . . . . . . . . . . ",
". . . . . . . . . . . . . . . . . . . . . . . . . . . . . . . . . . + @ # . . . . . . . . . . . . . . . . . . . . . . . . . . . . . . . . . . ",
". . . . . . . . . . . . . . . . . . . . . . . . . . . . . . . . . $ % & * = - . . . . . . . . . . . . . . . . . . . . . . . . . . . . . . . . ",
". . . . . . . . . . . . . . . . . . . . . . . . . . . . . . . . - $ ; > , ' - # . . . . . . . . . . . . . . . . . . . . . . . . . . . . . . . ",
". . . . . . . . . . . . . . . . . . . . . . . . . . . . . . . . ) ! ~ { { ] ^ = . . . . . . . . . . . . . . . . . . . . . . . . . . . . . . . ",
". . . . . . . . . . . . . . . . . . . . . . . . . . . . . . . . & / ( { { _ : ) . . . . . . . . . . . . . . . . . . . . . . . . . . . . . . . ",
". . . . . . . . . . . . . . . . . . . . . . . . . . . . . . . . $ < [ { { ~ } | . . . . . . . . . . . . . . . . . . . . . . . . . . . . . . . ",
". . . . . . . . . . . . . . . . . . . . . . . . . . . . . . . . 1 2 3 4 5 6 * 7 . . . . . . . . . . . . . . . . . . . . . . . . . . . . . . . ",
". . . . . . . . . . . . . . . . . . . . @ 8 9 . . . . . . . . . . & 1 # 0 0 * . . . . . . . . . . a 8 # . . . . . . . . . . . . . . . . . . . ",
". . . . . . . . . . . . . . . . . . + 7 * ) b c . . . . . . . . . . 1 b 0 d . . . . . . . . . . % = ) ) $ . . . . . . . . . . . . . . . . . . ",
". . . . . . . . . . . . . . . . . . = e f g h b a . . . . . . . . . a 1 b i . . . . . . . . . d = / j k ^ = . . . . . . . . . . . . . . . . . ",
". . . . . . . . . . . . . . . . . l ) m { { g | # . . . . . . . . . 8 % b d . . . . . . . . . 8 2 n { o p ) l . . . . . . . . . . . . . . . . ",
". . . . . . . . . . . . . . . . . 9 ) q r { s * # . . . . . . . . . % 7 7 0 . . . . . . . . . - 2 t { u v * l . . . . . . . . . . . . . . . . ",
". . . . . . . . . . . . . . . . . . 0 - q m w b . . . . . . . . . . | d d = . . . . . . . . . i ) x y 3 = $ . . . . . . . . . . . . . . . . . ",
". . . . . . . . . . . . . . . . . . . @ 8 . = - . . . . . . . . . . ) w z $ . . . . . . . . . . w A . 1 1 . . . . . . . . . . . . . . . . . . ",
". . . . . 7 1 $ 8 . . . . . . . . . . . b d A . . . . . . . . . . l $ B C & 9 . . . . . . . . . . * 8 = . . . . . . . . . . . - = b c . . . . ",
". . . . | $ e D 1 = . . . . . . . . . . 1 a & . . . . . . . . . . c 1 E F b @ . . . . . . . . . i = # b . . . . . . . . . . 2 & G H 2 2 . . . ",
". . . . | I J K L 1 9 . . . . . . . . . 1 d $ 0 . . . . . . . . . 0 = M N b 0 . . . . . . . . . % 1 8 b . . . . . . . . . # ) y O P h = . . . ",
". . . l | Q { { R 2 c . . . . . . . . . 1 d a = . . . . . . . . . | S T U z $ . . . . . . . . . $ i 8 b . . . . . . . . . # * V { { W ) i . . ",
". . . . 0 ; X Y Z | d . . . . . . . . . 1 z ` | c . . . . . . . . | `  ...+.& . . . . . . . . 0 & @.#.b . . . . . . . . . 8 $ $.%.&.*.$ . . . ",
". . . . a c } } . = . . . . . . . . . . 1 S k & = . . . . . . . a | =.-.( 6 ) ;.. . . . . . . | * >.,.b . . . . . . . . . . 1 . +.G * & . . . ",
". . . . . 7 = | . | 7 . . . . . . . . . 1 S J '.$ a . . . . . . 8 % ).{ { !.b 8 . . . . . . a = ~.{.,.b . . . . . . . . . 0 = . % & 1 . . . . ",
". . . . . . . ) & 9 b . . . . . . . . . 1 S [ ].= | . . . . . . = | ^.{ { /.b % . . . . . . ) | (.&.,.b . . . . . . . . . % . | 0 . . . . . . ",
". . . . . . . . = + b % . . . . . . . . 1 S [ _.` | i . . . . . ) :.<.{ { ~ [.| . . . . . 9 | }.%.&.,.b . . . . . . . . 1 % ;.= . . . . . . . ",
". . . . . . . . 1 b ) 1 b . . . . . . . 1 S [ { |.1 b . . . . + | 1.2.{ { 3.4.| . . . . . = b 5.{ &.,.b . . . . . . . = = ) 1 b . . . . . . . ",
". . . . . . . . 9 | : '.$ 1 . . . . . . 1 S [ { 6.7.| . . . . @ | m 8.{ { r q | ;.. . . . & } 9.{ &.,.b . . . . . . 1 b 0.a.1 + . . . . . . . ",
". . . . . . . . . = x f b.b . . . . . . 1 S [ r o c.& - . . . - 7 d.{ e.V { |.0 8 . . . 0 & Q { o &.,.b . . . . . l = @.k #.| . . . . . . . . ",
". . . . . . . . . - $ f.g.:.$ . . . . . 1 S [ M h.i.z = . . . 1 & j.k.G < i.l.$ = . . . $ x {.h.m.&.,.b . . . . . = ^ /.n.1 @ . . . . . . . . ",
". . . . . . . . . . 1 o.p.q.= | . . . . 1 S U '.@.j r.$ @ . . & s.t.1.| = u.>.[.| . . c $ ~.v.w.~.x.,.b . . . . 1 $ y.O +.$ . . . . . . . . . ",
". . . . . . . . . . b | z. .A.b b . . . 1 S f.c - c & c b . i | ;.2 ,.v.R ) [.l & . . b # 2 - c 1 !.,.b . . . = 1 Z B.C.= 0 . . . . . . . . . ",
". . . . . . . . . . i b 0.u D.E.% 9 . . 1 @ z F.G.} . . 7 & A & . H.I.{ { ].^ . & * ) b . . 4.q.! S 8 1 . . c b J.K.2./ $ + . . . . . . . . . ",
". . . . . . . . . . . = 2 s L.M.H.z + . & l 9 > { N.W e 0 % % H O.P.{ { { { Q.y R.% 0 0 S.$.J { T.. 9 | . 9 b H.U.V.W.| | . . . . . . . . . . ",
". . . . . . . . . . . # 1 d X.$.< ) $ 2 | + Y.o { { -.Z.] j.`.O -.{ { { { { { r <.Q.j. +.+8.{ { ++@+. $ * = % o.#+$+;.$ a . . . . . . . . . . ",
". . . . . . . . . . . . 1 S., %+: S ) [.: , 8.{ { { { { { { { { { { { { { { { { { { { { { { { { { &+5.a.w ) R.X.q.>.:.| . . . . . . . . . . . ",
". . . . . . . . . . . . 7 0 G.{ *+V.K [ =+{ { { { { { { { { { { { { { { { { { { { { { { { { { { { { { 3.[ X Z.-+o ;+$ 7 . . . . . . . . . . . ",
". . . . . . . . . . . . i 1 o.>+{ { { { { { { { { { { { o 8.r ( ++_ ,+,+,+,+u ++( r 8.o { { { { { { { { { { { { .+} $ . . . . . . . . . . . . ",
". . . . . . . . . . . . . $ | ^.{ { { -.'+..<.{.^.e.5.)+$.!+~.~+'.X.h a.a.u.*.; ~+3 {+$.!.d.]+^+/+(+_+_ -.{ { { n % $ . . . . . . . . . . . . ",
". . . . . . . . . . . . . 0 | :+N.(.G.A.$+} w 0 d 9 ;.- % * z :.7.<+<+<+<+<+7.7.:.A * % - ;.9 @ % [.[+X.}+|+N P.#+$ 8 . . . . . . . . . . . . ",
". . . . . . . . . . . . . 9 $ # 0 l 9 % S 4.C y G.].1+h./+T 2+.+_.Y Y Y Y Y Y _..+2+T {.i.4 3+q.m 4+b.,.0 l l % d $ + . . . . . . . . . . . . ",
". . . . . . . . . . . . . . | 9 *.|+V ] 9.5+++o { { { { { { { { { { { { { { { { { { { { { { { { o B.=+O N.N G.E.9 | . . . . . . . . . . . . . ",
". . . . . . . . . . . . . . = w i.{ { { { { { { { { { { { { { { { { { { { { { { { { { { { { { { { { { { { { { U.2 % . . . . . . . . . . . . . ",
". . . . . . . . . . . . . . 7 7.K.{ { { { { { r ,+>+(+J j.6+v.C.y.q.F 7+7+f.q.y.C.I.6+j.8+O ..'+r { { { { { { ~ s.8 . . . . . . . . . . . . . ",
". . . . . . . . . . . . . . d * g.++3.K.i.v.f.9+: H.[.b 8 9 + . . d H h a.:.a . . i 9 - 1 [.} }.L %+0+h.<.=+( , * a . . . . . . . . . . . . . ",
". . . . . . . . . . . . . . d = ^ 0.o.,.- i . . . . . . . . . [.a+6+Z.'+,+9.V !+2 . . . . . . . . . l c S w.v R.& 9 . . . . . . . . . . . . . ",
". . . . . . . . . . . . . . i % 2 T.n j , b+c.6 b.i . . . . <+^+8.{ { { { { { -.c+s.. . . . d d+~.n.|., g.n s $ 2 9 . . . . . . . . . . . . . ",
". . . . . . . . . . . . . . i % ,.9.{ { { { { ( ..}.. . . . * d.p.o { { { { 8..+).| . . . . '.3.( { { { { { T * A 9 . . . . . . . . . . . . . ",
". . . . . . . . . . . . . . a $ x .+{ { { { { x.#++ . . . . . l +.e+0+f+g+z.a+} + . . . . . a n.~ { { { { { 2+z $ i . . . . . . . . . . . . . ",
". . . . . . . . . . . . . . # b D >+{ { r /+Q e . . . . . i ;.@ - c b z z b c - @ 9 i . . . . . D %+U -.{ { L.H = d . . . . . . . . . . . . . ",
". . . . . . . . . . . . . . 7 - E.-+..6+!+w i b 7.: L h+>.0+4 ^+`.P P N.N.P P `.^+4 I.).;+9+u.e % + S Z i+%.5+o.b - . . . . . . . . . . . . . ",
". . . . . . . . . . . . . . ) 8 o.;+d+7 G j+R ] k+,+r { { r ++_ -+*+ . . . .2.-+_ ++-.{ { r ,+L.N.l+A.S.0 m+;++.@ 1 . . . . . . . . . . . . . ",
". . . . . . . . . . . . . . $ i . 7 B g.L.-.{ ( n+x.1+T.o+p+r.$+@.` o.d+d+o.` 1.X.r.q+;+5.M.U >+( { r Z.z.0.- . 9 ) . . . . . . . . . . . . . ",
". . . . . . . . . . . . . l ) . ~+M.u { u 8+r+9+H.) & x 4.X.~+L y O.#+#+#+#+W y L 0.$+b.R.& * +.L t s+&+{ _ 5 ; . = + . . . . . . . . . . . . ",
". . . . . . . . . . . . . @ = 4.U.,+Z.t t+2 A X.;+]+{.u+5+'+( -.o o o o o o o o -.( '+=+Z.] j @+: 2 A v+].L.2.M.[+& # . . . . . . . . . . . . ",
". . . . . . . . . . . . . c & d $ 1.} i w.5.&.,+{ { { { { { { { { { { { { { { { { { { { { { { { -+s+f b.l ! @.1 ;.* 8 . . . . . . . . . . . . ",
". . . . . . . . . . . . . . c | & b 9 . S v+b+w+2+ .r { { { { { { { { { { { { { { { { { { ( 5+[ l.G.v [.. a % = = 0 . . . . . . . . . . . . . ",
". . . . . . . . . . . . . . . . a % = & = 8 9 @ [.o.B h+R w+N.6.9._.n+n+n+n+_.O 6.N.M > :+v+d+w d ;.7 % * * b 9 . . . . . . . . . . . . . . . ",
". . . . . . . . . . . . . . . . . . . l 8 b $ $ & b - a a d 0 ) #.7.S.S.S.S.7.#.) 7 a ;.a - b $ | $ b d 9 . . . . . . . . . . . . . . . . . . ",
". . . . . . . . . . . . . . . . . . . . . . . + @ - % = & | 2 | $ 1 - b b - 1 = & 2 | | 1 % 8 a + . . . . . . . . . . . . . . . . . . . . . . ",
". . . . . . . . . . . . . . . . . . . . . . . . . . . . . . l 9 @ a ;.8 8 ;.d a 9 l . . . . . . . . . . . . . . . . . . . . . . . . . . . . . ",
". . . . . . . . . . . . . . . . . . . . . . . . . . . . . . . . . . . . . . . . . . . . . . . . . . . . . . . . . . . . . . . . . . . . . . . ",
". . . . . . . . . . . . . . . . . . . . . . . . . . . . . . . . . . . . . . . . . . . . . . . . . . . . . . . . . . . . . . . . . . . . . . . ",
". . . . . . . . . . . . . . . . . . . . . . . . . . . . . . . . . . . . . . . . . . . . . . . . . . . . . . . . . . . . . . . . . . . . . . . ",
". . . . . . . . . . . . . . . . . . . . . . . . . . . . . . . . . . . . . . . . . . . . . . . . . . . . . . . . . . . . . . . . . . . . . . . ",
". . . . . . . . . . . . . . . . . . . . . . . . . . . . . . . . . . . . . . . . . . . . . . . . . . . . . . . . . . . . . . . . . . . . . . . ",
". . . . . . . . . . . . . . . . . . . . . . . . . . . . . . . . . . . . . . . . . . . . . . . . . . . . . . . . . . . . . . . . . . . . . . . "};
