/* XPM */
static char * bbwr_xpm[] = {
"71 71 219 2",
"  	c None",
". 	c #000000",
"+ 	c #040404",
"@ 	c #060606",
"# 	c #050505",
"$ 	c #080808",
"% 	c #0B0B0B",
"& 	c #0C0C0C",
"* 	c #0D0D0D",
"= 	c #0F0F0F",
"- 	c #121212",
"; 	c #0E0E0E",
"> 	c #141414",
", 	c #111111",
"' 	c #020202",
") 	c #010101",
"! 	c #171717",
"~ 	c #151515",
"{ 	c #131313",
"] 	c #161616",
"^ 	c #0A0A0A",
"/ 	c #070707",
"( 	c #101010",
"_ 	c #1B1B1B",
": 	c #424242",
"< 	c #7B7B7B",
"[ 	c #878787",
"} 	c #8D8D8D",
"| 	c #8C8C8C",
"1 	c #7A7A7A",
"2 	c #3C3C3C",
"3 	c #191919",
"4 	c #090909",
"5 	c #808080",
"6 	c #C3C3C3",
"7 	c #D3D3D3",
"8 	c #DADADA",
"9 	c #939393",
"0 	c #030303",
"a 	c #919191",
"b 	c #FFFFFF",
"c 	c #858585",
"d 	c #9C9C9C",
"e 	c #D2D2D2",
"f 	c #C2C2C2",
"g 	c #787878",
"h 	c #BDBDBD",
"i 	c #C4C4C4",
"j 	c #CECECE",
"k 	c #B1B1B1",
"l 	c #DBDBDB",
"m 	c #1C1C1C",
"n 	c #181818",
"o 	c #232323",
"p 	c #E1E1E1",
"q 	c #EAEAEA",
"r 	c #414141",
"s 	c #979797",
"t 	c #4A4A4A",
"u 	c #F0F0F0",
"v 	c #ECECEC",
"w 	c #E8E8E8",
"x 	c #D5D5D5",
"y 	c #FEFEFE",
"z 	c #FBFBFB",
"A 	c #FAFAFA",
"B 	c #F5F5F5",
"C 	c #F3F3F3",
"D 	c #E9E9E9",
"E 	c #E7E7E7",
"F 	c #E4E4E4",
"G 	c #DFDFDF",
"H 	c #DCDCDC",
"I 	c #E0E0E0",
"J 	c #E5E5E5",
"K 	c #F6F6F6",
"L 	c #7C7C7C",
"M 	c #A3A3A3",
"N 	c #757575",
"O 	c #686868",
"P 	c #5A5A5A",
"Q 	c #515151",
"R 	c #444444",
"S 	c #3B3B3B",
"T 	c #363636",
"U 	c #2B2B2B",
"V 	c #282828",
"W 	c #252525",
"X 	c #202020",
"Y 	c #1A1A1A",
"Z 	c #1D1D1D",
"` 	c #262626",
" .	c #2C2C2C",
"..	c #373737",
"+.	c #454545",
"@.	c #5B5B5B",
"#.	c #696969",
"$.	c #767676",
"%.	c #868686",
"&.	c #949494",
"*.	c #A4A4A4",
"=.	c #747474",
"-.	c #272727",
";.	c #303030",
">.	c #3D3D3D",
",.	c #4B4B4B",
"'.	c #505050",
").	c #545454",
"!.	c #565656",
"~.	c #575757",
"{.	c #434343",
"].	c #2F2F2F",
"^.	c #222222",
"/.	c #383838",
"(.	c #ADADAD",
"_.	c #BBBBBB",
":.	c #C5C5C5",
"<.	c #D8D8D8",
"[.	c #E2E2E2",
"}.	c #E6E6E6",
"|.	c #F8F8F8",
"1.	c #F7F7F7",
"2.	c #EBEBEB",
"3.	c #D7D7D7",
"4.	c #D1D1D1",
"5.	c #BABABA",
"6.	c #ACACAC",
"7.	c #343434",
"8.	c #9D9D9D",
"9.	c #959595",
"0.	c #B3B3B3",
"a.	c #FCFCFC",
"b.	c #F4F4F4",
"c.	c #F9F9F9",
"d.	c #AAAAAA",
"e.	c #1F1F1F",
"f.	c #3F3F3F",
"g.	c #9E9E9E",
"h.	c #8F8F8F",
"i.	c #828282",
"j.	c #6A6A6A",
"k.	c #5E5E5E",
"l.	c #555555",
"m.	c #525252",
"n.	c #4D4D4D",
"o.	c #404040",
"p.	c #3E3E3E",
"q.	c #464646",
"r.	c #5F5F5F",
"s.	c #ABABAB",
"t.	c #393939",
"u.	c #5D5D5D",
"v.	c #929292",
"w.	c #A0A0A0",
"x.	c #B6B6B6",
"y.	c #C1C1C1",
"z.	c #C7C7C7",
"A.	c #CFCFCF",
"B.	c #212121",
"C.	c #C6C6C6",
"D.	c #4C4C4C",
"E.	c #C0C0C0",
"F.	c #B5B5B5",
"G.	c #9F9F9F",
"H.	c #4F4F4F",
"I.	c #535353",
"J.	c #F1F1F1",
"K.	c #DDDDDD",
"L.	c #1E1E1E",
"M.	c #A6A6A6",
"N.	c #BFBFBF",
"O.	c #B9B9B9",
"P.	c #B7B7B7",
"Q.	c #DEDEDE",
"R.	c #F2F2F2",
"S.	c #474747",
"T.	c #2D2D2D",
"U.	c #3A3A3A",
"V.	c #484848",
"W.	c #5C5C5C",
"X.	c #242424",
"Y.	c #2E2E2E",
"Z.	c #606060",
"`.	c #6D6D6D",
" +	c #7F7F7F",
".+	c #7E7E7E",
"++	c #737373",
"@+	c #6C6C6C",
"#+	c #A2A2A2",
"$+	c #8A8A8A",
"%+	c #777777",
"&+	c #9A9A9A",
"*+	c #6B6B6B",
"=+	c #999999",
"-+	c #838383",
";+	c #888888",
">+	c #676767",
",+	c #AEAEAE",
"'+	c #AFAFAF",
")+	c #313131",
"!+	c #727272",
"~+	c #595959",
"{+	c #CCCCCC",
"]+	c #D4D4D4",
"^+	c #6E6E6E",
"/+	c #666666",
"(+	c #9B9B9B",
"_+	c #585858",
":+	c #A9A9A9",
"<+	c #BCBCBC",
"[+	c #B2B2B2",
"}+	c #4E4E4E",
"|+	c #797979",
"1+	c #898989",
"2+	c #6F6F6F",
"3+	c #FDFDFD",
"4+	c #626262",
"5+	c #CACACA",
"6+	c #656565",
". . . . . . . . . . . . . . . . . . . . . . . . . . . . . . . . . . . . . . . . . . . . . . . . . . . . . . . . . . . . . . . . . . . . . . . ",
". . . . . . . . . . . . . . . . . . . . . . . . . . . . . . . . . . . . . . . . . . . . . . . . . . . . . . . . . . . . . . . . . . . . . . . ",
". . . . . . . . . . . . . . . . . . . . . . . . . . . . . . . . . . . . . . . . . . . . . . . . . . . . . . . . . . . . . . . . . . . . . . . ",
". . . . . . . . . . . . . . . . . . . . . . . . . . . . . . . . . . . . . . . . . . . . . . . . . . . . . . . . . . . . . . . . . . . . . . . ",
". . . . . . . . . . . . . . . . . . . . + @ # $ . . . . . . % & & * % = - ; > , , % . . . . . ' ' ) . . . . . . . . . . . . . . . . . . . . . ",
". . . . . . . . . . . . . . . . - > ! ~ > { , ] , . . . . . ~ ^ / / + # # + / / ; - . . . . . > ! ; ; ( { ~ - , . . . . . . . . . . . . . . . ",
". . . . . . . . . . . . . . . . ~ + # & ~ _ ! # ~ . . . . . > ' : < [ } | [ 1 2 # , . . . . . > + 3 _ ~ & # + ] . . . . . . . . . . . . . . . ",
". . . . . . . . . . . . . . . . ~ 4 5 6 7 8 9 # ~ . . . . . > 0 a b b b b b b c # , . . . . . - / d 8 e f g # ! . . . . . . . . . . . . . . . ",
". . . . . . . . . . . . . . . . ~ 4 h b b b i * ~ # 0 0 0 0 ! 0 a b b b b b b c # ~ 0 0 0 0 / ~ { j b b b k @ ! . . . . . . . . . . . . . . . ",
". . . . . . . . . . . . . . . . ~ 4 h b b b l m ~ n n n n n ! . a b b b b b b c 0 ] n n n n 3 - o p b b b k @ ! . . . . . . . . . . . . . . . ",
". . . . . . . . . . . . . . . . ~ 4 h b b b q r - - - - - - - - s b b b b b b } - - - - - - - - t u b b b k @ ! . . . . . . . . . . . . . . . ",
". . . . . . . . . . . . . . . . ~ 4 h b b b b 7 j j j j j j j j v b b b b b b w j j j j j j j j x b b b b k @ ! . . . . . . . . . . . . . . . ",
". . . . . . . . . . . . . . . . ~ 4 h b b b b b b b b b b b b b b b b b b b b b b b b b b b b b b b b b b k @ ! . . . . . . . . . . . . . . . ",
". . . . . . . . . . . . . . . . ~ 4 h b b b b y z A B C u D E F G H 8 8 8 8 H I J E D u C K A z y b b b b k @ ! . . . . . . . . . . . . . . . ",
". . . . . . . . . . . . . . . . ~ 4 L M 9 c N O P Q R S T U V W X m _ Y Y _ Z X ` V  ...2 +.Q @.#.$.%.&.*.=.@ ! . . . . . . . . . . . . . . . ",
". . . . . . . . . . . . . . . . ! . + # # 4 & ~ n o -.;...>.R ,.'.).!.~.~.!.).'.t {.2 ..].-.^.n ~ & 4 # # # . ! . . . . . . . . . . . . . . . ",
". . . . . . . . . . . . . . . . , ; . /.(._.:.e <.[.}.v u C B |.A z z z z z z A 1.B C u 2.}.p 3.4.i 5.6.7.. = ] . . . . . . . . . . . . . . . ",
". . . . . . . . . . . . . . . . . > = ( 8.b b b b b b b b b b b b b b b b b b b b b b b b b b b b b b 9./ - , . . . . . . . . . . . . . . . . ",
". . . . . . . . . . . . . . . . . . { - W 0.b b b b b b y a.A A |.K b.C C b.K c.A A a.y b b b b b b d.e.> * . . . . . . . . . . . . . . . . . ",
"' . . . . . . . . . . . . . . . . . ) ( . f.g.d.8.h.i.=.j.k.l.m.n.+.o.>.p.o.q.n.m.l.r.j.N i.h.g.s.g.t.. ( . . . . . . . . . . . . . . . . . . ",
". . . . . . . . . . . . . . . . . . . > ( . 4 + + + / % * ] 0 . ` -.-.-.-.-.-.W . + ~ * % / + + + 4 . 3 , . . . . . . . . . . . . . . . . . . ",
". . . . . . . . . . . . . . . . . . . . > # u.v.w.s.x.y.z.A.,.B.C.}.}.E E }.}.h ! D.j C.E.F.d.G.a H.# _ . . . . . . . . . . . . . . . . . . . ",
". . . . . . . . . . . . . . . . . . . . ! @ s.b b b b b b z I.B.I b b b b b b 3.! ).z b b b b b b v.# _ . . . . . . . . . . . . . . . . . . . ",
". . . . . . . . . . . . . . . . . . . . ! @ s.b b b b b b z I.B.I b b b b b b 3.! ).z b b b b b b v.# _ . . . . . . . . . . . . . . . . . . . ",
". . . . . . . . . . . . . . . . . . . . ! @ s.z K J.q F K.e t L.M.N.O.P.P.O.N.G.! ,.e Q.F q R.K z v.# _ . . . . . . . . . . . . . . . . . . . ",
". . . . . . . . . . . . . . . . . . . . ! ' S.@.S.t.T.W L.! 0 . % ^ $ / / $ ^ % . 0 ! L.W T.U.V.W.>.+ _ . . . . . . . . . . . . . . . . . . . ",
". . . . . . . . . . . . . . . . . . . . ! ' = Y W X.. Y.).Z.`.=. +[ .+_ ^.i.[ .+++@+r.I.` . ` X.3 % + _ . . . . . . . . . . . . . . . . . . . ",
". . . . . . . . . . . . . . . . . . . . ! @ %.<.F #+/ $+z a.y b b b 2.].S C b b b y a.z %+% (.F <.=.# _ . . . . . . . . . . . . . . . . . . . ",
". . . . . . . . . . . . . . . . . . . . ! @ s.b b x./ h.b b b b b b 2.].S C b b b b b b 1 % 6 b b v.# _ . . . . . . . . . . . . . . . . . . . ",
". . . . . . . . . . . . . . . . . . . . ! @ s.b b x./ h.b b b b b b 2.].S C b b b b b b 1 % 6 b b v.# _ . . . . . . . . . . . . . . . . . . . ",
". . . . . . . . . . . . . . . . . . . . ! @ s.b b x./ h.b b b b b b 2.].S C b b b b b b 1 % 6 b b v.# _ . . . . . . . . . . . . . . . . . . . ",
". . . . . . . . . . . . . . . . . . . . ! @ s.b b x./ h.b b b b b b 2.].S C b b b b b b 1 % 6 b b v.# _ . . . . . . . . . . . . . . . . . . . ",
". . . . . . . . . . . . . . . . . . . . ! @ &+}.Q.&./ *+N.0.s.#+=+9 -+m X.;+9 =+#+s.0.E.k.% G.G }.%.# _ . . . . . . . . . . . . . . . . . . . ",
". . . . . . . . . . . . . . . . . . . . ! ' X.-.e.~ . $ % @ + ' # # # # # # # # ' + @ % # . ! e.-.Z + _ . . . . . . . . . . . . . . . . . . . ",
". . . . . . . . . . . . . . . . . . . . ! ' U : Q P >+++5 ;+;.Y v.,+'+'+'+'+,+| { )+;+ +!+>+~+'.r X.+ _ . . . . . . . . . . . . . . . . . . . ",
". . . . . . . . . . . . . . . . . . . . ! @ G.b.A z y b b z I.B.I b b b b b b 3.! ).z b b y z A b.$+# _ . . . . . . . . . . . . . . . . . . . ",
". . . . . . . . . . . . . . . . . . . . ! @ s.b b b b b b z I.B.I b b b b b b 3.! ).z b b b b b b v.# _ . . . . . . . . . . . . . . . . . . . ",
". . . . . . . . . . . . . . . . . . . . ! @ s.b b b b b b z I.B.I b b b b b b 3.! ).z b b b b b b v.# _ . . . . . . . . . . . . . . . . . . . ",
". . . . . . . . . . . . . . . . . . . . ! @ s.b b b b b b z I.B.I b b b b b b 3.! ).z b b b b b b v.# _ . . . . . . . . . . . . . . . . . . . ",
". . . . . . . . . . . . . . . . . . . . ! @ s.y y z z c.K u I.B.x b.b.b.b.b.b.{+! ).J.K c.z z y y v.# _ . . . . . . . . . . . . . . . . . . . ",
". . . . . . . . . . . . . . . . . . . . ! # I.=.O ~+I.H.S.: , 0 >.f.f.f.f.f.f.S . - : S.H.I.P #.=.S.# _ . . . . . . . . . . . . . . . . . . . ",
". . . . . . . . . . . . . . . . . . . . ! ' % * ~ > . > ^.X.` ` -.-.-.) 0 -.-.-.` W X.^.= . ] ~ * $ + _ . . . . . . . . . . . . . . . . . . . ",
". . . . . . . . . . . . . . . . . . . . ! @  +z.e 9 / < [.F J }.}.}.]+].S l }.}.}.J F [.@+% 8.e C.^+# _ . . . . . . . . . . . . . . . . . . . ",
". . . . . . . . . . . . . . . . . . . . ! @ s.b b x./ h.b b b b b b 2.].S C b b b b b b 1 % 6 b b v.# _ . . . . . . . . . . . . . . . . . . . ",
". . . . . . . . . . . . . . . . . . . . ! @ s.b b x./ h.b b b b b b 2.].S C b b b b b b 1 % 6 b b v.# _ . . . . . . . . . . . . . . . . . . . ",
". . . . . . . . . . . . . . . . . . . . ! @ s.b b x./ h.b b b b b b 2.].S C b b b b b b 1 % 6 b b v.# _ . . . . . . . . . . . . . . . . . . . ",
". . . . . . . . . . . . . . . . . . . . > @ /+(+(+@+@ !.(+(+(+(+(+(+} X -.a (+(+(+(+(+(+,.4 =.(+(+_+# m . . . . . . . . . . . . . . . . . . . ",
". . . . . . . . . . . . . . . . . . . ( , . # # # # 0 # # # # # # # # 0 0 # # # # # # # + 0 # # # # . > { . . . . . . . . . . . . . . . . . . ",
". . . . . . . . . . . . . . . . . . 4 ( . V.g.:+:+:+:+:+:+:+:+:+:+:+:+:+:+:+:+:+:+:+:+:+:+:+:+:+:+=+r . ( ) . . . . . . . . . . . . . . . . . ",
". . . . . . . . . . . . . . . . . . - ^  .<+b b b b b b b b b b b b b b b b b b b b b b b b b b b b [+o = , . . . . . . . . . . . . . . . . . ",
". . . . . . . . . . . . . . . . . - > ^ &+b b b b b b b b b b b b b b b b b b b b b b b b b b b b b b 9 + = { . . . . . . . . . . . . . . . . ",
". . . . . . . . . . . . . . . . , , . @.p p p p p p p p p p p p p p p p p p p p p p p p p p p p p p p I l.. , > . . . . . . . . . . . . . . . ",
". . . . . . . . . . . . . . . / * . . _ B.B.B.B.B.B.B.B.B.B.B.B.B.B.B.B.B.B.B.B.B.B.B.B.B.B.B.B.B.B.B.B.] . . - 0 . . . . . . . . . . . . . . ",
". . . . . . . . . . . . . . . - 4 ) +.}+}+}+}+}+}+}+}+}+}+}+}+}+}+}+}+}+}+}+}+}+}+}+}+}+}+}+}+}+}+}+}+}+}+{.. = ( . . . . . . . . . . . . . . ",
". . . . . . . . . . . . . . # > . R 2.c.c.c.c.c.c.c.c.c.c.c.c.c.c.c.c.c.c.c.c.c.c.c.c.c.c.c.c.c.c.c.c.c.c.J t.. ^ ) . . . . . . . . . . . . . ",
". . . . . . . . . . . . . . # , . |+b b b b b b b b b b b b b b b b b b b b b b b b b b b b b b b b b b b b ^+. 4 ) . . . . . . . . . . . . . ",
". . . . . . . . . . . . . . # , . 9.b b b b b b b b b b b b b b b b b b b b b b b b b b b b b b b b b b b b 1+. 4 ) . . . . . . . . . . . . . ",
". . . . . . . . . . . . . . # , ' &+b b b b b b b b b b b b b b b b b b b b b b b b b b b b b b b b b b b b h.. 4 ) . . . . . . . . . . . . . ",
". . . . . . . . . . . . . . # , . } b b b b b b b b b b b b b b b b b b b b b b b b b b b b b b b b b b b b i.. 4 ) . . . . . . . . . . . . . ",
". . . . . . . . . . . . . . # , . 2+y b b b b b b b b b b b b b b b b b b b b b b b b b b b b b b b b b b 3+4+. 4 ) . . . . . . . . . . . . . ",
". . . . . . . . . . . . . . # = . r 5+3.3.3.3.3.3.3.3.3.3.3.3.3.3.3.3.3.3.3.3.3.3.3.3.3.3.3.3.3.3.3.3.3.3.C./.. 4 ) . . . . . . . . . . . . . ",
". . . . . . . . . . . . . . > ; . . ! ! ! ! ! ! ! ! ! ! ! ! ! ! ! ! ! ! ! ! ! ! ! ! ! ! ! ! ! ! ! ! ! ! ! ! . . % - . . . . . . . . . . . . . ",
". . . . . . . . . . . . . 0 ~ . 4 H.I.I.I.I.I.I.I.I.I.I.I.I.I.I.I.I.I.I.I.I.I.I.I.I.I.I.I.I.I.I.I.I.I.I.I.I.D.# . ! ) . . . . . . . . . . . . ",
". . . . . . . . . . . . . / > . m.K z z z z z z z z z z z z z z z z z z z z z z z z z z z z z z z z z z z z C +.. ] $ . . . . . . . . . . . . ",
". . . . . . . . . . . . . ^ * . 6+a.a.a.a.a.a.a.a.a.a.a.a.a.a.a.a.a.a.a.a.a.a.a.a.a.a.a.a.a.a.a.a.a.a.a.a.a.c.l.. - % . . . . . . . . . . . . ",
". . . . . . . . . . . . . 4 = . B.k.k.k.k.k.k.k.k.k.k.k.k.k.k.k.k.k.k.k.k.k.k.k.k.k.k.k.k.k.k.k.k.k.k.k.k.k.u.Y . ( / . . . . . . . . . . . . ",
". . . . . . . . . . . . . + { * * * * * * * * * * * * * * * * * * * * * * * * * * * * * * * * * * * * * * * * * * ~ 0 . . . . . . . . . . . . ",
". . . . . . . . . . . . . . @ / / / / / / / / / / / / / / / / / / / / / / / / / / / / / / / / / / / / / / / / / / $ . . . . . . . . . . . . . ",
". . . . . . . . . . . . . . . . . . . . . . . . . . . . . . . . . . . . . . . . . . . . . . . . . . . . . . . . . . . . . . . . . . . . . . . ",
". . . . . . . . . . . . . . . . . . . . . . . . . . . . . . . . . . . . . . . . . . . . . . . . . . . . . . . . . . . . . . . . . . . . . . . ",
". . . . . . . . . . . . . . . . . . . . . . . . . . . . . . . . . . . . . . . . . . . . . . . . . . . . . . . . . . . . . . . . . . . . . . . "};
