/* XPM */
static char * black_xpm[] = {
"95 45 208 2",
"  	c None",
". 	c #FFFFFF",
"+ 	c #323232",
"@ 	c #474747",
"# 	c #585858",
"$ 	c #5A5A5A",
"% 	c #4D4D4D",
"& 	c #393939",
"* 	c #333333",
"= 	c #A7A7A7",
"- 	c #D4D4D4",
"; 	c #B2B2B2",
"> 	c #3A3A3A",
", 	c #444444",
"' 	c #CBCBCB",
") 	c #D5D5D5",
"! 	c #D2D2D2",
"~ 	c #626262",
"{ 	c #CCCCCC",
"] 	c #D6D6D6",
"^ 	c #3F3F3F",
"/ 	c #AAAAAA",
"( 	c #D8D8D8",
"_ 	c #BCBCBC",
": 	c #2B2B2B",
"< 	c #494949",
"[ 	c #DADADA",
"} 	c #5B5B5B",
"| 	c #DBDBDB",
"1 	c #5D5D5D",
"2 	c #DCDCDC",
"3 	c #5E5E5E",
"4 	c #DDDDDD",
"5 	c #DEDEDE",
"6 	c #989898",
"7 	c #2A2A2A",
"8 	c #232323",
"9 	c #D0D0D0",
"0 	c #DFDFDF",
"a 	c #999999",
"b 	c #000000",
"c 	c #2D2D2D",
"d 	c #606060",
"e 	c #E0E0E0",
"f 	c #464646",
"g 	c #070707",
"h 	c #C0C0C0",
"i 	c #9D9D9D",
"j 	c #202020",
"k 	c #4A4A4A",
"l 	c #545454",
"m 	c #777777",
"n 	c #616161",
"o 	c #E2E2E2",
"p 	c #8D8D8D",
"q 	c #A9A9A9",
"r 	c #5C5C5C",
"s 	c #828282",
"t 	c #D7D7D7",
"u 	c #9B9B9B",
"v 	c #787878",
"w 	c #B0B0B0",
"x 	c #ADADAD",
"y 	c #7F7F7F",
"z 	c #C2C2C2",
"A 	c #CDCDCD",
"B 	c #595959",
"C 	c #434343",
"D 	c #BFBFBF",
"E 	c #3C3C3C",
"F 	c #040404",
"G 	c #525252",
"H 	c #C9C9C9",
"I 	c #636363",
"J 	c #1C1C1C",
"K 	c #676767",
"L 	c #E4E4E4",
"M 	c #1D1D1D",
"N 	c #929292",
"O 	c #2E2E2E",
"P 	c #7C7C7C",
"Q 	c #C7C7C7",
"R 	c #9C9C9C",
"S 	c #151515",
"T 	c #C4C4C4",
"U 	c #838383",
"V 	c #797979",
"W 	c #363636",
"X 	c #484848",
"Y 	c #3D3D3D",
"Z 	c #878787",
"` 	c #272727",
" .	c #BDBDBD",
"..	c #B6B6B6",
"+.	c #727272",
"@.	c #A4A4A4",
"#.	c #565656",
"$.	c #B9B9B9",
"%.	c #E6E6E6",
"&.	c #535353",
"*.	c #B7B7B7",
"=.	c #818181",
"-.	c #242424",
";.	c #4F4F4F",
">.	c #0B0B0B",
",.	c #696969",
"'.	c #9A9A9A",
").	c #767676",
"!.	c #E7E7E7",
"~.	c #575757",
"{.	c #282828",
"].	c #E3E3E3",
"^.	c #161616",
"/.	c #9F9F9F",
"(.	c #898989",
"_.	c #656565",
":.	c #4C4C4C",
"<.	c #E8E8E8",
"[.	c #424242",
"}.	c #AEAEAE",
"|.	c #868686",
"1.	c #E1E1E1",
"2.	c #949494",
"3.	c #919191",
"4.	c #A6A6A6",
"5.	c #7B7B7B",
"6.	c #CFCFCF",
"7.	c #E9E9E9",
"8.	c #2C2C2C",
"9.	c #C8C8C8",
"0.	c #252525",
"a.	c #E5E5E5",
"b.	c #212121",
"c.	c #1A1A1A",
"d.	c #A0A0A0",
"e.	c #D3D3D3",
"f.	c #646464",
"g.	c #EAEAEA",
"h.	c #8B8B8B",
"i.	c #A1A1A1",
"j.	c #0F0F0F",
"k.	c #303030",
"l.	c #EBEBEB",
"m.	c #ACACAC",
"n.	c #373737",
"o.	c #6B6B6B",
"p.	c #BBBBBB",
"q.	c #A5A5A5",
"r.	c #848484",
"s.	c #515151",
"t.	c #CACACA",
"u.	c #ECECEC",
"v.	c #CECECE",
"w.	c #383838",
"x.	c #3B3B3B",
"y.	c #C3C3C3",
"z.	c #686868",
"A.	c #B1B1B1",
"B.	c #343434",
"C.	c #939393",
"D.	c #9E9E9E",
"E.	c #737373",
"F.	c #EDEDED",
"G.	c #1E1E1E",
"H.	c #B5B5B5",
"I.	c #8C8C8C",
"J.	c #858585",
"K.	c #EEEEEE",
"L.	c #292929",
"M.	c #6C6C6C",
"N.	c #707070",
"O.	c #AFAFAF",
"P.	c #7E7E7E",
"Q.	c #4E4E4E",
"R.	c #131313",
"S.	c #222222",
"T.	c #EFEFEF",
"U.	c #6D6D6D",
"V.	c #8E8E8E",
"W.	c #313131",
"X.	c #D1D1D1",
"Y.	c #BEBEBE",
"Z.	c #4B4B4B",
"`.	c #D9D9D9",
" +	c #666666",
".+	c #F0F0F0",
"++	c #353535",
"@+	c #A8A8A8",
"#+	c #171717",
"$+	c #B4B4B4",
"%+	c #404040",
"&+	c #F2F2F2",
"*+	c #979797",
"=+	c #6A6A6A",
"-+	c #F3F3F3",
";+	c #F4F4F4",
">+	c #ABABAB",
",+	c #F5F5F5",
"'+	c #F6F6F6",
")+	c #F7F7F7",
"!+	c #F8F8F8",
"~+	c #F9F9F9",
"{+	c #FAFAFA",
"]+	c #454545",
"^+	c #FBFBFB",
"/+	c #FDFDFD",
"(+	c #5F5F5F",
"_+	c #555555",
". . . . . . . . . . . . . . . . . . . . . . . . . . . . . . . . . . . . . . . . . . . . . . . . . . . . . . . . . . . . . . . . . . . . . . . . . . . . . . . . . . . . . . . . . . . . . . . ",
". . . . . . . . . . . . . . . . . . . . . . . . . . . . . . . . . . . . . . . . . . . . . . . . . . . . . . . . . . . . . . . . . . . . . . . . . . . . . . . . . . . . . . . . . . . . . . . ",
". . . . . .   + @ # $ $ $ $ $ $ $ $ $ $ $ $ $ $ $ $ $ $ $ $ $ $ $ $ $ $ $ $ $ $ $ $ $ $ $ $ $ $ $ $ $ $ $ $ $ $ $ $ $ $ $ $ $ $ $ $ $ $ $ $ $ $ $ $ $ $ $ $ $ $ $ $ $ $ $ # % &   . . . . . . ",
". . . .   * = - - - - - - - - - - - - - - - - - - - - - - - - - - - - - - - - - - - - - - - - - - - - - - - - - - - - - - - - - - - - - - - - - - - - - - - - - - - - - - - - - ; >   . . . . ",
". . .   , ' ) ) ) ) ) ) ) ) ) ) ) ) ) ) ) ) ) ) ) ) ) ) ) ) ) ) ) ) ) ) ) ) ) ) ) ) ) ) ) ) ) ) ) ) ) ) ) ) ) ) ) ) ) ) ) ) ) ) ) ) ) ) ) ) ) ) ) ) ) ) ) ) ) ) ) ) ) ) ) ) ) ) ) ! ~   . . . ",
". . . * { ] ] ] ] ] ] ] ] ] ] ] ] ] ] ] ] ] ] ] ] ] ] ] ] ] ] ] ] ] ] ] ] ] ] ] ] ] ] ] ] ] ] ] ] ] ] ] ] ] ] ] ] ] ] ] ] ] ] ] ] ] ] ] ] ] ] ] ] ] ] ] ] ] ] ] ] ] ] ] ] ] ] ] ] ] ] ^ . . . ",
". .   / ( ( ( ( ( ( ( ( ( ( ( ( ( ( ( ( ( ( ( ( ( ( ( ( ( ( ( ( ( ( ( ( ( ( ( ( ( ( ( ( ( ( ( ( ( ( ( ( ( ( ( ( ( ( ( ( ( ( ( ( ( ( ( ( ( ( ( ( ( ( ( ( ( ( ( ( ( ( ( ( ( ( ( ( ( ( ( _ : . . ",
". . * ( ( ( ( ( ( ( ( ( ( ( ( ( ( ( ( ( ( ( ( ( ( ( ( ( ( ( ( ( ( ( ( ( ( ( ( ( ( ( ( ( ( ( ( ( ( ( ( ( ( ( ( ( ( ( ( ( ( ( ( ( ( ( ( ( ( ( ( ( ( ( ( ( ( ( ( ( ( ( ( ( ( ( ( ( ( ( ( ( , . . ",
". . < [ [ [ [ [ [ [ [ [ [ [ [ [ [ [ [ [ [ [ [ [ [ [ [ [ [ [ [ [ [ [ [ [ [ [ [ [ [ [ [ [ [ [ [ [ [ [ [ [ [ [ [ [ [ [ [ [ [ [ [ [ [ [ [ [ [ [ [ [ [ [ [ [ [ [ [ [ [ [ [ [ [ [ [ [ [ [ [ [ } . . ",
". . $ | | | | | | | | | | | | | | | | | | | | | | | | | | | | | | | | | | | | | | | | | | | | | | | | | | | | | | | | | | | | | | | | | | | | | | | | | | | | | | | | | | | | | | | | | 1 . . ",
". . 1 2 2 2 2 2 2 2 2 2 2 2 2 2 2 2 2 2 2 2 2 2 2 2 2 2 2 2 2 2 2 2 2 2 2 2 2 2 2 2 2 2 2 2 2 2 2 2 2 2 2 2 2 2 2 2 2 2 2 2 2 2 2 2 2 2 2 2 2 2 2 2 2 2 2 2 2 2 2 2 2 2 2 2 2 2 2 2 2 2 1 . . ",
". . 3 4 4 4 4 4 4 4 4 4 4 4 4 4 4 4 4 4 4 4 4 4 4 4 4 4 4 4 4 4 4 4 4 4 4 4 4 4 4 4 4 4 4 4 4 4 4 4 4 4 4 4 4 4 4 4 4 4 4 4 4 4 4 4 4 4 4 4 4 4 4 4 4 4 4 4 4 4 4 4 4 4 4 4 4 4 4 4 4 4 3 . . ",
". . 3 5 5 5 5 5 5 5 5 5 5 5 5 5 5 5 5 6 } 7 8 } 9 5 5 5 5 5 5 5 5 5 5 5 5 5 5 5 5 5 5 5 5 5 5 5 5 5 5 5 5 5 5 5 5 5 5 5 5 5 5 5 5 5 5 5 5 5 5 5 5 5 5 5 5 5 5 5 5 5 5 5 5 5 5 5 5 5 5 5 3 . . ",
". . 3 0 0 0 0 0 0 0 0 0 0 0 0 0 0 a 7 b b b b b c 2 0 0 0 0 0 0 0 0 0 0 0 0 0 0 0 0 0 0 0 0 0 0 0 0 0 0 0 0 0 0 0 0 0 0 0 0 0 0 0 0 0 0 0 0 0 0 0 0 0 0 0 0 0 0 0 0 0 0 0 0 0 0 0 0 0 0 3 . . ",
". . d e e e e e e e e e e ' f g b b ~ h i j b b b i e e e e e e e e e e e e e e e e e e 2 k l ) e e e e e e e e e e e e e e e e e e e e e e e e e e e e ) m ~ ) e e e e e e e e e e e e d . . ",
". . n o o o o o o o o o - j b b b @ o o o p b b b p o o q r s p t o o o o o o o o o o o u b b v o o o o o o o o o - w u p w t o o o o o - x t o o o o 5 : b b y o o o o o o o o o o o o n . . ",
". . n o o o o o o o o o r b b b b + o o o q b b b z o A g b b B o o o o o o o o o o | o C b b y o o o o o o o D E F b b b b b G H o 5 I b b J - o o o K b b b B o o o o o o o o o o o o n . . ",
". . n L L L L L L L L L ' = g b b M L L L N b b O L L P b b b Q L L L L L L L L L L a R S b b h L L L L L L ] S b b b b b b b b j L T & b b b U L L T b b b b V L L L L L L L L L L L L n . . ",
". . n L L L L L L L L L L L W b b M L L L X b F ; L L Y b b S L L L L L L L L L L L Z X b b b L L L L L L L R b ` P  ...+.F b b b @.L 4 M b b #.L L n b b #.P $.L L L L L L L L L L L L n . . ",
". . ~ %.%.%.%.%.%.%.%.%.%.%.&.b b M %.%.*.b b =.%.%.%.-.b b M %.%.%.%.%.%.%.%.%.%.%.;.: >.b b 9 %.%.%.%.%.%.,.M | %.%.%.%.'.F b b *.%.%.> b b ,.%.9 g b ).%.%.%.%.%.%.%.%.%.%.%.%.%.%.%.~ . . ",
". . ~ !.!.!.!.!.!.!.!.!.!.!.~.b b {.!.!.W b s !.!.!.!.~.b b M !.!.!.!.!.!.!.!.!.!.].^.~ * b b /.!.!.!.!.!.!.> &.!.!.!.!.!.!.q X ~.!.!.!.> b b (.!._.b :.!.!.!.!.!.!.!.!.!.!.!.!.!.!.!.!.~ . . ",
". . I <.<.<.<.<.<.<.<.<.<.<.[.b b > <.}.b ^.~.|.1.<.<.2.b b M <.<.<.<.<.<.<.<.<.<.3.b 4.~ b b 5.<.<.<.<.<.<.M ~.<.<.<.<.<.<.<.<.<.<.<.<.* b b / 6.g {.4 <.<.<.<.<.<.<.<.<.<.<.<.<.<.<.<.I . . ",
". . I 7.7.7.7.7.7.7.7.7.7.7.8.b b I 7.7.9.l b b 0.a.7.9.b b b.7.7.7.7.7.7.7.7.7.t c.{.a.3.b b < 7.7.7.7.7.7.M [.7.7.7.7.7.7.7.7.7.7.7.7.>.b b d.0.[.e.7.7.7.7.7.7.7.7.7.7.7.7.7.7.7.7.7.I . . ",
". . f.g.g.g.g.g.g.g.g.g.g.g.c.b b h.g.g.g.H b b b i.g.g.j.b f g.g.g.g.g.g.g.g.g.# b *.g.].^.b b A g.g.g.g.g.k.0.g.g.g.g.g.g.g.g.g.g.g.z b b F g.# z g.0 a g.g.g.g.g.g.g.g.g.g.g.g.g.g.g.f.. . ",
". . f.l.l.l.l.l.l.l.l.l.l.l.b b b m.l.l.l.*.b b b '.l.l.n.b o.l.l.l.l.l.l.l.l.p.b r 2 V q.r.b b d l.l.l.l.l.s.F 2 l.l.l.l.l.l.l.l.l.l.w b b 0.l.d % l.t.c.Z m.l.l.l.l.l.l.l.l.l.l.l.l.l.f.. . ",
". . f.u.u.u.u.u.u.u.u.u.u.u.F b b 4.u.u.u.r.b b b v.u.u.w.b h u.u.u.u.u.u.u.u.x.b Q s.b k a.^.b F y.u.u.u.u.V b z.u.u.u.u.u.u.u.u.u.u.A.b b B.u.C.b D.u.d g E.u.u.u.u.u.u.u.u.u.u.u.u.u.f.. . ",
". . _.F.F.F.F.F.F.F.F.F.F.F.G.b b (.F.F.%.0.b b G.F.F.F.^.x.F.F.F.7.H.u t F.t b B.6.>.z.9.F.I.b b B.7.F.F.F.9.b F J.7.F.F.F.F./ B.F.F.6.b b g o t j.>.h F.F.F.F.F.F.F.F.F.F.F.F.F.F.F.F._.. . ",
". . _.K.K.K.K.K.K.K.K.K.K.K.L.b b #.K.K.M.b b b N.K.K.{ F  .K.O.@ >.b b >.H 3.b >.P.1 K.K.K.g.L.b b Q.g.K.K.K.#.b b R.w.E E S.b c K.K.K.g b b M.K.P.b ^.H K.K.K.K.K.K.K.K.K.K.K.K.K.K.K._.. . ",
". . _.T.T.T.T.T.T.T.T.T.T.T.U.b b S.T.V.b b b G.<.T.T.;.#.3.c F 0.b b b b i 5.b b b m.T.T.T.T.t.^.b b W.X.T.T.l.;.b b b b b b >.Y.T.T.T.Z.b b n T.l.;.b 0.`.T.T.T.T.T.T.T.T.T.T.T.T.T.T._.. . ",
". .  +.+.+.+.+.+.+.+.+.+.+.+1., ++@+.+#+b b b m..+.+1., E v $+a..+3 b b j.4 ! E %+N .+.+.+.+.+.+4 ,.E , w .+.+.+.+i.;.G.G.L.&.Q .+.+.+.+! w.Z u..+.+u.~.b c.t..+.+.+.+.+.+.+.+.+.+.+.+.+ +. . ",
". . z.&+&+&+&+&+&+&+&+&+&+&+&+&+&+&+&+}.S.j.*+&+&+&+&+&+&+&+&+&+ .R.W.P ].&+&+&+&+&+&+&+&+&+&+&+&+&+&+&+&+&+&+&+&+&+&+&+&+&+&+&+&+&+&+&+&+&+&+&+&+&+&+&+=+b >.}.&+&+&+&+&+&+&+&+&+&+&+&+z.. . ",
". . z.-+-+-+-+-+-+-+-+-+-+-+-+-+-+-+-+-+-+-+-+-+-+-+-+-+-+-+-+X.S.; -+-+-+-+-+-+-+-+-+-+-+-+-+-+-+-+-+-+-+-+-+-+-+-+-+-+-+-+-+-+-+-+-+-+-+-+-+-+-+-+-+-+-+=.j.b +.L -+-+-+-+-+-+-+-+-+-+z.. . ",
". . z.;+;+;+;+;+;+;+;+;+;+;+;+;+;+;+;+;+;+;+;+;+;+;+;+;+;+;+;+>+r ;+;+;+;+;+;+;+;+;+;+;+;+;+;+;+;+;+;+;+;+;+;+;+;+;+;+;+;+;+;+;+;+;+;+;+;+;+;+;+;+;+;+;+;+;+a.2.m f.>+;+;+;+;+;+;+;+;+;+z.. . ",
". . ,.,+,+,+,+,+,+,+,+,+,+,+,+,+,+,+,+,+,+,+,+,+,+,+,+,+,+,+,+,+,+,+,+,+,+,+,+,+,+,+,+,+,+,+,+,+,+,+,+,+,+,+,+,+,+,+,+,+,+,+,+,+,+,+,+,+,+,+,+,+,+,+,+,+,+,+,+,+,+,+,+,+,+,+,+,+,+,+,+,+,.. . ",
". . ,.'+'+'+'+'+'+'+'+'+'+'+'+'+'+'+'+'+'+'+'+'+'+'+'+'+'+'+'+'+'+'+'+'+'+'+'+'+'+'+'+'+'+'+'+'+'+'+'+'+'+'+'+'+'+'+'+'+'+'+'+'+'+'+'+'+'+'+'+'+'+'+'+'+'+'+'+'+'+'+'+'+'+'+'+'+'+'+'+'+,.. . ",
". . K )+)+)+)+)+)+)+)+)+)+)+)+)+)+)+)+)+)+)+)+)+)+)+)+)+)+)+)+)+)+)+)+)+)+)+)+)+)+)+)+)+)+)+)+)+)+)+)+)+)+)+)+)+)+)+)+)+)+)+)+)+)+)+)+)+)+)+)+)+)+)+)+)+)+)+)+)+)+)+)+)+)+)+)+)+)+)+)+)+,.. . ",
". . # !+!+!+!+!+!+!+!+!+!+!+!+!+!+!+!+!+!+!+!+!+!+!+!+!+!+!+!+!+!+!+!+!+!+!+!+!+!+!+!+!+!+!+!+!+!+!+!+!+!+!+!+!+!+!+!+!+!+!+!+!+!+!+!+!+!+!+!+!+!+!+!+!+!+!+!+!+!+!+!+!+!+!+!+!+!+!+!+!+K . . ",
". . Y ~+~+~+~+~+~+~+~+~+~+~+~+~+~+~+~+~+~+~+~+~+~+~+~+~+~+~+~+~+~+~+~+~+~+~+~+~+~+~+~+~+~+~+~+~+~+~+~+~+~+~+~+~+~+~+~+~+~+~+~+~+~+~+~+~+~+~+~+~+~+~+~+~+~+~+~+~+~+~+~+~+~+~+~+~+~+~+~+~+l . . ",
". .   ) {+{+{+{+{+{+{+{+{+{+{+{+{+{+{+{+{+{+{+{+{+{+{+{+{+{+{+{+{+{+{+{+{+{+{+{+{+{+{+{+{+{+{+{+{+{+{+{+{+{+{+{+{+{+{+{+{+{+{+{+{+{+{+{+{+{+{+{+{+{+{+{+{+{+{+{+{+{+{+{+{+{+{+{+{+{+{+g.n.. . ",
". . . ]+)+^+^+^+^+^+^+^+^+^+^+^+^+^+^+^+^+^+^+^+^+^+^+^+^+^+^+^+^+^+^+^+^+^+^+^+^+^+^+^+^+^+^+^+^+^+^+^+^+^+^+^+^+^+^+^+^+^+^+^+^+^+^+^+^+^+^+^+^+^+^+^+^+^+^+^+^+^+^+^+^+^+^+^+^+^+^+3 . . . ",
". . .   N./+/+/+/+/+/+/+/+/+/+/+/+/+/+/+/+/+/+/+/+/+/+/+/+/+/+/+/+/+/+/+/+/+/+/+/+/+/+/+/+/+/+/+/+/+/+/+/+/+/+/+/+/+/+/+/+/+/+/+/+/+/+/+/+/+/+/+/+/+/+/+/+/+/+/+/+/+/+/+/+/+/+/+/+/+'.  . . . ",
". . . .   k 2 /+/+/+/+/+/+/+/+/+/+/+/+/+/+/+/+/+/+/+/+/+/+/+/+/+/+/+/+/+/+/+/+/+/+/+/+/+/+/+/+/+/+/+/+/+/+/+/+/+/+/+/+/+/+/+/+/+/+/+/+/+/+/+/+/+/+/+/+/+/+/+/+/+/+/+/+/+/+/+/+/+F.(+  . . . . ",
". . . . . . + % ~ M.M.M.M.M.M.M.M.M.M.M.M.M.M.M.M.M.M.M.M.M.M.M.M.M.M.M.M.M.M.M.M.M.M.M.M.M.M.M.M.M.M.M.M.M.M.M.M.M.M.M.M.M.M.M.M.M.M.M.M.M.M.M.M.M.M.M.M.M.M.M.M.M.M.M.M.M.,._+n.. . . . . . ",
". . . . . . . . . . . . . . . . . . . . . . . . . . . . . . . . . . . . . . . . . . . . . . . . . . . . . . . . . . . . . . . . . . . . . . . . . . . . . . . . . . . . . . . . . . . . . . . ",
". . . . . . . . . . . . . . . . . . . . . . . . . . . . . . . . . . . . . . . . . . . . . . . . . . . . . . . . . . . . . . . . . . . . . . . . . . . . . . . . . . . . . . . . . . . . . . . "};
