/* XPM */
static char * claimdraw_xpm[] = {
"167 46 226 2",
"  	c None",
". 	c #FFFFFF",
"+ 	c #323232",
"@ 	c #474747",
"# 	c #585858",
"$ 	c #5A5A5A",
"% 	c #4D4D4D",
"& 	c #393939",
"* 	c #333333",
"= 	c #A7A7A7",
"- 	c #D4D4D4",
"; 	c #B2B2B2",
"> 	c #3A3A3A",
", 	c #444444",
"' 	c #CBCBCB",
") 	c #D5D5D5",
"! 	c #D2D2D2",
"~ 	c #626262",
"{ 	c #CCCCCC",
"] 	c #D6D6D6",
"^ 	c #3F3F3F",
"/ 	c #AAAAAA",
"( 	c #D8D8D8",
"_ 	c #BCBCBC",
": 	c #2B2B2B",
"< 	c #494949",
"[ 	c #DADADA",
"} 	c #5B5B5B",
"| 	c #5D5D5D",
"1 	c #DCDCDC",
"2 	c #5E5E5E",
"3 	c #DDDDDD",
"4 	c #DEDEDE",
"5 	c #BBBBBB",
"6 	c #575757",
"7 	c #B8B8B8",
"8 	c #6F6F6F",
"9 	c #8E8E8E",
"0 	c #DBDBDB",
"a 	c #DFDFDF",
"b 	c #343434",
"c 	c #3B3B3B",
"d 	c #AEAEAE",
"e 	c #0A0A0A",
"f 	c #000000",
"g 	c #D1D1D1",
"h 	c #606060",
"i 	c #E0E0E0",
"j 	c #151515",
"k 	c #070707",
"l 	c #7E7E7E",
"m 	c #A1A1A1",
"n 	c #B9B9B9",
"o 	c #9A9A9A",
"p 	c #232323",
"q 	c #C4C4C4",
"r 	c #E1E1E1",
"s 	c #C8C8C8",
"t 	c #4A4A4A",
"u 	c #383838",
"v 	c #1C1C1C",
"w 	c #828282",
"x 	c #6D6D6D",
"y 	c #6A6A6A",
"z 	c #191919",
"A 	c #D3D3D3",
"B 	c #939393",
"C 	c #0B0B0B",
"D 	c #ACACAC",
"E 	c #353535",
"F 	c #C5C5C5",
"G 	c #5C5C5C",
"H 	c #CFCFCF",
"I 	c #707070",
"J 	c #616161",
"K 	c #E2E2E2",
"L 	c #989898",
"M 	c #040404",
"N 	c #787878",
"O 	c #C6C6C6",
"P 	c #747474",
"Q 	c #9B9B9B",
"R 	c #A9A9A9",
"S 	c #D0D0D0",
"T 	c #ADADAD",
"U 	c #B4B4B4",
"V 	c #A6A6A6",
"W 	c #C9C9C9",
"X 	c #B7B7B7",
"Y 	c #595959",
"Z 	c #BFBFBF",
"` 	c #C2C2C2",
" .	c #434343",
"..	c #D7D7D7",
"+.	c #E3E3E3",
"@.	c #C7C7C7",
"#.	c #646464",
"$.	c #676767",
"%.	c #7C7C7C",
"&.	c #A3A3A3",
"*.	c #CECECE",
"=.	c #757575",
"-.	c #121212",
";.	c #CACACA",
">.	c #555555",
",.	c #0E0E0E",
"'.	c #838383",
").	c #7F7F7F",
"!.	c #4B4B4B",
"~.	c #272727",
"{.	c #8A8A8A",
"].	c #E4E4E4",
"^.	c #2E2E2E",
"/.	c #929292",
"(.	c #D9D9D9",
"_.	c #6B6B6B",
":.	c #727272",
"<.	c #959595",
"[.	c #ABABAB",
"}.	c #9C9C9C",
"|.	c #363636",
"1.	c #BDBDBD",
"2.	c #242424",
"3.	c #808080",
"4.	c #525252",
"5.	c #202020",
"6.	c #E5E5E5",
"7.	c #7D7D7D",
"8.	c #1D1D1D",
"9.	c #AFAFAF",
"0.	c #8F8F8F",
"a.	c #9D9D9D",
"b.	c #4F4F4F",
"c.	c #BABABA",
"d.	c #797979",
"e.	c #8B8B8B",
"f.	c #B6B6B6",
"g.	c #656565",
"h.	c #282828",
"i.	c #565656",
"j.	c #767676",
"k.	c #161616",
"l.	c #E7E7E7",
"m.	c #909090",
"n.	c #3E3E3E",
"o.	c #484848",
"p.	c #C3C3C3",
"q.	c #A2A2A2",
"r.	c #858585",
"s.	c #535353",
"t.	c #898989",
"u.	c #414141",
"v.	c #505050",
"w.	c #4C4C4C",
"x.	c #8C8C8C",
"y.	c #696969",
"z.	c #B1B1B1",
"A.	c #636363",
"B.	c #E9E9E9",
"C.	c #A0A0A0",
"D.	c #919191",
"E.	c #666666",
"F.	c #545454",
"G.	c #212121",
"H.	c #999999",
"I.	c #868686",
"J.	c #7B7B7B",
"K.	c #717171",
"L.	c #2C2C2C",
"M.	c #5F5F5F",
"N.	c #424242",
"O.	c #EAEAEA",
"P.	c #303030",
"Q.	c #252525",
"R.	c #373737",
"S.	c #969696",
"T.	c #CDCDCD",
"U.	c #0F0F0F",
"V.	c #EBEBEB",
"W.	c #878787",
"X.	c #B0B0B0",
"Y.	c #848484",
"Z.	c #515151",
"`.	c #464646",
" +	c #9E9E9E",
".+	c #292929",
"++	c #A5A5A5",
"@+	c #1A1A1A",
"#+	c #ECECEC",
"$+	c #1E1E1E",
"%+	c #C0C0C0",
"&+	c #4E4E4E",
"*+	c #979797",
"=+	c #686868",
"-+	c #EEEEEE",
";+	c #131313",
">+	c #222222",
",+	c #949494",
"'+	c #2D2D2D",
")+	c #777777",
"!+	c #3C3C3C",
"~+	c #313131",
"{+	c #C1C1C1",
"]+	c #6C6C6C",
"^+	c #F0F0F0",
"/+	c #080808",
"(+	c #404040",
"_+	c #E8E8E8",
":+	c #262626",
"<+	c #F2F2F2",
"[+	c #171717",
"}+	c #1B1B1B",
"|+	c #F3F3F3",
"1+	c #888888",
"2+	c #F4F4F4",
"3+	c #F5F5F5",
"4+	c #F6F6F6",
"5+	c #F7F7F7",
"6+	c #F8F8F8",
"7+	c #3D3D3D",
"8+	c #F9F9F9",
"9+	c #FAFAFA",
"0+	c #454545",
"a+	c #FBFBFB",
"b+	c #FDFDFD",
"c+	c #EDEDED",
". . . . . . . . . . . . . . . . . . . . . . . . . . . . . . . . . . . . . . . . . . . . . . . . . . . . . . . . . . . . . . . . . . . . . . . . . . . . . . . . . . . . . . . . . . . . . . . . . . . . . . . . . . . . . . . . . . . . . . . . . . . . . . . . . . . . . . . . . . . . . . . . . . . . . . . . . . . . . . . . . . . . . . . ",
". . . . . . . . . . . . . . . . . . . . . . . . . . . . . . . . . . . . . . . . . . . . . . . . . . . . . . . . . . . . . . . . . . . . . . . . . . . . . . . . . . . . . . . . . . . . . . . . . . . . . . . . . . . . . . . . . . . . . . . . . . . . . . . . . . . . . . . . . . . . . . . . . . . . . . . . . . . . . . . . . . . . . . . ",
". . . . . .   + @ # $ $ $ $ $ $ $ $ $ $ $ $ $ $ $ $ $ $ $ $ $ $ $ $ $ $ $ $ $ $ $ $ $ $ $ $ $ $ $ $ $ $ $ $ $ $ $ $ $ $ $ $ $ $ $ $ $ $ $ $ $ $ $ $ $ $ $ $ $ $ $ $ $ $ $ $ $ $ $ $ $ $ $ $ $ $ $ $ $ $ $ $ $ $ $ $ $ $ $ $ $ $ $ $ $ $ $ $ $ $ $ $ $ $ $ $ $ $ $ $ $ $ $ $ $ $ $ $ $ $ $ $ $ $ $ $ $ $ $ $ $ $ $ $ $ $ $ # % &   . . . . . . ",
". . . .   * = - - - - - - - - - - - - - - - - - - - - - - - - - - - - - - - - - - - - - - - - - - - - - - - - - - - - - - - - - - - - - - - - - - - - - - - - - - - - - - - - - - - - - - - - - - - - - - - - - - - - - - - - - - - - - - - - - - - - - - - - - - - - - - - - - - - - - - - - - - - - - - - - - - - - - - - - - ; >   . . . . ",
". . .   , ' ) ) ) ) ) ) ) ) ) ) ) ) ) ) ) ) ) ) ) ) ) ) ) ) ) ) ) ) ) ) ) ) ) ) ) ) ) ) ) ) ) ) ) ) ) ) ) ) ) ) ) ) ) ) ) ) ) ) ) ) ) ) ) ) ) ) ) ) ) ) ) ) ) ) ) ) ) ) ) ) ) ) ) ) ) ) ) ) ) ) ) ) ) ) ) ) ) ) ) ) ) ) ) ) ) ) ) ) ) ) ) ) ) ) ) ) ) ) ) ) ) ) ) ) ) ) ) ) ) ) ) ) ) ) ) ) ) ) ) ) ) ) ) ) ) ) ) ) ) ) ) ) ) ) ) ! ~   . . . ",
". . . * { ] ] ] ] ] ] ] ] ] ] ] ] ] ] ] ] ] ] ] ] ] ] ] ] ] ] ] ] ] ] ] ] ] ] ] ] ] ] ] ] ] ] ] ] ] ] ] ] ] ] ] ] ] ] ] ] ] ] ] ] ] ] ] ] ] ] ] ] ] ] ] ] ] ] ] ] ] ] ] ] ] ] ] ] ] ] ] ] ] ] ] ] ] ] ] ] ] ] ] ] ] ] ] ] ] ] ] ] ] ] ] ] ] ] ] ] ] ] ] ] ] ] ] ] ] ] ] ] ] ] ] ] ] ] ] ] ] ] ] ] ] ] ] ] ] ] ] ] ] ] ] ] ] ] ] ] ] ] ^ . . . ",
". .   / ( ( ( ( ( ( ( ( ( ( ( ( ( ( ( ( ( ( ( ( ( ( ( ( ( ( ( ( ( ( ( ( ( ( ( ( ( ( ( ( ( ( ( ( ( ( ( ( ( ( ( ( ( ( ( ( ( ( ( ( ( ( ( ( ( ( ( ( ( ( ( ( ( ( ( ( ( ( ( ( ( ( ( ( ( ( ( ( ( ( ( ( ( ( ( ( ( ( ( ( ( ( ( ( ( ( ( ( ( ( ( ( ( ( ( ( ( ( ( ( ( ( ( ( ( ( ( ( ( ( ( ( ( ( ( ( ( ( ( ( ( ( ( ( ( ( ( ( ( ( ( ( ( ( ( ( ( ( ( _ : . . ",
". . * ( ( ( ( ( ( ( ( ( ( ( ( ( ( ( ( ( ( ( ( ( ( ( ( ( ( ( ( ( ( ( ( ( ( ( ( ( ( ( ( ( ( ( ( ( ( ( ( ( ( ( ( ( ( ( ( ( ( ( ( ( ( ( ( ( ( ( ( ( ( ( ( ( ( ( ( ( ( ( ( ( ( ( ( ( ( ( ( ( ( ( ( ( ( ( ( ( ( ( ( ( ( ( ( ( ( ( ( ( ( ( ( ( ( ( ( ( ( ( ( ( ( ( ( ( ( ( ( ( ( ( ( ( ( ( ( ( ( ( ( ( ( ( ( ( ( ( ( ( ( ( ( ( ( ( ( ( ( ( ( ( , . . ",
". . < [ [ [ [ [ [ [ [ [ [ [ [ [ [ [ [ [ [ [ [ [ [ [ [ [ [ [ [ [ [ [ [ [ [ [ [ [ [ [ [ [ [ [ [ [ [ [ [ [ [ [ [ [ [ [ [ [ [ [ [ [ [ [ [ [ [ [ [ [ [ [ [ [ [ [ [ [ [ [ [ [ [ [ [ [ [ [ [ [ [ [ [ [ [ [ [ [ [ [ [ [ [ [ [ [ [ [ [ [ [ [ [ [ [ [ [ [ [ [ [ [ [ [ [ [ [ [ [ [ [ [ [ [ [ [ [ [ [ [ [ [ [ [ [ [ [ [ [ [ [ [ [ [ [ [ [ [ [ [ [ [ } . . ",
". . $ [ [ [ [ [ [ [ [ [ [ [ [ [ [ [ [ [ [ [ [ [ [ [ [ [ [ [ [ [ [ [ [ [ [ [ [ [ [ [ [ [ [ [ [ [ [ [ [ [ [ [ [ [ [ [ [ [ [ [ [ [ [ [ [ [ [ [ [ [ [ [ [ [ [ [ [ [ [ [ [ [ [ [ [ [ [ [ [ [ [ [ [ [ [ [ [ [ [ [ [ [ [ [ [ [ [ [ [ [ [ [ [ [ [ [ [ [ [ [ [ [ [ [ [ [ [ [ [ [ [ [ [ [ [ [ [ [ [ [ [ [ [ [ [ [ [ [ [ [ [ [ [ [ [ [ [ [ [ [ [ [ | . . ",
". . | 1 1 1 1 1 1 1 1 1 1 1 1 1 1 1 1 1 1 1 1 1 1 1 1 1 1 1 1 1 1 1 1 1 1 1 1 1 1 1 1 1 1 1 1 1 1 1 1 1 1 1 1 1 1 1 1 1 1 1 1 1 1 1 1 1 1 1 1 1 1 1 1 1 1 1 1 1 1 1 1 1 1 1 1 1 1 1 1 1 1 1 1 1 1 1 1 1 1 1 1 1 1 1 1 1 1 1 1 1 1 1 1 1 1 1 1 1 1 1 1 1 1 1 1 1 1 1 1 1 1 1 1 1 1 1 1 1 1 1 1 1 1 1 1 1 1 1 1 1 1 1 1 1 1 1 1 1 1 1 1 1 | . . ",
". . 2 3 3 3 3 3 3 3 3 3 3 3 3 3 3 3 3 3 3 3 3 3 3 3 3 3 3 3 3 3 3 3 3 3 3 3 3 3 3 3 3 3 3 3 3 3 3 3 3 3 3 3 3 3 3 3 3 3 3 3 3 3 3 3 3 3 3 3 3 3 3 3 3 3 3 3 3 3 3 3 3 3 3 3 3 3 3 3 3 3 3 3 3 3 3 3 3 3 3 3 3 3 3 3 3 3 3 3 3 3 3 3 3 3 3 3 3 3 3 3 3 3 3 3 3 3 3 3 3 3 3 3 3 3 3 3 3 3 3 3 3 3 3 3 3 3 3 3 3 3 3 3 3 3 3 3 3 3 3 3 3 3 2 . . ",
". . 2 4 4 4 4 4 4 4 4 4 4 4 4 4 4 4 4 4 4 4 4 4 4 4 4 4 4 4 4 4 4 4 4 4 4 4 4 4 4 4 4 4 4 4 4 4 4 4 4 4 4 4 5 6 4 4 4 4 4 4 4 4 4 4 4 4 4 4 4 4 4 4 4 4 4 4 4 4 4 4 4 4 4 4 4 7 8 8 9 0 4 4 4 4 4 4 4 4 4 4 4 4 4 4 4 4 4 4 4 4 4 4 4 4 4 4 4 4 4 4 4 4 4 4 4 4 4 4 4 4 4 4 4 4 4 4 4 4 4 4 4 4 4 4 4 4 4 4 4 4 4 4 4 4 4 4 4 4 4 4 4 4 2 . . ",
". . 2 a a a a a a a a a a a a a a a a a a a a a a a a a a a a a a a a a a a a a a a a a a a a a a a a a a a b c a a a a a a a a a a a a a a a a a a a a a a a a a a a a a a d e f f f c g a a a a a a a a a a a a a a a a a a a a a a a a a a a a a a a a a a a a a a a a a a a a a a a a a a a a a a a a a a a a a a a a a a a a a a a 2 . . ",
". . h i i i i i i i i i i i i i i i i i i i i i i i i i i i i i i i i i i i i i i i i i i i i i i i i i i i j k l m n i i i i i i i i i i i i i i i i i i i i i i i i i i i n o % f f f p q i ) 1 i i i i i i i i i i i i i i i i i i i i i i i i i i i i i i i i i i i i i i i i i i i i i i i i i i i i i i i i i i i i i i i i i i i h . . ",
". . h r r r r r r r r r r r s l t u v p t w s r r r r r r r r r r r r r r r r r r r r r x y ] r r r r r r r y f f z A r r r r r r r r r r r r r r r r r r r r r r r r r r r r r r B C f f j D E F r r r r r r r r r r r r r r r r r r r r r r r r r r r r w G H r r r r r r r r r r r r r r r r r r r r r 3 w # I s r r r r r r r r r r h . . ",
". . J K K K K K K K K K K L M f f f f f f f M N K K K O P Q R S K K K K K K K K K K K T f f h K K K K K K K K U V 4 K K K K K K S K K K K K K 0 W K K K K K K K K K K K K K K K K K X j f f f Y K K K K K K K K K K K K 0 Z R ` K K K K K K K K K K K K W f f  .K K K K K K K K K K K K K K K K W ` K K ..E f f f j O K K K K K K K K K J . . ",
". . J +.+.+.+.+.+.+.+.+.@.M f f k v f f f f f f V +.1 j f f & a +.+.+.+.+.+.+.+.+.+.+.#.f f $.+.+.+.+.+.+.+.+.@.%.&.+.+.+.+.*.E M =.+.+.+.+.Z -.M &.+.+.+.+.+.+.+.+.+.+.+.+.+.+.+.+.+.Z j f f j d +.+.+.+.+.+.+.+.+.;.>.M ,.j f -.'.+.+.+.+.+.+.+.+.+.+.).f f !.+.+.+.+.+.+.+.&.@ ~.9 +.+.+.+.V M f {.+.%.f f f f f @ +.+.+.+.+.+.+.+.+.J . . ",
". . J ].].].].].].].].].9 f ^./.(.].! _.f f f f :.].<.f f f ; ].].].].].].].].].].[.}.|.f f ; ].].].].].].].%.k f f n ].].].J f f M 1.].].].|.f f | ].].].].].].].].].].].].].].].].].].n f f f C d ].].].].].].].H 2.f Y 3 ].= k f | ].].].].].].].@.3.4.f f <.].].].].].].[.f f f M q ].].].|.-.+ 5.].| = [.|.f f k ].].].].].].].].].J . . ",
". . ~ 6.6.6.6.6.6.6.6.6.$ C [ 6.6.6.6.6.7.f f f o 6.| f f C r 6.6.6.6.6.6.6.6.6.6.m , 8.f f s 6.6.6.6.6.6.9.M f f f 0.6.6.6.a.f f f b.6.6.c.f f f d.6.6.6.6.6.6.6.6.6.6.6.6.6.6.6.6.6.6.e.,.5.f f C 9.6.6.6.6.6.6.3.f f f.6.6.6.g.f M s 6.6.6.6.6.6.1.h.& f f D 6.6.6.6.6.6...i.f f f i.6.6.{ f f j.f 6.A 6.6.[ k.f f 6.6.6.6.6.6.6.6.6.~ . . ",
". . ~ l.l.l.l.l.l.l.l.l.: |.l.l.l.l.l.l.l.m.n.o.i l.> f f 8.l.l.l.l.l.l.l.l.l.l.l.x 8.2.f f p.l.l.l.l.l.l.l.q.f f f m.l.l.l.+.-.f f k (.l.Q f f f _ l.l.l.l.l.l.l.l.l.l.l.l.l.l.l.l.l.Z C r.g 2.f f C 7 l.l.l.l.l.s.f f ;.l.l.l.l f f U l.l.l.l.l.l.t.f u.f f V l.l.l.l.l.l.l.i k.f f M 1 l.O f f k.f l.l.l.l.l.l f f l.l.l.l.l.l.l.l.l.~ . . ",
". . ~ l.l.l.l.l.l.l.l.l.f > l.l.l.l.l.l.l.l.l.l.l.l.} f f 8.l.l.l.l.l.l.l.l.l.l.l.> v.w.f f Q l.l.l.l.l.l.l.l.f f f m.l.l.l.l.v.k f f x.l.m.f f 2.l.l.l.l.l.l.l.l.l.l.l.l.l.l.l.l.l.1 h.2.+.l.g 2.f f k.g l.l.l.l.> f f O x.w.) 8.f 8.+.l.l.l.l.l.l.6 * y.f f l l.l.l.l.l.l.l.l.w f f f R l.l.h.f f 8.l.l.l.l.l.z.f |.l.l.l.l.l.l.l.l.l.~ . . ",
". . A.B.B.B.B.B.B.B.B.B.f > B.B.B.B.B.B.B.B.B.B.B.B.C.f f 8.B.B.B.B.B.B.B.B.B.B.; f D.).f f v.B.B.B.B.B.B.B.B.f f f n B.B.B.B.P E.f f n.B.n f f * B.B.B.B.B.B.B.B.B.B.B.B.B.B.B.B.B.F.f [.B.B.B.A G.f f h.4 B.B.B.> f f E.f f k f 8.n B.B.B.B.B.B.q M P }.f f * B.B.B.B.B.B.B.B...f f f N B.B.D.f f f P B.B.B.B.{ f H.B.B.B.B.B.B.B.B.B.A.. . ",
". . A.B.B.B.B.B.B.B.B.B.k h.B.B.B.B.B.B.B.B.B.B.B.B.4 f f 8.B.B.B.B.B.B.B.B.B.4 h.-.[ 9.f f k A B.B.B.B.B.B.n f f f { B.B.B.B.E.I.* f M 4 6.k.f f A B.B.B.B.B.B.B.B.B.B.B.B.B.B.B.D.f h.B.B.B.B.B.q k.f f # B.B.B.# f f J.f f K.q 6.B.B.B.B.B.B.6.* k s { f f f 1.B.B.B.B.B.B.B.B.L.f f > B.B.B.n.f f f M.B.B.B.H.N.B.B.B.B.B.B.B.B.B.B.A.. . ",
". . #.O.O.O.O.O.O.O.O.O.P.M 0 O.O.O.O.O.O.O.O.O.O.O.O.Q.f R.O.O.O.O.O.O.O.O.O.A.f S.O.O.L.f f =.O.O.O.O.O.O.9.f f f T.O.O.O.O.L.=.N f f S.S U.f f 9 O.O.O.O.O.O.O.O.O.O.O.O.O.O.O.k.f $.O.O.O.O.O.O.9 f f -.O.O.O.=.f f T.* f * O.O.O.O.O.O.O.O.3.f N O.O.< f f # O.O.O.O.O.O.O.O.y f f k +.O.+.8.f f f f /.O.+.L.T.O.O.O.O.O.O.O.O.O.O.#.. . ",
". . #.V.V.V.V.V.V.V.V.V.# f W.V.V.V.V.V.V.V.V.V.V.V.V.c f h V.V.V.V.V.V.V.V.O M N.l.3.B m f f k.1 V.V.V.V.V.X.f f f *.V.V.V.g f Y.m f f Z.`.8.f f P.V.V.V.V.V.V.V.V.V.V.V.V.V.V.O f f  +V.V.V.V.V.V.U f f ^ V.V.V.=.f f *.X M f 5 V.V.V.V.V.V.(.U..+].e.W.Z f f k *.V.V.V.V.V.V.V.D f f f ++V._.f S.8.f f @+].% o V.V.V.V.V.V.V.V.V.V.V.#.. . ",
". . #.#+#+#+#+#+#+#+#+#+B f $+] #+#+#+#+#+#+#+%+6.#+#+c f T #+#+#+#+#+#+#+#+t f @.| f  .#+L.f f 8 #+#+#+#+#+z.f f f *.#+#+#+Y.f z.7 f f f @+! U.f f q.#+#+#+#+#+#+#+#+#+#+#+#+#+x.f f Y #+#+#+#+#+6.&+f f *+#+#+#+j.f f *.#+_.f t #+#+#+#+#+#+=+f R d.f Q.#+t f f Z.#+#+#+#+#+#+#+6.k f f  .T M Z.#+ +f f f  +V #+#+#+#+#+#+#+#+#+#+#+#+#.. . ",
". . g.-+-+-+-+-+-+-+-+-+l.;+f >+,+l.-+-+l.; !.f W -+-+b '+-+-+-+O.c.}.S -+l.k @+a C J c.-+9.f f k 1.-+-+-+-+; f f f W -+-+a @+C O.S f f f }.-+)+f f k.; 9.+.-+-+-+-+-+-+-+-+-+-+)+f f f U.u !+!+!+C f f b -+-+-+-+I f f 0 -+O.~+f F -+-+-+-+-+$+f O.k.i.[.-+F k f f = -+-+-+-+-+-+-+&+f f f C ;+0 -+-+u f f ,+-+-+-+-+-+-+-+-+-+-+-+-+-+g.. . ",
". . g.-+-+-+-+-+-+-+-+-+-+L f f f f f f f f f !+-+-+0 M ; -+f.4.U.f f C {+[.f M l !.-+-+-+-+]+f f k.W -+-+-+; f f f | l.1.^ f | -+-+f f f -+-+a @+f f f !+-+-+-+-+-+-+-+-+-+-+-+&.f f f f f f f f f f ;+W -+-+-+O.b f U.-+-+-+( k.u -+-+-+-+W f f w '+-+-+-+-+t.f f C f.-+-+-+-+-+-+{+f f f f C.-+-+-+l f f S -+-+-+-+-+-+-+-+-+-+-+-+-+g.. . ",
". . E.^+^+^+^+^+^+^+^+^+^+^+{./+f f f f f f >+! ^+^+$ b.H.E f >+f f f f ).H.f f f a.^+^+^+^+#+b.f f U.m ^+^+3 f f f s.U f f U.(.^+^+f f $+^+^+^+U f f C @.^+^+^+^+^+^+^+^+^+^+^+6.u f f f f f f f f >+5 ^+^+^+6..+f f K.^+^+^+^+Z C 9 ^+^+^+7 f f f ).^+^+^+^+^+y.f f /+{.^+^+^+^+^+^+2 f f K.^+^+^+^+X.f E.^+^+^+^+^+^+^+^+^+^+^+^+^+^+E.. . ",
". . E.^+^+^+^+^+^+^+^+^+^+^+^+*.x '+$+$+(+K.r ^+^+6.o.E K.D r ^+E.f f /+! r , u ).^+^+^+^+^+^+^+/., !+J.^+^+^+'.~+S.^+^+E., 7 ^+^+^+/+b.;.^+^+^+^+++!.7 ^+^+^+^+^+^+^+^+^+^+^+^+^+_+a., .+$+$+:+b.W._+^+^+^+^+^+a.$+y.6.^+^+^+^+^+U U.m ^+^+#+s.~+K.#+^+^+^+^+^+^+++o.!+x _+^+^+^+^+^+_+y.W.^+^+^+^+^+;./.^+^+^+^+^+^+^+^+^+^+^+^+^+^+^+E.. . ",
". . =+<+<+<+<+<+<+<+<+<+<+<+<+<+<+<+<+<+<+<+<+<+<+<+<+<+<+<+<+q [+:+:.0 <+<+<+<+<+<+<+<+<+<+<+<+<+<+<+<+<+<+<+<+<+<+<+<+<+<+<+<+<+<++.<+<+<+<+<+<+<+<+<+<+<+<+<+<+<+<+<+<+<+<+<+<+<+<+<+<+<+<+<+<+<+<+<+<+<+<+<+<+<+<+<+<+<+<+<+<+<+n }+q.<+<+<+<+<+<+<+<+<+<+<+<+<+<+<+<+<+<+<+<+<+<+<+<+<+<+<+<+<+<+<+<+<+<+<+<+<+<+<+<+<+<+<+<+<+<+<+=+. . ",
". . =+|+|+|+|+|+|+|+|+|+|+|+|+|+|+|+|+|+|+|+|+|+|+|+|+|+|+|+1 [+&.|+|+|+|+|+|+|+|+|+|+|+|+|+|+|+|+|+|+|+|+|+|+|+|+|+|+|+|+|+|+|+|+|+|+|+|+|+|+|+|+|+|+|+|+|+|+|+|+|+|+|+|+|+|+|+|+|+|+|+|+|+|+|+|+|+|+|+|+|+|+|+|+|+|+|+|+|+|+|+|+|+|+1 1+_+|+|+|+|+|+|+|+|+|+|+|+|+|+|+|+|+|+|+|+|+|+|+|+|+|+|+|+|+|+|+|+|+|+|+|+|+|+|+|+|+|+|+|+|+|+|+=+. . ",
". . =+2+2+2+2+2+2+2+2+2+2+2+2+2+2+2+2+2+2+2+2+2+2+2+2+2+2+2+X < 2+2+2+2+2+2+2+2+2+2+2+2+2+2+2+2+2+2+2+2+2+2+2+2+2+2+2+2+2+2+2+2+2+2+2+2+2+2+2+2+2+2+2+2+2+2+2+2+2+2+2+2+2+2+2+2+2+2+2+2+2+2+2+2+2+2+2+2+2+2+2+2+2+2+2+2+2+2+2+2+2+2+2+2+2+2+2+2+2+2+2+2+2+2+2+2+2+2+2+2+2+2+2+2+2+2+2+2+2+2+2+2+2+2+2+2+2+2+2+2+2+2+2+2+2+2+2+2+2+2+2+2+=+. . ",
". . y.3+3+3+3+3+3+3+3+3+3+3+3+3+3+3+3+3+3+3+3+3+3+3+3+3+3+3+3+3+3+3+3+3+3+3+3+3+3+3+3+3+3+3+3+3+3+3+3+3+3+3+3+3+3+3+3+3+3+3+3+3+3+3+3+3+3+3+3+3+3+3+3+3+3+3+3+3+3+3+3+3+3+3+3+3+3+3+3+3+3+3+3+3+3+3+3+3+3+3+3+3+3+3+3+3+3+3+3+3+3+3+3+3+3+3+3+3+3+3+3+3+3+3+3+3+3+3+3+3+3+3+3+3+3+3+3+3+3+3+3+3+3+3+3+3+3+3+3+3+3+3+3+3+3+3+3+3+3+3+3+3+y.. . ",
". . y.4+4+4+4+4+4+4+4+4+4+4+4+4+4+4+4+4+4+4+4+4+4+4+4+4+4+4+4+4+4+4+4+4+4+4+4+4+4+4+4+4+4+4+4+4+4+4+4+4+4+4+4+4+4+4+4+4+4+4+4+4+4+4+4+4+4+4+4+4+4+4+4+4+4+4+4+4+4+4+4+4+4+4+4+4+4+4+4+4+4+4+4+4+4+4+4+4+4+4+4+4+4+4+4+4+4+4+4+4+4+4+4+4+4+4+4+4+4+4+4+4+4+4+4+4+4+4+4+4+4+4+4+4+4+4+4+4+4+4+4+4+4+4+4+4+4+4+4+4+4+4+4+4+4+4+4+4+4+4+4+4+y.. . ",
". . $.5+5+5+5+5+5+5+5+5+5+5+5+5+5+5+5+5+5+5+5+5+5+5+5+5+5+5+5+5+5+5+5+5+5+5+5+5+5+5+5+5+5+5+5+5+5+5+5+5+5+5+5+5+5+5+5+5+5+5+5+5+5+5+5+5+5+5+5+5+5+5+5+5+5+5+5+5+5+5+5+5+5+5+5+5+5+5+5+5+5+5+5+5+5+5+5+5+5+5+5+5+5+5+5+5+5+5+5+5+5+5+5+5+5+5+5+5+5+5+5+5+5+5+5+5+5+5+5+5+5+5+5+5+5+5+5+5+5+5+5+5+5+5+5+5+5+5+5+5+5+5+5+5+5+5+5+5+5+5+5+5+y.. . ",
". . # 6+6+6+6+6+6+6+6+6+6+6+6+6+6+6+6+6+6+6+6+6+6+6+6+6+6+6+6+6+6+6+6+6+6+6+6+6+6+6+6+6+6+6+6+6+6+6+6+6+6+6+6+6+6+6+6+6+6+6+6+6+6+6+6+6+6+6+6+6+6+6+6+6+6+6+6+6+6+6+6+6+6+6+6+6+6+6+6+6+6+6+6+6+6+6+6+6+6+6+6+6+6+6+6+6+6+6+6+6+6+6+6+6+6+6+6+6+6+6+6+6+6+6+6+6+6+6+6+6+6+6+6+6+6+6+6+6+6+6+6+6+6+6+6+6+6+6+6+6+6+6+6+6+6+6+6+6+6+6+6+6+$.. . ",
". . 7+8+8+8+8+8+8+8+8+8+8+8+8+8+8+8+8+8+8+8+8+8+8+8+8+8+8+8+8+8+8+8+8+8+8+8+8+8+8+8+8+8+8+8+8+8+8+8+8+8+8+8+8+8+8+8+8+8+8+8+8+8+8+8+8+8+8+8+8+8+8+8+8+8+8+8+8+8+8+8+8+8+8+8+8+8+8+8+8+8+8+8+8+8+8+8+8+8+8+8+8+8+8+8+8+8+8+8+8+8+8+8+8+8+8+8+8+8+8+8+8+8+8+8+8+8+8+8+8+8+8+8+8+8+8+8+8+8+8+8+8+8+8+8+8+8+8+8+8+8+8+8+8+8+8+8+8+8+8+8+8+8+F.. . ",
". .   ) 9+9+9+9+9+9+9+9+9+9+9+9+9+9+9+9+9+9+9+9+9+9+9+9+9+9+9+9+9+9+9+9+9+9+9+9+9+9+9+9+9+9+9+9+9+9+9+9+9+9+9+9+9+9+9+9+9+9+9+9+9+9+9+9+9+9+9+9+9+9+9+9+9+9+9+9+9+9+9+9+9+9+9+9+9+9+9+9+9+9+9+9+9+9+9+9+9+9+9+9+9+9+9+9+9+9+9+9+9+9+9+9+9+9+9+9+9+9+9+9+9+9+9+9+9+9+9+9+9+9+9+9+9+9+9+9+9+9+9+9+9+9+9+9+9+9+9+9+9+9+9+9+9+9+9+9+9+9+9+O.R.. . ",
". . . 0+5+a+a+a+a+a+a+a+a+a+a+a+a+a+a+a+a+a+a+a+a+a+a+a+a+a+a+a+a+a+a+a+a+a+a+a+a+a+a+a+a+a+a+a+a+a+a+a+a+a+a+a+a+a+a+a+a+a+a+a+a+a+a+a+a+a+a+a+a+a+a+a+a+a+a+a+a+a+a+a+a+a+a+a+a+a+a+a+a+a+a+a+a+a+a+a+a+a+a+a+a+a+a+a+a+a+a+a+a+a+a+a+a+a+a+a+a+a+a+a+a+a+a+a+a+a+a+a+a+a+a+a+a+a+a+a+a+a+a+a+a+a+a+a+a+a+a+a+a+a+a+a+a+a+a+a+a+a+a+2 . . . ",
". . .   I b+b+b+b+b+b+b+b+b+b+b+b+b+b+b+b+b+b+b+b+b+b+b+b+b+b+b+b+b+b+b+b+b+b+b+b+b+b+b+b+b+b+b+b+b+b+b+b+b+b+b+b+b+b+b+b+b+b+b+b+b+b+b+b+b+b+b+b+b+b+b+b+b+b+b+b+b+b+b+b+b+b+b+b+b+b+b+b+b+b+b+b+b+b+b+b+b+b+b+b+b+b+b+b+b+b+b+b+b+b+b+b+b+b+b+b+b+b+b+b+b+b+b+b+b+b+b+b+b+b+b+b+b+b+b+b+b+b+b+b+b+b+b+b+b+b+b+b+b+b+b+b+b+b+b+b+b+o   . . . ",
". . . .   t 1 b+b+b+b+b+b+b+b+b+b+b+b+b+b+b+b+b+b+b+b+b+b+b+b+b+b+b+b+b+b+b+b+b+b+b+b+b+b+b+b+b+b+b+b+b+b+b+b+b+b+b+b+b+b+b+b+b+b+b+b+b+b+b+b+b+b+b+b+b+b+b+b+b+b+b+b+b+b+b+b+b+b+b+b+b+b+b+b+b+b+b+b+b+b+b+b+b+b+b+b+b+b+b+b+b+b+b+b+b+b+b+b+b+b+b+b+b+b+b+b+b+b+b+b+b+b+b+b+b+b+b+b+b+b+b+b+b+b+b+b+b+b+b+b+b+b+b+b+b+b+b+b+b+c+M.  . . . . ",
". . . . . . + % ~ ]+]+]+]+]+]+]+]+]+]+]+]+]+]+]+]+]+]+]+]+]+]+]+]+]+]+]+]+]+]+]+]+]+]+]+]+]+]+]+]+]+]+]+]+]+]+]+]+]+]+]+]+]+]+]+]+]+]+]+]+]+]+]+]+]+]+]+]+]+]+]+]+]+]+]+]+]+]+]+]+]+]+]+]+]+]+]+]+]+]+]+]+]+]+]+]+]+]+]+]+]+]+]+]+]+]+]+]+]+]+]+]+]+]+]+]+]+]+]+]+]+]+]+]+]+]+]+]+]+]+]+]+]+]+]+]+]+]+]+]+]+]+]+]+]+]+]+]+]+y.>.R.. . . . . . ",
". . . . . . . . . . . . . . . . . . . . . . . . . . . . . . . . . . . . . . . . . . . . . . . . . . . . . . . . . . . . . . . . . . . . . . . . . . . . . . . . . . . . . . . . . . . . . . . . . . . . . . . . . . . . . . . . . . . . . . . . . . . . . . . . . . . . . . . . . . . . . . . . . . . . . . . . . . . . . . . . . . . . . . . ",
". . . . . . . . . . . . . . . . . . . . . . . . . . . . . . . . . . . . . . . . . . . . . . . . . . . . . . . . . . . . . . . . . . . . . . . . . . . . . . . . . . . . . . . . . . . . . . . . . . . . . . . . . . . . . . . . . . . . . . . . . . . . . . . . . . . . . . . . . . . . . . . . . . . . . . . . . . . . . . . . . . . . . . . "};
