/* XPM */
static char * hbk_xpm[] = {
"71 71 543 2",
"  	c None",
". 	c #ED9EAA",
"+ 	c #F26F7C",
"@ 	c #FF545D",
"# 	c #FA565F",
"$ 	c #F9575F",
"% 	c #FA575F",
"& 	c #F9565E",
"* 	c #A03E44",
"= 	c #613133",
"- 	c #572E30",
"; 	c #4F282A",
"> 	c #52282B",
", 	c #52292B",
"' 	c #582E30",
") 	c #5B2F31",
"! 	c #A13F44",
"~ 	c #F1535C",
"{ 	c #512E30",
"] 	c #858585",
"^ 	c #8A8A8A",
"/ 	c #131313",
"( 	c #000000",
"_ 	c #1A1A1A",
": 	c #8D8D8D",
"< 	c #838383",
"[ 	c #542E30",
"} 	c #F1515B",
"| 	c #EF535B",
"1 	c #432728",
"2 	c #A2A2A2",
"3 	c #FFFFFF",
"4 	c #7C7C7C",
"5 	c #9D9D9D",
"6 	c #472728",
"7 	c #F1525B",
"8 	c #351A1B",
"9 	c #212121",
"0 	c #808080",
"a 	c #C7C7C7",
"b 	c #414141",
"c 	c #090909",
"d 	c #080808",
"e 	c #4B4B4B",
"f 	c #C8C8C8",
"g 	c #7B7B7B",
"h 	c #1B1B1B",
"i 	c #3A1B1C",
"j 	c #383838",
"k 	c #484848",
"l 	c #A3A3A3",
"m 	c #9B9B9B",
"n 	c #454545",
"o 	c #353535",
"p 	c #3B1B1C",
"q 	c #EE535B",
"r 	c #33191A",
"s 	c #464646",
"t 	c #FAFAFA",
"u 	c #F5F5F5",
"v 	c #3A3A3A",
"w 	c #3D1D1E",
"x 	c #F2535C",
"y 	c #ED525A",
"z 	c #32191A",
"A 	c #585858",
"B 	c #818181",
"C 	c #7D7D7D",
"D 	c #565656",
"E 	c #060606",
"F 	c #F3545D",
"G 	c #A1A1A1",
"H 	c #333333",
"I 	c #3D3D3D",
"J 	c #CBCBCB",
"K 	c #9C9C9C",
"L 	c #3C3C3C",
"M 	c #3B1C1D",
"N 	c #402728",
"O 	c #B3B3B3",
"P 	c #F8F8F8",
"Q 	c #676767",
"R 	c #6F6F6F",
"S 	c #FDFDFD",
"T 	c #ADADAD",
"U 	c #462728",
"V 	c #3A2022",
"W 	c #666666",
"X 	c #646464",
"Y 	c #030303",
"Z 	c #6A6A6A",
"` 	c #412123",
" .	c #FF555E",
"..	c #F4535C",
"+.	c #EA5058",
"@.	c #E84E57",
"#.	c #ED535B",
"$.	c #F5535C",
"%.	c #FD555E",
"&.	c #070707",
"*.	c #FD555D",
"=.	c #ED525B",
"-.	c #E84F56",
";.	c #EB5058",
">.	c #F5535D",
",.	c #EF545D",
"'.	c #B14247",
").	c #752F33",
"!.	c #461F21",
"~.	c #2F1517",
"{.	c #2A1012",
"].	c #33171A",
"^.	c #481F21",
"/.	c #6E2D30",
"(.	c #A13D43",
"_.	c #DA4E55",
":.	c #FE565F",
"<.	c #848484",
"[.	c #B1B1B1",
"}.	c #B0B0B0",
"|.	c #343434",
"1.	c #FA555E",
"2.	c #D34C53",
"3.	c #9C3C40",
"4.	c #6B2D30",
"5.	c #461F20",
"6.	c #331719",
"7.	c #2A1112",
"8.	c #301517",
"9.	c #472022",
"0.	c #763134",
"a.	c #B44248",
"b.	c #F2555D",
"c.	c #AA4146",
"d.	c #4E2224",
"e.	c #090606",
"f.	c #040303",
"g.	c #231314",
"h.	c #6D2C2F",
"i.	c #C0464D",
"j.	c #616161",
"k.	c #9F9F9F",
"l.	c #6D6D6D",
"m.	c #5F5F5F",
"n.	c #FE535C",
"o.	c #C04B51",
"p.	c #6A2D31",
"q.	c #1E1011",
"r.	c #0C0707",
"s.	c #532426",
"t.	c #B04147",
"u.	c #FA6169",
"v.	c #7F3336",
"w.	c #100B0B",
"x.	c #1E1313",
"y.	c #823438",
"z.	c #E8525A",
"A.	c #4A4A4A",
"B.	c #C6C6C6",
"C.	c #606060",
"D.	c #040404",
"E.	c #E15259",
"F.	c #7B3135",
"G.	c #1D1414",
"H.	c #150C0D",
"I.	c #833136",
"J.	c #FF5D65",
"K.	c #FC5C65",
"L.	c #79363A",
"M.	c #020202",
"N.	c #242424",
"O.	c #434343",
"P.	c #525252",
"Q.	c #494949",
"R.	c #1C1C1C",
"S.	c #5B2629",
"T.	c #D25058",
"U.	c #381E1F",
"V.	c #888888",
"W.	c #939393",
"X.	c #949494",
"Y.	c #3C1D1F",
"Z.	c #C7474E",
"`.	c #522426",
" +	c #050505",
".+	c #1E1E1E",
"++	c #373737",
"@+	c #010101",
"#+	c #7F3337",
"$+	c #FF575F",
"%+	c #8C353A",
"&+	c #959595",
"*+	c #DDDDDD",
"=+	c #F4F4F4",
"-+	c #FBFBFB",
";+	c #EFEFEF",
">+	c #D7D7D7",
",+	c #A0A0A0",
"'+	c #5A5A5A",
")+	c #0F0F0F",
"!+	c #491E21",
"~+	c #B44349",
"{+	c #4B3032",
"]+	c #C5C5C5",
"^+	c #4D2D2E",
"/+	c #A83C43",
"(+	c #3A1416",
"_+	c #5E5E5E",
":+	c #A4A4A4",
"<+	c #D9D9D9",
"[+	c #F0F0F0",
"}+	c #DADADA",
"|+	c #909090",
"1+	c #913539",
"2+	c #C2474E",
"3+	c #241516",
"4+	c #5D5D5D",
"5+	c #D0D0D0",
"6+	c #F9F9F9",
"7+	c #AEAEAE",
"8+	c #4D4D4D",
"9+	c #311718",
"0+	c #2C2727",
"a+	c #CCCCCC",
"b+	c #424242",
"c+	c #2A2223",
"d+	c #2A1212",
"e+	c #515151",
"f+	c #B4B4B4",
"g+	c #CACACA",
"h+	c #2B1617",
"i+	c #CC4B52",
"j+	c #FC565F",
"k+	c #6C2D30",
"l+	c #474747",
"m+	c #D8D8D8",
"n+	c #EDEDED",
"o+	c #F7F7F7",
"p+	c #DFDFDF",
"q+	c #0D0D0D",
"r+	c #B5B5B5",
"s+	c #757575",
"t+	c #777777",
"u+	c #E7E7E7",
"v+	c #F6F6F6",
"w+	c #EEEEEE",
"x+	c #CECECE",
"y+	c #763034",
"z+	c #D74D54",
"A+	c #211212",
"B+	c #0B0B0B",
"C+	c #A9A9A9",
"D+	c #FEFEFE",
"E+	c #A8A8A8",
"F+	c #505050",
"G+	c #878787",
"H+	c #CFCFCF",
"I+	c #747474",
"J+	c #6C6C6C",
"K+	c #C1C1C1",
"L+	c #303030",
"M+	c #636363",
"N+	c #626262",
"O+	c #291516",
"P+	c #DF5058",
"Q+	c #A33F44",
"R+	c #030202",
"S+	c #4C4C4C",
"T+	c #FCFCFC",
"U+	c #262626",
"V+	c #0E0E0E",
"W+	c #B7B7B7",
"X+	c #222222",
"Y+	c #232323",
"Z+	c #F2F2F2",
"`+	c #F1F1F1",
" @	c #868686",
".@	c #0C0C0C",
"+@	c #7F7F7F",
"@@	c #060304",
"#@	c #AE4348",
"$@	c #898989",
"%@	c #727272",
"&@	c #2D2D2D",
"*@	c #787878",
"=@	c #C4C4C4",
"-@	c #E5E5E5",
";@	c #8E8E8E",
">@	c #85363A",
",@	c #FA555D",
"'@	c #5A282B",
")@	c #B2B2B2",
"!@	c #181818",
"~@	c #323232",
"{@	c #313131",
"]@	c #171717",
"^@	c #979797",
"/@	c #737373",
"(@	c #2F2F2F",
"_@	c #652A2D",
":@	c #53292B",
"<@	c #A5A5A5",
"[@	c #E6E6E6",
"}@	c #3F3F3F",
"|@	c #929292",
"1@	c #B6B6B6",
"2@	c #582125",
"3@	c #FA525C",
"4@	c #59272A",
"5@	c #8F8F8F",
"6@	c #9A9A9A",
"7@	c #DEDEDE",
"8@	c #5C5C5C",
"9@	c #642B2D",
"0@	c #722F32",
"a@	c #E3E3E3",
"b@	c #803539",
"c@	c #983B40",
"d@	c #EBEBEB",
"e@	c #444444",
"f@	c #393939",
"g@	c #A54146",
"h@	c #C84A50",
"i@	c #130B0B",
"j@	c #3B3B3B",
"k@	c #2A2A2A",
"l@	c #0A0A0A",
"m@	c #292929",
"n@	c #190D0E",
"o@	c #D34D55",
"p@	c #F3555D",
"q@	c #4B2023",
"r@	c #C2C2C2",
"s@	c #202020",
"t@	c #282828",
"u@	c #BFBFBF",
"v@	c #404040",
"w@	c #562426",
"x@	c #F7555D",
"y@	c #9B3B40",
"z@	c #1D1D1D",
"A@	c #D4D4D4",
"B@	c #545454",
"C@	c #535353",
"D@	c #161616",
"E@	c #080606",
"F@	c #A43E43",
"G@	c #EA545C",
"H@	c #492022",
"I@	c #919191",
"J@	c #C0C0C0",
"K@	c #797979",
"L@	c #C9C9C9",
"M@	c #767676",
"N@	c #191919",
"O@	c #5B5B5B",
"P@	c #141414",
"Q@	c #542527",
"R@	c #F1565E",
"S@	c #AC4046",
"T@	c #110C0C",
"U@	c #7A7A7A",
"V@	c #C3C3C3",
"W@	c #BBBBBB",
"X@	c #E8E8E8",
"Y@	c #190E0F",
"Z@	c #B34247",
"`@	c #575757",
" #	c #CDCDCD",
".#	c #D6D6D6",
"+#	c #4F4F4F",
"@#	c #101010",
"##	c #9E9E9E",
"$#	c #843539",
"%#	c #E9545C",
"&#	c #5F272A",
"*#	c #AAAAAA",
"=#	c #DBDBDB",
"-#	c #E2E2E2",
";#	c #AFAFAF",
">#	c #4E4E4E",
",#	c #642528",
"'#	c #F1575F",
")#	c #D55158",
"!#	c #461C1E",
"~#	c #989898",
"{#	c #6E6E6E",
"]#	c #8C8C8C",
"^#	c #363636",
"/#	c #EAEAEA",
"(#	c #2E2E2E",
"_#	c #E9E9E9",
":#	c #E1E1E1",
"<#	c #B9B9B9",
"[#	c #54282B",
"}#	c #DB5259",
"|#	c #C04046",
"1#	c #40181B",
"2#	c #A6A6A6",
"3#	c #F3F3F3",
"4#	c #252525",
"5#	c #E4E4E4",
"6#	c #DCDCDC",
"7#	c #D2D2D2",
"8#	c #42181A",
"9#	c #C94950",
"0#	c #BE464C",
"a#	c #401F21",
"b#	c #D1D1D1",
"c#	c #151515",
"d#	c #3F1719",
"e#	c #BF4046",
"f#	c #BE4B51",
"g#	c #3E2223",
"h#	c #D3D3D3",
"i#	c #121212",
"j#	c #C04147",
"k#	c #BE4D53",
"l#	c #392123",
"m#	c #272727",
"n#	c #6B6B6B",
"o#	c #ECECEC",
"p#	c #3F1F20",
"q#	c #BE444A",
"r#	c #AE4147",
"s#	c #241414",
"t#	c #656565",
"u#	c #1F1F1F",
"v#	c #969696",
"w#	c #2C1618",
"x#	c #B94A50",
"y#	c #93363C",
"z#	c #373636",
"A#	c #312F30",
"B#	c #9A373D",
"C#	c #452223",
"D#	c #717171",
"E#	c #BABABA",
"F#	c #4D2325",
"G#	c #F6555D",
"H#	c #FB545D",
"I#	c #552426",
"J#	c #111111",
"K#	c #61292C",
"L#	c #BF464D",
"M#	c #261516",
"N#	c #2C1315",
"O#	c #C3454C",
"P#	c #EE555D",
"Q#	c #502123",
"R#	c #828282",
"S#	c #592528",
"T#	c #CA4950",
"U#	c #0F0809",
"V#	c #ACACAC",
"W#	c #170D0D",
"X#	c #D24B53",
"Y#	c #0D0707",
"Z#	c #686868",
"`#	c #555555",
" $	c #696969",
".$	c #140C0C",
"+$	c #D04B51",
"@$	c #E65159",
"#$	c #3D1B1C",
"$$	c #3E3E3E",
"%$	c #8B8B8B",
"&$	c #BCBCBC",
"*$	c #EC525A",
"=$	c #A34045",
"-$	c #342D2E",
";$	c #A7A7A7",
">$	c #2B2B2B",
",$	c #312222",
"'$	c #A93F45",
")$	c #933B3F",
"!$	c #1C1818",
"~$	c #191314",
"{$	c #98393E",
"]$	c #D04C53",
"^$	c #1F1616",
"/$	c #2C2C2C",
"($	c #211415",
"_$	c #D84D54",
":$	c #DF4F57",
"<$	c #291617",
"[$	c #E55159",
"}$	c #E85058",
"|$	c #2D1617",
"1$	c #36191A",
"2$	c #F1545D",
"3$	c #F0525A",
"4$	c #3F1D1F",
"5$	c #707070",
"6$	c #471F21",
"7$	c #F8555E",
"8$	c #F6545D",
"9$	c #642B2E",
"0$	c #4A4848",
"a$	c #454242",
"b$	c #6B2D31",
"c$	c #DE4F56",
"d$	c #8A373C",
"e$	c #662C2F",
"f$	c #421D1F",
"g$	c #2C1516",
"h$	c #1B0E0E",
"i$	c #0B0708",
"j$	c #040202",
"k$	c #0B0707",
"l$	c #140C0D",
"m$	c #1E0E0F",
"n$	c #2D1516",
"o$	c #431E20",
"p$	c #672D30",
"q$	c #8C383C",
"r$	c #B6464B",
"s$	c #FE555E",
"t$	c #F3525C",
"u$	c #E75059",
"v$	c #D84D55",
"w$	c #CB4B50",
"x$	c #BA454B",
"y$	c #AC4147",
"z$	c #9E3E43",
"A$	c #92393E",
"B$	c #86373B",
"C$	c #81383B",
"D$	c #7C3539",
"E$	c #793236",
"F$	c #7A3235",
"G$	c #7A3134",
"H$	c #7A3236",
"I$	c #81383C",
"J$	c #87373B",
"K$	c #9F3E43",
"L$	c #AD4248",
"M$	c #BB464C",
"N$	c #CC4B51",
"O$	c #DA4D54",
"P$	c #E75159",
"Q$	c #FE565E",
"R$	c #FF535C",
". + + + + + + + + + + + + + + + + + + + + + + + + + + + + + + + + + + + + + + + + + + + + + + + + + + + + + + + + + + + + + + + + + + + + + + ",
"+ @ @ @ @ @ @ @ @ @ @ @ @ @ @ @ @ @ @ @ @ @ @ @ @ @ @ @ @ @ @ @ @ @ @ @ @ @ @ @ @ @ @ @ @ @ @ @ @ @ @ @ @ @ @ @ @ @ @ @ @ @ @ @ @ @ @ @ @ @ @ ",
"+ @ @ @ @ @ @ @ @ @ @ @ @ @ @ @ @ @ @ @ @ @ @ @ @ @ @ @ @ @ @ @ @ @ @ @ @ @ @ @ @ @ @ @ @ @ @ @ @ @ @ @ @ @ @ @ @ @ @ @ @ @ @ @ @ @ @ @ @ @ @ ",
"+ @ @ @ @ @ @ @ @ @ @ @ @ @ @ @ @ @ @ @ @ @ @ @ @ @ @ @ @ @ @ @ @ @ @ @ @ @ @ @ @ @ @ @ @ @ @ @ @ @ @ @ @ @ @ @ @ @ @ @ @ @ @ @ @ @ @ @ @ @ @ ",
"+ @ @ @ @ @ @ @ @ @ @ @ @ @ @ @ @ @ @ @ @ @ @ @ @ @ @ @ @ @ @ @ @ @ @ @ @ @ @ @ @ @ @ @ @ @ @ @ @ @ @ @ @ @ @ @ @ @ @ @ @ @ @ @ @ @ @ @ @ @ @ ",
"+ @ @ @ @ @ @ @ @ @ @ @ @ @ @ @ @ @ @ @ @ @ @ @ @ @ @ @ @ @ @ @ @ @ @ @ @ @ @ @ @ @ @ @ @ @ @ @ @ @ @ @ @ @ @ @ @ @ @ @ @ @ @ @ @ @ @ @ @ @ @ ",
"+ @ @ @ @ @ @ @ @ @ @ @ @ @ @ @ @ @ @ @ @ @ @ @ @ @ @ @ @ @ @ # $ $ $ $ $ % % % & @ @ @ @ @ @ @ @ @ @ @ @ @ @ @ @ @ @ @ @ @ @ @ @ @ @ @ @ @ @ ",
"+ @ @ @ @ @ @ @ @ @ @ @ @ @ @ @ @ @ @ @ @ @ @ @ @ @ @ @ @ @ * = - ; ; ; ; > , ' ) ! @ @ @ @ @ @ @ @ @ @ @ @ @ @ @ @ @ @ @ @ @ @ @ @ @ @ @ @ @ ",
"+ @ @ @ @ @ @ @ @ @ @ @ @ @ @ @ @ @ @ @ @ @ @ @ @ @ @ @ @ ~ { ] ^ / ( ( ( ( _ : < [ } @ @ @ @ @ @ @ @ @ @ @ @ @ @ @ @ @ @ @ @ @ @ @ @ @ @ @ @ ",
"+ @ @ @ @ @ @ @ @ @ @ @ @ @ @ @ @ @ @ @ @ @ @ @ @ @ @ @ @ | 1 2 3 4 ( ( ( ( ] 3 5 6 7 @ @ @ @ @ @ @ @ @ @ @ @ @ @ @ @ @ @ @ @ @ @ @ @ @ @ @ @ ",
"+ @ @ @ @ @ @ @ @ @ @ @ @ @ @ @ @ @ @ @ @ @ @ @ @ @ @ @ @ | 8 9 0 a b c d e f g h i 7 @ @ @ @ @ @ @ @ @ @ @ @ @ @ @ @ @ @ @ @ @ @ @ @ @ @ @ @ ",
"+ @ @ @ @ @ @ @ @ @ @ @ @ @ @ @ @ @ @ @ @ @ @ @ @ @ @ @ @ | 8 ( ( j k l m n o ( ( p 7 @ @ @ @ @ @ @ @ @ @ @ @ @ @ @ @ @ @ @ @ @ @ @ @ @ @ @ @ ",
"+ @ @ @ @ @ @ @ @ @ @ @ @ @ @ @ @ @ @ @ @ @ @ @ @ @ @ @ @ q r ( ( ( s t u v ( ( ( w x @ @ @ @ @ @ @ @ @ @ @ @ @ @ @ @ @ @ @ @ @ @ @ @ @ @ @ @ ",
"+ @ @ @ @ @ @ @ @ @ @ @ @ @ @ @ @ @ @ @ @ @ @ @ @ @ @ @ @ y z ( c A n B C n D E ( w F @ @ @ @ @ @ @ @ @ @ @ @ @ @ @ @ @ @ @ @ @ @ @ @ @ @ @ @ ",
"+ @ @ @ @ @ @ @ @ @ @ @ @ @ @ @ @ @ @ @ @ @ @ @ @ @ @ @ @ y z b G a H ( ( I J K L M F @ @ @ @ @ @ @ @ @ @ @ @ @ @ @ @ @ @ @ @ @ @ @ @ @ @ @ @ ",
"+ @ @ @ @ @ @ @ @ @ @ @ @ @ @ @ @ @ @ @ @ @ @ @ @ @ @ @ @ y N O P Q ( ( ( ( R S T U x @ @ @ @ @ @ @ @ @ @ @ @ @ @ @ @ @ @ @ @ @ @ @ @ @ @ @ @ ",
"+ @ @ @ @ @ @ @ @ @ @ @ @ @ @ @ @ @ @ @ @ @ @ @ @ @ @ @ @ y V W X Y ( ( ( ( d Z X ` 7 @ @ @ @ @ @ @ @ @ @ @ @ @ @ @ @ @ @ @ @ @ @ @ @ @ @ @ @ ",
"+ @ @ @ @ @ @ @ @ @ @ @ @ @ @  ...+.@.#.$.%.@ @ @ @ @ @ @ y z ( ( ( ( d &.( ( ( ( i 7 @ @ @ @ @ @ @ *...=.-.;.>. .@ @ @ @ @ @ @ @ @ @ @ @ @ @ ",
"+ @ @ @ @ @ @ @ @ @ @ @ @ ,.'.).!.~.{.].^./.(._.:.@ @ @ @ y z ( ( v <.[.}.0 |.( ( i 7 @ @ @ @ 1.2.3.4.5.6.7.8.9.0.a.b.@ @ @ @ @ @ @ @ @ @ @ @ ",
"+ @ @ @ @ @ @ @ @ @ @ @ c.d.e.( ( ( ( ( ( ( f.g.h.i.@ @ @ y z ( j.f k.l.R l f m.( i 7 @ @ n.o.p.q.Y ( ( ( ( ( ( ( r.s.t.@ @ @ @ @ @ @ @ @ @ @ ",
"+ @ @ @ @ @ @ @ @ @ u.v.w.( ( ( ( ( ( ( ( ( ( ( ( x.y.z.@ y z A.B.C.Y ( ( D.X a b i 7 @ E.F.G.( ( ( ( ( ( ( ( ( ( ( ( H.I.J.@ @ @ @ @ @ @ @ @ ",
"+ @ @ @ @ @ @ @ @ K.L.( ( ( ( ( M.N.O.P.Q.o R.D.( ( ( S.T.y U.5 V.( ( ( ( ( ( W.X.Y.7 Z.`.( ( (  +.+++A.P.b 9 @+( ( ( ( ( #+$+@ @ @ @ @ @ @ @ ",
"+ @ @ @ @ @ @ @ @ %+( ( ( ( ( j &+*+=+-+P ;+>+,+'+)+( ( !+~+{+f s ( ( ( ( ( ( P.]+^+/+(+( ( / _+:+<+[+P -+=+}+|+|.( ( ( ( f.1+@ @ @ @ @ @ @ @ ",
"+ @ @ @ @ @ @ @ 2+3+( ( ( ( 4+5+3 3 3 3 3 3 3 3 6+7+8+( ( 9+0+a+v ( ( ( ( ( ( b+f c+d+( ( e+f+t 3 3 3 3 3 3 3 3 g+D ( ( ( ( h+i+@ @ @ @ @ @ @ ",
"+ @ @ @ @ @ @ j+k+( ( ( ( l+m+3 3 3 3 t n+n+o+3 3 3 p+l.( ( q+r+Z ( ( ( ( ( ( s+T d ( ( t+u+3 3 3 v+n+w+t 3 3 3 3 x+L ( ( ( ( y+ .@ @ @ @ @ @ ",
"+ @ @ @ @ @ @ z+A+( ( ( B+C+3 3 3 D+E+m.|.|.F+G+H+3 3 o+I+( ( J+K+L+( ( ( ( L B.M+( ( C D+3 3 g+< 8+H o N+T D+3 3 3 G &.( ( ( O+P+@ @ @ @ @ @ ",
"+ @ @ @ @ @ @ Q+R+( ( ( S+u 3 3 T+C c ( ( ( ( ( U+^ 6+3 u+'+( V+K W+'+X+Y+_+K+|+E ( M+Z+3 `+ @9 ( ( ( ( ( .@+@D+3 3 ;+b ( ( ( @@#@@ @ @ @ @ @ ",
"+ @ @ @ @ @  .0.( ( ( ( G+3 3 3 $@( ( ( ( ( ( ( ( ( %@=+3 a &@( / *@=@H+H+K+%@B+( o 5+3 -@X ( ( ( ( ( ( ( ( ( ;@3 3 3 g ( ( ( ( >@@ @ @ @ @ @ ",
"+ @ @ @ @ @ ,@'@( ( ( E )@3 3 x+N.( ( ( ( ( ( ( ( ( ( C D+3 : ( ( ( !@~@{@]@( ( D.^@3 S /@( ( ( ( ( ( ( ( ( ( (@m+3 3 :+Y ( ( ( _@%.@ @ @ @ @ ",
"+ @ @ @ @ @ # :@( ( ( B+K+3 3 V.( ( ( ( ( ( ( ( ( ( ( .@<@3 [@}@( ( ( ( ( ( ( ( k w+3 m &.( ( ( ( ( ( ( ( ( ( ( |@3 3 1@d ( ( ( 2@3@@ @ @ @ @ ",
"+ @ @ @ @ @ ,@4@( ( ( B+K+3 P F+( ( ( ( ( ( ( ( ( ( ( ( O.[@3 5@( ( ( ( ( ( ( Y 6@3 7@v ( ( ( ( ( ( ( ( ( ( ( ( 8@-+3 f+&.( ( ( 9@%.@ @ @ @ @ ",
"+ @ @ @ @ @  .0@( ( ( &.1@3 n+H ( ( ( ( ( ( ( ( ( ( ( ( @+X.3 }+U+( ( ( ( ( ( (@a@3 $@( ( ( ( ( ( ( ( ( ( ( ( ( I Z+3 E+Y ( ( ( b@@ @ @ @ @ @ ",
"+ @ @ @ @ @ @ c@@+( ( M.K 3 d@(@( ( ( ( ( ( ( ( ( ( ( ( ( e@n+S Q ( ( ( ( ( ( %@D+u+v ( ( ( ( ( ( ( ( ( ( ( ( ( f@`+3 |+( ( ( f.g@@ @ @ @ @ @ ",
"+ @ @ @ @ @ @ h@i@( ( ( *@3 `+j@( ( ( ( ( ( ( k@( ( ( ( ( l@O 3 :+ +( ( ( ( d [.3 C+E ( ( ( ( ( m@( ( ( ( ( ( ( n u D+l.( ( ( n@o@@ @ @ @ @ @ ",
"+ @ @ @ @ @ @ p@q@( ( ( e v+-+'+( ( ( ( ( ( {@r@m.( ( ( ( ( /@D+}+s@( ( ( ( t@a@T+Q ( ( ( ( ( N+u@m@( ( ( ( ( ( Q T+Z+v@( ( ( w@x@@ @ @ @ @ @ ",
"+ @ @ @ @ @ @ @ y@f.( ( z@A@3 $@( ( ( ( ( ( _+T+A@j ( ( ( Y f@n+v+k ( ( ( ( B@6+[@&@M.( ( ( b <+t C@( ( ( ( ( ( X.3 J D@( ( E@F@@ @ @ @ @ @ @ ",
"+ @ @ @ @ @ @ @ G@H@( ( @+I@3 J@)+( ( ( ( ( K@3 3 $@( ( m.l.z@L@3 M@( ( ( ( < 3 J@N@l.O@( M.X.3 D+J+( ( ( ( ( P@g+3  @( ( ( Q@R@@ @ @ @ @ @ @ ",
"+ @ @ @ @ @ @ @ @ S@T@( ( s ;+[+l+( ( ( ( ( U@3 3 V@V++@t }.d k.3 G Y ( (  +T 3 W..@W@o+C P@x+3 3 l.( ( ( ( ( e+v+X@j@( ( Y@Z@@ @ @ @ @ @ @ @ ",
"+ @ @ @ @ @ @ @ @  .F.( ( &.2 3 X.Y b+%@s q+'+-+3 J `@;+3 V.( M@D+=@V+( ( /  #D+Z @+W.3 X@C@.#3 6++#@#k I+j@D.##3 6@Y ( ( $#@ @ @ @ @ @ @ @ @ ",
"+ @ @ @ @ @ @ @ @ @ %#&#( ( S+;+-@b A P =+*#8@]+3 f+B 3 u 8+( e+6+=#z@( ( Y+-#u n ( `@6+D+*@K+3 W@A ;#u u >#e n+u+O.( ( ,#'#@ @ @ @ @ @ @ @ @ ",
"+ @ @ @ @ @ @ @ @ @ @ )#!#( D.~#3 G ]@E+3 3 f+R f {#N+-@]#E ( ^#;+/#(#( ( j `+_#&@( B+&+:#`@I+V@l.<#3 3 5 N@*#3 ;@( ( [#}#@ @ @ @ @ @ @ @ @ @ ",
"+ @ @ @ @ @ @ @ @ @ @ @ |#1#( j@=#T+l.|.2#3#:#k@N@D.( U+E ( ( 4#5#3#b ( ( e 6+6#z@( ( l@4#( D.!@H _#`+##U+I+D+7#{@( 8#9#@ @ @ @ @ @ @ @ @ @ @ ",
"+ @ @ @ @ @ @ @ @ @ @ @ @ 0#a#( 4 D+b#H q+}@O.( '+m Q ( ( ( ( _ m+t e+( ( 4+T+7#c#( ( ( ( l.6@B@( O.L B+I }+D+/@( d#e#@ @ @ @ @ @ @ @ @ @ @ @ ",
"+ @ @ @ @ @ @ @ @ @ @ @ @ @ f#g#R.<#3 5@@+( ( z@1@a@/@( ( ( ( c#h#T+m.( ( l.D+B.q+( ( ( ( g -@C+]@( ( D.6@3 }.i#d#j#@ @ @ @ @ @ @ @ @ @ @ @ @ ",
"+ @ @ @ @ @ @ @ @ @ @ @ @ @ @ k#l#`@`+-@L ( ( ( m#t@@+D.B+@#c#m@ #D+n#( ( *@3 V@Y+c#@#B+D.M.m@N.( ( ( n o#d@+#p#q#@ @ @ @ @ @ @ @ @ @ @ @ @ @ ",
"+ @ @ @ @ @ @ @ @ @ @ @ @ @ @ @ r#s#|@3 ]#z@~@e W B m [.J@g+7#.#T+3 /@( ( B 3 t .#7#L@u@}.6@0 t#Q.{@u#v#3 $@w#x#@ @ @ @ @ @ @ @ @ @ @ @ @ @ @ ",
"+ @ @ @ @ @ @ @ @ @ @ @ @ @ @ @ @ y#z#=#o+=#o#P S 3 3 3 3 D+S -+t 6+s+( ( < 6+t -+S D+3 3 3 3 S o+o#}+t 7#A#B#@ @ @ @ @ @ @ @ @ @ @ @ @ @ @ @ ",
"+ @ @ @ @ @ @ @ @ @ @ @ @ @ @ @ @ R@C#;#T+=+_#=#J <#<@|@0 D#M+D P.+#N.( ( k@F+P.`@X D#B X.2#E#a+6#/#u T+:+F#G#@ @ @ @ @ @ @ @ @ @ @ @ @ @ @ @ ",
"+ @ @ @ @ @ @ @ @ @ @ @ @ @ @ @ @ H#I#S+j.O.&@R.@#c Y ( ( ( ( ( ( ( ( ( ( ( ( ( ( ( ( ( ( D.l@J#z@(#n M+e@K#%.@ @ @ @ @ @ @ @ @ @ @ @ @ @ @ @ ",
"+ @ @ @ @ @ @ @ @ @ @ @ @ @ @ @ @ L#M#( ( ( ( ( ( ( ( ( ( ( ( ( ( ( ( @+@+( ( ( ( ( ( ( ( ( ( ( ( ( ( ( ( N#O#@ @ @ @ @ @ @ @ @ @ @ @ @ @ @ @ ",
"+ @ @ @ @ @ @ @ @ @ @ @ @ @ @ @ P#Q#( ( ( ( (  +/ U+L F+M+I+< ;@|+|@X.v#v#X.|@|+: R#/@N++#v N.i# +( ( ( ( ( S#p@@ @ @ @ @ @ @ @ @ @ @ @ @ @ @ ",
"+ @ @ @ @ @ @ @ @ @ @ @ @ @ @ @ T#U#( ( Y+D <.7+x+5#Z+6+S 3 3 D+T+-+t t t t -+T+D+3 3 S 6+`+a@a+V#R#P.s@( ( W#X#@ @ @ @ @ @ @ @ @ @ @ @ @ @ @ ",
"+ @ @ @ @ @ @ @ @ @ @ @ @ @ @ @ h@Y#Y g >+t 3 6+/#>+J@*#v#< /@Z#_+`#C@P.P.C@`#_+ $I+<.^@V#r@m+d@t 3 6+h#s+( .$+$@ @ @ @ @ @ @ @ @ @ @ @ @ @ @ ",
"+ @ @ @ @ @ @ @ @ @ @ @ @ @ @ @ @$#$$$P _#<#< B@(@N@B+D.( ( ( @#v _+g ]#%$U@8@++V+( ( ( D..@_ {@`@ @&$d@3#^#9.*$@ @ @ @ @ @ @ @ @ @ @ @ @ @ @ ",
"+ @ @ @ @ @ @ @ @ @ @ @ @ @ @ @ @ =$-$4+F+m@/ ( ( ( ( ( ( ( .+7+;+T+3 3 3 3 T+w+;$h ( ( ( ( ( ( ( c#>$B@m.,$'$@ @ @ @ @ @ @ @ @ @ @ @ @ @ @ @ ",
"+ @ @ @ @ @ @ @ @ @ @ @ @ @ @ @ @ @ )$!$C+*+r@v ( ( ( ( ( ( @+ $V#A@[@n+n+-@7#E+t#( ( ( ( ( ( ( b B.*+,+~${$@ @ @ @ @ @ @ @ @ @ @ @ @ @ @ @ @ ",
"+ @ @ @ @ @ @ @ @ @ @ @ @ @ @ @ @ @ ]$^$u@3 a L+( ( ( ( ( ( ( M.B+R./$++^#>$h l@M.( ( ( ( ( ( ( v 5+3 r+($_$@ @ @ @ @ @ @ @ @ @ @ @ @ @ @ @ @ ",
"+ @ @ @ @ @ @ @ @ @ @ @ @ @ @ @ @ @ :$g.<.^ o Y @#N.L D {#< W.,+*#V#T 7+7+T V#*#,+|@R#J+B@j@X+)+Y j@;@C <$[$@ @ @ @ @ @ @ @ @ @ @ @ @ @ @ @ @ ",
"+ @ @ @ @ @ @ @ @ @ @ @ @ @ @ @ @ @ }$|$m#s s+2 f -#Z+6+P Z+d@u+5#*+}+<+<+}+*+5#u+o#Z+P 6+Z+:#a k.%@O.u#1$2$@ @ @ @ @ @ @ @ @ @ @ @ @ @ @ @ @ ",
"+ @ @ @ @ @ @ @ @ @ @ @ @ @ @ @ @ @ 3$4$5$=+v+-#B.<@R#t#8+L (@m#N..+h N@_ h .+4#m#L+I >#W <.;$f a@o+3#X 6$7$@ @ @ @ @ @ @ @ @ @ @ @ @ @ @ @ @ ",
"+ @ @ @ @ @ @ @ @ @ @ @ @ @ @ @ @ @ 8$9$0$t+Q.4#)+Y ( ( ( ( ( ( ( ( ( ( ( ( ( ( ( ( ( ( ( ( Y )+m#S+*@a$b$H#@ @ @ @ @ @ @ @ @ @ @ @ @ @ @ @ @ ",
"+ @ @ @ @ @ @ @ @ @ @ @ @ @ @ @ @ @ @ c$~+d$e$f$g$h$.$i$j$M.@+( ( ( ( ( ( ( ( ( ( @+M.j$k$l$m$n$o$p$q$r$E.@ @ @ @ @ @ @ @ @ @ @ @ @ @ @ @ @ @ ",
"+ @ @ @ @ @ @ @ @ @ @ @ @ @ @ @ @ @ @ @ @ @ s$t$u$v$w$x$y$z$A$B$C$D$E$F$G$H$D$I$J$A$K$L$M$N$O$P$t$Q$@ @ @ @ @ @ @ @ @ @ @ @ @ @ @ @ @ @ @ @ @ ",
"+ @ @ @ @ @ @ @ @ @ @ @ @ @ @ @ @ @ @ @ @ @ @ @ @ @ @ @ @ @ @ @ @ n.@ @ @ @ R$@ @ @ @ @ @ @ @ @ @ @ @ @ @ @ @ @ @ @ @ @ @ @ @ @ @ @ @ @ @ @ @ ",
"+ @ @ @ @ @ @ @ @ @ @ @ @ @ @ @ @ @ @ @ @ @ @ @ @ @ @ @ @ @ @ @ @ @ @ @ @ @ @ @ @ @ @ @ @ @ @ @ @ @ @ @ @ @ @ @ @ @ @ @ @ @ @ @ @ @ @ @ @ @ @ ",
"+ @ @ @ @ @ @ @ @ @ @ @ @ @ @ @ @ @ @ @ @ @ @ @ @ @ @ @ @ @ @ @ @ @ @ @ @ @ @ @ @ @ @ @ @ @ @ @ @ @ @ @ @ @ @ @ @ @ @ @ @ @ @ @ @ @ @ @ @ @ @ ",
"+ @ @ @ @ @ @ @ @ @ @ @ @ @ @ @ @ @ @ @ @ @ @ @ @ @ @ @ @ @ @ @ @ @ @ @ @ @ @ @ @ @ @ @ @ @ @ @ @ @ @ @ @ @ @ @ @ @ @ @ @ @ @ @ @ @ @ @ @ @ @ ",
"+ @ @ @ @ @ @ @ @ @ @ @ @ @ @ @ @ @ @ @ @ @ @ @ @ @ @ @ @ @ @ @ @ @ @ @ @ @ @ @ @ @ @ @ @ @ @ @ @ @ @ @ @ @ @ @ @ @ @ @ @ @ @ @ @ @ @ @ @ @ @ ",
"+ @ @ @ @ @ @ @ @ @ @ @ @ @ @ @ @ @ @ @ @ @ @ @ @ @ @ @ @ @ @ @ @ @ @ @ @ @ @ @ @ @ @ @ @ @ @ @ @ @ @ @ @ @ @ @ @ @ @ @ @ @ @ @ @ @ @ @ @ @ @ ",
"+ @ @ @ @ @ @ @ @ @ @ @ @ @ @ @ @ @ @ @ @ @ @ @ @ @ @ @ @ @ @ @ @ @ @ @ @ @ @ @ @ @ @ @ @ @ @ @ @ @ @ @ @ @ @ @ @ @ @ @ @ @ @ @ @ @ @ @ @ @ @ ",
"+ @ @ @ @ @ @ @ @ @ @ @ @ @ @ @ @ @ @ @ @ @ @ @ @ @ @ @ @ @ @ @ @ @ @ @ @ @ @ @ @ @ @ @ @ @ @ @ @ @ @ @ @ @ @ @ @ @ @ @ @ @ @ @ @ @ @ @ @ @ @ "};
