/* XPM */
static char * hbp_xpm[] = {
"71 71 219 2",
"  	c None",
". 	c #FF545D",
"+ 	c #FF535C",
"@ 	c #E65059",
"# 	c #B6454B",
"$ 	c #9A3C41",
"% 	c #993C42",
"& 	c #BA464B",
"* 	c #E85159",
"= 	c #A54045",
"- 	c #3D1B1D",
"; 	c #070505",
"> 	c #000000",
", 	c #090505",
"' 	c #441E20",
") 	c #A93E44",
"! 	c #A73F44",
"~ 	c #1F1515",
"{ 	c #200D0E",
"] 	c #AE3F45",
"^ 	c #EC535B",
"/ 	c #461E20",
"( 	c #512426",
"_ 	c #F1545C",
": 	c #C6494F",
"< 	c #0E0809",
"[ 	c #130A0B",
"} 	c #CE4B51",
"| 	c #B34349",
"1 	c #060303",
"2 	c #0A0707",
"3 	c #BF484E",
"4 	c #C3484F",
"5 	c #0D0808",
"6 	c #110A0A",
"7 	c #CA4950",
"8 	c #E8525A",
"9 	c #3E1B1C",
"0 	c #482022",
"a 	c #ED535B",
"b 	c #A43B40",
"c 	c #1D1010",
"d 	c #220F0F",
"e 	c #AB3C42",
"f 	c #6C2D31",
"g 	c #752E31",
"h 	c #DE5158",
"i 	c #4E2527",
"j 	c #542224",
"k 	c #E04A52",
"l 	c #E04B52",
"m 	c #5E2326",
"n 	c #642326",
"o 	c #E9535B",
"p 	c #642427",
"q 	c #723134",
"r 	c #F86169",
"s 	c #F8626A",
"t 	c #733135",
"u 	c #7E383C",
"v 	c #FF5E67",
"w 	c #FD5E67",
"x 	c #7C373B",
"y 	c #7F2E33",
"z 	c #FF555E",
"A 	c #7E2F33",
"B 	c #822C30",
"C 	c #832D32",
"D 	c #080707",
"E 	c #8F393E",
"F 	c #D04B52",
"G 	c #1F1415",
"H 	c #060404",
"I 	c #050303",
"J 	c #050203",
"K 	c #2B1B1C",
"L 	c #D84D54",
"M 	c #F7565E",
"N 	c #B94349",
"O 	c #B34147",
"P 	c #9C3A3F",
"Q 	c #2A1415",
"R 	c #2F1516",
"S 	c #A03A40",
"T 	c #BB454C",
"U 	c #FD5861",
"V 	c #F7545D",
"W 	c #442021",
"X 	c #4C2022",
"Y 	c #FA555E",
"Z 	c #C84950",
"` 	c #1D0E0F",
" .	c #241213",
"..	c #D24D54",
"+.	c #FC5861",
"@.	c #6C2E31",
"#.	c #732C30",
"$.	c #FF565F",
"%.	c #8F383D",
"&.	c #040303",
"*.	c #0A0909",
"=.	c #993F43",
"-.	c #9C4348",
";.	c #1A1818",
">.	c #201314",
",.	c #9E3B40",
"'.	c #AE4045",
").	c #1F1414",
"!.	c #251113",
"~.	c #B64349",
"{.	c #ED545C",
"].	c #4C2325",
"^.	c #572628",
"/.	c #F3555D",
"(.	c #B24349",
"_.	c #080606",
":.	c #0E0909",
"<.	c #BB464C",
"[.	c #7E3337",
"}.	c #89363B",
"|.	c #FA545D",
"1.	c #5C2629",
"2.	c #6D2F33",
"3.	c #FA535C",
"4.	c #5F292B",
"5.	c #6E3134",
"6.	c #FF565E",
"7.	c #87363A",
"8.	c #913B3F",
"9.	c #C44A50",
"0.	c #190F0F",
"a.	c #211212",
"b.	c #CE4A51",
"c.	c #7A3135",
"d.	c #85373B",
"e.	c #E75159",
"f.	c #622125",
"g.	c #6E2D30",
"h.	c #F25B63",
"i.	c #ED565E",
"j.	c #7C3235",
"k.	c #030202",
"l.	c #0F0E0E",
"m.	c #833337",
"n.	c #F55B63",
"o.	c #782E32",
"p.	c #BA4A4F",
"q.	c #0C0909",
"r.	c #0D0505",
"s.	c #C2484F",
"t.	c #973B41",
"u.	c #050404",
"v.	c #F7555E",
"w.	c #572428",
"x.	c #61272A",
"y.	c #A03C41",
"z.	c #0B0808",
"A.	c #10090A",
"B.	c #AC4348",
"C.	c #BF454C",
"D.	c #35191C",
"E.	c #3C1B1D",
"F.	c #C14147",
"G.	c #BC494F",
"H.	c #3F1A1D",
"I.	c #411719",
"J.	c #BE454B",
"K.	c #9F3A3F",
"L.	c #2C1718",
"M.	c #34191B",
"N.	c #A53B41",
"O.	c #9F4347",
"P.	c #1E1617",
"Q.	c #1F0E0F",
"R.	c #A0393E",
"S.	c #A43B41",
"T.	c #1F1314",
"U.	c #220E0F",
"V.	c #AF4147",
"W.	c #CB4950",
"X.	c #341819",
"Y.	c #401F20",
"Z.	c #D54C53",
"`.	c #FB565F",
" +	c #6A2B2E",
".+	c #722E31",
"++	c #FD565F",
"@+	c #B6454A",
"#+	c #100A0B",
"$+	c #180E0E",
"%+	c #BF474D",
"&+	c #FB555D",
"*+	c #672B2E",
"=+	c #712C30",
"-+	c #FD555E",
";+	c #DB4E55",
">+	c #231313",
",+	c #2B1516",
"'+	c #E35059",
")+	c #A94146",
"!+	c #B4444B",
"~+	c #7B3236",
"{+	c #89383C",
"]+	c #FA555D",
"^+	c #59272A",
"/+	c #642B2E",
"(+	c #FC545D",
"_+	c #F4525C",
":+	c #451E20",
"<+	c #F9555E",
"[+	c #F3535B",
"}+	c #3F1C1E",
"|+	c #F8555E",
"1+	c #682E31",
"2+	c #251314",
"3+	c #723235",
"4+	c #FB555E",
"5+	c #E5525A",
"6+	c #EB535C",
". + + + + + + + + + + + + + + + + + + + + + + + + + + + + + + + + + + + + + + + + + + + + + + + + + + + + + + + + + + + + + + + + + + + + + + ",
"+ . . . . . . . . . . . . . . . . . . . . . . . . . . . . . . . . . . . . . . . . . . . . . . . . . . . . . . . . . . . . . . . . . . . . . . ",
"+ . . . . . . . . . . . . . . . . . . . . . . . . . . . . . . . . . . . . . . . . . . . . . . . . . . . . . . . . . . . . . . . . . . . . . . ",
"+ . . . . . . . . . . . . . . . . . . . . . . . . . . . . . . . . . . . . . . . . . . . . . . . . . . . . . . . . . . . . . . . . . . . . . . ",
"+ . . . . . . . . . . . . . . . . . . . . . . . . . . . . . . . . . . . . . . . . . . . . . . . . . . . . . . . . . . . . . . . . . . . . . . ",
"+ . . . . . . . . . . . . . . . . . . . . . . . . . . . . . . . . . . . . . . . . . . . . . . . . . . . . . . . . . . . . . . . . . . . . . . ",
"+ . . . . . . . . . . . . . . . . . . . . . . . . . . . . . . . . @ # $ % & * . . . . . . . . . . . . . . . . . . . . . . . . . . . . . . . . ",
"+ . . . . . . . . . . . . . . . . . . . . . . . . . . . . . . . = - ; > > , ' ) . . . . . . . . . . . . . . . . . . . . . . . . . . . . . . . ",
"+ . . . . . . . . . . . . . . . . . . . . . . . . . . . . . . ! ~ > > > > > > { ] . . . . . . . . . . . . . . . . . . . . . . . . . . . . . . ",
"+ . . . . . . . . . . . . . . . . . . . . . . . . . . . . . ^ / > > > > > > > > ( _ . . . . . . . . . . . . . . . . . . . . . . . . . . . . . ",
"+ . . . . . . . . . . . . . . . . . . . . . . . . . . . . . : < > > > > > > > > [ } . . . . . . . . . . . . . . . . . . . . . . . . . . . . . ",
"+ . . . . . . . . . . . . . . . . . . . . . . . . . . . . . | 1 > > > > > > > > 2 3 . . . . . . . . . . . . . . . . . . . . . . . . . . . . . ",
"+ . . . . . . . . . . . . . . . . . . . . . . . . . . . . . 4 5 > > > > > > > > 6 7 . . . . . . . . . . . . . . . . . . . . . . . . . . . . . ",
"+ . . . . . . . . . . . . . . . . . . . . . . . . . . . . . 8 9 > > > > > > > > 0 a . . . . . . . . . . . . . . . . . . . . . . . . . . . . . ",
"+ . . . . . . . . . . . . . . . . . . . . . . . . . . . . . . b c > > > > > > d e . . . . . . . . . . . . . . . . . . . . . . . . . . . . . . ",
"+ . . . . . . . . . . . . . . . . . . . . . . . . . . . . . . . f > > > > > > g . . . . . . . . . . . . . . . . . . . . . . . . . . . . . . . ",
"+ . . . . . . . . . . . . . . . . . . . . . . . . . . . . . . h i > > > > > > j k . . . . . . . . . . . . . . . . . . . . . . . . . . . . . . ",
"+ . . . . . . . . . . . . . . . . . . . . . . . . . . . . . l m > > > > > > > > n o . . . . . . . . . . . . . . . . . . . . . . . . . . . . . ",
"+ . . . . . . . . . . . . . . . . . . . . . . . . . . . . o p > > > > > > > > > > q r . . . . . . . . . . . . . . . . . . . . . . . . . . . . ",
"+ . . . . . . . . . . . . . . . . . . . . . . . . . . . s t > > > > > > > > > > > > u v . . . . . . . . . . . . . . . . . . . . . . . . . . . ",
"+ . . . . . . . . . . . . . . . . . . . . . . . . . . w x > > > > > > > > > > > > > > y z . . . . . . . . . . . . . . . . . . . . . . . . . . ",
"+ . . . . . . . . . . . . . . . . . . . . . . . . . z A > > > > > > > > > > > > > > > > B + . . . . . . . . . . . . . . . . . . . . . . . . . ",
"+ . . . . . . . . . . . . . . . . . . . . . . . . + C > > > > > > > > > > > > > > > > > D E . . . . . . . . . . . . . . . . . . . . . . . . . ",
"+ . . . . . . . . . . . . . . . . . . . . . . . . F G H H I > > > > > > > > > > > > J H H K L . . . . . . . . . . . . . . . . . . . . . . . . ",
"+ . . . . . . . . . . . . . . . . . . . . . . . . M N O O P Q > > > > > > > > > > R S O O T U . . . . . . . . . . . . . . . . . . . . . . . . ",
"+ . . . . . . . . . . . . . . . . . . . . . . . . . . . . V W > > > > > > > > > > X Y . . . . . . . . . . . . . . . . . . . . . . . . . . . . ",
"+ . . . . . . . . . . . . . . . . . . . . . . . . . . . . Z ` > > > > > > > > > >  .... . . . . . . . . . . . . . . . . . . . . . . . . . . . ",
"+ . . . . . . . . . . . . . . . . . . . . . . . . . . . +.@.> > > > > > > > > > > > #.$.. . . . . . . . . . . . . . . . . . . . . . . . . . . ",
"+ . . . . . . . . . . . . . . . . . . . . . . . . . . . %.&.> > > > > > > > > > > > *.=.. . . . . . . . . . . . . . . . . . . . . . . . . . . ",
"+ . . . . . . . . . . . . . . . . . . . . . . . . . . -.;.> > > > > > > > > > > > > > >.,.. . . . . . . . . . . . . . . . . . . . . . . . . . ",
"+ . . . . . . . . . . . . . . . . . . . . . . . . . '.).> > > > > > > > > > > > > > > > !.~.. . . . . . . . . . . . . . . . . . . . . . . . . ",
"+ . . . . . . . . . . . . . . . . . . . . . . . . {.].> > > > > > > > > > > > > > > > > > ^./.. . . . . . . . . . . . . . . . . . . . . . . . ",
"+ . . . . . . . . . . . . . . . . . . . . . . . . (._.> > > > > > > > > > > > > > > > > > :.<.. . . . . . . . . . . . . . . . . . . . . . . . ",
"+ . . . . . . . . . . . . . . . . . . . . . . . . [.> > > > > > > > > > > > > > > > > > > > }.. . . . . . . . . . . . . . . . . . . . . . . . ",
"+ . . . . . . . . . . . . . . . . . . . . . . . |.1.> > > > > > > > > > > > > > > > > > > > 2.z . . . . . . . . . . . . . . . . . . . . . . . ",
"+ . . . . . . . . . . . . . . . . . . . . . . . 3.4.> > > > > > > > > > > > > > > > > > > > 5.6.. . . . . . . . . . . . . . . . . . . . . . . ",
"+ . . . . . . . . . . . . . . . . . . . . . . . . 7.> > > > > > > > > > > > > > > > > > > > 8.. . . . . . . . . . . . . . . . . . . . . . . . ",
"+ . . . . . . . . . . . . . . . . . . . . . . . . 9.0.> > > > > > > > > > > > > > > > > > a.b.. . . . . . . . . . . . . . . . . . . . . . . . ",
"+ . . . . . . . . . . . . . . . . . . . . . . . . $.c.> > > > > > > > > > > > > > > > > > d.+ . . . . . . . . . . . . . . . . . . . . . . . . ",
"+ . . . . . . . . . . . . . . . . . . . . . . . . . e.f.> > > > > > > > > > > > > > > > g.h.. . . . . . . . . . . . . . . . . . . . . . . . . ",
"+ . . . . . . . . . . . . . . . . . . . . . . . . . . i.j.k.> > > > > > > > > > > > l.m.n.. . . . . . . . . . . . . . . . . . . . . . . . . . ",
"+ . . . . . . . . . . . . . . . . . . . . . . . . . . . z o.> > > > > > > > > > > > d.+ . . . . . . . . . . . . . . . . . . . . . . . . . . . ",
"+ . . . . . . . . . . . . . . . . . . . . . . . . . . . . p.q.> > > > > > > > > > r.s.. . . . . . . . . . . . . . . . . . . . . . . . . . . . ",
"+ . . . . . . . . . . . . . . . . . . . . . . . . . . . . t.k.> > > > > > > > > > u.= . . . . . . . . . . . . . . . . . . . . . . . . . . . . ",
"+ . . . . . . . . . . . . . . . . . . . . . . . . . . . v.w.> > > > > > > > > > > > x.Y . . . . . . . . . . . . . . . . . . . . . . . . . . . ",
"+ . . . . . . . . . . . . . . . . . . . . . . . . . . . y.z.> > > > > > > > > > > > A.B.. . . . . . . . . . . . . . . . . . . . . . . . . . . ",
"+ . . . . . . . . . . . . . . . . . . . . . . . . . . C.D.> > > > > > > > > > > > > > E.F.. . . . . . . . . . . . . . . . . . . . . . . . . . ",
"+ . . . . . . . . . . . . . . . . . . . . . . . . . G.H.> > > > > > > > > > > > > > > > I.J.. . . . . . . . . . . . . . . . . . . . . . . . . ",
"+ . . . . . . . . . . . . . . . . . . . . . . . . K.L.> > > > > > > > > > > > > > > > > > M.N.. . . . . . . . . . . . . . . . . . . . . . . . ",
"+ . . . . . . . . . . . . . . . . . . . . . . . O.P.> > > > > > > > > > > > > > > > > > > > Q.R.. . . . . . . . . . . . . . . . . . . . . . . ",
"+ . . . . . . . . . . . . . . . . . . . . . . S.T.> > > > > > > > > > > > > > > > > > > > > > U.V.. . . . . . . . . . . . . . . . . . . . . . ",
"+ . . . . . . . . . . . . . . . . . . . . . W.X.> > > > > > > > > > > > > > > > > > > > > > > > Y.Z.. . . . . . . . . . . . . . . . . . . . . ",
"+ . . . . . . . . . . . . . . . . . . . . `. +> > > > > > > > > > > > > > > > > > > > > > > > > > .+++. . . . . . . . . . . . . . . . . . . . ",
"+ . . . . . . . . . . . . . . . . . . . . @+#+> > > > > > > > > > > > > > > > > > > > > > > > > > $+%+. . . . . . . . . . . . . . . . . . . . ",
"+ . . . . . . . . . . . . . . . . . . . &+*+> > > > > > > > > > > > > > > > > > > > > > > > > > > > =+-+. . . . . . . . . . . . . . . . . . . ",
"+ . . . . . . . . . . . . . . . . . . . ;+>+> > > > > > > > > > > > > > > > > > > > > > > > > > > > ,+'+. . . . . . . . . . . . . . . . . . . ",
"+ . . . . . . . . . . . . . . . . . . . )+u.> > > > > > > > > > > > > > > > > > > > > > > > > > > > _.!+. . . . . . . . . . . . . . . . . . . ",
"+ . . . . . . . . . . . . . . . . . . + ~+> > > > > > > > > > > > > > > > > > > > > > > > > > > > > > {+. . . . . . . . . . . . . . . . . . . ",
"+ . . . . . . . . . . . . . . . . . . ]+^+> > > > > > > > > > > > > > > > > > > > > > > > > > > > > > /+(+. . . . . . . . . . . . . . . . . . ",
"+ . . . . . . . . . . . . . . . . . . _+:+> > > > > > > > > > > > > > > > > > > > > > > > > > > > > > ( <+. . . . . . . . . . . . . . . . . . ",
"+ . . . . . . . . . . . . . . . . . . [+}+> > > > > > > > > > > > > > > > > > > > > > > > > > > > > > ].V . . . . . . . . . . . . . . . . . . ",
"+ . . . . . . . . . . . . . . . . . . |+1+2+2+2+2+2+2+2+2+2+2+2+2+2+2+2+2+2+2+2+2+2+2+2+2+2+2+2+2+2+2+3+4+. . . . . . . . . . . . . . . . . . ",
"+ . . . . . . . . . . . . . . . . . . . o 5+5+5+5+5+5+5+5+5+5+5+5+5+5+5+5+5+5+5+5+5+5+5+5+5+5+5+5+5+5+6+. . . . . . . . . . . . . . . . . . . ",
"+ . . . . . . . . . . . . . . . . . . . . . . . . . . . . . . . . . . . . . . . . . . . . . . . . . . . . . . . . . . . . . . . . . . . . . . ",
"+ . . . . . . . . . . . . . . . . . . . . . . . . . . . . . . . . . . . . . . . . . . . . . . . . . . . . . . . . . . . . . . . . . . . . . . ",
"+ . . . . . . . . . . . . . . . . . . . . . . . . . . . . . . . . . . . . . . . . . . . . . . . . . . . . . . . . . . . . . . . . . . . . . . ",
"+ . . . . . . . . . . . . . . . . . . . . . . . . . . . . . . . . . . . . . . . . . . . . . . . . . . . . . . . . . . . . . . . . . . . . . . ",
"+ . . . . . . . . . . . . . . . . . . . . . . . . . . . . . . . . . . . . . . . . . . . . . . . . . . . . . . . . . . . . . . . . . . . . . . ",
"+ . . . . . . . . . . . . . . . . . . . . . . . . . . . . . . . . . . . . . . . . . . . . . . . . . . . . . . . . . . . . . . . . . . . . . . ",
"+ . . . . . . . . . . . . . . . . . . . . . . . . . . . . . . . . . . . . . . . . . . . . . . . . . . . . . . . . . . . . . . . . . . . . . . ",
"+ . . . . . . . . . . . . . . . . . . . . . . . . . . . . . . . . . . . . . . . . . . . . . . . . . . . . . . . . . . . . . . . . . . . . . . "};
