/* XPM */
static char * hbr_xpm[] = {
"71 71 364 2",
"  	c None",
". 	c #FF545D",
"+ 	c #FF535C",
"@ 	c #FF565E",
"# 	c #FB555E",
"$ 	c #F7555D",
"% 	c #F5535C",
"& 	c #F45860",
"* 	c #CF4C53",
"= 	c #C3474E",
"- 	c #C04A50",
"; 	c #B64349",
"> 	c #B23F46",
", 	c #C14A50",
"' 	c #C4464E",
") 	c #D14D54",
"! 	c #F9575F",
"~ 	c #FF555E",
"{ 	c #F1545C",
"] 	c #F4535B",
"^ 	c #F9555E",
"/ 	c #FD545D",
"( 	c #E3535A",
"_ 	c #B34449",
": 	c #9A3F43",
"< 	c #803438",
"[ 	c #6A2D30",
"} 	c #592528",
"| 	c #4D2325",
"1 	c #532628",
"2 	c #D04C53",
"3 	c #A94449",
"4 	c #160E0F",
"5 	c #0C0607",
"6 	c #0B0707",
"7 	c #080404",
"8 	c #060303",
"9 	c #080405",
"0 	c #0C0606",
"a 	c #1E1313",
"b 	c #BD474D",
"c 	c #C2494F",
"d 	c #442224",
"e 	c #421C1E",
"f 	c #502325",
"g 	c #64292D",
"h 	c #7D3437",
"i 	c #983D43",
"j 	c #B4444A",
"k 	c #E6535B",
"l 	c #8B383D",
"m 	c #070404",
"n 	c #010101",
"o 	c #000000",
"p 	c #060404",
"q 	c #B4454A",
"r 	c #A34348",
"s 	c #020202",
"t 	c #090606",
"u 	c #BC464C",
"v 	c #A53F45",
"w 	c #040303",
"x 	c #953C41",
"y 	c #83373A",
"z 	c #993D43",
"A 	c #8B363B",
"B 	c #913B40",
"C 	c #7F3538",
"D 	c #FD555E",
"E 	c #A24449",
"F 	c #BB494F",
"G 	c #FD575F",
"H 	c #723034",
"I 	c #2E191A",
"J 	c #6C3034",
"K 	c #452426",
"L 	c #030202",
"M 	c #522729",
"N 	c #291718",
"O 	c #121212",
"P 	c #101010",
"Q 	c #090909",
"R 	c #939393",
"S 	c #CECECE",
"T 	c #8A8A8A",
"U 	c #060606",
"V 	c #BDBDBD",
"W 	c #FFFFFF",
"X 	c #B1B1B1",
"Y 	c #FEFEFE",
"Z 	c #FBFBFB",
"` 	c #F7F7F7",
" .	c #F2F2F2",
"..	c #EAEAEA",
"+.	c #E6E6E6",
"@.	c #E0E0E0",
"#.	c #DADADA",
"$.	c #D7D7D7",
"%.	c #D4D4D4",
"&.	c #D2D2D2",
"*.	c #D0D0D0",
"=.	c #D1D1D1",
"-.	c #D3D3D3",
";.	c #D6D6D6",
">.	c #D9D9D9",
",.	c #DCDCDC",
"'.	c #E4E4E4",
").	c #E7E7E7",
"!.	c #EEEEEE",
"~.	c #F3F3F3",
"{.	c #F9F9F9",
"].	c #FCFCFC",
"^.	c #A4A4A4",
"/.	c #BABABA",
"(.	c #A1A1A1",
"_.	c #878787",
":.	c #6F6F6F",
"<.	c #5A5A5A",
"[.	c #484848",
"}.	c #3B3B3B",
"|.	c #2E2E2E",
"1.	c #282828",
"2.	c #212121",
"3.	c #1B1B1B",
"4.	c #181818",
"5.	c #161616",
"6.	c #151515",
"7.	c #131313",
"8.	c #141414",
"9.	c #171717",
"0.	c #191919",
"a.	c #1D1D1D",
"b.	c #242424",
"c.	c #292929",
"d.	c #333333",
"e.	c #3E3E3E",
"f.	c #4C4C4C",
"g.	c #5E5E5E",
"h.	c #747474",
"i.	c #8B8B8B",
"j.	c #BCBCBC",
"k.	c #9A9A9A",
"l.	c #923D41",
"m.	c #202020",
"n.	c #0A0A0A",
"o.	c #030303",
"p.	c #0B0B0B",
"q.	c #1F1F1F",
"r.	c #9B3D42",
"s.	c #D45057",
"t.	c #441C1D",
"u.	c #4C2022",
"v.	c #DE535A",
"w.	c #BA464B",
"x.	c #281415",
"y.	c #31191B",
"z.	c #BF464C",
"A.	c #993A40",
"B.	c #0D0D0D",
"C.	c #050505",
"D.	c #040404",
"E.	c #161112",
"F.	c #A23B41",
"G.	c #7E3034",
"H.	c #868686",
"I.	c #979797",
"J.	c #A5A5A5",
"K.	c #B0B0B0",
"L.	c #C3C3C3",
"M.	c #C6C6C6",
"N.	c #D5D5D5",
"O.	c #CDCDCD",
"P.	c #969696",
"Q.	c #858585",
"R.	c #3C3C3C",
"S.	c #893539",
"T.	c #F55A62",
"U.	c #60292C",
"V.	c #A9A9A9",
"W.	c #FAFAFA",
"X.	c #F1F1F1",
"Y.	c #E8E8E8",
"Z.	c #D8D8D8",
"`.	c #E9E9E9",
" +	c #909090",
".+	c #692F32",
"++	c #FD5A62",
"@+	c #9B3E43",
"#+	c #4E4E4E",
"$+	c #6C6C6C",
"%+	c #535353",
"&+	c #3D3D3D",
"*+	c #373737",
"=+	c #2F2F2F",
"-+	c #B3B3B3",
";+	c #DDDDDD",
">+	c #383838",
",+	c #414141",
"'+	c #B2B2B2",
")+	c #303030",
"!+	c #494949",
"~+	c #5F5F5F",
"{+	c #6D6D6D",
"]+	c #434343",
"^+	c #A34045",
"/+	c #A04246",
"(+	c #ABABAB",
"_+	c #1E1E1E",
":+	c #272727",
"<+	c #AAAAAA",
"[+	c #A94046",
"}+	c #080808",
"|+	c #1A1A1A",
"1+	c #2C2C2C",
"2+	c #B4B4B4",
"3+	c #585858",
"4+	c #3F3F3F",
"5+	c #454545",
"6+	c #474747",
"7+	c #0C0C0C",
"8+	c #636363",
"9+	c #A3A3A3",
"0+	c #B7B7B7",
"a+	c #C5C5C5",
"b+	c #F4F4F4",
"c+	c #F6F6F6",
"d+	c #C4C4C4",
"e+	c #B6B6B6",
"f+	c #A2A2A2",
"g+	c #545454",
"h+	c #9C9C9C",
"i+	c #9E9E9E",
"j+	c #919191",
"k+	c #7F7F7F",
"l+	c #777777",
"m+	c #808080",
"n+	c #E3E3E3",
"o+	c #7B7B7B",
"p+	c #929292",
"q+	c #9F9F9F",
"r+	c #E5E5E5",
"s+	c #252525",
"t+	c #262626",
"u+	c #5C5C5C",
"v+	c #CFCFCF",
"w+	c #505050",
"x+	c #848484",
"y+	c #6A6A6A",
"z+	c #4B4B4B",
"A+	c #656565",
"B+	c #6B6B6B",
"C+	c #E1E1E1",
"D+	c #767676",
"E+	c #4A4A4A",
"F+	c #A0A0A0",
"G+	c #DFDFDF",
"H+	c #F8F8F8",
"I+	c #757575",
"J+	c #ADADAD",
"K+	c #7E7E7E",
"L+	c #4F4F4F",
"M+	c #727272",
"N+	c #EBEBEB",
"O+	c #AEAEAE",
"P+	c #6E6E6E",
"Q+	c #A84046",
"R+	c #A63F45",
"S+	c #9F4246",
"T+	c #A03D43",
"U+	c #9E4145",
"V+	c #0E0E0E",
"W+	c #323232",
"X+	c #9C3B41",
"Y+	c #959595",
"Z+	c #AFAFAF",
"`+	c #EDEDED",
" @	c #C1C1C1",
".@	c #BEBEBE",
"+@	c #ECECEC",
"@@	c #949494",
"#@	c #F0F0F0",
"$@	c #DBDBDB",
"%@	c #FDFDFD",
"&@	c #EFEFEF",
"*@	c #2B2B2B",
"=@	c #828282",
"-@	c #1C1C1C",
";@	c #2A2A2A",
">@	c #232323",
",@	c #616161",
"'@	c #9C3C41",
")@	c #A04347",
"!@	c #A6454A",
"~@	c #A14448",
"{@	c #AB4A50",
"]@	c #9B4347",
"^@	c #A3464B",
"/@	c #F7565E",
"(@	c #5D282C",
"_@	c #A8A8A8",
":@	c #717171",
"<@	c #DEDEDE",
"[@	c #F5F5F5",
"}@	c #595959",
"|@	c #652A2D",
"1@	c #FC5861",
"2@	c #93363B",
"3@	c #7A7A7A",
"4@	c #0A0909",
"5@	c #9E3D44",
"6@	c #C74D54",
"7@	c #555555",
"8@	c #381B1D",
"9@	c #CE4A51",
"0@	c #F65760",
"a@	c #663133",
"b@	c #6C3033",
"c@	c #FA5860",
"d@	c #953A3F",
"e@	c #B5B5B5",
"f@	c #9F3F44",
"g@	c #C64A51",
"h@	c #2F1819",
"i@	c #371C1E",
"j@	c #CC4B52",
"k@	c #612B2E",
"l@	c #672B2E",
"m@	c #FC5860",
"n@	c #963A3F",
"o@	c #9F3A40",
"p@	c #FB565F",
"q@	c #5B292C",
"r@	c #63262A",
"s@	c #FC545C",
"t@	c #542729",
"u@	c #5D2427",
"v@	c #502426",
"w@	c #582325",
"x@	c #C94B51",
"y@	c #241213",
"z@	c #070707",
"A@	c #2B1416",
"B@	c #D34E55",
"C@	c #7C3236",
"D@	c #86353A",
"E@	c #F2535B",
"F@	c #441F21",
"G@	c #4F2426",
"H@	c #F7555E",
"I@	c #E94F57",
"J@	c #2D1314",
"K@	c #3B1E1F",
"L@	c #F2565F",
"M@	c #EF545C",
"N@	c #371A1B",
"O@	c #411F20",
"P@	c #F2525B",
"Q@	c #FA555D",
"R@	c #7E3237",
"S@	c #401C1E",
"T@	c #85373B",
"U@	c #FC545D",
"V@	c #F5545D",
"W@	c #F4535C",
". + + + + + + + + + + + + + + + + + + + + + + + + + + + + + + + + + + + + + + + + + + + + + + + + + + + + + + + + + + + + + + + + + + + + + + ",
"+ . . . . . . . . . . . . . . . . . . . . . . . . . . . . . . . . . . . . . . . . . . . . . . . . . . . . . . . . . . . . . . . . . . . . . . ",
"+ . . . . . . . . . . . . . . . . . . . . . . . . . . . . . . . . . . . . . . . . . . . . . . . . . . . . . . . . . . . . . . . . . . . . . . ",
"+ . . . . . . . . . . . . . . . . . . . . . . . . . . . . . . . . . . . . . . . . . . . . . . . . . . . . . . . . . . . . . . . . . . . . . . ",
"+ . . . . . . . . . . . . . . . . . . . @ # $ % . . . . . . & * = - ; > > ; , ' ) ! . . . . . ~ { ] ^ / . . . . . . . . . . . . . . . . . . . ",
"+ . . . . . . . . . . . . . . . ( _ : < [ } | 1 2 . . . . . 3 4 5 6 7 8 8 9 6 0 a b . . . . . c d e f g h i j k . . . . . . . . . . . . . . . ",
"+ . . . . . . . . . . . . . . . l m n o o o o p q . . . . . r s o o o o o o o o t u . . . . . v w o o o o n 9 x . . . . . . . . . . . . . . . ",
"+ . . . . . . . . . . . . . . . y o o o o o o n z . . . . . r s o o o o o o o o t u . . . . . A o o o o o o o B . . . . . . . . . . . . . . . ",
"+ . . . . . . . . . . . . . . . y o o o o o o o C ~ D D D D E s o o o o o o o o t F D D D D G H o o o o o o o B . . . . . . . . . . . . . . . ",
"+ . . . . . . . . . . . . . . . y o o o o o o o I J J J J J K o o o o o o o o o L M J J J J J N o o o o o o o B . . . . . . . . . . . . . . . ",
"+ . . . . . . . . . . . . . . . y o O O O O O O O O O O O O O O O O O O O O O O O O O O O O O O O O O O O P o B . . . . . . . . . . . . . . . ",
"+ . . . . . . . . . . . . . . . y Q R S S S S S S S S S S S S S S S S S S S S S S S S S S S S S S S S S S T U B . . . . . . . . . . . . . . . ",
"+ . . . . . . . . . . . . . . . y Q V W W W W W W W W W W W W W W W W W W W W W W W W W W W W W W W W W W X U B . . . . . . . . . . . . . . . ",
"+ . . . . . . . . . . . . . . . y Q V W W W W Y Z `  ...+.@.#.$.%.&.*.*.*.=.-.;.>.,.'.).!.~.{.].W W W W W X U B . . . . . . . . . . . . . . . ",
"+ . . . . . . . . . . . . . . . y Q ^.=./.(._.:.<.[.}.|.1.2.3.4.5.6.7.7.7.8.6.9.0.a.b.c.d.e.f.g.h.i.^.j.-.k.U B . . . . . . . . . . . . . . . ",
"+ . . . . . . . . . . . . . . . l.o m.5.n.o.o o o o o o o o o o o o o o o o o o o o o o o o o o o o o.p.9.q.o r.. . . . . . . . . . . . . . . ",
"+ . . . . . . . . . . . . . . . s.t.o o o o o o o o o o o o o o o o o o o o o o o o o o o o o o o o o o o o u.v.. . . . . . . . . . . . . . . ",
"+ . . . . . . . . . . . . . . . . w.x.o o o o o o o o o o o o o o o o o o o o o o o o o o o o o o o o o o y.z.. . . . . . . . . . . . . . . . ",
"+ . . . . . . . . . . . . . . . . . A.B.o o o o o n o.C.n.p.B.O 5.5.9.9.9.9.5.5.O B.p.n.D.o.o o o o o o E.F.. . . . . . . . . . . . . . . . . ",
"+ . . . . . . . . . . . . . . . . . + G.o o [.h.H.I.J.K.V L.M.S %.N.N.;.;.N.N.%.O.M.L.V K.J.P.Q.h.R.o o S.. . . . . . . . . . . . . . . . . . ",
"+ . . . . . . . . . . . . . . . . . . T.U.o.V.Y ].W.`  .X.Y.Z W Z.$.$.$.$.$.$.Z.W W.`.X.~.` W.].Y  +o .+++. . . . . . . . . . . . . . . . . . ",
"+ . . . . . . . . . . . . . . . . . . . @+o.#+$+g.%+[.&+*+=+-+;+>+4.4.9.9.4.4.,+).'+)+>+&+!+%+~+{+]+s ^+. . . . . . . . . . . . . . . . . . . ",
"+ . . . . . . . . . . . . . . . . . . . /+s o o o o o o o o.(+;+_+o o o o o o :+).<+o.o o o o o o o n [+. . . . . . . . . . . . . . . . . . . ",
"+ . . . . . . . . . . . . . . . . . . . /+s o o o o o o o o.(+;+_+o o o o o o :+).<+o.o o o o o o o n [+. . . . . . . . . . . . . . . . . . . ",
"+ . . . . . . . . . . . . . . . . . . . /+s o o.}+B.8.|+2.1+2+@.3+4+5+6+6+5+4+~+).-+1+m.0.8.7+}+o.o n [+. . . . . . . . . . . . . . . . . . . ",
"+ . . . . . . . . . . . . . . . . . . . /+U 8+9+0+a+=.>.@.).Z W ~.b+c+` ` c+b+~.W Z ).@.Z.*.d+e+f+g+s [+. . . . . . . . . . . . . . . . . . . ",
"+ . . . . . . . . . . . . . . . . . . . /+U h+'.>.#.W *.<+i+j+T k+l+m+n+,.o+l+m+i.p+q+<+Z.W Z.>.r+_.s [+. . . . . . . . . . . . . . . . . . . ",
"+ . . . . . . . . . . . . . . . . . . . /+s s+t+|+u+` h.o.s o o o o 7.v+L.p.o o o o s o.H.~.w+|+t+q.n [+. . . . . . . . . . . . . . . . . . . ",
"+ . . . . . . . . . . . . . . . . . . . /+s o o o [.` :.o o o o o o 7.v+L.p.o o o o o o x+~.}.o o o n [+. . . . . . . . . . . . . . . . . . . ",
"+ . . . . . . . . . . . . . . . . . . . /+s o o o [.` :.o o o o o o 7.v+L.p.o o o o o o x+~.}.o o o n [+. . . . . . . . . . . . . . . . . . . ",
"+ . . . . . . . . . . . . . . . . . . . /+s o o o [.` :.o o o o o o 7.v+L.p.o o o o o o x+~.}.o o o n [+. . . . . . . . . . . . . . . . . . . ",
"+ . . . . . . . . . . . . . . . . . . . /+s o o o [.` :.o o o o o o 7.v+L.p.o o o o o o x+~.}.o o o n [+. . . . . . . . . . . . . . . . . . . ",
"+ . . . . . . . . . . . . . . . . . . . /+s P 4.m.y+` R 4+z+%+u+A+B+o+C+#.D+B+A+u+%+E+e.F+~.~+q.4.7+n [+. . . . . . . . . . . . . . . . . . . ",
"+ . . . . . . . . . . . . . . . . . . . /+U _.$.G+`.W c+~.H+W.].{.{.{.{.{.{.{.{.].W.H+~.{.W ).G+$.I+s [+. . . . . . . . . . . . . . . . . . . ",
"+ . . . . . . . . . . . . . . . . . . . /+U k+j.J+^.P.i.K+D+S '.$+w+L+L+L+L+w+M+N+O.D+k+i.I.J.O+V P+s [+. . . . . . . . . . . . . . . . . . . ",
"+ . . . . . . . . . . . . . . . . . . . /+s p.n.D.o.o o o o.(+;+_+o o o o o o :+).<+o.o o o o.D.n.}+n [+. . . . . . . . . . . . . . . . . . . ",
"+ . . . . . . . . . . . . . . . . . . . /+s o o o o o o o o.(+;+_+o o o o o o :+).<+o.o o o o o o o n Q+. . . . . . . . . . . . . . . . . . . ",
"+ . . . . . . . . . . . . . . . . . . . /+s o o o o o o o o.(+;+_+o o o o o o :+).<+o.o o o o o o o n R+. . . . . . . . . . . . . . . . . . . ",
"+ . . . . . . . . . . . . . . . . . . . S+s o o o o o o o o.(+;+_+o o o o o o :+).<+o.o o o o o o o n T+. . . . . . . . . . . . . . . . . . . ",
"+ . . . . . . . . . . . . . . . . . . . U+s o o o o.o.C.}+V+(+;+c.n.n.n.n.n.n.W+).<+B.}+C.o.o.o o o n X+. . . . . . . . . . . . . . . . . . . ",
"+ . . . . . . . . . . . . . . . . . . . U+o.3+i.Y+^.(+Z+0+j.`+Z  @.@.@.@.@.@.@L.Y +@j.0+Z+(+^.@@T f.s X+. . . . . . . . . . . . . . . . . . . ",
"+ . . . . . . . . . . . . . . . . . . . U+U q+#@`...W ..$@#.Z.Z.$.$.$.%@Z $.$.$.Z.Z.#.,.&@W Y.`.X.T s X+. . . . . . . . . . . . . . . . . . . ",
"+ . . . . . . . . . . . . . . . . . . . U+s *@*+1+B+` =@-@|+0.4.4.4.;@v+L.>@4.4.4.0.|+-@p+~.,@1+>+b.n '@. . . . . . . . . . . . . . . . . . . ",
"+ . . . . . . . . . . . . . . . . . . . )@s o o o [.` :.o o o o o o 7.v+L.p.o o o o o o x+~.}.o o o D.!@. . . . . . . . . . . . . . . . . . . ",
"+ . . . . . . . . . . . . . . . . . . . ~@s o o o [.` :.o o o o o o 7.v+L.p.o o o o o o x+~.}.o o o D.{@. . . . . . . . . . . . . . . . . . . ",
"+ . . . . . . . . . . . . . . . . . . . ]@s o o o [.` :.o o o o o o 7.v+L.p.o o o o o o x+~.}.o o o o.^@. . . . . . . . . . . . . . . . . . . ",
"+ . . . . . . . . . . . . . . . . . . /@(@0.<.8+8+p+H+_@8+8+8+8+8+8+:@<@$.$+8+8+8+8+8+8+-+[@T 8+8+}@7.|@1@. . . . . . . . . . . . . . . . . . ",
"+ . . . . . . . . . . . . . . . . . . 2@C.x+{.{.{.{.Z {.{.{.{.{.{.{.{.Z Z {.{.{.{.{.{.{.W.Z {.{.{.{.3@4@5@. . . . . . . . . . . . . . . . . . ",
"+ . . . . . . . . . . . . . . . . . 6@I o ,+7@7@7@7@7@7@7@7@7@7@7@7@7@7@7@7@7@7@7@7@7@7@7@7@7@7@7@7@R.o 8@9@. . . . . . . . . . . . . . . . . ",
"+ . . . . . . . . . . . . . . . . 0@a@o 5.3.3.3.3.3.3.3.3.3.3.3.3.3.3.3.3.3.3.3.3.3.3.3.3.3.3.3.3.3.3.6.o b@c@. . . . . . . . . . . . . . . . ",
"+ . . . . . . . . . . . . . . . . d@C.e.e@$@$@$@$@$@$@$@$@$@$@$@$@$@$@$@$@$@$@$@$@$@$@$@$@$@$@$@$@$@$@e@>+4@f@. . . . . . . . . . . . . . . . ",
"+ . . . . . . . . . . . . . . . g@h@P J+W W W W W W W W W W W W W W W W W W W W W W W W W W W W W W W W ^.7+i@j@. . . . . . . . . . . . . . . ",
"+ . . . . . . . . . . . . . . 0@k@o 5+` W W W W W W W W W W W W W W W W W W W W W W W W W W W W W W W W  .&+o l@m@. . . . . . . . . . . . . . ",
"+ . . . . . . . . . . . . . . n@D.o #+$@G+G+G+G+G+G+G+G+G+G+G+G+G+G+G+G+G+G+G+G+G+G+G+G+G+G+G+G+G+G+G+G+#.6+o U o@. . . . . . . . . . . . . . ",
"+ . . . . . . . . . . . . . p@q@o o C.m.m.m.m.m.m.m.m.m.m.m.m.m.m.m.m.m.m.m.m.m.m.m.m.m.m.m.m.m.m.m.m.m.m.s o o r@s@. . . . . . . . . . . . . ",
"+ . . . . . . . . . . . . . p@t@o o o o o o o o o o o o o o o o o o o o o o o o o o o o o o o o o o o o o o o o u@s@. . . . . . . . . . . . . ",
"+ . . . . . . . . . . . . . p@t@o o o o o o o o o o o o o o o o o o o o o o o o o o o o o o o o o o o o o o o o u@s@. . . . . . . . . . . . . ",
"+ . . . . . . . . . . . . . p@t@o o o o o o o o o o o o o o o o o o o o o o o o o o o o o o o o o o o o o o o o u@s@. . . . . . . . . . . . . ",
"+ . . . . . . . . . . . . . p@t@o U U U U U U U U U U U U U U U U U U U U U U U U U U U U U U U U U U U U U U o u@s@. . . . . . . . . . . . . ",
"+ . . . . . . . . . . . . . p@t@*+f+-+-+-+-+-+-+-+-+-+-+-+-+-+-+-+-+-+-+-+-+-+-+-+-+-+-+-+-+-+-+-+-+-+-+-+-+i+|.u@s@. . . . . . . . . . . . . ",
"+ . . . . . . . . . . . . . p@v@3+;.$.$.$.$.$.$.$.$.$.$.$.$.$.$.$.$.$.$.$.$.$.$.$.$.$.$.$.$.$.$.$.$.$.$.$.$.-.f.w@s@. . . . . . . . . . . . . ",
"+ . . . . . . . . . . . . . x@y@z@9.9.9.9.9.9.9.9.9.9.9.9.9.9.9.9.9.9.9.9.9.9.9.9.9.9.9.9.9.9.9.9.9.9.9.9.9.9.o.A@B@. . . . . . . . . . . . . ",
"+ . . . . . . . . . . . . . C@o o o o o o o o o o o o o o o o o o o o o o o o o o o o o o o o o o o o o o o o o o D@+ . . . . . . . . . . . . ",
"+ . . . . . . . . . . . . E@F@o o o o o o o o o o o o o o o o o o o o o o o o o o o o o o o o o o o o o o o o o o G@H@. . . . . . . . . . . . ",
"+ . . . . . . . . . . . . I@J@o o o o o o o o o o o o o o o o o o o o o o o o o o o o o o o o o o o o o o o o o o K@L@. . . . . . . . . . . . ",
"+ . . . . . . . . . . . . M@N@o o o o o o o o o o o o o o o o o o o o o o o o o o o o o o o o o o o o o o o o o o O@P@. . . . . . . . . . . . ",
"+ . . . . . . . . . . . . Q@R@S@S@S@S@S@S@S@S@S@S@S@S@S@S@S@S@S@S@S@S@S@S@S@S@S@S@S@S@S@S@S@S@S@S@S@S@S@S@S@S@S@S@T@U@. . . . . . . . . . . . ",
"+ . . . . . . . . . . . . . V@W@W@W@W@W@W@W@W@W@W@W@W@W@W@W@W@W@W@W@W@W@W@W@W@W@W@W@W@W@W@W@W@W@W@W@W@W@W@W@W@W@W@$ . . . . . . . . . . . . . ",
"+ . . . . . . . . . . . . . . . . . . . . . . . . . . . . . . . . . . . . . . . . . . . . . . . . . . . . . . . . . . . . . . . . . . . . . . ",
"+ . . . . . . . . . . . . . . . . . . . . . . . . . . . . . . . . . . . . . . . . . . . . . . . . . . . . . . . . . . . . . . . . . . . . . . ",
"+ . . . . . . . . . . . . . . . . . . . . . . . . . . . . . . . . . . . . . . . . . . . . . . . . . . . . . . . . . . . . . . . . . . . . . . "};
