/* XPM */
static char * hwk_xpm[] = {
"71 71 558 2",
"  	c None",
". 	c #FF545D",
"+ 	c #FF535C",
"@ 	c #FA565F",
"# 	c #F9575F",
"$ 	c #FA5860",
"% 	c #FA575F",
"& 	c #F9565E",
"* 	c #A03E44",
"= 	c #5C2B2E",
"- 	c #51282A",
"; 	c #50282A",
"> 	c #522A2C",
", 	c #51292B",
"' 	c #4F282A",
") 	c #52282A",
"! 	c #52292B",
"~ 	c #56292B",
"{ 	c #A64449",
"] 	c #F1535C",
"^ 	c #432123",
"/ 	c #0B0B0B",
"( 	c #171717",
"_ 	c #6A6A6A",
": 	c #8F8F8F",
"< 	c #5B5B5B",
"[ 	c #121212",
"} 	c #090909",
"| 	c #482224",
"1 	c #F2525B",
"2 	c #EF535B",
"3 	c #432829",
"4 	c #656565",
"5 	c #242424",
"6 	c #4C4C4C",
"7 	c #C0C0C0",
"8 	c #FFFFFF",
"9 	c #B8B8B8",
"0 	c #404040",
"a 	c #383838",
"b 	c #5E5E5E",
"c 	c #412123",
"d 	c #F1525B",
"e 	c #C6C6C6",
"f 	c #B2B2B2",
"g 	c #3E3E3E",
"h 	c #363636",
"i 	c #A7A7A7",
"j 	c #A0A0A0",
"k 	c #2A2A2A",
"l 	c #4A4A4A",
"m 	c #BFBFBF",
"n 	c #B1B1B1",
"o 	c #F2535C",
"p 	c #422728",
"q 	c #C4C4C4",
"r 	c #515151",
"s 	c #141414",
"t 	c #131313",
"u 	c #606060",
"v 	c #D8D8D8",
"w 	c #422325",
"x 	c #F3545D",
"y 	c #EE535B",
"z 	c #412728",
"A 	c #E3E3E3",
"B 	c #616161",
"C 	c #000000",
"D 	c #707070",
"E 	c #F7F7F7",
"F 	c #432426",
"G 	c #ED525A",
"H 	c #D1D1D1",
"I 	c #878787",
"J 	c #808080",
"K 	c #696969",
"L 	c #DFDFDF",
"M 	c #432325",
"N 	c #42292A",
"O 	c #848484",
"P 	c #444444",
"Q 	c #2C2C2C",
"R 	c #999999",
"S 	c #202020",
"T 	c #585858",
"U 	c #7B7B7B",
"V 	c #412224",
"W 	c #EF545C",
"X 	c #361C1D",
"Y 	c #1A1A1A",
"Z 	c #1C1C1C",
"` 	c #7E7E7E",
" .	c #C3C3C3",
"..	c #6D6D6D",
"+.	c #151515",
"@.	c #161616",
"#.	c #3A1B1C",
"$.	c #351C1D",
"%.	c #282828",
"&.	c #333333",
"*.	c #272727",
"=.	c #232323",
"-.	c #3C1C1D",
";.	c #432A2B",
">.	c #AEAEAE",
",.	c #E7E7E7",
"'.	c #DEDEDE",
").	c #ABABAB",
"!.	c #49292A",
"~.	c #797979",
"{.	c #4D4D4D",
"].	c #7D7D7D",
"^.	c #C8C8C8",
"/.	c #492A2B",
"(.	c #969696",
"_.	c #353535",
":.	c #919191",
"<.	c #9E9E9E",
"[.	c #C2C2C2",
"}.	c #E5525A",
"|.	c #BB474D",
"1.	c #973D43",
"2.	c #84373B",
"3.	c #83383C",
"4.	c #8A3B3F",
"5.	c #9A3D43",
"6.	c #B4454C",
"7.	c #D14C52",
"8.	c #ED535A",
"9.	c #371E1F",
"0.	c #424242",
"a.	c #FBFBFB",
"b.	c #FAFAFA",
"c.	c #3D1E20",
"d.	c #FE555E",
"e.	c #EE535C",
"f.	c #D14F56",
"g.	c #AF454A",
"h.	c #943C40",
"i.	c #89393D",
"j.	c #86373C",
"k.	c #983E43",
"l.	c #BD484E",
"m.	c #E7515A",
"n.	c #D34E56",
"o.	c #7C3135",
"p.	c #301819",
"q.	c #0C0708",
"r.	c #181515",
"s.	c #191010",
"t.	c #3E1E20",
"u.	c #81373B",
"v.	c #C84E55",
"w.	c #FB5861",
"x.	c #767676",
"y.	c #FEFEFE",
"z.	c #6B6B6B",
"A.	c #3D1E1F",
"B.	c #C0494F",
"C.	c #7A3236",
"D.	c #3D1F20",
"E.	c #1B1212",
"F.	c #181616",
"G.	c #222222",
"H.	c #111111",
"I.	c #0C0707",
"J.	c #34191B",
"K.	c #803236",
"L.	c #D85057",
"M.	c #FF555E",
"N.	c #97393E",
"O.	c #311619",
"P.	c #0C0C0C",
"Q.	c #939393",
"R.	c #DBDBDB",
"S.	c #D4D4D4",
"T.	c #A2A2A2",
"U.	c #6C6C6C",
"V.	c #313131",
"W.	c #1F1617",
"X.	c #682D31",
"Y.	c #BC4950",
"Z.	c #EE5961",
"`.	c #ACACAC",
" +	c #070707",
".+	c #F05961",
"++	c #B9494F",
"@+	c #632C30",
"#+	c #1B1414",
"$+	c #343434",
"%+	c #717171",
"&+	c #A4A4A4",
"*+	c #C7C7C7",
"=+	c #D5D5D5",
"-+	c #909090",
";+	c #4E4E4E",
">+	c #0A0A0A",
",+	c #371A1B",
"'+	c #A13E44",
")+	c #FF5861",
"!+	c #802E32",
"~+	c #070606",
"{+	c #F1F1F1",
"]+	c #C9C9C9",
"^+	c #8D8D8D",
"/+	c #3D3D3D",
"(+	c #454545",
"_+	c #595959",
":+	c #7F7F7F",
"<+	c #AFAFAF",
"[+	c #CBCBCB",
"}+	c #505050",
"|+	c #1F1717",
"1+	c #5A2C2E",
"2+	c #1A1212",
"3+	c #0E0E0E",
"4+	c #BCBCBC",
"5+	c #1D1112",
"6+	c #562628",
"7+	c #1D1616",
"8+	c #555555",
"9+	c #A5A5A5",
"0+	c #ADADAD",
"a+	c #434343",
"b+	c #CCCCCC",
"c+	c #A6A6A6",
"d+	c #474747",
"e+	c #100E0E",
"f+	c #822D31",
"g+	c #843035",
"h+	c #E0E0E0",
"i+	c #626262",
"j+	c #5A5A5A",
"k+	c #646464",
"l+	c #5C5C5C",
"m+	c #494949",
"n+	c #2E2E2E",
"o+	c #191919",
"p+	c #020202",
"q+	c #949494",
"r+	c #898989",
"s+	c #A3A3A3",
"t+	c #2D2D2D",
"u+	c #303030",
"v+	c #3C3C3C",
"w+	c #181818",
"x+	c #676767",
"y+	c #C5C5C5",
"z+	c #DADADA",
"A+	c #8D363B",
"B+	c #AB4046",
"C+	c #140D0E",
"D+	c #727272",
"E+	c #9A9A9A",
"F+	c #292929",
"G+	c #F2F2F2",
"H+	c #FDFDFD",
"I+	c #FCFCFC",
"J+	c #F8F8F8",
"K+	c #E9E9E9",
"L+	c #868686",
"M+	c #3B3B3B",
"N+	c #929292",
"O+	c #D0D0D0",
"P+	c #CDCDCD",
"Q+	c #D2D2D2",
"R+	c #8E8E8E",
"S+	c #3F3F3F",
"T+	c #8A8A8A",
"U+	c #EBEBEB",
"V+	c #F9F9F9",
"W+	c #CECECE",
"X+	c #828282",
"Y+	c #2B2B2B",
"Z+	c #9F9F9F",
"`+	c #1F1314",
" @	c #B34248",
".@	c #EE555D",
"+@	c #4C2123",
"@@	c #E2E2E2",
"#@	c #CFCFCF",
"$@	c #E5E5E5",
"%@	c #DCDCDC",
"&@	c #414141",
"*@	c #CACACA",
"=@	c #1F1F1F",
"-@	c #572628",
";@	c #F3565E",
">@	c #AA4046",
",@	c #121010",
"'@	c #AAAAAA",
")@	c #636363",
"!@	c #E4E4E4",
"~@	c #B7B7B7",
"{@	c #535353",
"]@	c #545454",
"^@	c #B5B5B5",
"/@	c #1E1E1E",
"(@	c #130F0F",
"_@	c #B34348",
":@	c #FC555D",
"<@	c #682B2F",
"[@	c #464646",
"}@	c #EFEFEF",
"|@	c #686868",
"1@	c #BABABA",
"2@	c #888888",
"3@	c #ECECEC",
"4@	c #742F33",
"5@	c #EE525B",
"6@	c #37181B",
"7@	c #B3B3B3",
"8@	c #737373",
"9@	c #252525",
"0@	c #262626",
"a@	c #BBBBBB",
"b@	c #431F20",
"c@	c #F2545C",
"d@	c #E3525A",
"e@	c #291818",
"f@	c #080808",
"g@	c #1D1D1D",
"h@	c #484848",
"i@	c #060606",
"j@	c #2C1415",
"k@	c #E85057",
"l@	c #E04F57",
"m@	c #251515",
"n@	c #E1E1E1",
"o@	c #BDBDBD",
"p@	c #EAEAEA",
"q@	c #777777",
"r@	c #525252",
"s@	c #F3F3F3",
"t@	c #D9D9D9",
"u@	c #2B1618",
"v@	c #E7525A",
"w@	c #E5535B",
"x@	c #2B181A",
"y@	c #DDDDDD",
"z@	c #F5F5F5",
"A@	c #050505",
"B@	c #A8A8A8",
"C@	c #E6E6E6",
"D@	c #666666",
"E@	c #9B9B9B",
"F@	c #212121",
"G@	c #BEBEBE",
"H@	c #2F1516",
"I@	c #E94F57",
"J@	c #EC525A",
"K@	c #331618",
"L@	c #7C7C7C",
"M@	c #747474",
"N@	c #411D1F",
"O@	c #F2535B",
"P@	c #F8545D",
"Q@	c #502325",
"R@	c #2F2F2F",
"S@	c #652B2E",
"T@	c #FB545D",
"U@	c #803337",
"V@	c #575757",
"W@	c #C1C1C1",
"X@	c #5D5D5D",
"Y@	c #1B1B1B",
"Z@	c #D3D3D3",
"`@	c #E8E8E8",
" #	c #5F5F5F",
".#	c #F0F0F0",
"+#	c #F6F6F6",
"@#	c #4F4F4F",
"##	c #973B41",
"$#	c #BC474D",
"%#	c #181313",
"&#	c #959595",
"*#	c #B0B0B0",
"=#	c #040404",
"-#	c #B6B6B6",
";#	c #4B4B4B",
">#	c #030303",
",#	c #0F0F0F",
"'#	c #A1A1A1",
")#	c #251617",
"!#	c #D24C53",
"~#	c #F4555D",
"{#	c #552527",
"]#	c #393939",
"^#	c #323232",
"/#	c #B4B4B4",
"(#	c #373737",
"_#	c #A9A9A9",
":#	c #6E2C30",
"<#	c #FD555E",
"[#	c #AF4247",
"}#	c #8C8C8C",
"|#	c #9D9D9D",
"1#	c #2F1D1D",
"2#	c #C7484F",
"3#	c #7A3134",
"4#	c #9C9C9C",
"5#	c #7A7A7A",
"6#	c #8D373C",
"7#	c #E8555C",
"8#	c #552325",
"9#	c #662B2E",
"0#	c #F65860",
"a#	c #391B1D",
"b#	c #838383",
"c#	c #818181",
"d#	c #8B8B8B",
"e#	c #3A3A3A",
"f#	c #461E20",
"g#	c #D64F56",
"h#	c #A94146",
"i#	c #2B2424",
"j#	c #6F6F6F",
"k#	c #979797",
"l#	c #312324",
"m#	c #B44147",
"n#	c #FF535D",
"o#	c #813438",
"p#	c #565656",
"q#	c #B9B9B9",
"r#	c #8B3539",
"s#	c #E5555D",
"t#	c #0D0D0D",
"u#	c #502224",
"v#	c #EF565E",
"w#	c #9F3C42",
"x#	c #3D3A3A",
"y#	c #D6D6D6",
"z#	c #343031",
"A#	c #A83E44",
"B#	c #E9535A",
"C#	c #311617",
"D#	c #F4F4F4",
"E#	c #3B1B1D",
"F#	c #EF535C",
"G#	c #DD5058",
"H#	c #2A1516",
"I#	c #321719",
"J#	c #E45159",
"K#	c #B2434B",
"L#	c #040202",
"M#	c #EEEEEE",
"N#	c #101010",
"O#	c #0A0606",
"P#	c #BA454B",
"Q#	c #B0444A",
"R#	c #050303",
"S#	c #787878",
"T#	c #6E6E6E",
"U#	c #080404",
"V#	c #B84449",
"W#	c #C94950",
"X#	c #130A0A",
"Y#	c #190E0F",
"Z#	c #D44E54",
"`#	c #F3555D",
" $	c #4C2224",
".$	c #572427",
"+$	c #F7555E",
"@$	c #8C363A",
"#$	c #030202",
"$$	c #993B40",
"%$	c #0A0707",
"&$	c #0E0808",
"*$	c #C3474E",
"=$	c #BF474E",
"-$	c #0B0707",
";$	c #0F0808",
">$	c #C7474F",
",$	c #A84147",
"'$	c #EDEDED",
")$	c #D7D7D7",
"!$	c #080505",
"~$	c #B4454B",
"{$	c #87383C",
"]$	c #93393E",
"^$	c #FC545D",
"/$	c #662C2F",
"($	c #713033",
"_$	c #F3535C",
":$	c #4D2224",
"<$	c #E45059",
"[$	c #291516",
"}$	c #858585",
"|$	c #301719",
"1$	c #E9535B",
"2$	c #F55860",
"3$	c #8A3C41",
"4$	c #462426",
"5$	c #130B0B",
"6$	c #150E0E",
"7$	c #4A2527",
"8$	c #8F3C41",
"9$	c #F95961",
"0$	c #F2575F",
"a$	c #C74B51",
"b$	c #8C383D",
"c$	c #55292B",
"d$	c #251516",
"e$	c #0B0808",
"f$	c #757575",
"g$	c #0D0A0A",
"h$	c #271516",
"i$	c #592B2D",
"j$	c #903B3F",
"k$	c #CB4F55",
"l$	c #F45860",
"m$	c #F7555D",
"n$	c #DF5158",
"o$	c #BA494F",
"p$	c #8D3C41",
"q$	c #632E32",
"r$	c #3B1E1F",
"s$	c #211112",
"t$	c #10090A",
"u$	c #070404",
"v$	c #010101",
"w$	c #070505",
"x$	c #120B0B",
"y$	c #211313",
"z$	c #652E31",
"A$	c #BD4B51",
"B$	c #E3535A",
"C$	c #F8565F",
"D$	c #FA555D",
"E$	c #DF5259",
"F$	c #CA4E55",
"G$	c #B2484E",
"H$	c #984246",
"I$	c #7F393D",
"J$	c #6B3134",
"K$	c #5A292B",
"L$	c #4D2426",
"M$	c #431E20",
"N$	c #401A1C",
"O$	c #3D181B",
"P$	c #3D191B",
"Q$	c #3F1B1D",
"R$	c #441F21",
"S$	c #4E2426",
"T$	c #59282B",
"U$	c #6C3336",
"V$	c #813A3E",
"W$	c #994348",
"X$	c #B4494F",
"Y$	c #CB4E55",
"Z$	c #E0535A",
"`$	c #FC555E",
" %	c #FA545D",
".%	c #F8555D",
"+%	c #F5535C",
"@%	c #F4535B",
"#%	c #F2525A",
"$%	c #F9545D",
". + + + + + + + + + + + + + + + + + + + + + + + + + + + + + + + + + + + + + + + + + + + + + + + + + + + + + + + + + + + + + + + + + + + + + + ",
"+ . . . . . . . . . . . . . . . . . . . . . . . . . . . . . . . . . . . . . . . . . . . . . . . . . . . . . . . . . . . . . . . . . . . . . . ",
"+ . . . . . . . . . . . . . . . . . . . . . . . . . . . . . . . . . . . . . . . . . . . . . . . . . . . . . . . . . . . . . . . . . . . . . . ",
"+ . . . . . . . . . . . . . . . . . . . . . . . . . . . . . . . . . . . . . . . . . . . . . . . . . . . . . . . . . . . . . . . . . . . . . . ",
"+ . . . . . . . . . . . . . . . . . . . . . . . . . . . . . . . . . . . . . . . . . . . . . . . . . . . . . . . . . . . . . . . . . . . . . . ",
"+ . . . . . . . . . . . . . . . . . . . . . . . . . . . . . . . . . . . . . . . . . . . . . . . . . . . . . . . . . . . . . . . . . . . . . . ",
"+ . . . . . . . . . . . . . . . . . . . . . . . . . . . . . . @ # # $ % # % % % & . . . . . . . . . . . . . . . . . . . . . . . . . . . . . . ",
"+ . . . . . . . . . . . . . . . . . . . . . . . . . . . . . * = - ; > , ' ) ! - ~ { . . . . . . . . . . . . . . . . . . . . . . . . . . . . . ",
"+ . . . . . . . . . . . . . . . . . . . . . . . . . . . . ] ^ / ( _ : : : : < [ } | 1 . . . . . . . . . . . . . . . . . . . . . . . . . . . . ",
"+ . . . . . . . . . . . . . . . . . . . . . . . . . . . . 2 3 4 5 6 7 8 8 9 0 a b c d . . . . . . . . . . . . . . . . . . . . . . . . . . . . ",
"+ . . . . . . . . . . . . . . . . . . . . . . . . . . . . 2 3 e f g h i j k l m n c o . . . . . . . . . . . . . . . . . . . . . . . . . . . . ",
"+ . . . . . . . . . . . . . . . . . . . . . . . . . . . . 2 p e 8 q r s t u v 8 n w x . . . . . . . . . . . . . . . . . . . . . . . . . . . . ",
"+ . . . . . . . . . . . . . . . . . . . . . . . . . . . . y z e 8 A B C C D E 8 n F x . . . . . . . . . . . . . . . . . . . . . . . . . . . . ",
"+ . . . . . . . . . . . . . . . . . . . . . . . . . . . . G z e H b ( I J / K L n M x . . . . . . . . . . . . . . . . . . . . . . . . . . . . ",
"+ . . . . . . . . . . . . . . . . . . . . . . . . . . . . y N O P Q j 8 8 R S T U V x . . . . . . . . . . . . . . . . . . . . . . . . . . . . ",
"+ . . . . . . . . . . . . . . . . . . . . . . . . . . . . W X Y Z `  . . . ...+.@.#.o . . . . . . . . . . . . . . . . . . . . . . . . . . . . ",
"+ . . . . . . . . . . . . . . . . . . . . . . . . . . . . W $.5 %.&.&.&.&.&.&.*.=.-.d . . . . . . . . . . . . . . . . . . . . . . . . . . . . ",
"+ . . . . . . . . . . . . . . . . . . . . . . . . . . . . W ;.>.,.,.,.'.L ,.,.,.).!.o . . . . . . . . . . . . . . . . . . . . . . . . . . . . ",
"+ . . . . . . . . . . . . . . . . . . . . . . . . . . . . W ;.e 8  .~.6 {.].^.8  ./.x . . . . . . . . . . . . . . . . . . . . . . . . . . . . ",
"+ . . . . . . . . . . . . . . . . . . . . . . . . . . . . W ;.e (._.b :.: < h <.[./.x . . . . . . . . . . . . . . . . . . . . . . . . . . . . ",
"+ . . . . . . . . . . . . . . }.|.1.2.3.4.5.6.7.8.. . . . W 9.0.5 <.a.8 8 b.R %.P c.x . . . d.e.f.g.h.i.3.j.k.l.m.+ . . . . . . . . . . . . . ",
"+ . . . . . . . . . . . . n.o.p.q.[ =.k %.S r.s.t.u.v.w.. W $.C x.8 8 8 8 8 y.z.C A.x . @ B.C.D.E.F.S %.k G.H.I.J.K.L.. . . . . . . . . . . . ",
"+ . . . . . . . . . . M.N.O.P.r Q.^.'.'.R.S.e T.U.V.W.X.Y.Z.$./ 9 8 8 8 8 8 8 `. +A..+++@+#+$+%+&+*+=+R.'.'.*+-+;+>+,+'++ . . . . . . . . . . ",
"+ . . . . . . . . . )+!+~+6 ).{+]+^+b 0./+(+_+:+<+[+j }+|+1+2+3+q 8 8 8 8 8 8 4+/ 5+6+7+8+9+[+0+].T P /+a+B -+b+{+c+d+e+f+. . . . . . . . . . ",
"+ . . . . . . . . . g+C D h+7 i++.Y g j+k+l+m+n+o+V.J [+<.g C p+q+8 8 8 8 8 8 r+C C P s+*+U t+o+u+l l+k+T v+w+w+x+y+z+4 p+A+. . . . . . . . . ",
"+ . . . . . . . . B+C+D+b.E+F+u+I H G+a.H+I+J+K+e L+M+&.N+O+(+C /+P+8 8 8 8 [.$+C ;+Q+R+n+S+T+]+U+V+I+H+a.{+W+X+Y+Q Z+K+4 `+ @. . . . . . . . ",
"+ . . . . . . . .@+@{.@@R @.u #@8 8 8 8 8 8 8 8 8 8 $@T+%.6 %.(+*.d+&+%@R.j v+Y+&@Q d+Q : K+8 8 8 8 8 8 8 8 8 8 *@< =@Z+z+(+-@;@. . . . . . . ",
"+ . . . . . . . >@,@'@7 %.)@!@8 8 8 8 8 8 8 8 8 8 8 8 8 ~@S+=.*+]+J {@]@]@]@O W+^@/@a+4+8 8 8 8 8 8 8 8 8 8 8 8 8 L b t+*@T.(@_@. . . . . . . ",
"+ . . . . . . :@<@[@}@|@M+=+8 8 8 8 8 8 8 8 8 8 8 8 8 8 8 m S+< h+8 1@L+2@m 8 v {.0.q 8 8 8 8 8 8 8 8 8 8 8 8 8 8 8 #@u+D+3@M+4@M.. . . . . . ",
"+ . . . . . . 5@6@].R.=.: 8 8 8 8 8 8 8 8 8 8 8 8 8 8 8 8 8 7@S 8@&+=.9@=.0@i ..Q a@8 8 8 8 8 8 8 8 8 8 8 8 8 8 8 8 8 O Y+A %+b@c@. . . . . . ",
"+ . . . . . . d@e@T.4+=@W+8 8 8 8 8 8 8 8 8 8 8 8 8 8 8 8 8 8 T+f@g@h@H [+g =@i@N+8 8 8 8 8 8 8 8 8 8 8 8 8 8 8 8 8 8 q /@e (.j@k@. . . . . . ",
"+ . . . . . . l@m@`.0+0@n@8 8 8 8 8 8 8 H+o@I+8 8 8 8 8 8 8 8 p@d+C X+8 8 q@C r@G+8 8 8 8 8 8 8 8 s@o@y.8 8 8 8 8 8 8 t@G.1@c+u@v@. . . . . . ",
"+ . . . . . . w@x@c+7@5 y@8 8 8 8 8 8 8 N+p+x.z@8 8 8 8 8 8 8 8 Z+A@I 8 8 U } B@8 8 8 8 8 8 8 8 C@D@ +E@8 8 8 8 8 8 8 =+F@G@E@H@I@. . . . . . ",
"+ . . . . . . J@K@R+ ./@]+8 8 8 8 8 8 t@&.} C L@8 8 8 8 8 8 8 8 U+/+k+H+b.T m+{+8 8 8 8 8 8 8 H+M@C / M+n@8 8 8 8 8 8 7 /@P+J N@O@. . . . . . ",
"+ . . . . . . P@Q@D@R.=.E+8 8 8 8 8 8 T+} ` ]@P.&+8 8 a.J+I+8 8 8 L+R@C@y@0@-+8 8 8 a.J+a.8 8 E+A@l+` A@q+8 8 8 8 8 8 R+%.L _+S@T@. . . . . . ",
"+ . . . . . . . U@&.n@r V@J+8 8 8 8 {+(+}+z@W@=@(+q ^+X@;+|@T.3@8 ]+Y@c+E@=@Z@8 `@<.D@;+ #-+[./+0@*@.#P }++#8 8 8 8 z@@#l+'.Q ##. . . . . . . ",
"+ . . . . . . . $#%#`.&#H.*#E v y+W+q o+^+8 H+4 C G.t (+{.Q =#;+o@G+0.;+h@{.E -#;#>#R@;+a+,#G.C D y.8 X+=@*@P+e t@J+i ,#j '#)#!#. . . . . . . ",
"+ . . . . . . . ~#{#l+R.v+]#r@g@s s Q } ~@8 8 E+>#^#<+E b.=+R@i@M+o@~.C C O /#t+i@(#L a.+#9+*.A@c+8 8 _#i@t+t +./@r@_.(+'.r :#<#. . . . . . . ",
"+ . . . . . . . . [#7+&+E+A@F@-+7@}#_.} ~@8 8 -#H.|#8 8 8 s+*.%+Y+{.&#A@} R d+]#M@5 ).8 8 8 &#H.7 8 8 '@=#]#-+7@}#/@>+&+E+1#2#. . . . . . . . ",
"+ . . . . . . . . M.3#g W+_ F+P+8 8 m v+q+8 8 7@(+}@8 8 Q+/+O 8 4#/ _ w+=@|@3+B@8 5#d+z+8 8 K+g m 8 8 2@0.q 8 8 q G.%+*@_.6#. . . . . . . . . ",
"+ . . . . . . . . . 7#8#i+[+m+x+J+8 8 i z.a.8 s+D+y.8 z@4 *.%@8 G+0 ( H.[ s l E 8 H =@..I+8 H+x+*#8 J+k+<+8 8 {+X@r@[+< 9#0#. . . . . . . . . ",
"+ . . . . . . . . . . 2#a#b#/#g@c#8 8 E x.^.8 O d#8 E ].C (+V+8 a.;+8+a@9 {.T I+8 s@e#C :+H+8 ` :.8 7 5#b.8 8 ` F+G@5#f#g#. . . . . . . . . . ",
"+ . . . . . . . . . . . h#i#>.X+>#c#E 8 <.j#U+r@D@7@k+C C k b+a.1@0@k#8 8 }#Y+G@a.7 G.C C z.^@ # #A D@_#8 s@:+C }#B@l#m#. . . . . . . . . . . ",
"+ . . . . . . . . . . . n#o#6 W+&@C k+[.T.P.(#p+C P.C C C C ^#}+*.C p#4+q#@#C k }+t+C C C C P.C f@(#H.).o@b C l P+0.r#. . . . . . . . . . . . ",
"+ . . . . . . . . . . . . s#f#^+E@=#C @.Y@C C C C C C C C C >#>+t#t @.%.*.@.t t#} >#C C C C C C C C C Z s C } &+b#u#v#. . . . . . . . . . . . ",
"+ . . . . . . . . . . . . . w#x#&+9@C C C C C =#[ %.a+ #L@&#'@a@y+#@S.y#y#S.#@y+1@B@q+5#X@&@0@H.>#C C C C C Y+c+z#A#. . . . . . . . . . . . . ",
"+ . . . . . . . . . . . . . B#C#Y C C C ( 0.x.9+[+!@D#I+8 8 8 8 8 8 8 8 8 8 8 8 8 8 8 8 I+s@A *@T.8@0 +.C C C Y@E#F#. . . . . . . . . . . . . ",
"+ . . . . . . . . . . . . . G#H#C >#a+^+W+G+8 8 8 8 8 H+z@3@n@y#]+ .7 a@a@7  .*@y#@@3@+#H+8 8 8 8 8 {+[+r+S+C C I#J#. . . . . . . . . . . . . ",
"+ . . . . . . . . . . . . . K#L#/@N+3@8 8 8 H+M#Q+<+2@4 [@u+G.( ,#/ 3+( ( t#/ N#( G.V.d+x+d#n S.}@y.8 8 8 K+^+o+O#P#. . . . . . . . . . . . . ",
"+ . . . . . . . . . . . . . Q#R#S#8 8 b.z+T.z.]#( i@C C C C C C /@B |#e y+R X@Y@C C C C C C i@o+v+j#c+%@a.8 8 T#U#V#. . . . . . . . . . . . . ",
"+ . . . . . . . . . . . . . W#X#i+q s+u *./@*.5 Y H.=#C C C A@%+[+a.8 8 8 8 b.*+..C C C C A@[ Y@9@*./@k k+c+W@T Y#Z#. . . . . . . . . . . . . ",
"+ . . . . . . . . . . . . . `# $C N#k K i y#,.!@t@[+Z+$+C C u y.8 8 8 8 8 8 8 8 H+p#C C g &+P+z+!@,.S.&+4 *.N#C .$+$. . . . . . . . . . . . . ",
"+ . . . . . . . . . . . . . . @$C r@Z@H+8 8 8 8 8 8 '.P C C v+^@a.8 8 8 8 8 8 V+*#_.C C ;#h+8 8 8 8 8 8 I+W+l #$$$. . . . . . . . . . . . . . ",
"+ . . . . . . . . . . . . . . |.%$].8 8 8 8 8 8 y.9 r@C C C C ( i+i %@G+{+R.&+X@[ C C C C V@G@y.8 8 8 8 8 8 %+&$*$. . . . . . . . . . . . . . ",
"+ . . . . . . . . . . . . . . =$-$r+8 8 8 8 V+q %+Y C C C ># +/ N#Y@h @#;+_.Y N#/  +>#C C C /@q@]+b.8 8 8 8 L@;$>$. . . . . . . . . . . . . . ",
"+ . . . . . . . . . . . . . . ,$~+X+p@'$)$Z+l+o+,#F+l U.2@T.-#[.*@H S.=+=+S.H *@[.^@'#I _ h@*.3+Y@u T.t@'$p@x.!$~$. . . . . . . . . . . . . . ",
"+ . . . . . . . . . . . . . . {$C @.n+u+=@*._+-+q $@E y.8 8 8 y.I+b.b.b.b.b.b.I+y.8 8 8 y.+#A [.^+8+9@S V.t+[ C ]$. . . . . . . . . . . . . . ",
"+ . . . . . . . . . . . . . ^$/$C C +.p#E@z+V+8 8 a.p@H /#k#` z.l+{@r }+}+r {@l+U.:+R ^@Q+U+a.8 8 V+)$(.r@t C C ($M.. . . . . . . . . . . . . ",
"+ . . . . . . . . . . . . . _$b@H.%+q J+8 8 G+]+Q.b (#t+_.d+X@D c#^+: : : : ^+J j#l+[@$+Q a B k#P+D#8 8 +#m U.t#:$+$. . . . . . . . . . . . . ",
"+ . . . . . . . . . . . . . <$[$/ V@:.*@*+}$m+^#6 ` 0+Q+p@+#I+8 8 8 8 8 8 8 8 8 8 a.z@K+O+).U m+&.6 r+[+e R+{@ +|$1$. . . . . . . . . . . . . ",
"+ . . . . . . . . . . . . . 2$3$4$5$C t +.i@]#Q.Q+}@b.8 8 8 8 8 8 8 8 8 8 8 8 8 8 8 8 8 8 b.M##@: h A@@.[ C 6$7$8$9$. . . . . . . . . . . . . ",
"+ . . . . . . . . . . . . . . . 0$a$b$c$d$e$C >+g@h ]@f$Q.>.W@H z+!@,.,.,.,.!@z+O+W@`.:.8@r@$+Z } C g$h$i$j$k$l$. . . . . . . . . . . . . . . ",
"+ . . . . . . . . . . . . . . . . . . m$n$o$p$q$r$s$t$u$C =#P.s Y@9@%.%.%.%.9@Y@s / =#v$w$x$y$A.z$8$A$B$C$. . . . . . . . . . . . . . . . . . ",
"+ . . . . . . . . . . . . . . . . . . . . . . D$W E$F$G$H$I$J$K$L$M$N$O$P$Q$R$S$T$U$V$W$X$Y$Z$] :@. . . . . . . . . . . . . . . . . . . . . . ",
"+ . . . . . . . . . . . . . . . . . . . . . . . . . . . . . `$ %.%+%@%#%#%@%+%.%$%`$. . . . . . . . . . . . . . . . . . . . . . . . . . . . . ",
"+ . . . . . . . . . . . . . . . . . . . . . . . . . . . . . . . . . . . . . . . . . . . . . . . . . . . . . . . . . . . . . . . . . . . . . . ",
"+ . . . . . . . . . . . . . . . . . . . . . . . . . . . . . . . . . . . . . . . . . . . . . . . . . . . . . . . . . . . . . . . . . . . . . . ",
"+ . . . . . . . . . . . . . . . . . . . . . . . . . . . . . . . . . . . . . . . . . . . . . . . . . . . . . . . . . . . . . . . . . . . . . . ",
"+ . . . . . . . . . . . . . . . . . . . . . . . . . . . . . . . . . . . . . . . . . . . . . . . . . . . . . . . . . . . . . . . . . . . . . . ",
"+ . . . . . . . . . . . . . . . . . . . . . . . . . . . . . . . . . . . . . . . . . . . . . . . . . . . . . . . . . . . . . . . . . . . . . . ",
"+ . . . . . . . . . . . . . . . . . . . . . . . . . . . . . . . . . . . . . . . . . . . . . . . . . . . . . . . . . . . . . . . . . . . . . . "};
