/* XPM */
static char * hwp_xpm[] = {
"71 71 359 2",
"  	c None",
". 	c #FF545D",
"+ 	c #FF535C",
"@ 	c #E65059",
"# 	c #B6454B",
"$ 	c #9A3C41",
"% 	c #993C42",
"& 	c #BA464B",
"* 	c #E85159",
"= 	c #A54045",
"- 	c #3D1B1D",
"; 	c #0D0A0A",
"> 	c #1B1B1B",
", 	c #1A1A1A",
"' 	c #0D090A",
") 	c #441E20",
"! 	c #A93E44",
"~ 	c #A73F44",
"{ 	c #1F1515",
"] 	c #393939",
"^ 	c #9C9C9C",
"/ 	c #D7D7D7",
"( 	c #D6D6D6",
"_ 	c #969696",
": 	c #353535",
"< 	c #200D0F",
"[ 	c #AE3F45",
"} 	c #E9525A",
"| 	c #451E20",
"1 	c #232323",
"2 	c #BABABA",
"3 	c #FFFFFF",
"4 	c #B5B5B5",
"5 	c #512427",
"6 	c #F2545D",
"7 	c #BF484E",
"8 	c #0C0809",
"9 	c #6A6A6A",
"0 	c #FEFEFE",
"a 	c #FCFCFC",
"b 	c #5F5F5F",
"c 	c #130A0B",
"d 	c #CE4B52",
"e 	c #B2444A",
"f 	c #050404",
"g 	c #878787",
"h 	c #797979",
"i 	c #0A0707",
"j 	c #C34A51",
"k 	c #6E6E6E",
"l 	c #FDFDFD",
"m 	c #636363",
"n 	c #110A0A",
"o 	c #CA4950",
"p 	c #E8555D",
"q 	c #3B1B1C",
"r 	c #2A2A2A",
"s 	c #C3C3C3",
"t 	c #BBBBBB",
"u 	c #222222",
"v 	c #472022",
"w 	c #ED535B",
"x 	c #A13D42",
"y 	c #140D0D",
"z 	c #434343",
"A 	c #ABABAB",
"B 	c #E5E5E5",
"C 	c #E4E4E4",
"D 	c #A6A6A6",
"E 	c #3D3D3D",
"F 	c #1F0D0E",
"G 	c #A83C41",
"H 	c #662C2F",
"I 	c #000000",
"J 	c #0B0B0B",
"K 	c #272727",
"L 	c #262626",
"M 	c #090909",
"N 	c #712C2F",
"O 	c #DE575F",
"P 	c #4C282A",
"Q 	c #626262",
"R 	c #7F7F7F",
"S 	c #616161",
"T 	c #4D1F21",
"U 	c #DB4850",
"V 	c #E14F55",
"W 	c #5F282B",
"X 	c #7A7A7A",
"Y 	c #632326",
"Z 	c #E8535B",
"` 	c #E9545C",
" .	c #642528",
"..	c #747474",
"+.	c #F0F0F0",
"@.	c #666666",
"#.	c #713134",
"$.	c #F66068",
"%.	c #F8646C",
"&.	c #733236",
"*.	c #E9E9E9",
"=.	c #E0E0E0",
"-.	c #7C3B3F",
";.	c #F85E67",
">.	c #FD646D",
",.	c #7C3C3F",
"'.	c #5A5A5A",
").	c #DFDFDF",
"!.	c #DDDDDD",
"~.	c #515151",
"{.	c #7E353A",
"].	c #FC575F",
"^.	c #FF5A62",
"/.	c #7E373B",
"(.	c #151515",
"_.	c #BFBFBF",
":.	c #B3B3B3",
"<.	c #101010",
"[.	c #822E32",
"}.	c #832F34",
"|.	c #040404",
"1.	c #777777",
"2.	c #B9B9B9",
"3.	c #B2B2B2",
"4.	c #717171",
"5.	c #080808",
"6.	c #8F3B3F",
"7.	c #D04C53",
"8.	c #1E1516",
"9.	c #060404",
"0.	c #2B1E1F",
"a.	c #D85057",
"b.	c #F6565E",
"c.	c #B84349",
"d.	c #B34147",
"e.	c #9D3D42",
"f.	c #2A1718",
"g.	c #6C6C6C",
"h.	c #888888",
"i.	c #686868",
"j.	c #060606",
"k.	c #2F1819",
"l.	c #A03D42",
"m.	c #BB464D",
"n.	c #FD5962",
"o.	c #F7555E",
"p.	c #442223",
"q.	c #2B2B2B",
"r.	c #DCDCDC",
"s.	c #4C2426",
"t.	c #FA5760",
"u.	c #C84C53",
"v.	c #1D1011",
"w.	c #6D6D6D",
"x.	c #FAFAFA",
"y.	c #241314",
"z.	c #D25057",
"A.	c #FC5B64",
"B.	c #6C3235",
"C.	c #131313",
"D.	c #AFAFAF",
"E.	c #0C0C0C",
"F.	c #732F33",
"G.	c #FF5861",
"H.	c #8F3A3F",
"I.	c #727272",
"J.	c #6B6B6B",
"K.	c #0A0A0A",
"L.	c #994346",
"M.	c #9C464B",
"N.	c #5E5E5E",
"O.	c #E1E1E1",
"P.	c #DBDBDB",
"Q.	c #555555",
"R.	c #201C1C",
"S.	c #9E454A",
"T.	c #AF4449",
"U.	c #1F1818",
"V.	c #535353",
"W.	c #D0D0D0",
"X.	c #484848",
"Y.	c #251718",
"Z.	c #ED555D",
"`.	c #4D2527",
" +	c #B8B8B8",
".+	c #202020",
"++	c #57282A",
"@+	c #F35860",
"#+	c #B2474D",
"$+	c #080707",
"%+	c #7E7E7E",
"&+	c #757575",
"*+	c #0E0A0A",
"=+	c #BB4A50",
"-+	c #FF5760",
";+	c #7E383C",
">+	c #0E0E0E",
",+	c #C0C0C0",
"'+	c #B4B4B4",
")+	c #89393D",
"!+	c #5C2A2D",
"~+	c #D8D8D8",
"{+	c #D1D1D1",
"]+	c #6D3134",
"^+	c #FF565F",
"/+	c #FA565F",
"(+	c #5F2F31",
"_+	c #181818",
":+	c #D5D5D5",
"<+	c #CDCDCD",
"[+	c #6E3336",
"}+	c #FF575F",
"|+	c #84383B",
"1+	c #070707",
"2+	c #A9A9A9",
"3+	c #9D9D9D",
"4+	c #913E42",
"5+	c #C0494F",
"6+	c #181010",
"7+	c #5C5C5C",
"8+	c #F7F7F7",
"9+	c #F1F1F1",
"0+	c #505050",
"a+	c #211515",
"b+	c #CE4C53",
"c+	c #FD565F",
"d+	c #773034",
"e+	c #828282",
"f+	c #853B3F",
"g+	c #E45058",
"h+	c #5F2124",
"i+	c #020202",
"j+	c #CBCBCB",
"k+	c #6E2D31",
"l+	c #F25D65",
"m+	c #EC555D",
"n+	c #7C3235",
"o+	c #030202",
"p+	c #585858",
"q+	c #7B7B7B",
"r+	c #565656",
"s+	c #1F1F1F",
"t+	c #0F0F0F",
"u+	c #83383C",
"v+	c #F45E66",
"w+	c #FF555E",
"x+	c #782E32",
"y+	c #050505",
"z+	c #853A3E",
"A+	c #BA4A4F",
"B+	c #0C0909",
"C+	c #0D0808",
"D+	c #C24E54",
"E+	c #973B41",
"F+	c #121111",
"G+	c #B6B6B6",
"H+	c #0F0E0E",
"I+	c #A54449",
"J+	c #562428",
"K+	c #474747",
"L+	c #EFEFEF",
"M+	c #3C3C3C",
"N+	c #612B2E",
"O+	c #FA5861",
"P+	c #A03C41",
"Q+	c #0E0C0C",
"R+	c #999999",
"S+	c #909090",
"T+	c #100C0C",
"U+	c #AC474C",
"V+	c #BF454C",
"W+	c #341A1B",
"X+	c #F2F2F2",
"Y+	c #EDEDED",
"Z+	c #3C1E20",
"`+	c #C1444A",
" @	c #BC494F",
".@	c #3D1A1D",
"+@	c #414141",
"@@	c #C4C4C4",
"#@	c #3F3F3F",
"$@	c #411B1D",
"%@	c #BE4B50",
"&@	c #9F3A3F",
"*@	c #2C1718",
"=@	c #BEBEBE",
"-@	c #341D1E",
";@	c #A53E44",
">@	c #9F4347",
",@	c #1E1617",
"'@	c #595959",
")@	c #CACACA",
"!@	c #C2C2C2",
"~@	c #1F1314",
"{@	c #A43B41",
"]@	c #1E1313",
"^@	c #221112",
"/@	c #AF4248",
"(@	c #CB4950",
"_@	c #341819",
":@	c #606060",
"<@	c #E3E3E3",
"[@	c #402223",
"}@	c #D55056",
"|@	c #FB565F",
"1@	c #6A2B2E",
"2@	c #333333",
"3@	c #C7C7C7",
"4@	c #292929",
"5@	c #723033",
"6@	c #B5454A",
"7@	c #100A0B",
"8@	c #8A8A8A",
"9@	c #181011",
"0@	c #BF4A51",
"a@	c #FB555D",
"b@	c #672B2E",
"c@	c #C5C5C5",
"d@	c #121212",
"e@	c #702F32",
"f@	c #DB4E55",
"g@	c #231313",
"h@	c #343434",
"i@	c #E8E8E8",
"j@	c #2C2C2C",
"k@	c #2B191A",
"l@	c #E3555D",
"m@	c #A94146",
"n@	c #F5F5F5",
"o@	c #3A3A3A",
"p@	c #B44950",
"q@	c #7B3236",
"r@	c #373737",
"s@	c #EBEBEB",
"t@	c #303030",
"u@	c #893C40",
"v@	c #FA555D",
"w@	c #58272A",
"x@	c #B1B1B1",
"y@	c #AAAAAA",
"z@	c #642E31",
"A@	c #FC555E",
"B@	c #F4525C",
"C@	c #2D2D2D",
"D@	c #676767",
"E@	c #512729",
"F@	c #F9565F",
"G@	c #F3535B",
"H@	c #3E1C1E",
"I@	c #4A2224",
"J@	c #F6545D",
"K@	c #F8555E",
"L@	c #662E31",
"M@	c #221213",
"N@	c #6D3033",
"O@	c #F8545D",
"P@	c #E9535B",
"Q@	c #E5525A",
"R@	c #EB535C",
". + + + + + + + + + + + + + + + + + + + + + + + + + + + + + + + + + + + + + + + + + + + + + + + + + + + + + + + + + + + + + + + + + + + + + + ",
"+ . . . . . . . . . . . . . . . . . . . . . . . . . . . . . . . . . . . . . . . . . . . . . . . . . . . . . . . . . . . . . . . . . . . . . . ",
"+ . . . . . . . . . . . . . . . . . . . . . . . . . . . . . . . . . . . . . . . . . . . . . . . . . . . . . . . . . . . . . . . . . . . . . . ",
"+ . . . . . . . . . . . . . . . . . . . . . . . . . . . . . . . . . . . . . . . . . . . . . . . . . . . . . . . . . . . . . . . . . . . . . . ",
"+ . . . . . . . . . . . . . . . . . . . . . . . . . . . . . . . . . . . . . . . . . . . . . . . . . . . . . . . . . . . . . . . . . . . . . . ",
"+ . . . . . . . . . . . . . . . . . . . . . . . . . . . . . . . . . . . . . . . . . . . . . . . . . . . . . . . . . . . . . . . . . . . . . . ",
"+ . . . . . . . . . . . . . . . . . . . . . . . . . . . . . . . . @ # $ % & * . . . . . . . . . . . . . . . . . . . . . . . . . . . . . . . . ",
"+ . . . . . . . . . . . . . . . . . . . . . . . . . . . . . . . = - ; > , ' ) ! . . . . . . . . . . . . . . . . . . . . . . . . . . . . . . . ",
"+ . . . . . . . . . . . . . . . . . . . . . . . . . . . . . . ~ { ] ^ / ( _ : < [ . . . . . . . . . . . . . . . . . . . . . . . . . . . . . . ",
"+ . . . . . . . . . . . . . . . . . . . . . . . . . . . . . } | 1 2 3 3 3 3 4 > 5 6 . . . . . . . . . . . . . . . . . . . . . . . . . . . . . ",
"+ . . . . . . . . . . . . . . . . . . . . . . . . . . . . . 7 8 9 0 3 3 3 3 a b c d . . . . . . . . . . . . . . . . . . . . . . . . . . . . . ",
"+ . . . . . . . . . . . . . . . . . . . . . . . . . . . . . e f g 3 3 3 3 3 3 h i 7 . . . . . . . . . . . . . . . . . . . . . . . . . . . . . ",
"+ . . . . . . . . . . . . . . . . . . . . . . . . . . . . . j i k 0 3 3 3 3 l m n o . . . . . . . . . . . . . . . . . . . . . . . . . . . . . ",
"+ . . . . . . . . . . . . . . . . . . . . . . . . . . . . . p q r s 3 3 3 3 t u v w . . . . . . . . . . . . . . . . . . . . . . . . . . . . . ",
"+ . . . . . . . . . . . . . . . . . . . . . . . . . . . . . . x y z A B C D E F G . . . . . . . . . . . . . . . . . . . . . . . . . . . . . . ",
"+ . . . . . . . . . . . . . . . . . . . . . . . . . . . . . . . H I J K L M I N . . . . . . . . . . . . . . . . . . . . . . . . . . . . . . . ",
"+ . . . . . . . . . . . . . . . . . . . . . . . . . . . . . . O P I Q R R S I T U . . . . . . . . . . . . . . . . . . . . . . . . . . . . . . ",
"+ . . . . . . . . . . . . . . . . . . . . . . . . . . . . . V W I R 3 3 3 0 X I Y Z . . . . . . . . . . . . . . . . . . . . . . . . . . . . . ",
"+ . . . . . . . . . . . . . . . . . . . . . . . . . . . . `  .I ..a 3 3 3 3 +.@.I #.$.. . . . . . . . . . . . . . . . . . . . . . . . . . . . ",
"+ . . . . . . . . . . . . . . . . . . . . . . . . . . . %.&.I Q *.3 3 3 3 3 3 =.b I -.;.. . . . . . . . . . . . . . . . . . . . . . . . . . . ",
"+ . . . . . . . . . . . . . . . . . . . . . . . . . . >.,.I '.).3 3 3 3 3 3 3 3 !.~.I {.].. . . . . . . . . . . . . . . . . . . . . . . . . . ",
"+ . . . . . . . . . . . . . . . . . . . . . . . . . ^./.I (._.3 3 3 3 3 3 3 3 3 3 :.<.I [.+ . . . . . . . . . . . . . . . . . . . . . . . . . ",
"+ . . . . . . . . . . . . . . . . . . . . . . . . . }.I I |.1.:.2.2.2.2.2.2.2.2.3.4.I I 5.6.. . . . . . . . . . . . . . . . . . . . . . . . . ",
"+ . . . . . . . . . . . . . . . . . . . . . . . . 7.8.9.9.f I 5.5.5.5.5.5.5.5.5.5.I 9.9.9.0.a.. . . . . . . . . . . . . . . . . . . . . . . . ",
"+ . . . . . . . . . . . . . . . . . . . . . . . . b.c.d.d.e.f.5.g.h.h.h.h.h.h.i.j.k.l.d.d.m.n.. . . . . . . . . . . . . . . . . . . . . . . . ",
"+ . . . . . . . . . . . . . . . . . . . . . . . . . . . . o.p.q.C 3 3 3 3 3 3 r.1 s.t.. . . . . . . . . . . . . . . . . . . . . . . . . . . . ",
"+ . . . . . . . . . . . . . . . . . . . . . . . . . . . . u.v.w.0 3 3 3 3 3 3 x.m y.z.. . . . . . . . . . . . . . . . . . . . . . . . . . . . ",
"+ . . . . . . . . . . . . . . . . . . . . . . . . . . . A.B.C.2 3 3 3 3 3 3 3 3 D.E.F.G.. . . . . . . . . . . . . . . . . . . . . . . . . . . ",
"+ . . . . . . . . . . . . . . . . . . . . . . . . . . . H.|.I.0 3 3 3 3 3 3 3 3 x.J.K.L.. . . . . . . . . . . . . . . . . . . . . . . . . . . ",
"+ . . . . . . . . . . . . . . . . . . . . . . . . . . M., N.O.3 3 3 3 3 3 3 3 3 3 P.Q.R.S.. . . . . . . . . . . . . . . . . . . . . . . . . . ",
"+ . . . . . . . . . . . . . . . . . . . . . . . . . T.U.V.r.3 3 3 3 3 3 3 3 3 3 3 3 W.X.Y.# . . . . . . . . . . . . . . . . . . . . . . . . . ",
"+ . . . . . . . . . . . . . . . . . . . . . . . . Z.`.r s 3 3 3 3 3 3 3 3 3 3 3 3 3 3  +.+++@+. . . . . . . . . . . . . . . . . . . . . . . . ",
"+ . . . . . . . . . . . . . . . . . . . . . . . . #+$+%+3 3 3 3 3 3 3 3 3 3 3 3 3 3 3 3 &+*+=+. . . . . . . . . . . . . . . . . . . . . . . . ",
"+ . . . . . . . . . . . . . . . . . . . . . . . -+;+>+,+3 3 3 3 3 3 3 3 3 3 3 3 3 3 3 3 '+M )+. . . . . . . . . . . . . . . . . . . . . . . . ",
"+ . . . . . . . . . . . . . . . . . . . . . . . t.!+, ~+3 3 3 3 3 3 3 3 3 3 3 3 3 3 3 3 {+(.]+^+. . . . . . . . . . . . . . . . . . . . . . . ",
"+ . . . . . . . . . . . . . . . . . . . . . . . /+(+_+:+3 3 3 3 3 3 3 3 3 3 3 3 3 3 3 3 <+C.[+}+. . . . . . . . . . . . . . . . . . . . . . . ",
"+ . . . . . . . . . . . . . . . . . . . . . . . . |+1+2+3 3 3 3 3 3 3 3 3 3 3 3 3 3 3 3 3+|.4+. . . . . . . . . . . . . . . . . . . . . . . . ",
"+ . . . . . . . . . . . . . . . . . . . . . . . . 5+6+7+8+3 3 3 3 3 3 3 3 3 3 3 3 3 3 9+0+a+b+. . . . . . . . . . . . . . . . . . . . . . . . ",
"+ . . . . . . . . . . . . . . . . . . . . . . . . c+d+I e+0 3 3 3 3 3 3 3 3 3 3 3 3 l R I f+. . . . . . . . . . . . . . . . . . . . . . . . . ",
"+ . . . . . . . . . . . . . . . . . . . . . . . . . g+h+i+I.W.x.3 3 3 3 3 3 3 3 x.j+k I k+l+. . . . . . . . . . . . . . . . . . . . . . . . . ",
"+ . . . . . . . . . . . . . . . . . . . . . . . . . . m+n+o+1 p+q+g h.h.h.h.g h r+s+t+u+v+. . . . . . . . . . . . . . . . . . . . . . . . . . ",
"+ . . . . . . . . . . . . . . . . . . . . . . . . . . . w+x+I 1+J J J J J J J J y+I z+. . . . . . . . . . . . . . . . . . . . . . . . . . . . ",
"+ . . . . . . . . . . . . . . . . . . . . . . . . . . . . A+B+&+s s s s s s s s k C+D+. . . . . . . . . . . . . . . . . . . . . . . . . . . . ",
"+ . . . . . . . . . . . . . . . . . . . . . . . . . . . . E+F+,+3 3 3 3 3 3 3 3 G+H+I+. . . . . . . . . . . . . . . . . . . . . . . . . . . . ",
"+ . . . . . . . . . . . . . . . . . . . . . . . . . . . o.J+K+L+3 3 3 3 3 3 3 3 *.M+N+O+. . . . . . . . . . . . . . . . . . . . . . . . . . . ",
"+ . . . . . . . . . . . . . . . . . . . . . . . . . . . P+Q+R+3 3 3 3 3 3 3 3 3 3 S+T+U+. . . . . . . . . . . . . . . . . . . . . . . . . . . ",
"+ . . . . . . . . . . . . . . . . . . . . . . . . . . V+W+N.X+3 3 3 3 3 3 3 3 3 3 Y+Q.Z+`+. . . . . . . . . . . . . . . . . . . . . . . . . . ",
"+ . . . . . . . . . . . . . . . . . . . . . . . . .  @.@+@j+3 3 3 3 3 3 3 3 3 3 3 3 @@#@$@%@. . . . . . . . . . . . . . . . . . . . . . . . . ",
"+ . . . . . . . . . . . . . . . . . . . . . . . . &@*@+@_.3 3 3 3 3 3 3 3 3 3 3 3 3 3 =@#@-@;@. . . . . . . . . . . . . . . . . . . . . . . . ",
"+ . . . . . . . . . . . . . . . . . . . . . . . >@,@'@)@3 3 3 3 3 3 3 3 3 3 3 3 3 3 3 3 !@0+~@l.. . . . . . . . . . . . . . . . . . . . . . . ",
"+ . . . . . . . . . . . . . . . . . . . . . . {@]@m ).3 3 3 3 3 3 3 3 3 3 3 3 3 3 3 3 3 3 r.b ^@/@. . . . . . . . . . . . . . . . . . . . . . ",
"+ . . . . . . . . . . . . . . . . . . . . . (@_@:@<@3 3 3 3 3 3 3 3 3 3 3 3 3 3 3 3 3 3 3 3 ).'.[@}@. . . . . . . . . . . . . . . . . . . . . ",
"+ . . . . . . . . . . . . . . . . . . . . |@1@2@W.3 3 3 3 3 3 3 3 3 3 3 3 3 3 3 3 3 3 3 3 3 3 3@4@5@-+. . . . . . . . . . . . . . . . . . . . ",
"+ . . . . . . . . . . . . . . . . . . . . 6@7@8@3 3 3 3 3 3 3 3 3 3 3 3 3 3 3 3 3 3 3 3 3 3 3 3 R 9@0@. . . . . . . . . . . . . . . . . . . . ",
"+ . . . . . . . . . . . . . . . . . . . a@b@_+W.3 3 3 3 3 3 3 3 3 3 3 3 3 3 3 3 3 3 3 3 3 3 3 3 c@d@e@c+. . . . . . . . . . . . . . . . . . . ",
"+ . . . . . . . . . . . . . . . . . . . f@g@h@L+3 3 3 3 3 3 3 3 3 3 3 3 3 3 3 3 3 3 3 3 3 3 3 3 i@j@k@l@. . . . . . . . . . . . . . . . . . . ",
"+ . . . . . . . . . . . . . . . . . . . m@|.#@n@3 3 3 3 3 3 3 3 3 3 3 3 3 3 3 3 3 3 3 3 3 3 3 3 X+o@$+p@. . . . . . . . . . . . . . . . . . . ",
"+ . . . . . . . . . . . . . . . . . . + q@I r@+.3 3 3 3 3 3 3 3 3 3 3 3 3 3 3 3 3 3 3 3 3 3 3 3 s@t@I u@. . . . . . . . . . . . . . . . . . . ",
"+ . . . . . . . . . . . . . . . . . . v@w@I d@x@l l l l l l l l l l l l l l l l l l l l l l l l y@E.I z@A@. . . . . . . . . . . . . . . . . . ",
"+ . . . . . . . . . . . . . . . . . . B@) I I C@S D@D@D@D@D@D@D@D@D@D@D@D@D@D@D@D@D@D@D@D@D@D@b r I I E@F@. . . . . . . . . . . . . . . . . . ",
"+ . . . . . . . . . . . . . . . . . . G@H@I I I I I I I I I I I I I I I I I I I I I I I I I I I I I I I@J@. . . . . . . . . . . . . . . . . . ",
"+ . . . . . . . . . . . . . . . . . . K@L@M@M@M@M@M@M@M@M@M@M@M@M@M@M@M@M@M@M@M@M@M@M@M@M@M@M@M@M@M@M@N@O@. . . . . . . . . . . . . . . . . . ",
"+ . . . . . . . . . . . . . . . . . . . P@Q@Q@Q@Q@Q@Q@Q@Q@Q@Q@Q@Q@Q@Q@Q@Q@Q@Q@Q@Q@Q@Q@Q@Q@Q@Q@Q@Q@Q@Q@R@. . . . . . . . . . . . . . . . . . . ",
"+ . . . . . . . . . . . . . . . . . . . . . . . . . . . . . . . . . . . . . . . . . . . . . . . . . . . . . . . . . . . . . . . . . . . . . . ",
"+ . . . . . . . . . . . . . . . . . . . . . . . . . . . . . . . . . . . . . . . . . . . . . . . . . . . . . . . . . . . . . . . . . . . . . . ",
"+ . . . . . . . . . . . . . . . . . . . . . . . . . . . . . . . . . . . . . . . . . . . . . . . . . . . . . . . . . . . . . . . . . . . . . . ",
"+ . . . . . . . . . . . . . . . . . . . . . . . . . . . . . . . . . . . . . . . . . . . . . . . . . . . . . . . . . . . . . . . . . . . . . . ",
"+ . . . . . . . . . . . . . . . . . . . . . . . . . . . . . . . . . . . . . . . . . . . . . . . . . . . . . . . . . . . . . . . . . . . . . . ",
"+ . . . . . . . . . . . . . . . . . . . . . . . . . . . . . . . . . . . . . . . . . . . . . . . . . . . . . . . . . . . . . . . . . . . . . . ",
"+ . . . . . . . . . . . . . . . . . . . . . . . . . . . . . . . . . . . . . . . . . . . . . . . . . . . . . . . . . . . . . . . . . . . . . . ",
"+ . . . . . . . . . . . . . . . . . . . . . . . . . . . . . . . . . . . . . . . . . . . . . . . . . . . . . . . . . . . . . . . . . . . . . . "};
