/* XPM */
static char * hbn_xpm[] = {
"71 71 545 2",
"  	c None",
". 	c #F38792",
"+ 	c #F95F6A",
"@ 	c #FF545D",
"# 	c #FF535C",
"$ 	c #FF565E",
"% 	c #EF545C",
"& 	c #A83F44",
"* 	c #D24B53",
"= 	c #91373C",
"- 	c #7D3136",
"; 	c #E6525A",
"> 	c #9F3C42",
", 	c #020101",
"' 	c #3E1F20",
") 	c #BD4C51",
"! 	c #CF4B52",
"~ 	c #1E1112",
"{ 	c #000000",
"] 	c #7C3135",
"^ 	c #FE545C",
"/ 	c #86383C",
"( 	c #411B1E",
"_ 	c #CE4B52",
": 	c #903A3E",
"< 	c #261415",
"[ 	c #D75157",
"} 	c #8A393D",
"| 	c #61292C",
"1 	c #F3565E",
"2 	c #FA555E",
"3 	c #5B272A",
"4 	c #853438",
"5 	c #9C3E43",
"6 	c #010101",
"7 	c #91363B",
"8 	c #E95259",
"9 	c #301618",
"0 	c #2B1516",
"a 	c #C54A51",
"b 	c #B4454A",
"c 	c #060404",
"d 	c #311719",
"e 	c #A94247",
"f 	c #A14045",
"g 	c #190D0E",
"h 	c #53292B",
"i 	c #CC4D54",
"j 	c #CB4B52",
"k 	c #110909",
"l 	c #0F0F0F",
"m 	c #585858",
"n 	c #646464",
"o 	c #544E4F",
"p 	c #494444",
"q 	c #050505",
"r 	c #401D1F",
"s 	c #A84146",
"t 	c #E0525A",
"u 	c #DB5057",
"v 	c #C74950",
"w 	c #BF474C",
"x 	c #CB4A51",
"y 	c #DC4D55",
"z 	c #F7545C",
"A 	c #DE4F56",
"B 	c #1F0E0F",
"C 	c #3F3F3F",
"D 	c #AAAAAA",
"E 	c #FBFBFB",
"F 	c #FCFCFC",
"G 	c #E9E9E9",
"H 	c #B4B4B4",
"I 	c #151515",
"J 	c #0C0808",
"K 	c #211112",
"L 	c #1B0E0E",
"M 	c #0F0809",
"N 	c #0C0909",
"O 	c #120B0B",
"P 	c #201112",
"Q 	c #732F32",
"R 	c #F6545C",
"S 	c #B8454C",
"T 	c #5F5656",
"U 	c #BABABA",
"V 	c #D8D8D8",
"W 	c #FFFFFF",
"X 	c #8D8D8D",
"Y 	c #929292",
"Z 	c #7E7E7E",
"` 	c #080808",
" .	c #565656",
"..	c #484848",
"+.	c #252525",
"@.	c #090909",
"#.	c #37181A",
"$.	c #D85058",
"%.	c #F0535C",
"&.	c #FA545D",
"*.	c #FA565E",
"=.	c #703739",
"-.	c #A9A9A9",
";.	c #6D6D6D",
">.	c #616161",
",.	c #C1C1C1",
"'.	c #1D1D1D",
").	c #6F6F6F",
"!.	c #4C4C4C",
"~.	c #343434",
"{.	c #E3E3E3",
"].	c #F6F6F6",
"^.	c #E1E1E1",
"/.	c #B6B6B6",
"(.	c #7C7C7C",
"_.	c #3C3C3C",
":.	c #231213",
"<.	c #381A1B",
"[.	c #592629",
"}.	c #813539",
"|.	c #AF4449",
"1.	c #DE4F57",
"2.	c #C34950",
"3.	c #160D0E",
"4.	c #3E3E3E",
"5.	c #212121",
"6.	c #454545",
"7.	c #464646",
"8.	c #727272",
"9.	c #A4A4A4",
"0.	c #D9D9D9",
"a.	c #F9F9F9",
"b.	c #ECECEC",
"c.	c #ACACAC",
"d.	c #5E5E5E",
"e.	c #101010",
"f.	c #070404",
"g.	c #392021",
"h.	c #CA4C53",
"i.	c #FD545C",
"j.	c #772F33",
"k.	c #040404",
"l.	c #202020",
"m.	c #5D5D5D",
"n.	c #A5A5A5",
"o.	c #EBEBEB",
"p.	c #B3B3B3",
"q.	c #575757",
"r.	c #020202",
"s.	c #3A1E20",
"t.	c #A04246",
"u.	c #FC5A62",
"v.	c #E55058",
"w.	c #341A1B",
"x.	c #060606",
"y.	c #434343",
"z.	c #9A9A9A",
"A.	c #F1F1F1",
"B.	c #F3F3F3",
"C.	c #919191",
"D.	c #2A2A2A",
"E.	c #120E0E",
"F.	c #321819",
"G.	c #6A2C2F",
"H.	c #A74045",
"I.	c #E25059",
"J.	c #FE535C",
"K.	c #B6444A",
"L.	c #0B0808",
"M.	c #030303",
"N.	c #535353",
"O.	c #B5B5B5",
"P.	c #BBBBBB",
"Q.	c #4D4D4D",
"R.	c #050404",
"S.	c #2E1718",
"T.	c #7A3034",
"U.	c #CD4D53",
"V.	c #85363A",
"W.	c #161616",
"X.	c #8B8B8B",
"Y.	c #FDFDFD",
"Z.	c #DBDBDB",
"`.	c #5F5F5F",
" +	c #291516",
".+	c #B94248",
"++	c #F9565F",
"@+	c #58292C",
"#+	c #0B0B0B",
"$+	c #171717",
"%+	c #626262",
"&+	c #555555",
"*+	c #E5E5E5",
"=+	c #DFDFDF",
"-+	c #606060",
";+	c #120F0F",
">+	c #5C3234",
",+	c #8B3C40",
"'+	c #E1555C",
")+	c #E9555D",
"!+	c #2F191A",
"~+	c #868686",
"{+	c #D1D1D1",
"]+	c #878787",
"^+	c #959595",
"/+	c #E0E0E0",
"(+	c #693235",
"_+	c #CE4F55",
":+	c #AC444A",
"<+	c #0F0808",
"[+	c #757575",
"}+	c #D3D3D3",
"|+	c #A8A8A8",
"1+	c #848484",
"2+	c #898989",
"3+	c #111111",
"4+	c #262626",
"5+	c #0C0C0C",
"6+	c #656565",
"7+	c #D5D5D5",
"8+	c #391E1F",
"9+	c #A74347",
"0+	c #DC525B",
"a+	c #462425",
"b+	c #707070",
"c+	c #7B7B7B",
"d+	c #505050",
"e+	c #9E9E9E",
"f+	c #D6D6D6",
"g+	c #181818",
"h+	c #7D7D7D",
"i+	c #FEFEFE",
"j+	c #B7B7B7",
"k+	c #1A1515",
"l+	c #8F3A3E",
"m+	c #FF5760",
"n+	c #FF5861",
"o+	c #783438",
"p+	c #D4D4D4",
"q+	c #696969",
"r+	c #777777",
"s+	c #BCBCBC",
"t+	c #222222",
"u+	c #0A0A0A",
"v+	c #9B9B9B",
"w+	c #8E8E8E",
"x+	c #803034",
"y+	c #FF5761",
"z+	c #B6484E",
"A+	c #170F0F",
"B+	c #121212",
"C+	c #D2D2D2",
"D+	c #CFCFCF",
"E+	c #242424",
"F+	c #313131",
"G+	c #303030",
"H+	c #CACACA",
"I+	c #F2F2F2",
"J+	c #595959",
"K+	c #8D373C",
"L+	c #F45860",
"M+	c #5B2A2C",
"N+	c #C8C8C8",
"O+	c #6E6E6E",
"P+	c #5B5B5B",
"Q+	c #CECECE",
"R+	c #666666",
"S+	c #1A1A1A",
"T+	c #201717",
"U+	c #CE4E54",
"V+	c #A54347",
"W+	c #090808",
"X+	c #141414",
"Y+	c #9C9C9C",
"Z+	c #1B1B1B",
"`+	c #747474",
" @	c #180E0E",
".@	c #632A2D",
"+@	c #893B3F",
"@@	c #EB5B62",
"#@	c #F0575F",
"$@	c #4F2628",
"%@	c #070707",
"&@	c #B0B0B0",
"*@	c #949494",
"=@	c #131313",
"-@	c #4B4B4B",
";@	c #EEEEEE",
">@	c #CBCBCB",
",@	c #363333",
"'@	c #8C393E",
")@	c #FE545D",
"!@	c #9E3F44",
"~@	c #5C5C5C",
"{@	c #424242",
"]@	c #D0D0D0",
"^@	c #7F2B2F",
"/@	c #FF555E",
"(@	c #E0535A",
"_@	c #421F21",
":@	c #888888",
"<@	c #C5C5C5",
"[@	c #822E32",
"}@	c #803337",
"|@	c #858585",
"1@	c #1F1F1F",
"2@	c #EFEFEF",
"3@	c #B2B2B2",
"4@	c #FAFAFA",
"5@	c #0E0E0E",
"6@	c #9A4146",
"7@	c #B24147",
"8@	c #1D1212",
"9@	c #818181",
"0@	c #0D0D0D",
"a@	c #A7A7A7",
"b@	c #211516",
"c@	c #AC4045",
"d@	c #DE5058",
"e@	c #491E20",
"f@	c #ABABAB",
"g@	c #A2A2A2",
"h@	c #9F9F9F",
"i@	c #BFBFBF",
"j@	c #373737",
"k@	c #421E21",
"l@	c #DF5057",
"m@	c #FE5761",
"n@	c #702C30",
"o@	c #353535",
"p@	c #9D9D9D",
"q@	c #717171",
"r@	c #291A1A",
"s@	c #482123",
"t@	c #291617",
"u@	c #AF4046",
"v@	c #96393E",
"w@	c #070606",
"x@	c #272727",
"y@	c #939393",
"z@	c #B8B8B8",
"A@	c #AEAEAE",
"B@	c #422A2C",
"C@	c #AF484E",
"D@	c #E45058",
"E@	c #F2535B",
"F@	c #BF474E",
"G@	c #271717",
"H@	c #271617",
"I@	c #703336",
"J@	c #2F1D1E",
"K@	c #E2E2E2",
"L@	c #282828",
"M@	c #331617",
"N@	c #B93E44",
"O@	c #F9545D",
"P@	c #63282B",
"Q@	c #442224",
"R@	c #672E31",
"S@	c #983C40",
"T@	c #D74E55",
"U@	c #E55159",
"V@	c #2B1819",
"W@	c #451C1F",
"X@	c #D35157",
"Y@	c #D54D54",
"Z@	c #1C0E0F",
"`@	c #3D3D3D",
" #	c #191313",
".#	c #F4555D",
"+#	c #FC545D",
"@#	c #BE484E",
"##	c #100B0B",
"$#	c #808080",
"%#	c #5E272A",
"&#	c #ED545C",
"*#	c #AA4248",
"=#	c #070505",
"-#	c #383838",
";#	c #1D1111",
">#	c #93393F",
",#	c #843438",
"'#	c #4F4F4F",
")#	c #F7F7F7",
"!#	c #C3C3C3",
"~#	c #823337",
"{#	c #89373B",
"]#	c #2F2F2F",
"^#	c #472022",
"/#	c #B14348",
"(#	c #442022",
"_#	c #292929",
":#	c #1C1111",
"<#	c #C1484E",
"[#	c #773134",
"}#	c #EAEAEA",
"|#	c #525252",
"1#	c #6D2D31",
"2#	c #DD5159",
"3#	c #AF4349",
"4#	c #F8F8F8",
"5#	c #422223",
"6#	c #492123",
"7#	c #A13E43",
"8#	c #722F33",
"9#	c #333333",
"0#	c #393939",
"a#	c #75292E",
"b#	c #F4565F",
"c#	c #F4535C",
"d#	c #A1A1A1",
"e#	c #787878",
"f#	c #9A3B40",
"g#	c #F3535C",
"h#	c #833539",
"i#	c #5A5A5A",
"j#	c #652D30",
"k#	c #F35861",
"l#	c #9A3C41",
"m#	c #A0A0A0",
"n#	c #311819",
"o#	c #CE4C53",
"p#	c #AE434A",
"q#	c #3B3B3B",
"r#	c #201314",
"s#	c #C74F55",
"t#	c #C54C53",
"u#	c #341C1E",
"v#	c #C2C2C2",
"w#	c #6D2C30",
"x#	c #FC565F",
"y#	c #E75259",
"z#	c #441F21",
"A#	c #515151",
"B#	c #6B3033",
"C#	c #FD5861",
"D#	c #DB5158",
"E#	c #512527",
"F#	c #1C1C1C",
"G#	c #150D0D",
"H#	c #BB454B",
"I#	c #AA3E44",
"J#	c #1F0C0D",
"K#	c #0C0707",
"L#	c #B14349",
"M#	c #F15C63",
"N#	c #65272A",
"O#	c #E4E4E4",
"P#	c #6C2C30",
"Q#	c #FD565F",
"R#	c #421E20",
"S#	c #552527",
"T#	c #F1545C",
"U#	c #FB545D",
"V#	c #783135",
"W#	c #474747",
"X#	c #190E10",
"Y#	c #190E0F",
"Z#	c #271314",
"`#	c #DF4E56",
" $	c #E25158",
".$	c #8E383C",
"+$	c #3B1D1F",
"@$	c #251112",
"#$	c #B5444A",
"$$	c #90393E",
"%$	c #C4C4C4",
"&$	c #422022",
"*$	c #A64A4F",
"=$	c #983B3F",
"-$	c #E8525A",
";$	c #CD4D54",
">$	c #5B282B",
",$	c #10090A",
"'$	c #050303",
")$	c #371A1B",
"!$	c #9F373D",
"~$	c #AC4248",
"{$	c #1F1515",
"]$	c #7C3035",
"^$	c #F2555E",
"/$	c #C8494F",
"($	c #B04248",
"_$	c #B64349",
":$	c #E05158",
"<$	c #D24E55",
"[$	c #3F2021",
"}$	c #1A0F0F",
"|$	c #B9454B",
"1$	c #FB5860",
"2$	c #672B2E",
"3$	c #909090",
"4$	c #5C2629",
"5$	c #F6555D",
"6$	c #A84046",
"7$	c #0C0708",
"8$	c #AF4247",
"9$	c #F45760",
"0$	c #542729",
"a$	c #737373",
"b$	c #BEBEBE",
"c$	c #030202",
"d$	c #642A2E",
"e$	c #0D0A0A",
"f$	c #6A6A6A",
"g$	c #221A1B",
"h$	c #603034",
"i$	c #62292C",
"j$	c #5E2A2D",
"k$	c #E75058",
"l$	c #733033",
"m$	c #5A2629",
"n$	c #F0565E",
"o$	c #EA5159",
"p$	c #ED515A",
"q$	c #391B1D",
"r$	c #080606",
"s$	c #D94F57",
"t$	c #D7D7D7",
"u$	c #5D2629",
"v$	c #F9555D",
"w$	c #C4494F",
"x$	c #0D0808",
"y$	c #201011",
"z$	c #DD4F56",
"A$	c #C2494F",
"B$	c #2D1A1B",
"C$	c #221213",
"D$	c #211213",
"E$	c #241314",
"F$	c #251314",
"G$	c #715F60",
"H$	c #FAE8E9",
"I$	c #DBC8C9",
"J$	c #402E2F",
"K$	c #321A1C",
"L$	c #C84A51",
"M$	c #E5525A",
"N$	c #E4525A",
"O$	c #E3525A",
"P$	c #E35259",
"Q$	c #E35159",
"R$	c #E9575E",
"S$	c #FF6C74",
"T$	c #FC575F",
". + + + + + + + + + + + + + + + + + + + + + + + + + + + + + + + + + + + + + + + + + + + + + + + + + + + + + + + + + + + + + + + + + + + + + + ",
"+ @ @ @ @ @ @ @ @ @ @ @ @ @ @ @ @ @ @ @ @ @ @ @ @ @ @ @ @ @ @ @ @ @ @ @ @ @ @ @ @ @ @ @ @ @ @ @ @ @ @ @ @ @ @ @ @ @ @ @ @ @ @ @ @ @ @ @ @ @ @ ",
"+ @ @ @ @ @ @ @ @ @ @ @ @ @ @ @ @ @ @ @ @ @ @ @ @ @ @ @ @ @ @ @ @ @ @ @ @ @ @ @ @ @ @ @ @ @ @ @ @ @ @ @ @ @ @ @ @ @ @ @ @ @ @ @ @ @ @ @ @ @ @ ",
"+ @ @ @ @ @ @ @ @ @ @ @ @ @ @ @ @ @ @ @ @ @ @ @ @ @ @ @ @ @ @ @ @ @ @ @ @ @ @ @ @ @ @ @ @ @ @ @ @ @ @ @ @ @ @ @ @ @ @ @ @ @ @ @ @ @ @ @ @ @ @ ",
"+ @ @ @ @ @ @ @ @ @ @ @ @ @ @ @ @ @ @ @ @ @ @ @ @ @ @ @ @ @ @ @ @ @ @ @ @ @ @ @ @ @ @ @ @ @ @ @ @ @ @ @ @ @ @ @ @ @ @ @ @ @ @ @ @ @ @ @ @ @ @ ",
"+ @ @ @ @ @ @ @ @ @ @ @ @ @ @ @ @ @ @ @ @ @ @ @ @ @ @ @ @ @ @ @ @ @ @ @ @ @ @ @ @ @ @ @ @ @ @ @ @ @ @ @ @ @ @ @ @ @ @ @ @ @ @ @ @ @ @ @ @ @ @ ",
"+ @ @ @ @ @ @ @ @ @ @ @ @ @ @ @ @ @ @ @ @ @ @ @ @ @ @ @ # $ @ @ @ @ @ @ @ @ @ @ @ @ @ @ @ @ @ @ @ @ @ @ @ @ @ @ @ @ @ @ @ @ @ @ @ @ @ @ @ @ @ ",
"+ @ @ @ @ @ @ @ @ @ @ @ @ @ @ @ @ @ @ % & * @ @ @ @ @ # = - ; @ @ @ @ @ @ @ @ @ @ @ @ @ @ @ @ @ @ @ @ @ @ @ @ @ @ @ @ @ @ @ @ @ @ @ @ @ @ @ @ ",
"+ @ @ @ @ @ @ @ @ @ @ @ @ @ @ @ @ @ @ > , ' ) @ @ @ @ ! ~ { ] ^ @ @ @ @ @ @ @ @ @ @ @ @ @ @ @ @ @ @ @ @ @ @ @ @ @ @ @ @ @ @ @ @ @ @ @ @ @ @ @ ",
"+ @ @ @ @ @ @ @ @ @ @ @ @ @ @ @ @ @ # / { { ( _ @ @ @ : { { < [ @ @ @ @ @ @ @ @ @ @ @ @ @ @ @ @ @ @ @ @ @ @ @ @ @ @ @ @ @ @ @ @ @ @ @ @ @ @ @ ",
"+ @ @ @ @ @ @ @ @ @ @ @ @ @ @ @ @ @ @ } { { { | 1 @ 2 3 { { { 4 @ @ @ @ @ @ @ @ @ @ @ @ @ @ @ @ @ @ @ @ @ @ @ @ @ @ @ @ @ @ @ @ @ @ @ @ @ @ @ ",
"+ @ @ @ @ @ @ @ @ @ @ @ @ @ @ @ @ @ @ 5 6 { { , 7 @ 8 9 { { { 0 a @ @ @ @ @ @ @ @ @ @ @ @ @ @ @ @ @ @ @ @ @ @ @ @ @ @ @ @ @ @ @ @ @ @ @ @ @ @ ",
"+ @ @ @ @ @ @ @ @ @ @ @ @ @ @ @ @ @ @ b c { { { d e f g { { { { h i @ @ @ @ @ @ @ @ @ @ @ @ @ @ @ @ @ @ @ @ @ @ @ @ @ @ @ @ @ @ @ @ @ @ @ @ @ ",
"+ @ @ @ @ @ @ @ @ @ @ @ @ @ @ @ @ @ @ j k { l m n o p q { { { { { r s t u v w x y z @ @ @ @ @ @ @ @ @ @ @ @ @ @ @ @ @ @ @ @ @ @ @ @ @ @ @ @ @ ",
"+ @ @ @ @ @ @ @ @ @ @ @ @ @ @ @ @ @ @ A B C D E F G H I { { { { { { J K L M N O P Q R @ @ @ @ @ @ @ @ @ @ @ @ @ @ @ @ @ @ @ @ @ @ @ @ @ @ @ @ ",
"+ @ @ @ @ @ @ @ @ @ @ @ @ @ @ @ @ @ @ S T U V W X Y Z { { { { { { `  ...+.@.{ { { #.$.%.&.# @ @ @ @ @ @ @ @ @ @ @ @ @ @ @ @ @ @ @ @ @ @ @ @ @ ",
"+ @ @ @ @ @ @ @ @ @ @ @ @ @ @ @ @ @ *.=.-.;.>.,.'.).!.{ { { { { { ~.{.].^./.(._.@.{ :.<.[.}.|.1.@ @ @ @ @ @ @ @ @ @ @ @ @ @ @ @ @ @ @ @ @ @ @ ",
"+ @ @ @ @ @ @ @ @ @ @ @ @ @ @ @ @ @ 2.3.4.{ 5.6.{ '.6 { { { { { { ` 7.8.9.0.a.b.c.d.e.{ { { f.g.h.@ @ @ @ @ @ @ @ @ @ @ @ @ @ @ @ @ @ @ @ @ @ ",
"+ @ @ @ @ @ @ @ @ @ @ @ @ @ @ @ @ i.j.{ { { { { { { { { { { { { { { { { k.l.m.n.o.a.p.q.r.{ s.t.u.@ @ @ @ @ @ @ @ @ @ @ @ @ @ @ @ @ @ @ @ @ @ ",
"+ @ @ @ @ @ @ @ @ @ @ @ @ @ @ @ @ v.w.{ { { { { { { { { { { { { { { { { { { { x.y.z.A.B.C.D.E.F.G.H.I.J.@ @ @ @ @ @ @ @ @ @ @ @ @ @ @ @ @ @ @ ",
"+ @ @ @ @ @ @ @ @ @ @ @ @ @ @ @ @ K.L.{ { { { { { { { { { { { { { { { { { { { { { M.N.O.W P.Q.{ { R.S.T.U.@ @ @ @ @ @ @ @ @ @ @ @ @ @ @ @ @ @ ",
"+ @ @ @ @ @ @ @ @ @ @ @ @ @ @ @ @ V.{ { { { { { { { { { { { { { { { { W.7.{ { { { { { l.X.Y.Z.`.{ { { {  +.+@ @ @ @ @ @ @ @ @ @ @ @ @ @ @ @ @ ",
"+ @ @ @ @ @ @ @ @ @ @ @ @ @ @ @ ++@+{ { { { { #+$+W.r.{ { { { { { { { %+B.&+{ { { { { { { 8.*+=+-+{ ;+>+,+'+@ @ @ @ @ @ @ @ @ @ @ @ @ @ @ @ @ ",
"+ @ @ @ @ @ @ @ @ @ @ @ @ @ @ @ )+!+{ { { 4.~+P.{+{+]+@.{ { { { { { { m E ^+6 { { { { { { { >./+=+`.` (+_+@ @ @ @ @ @ @ @ @ @ @ @ @ @ @ @ @ @ ",
"+ @ @ @ @ @ @ @ @ @ @ @ @ @ @ @ :+<+{ { [+}+|+).m.1+2+3+{ { { { { { { 4+Z.,.5+{ { { { { { { { 6+A.7+7.{ 8+9+@ @ @ @ @ @ @ @ @ @ @ @ @ @ @ @ @ ",
"+ @ @ @ @ @ @ @ @ @ @ @ @ @ @ 0+a+{ { b+Z.%+&+c+d+{ x.{ { { { { { { { M.e+f+g+{ { { { { { { { { h+i+j+4+{ k+l+m+@ @ @ @ @ @ @ @ @ @ @ @ @ @ @ ",
"+ @ @ @ @ @ @ @ @ @ @ @ @ @ n+o+{ { _.p+q+r+B.W s+3+{ { { { { { { { { { b+^.t+{ { { { { { { { { u+v+W w+6 { k.x+y+@ @ @ @ @ @ @ @ @ @ @ @ @ @ ",
"+ @ @ @ @ @ @ @ @ @ @ @ @ @ z+A+{ { w+H B+(.C+D+r+{ { { { { { { { { { { q.=+E+{ F+{ { { { { { { { G+H+I+J+{ { 6 K+@ @ @ @ @ @ @ @ @ @ @ @ @ @ ",
"+ @ @ @ @ @ @ @ @ @ @ @ @ L+M+{ { 3+N+O+{ M.W.W.{ { { { { { { { { { { { P+Q+W.%+7++.{ { { { { { { { R+a.P.S+{ { T+U+@ @ @ @ @ @ @ @ @ @ @ @ @ ",
"+ @ @ @ @ @ @ @ @ @ @ @ @ V+W+{ { { !.X+{ { { { { { { { { { { { { { { { h+9.x.Y+7+Z+{ { { { { { { { u+n.i+`+ @.@+@@@@ @ @ @ @ @ @ @ @ @ @ @ @ ",
"+ @ @ @ @ @ @ @ @ @ @ @ #@$@{ { { { { { { { { { { { { { { { { { { { { %@&@q+W.Q+*@r.=@-@{ { { { { { { -@;@>@,@'@)@@ @ @ @ @ @ @ @ @ @ @ @ @ @ ",
"+ @ @ @ @ @ @ @ @ @ @ @ !@%@{ { { { { { { { { { { { { { { { { { { { { 4.,.4+~@/+{@{ O+]@W.{ { { { { { q e+i+[+k.^@/@@ @ @ @ @ @ @ @ @ @ @ @ @ ",
"+ @ @ @ @ @ @ @ @ @ @ (@_@{ { { { { { { { { { { { { { { { { { { { { r.^+1+g+H :@{ 5+O.-.%@{ { { { { { { Q.I+<@g+6 [@@ @ @ @ @ @ @ @ @ @ @ @ @ ",
"+ @ @ @ @ @ @ @ @ @ @ }@{ { { { { { { { { { { { { { { { { { { { { { `.P.D.|@&@1@{ m 2@-+{ { { { { { { { #+3@4@d.{ 5@6@@ @ @ @ @ @ @ @ @ @ @ @ ",
"+ @ @ @ @ @ @ @ @ @ 7@8@{ { { { { { { { { { { { { { { { { { { { { k.J+%+9@P._.{ E+/.9.0@{ { { { { { { { { q+F a@x.{ b@c@@ @ @ @ @ @ @ @ @ @ @ ",
"+ @ @ @ @ @ @ @ @ d@e@{ { { { { { { { { { { { { { { { { { { { { { { G+f@g@F+{ +.h@i@j@{ { { { { { { { { { +.Z.*+G+{ { k@l@@ @ @ @ @ @ @ @ @ @ ",
"+ @ @ @ @ @ @ @ m@n@{ { { { { { { { { { { { { { { { { { { { { { { { o@n 3+3+m /.&@4.{ { { { { { { { { { { M.p@i+q@r@s@t@u@@ @ @ @ @ @ @ @ @ @ ",
"+ @ @ @ @ @ @ @ v@w@{ { { { { { { { { { { { { { { { { { { { { { { { x@).y@z@j+).I { { { { { { { { { { { { { `.E A@B@C@D@E@@ @ @ @ @ @ @ @ @ @ ",
"+ @ @ @ @ @ @ F@G@{ { { { { { { { { { { { { { { { { { { { M.H@I@J@{ j@Z O+y.X+{ { { { { { { { { { { { { { { x@^.K@L@M@N@@ @ @ @ @ @ @ @ @ @ @ ",
"+ @ @ @ @ @ O@P@{ %@{ { { { { { { { { { { { { { { { 8@Q@R@S@T@U@V@{ { { { { { { { { { { { { { { { { { { { { ` H 4@~@{ W@X@@ @ @ @ @ @ @ @ @ @ ",
"+ @ @ @ @ @ Y@Z@`@c+3+{ { { { { { { { { { { { { {  #H..#+#@ @ @###{ { { { { { { { { { { { { { { { { { { { { { $#W C.{ { %#&#@ @ @ @ @ @ @ @ @ ",
"+ @ @ @ @ @ *#=#^+*+-#{ { { { { { { { { { { { { ;#>#@ @ @ @ @ ,#{ { { { { { { { { { { { { { { { { { { { { { { '#)#!#l { { ~## @ @ @ @ @ @ @ @ ",
"+ @ @ @ @ @ {#u+j+W &@]#{ { { { { { { { { { { ^#/#@ @ @ @ @ % (#{ { { { { { { { { { { { { { { { { { { { { { { 4+K@*+_#N { :#<#@ @ @ @ @ @ @ @ ",
"+ @ @ @ @ @ [#{ [+2@}#Q.{ |#6+S+{ { { { { { 1#2#@ @ @ @ @ @ 3#J { { { { { { { { { { { { { { { { { { { { { { { l <@4#'#5#} 6#7#@ @ @ @ @ @ @ @ ",
"+ @ @ @ @ @ 8#{ { 9#F+{ 0#{.W 9@{ { { { { a#b#@ @ @ @ @ @ c#[.{ { { { { { { { { { { { { { { { { { { { { { { { M.d#W e#W+f#g#c#@ @ @ @ @ @ @ @ ",
"+ @ @ @ @ # h#{ { { { { i#Y.W (.{ { { { j#k#@ @ @ @ @ @ @ l#` { { { { { { { { { { { { { { { { { { { { { { { { { c+W m#M.n#o#@ @ @ @ @ @ @ @ @ ",
"+ @ @ @ @ @ p#f.{ { { { q#Z.V _#{ { { r#s#@ @ @ @ @ @ @ t#u#{ { { { { { { { { { { { { { { { { { { { { { { { { { q.E v#5+{ w#x#@ @ @ @ @ @ @ @ ",
"+ @ @ @ @ @ y#z#{ { { { { 7.A#{ { { { B#C#@ @ @ @ @ @ D#E#{ { { { { { { { { { { { { { { { { { { { { { { { { { { q#A.Z.F#{ G#H#@ @ @ @ @ @ @ @ ",
"+ @ @ @ @ @ @ I#J#{ { { { { { { { { K#L#@ @ @ @ @ @ M#N#{ { { { { { { { { { { { { { { { { { { { { { { { { { { { x@O#b.G+{ { P#Q#@ @ @ @ @ @ @ ",
"+ @ @ @ @ @ @ @ I#R#{ { { { { { { { S#T#@ @ @ @ @ U#V#{ { { { { { { { { { { { { { { { { { { { { { { { { { { { { g+7+].W#X#Y#Z#`#@ @ @ @ @ @ @ ",
"+ @ @ @ @ @ @ @ @  $.$+${ { { { { @$#$@ @ @ @ @ @ $$k.{ { { { { { { { { { { { { { { { { { { { { { { { { { { { { 5+%$F `.&$*$=$-$@ @ @ @ @ @ @ ",
"+ @ @ @ @ @ @ @ @ @ @ ;$>$,$'$f.)$!$@ @ @ @ @ @ ~${${ { { { { { { { { { { { { { { { { { { { { { { { { { { { { { q p.W r+{ ]$@ @ @ @ @ @ @ @ @ ",
"+ @ @ @ @ @ @ @ @ @ @ @ ^$/$($_$:$@ @ @ @ @ @ <$[${ { { { { { { { { { { { { { { { { { { { { { { { { { { { { { { r.d#W X.{ }$|$@ @ @ @ @ @ @ @ ",
"+ @ @ @ @ @ @ @ @ @ @ @ @ @ @ @ @ @ @ @ @ @ 1$2${ { { { { { { { { { { { { { { { { { { { { { { { { { { { { { { { { 3$W m#M.{ 4$5$@ @ @ @ @ @ @ ",
"+ @ @ @ @ @ @ @ @ @ @ @ @ @ @ @ @ @ @ @ @ @ 6$L.{ { { { { { { { { { { { { { { { { { { { { { { { { { { { { { { { { 9@W &@k.{ 7$8$@ @ @ @ @ @ @ ",
"+ @ @ @ @ @ @ @ @ @ @ @ @ @ @ @ @ @ @ @ @ 9$0${ { { { { { { { { { { { { { { { { { { { { { { { { { { { { { { { { { a$W b$#+c${ d$&.@ @ @ @ @ @ ",
"+ @ @ @ @ @ @ @ @ @ @ @ @ @ @ @ @ @ @ @ @ z+e${ { { { { { { { { { { { { { { { { { { { { { { { { { { { { { { { { { f$i+<@g$h$i$j$k$@ @ @ @ @ @ ",
"+ @ @ @ @ @ @ @ @ @ @ @ @ @ @ @ @ @ @ @ /@l${ { { { { { { { { { { { { { { { { { { { { { { { { { { { { { { { { { { >.Y.Q+=@m$n$o$@ @ @ @ @ @ @ ",
"+ @ @ @ @ @ @ @ @ @ @ @ @ @ @ @ @ @ @ @ p$q${ { { { { { { { { { { { { { { { { { { { { { { { { { { { { { { { { { { m E p+W.r$& @ @ @ @ @ @ @ @ ",
"+ @ @ @ @ @ @ @ @ @ @ @ @ @ @ @ @ @ @ @ s$~ { { { { { { { { { { { { { { { { { { { { { { { { { { { { { { { { { { { N.4@t$g+{ u$v$@ @ @ @ @ @ @ ",
"+ @ @ @ @ @ @ @ @ @ @ @ @ @ @ @ @ @ @ @ w$x${ { { { { { { { { { { { { { { { { { { { { { { { { { { { { { { { { { { |#4@0.S+{ y$z$@ @ @ @ @ @ @ ",
"+ @ @ @ @ @ @ @ @ @ @ @ @ @ @ @ @ @ @ @ A$B$:.:.C$C$C$C$C$D$D$D$D$D$D$D$D$D$D$D$D$D$D$C$C$C$C$C$:.:.E$E$F$F$F$F$F$G$H$I$J$F$K$L$@ @ @ @ @ @ @ ",
"+ @ @ @ @ @ @ @ @ @ @ @ @ @ @ @ @ @ @ @ Q#M$M$M$M$M$M$N$N$N$N$N$O$P$Q$Q$Q$Q$P$O$N$N$N$N$N$M$M$M$M$M$M$M$M$M$M$M$M$R$S$S$M$M$M$T$@ @ @ @ @ @ @ ",
"+ @ @ @ @ @ @ @ @ @ @ @ @ @ @ @ @ @ @ @ @ @ @ @ @ @ @ @ @ @ @ @ @ @ @ @ @ @ @ @ @ @ @ @ @ @ @ @ @ @ @ @ @ @ @ @ @ @ @ @ @ @ @ @ @ @ @ @ @ @ @ ",
"+ @ @ @ @ @ @ @ @ @ @ @ @ @ @ @ @ @ @ @ @ @ @ @ @ @ @ @ @ @ @ @ @ @ @ @ @ @ @ @ @ @ @ @ @ @ @ @ @ @ @ @ @ @ @ @ @ @ @ @ @ @ @ @ @ @ @ @ @ @ @ ",
"+ @ @ @ @ @ @ @ @ @ @ @ @ @ @ @ @ @ @ @ @ @ @ @ @ @ @ @ @ @ @ @ @ @ @ @ @ @ @ @ @ @ @ @ @ @ @ @ @ @ @ @ @ @ @ @ @ @ @ @ @ @ @ @ @ @ @ @ @ @ @ ",
"+ @ @ @ @ @ @ @ @ @ @ @ @ @ @ @ @ @ @ @ @ @ @ @ @ @ @ @ @ @ @ @ @ @ @ @ @ @ @ @ @ @ @ @ @ @ @ @ @ @ @ @ @ @ @ @ @ @ @ @ @ @ @ @ @ @ @ @ @ @ @ ",
"+ @ @ @ @ @ @ @ @ @ @ @ @ @ @ @ @ @ @ @ @ @ @ @ @ @ @ @ @ @ @ @ @ @ @ @ @ @ @ @ @ @ @ @ @ @ @ @ @ @ @ @ @ @ @ @ @ @ @ @ @ @ @ @ @ @ @ @ @ @ @ ",
"+ @ @ @ @ @ @ @ @ @ @ @ @ @ @ @ @ @ @ @ @ @ @ @ @ @ @ @ @ @ @ @ @ @ @ @ @ @ @ @ @ @ @ @ @ @ @ @ @ @ @ @ @ @ @ @ @ @ @ @ @ @ @ @ @ @ @ @ @ @ @ ",
"+ @ @ @ @ @ @ @ @ @ @ @ @ @ @ @ @ @ @ @ @ @ @ @ @ @ @ @ @ @ @ @ @ @ @ @ @ @ @ @ @ @ @ @ @ @ @ @ @ @ @ @ @ @ @ @ @ @ @ @ @ @ @ @ @ @ @ @ @ @ @ ",
"+ @ @ @ @ @ @ @ @ @ @ @ @ @ @ @ @ @ @ @ @ @ @ @ @ @ @ @ @ @ @ @ @ @ @ @ @ @ @ @ @ @ @ @ @ @ @ @ @ @ @ @ @ @ @ @ @ @ @ @ @ @ @ @ @ @ @ @ @ @ @ "};
