/* XPM */
static char * hwn_xpm[] = {
"71 71 553 2",
"  	c None",
". 	c #FF545D",
"+ 	c #FF535C",
"@ 	c #FF565E",
"# 	c #EF545C",
"$ 	c #A83F44",
"% 	c #D24B53",
"& 	c #91373C",
"* 	c #7D3136",
"= 	c #E6525A",
"- 	c #9F3C42",
"; 	c #020101",
"> 	c #3E1F20",
", 	c #BD4C51",
"' 	c #CF4B52",
") 	c #1E1112",
"! 	c #000000",
"~ 	c #7C3135",
"{ 	c #FD535B",
"] 	c #86383C",
"^ 	c #411B1E",
"/ 	c #CE4B52",
"( 	c #903A3E",
"_ 	c #261415",
": 	c #D64F56",
"< 	c #8A393D",
"[ 	c #111111",
"} 	c #612A2C",
"| 	c #F4565E",
"1 	c #FA555E",
"2 	c #5B272A",
"3 	c #232323",
"4 	c #1B1B1B",
"5 	c #88383C",
"6 	c #9C3E43",
"7 	c #010101",
"8 	c #484848",
"9 	c #3E3E3E",
"0 	c #91363B",
"a 	c #E95259",
"b 	c #301618",
"c 	c #040404",
"d 	c #9A9A9A",
"e 	c #9E9E9E",
"f 	c #382223",
"g 	c #C94E55",
"h 	c #B4454A",
"i 	c #060404",
"j 	c #8D8D8D",
"k 	c #020202",
"l 	c #311719",
"m 	c #A94247",
"n 	c #A14045",
"o 	c #190D0E",
"p 	c #0B0B0B",
"q 	c #BEBEBE",
"r 	c #E7E7E7",
"s 	c #2F2F2F",
"t 	c #542A2C",
"u 	c #CD4E55",
"v 	c #CB4B52",
"w 	c #110909",
"x 	c #262626",
"y 	c #6D6D6D",
"z 	c #0D0808",
"A 	c #0C0C0C",
"B 	c #C5C5C5",
"C 	c #FCFCFC",
"D 	c #656565",
"E 	c #401D1F",
"F 	c #A74045",
"G 	c #E1525A",
"H 	c #DB5057",
"I 	c #C6484E",
"J 	c #C0474D",
"K 	c #CE4D54",
"L 	c #DF5159",
"M 	c #F7545C",
"N 	c #DE4F56",
"O 	c #1F0E0F",
"P 	c #030303",
"Q 	c #151515",
"R 	c #D2D2D2",
"S 	c #FFFFFF",
"T 	c #9F9F9F",
"U 	c #0D0909",
"V 	c #241415",
"W 	c #1E1111",
"X 	c #10090A",
"Y 	c #080606",
"Z 	c #120B0B",
"` 	c #211213",
" .	c #732F33",
"..	c #F6545C",
"+.	c #B8454C",
"@.	c #130A0B",
"#.	c #353535",
"$.	c #646464",
"%.	c #191919",
"&.	c #181818",
"*.	c #D7D7D7",
"=.	c #D5D5D5",
"-.	c #070707",
";.	c #0A0A0A",
">.	c #37181A",
",.	c #D85058",
"'.	c #F0535C",
").	c #FA545D",
"!.	c #FA565E",
"~.	c #61282B",
"{.	c #474747",
"].	c #BABABA",
"^.	c #686868",
"/.	c #161616",
"(.	c #575757",
"_.	c #E5E5E5",
":.	c #F6F6F6",
"<.	c #ADADAD",
"[.	c #D4D4D4",
"}.	c #B8B8B8",
"|.	c #818181",
"1.	c #454545",
"2.	c #121212",
"3.	c #231213",
"4.	c #381A1B",
"5.	c #592629",
"6.	c #813539",
"7.	c #B0444A",
"8.	c #DE4F57",
"9.	c #C34950",
"0.	c #160C0C",
"a.	c #343434",
"b.	c #C2C2C2",
"c.	c #A8A8A8",
"d.	c #131313",
"e.	c #4A4A4A",
"f.	c #EFEFEF",
"g.	c #FEFEFE",
"h.	c #F2F2F2",
"i.	c #BFBFBF",
"j.	c #767676",
"k.	c #282828",
"l.	c #070404",
"m.	c #392021",
"n.	c #CA4D53",
"o.	c #7A3135",
"p.	c #050505",
"q.	c #989898",
"r.	c #8C8C8C",
"s.	c #303030",
"t.	c #B2B2B2",
"u.	c #D6D6D6",
"v.	c #7F7F7F",
"w.	c #242424",
"x.	c #3A1E20",
"y.	c #A04246",
"z.	c #FD5A62",
"A.	c #EA525A",
"B.	c #371B1C",
"C.	c #383838",
"D.	c #EAEAEA",
"E.	c #CECECE",
"F.	c #858585",
"G.	c #AEAEAE",
"H.	c #C4C4C4",
"I.	c #616161",
"J.	c #130E0E",
"K.	c #35191B",
"L.	c #6D2D30",
"M.	c #AD4148",
"N.	c #E5515A",
"O.	c #BC474D",
"P.	c #0C0909",
"Q.	c #717171",
"R.	c #8F8F8F",
"S.	c #1F1F1F",
"T.	c #070505",
"U.	c #311819",
"V.	c #CF4F55",
"W.	c #853539",
"X.	c #A4A4A4",
"Y.	c #AAAAAA",
"Z.	c #281415",
"`.	c #B84147",
" +	c #F9565F",
".+	c #57282B",
"++	c #BDBDBD",
"@+	c #3F3F3F",
"#+	c #110E0E",
"$+	c #5B3133",
"%+	c #8B3B3F",
"&+	c #E1545C",
"*+	c #E8545C",
"=+	c #2E1718",
"-+	c #505050",
";+	c #EEEEEE",
">+	c #CACACA",
",+	c #BCBCBC",
"'+	c #C0C0C0",
")+	c #F8F8F8",
"!+	c #060606",
"~+	c #632C2E",
"{+	c #CA4B51",
"]+	c #A73F45",
"^+	c #464646",
"/+	c #101010",
"(+	c #090909",
"_+	c #757575",
":+	c #898989",
"<+	c #A6A6A6",
"[+	c #1C1C1C",
"}+	c #361B1C",
"|+	c #A33E43",
"1+	c #DA5059",
"2+	c #432223",
"3+	c #4E4E4E",
"4+	c #080808",
"5+	c #A0A0A0",
"6+	c #727272",
"7+	c #747474",
"8+	c #F5F5F5",
"9+	c #D1D1D1",
"0+	c #171717",
"a+	c #2E2E2E",
"b+	c #E8E8E8",
"c+	c #8B8B8B",
"d+	c #1A1616",
"e+	c #8F393D",
"f+	c #FD555E",
"g+	c #773337",
"h+	c #202020",
"i+	c #B5B5B5",
"j+	c #2C2C2C",
"k+	c #CFCFCF",
"l+	c #F4F4F4",
"m+	c #606060",
"n+	c #803034",
"o+	c #FE5660",
"p+	c #B6474D",
"q+	c #170F0F",
"r+	c #878787",
"s+	c #DDDDDD",
"t+	c #323232",
"u+	c #565656",
"v+	c #525252",
"w+	c #C8C8C8",
"x+	c #999999",
"y+	c #333333",
"z+	c #EDEDED",
"A+	c #C7C7C7",
"B+	c #2A2A2A",
"C+	c #8D373C",
"D+	c #F4575F",
"E+	c #5B2A2C",
"F+	c #4B4B4B",
"G+	c #A7A7A7",
"H+	c #E0E0E0",
"I+	c #0F0F0F",
"J+	c #3A3A3A",
"K+	c #E2E2E2",
"L+	c #909090",
"M+	c #ABABAB",
"N+	c #888888",
"O+	c #211818",
"P+	c #CE4E54",
"Q+	c #A54347",
"R+	c #141313",
"S+	c #919191",
"T+	c #8E8E8E",
"U+	c #E4E4E4",
"V+	c #1A1010",
"W+	c #652C2F",
"X+	c #8B3D41",
"Y+	c #EB5B62",
"Z+	c #F1575F",
"`+	c #4F2628",
" @	c #555555",
".@	c #D9D9D9",
"+@	c #7C7C7C",
"@@	c #B0B0B0",
"#@	c #515151",
"$@	c #979797",
"%@	c #181515",
"&@	c #8E3B3F",
"*@	c #FF555E",
"=@	c #9F4145",
"-@	c #111010",
";@	c #FDFDFD",
">@	c #3B3B3B",
",@	c #802C30",
"'@	c #E1535A",
")@	c #432123",
"!@	c #5A5A5A",
"~@	c #737373",
"{@	c #8A8A8A",
"]@	c #822E32",
"^@	c #803438",
"/@	c #B6B6B6",
"(@	c #6F6F6F",
"_@	c #212121",
":@	c #0E0E0E",
"<@	c #9A4146",
"[@	c #B6444A",
"}@	c #1D1112",
"|@	c #5B5B5B",
"1@	c #A9A9A9",
"2@	c #FBFBFB",
"3@	c #221516",
"4@	c #AE4247",
"5@	c #4E2426",
"6@	c #DBDBDB",
"7@	c #929292",
"8@	c #808080",
"9@	c #363636",
"0@	c #432022",
"a@	c #E05259",
"b@	c #FD5660",
"c@	c #6F2B2F",
"d@	c #2D2D2D",
"e@	c #E3E3E3",
"f@	c #B9B9B9",
"g@	c #222222",
"h@	c #868686",
"i@	c #291919",
"j@	c #492224",
"k@	c #291617",
"l@	c #B3444A",
"m@	c #96393E",
"n@	c #1D1D1D",
"o@	c #F7F7F7",
"p@	c #1A1A1A",
"q@	c #A2A2A2",
"r@	c #676767",
"s@	c #361E1F",
"t@	c #AE484E",
"u@	c #E55159",
"v@	c #F6565E",
"w@	c #BF474E",
"x@	c #271717",
"y@	c #AFAFAF",
"z@	c #F1F1F1",
"A@	c #4F4F4F",
"B@	c #CBCBCB",
"C@	c #584647",
"D@	c #703336",
"E@	c #2A1819",
"F@	c #331617",
"G@	c #BD4349",
"H@	c #F9545D",
"I@	c #63282B",
"J@	c #393939",
"K@	c #7A7A7A",
"L@	c #E9E9E9",
"M@	c #1E1313",
"N@	c #5B393B",
"O@	c #794044",
"P@	c #973C41",
"Q@	c #D95158",
"R@	c #E7545C",
"S@	c #301B1C",
"T@	c #471D20",
"U@	c #D25258",
"V@	c #D54D54",
"W@	c #1C0E0F",
"X@	c #777777",
"Y@	c #828282",
"Z@	c #21191A",
"`@	c #A94348",
" #	c #F4555D",
".#	c #FB545D",
"+#	c #C44F55",
"@#	c #211D1D",
"##	c #F3F3F3",
"$#	c #444444",
"%#	c #5C2629",
"&#	c #ED545C",
"*#	c #AA4248",
"=#	c #0E0D0D",
"-#	c #595959",
";#	c #707070",
">#	c #B3B3B3",
",#	c #545454",
"'#	c #231717",
")#	c #9F454B",
"!#	c #2B2B2B",
"~#	c #E6E6E6",
"{#	c #823337",
"]#	c #89373B",
"^#	c #7D7D7D",
"/#	c #B7B7B7",
"(#	c #482224",
"_#	c #B14448",
":#	c #F2575F",
"<#	c #4A2628",
"[#	c #5F5F5F",
"}#	c #FAFAFA",
"|#	c #0B0808",
"1#	c #1C1111",
"2#	c #C1484E",
"3#	c #773134",
"4#	c #9D9D9D",
"5#	c #B1B1B1",
"6#	c #6F2E32",
"7#	c #DC5159",
"8#	c #AF444A",
"9#	c #A3A3A3",
"0#	c #141414",
"a#	c #422223",
"b#	c #492123",
"c#	c #A13E43",
"d#	c #722F33",
"e#	c #9C9C9C",
"f#	c #A1A1A1",
"g#	c #75292E",
"h#	c #F4565F",
"i#	c #F4535C",
"j#	c #582528",
"k#	c #090808",
"l#	c #9A3B40",
"m#	c #F3535C",
"n#	c #833539",
"o#	c #272727",
"p#	c #622A2D",
"q#	c #F25860",
"r#	c #993B40",
"s#	c #121111",
"t#	c #31181A",
"u#	c #CE4C53",
"v#	c #AE434A",
"w#	c #090606",
"x#	c #939393",
"y#	c #6B6B6B",
"z#	c #6C6C6C",
"A#	c #1B0F10",
"B#	c #C1494E",
"C#	c #C54C53",
"D#	c #341C1E",
"E#	c #787878",
"F#	c #6D2C30",
"G#	c #FC565F",
"H#	c #E75159",
"I#	c #441F21",
"J#	c #494949",
"K#	c #252525",
"L#	c #ECECEC",
"M#	c #373737",
"N#	c #6A2F33",
"O#	c #FC5760",
"P#	c #DE545B",
"Q#	c #54282A",
"R#	c #150D0D",
"S#	c #BB464C",
"T#	c #AA3E44",
"U#	c #1F0C0D",
"V#	c #6E6E6E",
"W#	c #B4474D",
"X#	c #F35E66",
"Y#	c #66282B",
"Z#	c #6C2D30",
"`#	c #FD565F",
" $	c #421E20",
".$	c #1E1E1E",
"+$	c #292929",
"@$	c #5B2B2D",
"#$	c #F5585F",
"$$	c #783135",
"%$	c #190E10",
"&$	c #190E0F",
"*$	c #271314",
"=$	c #DF4E56",
"-$	c #E25158",
";$	c #8E383C",
">$	c #3B1D1F",
",$	c #261314",
"'$	c #B9474D",
")$	c #90393E",
"!$	c #7E7E7E",
"~$	c #422022",
"{$	c #A54A4F",
"]$	c #983B3F",
"^$	c #E8525A",
"/$	c #CD4D54",
"($	c #5B282B",
"_$	c #0B0909",
":$	c #050303",
"<$	c #34191A",
"[$	c #9F383D",
"}$	c #AC4248",
"|$	c #1F1515",
"1$	c #7C3035",
"2$	c #F2555E",
"3$	c #C8494F",
"4$	c #B04248",
"5$	c #B34349",
"6$	c #DC5057",
"7$	c #D24E55",
"8$	c #402021",
"9$	c #DADADA",
"0$	c #1A0F0F",
"a$	c #B9454B",
"b$	c #FC5962",
"c$	c #6C3033",
"d$	c #F6555D",
"e$	c #AD454A",
"f$	c #0D0A0A",
"g$	c #848484",
"h$	c #0C0708",
"i$	c #B04247",
"j$	c #F3565F",
"k$	c #522527",
"l$	c #9B9B9B",
"m$	c #030202",
"n$	c #642A2E",
"o$	c #B24349",
"p$	c #150D0E",
"q$	c #603034",
"r$	c #62292C",
"s$	c #5E2A2D",
"t$	c #E75058",
"u$	c #753235",
"v$	c #5A2629",
"w$	c #F0565E",
"x$	c #EA5159",
"y$	c #EF545D",
"z$	c #3C1E20",
"A$	c #424242",
"B$	c #DA5058",
"C$	c #1C0F10",
"D$	c #CDCDCD",
"E$	c #F9555D",
"F$	c #C3484E",
"G$	c #0C0707",
"H$	c #414141",
"I$	c #201011",
"J$	c #DD4F56",
"K$	c #BE484E",
"L$	c #2A191A",
"M$	c #221213",
"N$	c #221314",
"O$	c #231314",
"P$	c #231415",
"Q$	c #241516",
"R$	c #251516",
"S$	c #241314",
"T$	c #251314",
"U$	c #321A1C",
"V$	c #C84A51",
"W$	c #E4525A",
"X$	c #E35159",
"Y$	c #E25159",
"Z$	c #E15159",
"`$	c #E5525A",
" %	c #FC575F",
". + + + + + + + + + + + + + + + + + + + + + + + + + + + + + + + + + + + + + + + + + + + + + + + + + + + + + + + + + + + + + + + + + + + + + + ",
"+ . . . . . . . . . . . . . . . . . . . . . . . . . . . . . . . . . . . . . . . . . . . . . . . . . . . . . . . . . . . . . . . . . . . . . . ",
"+ . . . . . . . . . . . . . . . . . . . . . . . . . . . . . . . . . . . . . . . . . . . . . . . . . . . . . . . . . . . . . . . . . . . . . . ",
"+ . . . . . . . . . . . . . . . . . . . . . . . . . . . . . . . . . . . . . . . . . . . . . . . . . . . . . . . . . . . . . . . . . . . . . . ",
"+ . . . . . . . . . . . . . . . . . . . . . . . . . . . . . . . . . . . . . . . . . . . . . . . . . . . . . . . . . . . . . . . . . . . . . . ",
"+ . . . . . . . . . . . . . . . . . . . . . . . . . . . . . . . . . . . . . . . . . . . . . . . . . . . . . . . . . . . . . . . . . . . . . . ",
"+ . . . . . . . . . . . . . . . . . . . . . . . . . . . + @ . . . . . . . . . . . . . . . . . . . . . . . . . . . . . . . . . . . . . . . . . ",
"+ . . . . . . . . . . . . . . . . . . # $ % . . . . . + & * = . . . . . . . . . . . . . . . . . . . . . . . . . . . . . . . . . . . . . . . . ",
"+ . . . . . . . . . . . . . . . . . . - ; > , . . . . ' ) ! ~ { . . . . . . . . . . . . . . . . . . . . . . . . . . . . . . . . . . . . . . . ",
"+ . . . . . . . . . . . . . . . . . + ] ! ! ^ / . . . ( ! ! _ : . . . . . . . . . . . . . . . . . . . . . . . . . . . . . . . . . . . . . . . ",
"+ . . . . . . . . . . . . . . . . . . < ! [ ! } | . 1 2 ! 3 4 5 . . . . . . . . . . . . . . . . . . . . . . . . . . . . . . . . . . . . . . . ",
"+ . . . . . . . . . . . . . . . . . . 6 7 8 9 ; 0 . a b c d e f g . . . . . . . . . . . . . . . . . . . . . . . . . . . . . . . . . . . . . . ",
"+ . . . . . . . . . . . . . . . . . . h i 8 j k l m n o p q r s t u . . . . . . . . . . . . . . . . . . . . . . . . . . . . . . . . . . . . . ",
"+ . . . . . . . . . . . . . . . . . . v w x y p ! z z ! A B C D ! E F G H I J K L M . . . . . . . . . . . . . . . . . . . . . . . . . . . . . ",
"+ . . . . . . . . . . . . . . . . . . N O ! ! P ! ! ! ! Q R S T P ! U V W X Y Z `  .... . . . . . . . . . . . . . . . . . . . . . . . . . . . ",
"+ . . . . . . . . . . . . . . . . . . +.@.! #.$.%.! ! ! &.*.S =.4 -.&.;.! ! ! ! ! >.,.'.).+ . . . . . . . . . . . . . . . . . . . . . . . . . ",
"+ . . . . . . . . . . . . . . . . . !.~.! {.].^.! ! ! /.(._.S :.T <.[.}.|.1.2.! ! ! 3.4.5.6.7.8.. . . . . . . . . . . . . . . . . . . . . . . ",
"+ . . . . . . . . . . . . . . . . . 9.0.a.b.c.c ! d.e.].f.S S S g.S S S S h.i.j.k.! ! ! ! ! l.m.n.. . . . . . . . . . . . . . . . . . . . . . ",
"+ . . . . . . . . . . . . . . . . . o.p.q.S r.! s.t._.S S S S S S S S S S S S S u.v.w.! ! ! x.y.z.. . . . . . . . . . . . . . . . . . . . . . ",
"+ . . . . . . . . . . . . . . . . A.B.C.D.S E.F.G.S S S S S S S S S S S S S S S S S H.I.7 ! J.K.L.M.N.+ . . . . . . . . . . . . . . . . . . . ",
"+ . . . . . . . . . . . . . . . . O.P.Q.g.S S g.S S S S S S S S S S S S S S S S S S S :.R.S.! ! ! T.U.~ V.. . . . . . . . . . . . . . . . . . ",
"+ . . . . . . . . . . . . . . . . W.c X.S S S S S S S S S S S S S S S S S S S S S S S S S Y.C.! ! ! ! ! Z.`.. . . . . . . . . . . . . . . . . ",
"+ . . . . . . . . . . . . . . .  +.+4 =.S S S S S S S S S S S S S S S S S S S S S S S S S S ++@+! ! #+$+%+&+. . . . . . . . . . . . . . . . . ",
"+ . . . . . . . . . . . . . . . *+=+-+:.S S ;+>+,+'+[.)+S S S S S S S g.g.S S S S S S S S S S ,+a.! !+~+{+. . . . . . . . . . . . . . . . . . ",
"+ . . . . . . . . . . . . . . . ]+X q.S g.e ^+/+(+/.&._+)+S S S S S g.:+R.S S S S S S S S S S S <+[+! ! }+|+. . . . . . . . . . . . . . . . . ",
"+ . . . . . . . . . . . . . . 1+2+3+D.g.v.4+w.d.w.5+6+7+8+S S S S S 9+0+a+b+S S S S S S S S S S S c+! ! ! d+e+f+. . . . . . . . . . . . . . . ",
"+ . . . . . . . . . . . . . f+g+h+i+S R.7 j+>+R.%.k+C :.S S S S S S G.c x _.S S S S S S S S S S S l+m+! ! ! p.n+o+. . . . . . . . . . . . . . ",
"+ . . . . . . . . . . . . . p+q+r+S s+t+u+v+k+c+[ w+S S S S S S S S x+! y+z+S S S S S S S S S S S S A+B+! ! ! 7 C+. . . . . . . . . . . . . . ",
"+ . . . . . . . . . . . . D+E+F+D.S G+t+H+j.3 I+J+K+S S S S S S S S L+! v+D.M+H+S S S S S S S S S S S N+! ! ! ! O+P+. . . . . . . . . . . . . ",
"+ . . . . . . . . . . . . Q+R+G+S S S+^.C r T+v.++S S S S S S S S S c+! |.j ! S+S S S S S S S S S S S U+@+! V+W+X+Y+. . . . . . . . . . . . . ",
"+ . . . . . . . . . . . Z+`+ @8+S S s+.@S S S g.S S S S S S S S S S +@;.@@#@c <+S S S S S S S S S S S S $@k %@&@*@. . . . . . . . . . . . . . ",
"+ . . . . . . . . . . . =@-@c.S S S S S S S S S S S S S S S S S S ;@I.a.w+x @+_.S S S S S S S S S S S S r >@! c ,@*@. . . . . . . . . . . . . ",
"+ . . . . . . . . . . '@)@!@8+S S S S S S S S S S S S S S S S S S z+C.~@r.(+e S S S S S S S S S S S S S S {@! ! 7 ]@. . . . . . . . . . . . . ",
"+ . . . . . . . . . . ^@/./@S S S S S S S S S S S S S S S S S S S @@A s.Q (@;@S S S S S S S S S S S S S S [._@! ! :@<@. . . . . . . . . . . . ",
"+ . . . . . . . . . [@}@j.g.S S S S S S S S S S S S S S S S S S 8+|@! ! v+G+1@2@S S S S S S S S S S S S S C D ! ! ! 3@4@. . . . . . . . . . . ",
"+ . . . . . . . . L 5@{.6@S S S S S S S S S S S S S S S S S S S 7@P ! s 8@9@h+6@S S S S S S S S S S S S S S 1@-.! ! ! 0@a@. . . . . . . . . . ",
"+ . . . . . . . b@c@d@|.X.;@S S S S S S S S S S e@5+:.S S S S f@B+! ! g@y+[ h@S S S S S S S S S S S S S S S e@j+! i@j@k@l@. . . . . . . . . . ",
"+ . . . . . . . m@n@q.!@!@o@S S S S S S S S S S 9+p@q@S S S q @+! ! ! p.{.c.S S S S S S S S S S S S S S S S ;@r@! s@t@u@v@. . . . . . . . . . ",
"+ . . . . . . w@x@8@y@p@Y.S S S S S S S S S S S z@#.A@B B@r.C@D@E@J+Q.<+D.S S S S S S S S S S S S S S S S S S q@c ! F@G@. . . . . . . . . . . ",
"+ . . . . . H@I@J@w+v+K@g.S S S S S S S S S S S L@d@M@N@O@P@Q@R@S@Y.g.S S S S S S S S S S S S S S S S S S S S u.4 ! ! T@U@. . . . . . . . . . ",
"+ . . . . . V@W@v.X@3+L@S S S S S S S S S S S h.Y@Z@`@ #.#. . +#@#B@S S S S S S S S S S S S S S S S S S S S S ##$#! ! ! %#&#. . . . . . . . . ",
"+ . . . . . *#=#1@-#[+;#h.S S S S S S S S S >#,#'#)#. . . . . %+!#~#S S S S S S S S S S S S S S S S S S S S S S j.! ! ! ! {#+ . . . . . . . . ",
"+ . . . . . ]#/.R H+^#(+/#S S S S S S S S 5+g@(#_#. . . . . :#<#[#}#S S S S S S S S S S S S S S S S S S S S S S <+c ! |#! 1#2#. . . . . . . . ",
"+ . . . . . 3#0+*.S *.%.4#S S S S S S S 5#k.6#7#. . . . . . 8##+9#S S S S S S S S S S S S S S S S S S S S S S S k+0#! a#< b#c#. . . . . . . . ",
"+ . . . . . d#d.k+S e#:@y@++>#S S S S f#d@g#h#. . . . . . i#j#1.D.S S S S S S S S S S S S S S S S S S S S S S S D.s ! k#l#m#i#. . . . . . . . ",
"+ . . . . + n#p ++D.u+m+M+o#y+r S g.Y@2.p#q#. . . . . . . r#s#q@S S S S S S S S S S S S S S S S S S S S S S S S }#v+! ! t#u#. . . . . . . . . ",
"+ . . . . . v#w#x#S *.z+y#! z#C S :+! A#B#. . . . . . . C#D#y C S S S S S S S S S S S S S S S S S S S S S S S S S E#! ! ! F#G#. . . . . . . . ",
"+ . . . . . H#I#v+8+S ##J#K#w+S L#M#! N#O#. . . . . . P#Q#1.=.S S S S S S S S S S S S S S S S S S S S S S S S S S e#k ! ! R#S#. . . . . . . . ",
"+ . . . . . . T#U#E#*.r v+V#S S =.4 U W#. . . . . . X#Y#w.t.S S S S S S S S S S S S S S S S S S S S S S S S S S S ,+p ! ! ! Z#`#. . . . . . . ",
"+ . . . . . . . T# $.$+$-.x#S S r+! @$#$. . . . . .#$$4+$@S S S S S S S S S S S S S S S S S S S S S S S S S S S S =.&.! %$&$*$=$. . . . . . . ",
"+ . . . . . . . . -$;$>$!  @X.^#&.,$'$. . . . . . )$c !$S S S S S S S S S S S S S S S S S S S S S S S S S S S S S r B+! ~${$]$^$. . . . . . . ",
"+ . . . . . . . . . . /$($X _$:$<$[$. . . . . . }$|$$.h.S S S S S S S S S S S S S S S S S S S S S S S S S S S S S ##9 ! ! 1$. . . . . . . . . ",
"+ . . . . . . . . . . . 2$3$4$5$6$. . . . . . 7$8$e.9$S S S S S S S S S S S S S S S S S S S S S S S S S S S S S S 2@ @! ! 0$a$. . . . . . . . ",
"+ . . . . . . . . . . . . . . . . . . . . . b$c$_@i+S S S S S S S S S S S S S S S S S S S S S S S S S S S S S S S S y ! ! ! %#d$. . . . . . . ",
"+ . . . . . . . . . . . . . . . . . . . . . e$f$h@S S S S S S S S S S S S S S S S S S S S S S S S S S S S S S S S S g$! ! ! h$i$. . . . . . . ",
"+ . . . . . . . . . . . . . . . . . . . . j$k$9 U+S S S S S S S S S S S S S S S S S S S S S S S S S S S S S S S S S l$k ! m$! n$).. . . . . . ",
"+ . . . . . . . . . . . . . . . . . . . . o$U j S S S S S S S S S S S S S S S S S S S S S S S S S S S S S S S S S S G.c p$q$r$s$t$. . . . . . ",
"+ . . . . . . . . . . . . . . . . . . . *@u$p@R S S S S S S S S S S S S S S S S S S S S S S S S S S S S S S S S S S q ;.! v$w$x$. . . . . . . ",
"+ . . . . . . . . . . . . . . . . . . . y$z$A$l+S S S S S S S S S S S S S S S S S S S S S S S S S S S S S S S S S S >+I+! Y $ . . . . . . . . ",
"+ . . . . . . . . . . . . . . . . . . . B$C$$.:.o@o@o@o@o@o@o@o@o@o@o@o@o@o@o@o@o@o@o@o@o@o@o@o@o@o@o@o@o@o@o@o@o@o@D$0+! ! %#E$. . . . . . . ",
"+ . . . . . . . . . . . . . . . . . . . F$G$h+{.{.{.{.{.{.{.{.{.{.{.{.{.{.{.{.{.{.{.{.{.{.{.{.{.{.{.{.{.{.{.{.{.{.{.H$k ! ! I$J$. . . . . . . ",
"+ . . . . . . . . . . . . . . . . . . . K$L$` M$M$N$O$P$V V Q$R$R$R$R$R$R$R$R$R$R$Q$V V P$O$N$M$M$` M$M$3.S$T$T$T$T$T$T$T$T$U$V$. . . . . . . ",
"+ . . . . . . . . . . . . . . . . . . . `#W$W$X$Y$Y$Y$Y$Z$Z$Y$Y$Y$Y$Y$Y$Y$Y$Y$Y$Y$Y$Z$Z$Y$Y$Y$Y$X$W$W$`$`$`$`$`$`$`$`$`$`$`$`$ %. . . . . . . ",
"+ . . . . . . . . . . . . . . . . . . . . . . . . . . . . . . . . . . . . . . . . . . . . . . . . . . . . . . . . . . . . . . . . . . . . . . ",
"+ . . . . . . . . . . . . . . . . . . . . . . . . . . . . . . . . . . . . . . . . . . . . . . . . . . . . . . . . . . . . . . . . . . . . . . ",
"+ . . . . . . . . . . . . . . . . . . . . . . . . . . . . . . . . . . . . . . . . . . . . . . . . . . . . . . . . . . . . . . . . . . . . . . ",
"+ . . . . . . . . . . . . . . . . . . . . . . . . . . . . . . . . . . . . . . . . . . . . . . . . . . . . . . . . . . . . . . . . . . . . . . ",
"+ . . . . . . . . . . . . . . . . . . . . . . . . . . . . . . . . . . . . . . . . . . . . . . . . . . . . . . . . . . . . . . . . . . . . . . ",
"+ . . . . . . . . . . . . . . . . . . . . . . . . . . . . . . . . . . . . . . . . . . . . . . . . . . . . . . . . . . . . . . . . . . . . . . ",
"+ . . . . . . . . . . . . . . . . . . . . . . . . . . . . . . . . . . . . . . . . . . . . . . . . . . . . . . . . . . . . . . . . . . . . . . ",
"+ . . . . . . . . . . . . . . . . . . . . . . . . . . . . . . . . . . . . . . . . . . . . . . . . . . . . . . . . . . . . . . . . . . . . . . "};
