/* XPM */
static char * hwr_xpm[] = {
"71 71 386 2",
"  	c None",
". 	c #FF545D",
"+ 	c #FF535C",
"@ 	c #FF565E",
"# 	c #FB555E",
"$ 	c #F7555D",
"% 	c #F5535C",
"& 	c #F45860",
"* 	c #CF4C53",
"= 	c #C3474E",
"- 	c #C04A50",
"; 	c #B64349",
"> 	c #B23F46",
", 	c #C14A50",
"' 	c #C4464E",
") 	c #D14D54",
"! 	c #F9575F",
"~ 	c #FF555E",
"{ 	c #F1545C",
"] 	c #F4535B",
"^ 	c #F9555E",
"/ 	c #FD545D",
"( 	c #E3535A",
"_ 	c #B34449",
": 	c #9A3F43",
"< 	c #803438",
"[ 	c #6A2D30",
"} 	c #592528",
"| 	c #4D2325",
"1 	c #532628",
"2 	c #D04C53",
"3 	c #A94449",
"4 	c #160E0F",
"5 	c #0C0607",
"6 	c #0B0707",
"7 	c #080404",
"8 	c #060303",
"9 	c #080405",
"0 	c #0C0606",
"a 	c #1E1313",
"b 	c #BD474D",
"c 	c #C2494F",
"d 	c #442224",
"e 	c #421C1E",
"f 	c #502325",
"g 	c #64292D",
"h 	c #7D3437",
"i 	c #983D43",
"j 	c #B4444A",
"k 	c #E6535B",
"l 	c #8B383D",
"m 	c #070404",
"n 	c #050505",
"o 	c #0C0C0C",
"p 	c #151515",
"q 	c #1B1B1B",
"r 	c #171717",
"s 	c #060404",
"t 	c #B4454A",
"u 	c #A34348",
"v 	c #020202",
"w 	c #424242",
"x 	c #7B7B7B",
"y 	c #878787",
"z 	c #8D8D8D",
"A 	c #8C8C8C",
"B 	c #7A7A7A",
"C 	c #3C3C3C",
"D 	c #090606",
"E 	c #BC464C",
"F 	c #A53F45",
"G 	c #040303",
"H 	c #191919",
"I 	c #953C41",
"J 	c #83373A",
"K 	c #090909",
"L 	c #808080",
"M 	c #C3C3C3",
"N 	c #D3D3D3",
"O 	c #DADADA",
"P 	c #939393",
"Q 	c #993D43",
"R 	c #030303",
"S 	c #919191",
"T 	c #FFFFFF",
"U 	c #858585",
"V 	c #8B363C",
"W 	c #070707",
"X 	c #9C9C9C",
"Y 	c #D2D2D2",
"Z 	c #C2C2C2",
"` 	c #787878",
" .	c #913B40",
"..	c #BDBDBD",
"+.	c #C4C4C4",
"@.	c #0D0D0D",
"#.	c #7F3538",
"$.	c #FD555E",
"%.	c #A24449",
"&.	c #BB494F",
"*.	c #FD575F",
"=.	c #723034",
"-.	c #131313",
";.	c #CECECE",
">.	c #B1B1B1",
",.	c #060606",
"'.	c #DBDBDB",
").	c #1C1C1C",
"!.	c #2E191A",
"~.	c #6C3034",
"{.	c #452426",
"].	c #000000",
"^.	c #030202",
"/.	c #522729",
"(.	c #291718",
"_.	c #232323",
":.	c #E1E1E1",
"<.	c #EAEAEA",
"[.	c #414141",
"}.	c #121212",
"|.	c #979797",
"1.	c #4A4A4A",
"2.	c #F0F0F0",
"3.	c #ECECEC",
"4.	c #E8E8E8",
"5.	c #D5D5D5",
"6.	c #FEFEFE",
"7.	c #FBFBFB",
"8.	c #FAFAFA",
"9.	c #F5F5F5",
"0.	c #F3F3F3",
"a.	c #E9E9E9",
"b.	c #E7E7E7",
"c.	c #E4E4E4",
"d.	c #DFDFDF",
"e.	c #DCDCDC",
"f.	c #E0E0E0",
"g.	c #E5E5E5",
"h.	c #F6F6F6",
"i.	c #7C7C7C",
"j.	c #A3A3A3",
"k.	c #757575",
"l.	c #686868",
"m.	c #5A5A5A",
"n.	c #515151",
"o.	c #444444",
"p.	c #3B3B3B",
"q.	c #363636",
"r.	c #2B2B2B",
"s.	c #282828",
"t.	c #252525",
"u.	c #202020",
"v.	c #1A1A1A",
"w.	c #1D1D1D",
"x.	c #262626",
"y.	c #2C2C2C",
"z.	c #373737",
"A.	c #454545",
"B.	c #5B5B5B",
"C.	c #696969",
"D.	c #767676",
"E.	c #868686",
"F.	c #949494",
"G.	c #A4A4A4",
"H.	c #747474",
"I.	c #923D41",
"J.	c #040404",
"K.	c #181818",
"L.	c #272727",
"M.	c #303030",
"N.	c #3D3D3D",
"O.	c #4B4B4B",
"P.	c #505050",
"Q.	c #545454",
"R.	c #565656",
"S.	c #575757",
"T.	c #434343",
"U.	c #2F2F2F",
"V.	c #222222",
"W.	c #9B3D42",
"X.	c #D45057",
"Y.	c #441B1D",
"Z.	c #383838",
"`.	c #ADADAD",
" +	c #BBBBBB",
".+	c #C5C5C5",
"++	c #D8D8D8",
"@+	c #E2E2E2",
"#+	c #E6E6E6",
"$+	c #F8F8F8",
"%+	c #F7F7F7",
"&+	c #EBEBEB",
"*+	c #D7D7D7",
"=+	c #D1D1D1",
"-+	c #BABABA",
";+	c #ACACAC",
">+	c #343434",
",+	c #4C2022",
"'+	c #DE535A",
")+	c #BA464B",
"!+	c #281415",
"~+	c #101010",
"{+	c #9D9D9D",
"]+	c #959595",
"^+	c #31191B",
"/+	c #BF464C",
"(+	c #993A40",
"_+	c #0F0F0F",
":+	c #B3B3B3",
"<+	c #FCFCFC",
"[+	c #F4F4F4",
"}+	c #F9F9F9",
"|+	c #AAAAAA",
"1+	c #1F1F1F",
"2+	c #171213",
"3+	c #A23B41",
"4+	c #7E3034",
"5+	c #3F3F3F",
"6+	c #9E9E9E",
"7+	c #8F8F8F",
"8+	c #828282",
"9+	c #6A6A6A",
"0+	c #5E5E5E",
"a+	c #555555",
"b+	c #525252",
"c+	c #4D4D4D",
"d+	c #404040",
"e+	c #3E3E3E",
"f+	c #464646",
"g+	c #5F5F5F",
"h+	c #ABABAB",
"i+	c #393939",
"j+	c #893539",
"k+	c #F55A62",
"l+	c #60292C",
"m+	c #0B0B0B",
"n+	c #161616",
"o+	c #692F32",
"p+	c #FD5A62",
"q+	c #9B3E43",
"r+	c #5D5D5D",
"s+	c #929292",
"t+	c #A0A0A0",
"u+	c #B6B6B6",
"v+	c #C1C1C1",
"w+	c #C7C7C7",
"x+	c #CFCFCF",
"y+	c #212121",
"z+	c #C6C6C6",
"A+	c #4C4C4C",
"B+	c #C0C0C0",
"C+	c #B5B5B5",
"D+	c #9F9F9F",
"E+	c #4F4F4F",
"F+	c #A34045",
"G+	c #A04246",
"H+	c #535353",
"I+	c #A94046",
"J+	c #F1F1F1",
"K+	c #DDDDDD",
"L+	c #1E1E1E",
"M+	c #A6A6A6",
"N+	c #BFBFBF",
"O+	c #B9B9B9",
"P+	c #B7B7B7",
"Q+	c #DEDEDE",
"R+	c #F2F2F2",
"S+	c #474747",
"T+	c #2D2D2D",
"U+	c #0A0A0A",
"V+	c #080808",
"W+	c #3A3A3A",
"X+	c #484848",
"Y+	c #5C5C5C",
"Z+	c #010101",
"`+	c #242424",
" @	c #2E2E2E",
".@	c #606060",
"+@	c #6D6D6D",
"@@	c #7F7F7F",
"#@	c #7E7E7E",
"$@	c #737373",
"%@	c #6C6C6C",
"&@	c #A2A2A2",
"*@	c #8A8A8A",
"=@	c #777777",
"-@	c #9A9A9A",
";@	c #6B6B6B",
">@	c #999999",
",@	c #838383",
"'@	c #888888",
")@	c #676767",
"!@	c #AEAEAE",
"~@	c #AFAFAF",
"{@	c #313131",
"]@	c #727272",
"^@	c #595959",
"/@	c #A84046",
"(@	c #A63F45",
"_@	c #9F4246",
":@	c #A03D43",
"<@	c #CCCCCC",
"[@	c #A03F45",
"}@	c #A14448",
"|@	c #111111",
"1@	c #AA494F",
"2@	c #141414",
"3@	c #AB4A50",
"4@	c #D4D4D4",
"5@	c #6E6E6E",
"6@	c #AB4A4F",
"7@	c #9E4246",
"8@	c #9E3D43",
"9@	c #A9484E",
"0@	c #933D41",
"a@	c #666666",
"b@	c #9B9B9B",
"c@	c #585858",
"d@	c #9F474C",
"e@	c #E2565D",
"f@	c #502427",
"g@	c #5A2A2C",
"h@	c #EC5B63",
"i@	c #FF5962",
"j@	c #733034",
"k@	c #A9A9A9",
"l@	c #963A3F",
"m@	c #BCBCBC",
"n@	c #B2B2B2",
"o@	c #0C0A0B",
"p@	c #9F3D42",
"q@	c #BD494F",
"r@	c #2B191A",
"s@	c #31191A",
"t@	c #C54C51",
"u@	c #E0535A",
"v@	c #512528",
"w@	c #59272A",
"x@	c #E7565D",
"y@	c #712C2F",
"z@	c #7A3236",
"A@	c #FE545D",
"B@	c #993A3F",
"C@	c #4E4E4E",
"D@	c #0E0C0C",
"E@	c #A33D43",
"F@	c #FB565F",
"G@	c #58282A",
"H@	c #64272A",
"I@	c #FC545C",
"J@	c #542729",
"K@	c #797979",
"L@	c #5D2427",
"M@	c #898989",
"N@	c #6F6F6F",
"O@	c #FDFDFD",
"P@	c #626262",
"Q@	c #502426",
"R@	c #CACACA",
"S@	c #582325",
"T@	c #C94B51",
"U@	c #241213",
"V@	c #2B1416",
"W@	c #D34E55",
"X@	c #7C3236",
"Y@	c #86353A",
"Z@	c #F2535B",
"`@	c #441F21",
" #	c #4F2426",
".#	c #F7555E",
"+#	c #E94F57",
"@#	c #2D1314",
"##	c #656565",
"$#	c #3B1E1F",
"%#	c #F2565F",
"&#	c #EF545C",
"*#	c #371A1B",
"=#	c #411F20",
"-#	c #F2525B",
";#	c #FA555D",
">#	c #7E3237",
",#	c #401C1E",
"'#	c #85373B",
")#	c #FC545D",
"!#	c #F5545D",
"~#	c #F4535C",
". + + + + + + + + + + + + + + + + + + + + + + + + + + + + + + + + + + + + + + + + + + + + + + + + + + + + + + + + + + + + + + + + + + + + + + ",
"+ . . . . . . . . . . . . . . . . . . . . . . . . . . . . . . . . . . . . . . . . . . . . . . . . . . . . . . . . . . . . . . . . . . . . . . ",
"+ . . . . . . . . . . . . . . . . . . . . . . . . . . . . . . . . . . . . . . . . . . . . . . . . . . . . . . . . . . . . . . . . . . . . . . ",
"+ . . . . . . . . . . . . . . . . . . . . . . . . . . . . . . . . . . . . . . . . . . . . . . . . . . . . . . . . . . . . . . . . . . . . . . ",
"+ . . . . . . . . . . . . . . . . . . . @ # $ % . . . . . . & * = - ; > > ; , ' ) ! . . . . . ~ { ] ^ / . . . . . . . . . . . . . . . . . . . ",
"+ . . . . . . . . . . . . . . . ( _ : < [ } | 1 2 . . . . . 3 4 5 6 7 8 8 9 6 0 a b . . . . . c d e f g h i j k . . . . . . . . . . . . . . . ",
"+ . . . . . . . . . . . . . . . l m n o p q r s t . . . . . u v w x y z A y B C D E . . . . . F G H q p o n 9 I . . . . . . . . . . . . . . . ",
"+ . . . . . . . . . . . . . . . J K L M N O P n Q . . . . . u R S T T T T T T U D E . . . . . V W X O Y Z ` n  .. . . . . . . . . . . . . . . ",
"+ . . . . . . . . . . . . . . . J K ..T T T +.@.#.~ $.$.$.$.%.R S T T T T T T U D &.$.$.$.$.*.=.-.;.T T T >.,. .. . . . . . . . . . . . . . . ",
"+ . . . . . . . . . . . . . . . J K ..T T T '.).!.~.~.~.~.~.{.].S T T T T T T U ^./.~.~.~.~.~.(._.:.T T T >.,. .. . . . . . . . . . . . . . . ",
"+ . . . . . . . . . . . . . . . J K ..T T T <.[.}.}.}.}.}.}.}.}.|.T T T T T T z }.}.}.}.}.}.}.}.1.2.T T T >.,. .. . . . . . . . . . . . . . . ",
"+ . . . . . . . . . . . . . . . J K ..T T T T N ;.;.;.;.;.;.;.;.3.T T T T T T 4.;.;.;.;.;.;.;.;.5.T T T T >.,. .. . . . . . . . . . . . . . . ",
"+ . . . . . . . . . . . . . . . J K ..T T T T T T T T T T T T T T T T T T T T T T T T T T T T T T T T T T >.,. .. . . . . . . . . . . . . . . ",
"+ . . . . . . . . . . . . . . . J K ..T T T T 6.7.8.9.0.2.a.b.c.d.e.O O O O e.f.g.b.a.2.0.h.8.7.6.T T T T >.,. .. . . . . . . . . . . . . . . ",
"+ . . . . . . . . . . . . . . . J K i.j.P U k.l.m.n.o.p.q.r.s.t.u.).q v.v.q w.u.x.s.y.z.C A.n.B.C.D.E.F.G.H.,. .. . . . . . . . . . . . . . . ",
"+ . . . . . . . . . . . . . . . I.].J.n n K o p K._.L.M.z.N.o.O.P.Q.R.S.S.R.Q.P.1.T.C z.U.L.V.K.p o K n n n ].W.. . . . . . . . . . . . . . . ",
"+ . . . . . . . . . . . . . . . X.Y.].Z.`. +.+Y ++@+#+3.2.0.9.$+8.7.7.7.7.7.7.8.%+9.0.2.&+#+:.*+=++.-+;+>+].,+'+. . . . . . . . . . . . . . . ",
"+ . . . . . . . . . . . . . . . . )+!+~+{+T T T T T T T T T T T T T T T T T T T T T T T T T T T T T T ]+W ^+/+. . . . . . . . . . . . . . . . ",
"+ . . . . . . . . . . . . . . . . . (+_+t.:+T T T T T T 6.<+8.8.$+h.[+0.0.[+h.}+8.8.<+6.T T T T T T |+1+2+3+. . . . . . . . . . . . . . . . . ",
"+ . . . . . . . . . . . . . . . . . + 4+].5+6+|+{+7+8+H.9+0+a+b+c+A.d+N.e+d+f+c+b+a+g+9+k.8+7+6+h+6+i+].j+. . . . . . . . . . . . . . . . . . ",
"+ . . . . . . . . . . . . . . . . . . k+l+].K J.J.J.W m+@.n+R ].x.L.L.L.L.L.L.t.].J.p @.m+W J.J.J.K ].o+p+. . . . . . . . . . . . . . . . . . ",
"+ . . . . . . . . . . . . . . . . . . . q+n r+s+t+h+u+v+w+x+O.y+z+#+#+b.b.#+#+..r A+;.z+B+C+|+D+S E+v F+. . . . . . . . . . . . . . . . . . . ",
"+ . . . . . . . . . . . . . . . . . . . G+,.h+T T T T T T 7.H+y+f.T T T T T T *+r Q.7.T T T T T T s+v I+. . . . . . . . . . . . . . . . . . . ",
"+ . . . . . . . . . . . . . . . . . . . G+,.h+T T T T T T 7.H+y+f.T T T T T T *+r Q.7.T T T T T T s+v I+. . . . . . . . . . . . . . . . . . . ",
"+ . . . . . . . . . . . . . . . . . . . G+,.h+7.h.J+<.c.K+Y 1.L+M+N+O+P+P+O+N+D+r O.Y Q+c.<.R+h.7.s+v I+. . . . . . . . . . . . . . . . . . . ",
"+ . . . . . . . . . . . . . . . . . . . G+v S+B.S+i+T+t.L+r R ].m+U+V+W W V+U+m+].R r L+t.T+W+X+Y+N.Z+I+. . . . . . . . . . . . . . . . . . . ",
"+ . . . . . . . . . . . . . . . . . . . G+v _+v.t.`+]. @Q..@+@H.@@y #@q V.8+y #@$@%@g+H+x.].x.`+H m+Z+I+. . . . . . . . . . . . . . . . . . . ",
"+ . . . . . . . . . . . . . . . . . . . G+,.E.++c.&@W *@7.<+6.T T T &+U.p.0.T T T 6.<+7.=@m+`.c.++H.v I+. . . . . . . . . . . . . . . . . . . ",
"+ . . . . . . . . . . . . . . . . . . . G+,.h+T T u+W 7+T T T T T T &+U.p.0.T T T T T T B m+M T T s+v I+. . . . . . . . . . . . . . . . . . . ",
"+ . . . . . . . . . . . . . . . . . . . G+,.h+T T u+W 7+T T T T T T &+U.p.0.T T T T T T B m+M T T s+v I+. . . . . . . . . . . . . . . . . . . ",
"+ . . . . . . . . . . . . . . . . . . . G+,.h+T T u+W 7+T T T T T T &+U.p.0.T T T T T T B m+M T T s+v I+. . . . . . . . . . . . . . . . . . . ",
"+ . . . . . . . . . . . . . . . . . . . G+,.h+T T u+W 7+T T T T T T &+U.p.0.T T T T T T B m+M T T s+v I+. . . . . . . . . . . . . . . . . . . ",
"+ . . . . . . . . . . . . . . . . . . . G+,.-@#+Q+F.W ;@N+:+h+&@>@P ,@).`+'@P >@&@h+:+B+0+m+D+d.#+E.v I+. . . . . . . . . . . . . . . . . . . ",
"+ . . . . . . . . . . . . . . . . . . . G+v `+L.1+p ].V+m+,.J.v n n n n n n n n v J.,.m+n ].r 1+L.w.Z+I+. . . . . . . . . . . . . . . . . . . ",
"+ . . . . . . . . . . . . . . . . . . . G+v r.w n.m.)@$@L '@M.v.s+!@~@~@~@~@!@A -.{@'@@@]@)@^@P.[.`+Z+I+. . . . . . . . . . . . . . . . . . . ",
"+ . . . . . . . . . . . . . . . . . . . G+,.D+[+8.7.6.T T 7.H+y+f.T T T T T T *+r Q.7.T T 6.7.8.[+*@v I+. . . . . . . . . . . . . . . . . . . ",
"+ . . . . . . . . . . . . . . . . . . . G+,.h+T T T T T T 7.H+y+f.T T T T T T *+r Q.7.T T T T T T s+v /@. . . . . . . . . . . . . . . . . . . ",
"+ . . . . . . . . . . . . . . . . . . . G+,.h+T T T T T T 7.H+y+f.T T T T T T *+r Q.7.T T T T T T s+v (@. . . . . . . . . . . . . . . . . . . ",
"+ . . . . . . . . . . . . . . . . . . . _@,.h+T T T T T T 7.H+y+f.T T T T T T *+r Q.7.T T T T T T s+v :@. . . . . . . . . . . . . . . . . . . ",
"+ . . . . . . . . . . . . . . . . . . . _@,.h+6.6.7.7.}+h.2.H+y+5.[+[+[+[+[+[+<@r Q.J+h.}+7.7.6.6.s+J.[@. . . . . . . . . . . . . . . . . . . ",
"+ . . . . . . . . . . . . . . . . . . . }@n H+H.l.^@H+E+S+w |@R N.5+5+5+5+5+5+p.].}.w S+E+H+m.C.H.S+n 1@. . . . . . . . . . . . . . . . . . . ",
"+ . . . . . . . . . . . . . . . . . . . }@v m+@.p 2@].2@V.`+x.x.L.L.L.Z+R L.L.L.x.t.`+V._+].n+p @.V+J.3@. . . . . . . . . . . . . . . . . . . ",
"+ . . . . . . . . . . . . . . . . . . . }@,.@@w+Y P W x @+c.g.#+#+#+4@U.p.'.#+#+#+g.c.@+%@m+{+Y z+5@n 6@. . . . . . . . . . . . . . . . . . . ",
"+ . . . . . . . . . . . . . . . . . . . _@,.h+T T u+W 7+T T T T T T &+U.p.0.T T T T T T B m+M T T s+R [@. . . . . . . . . . . . . . . . . . . ",
"+ . . . . . . . . . . . . . . . . . . . 7@,.h+T T u+W 7+T T T T T T &+U.p.0.T T T T T T B m+M T T s+R 8@. . . . . . . . . . . . . . . . . . . ",
"+ . . . . . . . . . . . . . . . . . . . }@,.h+T T u+W 7+T T T T T T &+U.p.0.T T T T T T B m+M T T s+n 9@. . . . . . . . . . . . . . . . . . . ",
"+ . . . . . . . . . . . . . . . . . . . 0@,.a@b@b@%@,.R.b@b@b@b@b@b@z u.L.S b@b@b@b@b@b@O.K H.b@b@c@n d@. . . . . . . . . . . . . . . . . . . ",
"+ . . . . . . . . . . . . . . . . . . e@f@].n n n n R n n n n n n n n R R n n n n n n n J.R n n n n ].g@h@. . . . . . . . . . . . . . . . . . ",
"+ . . . . . . . . . . . . . . . . . i@j@].X+6+k@k@k@k@k@k@k@k@k@k@k@k@k@k@k@k@k@k@k@k@k@k@k@k@k@k@>@[.].h ~ . . . . . . . . . . . . . . . . . ",
"+ . . . . . . . . . . . . . . . . . l@V+y.m@T T T T T T T T T T T T T T T T T T T T T T T T T T T T n@_.o@p@. . . . . . . . . . . . . . . . . ",
"+ . . . . . . . . . . . . . . . . q@r@U+-@T T T T T T T T T T T T T T T T T T T T T T T T T T T T T T P J.s@t@. . . . . . . . . . . . . . . . ",
"+ . . . . . . . . . . . . . . . u@v@].B.:.:.:.:.:.:.:.:.:.:.:.:.:.:.:.:.:.:.:.:.:.:.:.:.:.:.:.:.:.:.:.f.a+].w@x@. . . . . . . . . . . . . . . ",
"+ . . . . . . . . . . . . . . # y@].].q y+y+y+y+y+y+y+y+y+y+y+y+y+y+y+y+y+y+y+y+y+y+y+y+y+y+y+y+y+y+y+y+n+].].z@A@. . . . . . . . . . . . . . ",
"+ . . . . . . . . . . . . . . B@W Z+A.C@C@C@C@C@C@C@C@C@C@C@C@C@C@C@C@C@C@C@C@C@C@C@C@C@C@C@C@C@C@C@C@C@C@T.].D@E@. . . . . . . . . . . . . . ",
"+ . . . . . . . . . . . . . F@G@].o.&+}+}+}+}+}+}+}+}+}+}+}+}+}+}+}+}+}+}+}+}+}+}+}+}+}+}+}+}+}+}+}+}+}+}+g.i+].H@I@. . . . . . . . . . . . . ",
"+ . . . . . . . . . . . . . F@J@].K@T T T T T T T T T T T T T T T T T T T T T T T T T T T T T T T T T T T T 5@].L@I@. . . . . . . . . . . . . ",
"+ . . . . . . . . . . . . . F@J@].]+T T T T T T T T T T T T T T T T T T T T T T T T T T T T T T T T T T T T M@].L@I@. . . . . . . . . . . . . ",
"+ . . . . . . . . . . . . . F@J@v -@T T T T T T T T T T T T T T T T T T T T T T T T T T T T T T T T T T T T 7+].L@I@. . . . . . . . . . . . . ",
"+ . . . . . . . . . . . . . F@J@].z T T T T T T T T T T T T T T T T T T T T T T T T T T T T T T T T T T T T 8+].L@I@. . . . . . . . . . . . . ",
"+ . . . . . . . . . . . . . F@J@].N@6.T T T T T T T T T T T T T T T T T T T T T T T T T T T T T T T T T T O@P@].L@I@. . . . . . . . . . . . . ",
"+ . . . . . . . . . . . . . F@Q@].[.R@*+*+*+*+*+*+*+*+*+*+*+*+*+*+*+*+*+*+*+*+*+*+*+*+*+*+*+*+*+*+*+*+*+*+z+Z.].S@I@. . . . . . . . . . . . . ",
"+ . . . . . . . . . . . . . T@U@].].r r r r r r r r r r r r r r r r r r r r r r r r r r r r r r r r r r r r ].].V@W@. . . . . . . . . . . . . ",
"+ . . . . . . . . . . . . . X@].K E+H+H+H+H+H+H+H+H+H+H+H+H+H+H+H+H+H+H+H+H+H+H+H+H+H+H+H+H+H+H+H+H+H+H+H+H+A+n ].Y@+ . . . . . . . . . . . . ",
"+ . . . . . . . . . . . . Z@`@].b+h.7.7.7.7.7.7.7.7.7.7.7.7.7.7.7.7.7.7.7.7.7.7.7.7.7.7.7.7.7.7.7.7.7.7.7.7.0.A.]. #.#. . . . . . . . . . . . ",
"+ . . . . . . . . . . . . +#@#].##<+<+<+<+<+<+<+<+<+<+<+<+<+<+<+<+<+<+<+<+<+<+<+<+<+<+<+<+<+<+<+<+<+<+<+<+<+}+a+].$#%#. . . . . . . . . . . . ",
"+ . . . . . . . . . . . . &#*#].y+0+0+0+0+0+0+0+0+0+0+0+0+0+0+0+0+0+0+0+0+0+0+0+0+0+0+0+0+0+0+0+0+0+0+0+0+0+r+v.].=#-#. . . . . . . . . . . . ",
"+ . . . . . . . . . . . . ;#>#,#,#,#,#,#,#,#,#,#,#,#,#,#,#,#,#,#,#,#,#,#,#,#,#,#,#,#,#,#,#,#,#,#,#,#,#,#,#,#,#,#,#'#)#. . . . . . . . . . . . ",
"+ . . . . . . . . . . . . . !#~#~#~#~#~#~#~#~#~#~#~#~#~#~#~#~#~#~#~#~#~#~#~#~#~#~#~#~#~#~#~#~#~#~#~#~#~#~#~#~#~#~#$ . . . . . . . . . . . . . ",
"+ . . . . . . . . . . . . . . . . . . . . . . . . . . . . . . . . . . . . . . . . . . . . . . . . . . . . . . . . . . . . . . . . . . . . . . ",
"+ . . . . . . . . . . . . . . . . . . . . . . . . . . . . . . . . . . . . . . . . . . . . . . . . . . . . . . . . . . . . . . . . . . . . . . ",
"+ . . . . . . . . . . . . . . . . . . . . . . . . . . . . . . . . . . . . . . . . . . . . . . . . . . . . . . . . . . . . . . . . . . . . . . "};
