/* XPM */
static char * nbbb_xpm[] = {
"71 71 223 2",
"  	c None",
". 	c #808080",
"+ 	c #818181",
"@ 	c #7E7E7E",
"# 	c #7F7F7F",
"$ 	c #7D7D7D",
"% 	c #858585",
"& 	c #4C4C4C",
"* 	c #2E2E2E",
"= 	c #343434",
"- 	c #5E5E5E",
"; 	c #333333",
"> 	c #2F2F2F",
", 	c #535353",
"' 	c #565656",
") 	c #000000",
"! 	c #1E1E1E",
"~ 	c #717171",
"{ 	c #6F6F6F",
"] 	c #141414",
"^ 	c #6C6C6C",
"/ 	c #3D3D3D",
"( 	c #070707",
"_ 	c #696969",
": 	c #616161",
"< 	c #040404",
"[ 	c #030303",
"} 	c #606060",
"| 	c #474747",
"1 	c #171717",
"2 	c #737373",
"3 	c #0C0C0C",
"4 	c #707070",
"5 	c #212121",
"6 	c #4B4B4B",
"7 	c #838383",
"8 	c #3C3C3C",
"9 	c #797979",
"0 	c #272727",
"a 	c #0D0D0D",
"b 	c #5D5D5D",
"c 	c #1F1F1F",
"d 	c #5C5C5C",
"e 	c #686868",
"f 	c #303030",
"g 	c #0B0B0B",
"h 	c #494949",
"i 	c #898989",
"j 	c #151515",
"k 	c #525252",
"l 	c #676767",
"m 	c #2B2B2B",
"n 	c #3F3F3F",
"o 	c #4F4F4F",
"p 	c #2C2C2C",
"q 	c #313131",
"r 	c #181818",
"s 	c #646464",
"t 	c #575757",
"u 	c #191919",
"v 	c #919191",
"w 	c #CFCFCF",
"x 	c #6A6A6A",
"y 	c #131313",
"z 	c #5F5F5F",
"A 	c #DFDFDF",
"B 	c #CBCBCB",
"C 	c #444444",
"D 	c #323232",
"E 	c #7B7B7B",
"F 	c #E3E3E3",
"G 	c #BFBFBF",
"H 	c #3A3A3A",
"I 	c #404040",
"J 	c #848484",
"K 	c #292929",
"L 	c #FCFCFC",
"M 	c #ABABAB",
"N 	c #1D1D1D",
"O 	c #757575",
"P 	c #2A2A2A",
"Q 	c #101010",
"R 	c #262626",
"S 	c #868686",
"T 	c #FFFFFF",
"U 	c #8D8D8D",
"V 	c #7A7A7A",
"W 	c #090909",
"X 	c #969696",
"Y 	c #E5E5E5",
"Z 	c #C9C9C9",
"` 	c #F5F5F5",
" .	c #484848",
"..	c #515151",
"+.	c #010101",
"@.	c #CACACA",
"#.	c #F7F7F7",
"$.	c #424242",
"%.	c #D9D9D9",
"&.	c #C4C4C4",
"*.	c #252525",
"=.	c #727272",
"-.	c #1C1C1C",
";.	c #4A4A4A",
">.	c #777777",
",.	c #FEFEFE",
"'.	c #828282",
").	c #363636",
"!.	c #1A1A1A",
"~.	c #BEBEBE",
"{.	c #DCDCDC",
"].	c #232323",
"^.	c #595959",
"/.	c #FBFBFB",
"(.	c #050505",
"_.	c #C8C8C8",
":.	c #CECECE",
"<.	c #1B1B1B",
"[.	c #3E3E3E",
"}.	c #060606",
"|.	c #F9F9F9",
"1.	c #585858",
"2.	c #3B3B3B",
"3.	c #ECECEC",
"4.	c #939393",
"5.	c #6E6E6E",
"6.	c #111111",
"7.	c #020202",
"8.	c #DEDEDE",
"9.	c #7C7C7C",
"0.	c #121212",
"a.	c #0F0F0F",
"b.	c #C1C1C1",
"c.	c #9F9F9F",
"d.	c #AFAFAF",
"e.	c #C2C2C2",
"f.	c #E4E4E4",
"g.	c #CCCCCC",
"h.	c #B6B6B6",
"i.	c #A6A6A6",
"j.	c #909090",
"k.	c #E7E7E7",
"l.	c #505050",
"m.	c #353535",
"n.	c #F2F2F2",
"o.	c #454545",
"p.	c #787878",
"q.	c #F8F8F8",
"r.	c #E9E9E9",
"s.	c #DBDBDB",
"t.	c #E2E2E2",
"u.	c #F1F1F1",
"v.	c #D8D8D8",
"w.	c #F3F3F3",
"x.	c #FDFDFD",
"y.	c #E6E6E6",
"z.	c #EBEBEB",
"A.	c #0E0E0E",
"B.	c #4E4E4E",
"C.	c #DDDDDD",
"D.	c #656565",
"E.	c #666666",
"F.	c #B7B7B7",
"G.	c #6D6D6D",
"H.	c #A5A5A5",
"I.	c #949494",
"J.	c #161616",
"K.	c #767676",
"L.	c #6B6B6B",
"M.	c #202020",
"N.	c #2D2D2D",
"O.	c #080808",
"P.	c #A4A4A4",
"Q.	c #D5D5D5",
"R.	c #222222",
"S.	c #393939",
"T.	c #434343",
"U.	c #0A0A0A",
"V.	c #ACACAC",
"W.	c #E8E8E8",
"X.	c #555555",
"Y.	c #B3B3B3",
"Z.	c #FAFAFA",
"`.	c #F0F0F0",
" +	c #AAAAAA",
".+	c #888888",
"++	c #979797",
"@+	c #8A8A8A",
"#+	c #A7A7A7",
"$+	c #B1B1B1",
"%+	c #747474",
"&+	c #626262",
"*+	c #242424",
"=+	c #8C8C8C",
"-+	c #F4F4F4",
";+	c #E0E0E0",
">+	c #A8A8A8",
",+	c #A1A1A1",
"'+	c #EDEDED",
")+	c #A0A0A0",
"!+	c #464646",
"~+	c #373737",
"{+	c #ADADAD",
"]+	c #C3C3C3",
"^+	c #8B8B8B",
"/+	c #5B5B5B",
"(+	c #F6F6F6",
"_+	c #B2B2B2",
":+	c #C7C7C7",
"<+	c #929292",
"[+	c #C0C0C0",
"}+	c #8E8E8E",
"|+	c #636363",
"1+	c #9E9E9E",
"2+	c #414141",
"3+	c #282828",
"4+	c #4D4D4D",
"5+	c #383838",
"6+	c #B9B9B9",
"7+	c #C6C6C6",
"8+	c #B8B8B8",
"9+	c #5A5A5A",
"0+	c #878787",
". . . . . . . . . . . . . . . . . . . . . . . . . . . . . . . . . . . . . . . . . . . . . . . . . . . . . . . . . . . . . . . . . . . . . . . ",
". . . . . . . . . . . . . . . . . . . . . . . . . . . . . . . . . . . . . . . . . . . . . . . . . . . . . . . . . . . . . . . . . . . . . . . ",
". . . . . . . . . . . . . . . . . . . . . . . . . . . . . . . . . . . . . . . . . . . . . . . . . . . . . . . . . . . . . . . . . . . . . . . ",
". . . . . . . . . . . . . . . . . . . . . . . . . . . . . . . . . + @ . . . . . . # $ . . . . . . . . . . . . . . . . . . . . . . . . . . . . ",
". . . . . . . . . . . . . . . . . . . . . . . . . . . . . . . . % & * = - . . . - ; > , . . . . . . . . . . . . . . . . . . . . . . . . . . . ",
". . . . . . . . . . . . . . . . . . . . . . . . . . . . . . . . ' ) ) ) ! ~ . { ! ) ) ] ^ . . . . . . . . . . . . . . . . . . . . . . . . . . ",
". . . . . . . . . . . . . . . . . . . . . . . . . . . . . . . # / ) ) ) ( _ . : < ) ) [ } . . . . . . . . . . . . . . . . . . . . . . . . . . ",
". . . . . . . . . . . . . . . . . . . . . . . . . . . . . . . + | ) ) ) 1 2 . _ 3 ) ) ] { . . . . . . . . . . . . . . . . . . . . . . . . . . ",
". . . . . . . . . . . . . . . . . . . . . . . . . . . . . . . . 4 5 ) ) 6 + . 7 8 ) ) 6 + . . . . . . . . . . . . . . . . . . . . . . . . . . ",
". . . . . . . . . . . . . . . . . . . . . . . . . . . . . . . . 9 0 ) a b + . . $ c 3 d . . . . . . . . . . . . . . . . . . . . . . . . . . . ",
". . . . . . . . . . . . . . . . . . . . . . . . . . . . . . . e f ) ) ) g h i + h ) ) j k . . . . . . . . . . . . . . . . . . . . . . . . . . ",
". . . . . . . . . . . . . . . . . . . . . . . . . . . . . . l m ) ) ) ) ) ) n o p q ) ) r s . . . . . . . . . . . . . . . . . . . . . . . . . ",
". . . . . . . . . . . . . . . . . . . . . . . . . . . . . t c ) ) ) ) ) ) ) ) u v w o ) ) m x . . . . . . . . . . . . . . . . . . . . . . . . ",
". . . . . . . . . . . . . . . . . . . . . . . . . . . . , y ) ) ) ) ) ) ) ) ) ) z A B C ) ) D E . . . . . . . . . . . . . . . . . . . . . . . ",
". . . . . . . . . . . . . . . . . . . . . . . . . . . } 1 ) ) ) ) ) ) ) ) ) ) ) ) z F G H ) ) I J . . . . . . . . . . . . . . . . . . . . . . ",
". . . . . . . . . . . . . . . . . . . . . . . . . . x K ) ) ) ) ) ) ) ) ) ) ) ) ) ) 4 L M N ) 3 d . . . . . . . . . . . . . . . . . . . . . . ",
". . . . . . . . . . . . . . . . . . . . . . . . . O P ) ) ) ) ) ) Q R c ) ) ) ) ) ) ) S T U ) ) P V . . . . . . . . . . . . . . . . . . . . . ",
". . . . . . . . . . . . . . . . . . . . . . . . 7 8 ) ) ) ) ) ) W X Y Z ; ) ) ) ) ) ) 1 M ` z ) )  .. . . . . . . . . . . . . . . . . . . . . ",
". . . . . . . . . . . . . . . . . . . . . . . . ..+.) ) ) ) ) ) Q @.T #.h ) ) ) ) ) ) ) $.%.&.*.) N =.. . . . . . . . . . . . . . . . . . . . ",
". . . . . . . . . . . . . . . . . . . . . . . l -.) ) ) ) ) ) ) Q @.T #.;.) ) ) ) ) ) ) ) >.,.'.) ) ;.. . . . . . . . . . . . . . . . . . . . ",
". . . . . . . . . . . . . . . . . . . . . . + ).) ) ) ) ) ) ) ) Q @.T #.;.) ) ) ) ) ) ) ) !.~.{.q ) ].9 . . . . . . . . . . . . . . . . . . . ",
". . . . . . . . . . . . . . . . . . . . . . ^.( ) ) ) ) ) ) ) ) Q @.T #.;.) ) ) ) ) ) ) ) ) l /.'.) (.- . . . . . . . . . . . . . . . . . . . ",
". . . . . . . . . . . . . . . . . . . . . $ p ) ) ) ) ) ) ) ) ) Q @.T #.;.) ) ) ) ) ) ) ) ) u _.:.<.) [.+ . . . . . . . . . . . . . . . . . . ",
". . . . . . . . . . . . . . . . . . . . . d }.) ) ) ) ) ) ) ) ) Q @.T #.;.) ) ) ) ) ) ) ) ) ) # |.1.) 5 V . . . . . . . . . . . . . . . . . . ",
". . . . . . . . . . . . . . . . . . . . # D ) ) ) ) ) ) ) ) ) ) Q @.T #.;.) ) ) ) ) ) ) ) ) ) 2.3.4.) a 5.. . . . . . . . . . . . . . . . . . ",
". . . . . . . . . . . . . . . . . . . . 4 6.) ) ) ) ) ) ) 7.(.3 | 8.T L 9.0.( [ ) ) ) ) ) ) ) a.b._.6.< z . . . . . . . . . . . . . . . . . . ",
". . . . . . . . . . . . . . . . . . . . o ) ) ) ) ) 6.^.% c.d.e.f.T T T ` g.h.i.j.^ > ) ) ) ) ) U k.m ) l.. . . . . . . . . . . . . . . . . . ",
". . . . . . . . . . . . . . . . . . . + m.) ) ) ) ) './.T T T T T T T T T T T T T ,.~.<.) ) ) ) b n.o.)  .+ . . . . . . . . . . . . . . . . . ",
". . . . . . . . . . . . . . . . . . . p.N ) ) ) ) [ c.T T q.r.s.t.T T T u.v.F w.x.T y.R ) ) ) ) ).z.b ) C + . . . . . . . . . . . . . . . . . ",
". . . . . . . . . . . . . . . . . . . 4 A.) ) ) ) ) B.S =.B.* -.C C.T L p.u *.I D.7 2 g ) ) ) ) ! C.^ ) C '.. . . . . . . . . . . . . . . . . ",
". . . . . . . . . . . . . . . . . . . E.( ) ) ) ) ) ) ) ) ) ) ) Q B T #.;.) ) ) ) ) ) ) ) ) ) ) a.Z { ) | + . . . . . . . . . . . . . . . . . ",
". . . . . . . . . . . . . . . . . . . } < ) ) ) ) ) ) ) ) ) ) ) Q @.T #.;.) ) ) ) ) ) ) ) ) ) ) ( F.G.) o . . . . . . . . . . . . . . . . . . ",
". . . . . . . . . . . . . . . . . . . b [ ) ) ) ) ) ) ) ) ) ) ) Q @.T #.;.) ) ) ) ) ) ) ) ) ) ) [ H.z [ d . . . . . . . . . . . . . . . . . . ",
". . . . . . . . . . . . . . . . . . . - [ ) ) ) ) ) ) ) ) ) ) ) Q @.T #.;.) ) ) ) ) ) ) ) ) ) ) +.I.h g x . . . . . . . . . . . . . . . . . . ",
". . . . . . . . . . . . . . . . . . . s (.) ) ) ) ) ) ) ) ) ) ) Q @.T #.;.) ) ) ) ) ) ) ) ) ) ) ) . = J.K.. . . . . . . . . . . . . . . . . . ",
". . . . . . . . . . . . . . . . . . . { 3 ) ) ) ) ) ) ) ) ) ) ) Q @.T #.;.) ) ) ) ) ) ) ) ) ) ) ) L.M.p # . . . . . . . . . . . . . . . . . . ",
". . . . . . . . . . . . . . . . . . . K.1 ) ) ) ) ) ) ) ) ) ) ) Q @.T #.;.) ) ) ) ) ) ) ) ) ) ) ) m.a.| . . . . . . . . . . . . . . . . . . . ",
". . . . . . . . . . . . . . . . . . . # N.) ) ) ) ) ) ) ) ) ) ) Q @.T #.h ) ) ) ) ) ) ) ) ) ) ) ) +.O.D.. . . . . . . . . . . . . . . . . . . ",
". . . . . . . . . . . . . . . . . . . .  .) ) ) ) ) ) ) ) ) ) ) a P.k.Q.H ) ) ) ) ) ) ) ) ) ) ) ) ) ].V . . . . . . . . . . . . . . . . . . . ",
". . . . . . . . . . . . . . . . . . . . s O.) ) ) ) ) ) ) ) ) ) ) u 0 ].) ) ) ) ) ) ) ) ) ) ) ) ) ) o.+ . . . . . . . . . . . . . . . . . . . ",
". . . . . . . . . . . . . . . . . . . . E R.) ) ) ) ) ) ) ) ) ) ) ) ) ) ) ) ) ) ) ) ) ) ) ) ) ) ) a l . . . . . . . . . . . . . . . . . . . . ",
". . . . . . . . . . . . . . . . . . . . +  .) ) ) ) ) ) ) ) ) ) ) ) ) ) ) ) ) ) ) ) ) ) ) ) ) ) ) * # . . . . . . . . . . . . . . . . . . . . ",
". . . . . . . . . . . . . . . . . . . . . ^ ] ) ) ) ) ) ) ) (.Q ! m S.2.2.S.P N a.< ) ) ) ) ) ) ) l.. . . . . . . . . . . . . . . . . . . . . ",
". . . . . . . . . . . . . . . . . . . . . '.T.) ) ) U.m 1.% V.Z C.W.n.w.w.n.k.{._.M '.X.K O.) ) Q 4 . . . . . . . . . . . . . . . . . . . . . ",
". . . . . . . . . . . . . . . . . . . . . . L.j ] G.Y.Y Z.`.s.e. +X .+@ # .+++V.&.{.u.|.f.d.e 6.P @ . . . . . . . . . . . . . . . . . . . . . ",
". . . . . . . . . . . . . . . . . . . . . . '.C @+,.t.#+5.2.N 3 [ ) ) U.) ) ) [ a ! [.~ M Y x.% o.+ . . . . . . . . . . . . . . . . . . . . . ",
". . . . . . . . . . . . . . . . . . . . . . . s 5.4 N.(.) ) ) ) ) > $ $+.+/ ) ) ) ) ) ) }.f %+&+X.. . . . . . . . . . . . . . . . . . . . . . ",
". . . . . . . . . . . . . . . . . . . . . . . p.*+l.C ] ) ) ) a >.v.T T T k.=+-.) ) ) ) ) O.P g s . . . . . . . . . . . . . . . . . . . . . . ",
". . . . . . . . . . . . . . . . . . . . . . . # D &.-+V.r ) ) [.;+T T T T T f.| ) ) ) ) B.>+&.*.L.. . . . . . . . . . . . . . . . . . . . . . ",
". . . . . . . . . . . . . . . . . . . . . . . . ).Z T X }.) ) ) | ,+3.,.'+)+!+) ) ) ) ( j.T {.0 L.. . . . . . . . . . . . . . . . . . . . . . ",
". . . . . . . . . . . . . . . . . . . . . . . V ; Q.F.P ) ) ) ) ) ( 8 z [.}.) ) ) ) ) ) ~+{+t.p e . . . . . . . . . . . . . . . . . . . . . . ",
". . . . . . . . . . . . . . . . . . . . . . . O [.P.[.) ) ) ) ) < ( g g g g ( [ ) ) ) ) ) ! =.K - . . . . . . . . . . . . . . . . . . . . . . ",
". . . . . . . . . . . . . . . . . . . . . . . _ ! * +.0.N.B.4 U H.F.e.]+]+e.h.P.^+5.& m 6.) ) ) o . . . . . . . . . . . . . . . . . . . . . . ",
". . . . . . . . . . . . . . . . . . . . . . . , !./+X Z W.(+`.A :.b.F._+_+F.b.w ;+`.(+k.:+<+' j 2.. . . . . . . . . . . . . . . . . . . . . . ",
". . . . . . . . . . . . . . . . . . . . . . '.B. +(+Y [+}+} S.c 0.g ( }.}.O.g y M.H |+v e.k.` 1+N.$ . . . . . . . . . . . . . . . . . . . . . ",
". . . . . . . . . . . . . . . . . . . . . . K.T.7 /+m a ) ) ) ) ) ) ) ) ) ) ) ) ) ) ) ) A.* z + 2+=.. . . . . . . . . . . . . . . . . . . . . ",
". . . . . . . . . . . . . . . . . . . . . . 2 * +.) ) ) ) ) ) ) ) ) ) ) ) ) ) ) ) ) ) ) ) ) ) N /+. . . . . . . . . . . . . . . . . . . . . . ",
". . . . . . . . . . . . . . . . . . . . . . . E h u ) ) ) ) ) ) ) ) ) ) ) ) ) ) ) ) ) ) ) < f &+. . . . . . . . . . . . . . . . . . . . . . . ",
". . . . . . . . . . . . . . . . . '.+ . . . . . . L.$.! (.) ) ) ) ) ) ) ) ) ) ) ) ) ) a f t # . . . . . . . + . . + + . . . . . . . . . . . . ",
". . . . . . . . . . . @ e o / q f m.2+.._ V '.. . . '.>./+/ y !.a (.7.) ) [ W j R.3+..L.# . . . . . + >.|+4+8 q f 5+!+d =.+ . . . . . . . . . ",
". . . . . . . . . @ ' N.g ) ) ) ) ) ) ) 3 R.T.z %+@ # . # e 4+6+7+_+p.R.m =+8+:.M  .D.+ + '.+ 9.4 k ).1 (.) ) ) ) ) ) < 0.; ^.@ . . . . . . . ",
". . . . . . . . &+q [ ) ) ) ) ) ) ) ) ) ) ) ) }.J.*.= m.p y ) 2+E.G. .l.1.z 5.} ; ) j f 5+5+> R.Q +.) ) ) ) ) ) ) ) ) ) ) ) < N.- '.. . . . . ",
". . . . . . .+& r ) ) ) ) ) ) < ( O.< ) ) ) ) ) ) ) ) ) ) ) ) ) ) ) T..+. T.< ) ) ) ) ) ) ) ) ) ) ) ) ) ) ) < O.( < ) ) ) ) W (.a !+'.. . . . ",
". . . . . =+& ) 1 P ( ) 0.m.4+- |+D.- 6 = 1 [ ) ) ) ) ) ) ) ) ) ) n E . . + B.r ) ) ) ) ) ) ) ) ) ) [ J.N.| 9+s |+b  .p a ) *+k [.j H # . . . ",
". . . . 0+& 0.C x S.+.2.L.. . . . . . . '.K.t S.!.W 7.) ) ) [ 5 k S . . . . . } = g ) ) ) ) [ W r 5+' O . + . . . . . @ |+= ) [.S _ 1.'.. . . ",
". . . . @ k : % I u o 7 . . . . . . . . . . . . >.l /+l.;.4+b >.. . . . . . . . . e , & 6 l.1.l >.'.. . . . . . . . . . . 7  .( 1.. @ . . . . ",
". . . . . . . D.c 1.. . . . . . . . . . . . . . . . . . . + . . . . . . . . . . . . . + . . . . . . . . . . . . . . . . . . 7 C K V . . . . . ",
". . . . . . . K.E.. . . . . . . . . . . . . . . . . . . . . . . . . . . . . . . . . . . . . . . . . . . . . . . . . . . . . . @+e '.. . . . . ",
". . . . . . . . . . . . . . . . . . . . . . . . . . . . . . . . . . . . . . . . . . . . . . . . . . . . . . . . . . . . . . . . . . . . . . . ",
". . . . . . . . . . . . . . . . . . . . . . . . . . . . . . . . . . . . . . . . . . . . . . . . . . . . . . . . . . . . . . . . . . . . . . . ",
". . . . . . . . . . . . . . . . . . . . . . . . . . . . . . . . . . . . . . . . . . . . . . . . . . . . . . . . . . . . . . . . . . . . . . . "};
