/* XPM */
static char * nbbk_xpm[] = {
"71 71 272 2",
"  	c None",
". 	c #808080",
"+ 	c #7E7E7E",
"@ 	c #7F7F7F",
"# 	c #535353",
"$ 	c #353535",
"% 	c #2F2F2F",
"& 	c #2A2A2A",
"* 	c #333333",
"= 	c #3E3E3E",
"- 	c #656565",
"; 	c #7A7B7A",
"> 	c #323232",
", 	c #858585",
"' 	c #8A8A8A",
") 	c #131313",
"! 	c #000000",
"~ 	c #1A1A1A",
"{ 	c #8D8D8D",
"] 	c #838383",
"^ 	c #7B7B7B",
"/ 	c #797979",
"( 	c #2B2B2B",
"_ 	c #A2A2A2",
": 	c #FFFFFF",
"< 	c #7C7C7C",
"[ 	c #9D9D9D",
"} 	c #2C2C2C",
"| 	c #7A7A7A",
"1 	c #1D1D1D",
"2 	c #212121",
"3 	c #C7C7C7",
"4 	c #414141",
"5 	c #090909",
"6 	c #080808",
"7 	c #4B4B4B",
"8 	c #C8C8C8",
"9 	c #1B1B1B",
"0 	c #202020",
"a 	c #383838",
"b 	c #484848",
"c 	c #A3A3A3",
"d 	c #9B9B9B",
"e 	c #454545",
"f 	c #464646",
"g 	c #FAFAFA",
"h 	c #F5F5F5",
"i 	c #3A3A3A",
"j 	c #585858",
"k 	c #818181",
"l 	c #7D7D7D",
"m 	c #565656",
"n 	c #060606",
"o 	c #A1A1A1",
"p 	c #3D3D3D",
"q 	c #CBCBCB",
"r 	c #9C9C9C",
"s 	c #3C3C3C",
"t 	c #B3B3B3",
"u 	c #F8F8F8",
"v 	c #676767",
"w 	c #6F6F6F",
"x 	c #FDFDFD",
"y 	c #ADADAD",
"z 	c #252525",
"A 	c #666666",
"B 	c #646464",
"C 	c #030303",
"D 	c #6A6A6A",
"E 	c #272727",
"F 	c #787878",
"G 	c #747474",
"H 	c #070707",
"I 	c #5A5A5A",
"J 	c #3B3B3B",
"K 	c #161616",
"L 	c #1C1C1C",
"M 	c #262626",
"N 	c #525252",
"O 	c #848484",
"P 	c #B1B1B1",
"Q 	c #B0B0B0",
"R 	c #343434",
"S 	c #6D6D6D",
"T 	c #505150",
"U 	c #151515",
"V 	c #5B5B5B",
"W 	c #575757",
"X 	c #292929",
"Y 	c #050505",
"Z 	c #020202",
"` 	c #616161",
" .	c #9F9F9F",
"..	c #5F5F5F",
"+.	c #636363",
"@.	c #121212",
"#.	c #595959",
"$.	c #828282",
"%.	c #434343",
"&.	c #141414",
"*.	c #474747",
"=.	c #4A4A4A",
"-.	c #C6C6C6",
";.	c #606060",
">.	c #040404",
",.	c #767676",
"'.	c #424242",
").	c #111111",
"!.	c #0C0C0C",
"~.	c #818281",
"{.	c #414241",
"].	c #242424",
"^.	c #494949",
"/.	c #313131",
"(.	c #6E6E6E",
"_.	c #232323",
":.	c #888888",
"<.	c #939393",
"[.	c #949494",
"}.	c #696969",
"|.	c #1E1E1E",
"1.	c #373737",
"2.	c #010101",
"3.	c #404040",
"4.	c #959595",
"5.	c #DDDDDD",
"6.	c #F4F4F4",
"7.	c #FBFBFB",
"8.	c #EFEFEF",
"9.	c #D7D7D7",
"0.	c #A0A0A0",
"a.	c #0F0F0F",
"b.	c #282828",
"c.	c #363636",
"d.	c #C5C5C5",
"e.	c #5E5E5E",
"f.	c #A4A4A4",
"g.	c #D9D9D9",
"h.	c #F0F0F0",
"i.	c #DADADA",
"j.	c #909090",
"k.	c #4A4B4A",
"l.	c #141514",
"m.	c #5D5D5D",
"n.	c #D0D0D0",
"o.	c #F9F9F9",
"p.	c #AEAEAE",
"q.	c #4D4D4D",
"r.	c #CCCCCC",
"s.	c #222222",
"t.	c #181818",
"u.	c #515151",
"v.	c #B4B4B4",
"w.	c #CACACA",
"x.	c #D8D8D8",
"y.	c #EDEDED",
"z.	c #F7F7F7",
"A.	c #DFDFDF",
"B.	c #0D0D0D",
"C.	c #B5B5B5",
"D.	c #757575",
"E.	c #777777",
"F.	c #E7E7E7",
"G.	c #F6F6F6",
"H.	c #EEEEEE",
"I.	c #CECECE",
"J.	c #0B0B0B",
"K.	c #A9A9A9",
"L.	c #FEFEFE",
"M.	c #A8A8A8",
"N.	c #505050",
"O.	c #878787",
"P.	c #CFCFCF",
"Q.	c #6C6C6C",
"R.	c #C1C1C1",
"S.	c #303030",
"T.	c #626262",
"U.	c #717171",
"V.	c #4C4C4C",
"W.	c #FCFCFC",
"X.	c #0E0E0E",
"Y.	c #B7B7B7",
"Z.	c #F2F2F2",
"`.	c #F1F1F1",
" +	c #868686",
".+	c #7F807F",
"++	c #898989",
"@+	c #727272",
"#+	c #2D2D2D",
"$+	c #C4C4C4",
"%+	c #E5E5E5",
"&+	c #8E8E8E",
"*+	c #444444",
"=+	c #2E2E2E",
"-+	c #B2B2B2",
";+	c #171717",
">+	c #979797",
",+	c #737373",
"'+	c #A5A5A5",
")+	c #E6E6E6",
"!+	c #3F3F3F",
"~+	c #929292",
"{+	c #B6B6B6",
"]+	c #2D2E2D",
"^+	c #8F8F8F",
"/+	c #9A9A9A",
"(+	c #DEDEDE",
"_+	c #5C5C5C",
":+	c #3B3C3B",
"<+	c #E3E3E3",
"[+	c #4F4F4F",
"}+	c #EBEBEB",
"|+	c #393939",
"1+	c #0A0A0A",
"2+	c #C2C2C2",
"3+	c #BFBFBF",
"4+	c #D4D4D4",
"5+	c #545454",
"6+	c #919191",
"7+	c #C0C0C0",
"8+	c #C9C9C9",
"9+	c #191919",
"0+	c #C3C3C3",
"a+	c #BBBBBB",
"b+	c #E8E8E8",
"c+	c #404140",
"d+	c #CDCDCD",
"e+	c #D6D6D6",
"f+	c #101010",
"g+	c #9E9E9E",
"h+	c #767776",
"i+	c #AAAAAA",
"j+	c #DBDBDB",
"k+	c #E2E2E2",
"l+	c #AFAFAF",
"m+	c #4E4E4E",
"n+	c #989898",
"o+	c #8C8C8C",
"p+	c #EAEAEA",
"q+	c #E9E9E9",
"r+	c #E1E1E1",
"s+	c #B9B9B9",
"t+	c #707070",
"u+	c #A6A6A6",
"v+	c #F3F3F3",
"w+	c #E4E4E4",
"x+	c #DCDCDC",
"y+	c #D2D2D2",
"z+	c #202120",
"A+	c #D1D1D1",
"B+	c #616261",
"C+	c #D3D3D3",
"D+	c #6B6B6B",
"E+	c #ECECEC",
"F+	c #151615",
"G+	c #1F1F1F",
"H+	c #969696",
"I+	c #5F605F",
"J+	c #BABABA",
"K+	c #ACACAC",
"L+	c #686868",
"M+	c #555555",
"N+	c #8B8B8B",
"O+	c #BCBCBC",
"P+	c #777877",
"Q+	c #252625",
"R+	c #A7A7A7",
"S+	c #161716",
"T+	c #6D6E6D",
"U+	c #363736",
"V+	c #454645",
"W+	c #434443",
". . . . . . . . . . . . . . . . . . . . . . . . . . . . . . . . . . . . . . . . . . . . . . . . . . . . . . . . . . . . . . . . . . . . . . . ",
". . . . . . . . . . . . . . . . . . . . . . . . . . . . . . . . . . . . . . . . . . . . . . . . . . . . . . . . . . . . . . . . . . . . . . . ",
". . . . . . . . . . . . . . . . . . . . . . . . . . . . . . . . . . . . . . . . . . . . . . . . . . . . . . . . . . . . . . . . . . . . . . . ",
". . . . . . . . . . . . . . . . . . . . . . . . . . . . . . . . . . . . . . . . . . . . . . . . . . . . . . . . . . . . . . . . . . . . . . . ",
". . . . . . . . . . . . . . . . . . . . . . . . . . . . . . . . . . . . . . . . . . . . . . . . . . . . . . . . . . . . . . . . . . . . . . . ",
". . . . . . . . . . . . . . . . . . . . . . . . . . . . . . . . . . . . . . . . . . . . . . . . . . . . . . . . . . . . . . . . . . . . . . . ",
". . . . . . . . . . . . . . . . . . . . . . . . . . . . . . . + + + + + + @ @ @ @ . . . . . . . . . . . . . . . . . . . . . . . . . . . . . . ",
". . . . . . . . . . . . . . . . . . . . . . . . . . . . . . # $ % & & & & & & * = - . . . . . . . . . . . . . . . . . . . . . . . . . . . . . ",
". . . . . . . . . . . . . . . . . . . . . . . . . . . . . ; > , ' ) ! ! ! ! ~ { ] $ ^ . . . . . . . . . . . . . . . . . . . . . . . . . . . . ",
". . . . . . . . . . . . . . . . . . . . . . . . . . . . . / ( _ : < ! ! ! ! , : [ } | . . . . . . . . . . . . . . . . . . . . . . . . . . . . ",
". . . . . . . . . . . . . . . . . . . . . . . . . . . . . / 1 2 . 3 4 5 6 7 8 ^ 9 0 | . . . . . . . . . . . . . . . . . . . . . . . . . . . . ",
". . . . . . . . . . . . . . . . . . . . . . . . . . . . . / 1 ! ! a b c d e $ ! ! 0 | . . . . . . . . . . . . . . . . . . . . . . . . . . . . ",
". . . . . . . . . . . . . . . . . . . . . . . . . . . . . / 1 ! ! ! f g h i ! ! ! 0 | . . . . . . . . . . . . . . . . . . . . . . . . . . . . ",
". . . . . . . . . . . . . . . . . . . . . . . . . . . . . / 1 ! 5 j e k l e m n ! 0 | . . . . . . . . . . . . . . . . . . . . . . . . . . . . ",
". . . . . . . . . . . . . . . . . . . . . . . . . . . . . / 1 4 o 3 * ! ! p q r s 0 | . . . . . . . . . . . . . . . . . . . . . . . . . . . . ",
". . . . . . . . . . . . . . . . . . . . . . . . . . . . . / ( t u v ! ! ! ! w x y } | . . . . . . . . . . . . . . . . . . . . . . . . . . . . ",
". . . . . . . . . . . . . . . . . . . . . . . . . . . . . / z A B C ! ! ! ! 6 D B E | . . . . . . . . . . . . . . . . . . . . . . . . . . . . ",
". . . . . . . . . . . . . . . . < F G / < . . . . . . . . / 1 ! ! ! ! 6 H ! ! ! ! 0 | . . . . . . . . < / G F ^ . . . . . . . . . . . . . . . ",
". . . . . . . . . . . . . | I J z ~ K L M i N w . . . . . / 1 ! ! i O P Q . R ! ! 0 | . . . . . S T a z L U ~ M = V | . . . . . . . . . . . . ",
". . . . . . . . . . . . W X Y ! ! ! ! ! ! ! Z U J - . . . / 1 ! ` 8  .S w c 8 ..! 0 | . . . +.a @.Z ! ! ! ! ! ! ! n } #.. . . . . . . . . . . ",
". . . . . . . . . . $.%.5 ! ! ! ! ! ! ! ! ! ! ! ! &.*.F . / 1 =.-.;.C ! ! >.B 3 4 0 | . ,.'.).! ! ! ! ! ! ! ! ! ! ! ! !.%.. . . . . . . . . . ",
". . . . . . . . . ~.{.! ! ! ! ! Z ].%.N ^.$ L >.! ! ! /.(./ _.[ :.! ! ! ! ! ! <.[._.| }.% ! ! ! Y |.1.=.N 4 2 2.! ! ! ! ! 3.. . . . . . . . . ",
". . . . . . . . . b ! ! ! ! ! a 4.5.6.7.u 8.9.0.I a.! ! b.;.c.8 f ! ! ! ! ! ! N d.* V 2 ! ! ) e.f.g.h.u 7.6.i.j.R ! ! ! ! Z k.. . . . . . . . ",
". . . . . . . . +.l.! ! ! ! m.n.: : : : : : : : o.p.q.! ! L E r.i ! ! ! ! ! ! '.8 s.t.! ! u.v.g : : : : : : : : w.m ! ! ! ! t.}.. . . . . . . ",
". . . . . . . @ a ! ! ! ! *.x.: : : : g y.y.z.: : : A.S ! ! B.C.D ! ! ! ! ! ! D.y 6 ! ! E.F.: : : G.y.H.g : : : : I.s ! ! ! ! p . . . . . . . ",
". . . . . . . w ) ! ! ! J.K.: : : L.M...R R N.O.P.: : z.G ! ! Q.R.S.! ! ! ! s -.+.! ! l L.: : w.] q.* $ T.y L.: : : o H ! ! ! K U.. . . . . . ",
". . . . . . . # Z ! ! ! V.h : : W.l 5 ! ! ! ! ! M ' o.: F.I ! X.r Y.I s._.e.R.j.n ! +.Z.: `. +2 ! ! ! ! ! !.@ L.: : 8.4 ! ! ! C #.. . . . . . ",
". . . . . . .+= ! ! ! ! O.: : : ++! ! ! ! ! ! ! ! ! @+6.: 3 #+! ) F $+P.P.R.@+J.! $ n.: %+B ! ! ! ! ! ! ! ! ! &+: : : ^ ! ! ! ! *+. . . . . . ",
". . . . . . + =+! ! ! n -+: : I.].! ! ! ! ! ! ! ! ! ! l L.: { ! ! ! t.> /.;+! ! >.>+: x ,+! ! ! ! ! ! ! ! ! ! % x.: : f.C ! ! ! c.. . . . . . ",
". . . . . . + & ! ! ! J.R.: : :.! ! ! ! ! ! ! ! ! ! ! !.'+: )+!+! ! ! ! ! ! ! ! b H.: d H ! ! ! ! ! ! ! ! ! ! ! ~+: : {+6 ! ! ! % + . . . . . ",
". . . . . . + ]+! ! ! J.R.: u N.! ! ! ! ! ! ! ! ! ! ! ! %.)+: ^+! ! ! ! ! ! ! C /+: (+i ! ! ! ! ! ! ! ! ! ! ! ! _+7.: v.H ! ! ! c.. . . . . . ",
". . . . . . . :+! ! ! H {+: y.* ! ! ! ! ! ! ! ! ! ! ! ! 2.[.: i.M ! ! ! ! ! ! % <+: ++! ! ! ! ! ! ! ! ! ! ! ! ! p Z.: M.C ! ! ! %.. . . . . . ",
". . . . . . . [+2.! ! Z r : }+% ! ! ! ! ! ! ! ! ! ! ! ! ! *+y.x v ! ! ! ! ! ! @+L.F.i ! ! ! ! ! ! ! ! ! ! ! ! ! |+`.: j.! ! ! Z m . . . . . . ",
". . . . . . . v J.! ! ! F : `.J ! ! ! ! ! ! ! & ! ! ! ! ! 1+t : f.Y ! ! ! ! 6 P : K.n ! ! ! ! ! X ! ! ! ! ! ! ! e h L.S ! ! ! B.D . . . . . . ",
". . . . . . . ^ b.! ! ! 7 G.7.I ! ! ! ! ! ! /.2+..! ! ! ! ! ,+L.i.0 ! ! ! ! b.<+W.v ! ! ! ! ! T.3+X ! ! ! ! ! ! v W.Z.3.! ! ! #+l . . . . . . ",
". . . . . . . . [+C ! ! 1 4+: ++! ! ! ! ! ! e.W.4+a ! ! ! C |+y.G.b ! ! ! ! 5+o.)+#+Z ! ! ! 4 g.g # ! ! ! ! ! ! [.: q K ! ! >.# . . . . . . . ",
". . . . . . . . E.E ! ! 2.6+: 7+a.! ! ! ! ! / : : ++! ! ..S 1 8+: ,.! ! ! ! ] : 7+9+S V ! Z [.: L.Q.! ! ! ! ! &.w.:  +! ! ! } | . . . . . . . ",
". . . . . . . . . W 5 ! ! f 8.h.*.! ! ! ! ! | : : 0+X.@ g Q 6  .: o C ! ! Y y : <.!.a+z.l &.I.: : S ! ! ! ! ! u.G.b+J ! ! X._+. . . . . . . . ",
". . . . . . . . . . c+! ! H _ : [.C '.@+f B.I 7.: q W 8.: :.! ,.L.$+X.! ! ) d+L.D 2.<.: b+# e+: o.[+f+b G J >.g+: /+C ! ! e . . . . . . . . . ",
". . . . . . . . . . h+/.! ! V.8.%+4 j u 6.i+_+d.: v.k : h q.! u.o.j+1 ! ! _.k+h e ! W o.L.F R.: a+j l+h h m+7 y.F.%.! ! * < . . . . . . . . . ",
". . . . . . . . . . . S M ! >.n+: o ;+M.: : v.w 8 (.T.%+o+n ! c.8.p+=+! ! a `.q+#+! J.4.r+W G 0+S s+: : [ 9+i+: &+! ! % t+. . . . . . . . . . ",
". . . . . . . . . . . . ` 0 ! J j+W.S R u+v+r+& 9+>.! M n ! ! z w+v+4 ! ! 7 o.x+1 ! ! 1+z ! >.t.* q+`.g+M G L.y+/.! _.}.. . . . . . . . . . . ",
". . . . . . . . . . . . . ;.z+! < L.A+* B.!+%.! I d v ! ! ! ! ~ x.g u.! ! m.W.y+U ! ! ! ! S /+5+! %.s J.p i.L.,+! 0 ;.. . . . . . . . . . . . ",
". . . . . . . . . . . . . . B+2 L s+: ^+2.! ! 1 {+<+,+! ! ! ! U C+W...! ! S L.-.B.! ! ! ! ^ %+K.;+! ! >./+: Q @.0 ;.. . . . . . . . . . . . . ",
". . . . . . . . . . . . . . . ;.0 W `.%+s ! ! ! E b.2.>.J.f+U X d+L.D+! ! F : 0+_.U f+J.>.Z X ].! ! ! e E+}+[+0 ;.. . . . . . . . . . . . . . ",
". . . . . . . . . . . . . . . . V F+~+: o+1 > 7 A k d P 7+w.y+e+W.: ,+! ! k : g e+y+8+3+Q /+. - ^./.G+H+: ++t.I+. . . . . . . . . . . . . . . ",
". . . . . . . . . . . . . . . . . 7 $ j+z.j+E+u x : : : : L.x 7.g o.D.! ! ] o.g 7.x L.: : : : x z.E+i.g y+=+[+. . . . . . . . . . . . . . . . ",
". . . . . . . . . . . . . . . . . | M l+W.6.q+j+q s+'+~+. U.+.m N [+].! ! & N.N W B U.k [.u+J+r.x+p+h W.f.& < . . . . . . . . . . . . . . . . ",
". . . . . . . . . . . . . . . . . + #+V.` %.#+L f+5 C ! ! ! ! ! ! ! ! ! ! ! ! ! ! ! ! ! ! >.1+).1 =+e +.*+* . . . . . . . . . . . . . . . . . ",
". . . . . . . . . . . . . . . . . ;.U ! ! ! ! ! ! ! ! ! ! ! ! ! ! ! ! 2.2.! ! ! ! ! ! ! ! ! ! ! ! ! ! ! ! K B . . . . . . . . . . . . . . . . ",
". . . . . . . . . . . . . . . . / X ! ! ! ! ! Y ) M s N.+.G ] &+j.~+[.H+H+[.~+j.{ $.,+T.[+i ].@.Y ! ! ! ! ! % ^ . . . . . . . . . . . . . . . ",
". . . . . . . . . . . . . . . . A 6 ! ! _.m O p.I.w+Z.o.x : : L.W.7.g g g g 7.W.L.: : x o.`.<+r.K+$.N 0 ! ! B.Q.. . . . . . . . . . . . . . . ",
". . . . . . . . . . . . . . . . - H C ^ 9.g : o.p+9.7+i+H+] ,+L+e.M+# N N # M+e.}.G O >+K+2+x.}+g : o.C+D.! !.D+. . . . . . . . . . . . . . . ",
". . . . . . . . . . . . . . . . D.0 = u q+s+] 5+% 9+J.>.! ! ! f+i e.^ o+N+| _+1.X.! ! ! >.!.~ /.W  +O+}+v+c.z P+. . . . . . . . . . . . . . . ",
". . . . . . . . . . . . . . . . . # Q+m.N.X ) ! ! ! ! ! ! ! |.p.8.W.: : : : W.H.R+9 ! ! ! ! ! ! ! U ( 5+..s.M+. . . . . . . . . . . . . . . . ",
". . . . . . . . . . . . . . . . . . =.t.K.5.2+i ! ! ! ! ! ! 2.}.K+4+)+y.y.%+y+M.- ! ! ! ! ! ! ! 4 -.5.0.&.q.. . . . . . . . . . . . . . . . . ",
". . . . . . . . . . . . . . . . . . D S+3+: 3 S.! ! ! ! ! ! ! Z J.L } 1.c.( 9 1+Z ! ! ! ! ! ! ! i n.: C.U T+. . . . . . . . . . . . . . . . . ",
". . . . . . . . . . . . . . . . . . U.K O ' $ C f+].s m (.] <.0.i+K+y p.p.y K+i+0.~+$.Q.5+J s.a.C J &+l t.G . . . . . . . . . . . . . . . . . ",
". . . . . . . . . . . . . . . . . . ,.9+E f D._ 8 k+Z.o.u Z.}+F.w+5.i.g.g.i.5.w+F.E+Z.u o.Z.r+3  .@+%.G+1 | . . . . . . . . . . . . . . . . . ",
". . . . . . . . . . . . . . . . . . | _.t+6.G.k+-.'+$.- q.s % E ].|.9 9+~ 9 |.z E S.p m+A O R+8 <+z.v+B M l . . . . . . . . . . . . . . . . . ",
". . . . . . . . . . . . . . . . . . + U+b E.^.z a.C ! ! ! ! ! ! ! ! ! ! ! ! ! ! ! ! ! ! ! ! C a.E V.F 4 i @ . . . . . . . . . . . . . . . . . ",
". . . . . . . . . . . . . . . . . . . @+;.7 a M ~ ).!.n Z Z 2.! ! ! ! ! ! ! ! ! ! 2.Z C n !.).~ M a 7 ` G . . . . . . . . . . . . . . . . . . ",
". . . . . . . . . . . . . . . . . . . . . . k < E.U.D T.V M+m+=.V+W+W+'.'.W+W+f =.[+M+_++.D+U.F < . . . . . . . . . . . . . . . . . . . . . . ",
". . . . . . . . . . . . . . . . . . . . . . . . . . . . . . . . . . . . . . . . . . . . . . . . . . . . . . . . . . . . . . . . . . . . . . . ",
". . . . . . . . . . . . . . . . . . . . . . . . . . . . . . . . . . . . . . . . . . . . . . . . . . . . . . . . . . . . . . . . . . . . . . . ",
". . . . . . . . . . . . . . . . . . . . . . . . . . . . . . . . . . . . . . . . . . . . . . . . . . . . . . . . . . . . . . . . . . . . . . . ",
". . . . . . . . . . . . . . . . . . . . . . . . . . . . . . . . . . . . . . . . . . . . . . . . . . . . . . . . . . . . . . . . . . . . . . . ",
". . . . . . . . . . . . . . . . . . . . . . . . . . . . . . . . . . . . . . . . . . . . . . . . . . . . . . . . . . . . . . . . . . . . . . . ",
". . . . . . . . . . . . . . . . . . . . . . . . . . . . . . . . . . . . . . . . . . . . . . . . . . . . . . . . . . . . . . . . . . . . . . . ",
". . . . . . . . . . . . . . . . . . . . . . . . . . . . . . . . . . . . . . . . . . . . . . . . . . . . . . . . . . . . . . . . . . . . . . . ",
". . . . . . . . . . . . . . . . . . . . . . . . . . . . . . . . . . . . . . . . . . . . . . . . . . . . . . . . . . . . . . . . . . . . . . . "};
