/* XPM */
static char * nbbn_xpm[] = {
"71 71 223 2",
"  	c None",
". 	c #808080",
"+ 	c #838383",
"@ 	c #7C7C7C",
"# 	c #5D5D5D",
"$ 	c #747474",
"% 	c #818181",
"& 	c #505050",
"* 	c #484848",
"= 	c #7A7A7A",
"- 	c #595959",
"; 	c #020202",
"> 	c #2C2C2C",
", 	c #6E6E6E",
"' 	c #707070",
") 	c #151515",
"! 	c #000000",
"~ 	c #4E4E4E",
"{ 	c #282828",
"] 	c #525252",
"^ 	c #1C1C1C",
"/ 	c #767676",
"( 	c #3B3B3B",
"_ 	c #383838",
": 	c #4D4D4D",
"< 	c #5A5A5A",
"[ 	c #010101",
"} 	c #797979",
"| 	c #1F1F1F",
"1 	c #202020",
"2 	c #6D6D6D",
"3 	c #656565",
"4 	c #050505",
"5 	c #212121",
"6 	c #5F5F5F",
"7 	c #5B5B5B",
"8 	c #121212",
"9 	c #353535",
"0 	c #6F6F6F",
"a 	c #0D0D0D",
"b 	c #0F0F0F",
"c 	c #585858",
"d 	c #646464",
"e 	c #464646",
"f 	c #606060",
"g 	c #787878",
"h 	c #6B6B6B",
"i 	c #7F7F7F",
"j 	c #777777",
"k 	c #3F3F3F",
"l 	c #AAAAAA",
"m 	c #FBFBFB",
"n 	c #FCFCFC",
"o 	c #E9E9E9",
"p 	c #B4B4B4",
"q 	c #0B0B0B",
"r 	c #181818",
"s 	c #141414",
"t 	c #0C0C0C",
"u 	c #0E0E0E",
"v 	c #454545",
"w 	c #686868",
"x 	c #BABABA",
"y 	c #D8D8D8",
"z 	c #FFFFFF",
"A 	c #8D8D8D",
"B 	c #929292",
"C 	c #7E7E7E",
"D 	c #080808",
"E 	c #565656",
"F 	c #252525",
"G 	c #090909",
"H 	c #242424",
"I 	c #A9A9A9",
"J 	c #616161",
"K 	c #C1C1C1",
"L 	c #1D1D1D",
"M 	c #4C4C4C",
"N 	c #343434",
"O 	c #E3E3E3",
"P 	c #F6F6F6",
"Q 	c #E1E1E1",
"R 	c #B6B6B6",
"S 	c #3C3C3C",
"T 	c #232323",
"U 	c #4B4B4B",
"V 	c #626262",
"W 	c #3E3E3E",
"X 	c #727272",
"Y 	c #A4A4A4",
"Z 	c #D9D9D9",
"` 	c #F9F9F9",
" .	c #ECECEC",
"..	c #ACACAC",
"+.	c #5E5E5E",
"@.	c #101010",
"#.	c #070707",
"$.	c #292929",
"%.	c #040404",
"&.	c #A5A5A5",
"*.	c #EBEBEB",
"=.	c #B3B3B3",
"-.	c #575757",
";.	c #272727",
">.	c #868686",
",.	c #7D7D7D",
"'.	c #060606",
").	c #434343",
"!.	c #9A9A9A",
"~.	c #F1F1F1",
"{.	c #F3F3F3",
"].	c #919191",
"^.	c #2A2A2A",
"/.	c #6A6A6A",
"(.	c #030303",
"_.	c #535353",
":.	c #B5B5B5",
"<.	c #BBBBBB",
"[.	c #4F4F4F",
"}.	c #161616",
"|.	c #8B8B8B",
"1.	c #FDFDFD",
"2.	c #DBDBDB",
"3.	c #666666",
"4.	c #171717",
"5.	c #555555",
"6.	c #E5E5E5",
"7.	c #DFDFDF",
"8.	c #D1D1D1",
"9.	c #878787",
"0.	c #959595",
"a.	c #E0E0E0",
"b.	c #0A0A0A",
"c.	c #757575",
"d.	c #D3D3D3",
"e.	c #A8A8A8",
"f.	c #848484",
"g.	c #898989",
"h.	c #111111",
"i.	c #262626",
"j.	c #D5D5D5",
"k.	c #7B7B7B",
"l.	c #9E9E9E",
"m.	c #D6D6D6",
"n.	c #FEFEFE",
"o.	c #B7B7B7",
"p.	c #828282",
"q.	c #D4D4D4",
"r.	c #696969",
"s.	c #BCBCBC",
"t.	c #222222",
"u.	c #9B9B9B",
"v.	c #8E8E8E",
"w.	c #D2D2D2",
"x.	c #CFCFCF",
"y.	c #313131",
"z.	c #303030",
"A.	c #CACACA",
"B.	c #F2F2F2",
"C.	c #373737",
"D.	c #C8C8C8",
"E.	c #CECECE",
"F.	c #1A1A1A",
"G.	c #5C5C5C",
"H.	c #9C9C9C",
"I.	c #1B1B1B",
"J.	c #B0B0B0",
"K.	c #949494",
"L.	c #131313",
"M.	c #EEEEEE",
"N.	c #CBCBCB",
"O.	c #424242",
"P.	c #D0D0D0",
"Q.	c #888888",
"R.	c #C5C5C5",
"S.	c #444444",
"T.	c #858585",
"U.	c #EFEFEF",
"V.	c #B2B2B2",
"W.	c #FAFAFA",
"X.	c #A7A7A7",
"Y.	c #ABABAB",
"Z.	c #A2A2A2",
"`.	c #9F9F9F",
" +	c #BFBFBF",
".+	c #2F2F2F",
"++	c #9D9D9D",
"@+	c #717171",
"#+	c #1E1E1E",
"$+	c #2D2D2D",
"%+	c #636363",
"&+	c #545454",
"*+	c #939393",
"=+	c #B8B8B8",
"-+	c #AEAEAE",
";+	c #E2E2E2",
">+	c #3D3D3D",
",+	c #393939",
"'+	c #F7F7F7",
")+	c #C3C3C3",
"!+	c #4A4A4A",
"~+	c #EAEAEA",
"{+	c #F8F8F8",
"]+	c #2E2E2E",
"^+	c #333333",
"/+	c #474747",
"(+	c #A1A1A1",
"_+	c #A0A0A0",
":+	c #C2C2C2",
"<+	c #515151",
"[+	c #414141",
"}+	c #E4E4E4",
"|+	c #404040",
"1+	c #494949",
"2+	c #191919",
"3+	c #C4C4C4",
"4+	c #676767",
"5+	c #363636",
"6+	c #909090",
"7+	c #737373",
"8+	c #BEBEBE",
"9+	c #D7D7D7",
"0+	c #6C6C6C",
". . . . . . . . . . . . . . . . . . . . . . . . . . . . . . . . . . . . . . . . . . . . . . . . . . . . . . . . . . . . . . . . . . . . . . . ",
". . . . . . . . . . . . . . . . . . . . . . . . . . . . . . . . . . . . . . . . . . . . . . . . . . . . . . . . . . . . . . . . . . . . . . . ",
". . . . . . . . . . . . . . . . . . . . . . . . . . . . . . . . . . . . . . . . . . . . . . . . . . . . . . . . . . . . . . . . . . . . . . . ",
". . . . . . . . . . . . . . . . . . . . . . . . . . . . . . . . . . . . . . . . . . . . . . . . . . . . . . . . . . . . . . . . . . . . . . . ",
". . . . . . . . . . . . . . . . . . . . . . . . . . . . . . . . . . . . . . . . . . . . . . . . . . . . . . . . . . . . . . . . . . . . . . . ",
". . . . . . . . . . . . . . . . . . . . . . . . . . . . . . . . . . . . . . . . . . . . . . . . . . . . . . . . . . . . . . . . . . . . . . . ",
". . . . . . . . . . . . . . . . . . . . . . . . . . . . . + . . . . . . . . . . . . . . . . . . . . . . . . . . . . . . . . . . . . . . . . . ",
". . . . . . . . . . . . . . . . . . . @ # $ . . . . . % & * = . . . . . . . . . . . . . . . . . . . . . . . . . . . . . . . . . . . . . . . . ",
". . . . . . . . . . . . . . . . . . . - ; > , . . . . ' ) ! * % . . . . . . . . . . . . . . . . . . . . . . . . . . . . . . . . . . . . . . . ",
". . . . . . . . . . . . . . . . . . . ~ ! ! { , . . . ] ! ! ^ / . . . . . . . . . . . . . . . . . . . . . . . . . . . . . . . . . . . . . . . ",
". . . . . . . . . . . . . . . . . . . ] ! ! ! ( + . % _ ! ! ! : . . . . . . . . . . . . . . . . . . . . . . . . . . . . . . . . . . . . . . . ",
". . . . . . . . . . . . . . . . . . . < [ ! ! ; ] . } | ! ! ! 1 2 . . . . . . . . . . . . . . . . . . . . . . . . . . . . . . . . . . . . . . ",
". . . . . . . . . . . . . . . . . . . 3 4 ! ! ! 5 6 7 8 ! ! ! ! 9 0 . . . . . . . . . . . . . . . . . . . . . . . . . . . . . . . . . . . . . ",
". . . . . . . . . . . . . . . . . . . 0 a ! b c d & e 4 ! ! ! ! ! { f g $ , h , g i . . . . . . . . . . . . . . . . . . . . . . . . . . . . . ",
". . . . . . . . . . . . . . . . . . . j ) k l m n o p ) ! ! ! ! ! ! q r s t q u r v i . . . . . . . . . . . . . . . . . . . . . . . . . . . . ",
". . . . . . . . . . . . . . . . . . . w < x y z A B C ! ! ! ! ! ! D E * F G ! ! ! H / C % . . . . . . . . . . . . . . . . . . . . . . . . . . ",
". . . . . . . . . . . . . . . . . . % * I 2 J K L 0 M ! ! ! ! ! ! N O P Q R @ S G ! r T N U V / . . . . . . . . . . . . . . . . . . . . . . . ",
". . . . . . . . . . . . . . . . . . 2 8 W ! 5 v ! L [ ! ! ! ! ! ! D e X Y Z `  ...+.@.! ! ! #.$.' . . . . . . . . . . . . . . . . . . . . . . ",
". . . . . . . . . . . . . . . . . % e ! ! ! ! ! ! ! ! ! ! ! ! ! ! ! ! ! %.1 # &.*.` =.-.; ! ;.+.>.. . . . . . . . . . . . . . . . . . . . . . ",
". . . . . . . . . . . . . . . . . ,.H ! ! ! ! ! ! ! ! ! ! ! ! ! ! ! ! ! ! ! ! '.).!.~.{.].^.@.T k J } . . . . . . . . . . . . . . . . . . . . ",
". . . . . . . . . . . . . . . . . /.q ! ! ! ! ! ! ! ! ! ! ! ! ! ! ! ! ! ! ! ! ! ! (._.:.z <.: ! ! #.5 * $ . . . . . . . . . . . . . . . . . . ",
". . . . . . . . . . . . . . . . . [.! ! ! ! ! ! ! ! ! ! ! ! ! ! ! ! ! }.e ! ! ! ! ! ! 1 |.1.2.6 ! ! ! ! | 3.. . . . . . . . . . . . . . . . . ",
". . . . . . . . . . . . . . . . % 9 ! ! ! ! ! q 4.}.; ! ! ! ! ! ! ! ! V {.5.! ! ! ! ! ! ! X 6.7.f ! @.S & } . . . . . . . . . . . . . . . . . ",
". . . . . . . . . . . . . . . . = | ! ! ! W >.<.8.8.9.G ! ! ! ! ! ! ! c m 0.[ ! ! ! ! ! ! ! J a.7.6 D k ' . . . . . . . . . . . . . . . . . . ",
". . . . . . . . . . . . . . . . +.b.! ! c.d.e.0 # f.g.h.! ! ! ! ! ! ! i.2.K t ! ! ! ! ! ! ! ! 3 ~.j.e ! H # . . . . . . . . . . . . . . . . . ",
". . . . . . . . . . . . . . . j > ! ! ' 2.V 5.k.& ! '.! ! ! ! ! ! ! ! (.l.m.r ! ! ! ! ! ! ! ! ! ,.n.o.i.! r [.p.. . . . . . . . . . . . . . . ",
". . . . . . . . . . . . . . + v ! ! S q.r.j {.z s.h.! ! ! ! ! ! ! ! ! ! ' Q t.! ! ! ! ! ! ! ! ! b.u.z v.[ ! 4 ).+ . . . . . . . . . . . . . . ",
". . . . . . . . . . . . . . d h.! ! v.p 8 @ w.x.j ! ! ! ! ! ! ! ! ! ! ! -.7.H ! y.! ! ! ! ! ! ! ! z.A.B.- ! ! [ ~ . . . . . . . . . . . . . . ",
". . . . . . . . . . . . . i C.! ! h.D., ! (.}.}.! ! ! ! ! ! ! ! ! ! ! ! 7 E.}.V j.F ! ! ! ! ! ! ! ! 3.` <.F.! ! F.0 . . . . . . . . . . . . . ",
". . . . . . . . . . . . . G.D ! ! ! M s ! ! ! ! ! ! ! ! ! ! ! ! ! ! ! ! ,.Y '.H.j.I.! ! ! ! ! ! ! ! b.&.n.$ 8 ( & i . . . . . . . . . . . . . ",
". . . . . . . . . . . . . z.! ! ! ! ! ! ! ! ! ! ! ! ! ! ! ! ! ! ! ! ! #.J.r.}.E.K.; L.U ! ! ! ! ! ! ! U M.N._ [.. . . . . . . . . . . . . . . ",
". . . . . . . . . . . . < #.! ! ! ! ! ! ! ! ! ! ! ! ! ! ! ! ! ! ! ! ! W K i.G.a.O.! , P.}.! ! ! ! ! ! 4 l.n.c.%.O.% . . . . . . . . . . . . . ",
". . . . . . . . . . . = ^.! ! ! ! ! ! ! ! ! ! ! ! ! ! ! ! ! ! ! ! ! ; 0.f.r p Q.! t :.I #.! ! ! ! ! ! ! : B.R.r [ S.. . . . . . . . . . . . . ",
". . . . . . . . . . . U ! ! ! ! ! ! ! ! ! ! ! ! ! ! ! ! ! ! ! ! ! ! 6 <.^.T.J.| ! c U.f ! ! ! ! ! ! ! ! q V.W.+.! u c . . . . . . . . . . . . ",
". . . . . . . . . . V 4.! ! ! ! ! ! ! ! ! ! ! ! ! ! ! ! ! ! ! ! ! %.- V % <.S ! H R Y a ! ! ! ! ! ! ! ! ! r.n X.'.! r J . . . . . . . . . . . ",
". . . . . . . . . k.y.! ! ! ! ! ! ! ! ! ! ! ! ! ! ! ! ! ! ! ! ! ! ! z.Y.Z.y.! F `. +C.! ! ! ! ! ! ! ! ! ! F 2.6.z.! ! .+k.. . . . . . . . . . ",
". . . . . . . . 9.O.! ! ! ! ! ! ! ! ! ! ! ! ! ! ! ! ! ! ! ! ! ! ! ! 9 d h.h.c R J.W ! ! ! ! ! ! ! ! ! ! ! (.++n.@+#+$+| %+. . . . . . . . . . ",
". . . . . . . . &+#.! ! ! ! ! ! ! ! ! ! ! ! ! ! ! ! ! ! ! ! ! ! ! ! ;.0 *+=+o.0 ) ! ! ! ! ! ! ! ! ! ! ! ! ! 6 m -+y.2 } i . . . . . . . . . . ",
". . . . . . . r.L ! ! ! ! ! ! ! ! ! ! ! ! ! ! ! ! ! ! ! ! (.| * t.! C.C , ).s ! ! ! ! ! ! ! ! ! ! ! ! ! ! ! ;.Q ;+{ $.d . . . . . . . . . . . ",
". . . . . . % ( ! #.! ! ! ! ! ! ! ! ! ! ! ! ! ! ! ! }.> >+E j } L ! ! ! ! ! ! ! ! ! ! ! ! ! ! ! ! ! ! ! ! ! D p W.G.! $.c.. . . . . . . . . . ",
". . . . . . $ s >+k.h.! ! ! ! ! ! ! ! ! ! ! ! ! ! F.G.i . . . 2 t ! ! ! ! ! ! ! ! ! ! ! ! ! ! ! ! ! ! ! ! ! ! . z ].! ! ,+i . . . . . . . . . ",
". . . . . . f #.0.6._ ! ! ! ! ! ! ! ! ! ! ! ! ! I.# . . . . . & ! ! ! ! ! ! ! ! ! ! ! ! ! ! ! ! ! ! ! ! ! ! ! [.'+)+b ! ! !+. . . . . . . . . ",
". . . . . . ~ b.o.z J..+! ! ! ! ! ! ! ! ! ! ! .+V . . . . . i z.! ! ! ! ! ! ! ! ! ! ! ! ! ! ! ! ! ! ! ! ! ! ! i.;+6.$.b.! }.h . . . . . . . . ",
". . . . . % e ! c.U.~+: ! ] 3 F.! ! ! ! ! ! S.} . . . . . . %+q ! ! ! ! ! ! ! ! ! ! ! ! ! ! ! ! ! ! ! ! ! ! ! b R.{+[.]+] $+G.% . . . . . . . ",
". . . . . p.e ! ! ^+y.! ,+O z % ! ! ! ! ! /+g.. . . . . . i _ ! ! ! ! ! ! ! ! ! ! ! ! ! ! ! ! ! ! ! ! ! ! ! ! (.(+z g G 5.i i . . . . . . . . ",
". . . . . . M ! ! ! ! ! < 1.z @ ! ! ! ! W >.. . . . . . . &+D ! ! ! ! ! ! ! ! ! ! ! ! ! ! ! ! ! ! ! ! ! ! ! ! ! k.z _+(.5 0 . . . . . . . . . ",
". . . . . . V '.! ! ! ! ( 2.y $.! ! ! r 2 . . . . . . . /.t.! ! ! ! ! ! ! ! ! ! ! ! ! ! ! ! ! ! ! ! ! ! ! ! ! ! -.m :+t ! k + . . . . . . . . ",
". . . . . . } ^.! ! ! ! ! e <+! ! ! ! [+p.. . . . . . j N ! ! ! ! ! ! ! ! ! ! ! ! ! ! ! ! ! ! ! ! ! ! ! ! ! ! ! ( ~.2.^ ! @.3.. . . . . . . . ",
". . . . . . . G.) ! ! ! ! ! ! ! ! ! b.V . . . . . . 9.,+! ! ! ! ! ! ! ! ! ! ! ! ! ! ! ! ! ! ! ! ! ! ! ! ! ! ! ! ;.}+ .z.! ! |+p.. . . . . . . ",
". . . . . . . . G.^.! ! ! ! ! ! ! ! C.. . . . . . + 1+! ! ! ! ! ! ! ! ! ! ! ! ! ! ! ! ! ! ! ! ! ! ! ! ! ! ! ! ! r j.P /+s L.2+$ . . . . . . . ",
". . . . . . . . . = & ;.! ! ! ! ! 2+3 . . . . . . <+4 ! ! ! ! ! ! ! ! ! ! ! ! ! ! ! ! ! ! ! ! ! ! ! ! ! ! ! ! ! t 3+n 6 > 4+E k.. . . . . . . ",
". . . . . . . . . . . 0 5+t %.'.H 5.. . . . . . # r ! ! ! ! ! ! ! ! ! ! ! ! ! ! ! ! ! ! ! ! ! ! ! ! ! ! ! ! ! ! 4 =.z j ! /++ . . . . . . . . ",
". . . . . . . . . . . . i 2 V d j . . . . . . ' { ! ! ! ! ! ! ! ! ! ! ! ! ! ! ! ! ! ! ! ! ! ! ! ! ! ! ! ! ! ! ! ; (+z |.! s 3 . . . . . . . . ",
". . . . . . . . . . . . . . . . . . . . . . p.k ! ! ! ! ! ! ! ! ! ! ! ! ! ! ! ! ! ! ! ! ! ! ! ! ! ! ! ! ! ! ! ! ! 6+z _+(.! C.. . . . . . . . ",
". . . . . . . . . . . . . . . . . . . . . . 6 t ! ! ! ! ! ! ! ! ! ! ! ! ! ! ! ! ! ! ! ! ! ! ! ! ! ! ! ! ! ! ! ! ! % z J.%.! G f . . . . . . . ",
". . . . . . . . . . . . . . . . . . . . . . ^+! ! ! ! ! ! ! ! ! ! ! ! ! ! ! ! ! ! ! ! ! ! ! ! ! ! ! ! ! ! ! ! ! ! 7+z 8+q (.! S i . . . . . . ",
". . . . . . . . . . . . . . . . . . . . . d q ! ! ! ! ! ! ! ! ! ! ! ! ! ! ! ! ! ! ! ! ! ! ! ! ! ! ! ! ! ! ! ! ! ! /.n.R.| O.( ( g . . . . . . ",
". . . . . . . . . . . . . . . . . . . . % S.! ! ! ! ! ! ! ! ! ! ! ! ! ! ! ! ! ! ! ! ! ! ! ! ! ! ! ! ! ! ! ! ! ! ! J 1.E.L.C.i } . . . . . . . ",
". . . . . . . . . . . . . . . . . . . . ,.F ! ! ! ! ! ! ! ! ! ! ! ! ! ! ! ! ! ! ! ! ! ! ! ! ! ! ! ! ! ! ! ! ! ! ! c m q.}.#.G.. . . . . . . . ",
". . . . . . . . . . . . . . . . . . . . c.) ! ! ! ! ! ! ! ! ! ! ! ! ! ! ! ! ! ! ! ! ! ! ! ! ! ! ! ! ! ! ! ! ! ! ! _.W.9+r ! _ . . . . . . . . ",
". . . . . . . . . . . . . . . . . . . . 2 b.! ! ! ! ! ! ! ! ! ! ! ! ! ! ! ! ! ! ! ! ! ! ! ! ! ! ! ! ! ! ! ! ! ! ! ] W.Z F.! 4./ . . . . . . . ",
". . . . . . . . . . . . . . . . . . . . 0+5 F.F.F.F.F.F.F.F.F.F.F.F.F.F.F.F.F.F.F.F.F.F.F.F.F.F.F.F.F.F.F.F.F.F.F.3 M.x.9 F.T 0+. . . . . . . ",
". . . . . . . . . . . . . . . . . . . . + } } } } } } } } } } } } } } } } } } } } } } } } } } } } } } } } } } } } C K.K.} } } % . . . . . . . ",
". . . . . . . . . . . . . . . . . . . . . . . . . . . . . . . . . . . . . . . . . . . . . . . . . . . . . . . . . . . . . . . . . . . . . . . ",
". . . . . . . . . . . . . . . . . . . . . . . . . . . . . . . . . . . . . . . . . . . . . . . . . . . . . . . . . . . . . . . . . . . . . . . ",
". . . . . . . . . . . . . . . . . . . . . . . . . . . . . . . . . . . . . . . . . . . . . . . . . . . . . . . . . . . . . . . . . . . . . . . ",
". . . . . . . . . . . . . . . . . . . . . . . . . . . . . . . . . . . . . . . . . . . . . . . . . . . . . . . . . . . . . . . . . . . . . . . ",
". . . . . . . . . . . . . . . . . . . . . . . . . . . . . . . . . . . . . . . . . . . . . . . . . . . . . . . . . . . . . . . . . . . . . . . ",
". . . . . . . . . . . . . . . . . . . . . . . . . . . . . . . . . . . . . . . . . . . . . . . . . . . . . . . . . . . . . . . . . . . . . . . ",
". . . . . . . . . . . . . . . . . . . . . . . . . . . . . . . . . . . . . . . . . . . . . . . . . . . . . . . . . . . . . . . . . . . . . . . ",
". . . . . . . . . . . . . . . . . . . . . . . . . . . . . . . . . . . . . . . . . . . . . . . . . . . . . . . . . . . . . . . . . . . . . . . "};
