/* XPM */
static char * nbbp_xpm[] = {
"71 71 97 2",
"  	c None",
". 	c #808080",
"+ 	c #5E5E5E",
"@ 	c #4F4F4F",
"# 	c #545454",
"$ 	c #212121",
"% 	c #040404",
"& 	c #000000",
"* 	c #242424",
"= 	c #575757",
"- 	c #555555",
"; 	c #101010",
"> 	c #595959",
", 	c #262626",
"' 	c #2B2B2B",
") 	c #656565",
"! 	c #080808",
"~ 	c #0B0B0B",
"{ 	c #696969",
"] 	c #5C5C5C",
"^ 	c #030303",
"/ 	c #060606",
"( 	c #636363",
"_ 	c #090909",
": 	c #676767",
"< 	c #202020",
"[ 	c #535353",
"} 	c #0F0F0F",
"| 	c #121212",
"1 	c #3A3A3A",
"2 	c #3C3C3C",
"3 	c #7D7D7D",
"4 	c #2A2A2A",
"5 	c #303030",
"6 	c #343434",
"7 	c #3E3E3E",
"8 	c #3F3F3F",
"9 	c #404040",
"0 	c #424242",
"a 	c #434343",
"b 	c #4D4D4D",
"c 	c #6B6B6B",
"d 	c #131313",
"e 	c #030403",
"f 	c #1B1B1B",
"g 	c #787878",
"h 	c #5F5F5F",
"i 	c #5D5D5D",
"j 	c #505150",
"k 	c #171717",
"l 	c #191919",
"m 	c #626262",
"n 	c #252525",
"o 	c #272727",
"p 	c #666666",
"q 	c #141414",
"r 	c #727272",
"s 	c #383838",
"t 	c #4C4C4C",
"u 	c #4E4E4E",
"v 	c #505050",
"w 	c #5A5A5A",
"x 	c #111111",
"y 	c #2D2D2D",
"z 	c #050505",
"A 	c #606060",
"B 	c #474747",
"C 	c #2F2F2F",
"D 	c #3D3D3D",
"E 	c #313131",
"F 	c #454545",
"G 	c #4A4A4A",
"H 	c #646464",
"I 	c #0D0D0D",
"J 	c #686868",
"K 	c #414141",
"L 	c #444444",
"M 	c #323232",
"N 	c #020202",
"O 	c #0C0C0C",
"P 	c #070707",
"Q 	c #2E2E2E",
"R 	c #1C1C1C",
"S 	c #616161",
"T 	c #515151",
"U 	c #181818",
"V 	c #5B5B5B",
"W 	c #757575",
"X 	c #0A0A0A",
"Y 	c #0E0E0E",
"Z 	c #363636",
"` 	c #3B3B3B",
" .	c #7B7B7B",
"..	c #353535",
"+.	c #2C2C2C",
"@.	c #222222",
"#.	c #373737",
". . . . . . . . . . . . . . . . . . . . . . . . . . . . . . . . . . . . . . . . . . . . . . . . . . . . . . . . . . . . . . . . . . . . . . . ",
". . . . . . . . . . . . . . . . . . . . . . . . . . . . . . . . . . . . . . . . . . . . . . . . . . . . . . . . . . . . . . . . . . . . . . . ",
". . . . . . . . . . . . . . . . . . . . . . . . . . . . . . . . . . . . . . . . . . . . . . . . . . . . . . . . . . . . . . . . . . . . . . . ",
". . . . . . . . . . . . . . . . . . . . . . . . . . . . . . . . . . . . . . . . . . . . . . . . . . . . . . . . . . . . . . . . . . . . . . . ",
". . . . . . . . . . . . . . . . . . . . . . . . . . . . . . . . . . . . . . . . . . . . . . . . . . . . . . . . . . . . . . . . . . . . . . . ",
". . . . . . . . . . . . . . . . . . . . . . . . . . . . . . . . . . . . . . . . . . . . . . . . . . . . . . . . . . . . . . . . . . . . . . . ",
". . . . . . . . . . . . . . . . . . . . . . . . . . . . . . . . . . + @ @ + . . . . . . . . . . . . . . . . . . . . . . . . . . . . . . . . . ",
". . . . . . . . . . . . . . . . . . . . . . . . . . . . . . . . # $ % & & % * = . . . . . . . . . . . . . . . . . . . . . . . . . . . . . . . ",
". . . . . . . . . . . . . . . . . . . . . . . . . . . . . . . - ; & & & & & & ; > . . . . . . . . . . . . . . . . . . . . . . . . . . . . . . ",
". . . . . . . . . . . . . . . . . . . . . . . . . . . . . . . , & & & & & & & & ' . . . . . . . . . . . . . . . . . . . . . . . . . . . . . . ",
". . . . . . . . . . . . . . . . . . . . . . . . . . . . . . ) ! & & & & & & & & ~ { . . . . . . . . . . . . . . . . . . . . . . . . . . . . . ",
". . . . . . . . . . . . . . . . . . . . . . . . . . . . . . ] ^ & & & & & & & & / ( . . . . . . . . . . . . . . . . . . . . . . . . . . . . . ",
". . . . . . . . . . . . . . . . . . . . . . . . . . . . . . ( / & & & & & & & & _ : . . . . . . . . . . . . . . . . . . . . . . . . . . . . . ",
". . . . . . . . . . . . . . . . . . . . . . . . . . . . . . . < & & & & & & & & , . . . . . . . . . . . . . . . . . . . . . . . . . . . . . . ",
". . . . . . . . . . . . . . . . . . . . . . . . . . . . . . . [ } & & & & & & | = . . . . . . . . . . . . . . . . . . . . . . . . . . . . . . ",
". . . . . . . . . . . . . . . . . . . . . . . . . . . . . . . . 1 & & & & & & 2 . . . . . . . . . . . . . . . . . . . . . . . . . . . . . . . ",
". . . . . . . . . . . . . . . . . . . . . . . . . . . . . . . 3 4 & & & & & & ' . . . . . . . . . . . . . . . . . . . . . . . . . . . . . . . ",
". . . . . . . . . . . . . . . . . . . . . . . . . . . . . . . 5 & & & & & & & & 6 . . . . . . . . . . . . . . . . . . . . . . . . . . . . . . ",
". . . . . . . . . . . . . . . . . . . . . . . . . . . . . . 6 & & & & & & & & & & 7 . . . . . . . . . . . . . . . . . . . . . . . . . . . . . ",
". . . . . . . . . . . . . . . . . . . . . . . . . . . . . 8 & & & & & & & & & & & & 9 . . . . . . . . . . . . . . . . . . . . . . . . . . . . ",
". . . . . . . . . . . . . . . . . . . . . . . . . . . . 9 & & & & & & & & & & & & & & 9 . . . . . . . . . . . . . . . . . . . . . . . . . . . ",
". . . . . . . . . . . . . . . . . . . . . . . . . . . 9 & & & & & & & & & & & & & & & & 0 . . . . . . . . . . . . . . . . . . . . . . . . . . ",
". . . . . . . . . . . . . . . . . . . . . . . . . . a & & & & & & & & & & & & & & & & & / b . . . . . . . . . . . . . . . . . . . . . . . . . ",
". . . . . . . . . . . . . . . . . . . . . . . . . c d % % e & & & & & & & & & & & & e % % f g . . . . . . . . . . . . . . . . . . . . . . . . ",
". . . . . . . . . . . . . . . . . . . . . . . . . . h i i j k & & & & & & & & & & l [ i i m . . . . . . . . . . . . . . . . . . . . . . . . . ",
". . . . . . . . . . . . . . . . . . . . . . . . . . . . . . n & & & & & & & & & & o . . . . . . . . . . . . . . . . . . . . . . . . . . . . . ",
". . . . . . . . . . . . . . . . . . . . . . . . . . . . . p } & & & & & & & & & & q r . . . . . . . . . . . . . . . . . . . . . . . . . . . . ",
". . . . . . . . . . . . . . . . . . . . . . . . . . . . . s & & & & & & & & & & & & 1 . . . . . . . . . . . . . . . . . . . . . . . . . . . . ",
". . . . . . . . . . . . . . . . . . . . . . . . . . . . t ^ & & & & & & & & & & & & / u . . . . . . . . . . . . . . . . . . . . . . . . . . . ",
". . . . . . . . . . . . . . . . . . . . . . . . . . . v ; & & & & & & & & & & & & & & ; v . . . . . . . . . . . . . . . . . . . . . . . . . . ",
". . . . . . . . . . . . . . . . . . . . . . . . . . w x & & & & & & & & & & & & & & & & q i . . . . . . . . . . . . . . . . . . . . . . . . . ",
". . . . . . . . . . . . . . . . . . . . . . . . . . ' & & & & & & & & & & & & & & & & & & y . . . . . . . . . . . . . . . . . . . . . . . . . ",
". . . . . . . . . . . . . . . . . . . . . . . . . ] z & & & & & & & & & & & & & & & & & & ! A . . . . . . . . . . . . . . . . . . . . . . . . ",
". . . . . . . . . . . . . . . . . . . . . . . . . 0 & & & & & & & & & & & & & & & & & & & & B . . . . . . . . . . . . . . . . . . . . . . . . ",
". . . . . . . . . . . . . . . . . . . . . . . . . C & & & & & & & & & & & & & & & & & & & & D . . . . . . . . . . . . . . . . . . . . . . . . ",
". . . . . . . . . . . . . . . . . . . . . . . . . E & & & & & & & & & & & & & & & & & & & & D . . . . . . . . . . . . . . . . . . . . . . . . ",
". . . . . . . . . . . . . . . . . . . . . . . . . F & & & & & & & & & & & & & & & & & & & & G . . . . . . . . . . . . . . . . . . . . . . . . ",
". . . . . . . . . . . . . . . . . . . . . . . . . H I & & & & & & & & & & & & & & & & & & | J . . . . . . . . . . . . . . . . . . . . . . . . ",
". . . . . . . . . . . . . . . . . . . . . . . . . . K & & & & & & & & & & & & & & & & & & L . . . . . . . . . . . . . . . . . . . . . . . . . ",
". . . . . . . . . . . . . . . . . . . . . . . . . . . M & & & & & & & & & & & & & & & & 2 . . . . . . . . . . . . . . . . . . . . . . . . . . ",
". . . . . . . . . . . . . . . . . . . . . . . . . . . . 0 N & & & & & & & & & & & & O L . . . . . . . . . . . . . . . . . . . . . . . . . . . ",
". . . . . . . . . . . . . . . . . . . . . . . . . . . . . 8 & & & & & & & & & & & & B . . . . . . . . . . . . . . . . . . . . . . . . . . . . ",
". . . . . . . . . . . . . . . . . . . . . . . . . . . . . A / & & & & & & & & & & P H . . . . . . . . . . . . . . . . . . . . . . . . . . . . ",
". . . . . . . . . . . . . . . . . . . . . . . . . . . . . v N & & & & & & & & & & N # . . . . . . . . . . . . . . . . . . . . . . . . . . . . ",
". . . . . . . . . . . . . . . . . . . . . . . . . . . . . Q & & & & & & & & & & & & M . . . . . . . . . . . . . . . . . . . . . . . . . . . . ",
". . . . . . . . . . . . . . . . . . . . . . . . . . . . [ / & & & & & & & & & & & & _ > . . . . . . . . . . . . . . . . . . . . . . . . . . . ",
". . . . . . . . . . . . . . . . . . . . . . . . . . . A R & & & & & & & & & & & & & & < S . . . . . . . . . . . . . . . . . . . . . . . . . . ",
". . . . . . . . . . . . . . . . . . . . . . . . . . h < & & & & & & & & & & & & & & & & $ A . . . . . . . . . . . . . . . . . . . . . . . . . ",
". . . . . . . . . . . . . . . . . . . . . . . . . T U & & & & & & & & & & & & & & & & & & R # . . . . . . . . . . . . . . . . . . . . . . . . ",
". . . . . . . . . . . . . . . . . . . . . . . . T x & & & & & & & & & & & & & & & & & & & & ; v . . . . . . . . . . . . . . . . . . . . . . . ",
". . . . . . . . . . . . . . . . . . . . . . . # ; & & & & & & & & & & & & & & & & & & & & & & | V . . . . . . . . . . . . . . . . . . . . . . ",
". . . . . . . . . . . . . . . . . . . . . . J R & & & & & & & & & & & & & & & & & & & & & & & & * W . . . . . . . . . . . . . . . . . . . . . ",
". . . . . . . . . . . . . . . . . . . . . . s & & & & & & & & & & & & & & & & & & & & & & & & & & 2 . . . . . . . . . . . . . . . . . . . . . ",
". . . . . . . . . . . . . . . . . . . . . h X & & & & & & & & & & & & & & & & & & & & & & & & & & Y ( . . . . . . . . . . . . . . . . . . . . ",
". . . . . . . . . . . . . . . . . . . . . Z & & & & & & & & & & & & & & & & & & & & & & & & & & & & ` . . . . . . . . . . . . . . . . . . . . ",
". . . . . . . . . . . . . . . . . . . .  .d & & & & & & & & & & & & & & & & & & & & & & & & & & & & U . . . . . . . . . . . . . . . . . . . . ",
". . . . . . . . . . . . . . . . . . . . = ^ & & & & & & & & & & & & & & & & & & & & & & & & & & & & z + . . . . . . . . . . . . . . . . . . . ",
". . . . . . . . . . . . . . . . . . . . K & & & & & & & & & & & & & & & & & & & & & & & & & & & & & & B . . . . . . . . . . . . . . . . . . . ",
". . . . . . . . . . . . . . . . . . . . C & & & & & & & & & & & & & & & & & & & & & & & & & & & & & & ... . . . . . . . . . . . . . . . . . . ",
". . . . . . . . . . . . . . . . . . . . n & & & & & & & & & & & & & & & & & & & & & & & & & & & & & & +.. . . . . . . . . . . . . . . . . . . ",
". . . . . . . . . . . . . . . . . . . . @.& & & & & & & & & & & & & & & & & & & & & & & & & & & & & & ' . . . . . . . . . . . . . . . . . . . ",
". . . . . . . . . . . . . . . . . . . . #.q q q q q q q q q q q q q q q q q q q q q q q q q q q q q q D . . . . . . . . . . . . . . . . . . . ",
". . . . . . . . . . . . . . . . . . . . . . . . . . . . . . . . . . . . . . . . . . . . . . . . . . . . . . . . . . . . . . . . . . . . . . . ",
". . . . . . . . . . . . . . . . . . . . . . . . . . . . . . . . . . . . . . . . . . . . . . . . . . . . . . . . . . . . . . . . . . . . . . . ",
". . . . . . . . . . . . . . . . . . . . . . . . . . . . . . . . . . . . . . . . . . . . . . . . . . . . . . . . . . . . . . . . . . . . . . . ",
". . . . . . . . . . . . . . . . . . . . . . . . . . . . . . . . . . . . . . . . . . . . . . . . . . . . . . . . . . . . . . . . . . . . . . . ",
". . . . . . . . . . . . . . . . . . . . . . . . . . . . . . . . . . . . . . . . . . . . . . . . . . . . . . . . . . . . . . . . . . . . . . . ",
". . . . . . . . . . . . . . . . . . . . . . . . . . . . . . . . . . . . . . . . . . . . . . . . . . . . . . . . . . . . . . . . . . . . . . . ",
". . . . . . . . . . . . . . . . . . . . . . . . . . . . . . . . . . . . . . . . . . . . . . . . . . . . . . . . . . . . . . . . . . . . . . . ",
". . . . . . . . . . . . . . . . . . . . . . . . . . . . . . . . . . . . . . . . . . . . . . . . . . . . . . . . . . . . . . . . . . . . . . . ",
". . . . . . . . . . . . . . . . . . . . . . . . . . . . . . . . . . . . . . . . . . . . . . . . . . . . . . . . . . . . . . . . . . . . . . . "};
