/* XPM */
static char * nbbq_xpm[] = {
"71 71 225 2",
"  	c None",
". 	c #808080",
"+ 	c #7D7D7D",
"@ 	c #7E7E7E",
"# 	c #7C7C7C",
"$ 	c #484848",
"% 	c #292929",
"& 	c #2B2B2B",
"* 	c #4D4D4D",
"= 	c #7B7B7B",
"- 	c #3B3B3B",
"; 	c #000000",
"> 	c #393939",
", 	c #818181",
"' 	c #666666",
") 	c #070707",
"! 	c #0A0A0A",
"~ 	c #696969",
"{ 	c #575757",
"] 	c #010101",
"^ 	c #5D5D5D",
"/ 	c #5F5F5F",
"( 	c #040404",
"_ 	c #060606",
": 	c #676767",
"< 	c #3A3A3A",
"[ 	c #3C3C3C",
"} 	c #7F7F7F",
"| 	c #828282",
"1 	c #7A7A7A",
"2 	c #414141",
"3 	c #434343",
"4 	c #4F4F4F",
"5 	c #2A2A2A",
"6 	c #242424",
"7 	c #474747",
"8 	c #797979",
"9 	c #858585",
"0 	c #303030",
"a 	c #787878",
"b 	c #454545",
"c 	c #232323",
"d 	c #2C2C2C",
"e 	c #585858",
"f 	c #606060",
"g 	c #0C0C0C",
"h 	c #444444",
"i 	c #373737",
"j 	c #161616",
"k 	c #656565",
"l 	c #222222",
"m 	c #252525",
"n 	c #1D1D1D",
"o 	c #4C4C4C",
"p 	c #777777",
"q 	c #171717",
"r 	c #1A1A1A",
"s 	c #646464",
"t 	c #1B1B1B",
"u 	c #505050",
"v 	c #686868",
"w 	c #090909",
"x 	c #0B0B0B",
"y 	c #6C6C6C",
"z 	c #6D6D6D",
"A 	c #262626",
"B 	c #535353",
"C 	c #030303",
"D 	c #8D8D8D",
"E 	c #2E2E2E",
"F 	c #595959",
"G 	c #424242",
"H 	c #5E5E5E",
"I 	c #6B6B6B",
"J 	c #2D2D2D",
"K 	c #4B4B4B",
"L 	c #0F0F0F",
"M 	c #707070",
"N 	c #737373",
"O 	c #131313",
"P 	c #202020",
"Q 	c #101010",
"R 	c #727272",
"S 	c #272727",
"T 	c #545454",
"U 	c #020202",
"V 	c #1E1E1E",
"W 	c #404040",
"X 	c #4A4A4A",
"Y 	c #333333",
"Z 	c #555555",
"` 	c #2F2F2F",
" .	c #0D0D0D",
"..	c #636363",
"+.	c #383838",
"@.	c #3F3F3F",
"#.	c #050505",
"$.	c #3D3D3D",
"%.	c #848484",
"&.	c #3E3E3E",
"*.	c #838383",
"=.	c #323232",
"-.	c #525252",
";.	c #111111",
">.	c #151515",
",.	c #767676",
"'.	c #121212",
").	c #494949",
"!.	c #616161",
"~.	c #080808",
"{.	c #141414",
"].	c #717171",
"^.	c #1C1C1C",
"/.	c #181818",
"(.	c #353535",
"_.	c #515151",
":.	c #363636",
"<.	c #5A5A5A",
"[.	c #757575",
"}.	c #6E6E6E",
"|.	c #343434",
"1.	c #313131",
"2.	c #0E0E0E",
"3.	c #6A6A6A",
"4.	c #282828",
"5.	c #5C5C5C",
"6.	c #6F6F6F",
"7.	c #868686",
"8.	c #4E4E4E",
"9.	c #747474",
"0.	c #212121",
"a.	c #949494",
"b.	c #B7B7B7",
"c.	c #CFCFCF",
"d.	c #E1E1E1",
"e.	c #ECECEC",
"f.	c #F4F4F4",
"g.	c #FAFAFA",
"h.	c #FBFBFB",
"i.	c #FFFFFF",
"j.	c #E0E0E0",
"k.	c #B5B5B5",
"l.	c #929292",
"m.	c #A4A4A4",
"n.	c #D9D9D9",
"o.	c #FEFEFE",
"p.	c #FDFDFD",
"q.	c #FCFCFC",
"r.	c #F3F3F3",
"s.	c #D7D7D7",
"t.	c #A0A0A0",
"u.	c #CBCBCB",
"v.	c #F2F2F2",
"w.	c #E3E3E3",
"x.	c #D0D0D0",
"y.	c #BDBDBD",
"z.	c #AAAAAA",
"A.	c #989898",
"B.	c #878787",
"C.	c #999999",
"D.	c #ABABAB",
"E.	c #BEBEBE",
"F.	c #D2D2D2",
"G.	c #E4E4E4",
"H.	c #C6C6C6",
"I.	c #8C8C8C",
"J.	c #EBEBEB",
"K.	c #C2C2C2",
"L.	c #919191",
"M.	c #C4C4C4",
"N.	c #EDEDED",
"O.	c #CACACA",
"P.	c #D6D6D6",
"Q.	c #D8D8D8",
"R.	c #898989",
"S.	c #A2A2A2",
"T.	c #E6E6E6",
"U.	c #9D9D9D",
"V.	c #8E8E8E",
"W.	c #CDCDCD",
"X.	c #888888",
"Y.	c #5B5B5B",
"Z.	c #EFEFEF",
"`.	c #EAEAEA",
" +	c #A5A5A5",
".+	c #F6F6F6",
"++	c #E2E2E2",
"@+	c #9C9C9C",
"#+	c #E8E8E8",
"$+	c #979797",
"%+	c #8B8B8B",
"&+	c #F5F5F5",
"*+	c #9B9B9B",
"=+	c #CECECE",
"-+	c #DBDBDB",
";+	c #DADADA",
">+	c #B4B4B4",
",+	c #D3D3D3",
"'+	c #DFDFDF",
")+	c #909090",
"!+	c #C5C5C5",
"~+	c #1F1F1F",
"{+	c #A9A9A9",
"]+	c #C3C3C3",
"^+	c #191919",
"/+	c #C7C7C7",
"(+	c #9F9F9F",
"_+	c #A6A6A6",
":+	c #BCBCBC",
"<+	c #E7E7E7",
"[+	c #E9E9E9",
"}+	c #CCCCCC",
"|+	c #BBBBBB",
"1+	c #8A8A8A",
"2+	c #464646",
"3+	c #AFAFAF",
"4+	c #F8F8F8",
"5+	c #ADADAD",
"6+	c #565656",
"7+	c #F0F0F0",
"8+	c #E5E5E5",
"9+	c #F7F7F7",
"0+	c #8F8F8F",
"a+	c #A3A3A3",
"b+	c #D4D4D4",
". . . . . . . . . . . . . . . . . . . . . . . . . . . . . . . . . . . . . . . . . . . . . . . . . . . . . . . . . . . . . . . . . . . . . . . ",
". . . . . . . . . . . . . . . . . . . . . . . . . . . . . . . . . . . . . . . . . . . . . . . . . . . . . . . . . . . . . . . . . . . . . . . ",
". . . . . . . . . . . . . . . . . . . . . . . . . . . . . . . . . . . . . . . . . . . . . . . . . . . . . . . . . . . . . . . . . . . . . . . ",
". . . . . . . . . . . . . . . . . . . . . . . . . . . . . . . . . . . . . . . . . . . . . . . . . . . . . . . . . . . . . . . . . . . . . . . ",
". . . . . . . . . . . . . . . . . . . . . . . . . . . . . . . . . . . . . . . . . . . . . . . . . . . . . . . . . . . . . . . . . . . . . . . ",
". . . . . . . . . . . . . . . . . . . . . . . . . . . . . . . . . . . . . . . . . . . . . . . . . . . . . . . . . . . . . . . . . . . . . . . ",
". . . . . . . . . . . . . . . . . . . . . . . . . . . . . . . . . . . . . . . . . . . . . . . . . . . . . . . . . . . . . . . . . . . . . . . ",
". . . . . . . . . . . . . . . . . . . . . . . . . . . . . . . . . . . + @ . . . . . . . . . . . . . . . . . . . . . . . . . . . . . . . . . . ",
". . . . . . . . . . . . . . . . . . . . . . . . . . . . . . . . . # $ % & * = . . . . . . . . . . . . . . . . . . . . . . . . . . . . . . . . ",
". . . . . . . . . . . . . . . . . . . . . . . . . . . . . . . . @ - ; ; ; ; > , . . . . . . . . . . . . . . . . . . . . . . . . . . . . . . . ",
". . . . . . . . . . . . . . . . . . . . . . . . . . . . . . . . ' ) ; ; ; ; ! ~ . . . . . . . . . . . . . . . . . . . . . . . . . . . . . . . ",
". . . . . . . . . . . . . . . . . . . . . . . . . . . . . . . . { ; ; ; ; ; ] ^ . . . . . . . . . . . . . . . . . . . . . . . . . . . . . . . ",
". . . . . . . . . . . . . . . . . . . . . . . . . . . . . . . . / ( ; ; ; ; _ : . . . . . . . . . . . . . . . . . . . . . . . . . . . . . . . ",
". . . . . . . . . . . . . . . . . . . . . . . . . . . . . . . . @ < ; ; ; ; [ } . . . . . . . . . . . . . . . . . . . . . . . . . . . . . . . ",
". . . . . . . . . . . . . . . . . . . . = + | . . . . . . . . . . 1 2 ; _ 3 @ . . . . . . . . . . | + + . . . . . . . . . . . . . . . . . . . ",
". . . . . . . . . . . . . . . . . . . 4 5 6 7 8 . . . . . . . . . . 9 & 0 , . . . . . . . . . . a b c d e . . . . . . . . . . . . . . . . . . ",
". . . . . . . . . . . . . . . . . . f g ; ; ; h | . . . . . . . . . , 0 i . . . . . . . . . . , 2 ; ; ; j k . . . . . . . . . . . . . . . . . ",
". . . . . . . . . . . . . . . . . , h ; ; ; ; l 1 . . . . . . . . . @ m 5 @ . . . . . . . . . 8 n ; ; ; ; o , . . . . . . . . . . . . . . . . ",
". . . . . . . . . . . . . . . . . , 7 ; ; ; ; 5 + . . . . . . . . . p q r 8 . . . . . . . . . = c ; ; ; ; 4 , . . . . . . . . . . . . . . . . ",
". . . . . . . . . . . . . . . . . . s t ; ; ; u . . . . . . . . . . v w x y . . . . . . . . . , 4 ; ; ; c z . . . . . . . . . . . . . . . . . ",
". . . . . . . . . . . . . . . . . . . f A ; 2 9 . . . . . . . . . . B ; C { . . . . . . . . . . D 3 ; E ~ . . . . . . . . . . . . . . . . . . ",
". . . . . } y z 1 . . . . . . . . . . . F w f . . . . . . . . . . , - ; ; G | . . . . . . . . . . F g H . . . . . . . . . . . 8 I z . . . . . ",
". . . . 8 i x x J y . . . . . . . . . . y ! K . . . . . . . . . . @ m ; ; & @ . . . . . . . . . , h L M . . . . . . . . . . y J ! x [ @ . . . ",
". . . , K ; ; ; ; [ . . . . . . . . . . y x A # . . . . . . . . . N O ; ; q p . . . . . . . . . a P Q R . . . . . . . . . . < ; ; ; ; u . . . ",
". . . , > ; ; ; ; S . . . . . . . . . . y x _ e . . . . . . . . . s _ ; ; w ~ . . . . . . . . . T U Q R . . . . . . . . . 8 V ; ; ; ; W . . . ",
". . . , X ; ; ; ; i . . . . . . . . . . y x ; Y , . . . . . . . . 4 ; ; ; ; Z . . . . . . . . @ ` ; Q R . . . . . . . . . . ` ; ; ; ; u . . . ",
". . . . R J C ; ; 7 . . . . . . . . . . y x ;  .... . . . . . . , +.; ; ; ; @., . . . . . . . f ) ; Q R . . . . . . . . . . W ; ; #.i 1 . . . ",
". . . . . 8 / $.; < %.. . . . . . . . . y x ; ; &.| . . . . . . # l ; ; ; ; A @ . . . . . . , > ; ; Q R . . . . . . . . . *.=.U @...} . . . . ",
". . . . . . . | J ( -.. . . . . . . . . y x ; ; j M . . . . . . R ;.; ; ; ; >.,.. . . . . . z '.; ; Q R . . . . . . . . . o ; 0 . . . . . . . ",
". . . . . . . . u ; r f . . . . . . . . y x ; ; ; )., . . . . . !.#.; ; ; ; ~.: . . . . . | h ; ; ; Q R . . . . . . . . ^ {.U B . . . . . . . ",
". . . . . . . . R O ; 5 ].. . . . . . . y x ; ; ; l 1 . . . . . K ; ; ; ; ; ; u . . . . . ,.^.; ; ; Q R . . . . . . . M A ; /.,.. . . . . . . ",
". . . . . . . . , +.; ; $.*.. . . . . . y x ; ; ; C Z . . . . , (.; ; ; ; ; ; - , . . . . _.; ; ; ; Q R . . . . . . @ :.; ; &.| . . . . . . . ",
". . . . . . . . . <.( ; ; K . . . . . . y x ; ; ; ; ` @ . . . = V ; ; ; ; ; ; 6 + . . . = 5 ; ; ; ; Q R . . . . . , 7 ; ; ) !.. . . . . . . . ",
". . . . . . . . . 1 V ; ; {.H . . . . . y x ; ; ; ; ~./ . . . M L ; ; ; ; ; ; O [.. . . <.) ; ; ; ; Q R . . . . . e L ; ; c 1 . . . . . . . . ",
". . . . . . . . . , 3 ; ; ; 6 }.. . . . y x ; ; ; ; ; > | . . H #.; ; ; ; ; ; #.s . . | |.; ; ; ; ; Q R . . . . ~ P ; ; ; 7 , . . . . . . . . ",
". . . . . . . . . . s ! ; ; ; |.+ . . . y x ; ; ; ; ; ;.... , h ; ; ; ; ; ; ; ; K . . H g ; ; ; ; ; Q R . . . 1 1.; ; ; 2.3.. . . . . . . . . ",
". . . . . . . . . . + 5 ; ; ; ; b , . . I ! ; ; ; ; ; ; 4.H ^ P ; ; ; ; ; ; ; ; c 5.H S ; ; ; ; ; ;  .6.. . 7.2 ; ; ; ; ` . . . . . . . . . . ",
". . . . . . . . . . . 8.; ; ; ;  .F . . T C ; ; ; ; ; ; ; ~.#.; ; ; ; ; ; ; ; ; ; _ _ ; ; ; ; ; ; ; #.<.. , 4 ( ; ; ; ; _.. . . . . . . . . . ",
". . . . . . . . . . . R '.; ; ; ; q h _.c ; ; ; ; ; ; ; ; ; ; ; ; ; ; ; ; ; ; ; ; ; ; ; ; ; ; ; ; ; ; m -.2 L ; ; ; ; q 9.. . . . . . . . . . ",
". . . . . . . . . . . , |.; ; ; ; ; ; U ; ; ; ; ; ; ; ; ; ; ; ; ; ; ; ; ; ; ; ; ; ; ; ; ; ; ; ; ; ; ; ; C ; ; ; ; ; ; < . . . . . . . . . . . ",
". . . . . . . . . . . . { ( ; ; ; ; ; ; ; ; ; ; ; ; ; ; ; ; ; ; ; ; ; ; ; ; ; ; ; ; ; ; ; ; ; ; ; ; ; ; ; ; ; ; ; ; #./ . . . . . . . . . . . ",
". . . . . . . . . . . . a n ; ; ; ; ; ; ; ; ; ; ; ~.{.l 1.W 4 5.I M [.1 1 9.M I 5.8.@.0 0.O ) ; ; ; ; ; ; ; ; ; ; ; P = . . . . . . . . . . . ",
". . . . . . . . . . . . | 2 ; ; ; ; ; ; #.V 3 }.a.b.c.d.e.f.g.h.i.i.i.i.i.i.i.i.h.g.f.e.j.c.k.l.y 2 ^.( ; ; ; ; ; ; b | . . . . . . . . . . . ",
". . . . . . . . . . . . . ..~.; ; ; V ..m.n.f.o.i.i.i.i.i.i.i.i.o.p.q.q.q.q.p.o.i.i.i.i.i.i.i.i.o.r.s.t./ t ; ; ; g : . . . . . . . . . . . . ",
". . . . . . . . . . . . . 1 l ; x R u.q.i.i.i.q.v.w.x.y.z.A.B.a z k / 5.5./ ' }.a B.C.D.E.F.G.r.p.i.i.i.g.H.z U ; % + . . . . . . . . . . . . ",
". . . . . . . . . . . . . | h U I.o.i.i.J.K.L.k &.m >.x C ; ; ; ; ; ; ] ] ; ; ; ; ; ; C x j A W v a.M.N.i.i.o.@ ; X . . . . . . . . . . . . . ",
". . . . . . . . . . . . . . ..% d.i.O.+ +.L ; ; ; ; ; ; ; ; ; ; _ 0 ~ a.l.' J ( ; ; ; ; ; ; ; ; ; ; Q [ | x.i.P.A v . . . . . . . . . . . . . ",
". . . . . . . . . . . . . . a > Q.R.6 ; ; ; ; ; ; ; ; ; ; ; ; 8.S.T.o.i.i.p.w.U.).; ; ; ; ; ; ; ; ; ; ; ; % V.W.i = . . . . . . . . . . . . . ",
". . . . . . . . . . . . . . . &.2 ;.X a X.# z Y.3 A ~.; ; ; <.Z.i.i.i.i.i.i.i.i.`.4 ; ; ; w S h 5.}.+ X.,.7 {.W 2 , . . . . . . . . . . . . . ",
". . . . . . . . . . . . . . . B j  +.+i.i.i.i.h.f.++*.x ; ; =.@+`.i.i.i.i.i.o.#+$+4.; ; Q %+G.&+h.i.i.i.i.f.*+O e . . . . . . . . . . . . . . ",
". . . . . . . . . . . . . . . : 6 n.i.i.i.i.i.i.i.=+H ; ; ; ; _ - + b.-+;+>+1 i ( ; ; ; ; f ,+i.i.i.i.i.i.i.F.0.y . . . . . . . . . . . . . . ",
". . . . . . . . . . . . . . . R 6 =+i.i.i.i.i.'+%+1.; ; ; ; ; ; ; ; ! n ^.w ; ; ; ; ; ; ; ; i )+w.i.i.i.i.i.!+~+N . . . . . . . . . . . . . . ",
". . . . . . . . . . . . . . . 9.q {+i.i.v.]+= 0 ; ; ; ; C ! ;.^+c 4.d 1.1.& 4.l ^+;.! C ; ; ; ; |.. /+r.i.i.(+/.9.. . . . . . . . . . . . . . ",
". . . . . . . . . . . . . . . 6. .Z @+= 3 O _ /.1.* }.%+_+:+W.Q.++<+[+N.N.[+<+d.Q.}+|+ +1+y K ` q #.>.2++ U.8.'.R . . . . . . . . . . . . . . ",
". . . . . . . . . . . . . . . : ~.; ( t K } 3+,+J.4+o.i.i.i.i.i.i.i.i.i.i.i.i.i.i.i.i.i.i.o.4+`.F.5++ $ /.( ; Q R . . . . . . . . . . . . . . ",
". . . . . . . . . . . . . . . 6+] < I.F..+i.i.i.i.i.i.i.i.h.&+7+#+8+++'+'+w.8+#+7+&+h.i.i.i.i.i.i.i.i.&+c.X.|.) H . . . . . . . . . . . . . . ",
". . . . . . . . . . . . . . . +.u P.i.i.i.i.i.9+w.u.5+D ].{ 3 :.& A c ~+P c A & i h e R 0+3+}+G.9+i.i.i.i.i.x.$ @., . . . . . . . . . . . . . ",
". . . . . . . . . . . . . . z q a+i.i.9+n.{+8 K S ;.#.; ; ; ; ; ; ; ; ; ; ; ; ; ; ; ; ; ; #.'.% 8.# 5+;+4+i.i.$+/.6.. . . . . . . . . . . . . ",
". . . . . . . . . . . . . , 3 % -+=+V._.~+#.; ; ; ; ; ; ; ; ; ; ; ; ; ; ; ; ; ; ; ; ; ; ; ; ; ; ; ; _ P T L.F.b+0.X . . . . . . . . . . . . . ",
". . . . . . . . . . . . . = - S 6+^+; ; ; ; ; ; ; ; ; ; ; ; ; ; ; ; ; ; ; ; ; ; ; ; ; ; ; ; ; ; ; ; ; ; ; ; ^.{ c G + . . . . . . . . . . . . ",
". . . . . . . . . . . . . . 1 f &.^._ ; ; ; ; ; ; ; ; ; ; ; ; ; ; ; ; ; ; ; ; ; ; ; ; ; ; ; ; ; ; ; ; ; ; ) V @.f # . . . . . . . . . . . . . ",
". . . . . . . . . . . . . . . . , 8 !.2+% '.#.; ; ; ; ; ; ; ; ; ; ; ; ; ; ; ; ; ; ; ; ; ; ; ; ; ; #.>.5 ).' 1 , . . . . . . . . . . . . . . . ",
". . . . . . . . . . . . . . . . . . . | @ N f X :.0.O ! ( ; ; ; ; ; ; ; ; ; ; ; ; ; ; ( ! {.l :.o f N + , . . . . . . . . . . . . . . . . . . ",
". . . . . . . . . . . . . . . . . . . . . . . . , + 9.3./ -.).[ |.d S S S S J =.$.X -./ 3.9.# , . . . . . . . . . . . . . . . . . . . . . . . ",
". . . . . . . . . . . . . . . . . . . . . . . . . . . . . . | , | @ + @ @ + } , , , . . . . . . . . . . . . . . . . . . . . . . . . . . . . . ",
". . . . . . . . . . . . . . . . . . . . . . . . . . . . . . . . . . . . . . . . . . . . . . . . . . . . . . . . . . . . . . . . . . . . . . . ",
". . . . . . . . . . . . . . . . . . . . . . . . . . . . . . . . . . . . . . . . . . . . . . . . . . . . . . . . . . . . . . . . . . . . . . . ",
". . . . . . . . . . . . . . . . . . . . . . . . . . . . . . . . . . . . . . . . . . . . . . . . . . . . . . . . . . . . . . . . . . . . . . . ",
". . . . . . . . . . . . . . . . . . . . . . . . . . . . . . . . . . . . . . . . . . . . . . . . . . . . . . . . . . . . . . . . . . . . . . . ",
". . . . . . . . . . . . . . . . . . . . . . . . . . . . . . . . . . . . . . . . . . . . . . . . . . . . . . . . . . . . . . . . . . . . . . . ",
". . . . . . . . . . . . . . . . . . . . . . . . . . . . . . . . . . . . . . . . . . . . . . . . . . . . . . . . . . . . . . . . . . . . . . . "};
