/* XPM */
static char * nbbr_xpm[] = {
"71 71 218 2",
"  	c None",
". 	c #808080",
"+ 	c #7E7E7E",
"@ 	c #7C7C7C",
"# 	c #7B7B7B",
"$ 	c #6A6A6A",
"% 	c #626262",
"& 	c #636363",
"* 	c #5F5F5F",
"= 	c #5A5A5A",
"- 	c #6B6B6B",
"; 	c #7D7D7D",
"> 	c #7F7F7F",
", 	c #747474",
"' 	c #5C5C5C",
") 	c #505050",
"! 	c #434343",
"~ 	c #383838",
"{ 	c #2F2F2F",
"] 	c #292929",
"^ 	c #2C2C2C",
"/ 	c #555555",
"( 	c #0D0D0D",
"_ 	c #060606",
": 	c #070707",
"< 	c #040404",
"[ 	c #030303",
"} 	c #050505",
"| 	c #131313",
"1 	c #616161",
"2 	c #646464",
"3 	c #262626",
"4 	c #222222",
"5 	c #2A2A2A",
"6 	c #343434",
"7 	c #414141",
"8 	c #757575",
"9 	c #4A4A4A",
"0 	c #010101",
"a 	c #000000",
"b 	c #5D5D5D",
"c 	c #535353",
"d 	c #020202",
"e 	c #4B4B4B",
"f 	c #474747",
"g 	c #4F4F4F",
"h 	c #484848",
"i 	c #494949",
"j 	c #424242",
"k 	c #3C3C3C",
"l 	c #191919",
"m 	c #373737",
"n 	c #242424",
"o 	c #2B2B2B",
"p 	c #161616",
"q 	c #121212",
"r 	c #101010",
"s 	c #090909",
"t 	c #939393",
"u 	c #CECECE",
"v 	c #8A8A8A",
"w 	c #BDBDBD",
"x 	c #FFFFFF",
"y 	c #B1B1B1",
"z 	c #FEFEFE",
"A 	c #FBFBFB",
"B 	c #F7F7F7",
"C 	c #F2F2F2",
"D 	c #EAEAEA",
"E 	c #E6E6E6",
"F 	c #E0E0E0",
"G 	c #DADADA",
"H 	c #D7D7D7",
"I 	c #D4D4D4",
"J 	c #D2D2D2",
"K 	c #D0D0D0",
"L 	c #D1D1D1",
"M 	c #D3D3D3",
"N 	c #D6D6D6",
"O 	c #D9D9D9",
"P 	c #DCDCDC",
"Q 	c #E4E4E4",
"R 	c #E7E7E7",
"S 	c #EEEEEE",
"T 	c #F3F3F3",
"U 	c #F9F9F9",
"V 	c #FCFCFC",
"W 	c #A4A4A4",
"X 	c #BABABA",
"Y 	c #A1A1A1",
"Z 	c #878787",
"` 	c #6F6F6F",
" .	c #3B3B3B",
"..	c #2E2E2E",
"+.	c #282828",
"@.	c #212121",
"#.	c #1B1B1B",
"$.	c #181818",
"%.	c #151515",
"&.	c #141414",
"*.	c #171717",
"=.	c #1D1D1D",
"-.	c #333333",
";.	c #3E3E3E",
">.	c #4C4C4C",
",.	c #5E5E5E",
"'.	c #8B8B8B",
").	c #BCBCBC",
"!.	c #9A9A9A",
"~.	c #202020",
"{.	c #0A0A0A",
"].	c #0B0B0B",
"^.	c #1F1F1F",
"/.	c #232323",
"(.	c #717171",
"_.	c #606060",
":.	c #1C1C1C",
"<.	c #515151",
"[.	c #0C0C0C",
"}.	c #0F0F0F",
"|.	c #868686",
"1.	c #979797",
"2.	c #A5A5A5",
"3.	c #B0B0B0",
"4.	c #C3C3C3",
"5.	c #C6C6C6",
"6.	c #D5D5D5",
"7.	c #CDCDCD",
"8.	c #969696",
"9.	c #858585",
"0.	c #A9A9A9",
"a.	c #FAFAFA",
"b.	c #F1F1F1",
"c.	c #E8E8E8",
"d.	c #D8D8D8",
"e.	c #E9E9E9",
"f.	c #909090",
"g.	c #3A3A3A",
"h.	c #818181",
"i.	c #4E4E4E",
"j.	c #6C6C6C",
"k.	c #3D3D3D",
"l.	c #B3B3B3",
"m.	c #DDDDDD",
"n.	c #B2B2B2",
"o.	c #303030",
"p.	c #6D6D6D",
"q.	c #ABABAB",
"r.	c #1E1E1E",
"s.	c #272727",
"t.	c #AAAAAA",
"u.	c #565656",
"v.	c #080808",
"w.	c #1A1A1A",
"x.	c #B4B4B4",
"y.	c #585858",
"z.	c #3F3F3F",
"A.	c #454545",
"B.	c #A3A3A3",
"C.	c #B7B7B7",
"D.	c #C5C5C5",
"E.	c #F4F4F4",
"F.	c #F6F6F6",
"G.	c #C4C4C4",
"H.	c #B6B6B6",
"I.	c #A2A2A2",
"J.	c #545454",
"K.	c #9C9C9C",
"L.	c #9E9E9E",
"M.	c #919191",
"N.	c #777777",
"O.	c #E3E3E3",
"P.	c #929292",
"Q.	c #9F9F9F",
"R.	c #E5E5E5",
"S.	c #252525",
"T.	c #CFCFCF",
"U.	c #848484",
"V.	c #656565",
"W.	c #E1E1E1",
"X.	c #767676",
"Y.	c #A0A0A0",
"Z.	c #DFDFDF",
"`.	c #F8F8F8",
" +	c #ADADAD",
".+	c #727272",
"++	c #EBEBEB",
"@+	c #AEAEAE",
"#+	c #6E6E6E",
"$+	c #0E0E0E",
"%+	c #323232",
"&+	c #959595",
"*+	c #AFAFAF",
"=+	c #EDEDED",
"-+	c #C1C1C1",
";+	c #BEBEBE",
">+	c #ECECEC",
",+	c #949494",
"'+	c #F0F0F0",
")+	c #DBDBDB",
"!+	c #FDFDFD",
"~+	c #EFEFEF",
"{+	c #828282",
"]+	c #525252",
"^+	c #A8A8A8",
"/+	c #DEDEDE",
"(+	c #F5F5F5",
"_+	c #595959",
":+	c #7A7A7A",
"<+	c #686868",
"[+	c #353535",
"}+	c #B5B5B5",
"|+	c #676767",
"1+	c #363636",
"2+	c #4D4D4D",
"3+	c #313131",
"4+	c #696A69",
"5+	c #464646",
". . . . . . . . . . . . . . . . . . . . . . . . . . . . . . . . . . . . . . . . . . . . . . . . . . . . . . . . . . . . . . . . . . . . . . . ",
". . . . . . . . . . . . . . . . . . . . . . . . . . . . . . . . . . . . . . . . . . . . . . . . . . . . . . . . . . . . . . . . . . . . . . . ",
". . . . . . . . . . . . . . . . . . . . . . . . . . . . . . . . . . . . . . . . . . . . . . . . . . . . . . . . . . . . . . . . . . . . . . . ",
". . . . . . . . . . . . . . . . . . . . . . . . . . . . . . . . . . . . . . . . . . . . . . . . . . . . . . . . . . . . . . . . . . . . . . . ",
". . . . . . . . . . . . . . . . . . . . . + + @ . . . . . . # $ % & * = = * & % - ; . . . . . . # # + > . . . . . . . . . . . . . . . . . . . ",
". . . . . . . . . . . . . . . . , ' ) ! ~ { ] ^ - . . . . . / ( _ : < [ [ } : _ | 1 . . . . . 2 3 4 5 6 7 ) ' 8 . . . . . . . . . . . . . . . ",
". . . . . . . . . . . . . . . . 9 < 0 a a a a [ b . . . . . c 0 a a a a a a a a } 1 . . . . . / d a a a a 0 < e . . . . . . . . . . . . . . . ",
". . . . . . . . . . . . . . . . f a a a a a a a g . . . . . c 0 a a a a a a a a } 1 . . . . . h a a a a a a a i . . . . . . . . . . . . . . . ",
". . . . . . . . . . . . . . . . f a a a a a a a j > > > > > c 0 a a a a a a a a } 1 > > > > . k a a a a a a a i . . . . . . . . . . . . . . . ",
". . . . . . . . . . . . . . . . f a a a a a a a l m m m m m n a a a a a a a a a 0 o m m m m m p a a a a a a a i . . . . . . . . . . . . . . . ",
". . . . . . . . . . . . . . . . f a q q q q q q q q q q q q q q q q q q q q q q q q q q q q q q q q q q q r a i . . . . . . . . . . . . . . . ",
". . . . . . . . . . . . . . . . f s t u u u u u u u u u u u u u u u u u u u u u u u u u u u u u u u u u u v _ i . . . . . . . . . . . . . . . ",
". . . . . . . . . . . . . . . . f s w x x x x x x x x x x x x x x x x x x x x x x x x x x x x x x x x x x y _ i . . . . . . . . . . . . . . . ",
". . . . . . . . . . . . . . . . f s w x x x x z A B C D E F G H I J K K K L M N O P Q R S T U V x x x x x y _ i . . . . . . . . . . . . . . . ",
". . . . . . . . . . . . . . . . f s W L X Y Z ` = h  ...+.@.#.$.p %.| | | &.%.*.l =.n ] -.;.>.,., '.W ).M !._ i . . . . . . . . . . . . . . . ",
". . . . . . . . . . . . . . . . g a ~.p {.[ a a a a a a a a a a a a a a a a a a a a a a a a a a a a [ ].*.^.a g . . . . . . . . . . . . . . . ",
". . . . . . . . . . . . . . . . ` /.a a a a a a a a a a a a a a a a a a a a a a a a a a a a a a a a a a a a +.(.. . . . . . . . . . . . . . . ",
". . . . . . . . . . . . . . . . . _.l a a a a a a a a a a a a a a a a a a a a a a a a a a a a a a a a a a :.1 . . . . . . . . . . . . . . . . ",
". . . . . . . . . . . . . . . . . . <.[.a a a a a 0 [ } {.].( q p p *.*.*.*.p p q ( ].{.< [ a a a a a a }.c . . . . . . . . . . . . . . . . . ",
". . . . . . . . . . . . . . . . . . . ! a a h , |.1.2.3.w 4.5.u I 6.6.N N 6.6.I 7.5.4.w 3.2.8.9., k a a h . . . . . . . . . . . . . . . . . . ",
". . . . . . . . . . . . . . . . . . . + -.[ 0.z V a.B C b.c.A x d.H H H H H H d.x a.e.b.T B a.V z f.a g.h.. . . . . . . . . . . . . . . . . . ",
". . . . . . . . . . . . . . . . . . . . i.d i.j.,.c h k.m { l.m.~ $.$.*.*.$.$.7 R n.o.~ k.i c * p.! d / . . . . . . . . . . . . . . . . . . . ",
". . . . . . . . . . . . . . . . . . . . <.0 a a a a a a a [ q.m.r.a a a a a a s.R t.[ a a a a a a a d u.. . . . . . . . . . . . . . . . . . . ",
". . . . . . . . . . . . . . . . . . . . <.0 a a a a a a a [ q.m.r.a a a a a a s.R t.[ a a a a a a a d u.. . . . . . . . . . . . . . . . . . . ",
". . . . . . . . . . . . . . . . . . . . <.0 a [ v.( &.w.@.^ x.F y.z.A.f f A.z.* R l.^ ~.l &.[.v.[ a d u.. . . . . . . . . . . . . . . . . . . ",
". . . . . . . . . . . . . . . . . . . . <.} & B.C.D.L O F R A x T E.F.B B F.E.T x A R F d.K G.H.I.J.d u.. . . . . . . . . . . . . . . . . . . ",
". . . . . . . . . . . . . . . . . . . . <.} K.Q O G x K t.L.M.v > N.. O.P # N.. '.P.Q.t.d.x d.O R.Z d u.. . . . . . . . . . . . . . . . . . . ",
". . . . . . . . . . . . . . . . . . . . <.0 S.3 w.' B , [ d a a a a | T.4.].a a a a d [ |.T ) w.3 ^.d u.. . . . . . . . . . . . . . . . . . . ",
". . . . . . . . . . . . . . . . . . . . <.0 a a a h B ` a a a a a a | T.4.].a a a a a a U.T  .a a a d u.. . . . . . . . . . . . . . . . . . . ",
". . . . . . . . . . . . . . . . . . . . <.0 a a a h B ` a a a a a a | T.4.].a a a a a a U.T  .a a a d u.. . . . . . . . . . . . . . . . . . . ",
". . . . . . . . . . . . . . . . . . . . <.0 a a a h B ` a a a a a a | T.4.].a a a a a a U.T  .a a a d u.. . . . . . . . . . . . . . . . . . . ",
". . . . . . . . . . . . . . . . . . . . <.0 a a a h B ` a a a a a a | T.4.].a a a a a a U.T  .a a a d u.. . . . . . . . . . . . . . . . . . . ",
". . . . . . . . . . . . . . . . . . . . <.0 r $.~.$ B t z.e c ' V.- # W.G X.- V.' c 9 ;.Y.T * ^.$.[.d u.. . . . . . . . . . . . . . . . . . . ",
". . . . . . . . . . . . . . . . . . . . <.} Z H Z.e.x F.T `.a.V U U U U U U U U V a.`.T U x R Z.H 8 d u.. . . . . . . . . . . . . . . . . . . ",
". . . . . . . . . . . . . . . . . . . . <.} > ). +W 8.'.+ X.u Q j.) g g g g ) .+++7.X.> '.1.2.@+w #+d u.. . . . . . . . . . . . . . . . . . . ",
". . . . . . . . . . . . . . . . . . . . <.0 ].{.< [ a a a [ q.m.r.a a a a a a s.R t.[ a a a [ < {.v.d u.. . . . . . . . . . . . . . . . . . . ",
". . . . . . . . . . . . . . . . . . . . <.0 a a a a a a a [ q.m.r.a a a a a a s.R t.[ a a a a a a a d u.. . . . . . . . . . . . . . . . . . . ",
". . . . . . . . . . . . . . . . . . . . <.0 a a a a a a a [ q.m.r.a a a a a a s.R t.[ a a a a a a a d u.. . . . . . . . . . . . . . . . . . . ",
". . . . . . . . . . . . . . . . . . . . <.0 a a a a a a a [ q.m.r.a a a a a a s.R t.[ a a a a a a a d u.. . . . . . . . . . . . . . . . . . . ",
". . . . . . . . . . . . . . . . . . . . <.0 a a a [ [ } v.$+q.m.] {.{.{.{.{.{.%+R t.( v.} [ [ a a a d u.. . . . . . . . . . . . . . . . . . . ",
". . . . . . . . . . . . . . . . . . . . <.d y.'.&+W q.*+C.).=+A -+;+;+;+;+;+;+4.z >+).C.*+q.W ,+v >.d u.. . . . . . . . . . . . . . . . . . . ",
". . . . . . . . . . . . . . . . . . . . <.} Q.'+e.D x D )+G d.d.H H H !+A H H H d.d.G P ~+x c.e.b.v d u.. . . . . . . . . . . . . . . . . . . ",
". . . . . . . . . . . . . . . . . . . . <.0 o m ^ - B {+:.w.l $.$.$.5 T.4./.$.$.$.l w.:.P.T 1 ^ ~ n d u.. . . . . . . . . . . . . . . . . . . ",
". . . . . . . . . . . . . . . . . . . . <.0 a a a h B ` a a a a a a | T.4.].a a a a a a U.T  .a a a d u.. . . . . . . . . . . . . . . . . . . ",
". . . . . . . . . . . . . . . . . . . . <.0 a a a h B ` a a a a a a | T.4.].a a a a a a U.T  .a a a d u.. . . . . . . . . . . . . . . . . . . ",
". . . . . . . . . . . . . . . . . . . . i.0 a a a h B ` a a a a a a | T.4.].a a a a a a U.T  .a a a d ]+. . . . . . . . . . . . . . . . . . . ",
". . . . . . . . . . . . . . . . . . . + -.l = & & P.`.^+& & & & & & (./+H j.& & & & & & l.(+v & & _+| m . . . . . . . . . . . . . . . . . . . ",
". . . . . . . . . . . . . . . . . . . i.< U.U U U U A U U U U U U U U A A U U U U U U U a.A U U U U :+v.J.. . . . . . . . . . . . . . . . . . ",
". . . . . . . . . . . . . . . . . . <+#.a 7 / / / / / / / / / / / / / / / / / / / / / / / / / / / / k a ^.- . . . . . . . . . . . . . . . . . ",
". . . . . . . . . . . . . . . . . ; [+a p #.#.#.#.#.#.#.#.#.#.#.#.#.#.#.#.#.#.#.#.#.#.#.#.#.#.#.#.#.#.%.a ~ . . . . . . . . . . . . . . . . . ",
". . . . . . . . . . . . . . . . . >.[ ;.}+)+)+)+)+)+)+)+)+)+)+)+)+)+)+)+)+)+)+)+)+)+)+)+)+)+)+)+)+)+)+}+~ _ c . . . . . . . . . . . . . . . . ",
". . . . . . . . . . . . . . . . |+l r  +x x x x x x x x x x x x x x x x x x x x x x x x x x x x x x x x W [.^.j.. . . . . . . . . . . . . . . ",
". . . . . . . . . . . . . . . + 1+a A.B x x x x x x x x x x x x x x x x x x x x x x x x x x x x x x x x C k.a ~ > . . . . . . . . . . . . . . ",
". . . . . . . . . . . . . . . 2+[ a i.)+Z.Z.Z.Z.Z.Z.Z.Z.Z.Z.Z.Z.Z.Z.Z.Z.Z.Z.Z.Z.Z.Z.Z.Z.Z.Z.Z.Z.Z.Z.Z.Z.G f a _ c . . . . . . . . . . . . . . ",
". . . . . . . . . . . . . . + ..a a } ~.~.~.~.~.~.~.~.~.~.~.~.~.~.~.~.~.~.~.~.~.~.~.~.~.~.~.~.~.~.~.~.~.~.d a a [+> . . . . . . . . . . . . . ",
". . . . . . . . . . . . . . + 5 a a a a a a a a a a a a a a a a a a a a a a a a a a a a a a a a a a a a a a a a 3+> . . . . . . . . . . . . . ",
". . . . . . . . . . . . . . + 5 a a a a a a a a a a a a a a a a a a a a a a a a a a a a a a a a a a a a a a a a 3+> . . . . . . . . . . . . . ",
". . . . . . . . . . . . . . + 5 a a a a a a a a a a a a a a a a a a a a a a a a a a a a a a a a a a a a a a a a 3+> . . . . . . . . . . . . . ",
". . . . . . . . . . . . . . + 5 a _ _ _ _ _ _ _ _ _ _ _ _ _ _ _ _ _ _ _ _ _ _ _ _ _ _ _ _ _ _ _ _ _ _ _ _ _ _ a 3+> . . . . . . . . . . . . . ",
". . . . . . . . . . . . . . + 5 m I.l.l.l.l.l.l.l.l.l.l.l.l.l.l.l.l.l.l.l.l.l.l.l.l.l.l.l.l.l.l.l.l.l.l.l.l.L...3+> . . . . . . . . . . . . . ",
". . . . . . . . . . . . . . + +.y.N H H H H H H H H H H H H H H H H H H H H H H H H H H H H H H H H H H H H M >.{ > . . . . . . . . . . . . . ",
". . . . . . . . . . . . . . 4+%.: *.*.*.*.*.*.*.*.*.*.*.*.*.*.*.*.*.*.*.*.*.*.*.*.*.*.*.*.*.*.*.*.*.*.*.*.*.*.[ *.j.. . . . . . . . . . . . . ",
". . . . . . . . . . . . . . 7 a a a a a a a a a a a a a a a a a a a a a a a a a a a a a a a a a a a a a a a a a a 5+. . . . . . . . . . . . . ",
". . . . . . . . . . . . . :+S.a a a a a a a a a a a a a a a a a a a a a a a a a a a a a a a a a a a a a a a a a a 5 @ . . . . . . . . . . . . ",
". . . . . . . . . . . . . 8 $.a a a a a a a a a a a a a a a a a a a a a a a a a a a a a a a a a a a a a a a a a a r.:+. . . . . . . . . . . . ",
". . . . . . . . . . . . . :+r.a a a a a a a a a a a a a a a a a a a a a a a a a a a a a a a a a a a a a a a a a a 4 :+. . . . . . . . . . . . ",
". . . . . . . . . . . . . ; 7 4 4 4 4 4 4 4 4 4 4 4 4 4 4 4 4 4 4 4 4 4 4 4 4 4 4 4 4 4 4 4 4 4 4 4 4 4 4 4 4 4 4 5+. . . . . . . . . . . . . ",
". . . . . . . . . . . . . . @ # # # # # # # # # # # # # # # # # # # # # # # # # # # # # # # # # # # # # # # # # # @ . . . . . . . . . . . . . ",
". . . . . . . . . . . . . . . . . . . . . . . . . . . . . . . . . . . . . . . . . . . . . . . . . . . . . . . . . . . . . . . . . . . . . . . ",
". . . . . . . . . . . . . . . . . . . . . . . . . . . . . . . . . . . . . . . . . . . . . . . . . . . . . . . . . . . . . . . . . . . . . . . ",
". . . . . . . . . . . . . . . . . . . . . . . . . . . . . . . . . . . . . . . . . . . . . . . . . . . . . . . . . . . . . . . . . . . . . . . "};
