/* XPM */
static char * nbwb_xpm[] = {
"71 71 254 2",
"  	c None",
". 	c #808080",
"+ 	c #7B7B7B",
"@ 	c #7D7D7D",
"# 	c #7E7E7E",
"$ 	c #7F7F7F",
"% 	c #474747",
"& 	c #242424",
"* 	c #2B2B2B",
"= 	c #555555",
"- 	c #2A2A2A",
"; 	c #272727",
"> 	c #4F4F4F",
", 	c #4E4E4E",
"' 	c #151515",
") 	c #707070",
"! 	c #575757",
"~ 	c #161616",
"{ 	c #6D6D6D",
"] 	c #696969",
"^ 	c #626262",
"/ 	c #0D0D0D",
"( 	c #666666",
"_ 	c #383838",
": 	c #515151",
"< 	c #FCFCFC",
"[ 	c #C3C3C3",
"} 	c #1A1A1A",
"| 	c #636363",
"1 	c #585858",
"2 	c #262626",
"3 	c #E3E3E3",
"4 	c #E4E4E4",
"5 	c #5A5A5A",
"6 	c #444444",
"7 	c #333333",
"8 	c #D4D4D4",
"9 	c #919191",
"0 	c #181818",
"a 	c #A4A4A4",
"b 	c #B6B6B6",
"c 	c #686868",
"d 	c #393939",
"e 	c #1B1B1B",
"f 	c #434343",
"g 	c #7F807F",
"h 	c #3A3A3A",
"i 	c #313131",
"j 	c #424242",
"k 	c #717171",
"l 	c #070707",
"m 	c #080808",
"n 	c #505050",
"o 	c #757575",
"p 	c #202020",
"q 	c #828282",
"r 	c #090909",
"s 	c #414141",
"t 	c #5F5F5F",
"u 	c #101010",
"v 	c #606060",
"w 	c #212121",
"x 	c #323232",
"y 	c #A6A6A6",
"z 	c #FFFFFF",
"A 	c #E5E5E5",
"B 	c #000000",
"C 	c #3B3B3B",
"D 	c #484848",
"E 	c #B2B2B2",
"F 	c #F1F1F1",
"G 	c #5E5E5E",
"H 	c #565656",
"I 	c #3F3F3F",
"J 	c #BBBBBB",
"K 	c #FEFEFE",
"L 	c #838383",
"M 	c #929292",
"N 	c #DFDFDF",
"O 	c #646464",
"P 	c #535353",
"Q 	c #121212",
"R 	c #404040",
"S 	c #BFBFBF",
"T 	c #969696",
"U 	c #1C1C1C",
"V 	c #C9C9C9",
"W 	c #3D3D3D",
"X 	c #2C2C2C",
"Y 	c #747474",
"Z 	c #5C5C5C",
"` 	c #C0C0C0",
" .	c #9C9C9C",
"..	c #ADADAD",
"+.	c #191919",
"@.	c #3C3C3C",
"#.	c #616161",
"$.	c #FAFAFA",
"%.	c #E7E7E7",
"&.	c #EFEFEF",
"*.	c #939393",
"=.	c #858585",
"-.	c #6F6F6F",
";.	c #F7F7F7",
">.	c #464646",
",.	c #D0D0D0",
"'.	c #878787",
").	c #EDEDED",
"!.	c #525252",
"~.	c #737373",
"{.	c #353535",
"].	c #222222",
"^.	c #292929",
"/.	c #343434",
"(.	c #F5F5F5",
"_.	c #ACACAC",
":.	c #131313",
"<.	c #474847",
"[.	c #050505",
"}.	c #949494",
"|.	c #DDDDDD",
"1.	c #2F2F2F",
"2.	c #CACACA",
"3.	c #4A4A4A",
"4.	c #959595",
"5.	c #D3D3D3",
"6.	c #3E3E3E",
"7.	c #DBDBDB",
"8.	c #FDFDFD",
"9.	c #6B6B6B",
"0.	c #6E6E6E",
"a.	c #A5A5A5",
"b.	c #0C0C0C",
"c.	c #797979",
"d.	c #C1C1C1",
"e.	c #171717",
"f.	c #7C7C7C",
"g.	c #303030",
"h.	c #FBFBFB",
"i.	c #676767",
"j.	c #0A0A0A",
"k.	c #9B9B9B",
"l.	c #C2C2C2",
"m.	c #6A6A6A",
"n.	c #F2F2F2",
"o.	c #E0E0E0",
"p.	c #545454",
"q.	c #0B0B0B",
"r.	c #A2A2A2",
"s.	c #111111",
"t.	c #777777",
"u.	c #2D2D2D",
"v.	c #E9E9E9",
"w.	c #AAAAAA",
"x.	c #F4F4F4",
"y.	c #4C4C4C",
"z.	c #EEEEEE",
"A.	c #EBEBEB",
"B.	c #9E9E9E",
"C.	c #494949",
"D.	c #DEDEDE",
"E.	c #363636",
"F.	c #5D5D5D",
"G.	c #898989",
"H.	c #CBCBCB",
"I.	c #8C8C8C",
"J.	c #C4C4C4",
"K.	c #060606",
"L.	c #BABABA",
"M.	c #F9F9F9",
"N.	c #141414",
"O.	c #595959",
"P.	c #9F9F9F",
"Q.	c #AFAFAF",
"R.	c #CCCCCC",
"S.	c #909090",
"T.	c #6C6C6C",
"U.	c #D6D6D6",
"V.	c #C7C7C7",
"W.	c #BEBEBE",
"X.	c #282828",
"Y.	c #F3F3F3",
"Z.	c #C8C8C8",
"`.	c #0E0E0E",
" +	c #F8F8F8",
".+	c #E2E2E2",
"++	c #D8D8D8",
"@+	c #E6E6E6",
"#+	c #5B5B5B",
"$+	c #CDCDCD",
"%+	c #868686",
"&+	c #727272",
"*+	c #787878",
"=+	c #656565",
"-+	c #C6C6C6",
";+	c #1F1F1F",
">+	c #989898",
",+	c #9D9D9D",
"'+	c #8D8D8D",
")+	c #A3A3A3",
"!+	c #030303",
"~+	c #999999",
"{+	c #F0F0F0",
"]+	c #BCBCBC",
"^+	c #B8B8B8",
"/+	c #040404",
"(+	c #CFCFCF",
"_+	c #A8A8A8",
":+	c #A1A1A1",
"<+	c #8E8E8E",
"[+	c #818181",
"}+	c #7A7A7A",
"|+	c #252525",
"1+	c #232323",
"2+	c #D7D7D7",
"3+	c #D5D5D5",
"4+	c #4B4B4B",
"5+	c #EAEAEA",
"6+	c #1D1D1D",
"7+	c #F6F6F6",
"8+	c #CECECE",
"9+	c #020202",
"0+	c #7F817F",
"a+	c #0F0F0F",
"b+	c #E8E8E8",
"c+	c #D2D2D2",
"d+	c #454545",
"e+	c #D9D9D9",
"f+	c #BDBDBD",
"g+	c #8F8F8F",
"h+	c #4D4D4D",
"i+	c #1E1E1E",
"j+	c #979797",
"k+	c #D1D1D1",
"l+	c #DADADA",
"m+	c #2E2E2E",
"n+	c #B3B3B3",
"o+	c #010101",
"p+	c #A7A7A7",
"q+	c #7E7F7E",
"r+	c #B9B9B9",
"s+	c #DCDCDC",
"t+	c #373737",
"u+	c #767676",
"v+	c #8B8B8B",
"w+	c #888888",
"x+	c #ECECEC",
"y+	c #E1E1E1",
"z+	c #ABABAB",
"A+	c #B7B7B7",
"B+	c #454645",
"C+	c #262726",
"D+	c #343534",
"E+	c #5C5D5C",
". . . . . . . . . . . . . . . . . . . . . . . . . . . . . . . . . . . . . . . . . . . . . . . . . . . . . . . . . . . . . . . . . . . . . . . ",
". . . . . . . . . . . . . . . . . . . . . . . . . . . . . . . . . . . . . . . . . . . . . . . . . . . . . . . . . . . . . . . . . . . . . . . ",
". . . . . . . . . . . . . . . . . . . . . . . . . . . . . . . . . . . . . . . . . . . . . . . . . . . . . . . . . . . . . . . . . . . . . . . ",
". . . . . . . . . . . . . . . . . . . . . . . . . . . . . . . . . . + @ . . . . . # @ . . . . . . . . . . . . . . . . . . . . . . . . . . . . ",
". . . . . . . . . . . . . . . . . . . . . . . . . . . . . . . . $ % & * = . . . = - ; > . . . . . . . . . . . . . . . . . . . . . . . . . . . ",
". . . . . . . . . . . . . . . . . . . . . . . . . . . . . . . . , ' ) ! ~ { . ] ' ^ ^ / ( . . . . . . . . . . . . . . . . . . . . . . . . . . ",
". . . . . . . . . . . . . . . . . . . . . . . . . . . . . . . $ _ : < [ } | . 1 2 3 4 ; 5 . . . . . . . . . . . . . . . . . . . . . . . . . . ",
". . . . . . . . . . . . . . . . . . . . . . . . . . . . . . . . 6 7 8 9 0 { . | ~ a b & ] . . . . . . . . . . . . . . . . . . . . . . . . . . ",
". . . . . . . . . . . . . . . . . . . . . . . . . . . . . . . . c } d e f g . . h ; i j . . . . . . . . . . . . . . . . . . . . . . . . . . . ",
". . . . . . . . . . . . . . . . . . . . . . . . . . . . . . . . k & l m n . . . o } l > . . . . . . . . . . . . . . . . . . . . . . . . . . . ",
". . . . . . . . . . . . . . . . . . . . . . . . . . . . . . . | * p q 5 r s . . 6 s t u : . . . . . . . . . . . . . . . . . . . . . . . . . . ",
". . . . . . . . . . . . . . . . . . . . . . . . . . . . . . v w x y z A o B C D 7 E F ( ~ G . . . . . . . . . . . . . . . . . . . . . . . . . ",
". . . . . . . . . . . . . . . . . . . . . . . . . . . . . H e I J z z z K L / ' M z z N 1 w O . . . . . . . . . . . . . . . . . . . . . . . . ",
". . . . . . . . . . . . . . . . . . . . . . . . . . . . P Q R S z z z z z z T U t N z z V W X Y . . . . . . . . . . . . . . . . . . . . . . . ",
". . . . . . . . . . . . . . . . . . . . . . . . . . . Z ~ s ` z z z z z z z z  .e t 3 z z ..+.@.. . . . . . . . . . . . . . . . . . . . . . . ",
". . . . . . . . . . . . . . . . . . . . . . . . . . #.p R ` z z $.%.%.%.&.z z z *.m k < z z =.m H . . . . . . . . . . . . . . . . . . . . . . ",
". . . . . . . . . . . . . . . . . . . . . . . . . -.; C S z z ;.o C , >.> ,.z z z . B '.z z ).!.& ~.. . . . . . . . . . . . . . . . . . . . . ",
". . . . . . . . . . . . . . . . . . . . . . . . @ {.]...z z z N ^.T A V /. .z z z (.( 0 _.z z E :.6 . . . . . . . . . . . . . . . . . . . . . ",
". . . . . . . . . . . . . . . . . . . . . . . . <.[.}.z z z z |.1.2.z ;.3.4.z z z z 5.6.f 7.z 8.9.0 { . . . . . . . . . . . . . . . . . . . . ",
". . . . . . . . . . . . . . . . . . . . . . . ^ ' 0.8.z z z z |.1.2.z ;.3.4.z z z z z a.b.c.z z d.e.6 . . . . . . . . . . . . . . . . . . . . ",
". . . . . . . . . . . . . . . . . . . . . . f.g.h 8 z z z z z |.1.2.z ;.3.4.z z z z z h.i.e S z $.G U Y . . . . . . . . . . . . . . . . . . . ",
". . . . . . . . . . . . . . . . . . . . . . !.j.k.z z z z z z |.1.2.z ;.3.4.z z z z z z l.U m.< z y r ! . . . . . . . . . . . . . . . . . . . ",
". . . . . . . . . . . . . . . . . . . . . c.; > n.z z z z z z |.1.2.z ;.3.4.z z z z z z K { } 2.z o.; _ $ . . . . . . . . . . . . . . . . . . ",
". . . . . . . . . . . . . . . . . . . . . p.q.r.z z z z z z z |.1.2.z ;.3.}.z z z z z z z J s.q z $.H U t.. . . . . . . . . . . . . . . . . . ",
". . . . . . . . . . . . . . . . . . . . @ u.d v.z z z K ;.F %.w.2 2.z ;.3.{ o.).x.h.z z z x.y.6.z.z q r i.. . . . . . . . . . . . . . . . . . ",
". . . . . . . . . . . . . . . . . . . . ] / f.z z A.B.9.C.C 1.p % D.z < f.~ ^.E.f F.G.H.z z I.u J.z y K.! . . . . . . . . . . . . . . . . . . ",
". . . . . . . . . . . . . . . . . . . . C.b.L.z M.0.N.O.=.P.Q.l.4 z z z (.R.b y S.T.1.{.U.z V.s.S.z W.q.3.. . . . . . . . . . . . . . . . . . ",
". . . . . . . . . . . . . . . . . . . # u.X.3 z Y.W q h.z z z z z z z z z z z z z K W.; [ z A.x v h.Z.`.I . . . . . . . . . . . . . . . . . . ",
". . . . . . . . . . . . . . . . . . . o 0 y. +z Y.I P.z z  +v.7..+z z z F ++3 Y.8.z @+x [ z h.#+_ &.$+Q d . . . . . . . . . . . . . . . . . . ",
". . . . . . . . . . . . . . . . . . . ] q.{ K z Y.>., %+&+, i p 6 |.z < *+} ^.R =+L ~.e.-+z z q ;+D.V u _ . . . . . . . . . . . . . . . . . . ",
". . . . . . . . . . . . . . . . . . . t K.%+z z z >+I 6.= c.,+'+; H.z ;.3.t a.G.| 6 _ T.z.z z )+N.H.J.b.6.. . . . . . . . . . . . . . . . . . ",
". . . . . . . . . . . . . . . . . . . 1 !+~+z z z z {+n.$.z z |.1.2.z ;.3.4.z z < (.{+ +z z z ]+:.^+J r D . . . . . . . . . . . . . . . . . . ",
". . . . . . . . . . . . . . . . . . . 1 /+r.z z z z z z z z z |.1.2.z ;.3.4.z z z z z z z z z (+e._+y K.= . . . . . . . . . . . . . . . . . . ",
". . . . . . . . . . . . . . . . . . . 1 [.:+z z z z z z z z z |.1.2.z ;.3.4.z z z z z z z z z ++} k.'.l | . . . . . . . . . . . . . . . . . . ",
". . . . . . . . . . . . . . . . . . . F.[.T z z z z z z z z z |.1.2.z ;.3.4.z z z z z z z z z o.w <+v :.k . . . . . . . . . . . . . . . . . . ",
". . . . . . . . . . . . . . . . . . . c r [+z z z z z z z z z |.1.2.z ;.3.4.z z z z z z z z z 4 & }+{.^.@ . . . . . . . . . . . . . . . . . . ",
". . . . . . . . . . . . . . . . . . . &+N.| 8.z z z z z z z z |.1.2.z ;.3.4.z z z z z z z z z 4 |+C Q j . . . . . . . . . . . . . . . . . . . ",
". . . . . . . . . . . . . . . . . . . f.2 6.F z z z z z z z z |.1.2.z ;.3.4.z z z z z z z z z 3 1+!+l t . . . . . . . . . . . . . . . . . . . ",
". . . . . . . . . . . . . . . . . . . . s U 2+z z z z z z z z N u.a %.3+C k.z z z z z z z z z 7.e B ;+*+. . . . . . . . . . . . . . . . . . . ",
". . . . . . . . . . . . . . . . . . . . t j.P.z z z z z z z z (.m.s > 4+f Z.z z z z z z z z z 5.~ B R . . . . . . . . . . . . . . . . . . . . ",
". . . . . . . . . . . . . . . . . . . . o U t $.z z z z z z z z Y.%.%.%.5+z z z z z z z z z z J.b.j.O . . . . . . . . . . . . . . . . . . . . ",
". . . . . . . . . . . . . . . . . . . . . s 6+(+z z z z z z z z z z z z z z z z z z z z z z z E [.^.f.. . . . . . . . . . . . . . . . . . . . ",
". . . . . . . . . . . . . . . . . . . . . i.u q z z z z z K 7+v.7.8+[ [ [ [ 2.2+@+Y.8.z z z z T 9+4+. . . . . . . . . . . . . . . . . . . . . ",
". . . . . . . . . . . . . . . . . . . . . 0+h x D.z &.V k.0.% u.U :.q.q.q.q.a+0 X.R i.}.[ b+< o u 9.. . . . . . . . . . . . . . . . . . . . . ",
". . . . . . . . . . . . . . . . . . . . . . ( u k [+I Q K.e.g.3.#.k + [+[+}+) v D 1.' /+a+1.G X X @ . . . . . . . . . . . . . . . . . . . . . ",
". . . . . . . . . . . . . . . . . . . . . . $ {.[.q.{.0.a c+A. +8.K z z z z K < ;.5+,.:+] i j.B d+. . . . . . . . . . . . . . . . . . . . . . ",
". . . . . . . . . . . . . . . . . . . . . . . 5 Q '+5+K z n.e+f+r.g+q @ f.L S.)+W.7.x.z 8.b+=.`.5 . . . . . . . . . . . . . . . . . . . . . . ",
". . . . . . . . . . . . . . . . . . . . . . . &+' P.{+J f.j U j.!+[.!.P.k.h+9+!+q.i+>.. S n.9 j.] . . . . . . . . . . . . . . . . . . . . . . ",
". . . . . . . . . . . . . . . . . . . . . . . }+i+6.% `.B B B B i j+Y.z z {+9 X B B B B u 4+d / { . . . . . . . . . . . . . . . . . . . . . . ",
". . . . . . . . . . . . . . . . . . . . . . . }+i+* h+p B B B ; W.z z z z z z J 1+B B B ].n |+/ { . . . . . . . . . . . . . . . . . . . . . . ",
". . . . . . . . . . . . . . . . . . . . . . . t.} f.;.k+f B B Q L N z z z z l+f.r B B h+++ +0.q.m.. . . . . . . . . . . . . . . . . . . . . . ",
". . . . . . . . . . . . . . . . . . . . . . . k s.4.z S m+B B B B {.=.R.Z.. g.B B B B /.V.z '.K.^ . . . . . . . . . . . . . . . . . . . . . . ",
". . . . . . . . . . . . . . . . . . . . . . . O a+n+-+6 B B B 9+q.e.p 6.@.p ~ j.o+B B B !.U.p+[.p.. . . . . . . . . . . . . . . . . . . . . . ",
". . . . . . . . . . . . . . . . . . . . . . . , } j+>.B a+_ m.j+f+5.N @+@+N c+J 4.i.{./ B H ,+Q R . . . . . . . . . . . . . . . . . . . . . . ",
". . . . . . . . . . . . . . . . . . . . . . q+7 `.1.i c.f+).K z z z z z z z z z z 8.A.r+o u././ ^.@ . . . . . . . . . . . . . . . . . . . . . ",
". . . . . . . . . . . . . . . . . . . . . . k ' 1+9 .+z z z z z z z z z z z z z z z z z K D.I.U N.~.. . . . . . . . . . . . . . . . . . . . . ",
". . . . . . . . . . . . . . . . . . . . . . -.X.;+M ).z z z z z z z z z z z z z z z z z z v.I.+.X.&+. . . . . . . . . . . . . . . . . . . . . ",
". . . . . . . . . . . . . . . . . . . . . . . o j N.% >+N h.z z z z z z z z z z z z h.s+}.f j.h ) . . . . . . . . . . . . . . . . . . . . . . ",
". . . . . . . . . . . . $ Y =+5 1 t c k + . . . . | _ N.X.#.j+J.o.z.Y.;.;.Y.).D.l.4.t ; s.7 F.. . . . $ t.] t 1 5 O k @ . . . . . . . . . . . ",
". . . . . . . . . . f.5 t+7 j !.p.C.d X X I G u+. . $ 9.C.^.K.a+p x I D D 6.i p / a+i , m.# . . $ &+P t+i @.y.= !.f 7 /.> ~.. . . . . . . . . ",
". . . . . . . . . =+x C.M U.F $.h.x.5+3+_.t.6 u.h = 9.o o 1 N.{ v+Y g./+b.F.$ w+: e H ~.t.~.T.1 C 7 #+~+(+x+7+h.$.n.s+p+^ 7 y.+ . . . . . . . ",
". . . . . . . . , {.=.A z z z 8.M.7+$.K z z z.l.G.! d m+u.t+%+K z o.>.W m+Y K z y+# C X 1.1.W Z S.(+M.z z z K 8.K z z z {+z+!.x i.. . . . . . ",
". . . . . . [+R U = + J $.(+4.m.P > H 9.<+L..+h.z M.%.2+U.3 z z K Y g.*+=+p . 8.z z 5+2+U.e+v.M.z < b+V.a L -.] T.[+y 2+A+6.6.q.w G . . . . . ",
". . . . . @ I B a+p I <+9.t+C n F.^ O.C.7 ; x v  .k+&.h.z z K y+*+X.9.. . v w 0.$+h.z z z $.&.8 :+i._ X i R y.n C.W * m+c m+6+/.+.U F.. . . . ",
". . . . [+R e.f ] d - B+> u+. . . . . . # *+^ s & C+W 5 &++ 9.R {.T.. . . . ] h i Z *++ { 1 R g.D+, =+*+# g . . . . f.i.@.a+~ E+Y C.y.+ . . . ",
". . . . *+y.( . p.K.i 9.. . . . . . . . . . . . c.T.Z > >.j 3.^ @ . . . . . . . m.p.6 j D p.O Y # . . . . . . . . . . . $ H ;+; u+. *+. . . . ",
". . . . . # . }+X.I *+. . . . . . . . . . . . . . . . . . . . . . . . . . . . . . . . . . . . . . . . . . . . . . . . . . . #.w D . . . . . . ",
". . . . . . . k p.q . . . . . . . . . . . . . . . . . . . . . . . . . . . . . . . . . . . . . . . . . . . . . . . . . . . . . #.5 . . . . . . ",
". . . . . . . . . . . . . . . . . . . . . . . . . . . . . . . . . . . . . . . . . . . . . . . . . . . . . . . . . . . . . . . . g . . . . . . ",
". . . . . . . . . . . . . . . . . . . . . . . . . . . . . . . . . . . . . . . . . . . . . . . . . . . . . . . . . . . . . . . . . . . . . . . ",
". . . . . . . . . . . . . . . . . . . . . . . . . . . . . . . . . . . . . . . . . . . . . . . . . . . . . . . . . . . . . . . . . . . . . . . "};
