/* XPM */
static char * nbwk_xpm[] = {
"71 71 256 2",
"  	c None",
". 	c #D8D8D8",
"+ 	c #B8B8B8",
"@ 	c #808080",
"# 	c #828282",
"$ 	c #818181",
"% 	c #595959",
"& 	c #3B3B3B",
"* 	c #343434",
"= 	c #353535",
"- 	c #5F5F5F",
"; 	c #7E7E7E",
"> 	c #2B2B2B",
", 	c #0B0B0B",
"' 	c #171717",
") 	c #6A6A6A",
"! 	c #8F8F8F",
"~ 	c #5B5B5B",
"{ 	c #121212",
"] 	c #090909",
"^ 	c #323232",
"/ 	c #7C7C7C",
"( 	c #303030",
"_ 	c #656565",
": 	c #242424",
"< 	c #4C4C4C",
"[ 	c #C0C0C0",
"} 	c #FFFFFF",
"| 	c #404040",
"1 	c #383838",
"2 	c #5E5E5E",
"3 	c #2C2C2C",
"4 	c #7D7D7D",
"5 	c #C6C6C6",
"6 	c #B2B2B2",
"7 	c #3E3E3E",
"8 	c #363636",
"9 	c #A7A7A7",
"0 	c #A0A0A0",
"a 	c #2A2A2A",
"b 	c #4A4A4A",
"c 	c #BFBFBF",
"d 	c #B1B1B1",
"e 	c #C4C4C4",
"f 	c #515151",
"g 	c #141414",
"h 	c #131313",
"i 	c #606060",
"j 	c #E3E3E3",
"k 	c #616161",
"l 	c #000000",
"m 	c #707070",
"n 	c #F7F7F7",
"o 	c #D1D1D1",
"p 	c #878787",
"q 	c #696969",
"r 	c #DFDFDF",
"s 	c #848484",
"t 	c #444444",
"u 	c #999999",
"v 	c #202020",
"w 	c #585858",
"x 	c #7B7B7B",
"y 	c #232323",
"z 	c #1A1A1A",
"A 	c #1C1C1C",
"B 	c #C3C3C3",
"C 	c #6D6D6D",
"D 	c #151515",
"E 	c #161616",
"F 	c #262626",
"G 	c #282828",
"H 	c #333333",
"I 	c #272727",
"J 	c #AEAEAE",
"K 	c #E7E7E7",
"L 	c #DEDEDE",
"M 	c #ABABAB",
"N 	c #313131",
"O 	c #797979",
"P 	c #4D4D4D",
"Q 	c #C8C8C8",
"R 	c #969696",
"S 	c #919191",
"T 	c #9E9E9E",
"U 	c #C2C2C2",
"V 	c #7A7A7A",
"W 	c #666666",
"X 	c #565656",
"Y 	c #4B4B4B",
"Z 	c #727272",
"` 	c #424242",
" .	c #FBFBFB",
"..	c #FAFAFA",
"+.	c #6F6F6F",
"@.	c #626262",
"#.	c #4E4E4E",
"$.	c #676767",
"%.	c #737373",
"&.	c #474747",
"*.	c #6E6E6E",
"=.	c #767676",
"-.	c #FEFEFE",
";.	c #6B6B6B",
">.	c #6C6C6C",
",.	c #484848",
"'.	c #222222",
").	c #111111",
"!.	c #494949",
"~.	c #838383",
"{.	c #535353",
"].	c #0C0C0C",
"^.	c #939393",
"/.	c #DBDBDB",
"(.	c #D4D4D4",
"_.	c #A2A2A2",
":.	c #191919",
"<.	c #3D3D3D",
"[.	c #7F7F7F",
"}.	c #ACACAC",
"|.	c #070707",
"1.	c #181818",
"2.	c #717171",
"3.	c #A4A4A4",
"4.	c #C7C7C7",
"5.	c #D5D5D5",
"6.	c #909090",
"7.	c #0A0A0A",
"8.	c #5A5A5A",
"9.	c #888888",
"0.	c #464646",
"a.	c #F1F1F1",
"b.	c #C9C9C9",
"c.	c #8D8D8D",
"d.	c #454545",
"e.	c #AFAFAF",
"f.	c #CBCBCB",
"g.	c #505050",
"h.	c #0E0E0E",
"i.	c #BCBCBC",
"j.	c #555555",
"k.	c #A5A5A5",
"l.	c #ADADAD",
"m.	c #434343",
"n.	c #CCCCCC",
"o.	c #A6A6A6",
"p.	c #0F0F0F",
"q.	c #E0E0E0",
"r.	c #646464",
"s.	c #5C5C5C",
"t.	c #2E2E2E",
"u.	c #020202",
"v.	c #949494",
"w.	c #898989",
"x.	c #A3A3A3",
"y.	c #2D2D2D",
"z.	c #3C3C3C",
"A.	c #C5C5C5",
"B.	c #DADADA",
"C.	c #9A9A9A",
"D.	c #292929",
"E.	c #F2F2F2",
"F.	c #FDFDFD",
"G.	c #FCFCFC",
"H.	c #F8F8F8",
"I.	c #E9E9E9",
"J.	c #868686",
"K.	c #929292",
"L.	c #D0D0D0",
"M.	c #CDCDCD",
"N.	c #D2D2D2",
"O.	c #8E8E8E",
"P.	c #3F3F3F",
"Q.	c #8A8A8A",
"R.	c #EBEBEB",
"S.	c #F9F9F9",
"T.	c #CECECE",
"U.	c #9F9F9F",
"V.	c #E2E2E2",
"W.	c #CFCFCF",
"X.	c #E5E5E5",
"Y.	c #DCDCDC",
"Z.	c #414141",
"`.	c #CACACA",
" +	c #1F1F1F",
".+	c #AAAAAA",
"++	c #636363",
"@+	c #E4E4E4",
"#+	c #B7B7B7",
"$+	c #545454",
"%+	c #B5B5B5",
"&+	c #1E1E1E",
"*+	c #EFEFEF",
"=+	c #686868",
"-+	c #BABABA",
";+	c #ECECEC",
">+	c #B3B3B3",
",+	c #252525",
"'+	c #BBBBBB",
")+	c #1D1D1D",
"!+	c #080808",
"~+	c #060606",
"{+	c #747474",
"]+	c #E1E1E1",
"^+	c #BDBDBD",
"/+	c #EAEAEA",
"(+	c #777777",
"_+	c #525252",
":+	c #F3F3F3",
"<+	c #D9D9D9",
"[+	c #DDDDDD",
"}+	c #F5F5F5",
"|+	c #050505",
"1+	c #A8A8A8",
"2+	c #E6E6E6",
"3+	c #9B9B9B",
"4+	c #212121",
"5+	c #BEBEBE",
"6+	c #2F2F2F",
"7+	c #575757",
"8+	c #C1C1C1",
"9+	c #5D5D5D",
"0+	c #1B1B1B",
"a+	c #D3D3D3",
"b+	c #E8E8E8",
"c+	c #F0F0F0",
"d+	c #F6F6F6",
"e+	c #4F4F4F",
"f+	c #959595",
"g+	c #B0B0B0",
"h+	c #040404",
"i+	c #B6B6B6",
"j+	c #030303",
"k+	c #A1A1A1",
"l+	c #393939",
"m+	c #B4B4B4",
"n+	c #373737",
"o+	c #A9A9A9",
"p+	c #8C8C8C",
"q+	c #9D9D9D",
"r+	c #9C9C9C",
"s+	c #8B8B8B",
"t+	c #3A3A3A",
"u+	c #757575",
"v+	c #979797",
"w+	c #B9B9B9",
"x+	c #0D0D0D",
"y+	c #D6D6D6",
"z+	c #F4F4F4",
"A+	c #EEEEEE",
"B+	c #101010",
"C+	c #787878",
"D+	c #EDEDED",
"E+	c #D7D7D7",
"F+	c #858585",
"G+	c #010101",
". + + + + + + + + + + + + + + + + + + + + + + + + + + + + + + + + + + + + + + + + + + + + + + + + + + + + + + + + + + + + + + + + + + + + + + ",
"+ @ @ @ @ @ @ @ @ @ @ @ @ @ @ @ @ @ @ @ @ @ @ @ @ @ @ @ @ @ @ @ @ @ @ @ @ @ @ @ @ @ @ @ @ @ @ @ @ @ @ @ @ @ @ @ @ @ @ @ @ @ @ @ @ @ @ @ @ @ @ ",
"+ @ @ @ @ @ @ @ @ @ @ @ @ @ @ @ @ @ @ @ @ @ @ @ @ @ @ @ @ @ @ @ @ @ @ @ @ @ @ @ @ @ @ @ @ @ @ @ @ @ @ @ @ @ @ @ @ @ @ @ @ @ @ @ @ @ @ @ @ @ @ ",
"+ @ @ @ @ @ @ @ @ @ @ @ @ @ @ @ @ @ @ @ @ @ @ @ @ @ @ @ @ @ @ @ @ @ @ @ @ @ @ @ @ @ @ @ @ @ @ @ @ @ @ @ @ @ @ @ @ @ @ @ @ @ @ @ @ @ @ @ @ @ @ ",
"+ @ @ @ @ @ @ @ @ @ @ @ @ @ @ @ @ @ @ @ @ @ @ @ @ @ @ @ @ @ @ @ @ @ @ @ @ @ @ @ @ @ @ @ @ @ @ @ @ @ @ @ @ @ @ @ @ @ @ @ @ @ @ @ @ @ @ @ @ @ @ ",
"+ @ @ @ @ @ @ @ @ @ @ @ @ @ @ @ @ @ @ @ @ @ @ @ @ @ @ @ @ @ @ @ @ @ @ @ @ @ @ @ @ @ @ @ @ @ @ @ @ @ @ @ @ @ @ @ @ @ @ @ @ @ @ @ @ @ @ @ @ @ @ ",
"+ @ @ @ @ @ @ @ @ @ @ @ @ @ @ @ @ @ @ @ @ @ @ @ @ @ @ @ @ @ @ # $ $ $ $ $ $ $ $ $ @ @ @ @ @ @ @ @ @ @ @ @ @ @ @ @ @ @ @ @ @ @ @ @ @ @ @ @ @ @ ",
"+ @ @ @ @ @ @ @ @ @ @ @ @ @ @ @ @ @ @ @ @ @ @ @ @ @ @ @ @ @ % & * = = = = = = * & - @ @ @ @ @ @ @ @ @ @ @ @ @ @ @ @ @ @ @ @ @ @ @ @ @ @ @ @ @ ",
"+ @ @ @ @ @ @ @ @ @ @ @ @ @ @ @ @ @ @ @ @ @ @ @ @ @ @ @ @ ; > , ' ) ! ! ! ! ~ { ] ^ ; @ @ @ @ @ @ @ @ @ @ @ @ @ @ @ @ @ @ @ @ @ @ @ @ @ @ @ @ ",
"+ @ @ @ @ @ @ @ @ @ @ @ @ @ @ @ @ @ @ @ @ @ @ @ @ @ @ @ @ / ( _ : < [ } } + | 1 2 3 4 @ @ @ @ @ @ @ @ @ @ @ @ @ @ @ @ @ @ @ @ @ @ @ @ @ @ @ @ ",
"+ @ @ @ @ @ @ @ @ @ @ @ @ @ @ @ @ @ @ @ @ @ @ @ @ @ @ @ @ / ( 5 6 7 8 9 0 a b c d 3 4 @ @ @ @ @ @ @ @ @ @ @ @ @ @ @ @ @ @ @ @ @ @ @ @ @ @ @ @ ",
"+ @ @ @ @ @ @ @ @ @ @ @ @ @ @ @ @ @ @ @ @ @ @ @ @ @ @ @ @ / ( 5 } e f g h i . } d 3 4 @ @ @ @ @ @ @ @ @ @ @ @ @ @ @ @ @ @ @ @ @ @ @ @ @ @ @ @ ",
"+ @ @ @ @ @ @ @ @ @ @ @ @ @ @ @ @ @ @ @ @ @ @ @ @ @ @ @ @ / ( 5 } j k l l m n } d 3 4 @ @ @ @ @ @ @ @ @ @ @ @ @ @ @ @ @ @ @ @ @ @ @ @ @ @ @ @ ",
"+ @ @ @ @ @ @ @ @ @ @ @ @ @ @ @ @ @ @ @ @ @ @ @ @ @ @ @ @ / ( 5 o 2 ' p @ , q r d 3 4 @ @ @ @ @ @ @ @ @ @ @ @ @ @ @ @ @ @ @ @ @ @ @ @ @ @ @ @ ",
"+ @ @ @ @ @ @ @ @ @ @ @ @ @ @ @ @ @ @ @ @ @ @ @ @ @ @ @ @ / ( s t 3 0 } } u v w x 3 4 @ @ @ @ @ @ @ @ @ @ @ @ @ @ @ @ @ @ @ @ @ @ @ @ @ @ @ @ ",
"+ @ @ @ @ @ @ @ @ @ @ @ @ @ @ @ @ @ @ @ @ @ @ @ @ @ @ @ @ / y z A ; B B B B C D E F 4 @ @ @ @ @ @ @ @ @ @ @ @ @ @ @ @ @ @ @ @ @ @ @ @ @ @ @ @ ",
"+ @ @ @ @ @ @ @ @ @ @ @ @ @ @ @ @ @ @ @ @ @ @ @ @ @ @ @ @ / y : G H H H H H H I y F 4 @ @ @ @ @ @ @ @ @ @ @ @ @ @ @ @ @ @ @ @ @ @ @ @ @ @ @ @ ",
"+ @ @ @ @ @ @ @ @ @ @ @ @ @ @ @ @ @ @ @ @ @ @ @ @ @ @ @ @ / ( J K K K L r K K K M N 4 @ @ @ @ @ @ @ @ @ @ @ @ @ @ @ @ @ @ @ @ @ @ @ @ @ @ @ @ ",
"+ @ @ @ @ @ @ @ @ @ @ @ @ @ @ @ @ @ @ @ @ @ @ @ @ @ @ @ @ / ( 5 } B O < P 4 Q } B N 4 @ @ @ @ @ @ @ @ @ @ @ @ @ @ @ @ @ @ @ @ @ @ @ @ @ @ @ @ ",
"+ @ @ @ @ @ @ @ @ @ @ @ @ @ @ @ @ @ @ @ @ @ @ @ @ @ @ @ @ / ( 5 R = 2 S ! ~ 8 T U N 4 @ @ @ @ @ @ @ @ @ @ @ @ @ @ @ @ @ @ @ @ @ @ @ @ @ @ @ @ ",
"+ @ @ @ @ @ @ @ @ @ @ @ @ @ # V W X P Y f % _ Z 4 @ @ @ @ / : ` : T  .} } ..u G t F 4 @ @ @ $ x +.@.% f Y #.% $.V @ @ @ @ @ @ @ @ @ @ @ @ @ @ ",
"+ @ @ @ @ @ @ @ @ @ @ @ @ %.&.v ] { y a G v E D G b *.$ @ / y l =.} } } } } -.;.l F 4 @ $ >.,.I g ' v G a '.).] '.!.=.@ @ @ @ @ @ @ @ @ @ @ @ ",
"+ @ @ @ @ @ @ @ @ @ @ ~.{.v ].f ^.Q L L /.(.5 _.>.N :.<.W [.y , + } } } } } } }.|.F @ $.& 1.* 2.3.4.5./.L L 4.6.#.7.: 8.@ @ @ @ @ @ @ @ @ @ @ ",
"+ @ @ @ @ @ @ @ @ @ 9.0.|.< M a.b.c.2 ` <.d.% [.e.f.0 g.:.1 g h.e } } } } } } i., g ^ 1.j.k.f.l.4 w t <.m.k 6.n.a.o.&.p.m.$ @ @ @ @ @ @ @ @ @ ",
"+ @ @ @ @ @ @ @ @ @ ,.l m q.[ @.D z 7 8.r.s.!.t.:.N @ f.T 7 l u.v.} } } } } } w.l l t x.4.x y.:.( b s.r.w z.1.1.$.A.B._ u.#.@ @ @ @ @ @ @ @ @ ",
"+ @ @ @ @ @ @ @ @ k { Z ..C.D.( p o E. .F.G.H.I.5 J.& H K.L.d.l <.M.} } } } U * l #.N.O.t.P.Q.b.R.S.G.F. .a.T.# > 3 U.I._ 1.@.@ @ @ @ @ @ @ @ ",
"+ @ @ @ @ @ @ @ [.( P V.u E i W.} } } } } } } } } } X.Q.G < G d.I &.3.Y./.0 z.> Z.3 &.3 ! I.} } } } } } } } } } `.~  +U.B.d.8 @ @ @ @ @ @ @ @ ",
"+ @ @ @ @ @ @ @ - { .+[ G ++@+} } } } } } } } } } } } } #+P.y 4.b.@ {.$+$+$+s T.%+&+m.i.} } } } } } } } } } } } } r 2 y.`._.).@.@ @ @ @ @ @ @ ",
"+ @ @ @ @ @ @ $ z.0.*+=+& 5.} } } } } } } } } } } } } } } c P.~ q.} -+J.9.c } . P ` e } } } } } } } } } } } } } } } W.( Z ;+& ` # @ @ @ @ @ @ ",
"+ @ @ @ @ @ @ 4 y 4 /.y ! } } } } } } } } } } } } } } } } } >+v %.3.y ,+y F 9 C 3 '+} } } } } } } } } } } } } } } } } s > j 2.a ; @ @ @ @ @ @ ",
"+ @ @ @ @ @ @ O )+_.i. +T.} } } } } } } } } } } } } } } } } } Q.!+)+,.o f.7  +~+K.} } } } } } } } } } } } } } } } } } e &+5 R )+x @ @ @ @ @ @ ",
"+ @ @ @ @ @ @ {+:.}.l.F ]+} } } } } } } F.^+G.} } } } } } } } /+&.l # } } (+l _+E.} } } } } } } } :+^+-.} } } } } } } <+'.-+o. +x @ @ @ @ @ @ ",
"+ @ @ @ @ @ @ V  +o.>+: [+} } } } } } } K.u.=.}+} } } } } } } } U.|+p } } x ] 1+} } } } } } } } 2+W |.3+} } } } } } } 5.4+5+3+&+V @ @ @ @ @ @ ",
"+ @ @ @ @ @ @ / v O.B &+b.} } } } } } <+H ] l / } } } } } } } } R.<.r.F...w !.a.} } } } } } } F.{+l , & ]+} } } } } } [ &+M.@ G ; @ @ @ @ @ @ ",
"+ @ @ @ @ @ @ [.( W /.y C.} } } } } } Q.] ; $+].3.} }  .H.G.} } } J.6+2+[+F 6.} } }  .H. .} } C.|+s.; |+v.} } } } } } O.G r % <.@ @ @ @ @ @ @ ",
"+ @ @ @ @ @ @ @ b H ]+f 7+H.} } } } a.d.g.}+8+ +d.e c.9+#.=+_.;+} b.0+o.3+ +a+} b+T W #.- 6.U <.F `.c+t g.d+} } } } }+e+s.L 3 7+@ @ @ @ @ @ @ ",
"+ @ @ @ @ @ @ @ $.D }.f+).g+n . A.T.e :.c.} F._ l '.h d.P 3 h+#.^+E.` #.,.P n i+Y j+6+#.m.p.'.l m -.} #  +`.M.5 <+H.9 p.0 k+0+Z @ @ @ @ @ @ @ ",
"+ @ @ @ @ @ @ @ [.H s./.z.l+_+)+g g 3 ] #+} } C.j+^ e.n ..5.6+~+& ^+O l l s m+y.~+n+r  .d+k.I |+o.} } o+~+y.h D &+_+= d.L f P.# @ @ @ @ @ @ @ ",
"+ @ @ @ @ @ @ @ @ @.z 3.C.|+4+6.>+p+= ] #+} } i+).q+} } } x.I 2.> P f+|+] u &.l+{+: M } } } f+).[ } } .+h+l+6.>+p+&+7.3.C.y ;.@ @ @ @ @ @ @ @ ",
"+ @ @ @ @ @ @ @ @ # 0.7 T.) D.M.} } c z.v.} } >+d.*+} } N.<.s } r+, ) 1. +=+h.1+} V &.B.} } I.7 c } } 9.` e } } e '.2.`.= g.@ @ @ @ @ @ @ @ @ ",
"+ @ @ @ @ @ @ @ @ @ ; * @.f.!.$.H.} } 9 ;. .} x.Z -.} }+_ I Y.} E.| ' ).{ g b n } o  +C G.} F.$.g+} H.r.e.} } a.9+_+f.~ <.~.@ @ @ @ @ @ @ @ @ ",
"+ @ @ @ @ @ @ @ @ @ @ ) : ~.m+)+$ } } n =.Q } s s+} n 4 l d.S.}  .#.j.'++ P w G.} :+t+l [.F.} ; S } [ V ..} } ; D.5+V > u+@ @ @ @ @ @ @ @ @ @ ",
"+ @ @ @ @ @ @ @ @ @ @ @ 2 G J # j+$ n } T +.R._+W >+r.l l a n. .-+F v+} } p+> 5+ .[ '.l l ;.%+- - j W o+} :+[.l p+1+G @.@ @ @ @ @ @ @ @ @ @ @ ",
"+ @ @ @ @ @ @ @ @ @ @ @ $ b < T.Z.l r.U _.].n+u.l ].l l l l ^ g.I l X i.w+e+l a g.y.l l l l ].l !+n+).M ^+2 l b M.` e+@ @ @ @ @ @ @ @ @ @ @ @ ",
"+ @ @ @ @ @ @ @ @ @ @ @ @ ; > c.3+h+l E 0+l l l l l l l l l j+7.x+h E G I E h x+] j+l l l l l l l l l A g l ] 3.~.( @ @ @ @ @ @ @ @ @ @ @ @ @ ",
"+ @ @ @ @ @ @ @ @ @ @ @ @ @ w <.3.,+l l l l l h+{ G m.- / f+.+'+A.W.(.y+y+(.W.A.-+1+v.V 9+Z.F ).j+l l l l l > o.H 9+@ @ @ @ @ @ @ @ @ @ @ @ @ ",
"+ @ @ @ @ @ @ @ @ @ @ @ @ @ x v z l l l ' ` =.k.f.@+z+G.} } } } } } } } } } } } } } } } G.:+j `._.%.| D l l l 0+,+4 @ @ @ @ @ @ @ @ @ @ @ @ @ ",
"+ @ @ @ @ @ @ @ @ @ @ @ @ @ (+A l j+m.c.T.E.} } } } } F.}+;+]+y+b.B [ '+'+[ B `.y+V.;+d+F.} } } } } a.f.w.P.l l 4+V @ @ @ @ @ @ @ @ @ @ @ @ @ ",
"+ @ @ @ @ @ @ @ @ @ @ @ @ @ r.h+&+K.;+} } } F.A+N.e.9._ 0.( '.' p., h.' ' x+, B+' '.N &.$.s+d (.*+-.} } } I.c.:.!+=+@ @ @ @ @ @ @ @ @ @ @ @ @ ",
"+ @ @ @ @ @ @ @ @ @ @ @ @ @ @.h+C+} } ..B._.;.l+' ~+l l l l l l &+k q+5 A.u 9+0+l l l l l l ~+:.z.+.o.Y. .} } *.~+W @ @ @ @ @ @ @ @ @ @ @ @ @ ",
"+ @ @ @ @ @ @ @ @ @ @ @ @ @ *.h.@.e x.i I &+I : z ).h+l l l |+2.f. .} } } } ..4.C l l l l |+{ 0+,+I &+a r.o.8+w { 2.@ @ @ @ @ @ @ @ @ @ @ @ @ ",
"+ @ @ @ @ @ @ @ @ @ @ @ @ @ [.6+l B+a q 9 y+K @+<+f.U.* l l i -.} } } } } } } } F.X l l 7 3.M.B.@+K (.3._ I B+l ^ @ @ @ @ @ @ @ @ @ @ @ @ @ @ ",
"+ @ @ @ @ @ @ @ @ @ @ @ @ @ @ #.l _+a+F.} } } } } } L t l l z.%+ .} } } } } } S.g+= l l Y q.} } } } } } G.T.b j+j.@ @ @ @ @ @ @ @ @ @ @ @ @ @ ",
"+ @ @ @ @ @ @ @ @ @ @ @ @ @ @ =+!+4 } } } } } } -.+ _+l l l l ' @.9 Y.E.a./.3.9+{ l l l l 7+5+-.} } } } } } 2.7.;.@ @ @ @ @ @ @ @ @ @ @ @ @ @ ",
"+ @ @ @ @ @ @ @ @ @ @ @ @ @ @ ) ] w.} } } } S.e 2.z l l l j+|., B+0+8 e+#.= z B+, |.j+l l l &+(+b...} } } } / , >.@ @ @ @ @ @ @ @ @ @ @ @ @ @ ",
"+ @ @ @ @ @ @ @ @ @ @ @ @ @ @ - |.# /+D+E+U.s.:.p.D.b >.9._.i+U `.o (.5.5.(.o `.U %+k+p ) ,.I h.0+i _.<+D+/+=.~+++@ @ @ @ @ @ @ @ @ @ @ @ @ @ ",
"+ @ @ @ @ @ @ @ @ @ @ @ @ @ @ e+l E t.(  +I % 6.e X.n -.} } } -.G.............G.-.} } } -.d+j U c.j.,+v N y.{ l {.@ @ @ @ @ @ @ @ @ @ @ @ @ @ ",
"+ @ @ @ @ @ @ @ @ @ @ @ @ @ $ 7 l l D X 3+B.S.} }  ./+o m+v+; ;.s.{.f g.g.f {.s.>.[.u %+N.R. .} } S.E+R _+h l l t $ @ @ @ @ @ @ @ @ @ @ @ @ @ ",
"+ @ @ @ @ @ @ @ @ @ @ @ @ @ [.a ).2.e H.} } E.b.^.2 n+y.= &.9+m $ c.! ! ! ! c.@ +.s.0.* 3 1 k v+M.z+} } d+c >.x+( $ @ @ @ @ @ @ @ @ @ @ @ @ @ ",
"+ @ @ @ @ @ @ @ @ @ @ @ @ @ O A , 7+S `.4.F+!.^ < ; l.N./+d+G.} } } } } } } } } }  .}+I.L.M x !.H < w.f.5 O.{.|.4+/ @ @ @ @ @ @ @ @ @ @ @ @ @ ",
"+ @ @ @ @ @ @ @ @ @ @ @ @ @ $ g.t.h.l h D ~+l+^.N.*+..} } } } } } } } } } } } } } } } } } ..A+W.! 8 |+E { l B+t.f $ @ @ @ @ @ @ @ @ @ @ @ @ @ ",
"+ @ @ @ @ @ @ @ @ @ @ @ @ @ @ @ ; ;.#.H z ] l 7.)+8 $+u+^.J 8+o B.@+K K K K @+B.L.8+}.S %._+* A ] l 7.z 1 g.*.$ @ @ @ @ @ @ @ @ @ @ @ @ @ @ @ ",
"+ @ @ @ @ @ @ @ @ @ @ @ @ @ @ @ @ @ @ [.C+$._+z.,+D , |+l h+].g 0+,+G G G G ,+0+g , h+G+|+x+' F 7 f q C+$ @ @ @ @ @ @ @ @ @ @ @ @ @ @ @ @ @ @ ",
"+ @ @ @ @ @ @ @ @ @ @ @ @ @ @ @ @ @ @ @ @ @ @ # ; =.+.@.7+< | n+N > F I G F > ( n+Z.P % r.+.C+/ $ @ @ @ @ @ @ @ @ @ @ @ @ @ @ @ @ @ @ @ @ @ @ ",
"+ @ @ @ @ @ @ @ @ @ @ @ @ @ @ @ @ @ @ @ @ @ @ @ @ @ @ @ @ @ $ $ $ ; 4 [.[.4 ; $ $ $ @ @ @ @ @ @ @ @ @ @ @ @ @ @ @ @ @ @ @ @ @ @ @ @ @ @ @ @ @ ",
"+ @ @ @ @ @ @ @ @ @ @ @ @ @ @ @ @ @ @ @ @ @ @ @ @ @ @ @ @ @ @ @ @ @ @ @ @ @ @ @ @ @ @ @ @ @ @ @ @ @ @ @ @ @ @ @ @ @ @ @ @ @ @ @ @ @ @ @ @ @ @ ",
"+ @ @ @ @ @ @ @ @ @ @ @ @ @ @ @ @ @ @ @ @ @ @ @ @ @ @ @ @ @ @ @ @ @ @ @ @ @ @ @ @ @ @ @ @ @ @ @ @ @ @ @ @ @ @ @ @ @ @ @ @ @ @ @ @ @ @ @ @ @ @ ",
"+ @ @ @ @ @ @ @ @ @ @ @ @ @ @ @ @ @ @ @ @ @ @ @ @ @ @ @ @ @ @ @ @ @ @ @ @ @ @ @ @ @ @ @ @ @ @ @ @ @ @ @ @ @ @ @ @ @ @ @ @ @ @ @ @ @ @ @ @ @ @ ",
"+ @ @ @ @ @ @ @ @ @ @ @ @ @ @ @ @ @ @ @ @ @ @ @ @ @ @ @ @ @ @ @ @ @ @ @ @ @ @ @ @ @ @ @ @ @ @ @ @ @ @ @ @ @ @ @ @ @ @ @ @ @ @ @ @ @ @ @ @ @ @ ",
"+ @ @ @ @ @ @ @ @ @ @ @ @ @ @ @ @ @ @ @ @ @ @ @ @ @ @ @ @ @ @ @ @ @ @ @ @ @ @ @ @ @ @ @ @ @ @ @ @ @ @ @ @ @ @ @ @ @ @ @ @ @ @ @ @ @ @ @ @ @ @ ",
"+ @ @ @ @ @ @ @ @ @ @ @ @ @ @ @ @ @ @ @ @ @ @ @ @ @ @ @ @ @ @ @ @ @ @ @ @ @ @ @ @ @ @ @ @ @ @ @ @ @ @ @ @ @ @ @ @ @ @ @ @ @ @ @ @ @ @ @ @ @ @ "};
