/* XPM */
static char * nbwn_xpm[] = {
"71 71 228 2",
"  	c None",
". 	c #808080",
"+ 	c #6F6F6F",
"@ 	c #626262",
"# 	c #686868",
"$ 	c #4B4B4B",
"% 	c #131313",
"& 	c #434343",
"* 	c #656565",
"= 	c #141414",
"- 	c #1D1D1D",
"; 	c #7E7E7E",
"> 	c #303030",
", 	c #000000",
"' 	c #444444",
") 	c #414141",
"! 	c #383838",
"~ 	c #7F7F7F",
"{ 	c #2C2C2C",
"] 	c #030303",
"^ 	c #0C0C0C",
"/ 	c #555555",
"( 	c #7A7A7A",
"_ 	c #232323",
": 	c #111111",
"< 	c #0F0F0F",
"[ 	c #676767",
"} 	c #353535",
"| 	c #020202",
"1 	c #202020",
"2 	c #050505",
"3 	c #6D6D6D",
"4 	c #101010",
"5 	c #0D0D0D",
"6 	c #8E8E8E",
"7 	c #585858",
"8 	c #3E3E3E",
"9 	c #3F3F3F",
"0 	c #3C3C3C",
"a 	c #5B5B5B",
"b 	c #060606",
"c 	c #1C1C1C",
"d 	c #DBDBDB",
"e 	c #B5B5B5",
"f 	c #191919",
"g 	c #505050",
"h 	c #4F4F4F",
"i 	c #010101",
"j 	c #323232",
"k 	c #040404",
"l 	c #1E1E1E",
"m 	c #161616",
"n 	c #282828",
"o 	c #E7E7E7",
"p 	c #E9E9E9",
"q 	c #7C7C7C",
"r 	c #7B7B7B",
"s 	c #5C5C5C",
"t 	c #0B0B0B",
"u 	c #2A2A2A",
"v 	c #FEFEFE",
"w 	c #696969",
"x 	c #262626",
"y 	c #363636",
"z 	c #2F2F2F",
"A 	c #212121",
"B 	c #292929",
"C 	c #3B3B3B",
"D 	c #070707",
"E 	c #424242",
"F 	c #F3F3F3",
"G 	c #FFFFFF",
"H 	c #A1A1A1",
"I 	c #7D7D7D",
"J 	c #313131",
"K 	c #B0B0B0",
"L 	c #525252",
"M 	c #D8D8D8",
"N 	c #5A5A5A",
"O 	c #737373",
"P 	c #898989",
"Q 	c #151515",
"R 	c #3A3A3A",
"S 	c #494949",
"T 	c #6B6B6B",
"U 	c #777777",
"V 	c #5F5F5F",
"W 	c #090909",
"X 	c #BDBDBD",
"Y 	c #9F9F9F",
"Z 	c #393939",
"` 	c #939393",
" .	c #D2D2D2",
"..	c #EEEEEE",
"+.	c #FDFDFD",
"@.	c #B6B6B6",
"#.	c #2B2B2B",
"$.	c #404040",
"%.	c #787878",
"&.	c #999999",
"*.	c #FBFBFB",
"=.	c #8B8B8B",
"-.	c #D0D0D0",
";.	c #DCDCDC",
">.	c #797979",
",.	c #727272",
"'.	c #171717",
").	c #4C4C4C",
"!.	c #8F8F8F",
"~.	c #DADADA",
"{.	c #474747",
"].	c #636363",
"^.	c #565656",
"/.	c #B1B1B1",
"(.	c #484848",
"_.	c #080808",
":.	c #222222",
"<.	c #454545",
"[.	c #BFBFBF",
"}.	c #E8E8E8",
"|.	c #EDEDED",
"1.	c #121212",
"2.	c #2D2D2D",
"3.	c #6E6E6E",
"4.	c #FCFCFC",
"5.	c #F4F4F4",
"6.	c #EFEFEF",
"7.	c #1A1A1A",
"8.	c #575757",
"9.	c #A8A8A8",
"0.	c #CCCCCC",
"a.	c #C2C2C2",
"b.	c #BEBEBE",
"c.	c #ECECEC",
"d.	c #757575",
"e.	c #4D4D4D",
"f.	c #9E9E9E",
"g.	c #242424",
"h.	c #838383",
"i.	c #C7C7C7",
"j.	c #1F1F1F",
"k.	c #717171",
"l.	c #4A4A4A",
"m.	c #343434",
"n.	c #707070",
"o.	c #333333",
"p.	c #D7D7D7",
"q.	c #E2E2E2",
"r.	c #949494",
"s.	c #F9F9F9",
"t.	c #B4B4B4",
"u.	c #6A6A6A",
"v.	c #0E0E0E",
"w.	c #878787",
"x.	c #272727",
"y.	c #E6E6E6",
"z.	c #959595",
"A.	c #3D3D3D",
"B.	c #E0E0E0",
"C.	c #EAEAEA",
"D.	c #ADADAD",
"E.	c #A2A2A2",
"F.	c #A5A5A5",
"G.	c #C3C3C3",
"H.	c #0A0A0A",
"I.	c #5E5E5E",
"J.	c #F8F8F8",
"K.	c #ACACAC",
"L.	c #CFCFCF",
"M.	c #535353",
"N.	c #C1C1C1",
"O.	c #F6F6F6",
"P.	c #595959",
"Q.	c #646464",
"R.	c #515151",
"S.	c #F7F7F7",
"T.	c #C8C8C8",
"U.	c #1B1B1B",
"V.	c #ABABAB",
"W.	c #2E2E2E",
"X.	c #252525",
"Y.	c #606060",
"Z.	c #E4E4E4",
"`.	c #8C8C8C",
" +	c #8D8D8D",
".+	c #4E4E4E",
"++	c #464646",
"@+	c #BBBBBB",
"#+	c #181818",
"$+	c #FAFAFA",
"%+	c #9A9A9A",
"&+	c #616161",
"*+	c #C4C4C4",
"=+	c #E3E3E3",
"-+	c #373737",
";+	c #F1F1F1",
">+	c #9B9B9B",
",+	c #DFDFDF",
"'+	c #F2F2F2",
")+	c #666666",
"!+	c #888888",
"~+	c #B2B2B2",
"{+	c #E1E1E1",
"]+	c #DEDEDE",
"^+	c #8A8A8A",
"/+	c #CDCDCD",
"(+	c #EBEBEB",
"_+	c #919191",
":+	c #818181",
"<+	c #969696",
"[+	c #D4D4D4",
"}+	c #545454",
"|+	c #AEAEAE",
"1+	c #5D5D5D",
"2+	c #C5C5C5",
"3+	c #C0C0C0",
"4+	c #9D9D9D",
"5+	c #A0A0A0",
"6+	c #747474",
"7+	c #B8B8B8",
"8+	c #A4A4A4",
"9+	c #A6A6A6",
"0+	c #F0F0F0",
"a+	c #A7A7A7",
"b+	c #CACACA",
"c+	c #D3D3D3",
"d+	c #868686",
"e+	c #A3A3A3",
". . . . . . . . . . . . . . . . . . . . . . . . . . . . . . . . . . . . . . . . . . . . . . . . . . . . . . . . . . . . . . . . . . . . . . . ",
". . . . . . . . . . . . . . . . . . . . . . . . . . . . . . . . . . . . . . . . . . . . . . . . . . . . . . . . . . . . . . . . . . . . . . . ",
". . . . . . . . . . . . . . . . . . . . . . . . . . . . . . . . . . . . . . . . . . . . . . . . . . . . . . . . . . . . . . . . . . . . . . . ",
". . . . . . . . . . . . . . . . . . . . . . . . . . . . . . . . . . . . . . . . . . . . . . . . . . . . . . . . . . . . . . . . . . . . . . . ",
". . . . . . . . . . . . . . . . . . . . . . . . . . . . . . . . . . . . . . . . . . . . . . . . . . . . . . . . . . . . . . . . . . . . . . . ",
". . . . . . . . . . . . . . . . . . . . . . . . . . . . . . . . . . . . . . . . . . . . . . . . . . . . . . . . . . . . . . . . . . . . . . . ",
". . . . . . . . . . . . . . . . . . . . . . . . . . . . . . . . . . . . . . . . . . . . . . . . . . . . . . . . . . . . . . . . . . . . . . . ",
". . . . . . . . . . . . . . . . . . . . . . . . . . . . . . . . . . . . . . . . . . . . . . . . . . . . . . . . . . . . . . . . . . . . . . . ",
". . . . . . . . . . . . . . . . . . . . . + . . . . . . . @ # . . . . . . . . . . . . . . . . . . . . . . . . . . . . . . . . . . . . . . . . ",
". . . . . . . . . . . . . . . . . . . . $ % & . . . . . * = - * . . . . . . . . . . . . . . . . . . . . . . . . . . . . . . . . . . . . . . . ",
". . . . . . . . . . . . . . . . . . . ; > , , ' . . . . ) , , ! ~ . . . . . . . . . . . . . . . . . . . . . . . . . . . . . . . . . . . . . . ",
". . . . . . . . . . . . . . . . . . . ; { , ] ^ / . . ( _ , : < [ . . . . . . . . . . . . . . . . . . . . . . . . . . . . . . . . . . . . . . ",
". . . . . . . . . . . . . . . . . . . . } | 1 2 1 3 . + 4 5 6 7 8 . . . . . . . . . . . . . . . . . . . . . . . . . . . . . . . . . . . . . . ",
". . . . . . . . . . . . . . . . . . . . ) , 9 { , 0 ( a b c d e f g . . . . . . . . . . . . . . . . . . . . . . . . . . . . . . . . . . . . . ",
". . . . . . . . . . . . . . . . . . . . h i j 8 k k l m , n o p j < $ q . ; r r ; . . . . . . . . . . . . . . . . . . . . . . . . . . . . . . ",
". . . . . . . . . . . . . . . . . . . . s k b t , , , , , u p v w , ] x y z _ A B C @ . . . . . . . . . . . . . . . . . . . . . . . . . . . . ",
". . . . . . . . . . . . . . . . . . . . 7 D , m E , , , , ! F G H k , ] , , , , , , C . . . . . . . . . . . . . . . . . . . . . . . . . . . . ",
". . . . . . . . . . . . . . . . . . . I J , 8 K ~ , , , | L F G M N O P [ j ^ , , , Q R S a T U . . . . . . . . . . . . . . . . . . . . . . . ",
". . . . . . . . . . . . . . . . . . . V W > X Y D , i Z `  .G G G ..G G +.p @.O #., , , , ] ^ l $.%.. . . . . . . . . . . . . . . . . . . . . ",
". . . . . . . . . . . . . . . . . . . Z D &.*.@ , { =.-.G G G G G G G G G G G G ;.=.y , , , , c ' >.. . . . . . . . . . . . . . . . . . . . . ",
". . . . . . . . . . . . . . . . . . ,.'.).F G !.C Y G G G G G G G G G G G G G G G G ~.r '., , A {.].%.. . . . . . . . . . . . . . . . . . . . ",
". . . . . . . . . . . . . . . . . . ^.] =.G G G p G G G G G G G G G G G G G G G G G G G /.(., , , _.:.<.T . . . . . . . . . . . . . . . . . . ",
". . . . . . . . . . . . . . . . . . C ^ [.G G G G G G G G G G G G G G G G G G G G G G G G M @ , , , , , % $.( . . . . . . . . . . . . . . . . ",
". . . . . . . . . . . . . . . . . ( :.> }.G G G G G G G G G G G G G G G G G G G G G G G G G |.( , , , D 1.2.3.. . . . . . . . . . . . . . . . ",
". . . . . . . . . . . . . . . . . + 4 [ 4.G G G 5.6.5.*.G G G G G G G G G G G G G G G G G G G v ( , , 7.g q . . . . . . . . . . . . . . . . . ",
". . . . . . . . . . . . . . . . . 8.t 9.G G 0.~ {.! ) # a.G G G G G G G b.d G G G G G G G G G G c.@ , , 4 <.q . . . . . . . . . . . . . . . . ",
". . . . . . . . . . . . . . . . d.n e.|.G f.#.D , g.V n h.*.G G G G G i.j.k.+.G G G G G G G G G G ~.l., , , m.n.. . . . . . . . . . . . . . . ",
". . . . . . . . . . . . . . . . E c /.G H l o.&.L ' F p.q.G G G G G G r., h s.G G G G G G G G G G G t.1 , , , 2.u.. . . . . . . . . . . . . . ",
". . . . . . . . . . . . . . . V v.w.G d } z ].G >.x.y.G G G G G G G G %., 8.*.G G G G G G G G G G G G w., , , , #.3.. . . . . . . . . . . . . ",
". . . . . . . . . . . . . . q > ).c.G z.A.[.8.].{ E ..G G G G G G G G T , d.G B.G G G G G G G G G G G C.l., , , , m.q . . . . . . . . . . . . ",
". . . . . . . . . . . . . . / Q D.G +.[ . G E.) ) F.G G G G G G G G *.a ] Y !.j G.G G G G G G G G G G G F.H., ^ Q J O . . . . . . . . . . . . ",
". . . . . . . . . . . . . >.B I.J.G G K.L.G G ....G G G G G G G G G *.M.Q b.) 5 N.G G G G G G G G G G G O.P., g.Q.r . . . . . . . . . . . . . ",
". . . . . . . . . . . . . R.4 /.G G G G G G G G G G G G G G G G G G S.(.{.T.U.<.c.G G G G G G G G G G G G V.W , W.3 . . . . . . . . . . . . . ",
". . . . . . . . . . . . d.X.Y.s.G G G G G G G G G G G G G G G G G G Z.B `. +t H G G G G G G G G G G G G G 5..+, , W.3.. . . . . . . . . . . . ",
". . . . . . . . . . . . ++f @+G G G G G G G G G G G G G G G G G G G K.#+[ B T $+G G G G G G G G G G G G G G %+] , , z n.. . . . . . . . . . . ",
". . . . . . . . . . . &+Q %.G G G G G G G G G G G G G G G G G G G J.V , b S *+=+G G G G G G G G G G G G G G B.{ , , , -+; . . . . . . . . . . ",
". . . . . . . . . . %.2.<.~.G G G G G G G G G G G G G G G G G G G f.W , Z P ).N ;+G G G G G G G G G G G G G v n., , , , (.. . . . . . . . . . ",
". . . . . . . . . . E A >+,+G G G G G G G G G G G '+,+G G G G G T.} , , S P., h.G G G G G G G G G G G G G G G /.W , 4 W c + . . . . . . . . . ",
". . . . . . . . . L U.r.)+!+G G G G G G G G G G G ~+$ {+G G G ]+P., , , , g.^+v G G G G G G G G G G G G G G G y.2., j )+a ( . . . . . . . . . ",
". . . . . . . . Q.7.I K f ~+G G G G G G G G G G G /+U.z.*.O.@+N 1 k - m.d.i.G G G G G G G G G G G G G G G G G +.)+, | & . . . . . . . . . . . ",
". . . . . . . ; o.E d N ,.G G G G G G G G G G G G p.#+1 a s $ 7 u._ /.(+v G G G G G G G G G G G G G G G G G G G f.] , _..+. . . . . . . . . . ",
". . . . . . . Q.t _+:+V {+G G G G G G G G G G G G <+4 l.w d.; . 7 B q.G G G G G G G G G G G G G G G G G G G G G [+U., , 4 }+. . . . . . . . . ",
". . . . . . . S f |+g.1+2+G G G G G G G G G G ;.. A & . . . . . A.++5.G G G G G G G G G G G G G G G G G G G G G F E , , , c * . . . . . . . . ",
". . . . . . ~ } 2.p <+! {.o G G G G G G G G [.++'.e.. . . . . %.1 U G G G G G G G G G G G G G G G G G G G G G G G n., , , , o.I . . . . . . . ",
". . . . . . ; u Z F G E.f 0.G G G G G G G 3+9 { @ . . . . . . 7 4 ~+G G G G G G G G G G G G G G G G G G G G G G G 4+] ] - l v.@ . . . . . . . ",
". . . . . . q x o.c.G 5+f /+y.6.G G G G [.$.R 6+. . . . . . I > ).;+G G G G G G G G G G G G G G G G G G G G G G G i.< , B u.].U . . . . . . . ",
". . . . . . ; u B y.{+E g 7+{.U *.G G 8+m.> U . . . . . . . L : 9+G G G G G G G G G G G G G G G G G G G G G G G G q.X., , A.. . . . . . . . . ",
". . . . . . . C f [+0+a+-.# , %.G G >+U.= * . . . . . . . u.j.3 4.G G G G G G G G G G G G G G G G G G G G G G G G 5.& , , H.a . . . . . . . . ",
". . . . . . . P.W &.G G y.B #.b+G {+j , 0 . . . . . . . >.j 9  .G G G G G G G G G G G G G G G G G G G G G G G G G G u., , , 2.r . . . . . . . ",
". . . . . . . I } A.*+v ;+y ; G G i.< t ].. . . . . . . 9 l D.G G G G G G G G G G G G G G G G G G G G G G G G G G G `., , , 2 7 . . . . . . . ",
". . . . . . . . n.j { )+w j.[.G G w., > I . . . . . . (.] 6 G G G G G G G G G G G G G G G G G G G G G G G G G G G G K.k , H., m.; . . . . . . ",
". . . . . . . . . ( e.:., t H }.9.u % I.. . . . . . R.< %.v G G G G G G G G G G G G G G G G G G G G G G G G G G G G i.v.i #.C ! >.. . . . . . ",
". . . . . . . . . . . U ) _.'.B 5 4 h . . . . . . V f V }.G G G G G G G G G G G G G G G G G G G G G G G G G G G G G d c , m ].%.. . . . . . . ",
". . . . . . . . . . . . . a 8 J 0 1+. . . . . . n.x.E c+G G G G G G G G G G G G G G G G G G G G G G G G G G G G G G p 2., , J I . . . . . . . ",
". . . . . . . . . . . . . . . ; . . . . . . . . C c /.G G G G G G G G G G G G G G G G G G G G G G G G G G G G G G G F $., , k L . . . . . . . ",
". . . . . . . . . . . . . . . . . . . . . . . P.W d+G G G G G G G G G G G G G G G G G G G G G G G G G G G G G G G G *.}+, , , g.U . . . . . . ",
". . . . . . . . . . . . . . . . . . . . . . ( #.<.}.G G G G G G G G G G G G G G G G G G G G G G G G G G G G G G G G v w , , , ] }+. . . . . . ",
". . . . . . . . . . . . . . . . . . . . . . P.H.%+G G G G G G G G G G G G G G G G G G G G G G G G G G G G G G G G G G ; , _.g.5 R ; . . . . . ",
". . . . . . . . . . . . . . . . . . . . . ~ } u {+G G G G G G G G G G G G G G G G G G G G G G G G G G G G G G G G G G _+, b h T # . . . . . . ",
". . . . . . . . . . . . . . . . . . . . . 6+'.Y.*.G G G G G G G G G G G G G G G G G G G G G G G G G G G G G G G G G G e+] , A 6+. . . . . . . ",
". . . . . . . . . . . . . . . . . . . . . Q.D !.G G G G G G G G G G G G G G G G G G G G G G G G G G G G G G G G G G G ~+] , i g . . . . . . . ",
". . . . . . . . . . . . . . . . . . . . . P.D 3 a+a+a+a+a+a+a+a+a+a+a+a+a+a+a+a+a+a+a+a+a+a+a+a+a+a+a+a+a+a+a+a+a+a+a+( H., , z I . . . . . . ",
". . . . . . . . . . . . . . . . . . . . . .+| 2 2 2 2 2 2 2 2 2 2 2 2 2 2 2 2 2 2 2 2 2 2 2 2 2 2 2 2 2 2 2 2 2 2 2 2 2 | | | f d.. . . . . . ",
". . . . . . . . . . . . . . . . . . . . . 3.^.^.^.^.^.^.^.^.^.^.^.^.^.^.^.^.^.^.^.^.^.^.^.^.^.^.^.^.^.^.^.^.^.^.^.^.^.^.^.^.^.P.I . . . . . . ",
". . . . . . . . . . . . . . . . . . . . . . . . . . . . . . . . . . . . . . . . . . . . . . . . . . . . . . . . . . . . . . . . . . . . . . . ",
". . . . . . . . . . . . . . . . . . . . . . . . . . . . . . . . . . . . . . . . . . . . . . . . . . . . . . . . . . . . . . . . . . . . . . . ",
". . . . . . . . . . . . . . . . . . . . . . . . . . . . . . . . . . . . . . . . . . . . . . . . . . . . . . . . . . . . . . . . . . . . . . . ",
". . . . . . . . . . . . . . . . . . . . . . . . . . . . . . . . . . . . . . . . . . . . . . . . . . . . . . . . . . . . . . . . . . . . . . . ",
". . . . . . . . . . . . . . . . . . . . . . . . . . . . . . . . . . . . . . . . . . . . . . . . . . . . . . . . . . . . . . . . . . . . . . . ",
". . . . . . . . . . . . . . . . . . . . . . . . . . . . . . . . . . . . . . . . . . . . . . . . . . . . . . . . . . . . . . . . . . . . . . . ",
". . . . . . . . . . . . . . . . . . . . . . . . . . . . . . . . . . . . . . . . . . . . . . . . . . . . . . . . . . . . . . . . . . . . . . . "};
