/* XPM */
static char * nbwp_xpm[] = {
"71 71 179 2",
"  	c None",
". 	c #808080",
"+ 	c #646464",
"@ 	c #585858",
"# 	c #676767",
"$ 	c #5C5C5C",
"% 	c #252525",
"& 	c #0B0B0B",
"* 	c #1B1B1B",
"= 	c #1A1A1A",
"- 	c #2A2A2A",
"; 	c #5F5F5F",
"> 	c #1C1C1C",
", 	c #393939",
"' 	c #9C9C9C",
") 	c #D7D7D7",
"! 	c #D6D6D6",
"~ 	c #969696",
"{ 	c #353535",
"] 	c #171717",
"^ 	c #2B2B2B",
"/ 	c #232323",
"( 	c #BABABA",
"_ 	c #FFFFFF",
": 	c #B5B5B5",
"< 	c #323232",
"[ 	c #6A6A6A",
"} 	c #FEFEFE",
"| 	c #FCFCFC",
"1 	c #0E0E0E",
"2 	c #626262",
"3 	c #050505",
"4 	c #878787",
"5 	c #797979",
"6 	c #080808",
"7 	c #7B7B7B",
"8 	c #696969",
"9 	c #0A0A0A",
"0 	c #6E6E6E",
"a 	c #FDFDFD",
"b 	c #636363",
"c 	c #0C0C0C",
"d 	c #262626",
"e 	c #C3C3C3",
"f 	c #BBBBBB",
"g 	c #222222",
"h 	c #2C2C2C",
"i 	c #5A5A5A",
"j 	c #434343",
"k 	c #ABABAB",
"l 	c #E5E5E5",
"m 	c #E4E4E4",
"n 	c #A6A6A6",
"o 	c #3D3D3D",
"p 	c #151515",
"q 	c #5B5B5B",
"r 	c #404040",
"s 	c #000000",
"t 	c #272727",
"u 	c #090909",
"v 	c #343434",
"w 	c #7F7F7F",
"x 	c #616161",
"y 	c #363636",
"z 	c #7A7A7A",
"A 	c #747474",
"B 	c #F0F0F0",
"C 	c #666666",
"D 	c #424242",
"E 	c #E9E9E9",
"F 	c #E0E0E0",
"G 	c #4E4E4E",
"H 	c #4B4B4B",
"I 	c #DFDFDF",
"J 	c #DDDDDD",
"K 	c #515151",
"L 	c #484848",
"M 	c #4A4A4A",
"N 	c #BFBFBF",
"O 	c #B3B3B3",
"P 	c #101010",
"Q 	c #444444",
"R 	c #040404",
"S 	c #777777",
"T 	c #B9B9B9",
"U 	c #B2B2B2",
"V 	c #717171",
"W 	c #181818",
"X 	c #5E5E5E",
"Y 	c #555555",
"Z 	c #6C6C6C",
"` 	c #888888",
" .	c #686868",
"..	c #060606",
"+.	c #1E1E1E",
"@.	c #656565",
"#.	c #DCDCDC",
"$.	c #2E2E2E",
"%.	c #141414",
"&.	c #6D6D6D",
"*.	c #FAFAFA",
"=.	c #414141",
"-.	c #131313",
";.	c #AFAFAF",
">.	c #4F4F4F",
",.	c #727272",
"'.	c #6B6B6B",
").	c #595959",
"!.	c #5D5D5D",
"~.	c #E1E1E1",
"{.	c #DBDBDB",
"].	c #1D1D1D",
"^.	c #535353",
"/.	c #D0D0D0",
"(.	c #B8B8B8",
"_.	c #202020",
":.	c #070707",
"<.	c #7E7E7E",
"[.	c #757575",
"}.	c #494949",
"|.	c #C0C0C0",
"1.	c #B4B4B4",
"2.	c #383838",
"3.	c #D8D8D8",
"4.	c #D1D1D1",
"5.	c #3A3A3A",
"6.	c #D5D5D5",
"7.	c #CDCDCD",
"8.	c #4D4D4D",
"9.	c #A9A9A9",
"0.	c #9D9D9D",
"a.	c #525252",
"b.	c #F7F7F7",
"c.	c #F1F1F1",
"d.	c #505050",
"e.	c #464646",
"f.	c #828282",
"g.	c #333333",
"h.	c #020202",
"i.	c #CBCBCB",
"j.	c #3E3E3E",
"k.	c #474747",
"l.	c #030303",
"m.	c #565656",
"n.	c #1F1F1F",
"o.	c #0F0F0F",
"p.	c #121212",
"q.	c #B6B6B6",
"r.	c #EFEFEF",
"s.	c #3C3C3C",
"t.	c #999999",
"u.	c #909090",
"v.	c #0D0D0D",
"w.	c #606060",
"x.	c #F2F2F2",
"y.	c #EDEDED",
"z.	c #C4C4C4",
"A.	c #3F3F3F",
"B.	c #242424",
"C.	c #BEBEBE",
"D.	c #CACACA",
"E.	c #C2C2C2",
"F.	c #161616",
"G.	c #575757",
"H.	c #212121",
"I.	c #E3E3E3",
"J.	c #292929",
"K.	c #C7C7C7",
"L.	c #8A8A8A",
"M.	c #C5C5C5",
"N.	c #E8E8E8",
"O.	c #F5F5F5",
"P.	c #373737",
"Q.	c #EBEBEB",
"R.	c #303030",
"S.	c #B1B1B1",
"T.	c #AAAAAA",
"U.	c #2D2D2D",
"V.	c #454545",
". . . . . . . . . . . . . . . . . . . . . . . . . . . . . . . . . . . . . . . . . . . . . . . . . . . . . . . . . . . . . . . . . . . . . . . ",
". . . . . . . . . . . . . . . . . . . . . . . . . . . . . . . . . . . . . . . . . . . . . . . . . . . . . . . . . . . . . . . . . . . . . . . ",
". . . . . . . . . . . . . . . . . . . . . . . . . . . . . . . . . . . . . . . . . . . . . . . . . . . . . . . . . . . . . . . . . . . . . . . ",
". . . . . . . . . . . . . . . . . . . . . . . . . . . . . . . . . . . . . . . . . . . . . . . . . . . . . . . . . . . . . . . . . . . . . . . ",
". . . . . . . . . . . . . . . . . . . . . . . . . . . . . . . . . . . . . . . . . . . . . . . . . . . . . . . . . . . . . . . . . . . . . . . ",
". . . . . . . . . . . . . . . . . . . . . . . . . . . . . . . . . . . . . . . . . . . . . . . . . . . . . . . . . . . . . . . . . . . . . . . ",
". . . . . . . . . . . . . . . . . . . . . . . . . . . . . . . . . . + @ @ # . . . . . . . . . . . . . . . . . . . . . . . . . . . . . . . . . ",
". . . . . . . . . . . . . . . . . . . . . . . . . . . . . . . . $ % & * = & - ; . . . . . . . . . . . . . . . . . . . . . . . . . . . . . . . ",
". . . . . . . . . . . . . . . . . . . . . . . . . . . . . . . ; > , ' ) ! ~ { ] ; . . . . . . . . . . . . . . . . . . . . . . . . . . . . . . ",
". . . . . . . . . . . . . . . . . . . . . . . . . . . . . . . ^ / ( _ _ _ _ : * < . . . . . . . . . . . . . . . . . . . . . . . . . . . . . . ",
". . . . . . . . . . . . . . . . . . . . . . . . . . . . . . . & [ } _ _ _ _ | ; 1 . . . . . . . . . . . . . . . . . . . . . . . . . . . . . . ",
". . . . . . . . . . . . . . . . . . . . . . . . . . . . . . 2 3 4 _ _ _ _ _ _ 5 6 7 . . . . . . . . . . . . . . . . . . . . . . . . . . . . . ",
". . . . . . . . . . . . . . . . . . . . . . . . . . . . . . 8 9 0 } _ _ _ _ a b c . . . . . . . . . . . . . . . . . . . . . . . . . . . . . . ",
". . . . . . . . . . . . . . . . . . . . . . . . . . . . . . . d - e _ _ _ _ f g h . . . . . . . . . . . . . . . . . . . . . . . . . . . . . . ",
". . . . . . . . . . . . . . . . . . . . . . . . . . . . . . . i ] j k l m n o p q . . . . . . . . . . . . . . . . . . . . . . . . . . . . . . ",
". . . . . . . . . . . . . . . . . . . . . . . . . . . . . . . . r s & t d u s j . . . . . . . . . . . . . . . . . . . . . . . . . . . . . . . ",
". . . . . . . . . . . . . . . . . . . . . . . . . . . . . . . . v s 2 w w x s < . . . . . . . . . . . . . . . . . . . . . . . . . . . . . . . ",
". . . . . . . . . . . . . . . . . . . . . . . . . . . . . . . y s w _ _ _ } z s { . . . . . . . . . . . . . . . . . . . . . . . . . . . . . . ",
". . . . . . . . . . . . . . . . . . . . . . . . . . . . . . { s A | _ _ _ _ B C s D . . . . . . . . . . . . . . . . . . . . . . . . . . . . . ",
". . . . . . . . . . . . . . . . . . . . . . . . . . . . . j s 2 E _ _ _ _ _ _ F ; s G . . . . . . . . . . . . . . . . . . . . . . . . . . . . ",
". . . . . . . . . . . . . . . . . . . . . . . . . . . . H s i I _ _ _ _ _ _ _ _ J K s L . . . . . . . . . . . . . . . . . . . . . . . . . . . ",
". . . . . . . . . . . . . . . . . . . . . . . . . . . M s p N _ _ _ _ _ _ _ _ _ _ O P s D . . . . . . . . . . . . . . . . . . . . . . . . . . ",
". . . . . . . . . . . . . . . . . . . . . . . . . . Q s s R S O T T T T T T T T U V s s 6 K . . . . . . . . . . . . . . . . . . . . . . . . . ",
". . . . . . . . . . . . . . . . . . . . . . . . . . W R R R s 6 6 6 6 6 6 6 6 6 6 s R R R g . . . . . . . . . . . . . . . . . . . . . . . . . ",
". . . . . . . . . . . . . . . . . . . . . . . . . . b X X Y > 6 Z ` ` ` ` ` `  ...+.Y X X @.. . . . . . . . . . . . . . . . . . . . . . . . . ",
". . . . . . . . . . . . . . . . . . . . . . . . . . . . . . ^ ^ m _ _ _ _ _ _ #./ $.. . . . . . . . . . . . . . . . . . . . . . . . . . . . . ",
". . . . . . . . . . . . . . . . . . . . . . . . . . . . . . %.&.} _ _ _ _ _ _ *.b W . . . . . . . . . . . . . . . . . . . . . . . . . . . . . ",
". . . . . . . . . . . . . . . . . . . . . . . . . . . . . =.-.( _ _ _ _ _ _ _ _ ;.c =.. . . . . . . . . . . . . . . . . . . . . . . . . . . . ",
". . . . . . . . . . . . . . . . . . . . . . . . . . . . >.R ,.} _ _ _ _ _ _ _ _ *.'.9 ).. . . . . . . . . . . . . . . . . . . . . . . . . . . ",
". . . . . . . . . . . . . . . . . . . . . . . . . . . !.= X ~._ _ _ _ _ _ _ _ _ _ {.Y ].!.. . . . . . . . . . . . . . . . . . . . . . . . . . ",
". . . . . . . . . . . . . . . . . . . . . . . . . . X = ^.#._ _ _ _ _ _ _ _ _ _ _ _ /.L = b . . . . . . . . . . . . . . . . . . . . . . . . . ",
". . . . . . . . . . . . . . . . . . . . . . . . . . $.- e _ _ _ _ _ _ _ _ _ _ _ _ _ _ (._.v . . . . . . . . . . . . . . . . . . . . . . . . . ",
". . . . . . . . . . . . . . . . . . . . . . . . . + :.<._ _ _ _ _ _ _ _ _ _ _ _ _ _ _ _ [.& C . . . . . . . . . . . . . . . . . . . . . . . . ",
". . . . . . . . . . . . . . . . . . . . . . . . . }.1 |._ _ _ _ _ _ _ _ _ _ _ _ _ _ _ _ 1.u G . . . . . . . . . . . . . . . . . . . . . . . . ",
". . . . . . . . . . . . . . . . . . . . . . . . . 2.= 3._ _ _ _ _ _ _ _ _ _ _ _ _ _ _ _ 4.p r . . . . . . . . . . . . . . . . . . . . . . . . ",
". . . . . . . . . . . . . . . . . . . . . . . . . 5.W 6._ _ _ _ _ _ _ _ _ _ _ _ _ _ _ _ 7.-.j . . . . . . . . . . . . . . . . . . . . . . . . ",
". . . . . . . . . . . . . . . . . . . . . . . . . 8.:.9._ _ _ _ _ _ _ _ _ _ _ _ _ _ _ _ 0.R a.. . . . . . . . . . . . . . . . . . . . . . . . ",
". . . . . . . . . . . . . . . . . . . . . . . . . . -.$ b._ _ _ _ _ _ _ _ _ _ _ _ _ _ c.d.W . . . . . . . . . . . . . . . . . . . . . . . . . ",
". . . . . . . . . . . . . . . . . . . . . . . . . . e.s f.} _ _ _ _ _ _ _ _ _ _ _ _ a w s 8.. . . . . . . . . . . . . . . . . . . . . . . . . ",
". . . . . . . . . . . . . . . . . . . . . . . . . . . g.h.,./.*._ _ _ _ _ _ _ _ *.i.0 s j.. . . . . . . . . . . . . . . . . . . . . . . . . . ",
". . . . . . . . . . . . . . . . . . . . . . . . . . . . k.l./ @ 7 4 ` ` ` ` 4 5 m.n.o.M . . . . . . . . . . . . . . . . . . . . . . . . . . . ",
". . . . . . . . . . . . . . . . . . . . . . . . . . . . . D s :.& & & & & & & & 3 s 8.. . . . . . . . . . . . . . . . . . . . . . . . . . . . ",
". . . . . . . . . . . . . . . . . . . . . . . . . . . . . 8 9 [.e e e e e e e e 0 u . . . . . . . . . . . . . . . . . . . . . . . . . . . . . ",
". . . . . . . . . . . . . . . . . . . . . . . . . . . . . Y p.|._ _ _ _ _ _ _ _ q.1 $ . . . . . . . . . . . . . . . . . . . . . . . . . . . . ",
". . . . . . . . . . . . . . . . . . . . . . . . . . . . . y k.r._ _ _ _ _ _ _ _ E s.5.. . . . . . . . . . . . . . . . . . . . . . . . . . . . ",
". . . . . . . . . . . . . . . . . . . . . . . . . . . . @ 1 t._ _ _ _ _ _ _ _ _ _ u.v.w.. . . . . . . . . . . . . . . . . . . . . . . . . . . ",
". . . . . . . . . . . . . . . . . . . . . . . . . . . . / X x._ _ _ _ _ _ _ _ _ _ y.Y % b . . . . . . . . . . . . . . . . . . . . . . . . . . ",
". . . . . . . . . . . . . . . . . . . . . . . . . . 8 - =.i._ _ _ _ _ _ _ _ _ _ _ _ z.A.B.8 . . . . . . . . . . . . . . . . . . . . . . . . . ",
". . . . . . . . . . . . . . . . . . . . . . . . . @ n.=.N _ _ _ _ _ _ _ _ _ _ _ _ _ _ C.A./ @ . . . . . . . . . . . . . . . . . . . . . . . . ",
". . . . . . . . . . . . . . . . . . . . . . . . ; > ).D._ _ _ _ _ _ _ _ _ _ _ _ _ _ _ _ E.d.F.G.. . . . . . . . . . . . . . . . . . . . . . . ",
". . . . . . . . . . . . . . . . . . . . . . . ).= b I _ _ _ _ _ _ _ _ _ _ _ _ _ _ _ _ _ _ #.; p X . . . . . . . . . . . . . . . . . . . . . . ",
". . . . . . . . . . . . . . . . . . . . . . . H.w.I._ _ _ _ _ _ _ _ _ _ _ _ _ _ _ _ _ _ _ _ I i J.. . . . . . . . . . . . . . . . . . . . . . ",
". . . . . . . . . . . . . . . . . . . . . . j.g./._ _ _ _ _ _ _ _ _ _ _ _ _ _ _ _ _ _ _ _ _ _ K.J.=.. . . . . . . . . . . . . . . . . . . . . ",
". . . . . . . . . . . . . . . . . . . . . + v.L._ _ _ _ _ _ _ _ _ _ _ _ _ _ _ _ _ _ _ _ _ _ _ _ w p.8 . . . . . . . . . . . . . . . . . . . . ",
". . . . . . . . . . . . . . . . . . . . . j.W /._ _ _ _ _ _ _ _ _ _ _ _ _ _ _ _ _ _ _ _ _ _ _ _ M.p.=.. . . . . . . . . . . . . . . . . . . . ",
". . . . . . . . . . . . . . . . . . . . . W v r._ _ _ _ _ _ _ _ _ _ _ _ _ _ _ _ _ _ _ _ _ _ _ _ N.h ].. . . . . . . . . . . . . . . . . . . . ",
". . . . . . . . . . . . . . . . . . . . w.3 A.O._ _ _ _ _ _ _ _ _ _ _ _ _ _ _ _ _ _ _ _ _ _ _ _ x.5.:.@.. . . . . . . . . . . . . . . . . . . ",
". . . . . . . . . . . . . . . . . . . . k.s P.B _ _ _ _ _ _ _ _ _ _ _ _ _ _ _ _ _ _ _ _ _ _ _ _ Q.R.s >.. . . . . . . . . . . . . . . . . . . ",
". . . . . . . . . . . . . . . . . . . . { s p.S.a a a a a a a a a a a a a a a a a a a a a a a a T.c s o . . . . . . . . . . . . . . . . . . . ",
". . . . . . . . . . . . . . . . . . . . J.s s U.x # # # # # # # # # # # # # # # # # # # # # # ; - s s < . . . . . . . . . . . . . . . . . . . ",
". . . . . . . . . . . . . . . . . . . . d s s s s s s s s s s s s s s s s s s s s s s s s s s s s s s $.. . . . . . . . . . . . . . . . . . . ",
". . . . . . . . . . . . . . . . . . . . r = = = = = = = = = = = = = = = = = = = = = = = = = = = = = = V.. . . . . . . . . . . . . . . . . . . ",
". . . . . . . . . . . . . . . . . . . . . . . . . . . . . . . . . . . . . . . . . . . . . . . . . . . . . . . . . . . . . . . . . . . . . . . ",
". . . . . . . . . . . . . . . . . . . . . . . . . . . . . . . . . . . . . . . . . . . . . . . . . . . . . . . . . . . . . . . . . . . . . . . ",
". . . . . . . . . . . . . . . . . . . . . . . . . . . . . . . . . . . . . . . . . . . . . . . . . . . . . . . . . . . . . . . . . . . . . . . ",
". . . . . . . . . . . . . . . . . . . . . . . . . . . . . . . . . . . . . . . . . . . . . . . . . . . . . . . . . . . . . . . . . . . . . . . ",
". . . . . . . . . . . . . . . . . . . . . . . . . . . . . . . . . . . . . . . . . . . . . . . . . . . . . . . . . . . . . . . . . . . . . . . ",
". . . . . . . . . . . . . . . . . . . . . . . . . . . . . . . . . . . . . . . . . . . . . . . . . . . . . . . . . . . . . . . . . . . . . . . ",
". . . . . . . . . . . . . . . . . . . . . . . . . . . . . . . . . . . . . . . . . . . . . . . . . . . . . . . . . . . . . . . . . . . . . . . ",
". . . . . . . . . . . . . . . . . . . . . . . . . . . . . . . . . . . . . . . . . . . . . . . . . . . . . . . . . . . . . . . . . . . . . . . ",
". . . . . . . . . . . . . . . . . . . . . . . . . . . . . . . . . . . . . . . . . . . . . . . . . . . . . . . . . . . . . . . . . . . . . . . "};
