/* XPM */
static char * nbwq_xpm[] = {
"71 71 252 2",
"  	c None",
". 	c #808080",
"+ 	c #7D7D7D",
"@ 	c #7E7E7E",
"# 	c #7C7C7C",
"$ 	c #484848",
"% 	c #2D2D2D",
"& 	c #2F2F2F",
"* 	c #4D4D4D",
"= 	c #7B7B7B",
"- 	c #3B3B3B",
"; 	c #4E4E4E",
"> 	c #979797",
", 	c #949494",
"' 	c #464646",
") 	c #393939",
"! 	c #818181",
"~ 	c #666666",
"{ 	c #313131",
"] 	c #D2D2D2",
"^ 	c #FFFFFF",
"/ 	c #C7C7C7",
"( 	c #2C2C2C",
"_ 	c #696969",
": 	c #565656",
"< 	c #494949",
"[ 	c #FAFAFA",
"} 	c #F5F5F5",
"| 	c #414141",
"1 	c #5D5D5D",
"2 	c #5F5F5F",
"3 	c #343434",
"4 	c #D7D7D7",
"5 	c #2E2E2E",
"6 	c #676767",
"7 	c #3A3A3A",
"8 	c #585858",
"9 	c #ADADAD",
"0 	c #A9A9A9",
"a 	c #555555",
"b 	c #3C3C3C",
"c 	c #7F7F7F",
"d 	c #828282",
"e 	c #7A7A7A",
"f 	c #090909",
"g 	c #0E0E0E",
"h 	c #434343",
"i 	c #4F4F4F",
"j 	c #292929",
"k 	c #474747",
"l 	c #797979",
"m 	c #858585",
"n 	c #2B2B2B",
"o 	c #303030",
"p 	c #787878",
"q 	c #454545",
"r 	c #606060",
"s 	c #272727",
"t 	c #8B8B8B",
"u 	c #9C9C9C",
"v 	c #3E3E3E",
"w 	c #444444",
"x 	c #373737",
"y 	c #A1A1A1",
"z 	c #888888",
"A 	c #282828",
"B 	c #252525",
"C 	c #2A2A2A",
"D 	c #262626",
"E 	c #AAAAAA",
"F 	c #FEFEFE",
"G 	c #5C5C5C",
"H 	c #4C4C4C",
"I 	c #5A5A5A",
"J 	c #FBFBFB",
"K 	c #8A8A8A",
"L 	c #777777",
"M 	c #171717",
"N 	c #1A1A1A",
"O 	c #969696",
"P 	c #F6F6F6",
"Q 	c #515151",
"R 	c #646464",
"S 	c #1B1B1B",
"T 	c #505050",
"U 	c #686868",
"V 	c #0B0B0B",
"W 	c #6C6C6C",
"X 	c #212121",
"Y 	c #232323",
"Z 	c #6D6D6D",
"` 	c #000000",
" .	c #535353",
"..	c #575757",
"+.	c #8D8D8D",
"@.	c #595959",
"#.	c #424242",
"$.	c #0C0C0C",
"%.	c #5E5E5E",
"&.	c #6B6B6B",
"*.	c #0A0A0A",
"=.	c #4B4B4B",
"-.	c #878787",
";.	c #0F0F0F",
">.	c #707070",
",.	c #4A4A4A",
"'.	c #CBCBCB",
").	c #D4D4D4",
"!.	c #737373",
"~.	c #B2B2B2",
"{.	c #A7A7A7",
"].	c #1C1C1C",
"^.	c #202020",
"/.	c #101010",
"(.	c #727272",
"_.	c #DCDCDC",
":.	c #C4C4C4",
"<.	c #999999",
"[.	c #060606",
"}.	c #D6D6D6",
"|.	c #CECECE",
"1.	c #1D1D1D",
"2.	c #545454",
"3.	c #020202",
"4.	c #A8A8A8",
"5.	c #404040",
"6.	c #D5D5D5",
"7.	c #E6E6E6",
"8.	c #1E1E1E",
"9.	c #383838",
"0.	c #333333",
"a.	c #EFEFEF",
"b.	c #E9E9E9",
"c.	c #717171",
"d.	c #EBEBEB",
"e.	c #D1D1D1",
"f.	c #181818",
"g.	c #636363",
"h.	c #616161",
"i.	c #FCFCFC",
"j.	c #3F3F3F",
"k.	c #191919",
"l.	c #242424",
"m.	c #848484",
"n.	c #222222",
"o.	c #8C8C8C",
"p.	c #C9C9C9",
"q.	c #838383",
"r.	c #323232",
"s.	c #3D3D3D",
"t.	c #040404",
"u.	c #525252",
"v.	c #9B9B9B",
"w.	c #B7B7B7",
"x.	c #ABABAB",
"y.	c #767676",
"z.	c #A5A5A5",
"A.	c #010101",
"B.	c #E5E5E5",
"C.	c #DADADA",
"D.	c #1F1F1F",
"E.	c #141414",
"F.	c #050505",
"G.	c #161616",
"H.	c #868686",
"I.	c #F1F1F1",
"J.	c #ECECEC",
"K.	c #909090",
"L.	c #D3D3D3",
"M.	c #363636",
"N.	c #FDFDFD",
"O.	c #DDDDDD",
"P.	c #919191",
"Q.	c #A3A3A3",
"R.	c #6E6E6E",
"S.	c #A2A2A2",
"T.	c #BFBFBF",
"U.	c #BEBEBE",
"V.	c #BCBCBC",
"W.	c #B9B9B9",
"X.	c #B1B1B1",
"Y.	c #757575",
"Z.	c #BBBBBB",
"`.	c #E4E4E4",
" +	c #8E8E8E",
".+	c #121212",
"++	c #9E9E9E",
"@+	c #CCCCCC",
"#+	c #898989",
"$+	c #5B5B5B",
"%+	c #9D9D9D",
"&+	c #353535",
"*+	c #151515",
"=+	c #111111",
"-+	c #030303",
";+	c #F8F8F8",
">+	c #929292",
",+	c #D0D0D0",
"'+	c #9F9F9F",
")+	c #6F6F6F",
"!+	c #D8D8D8",
"~+	c #E2E2E2",
"{+	c #AFAFAF",
"]+	c #C5C5C5",
"^+	c #C6C6C6",
"/+	c #C0C0C0",
"(+	c #8F8F8F",
"_+	c #B6B6B6",
":+	c #DEDEDE",
"<+	c #070707",
"[+	c #DFDFDF",
"}+	c #C1C1C1",
"|+	c #C8C8C8",
"1+	c #E1E1E1",
"2+	c #F9F9F9",
"3+	c #F7F7F7",
"4+	c #F0F0F0",
"5+	c #EDEDED",
"6+	c #F2F2F2",
"7+	c #E8E8E8",
"8+	c #F3F3F3",
"9+	c #F4F4F4",
"0+	c #656565",
"a+	c #A4A4A4",
"b+	c #B8B8B8",
"c+	c #CACACA",
"d+	c #DBDBDB",
"e+	c #EAEAEA",
"f+	c #080808",
"g+	c #626262",
"h+	c #AEAEAE",
"i+	c #D9D9D9",
"j+	c #9A9A9A",
"k+	c #EEEEEE",
"l+	c #ACACAC",
"m+	c #CDCDCD",
"n+	c #A0A0A0",
"o+	c #B5B5B5",
"p+	c #131313",
"q+	c #6A6A6A",
"r+	c #C3C3C3",
"s+	c #C2C2C2",
"t+	c #B0B0B0",
"u+	c #0D0D0D",
"v+	c #E3E3E3",
"w+	c #959595",
"x+	c #E7E7E7",
"y+	c #939393",
"z+	c #CFCFCF",
"A+	c #E0E0E0",
"B+	c #B3B3B3",
"C+	c #747474",
". . . . . . . . . . . . . . . . . . . . . . . . . . . . . . . . . . . . . . . . . . . . . . . . . . . . . . . . . . . . . . . . . . . . . . . ",
". . . . . . . . . . . . . . . . . . . . . . . . . . . . . . . . . . . . . . . . . . . . . . . . . . . . . . . . . . . . . . . . . . . . . . . ",
". . . . . . . . . . . . . . . . . . . . . . . . . . . . . . . . . . . . . . . . . . . . . . . . . . . . . . . . . . . . . . . . . . . . . . . ",
". . . . . . . . . . . . . . . . . . . . . . . . . . . . . . . . . . . . . . . . . . . . . . . . . . . . . . . . . . . . . . . . . . . . . . . ",
". . . . . . . . . . . . . . . . . . . . . . . . . . . . . . . . . . . . . . . . . . . . . . . . . . . . . . . . . . . . . . . . . . . . . . . ",
". . . . . . . . . . . . . . . . . . . . . . . . . . . . . . . . . . . . . . . . . . . . . . . . . . . . . . . . . . . . . . . . . . . . . . . ",
". . . . . . . . . . . . . . . . . . . . . . . . . . . . . . . . . . . . . . . . . . . . . . . . . . . . . . . . . . . . . . . . . . . . . . . ",
". . . . . . . . . . . . . . . . . . . . . . . . . . . . . . . . . . . + @ . . . . . . . . . . . . . . . . . . . . . . . . . . . . . . . . . . ",
". . . . . . . . . . . . . . . . . . . . . . . . . . . . . . . . . # $ % & * = . . . . . . . . . . . . . . . . . . . . . . . . . . . . . . . . ",
". . . . . . . . . . . . . . . . . . . . . . . . . . . . . . . . @ - ; > , ' ) ! . . . . . . . . . . . . . . . . . . . . . . . . . . . . . . . ",
". . . . . . . . . . . . . . . . . . . . . . . . . . . . . . . . ~ { ] ^ ^ / ( _ . . . . . . . . . . . . . . . . . . . . . . . . . . . . . . . ",
". . . . . . . . . . . . . . . . . . . . . . . . . . . . . . . . : < [ ^ ^ } | 1 . . . . . . . . . . . . . . . . . . . . . . . . . . . . . . . ",
". . . . . . . . . . . . . . . . . . . . . . . . . . . . . . . . 2 3 4 ^ ^ ] 5 6 . . . . . . . . . . . . . . . . . . . . . . . . . . . . . . . ",
". . . . . . . . . . . . . . . . . . . . . . . . . . . . . . . . @ 7 8 9 0 a b c . . . . . . . . . . . . . . . . . . . . . . . . . . . . . . . ",
". . . . . . . . . . . . . . . . . . . . = + d . . . . . . . . . . e | f g h @ . . . . . . . . . . d + + . . . . . . . . . . . . . . . . . . . ",
". . . . . . . . . . . . . . . . . . . i % j k l . . . . . . . . . . m n o ! . . . . . . . . . . p q j 5 8 . . . . . . . . . . . . . . . . . . ",
". . . . . . . . . . . . . . . . . . r s t u v w d . . . . . . . . . ! o x . . . . . . . . . . ! | < y z % ~ . . . . . . . . . . . . . . . . . ",
". . . . . . . . . . . . . . . . . ! w ~ ^ ^ u A e . . . . . . . . . @ B C @ . . . . . . . . . l D E ^ F G H ! . . . . . . . . . . . . . . . . ",
". . . . . . . . . . . . . . . . . ! k I J ^ K % + . . . . . . . . . L M N l . . . . . . . . . = j O ^ P Q i ! . . . . . . . . . . . . . . . . ",
". . . . . . . . . . . . . . . . . . R S I ~ S T . . . . . . . . . . U f V W . . . . . . . . . ! i X 6 8 Y Z . . . . . . . . . . . . . . . . . ",
". . . . . . . . . . . . . . . . . . . r D ` | m . . . . . . . . . .  .S N ... . . . . . . . . . +.h ` % _ . . . . . . . . . . . . . . . . . . ",
". . . . . c W Z e . . . . . . . . . . . @.f r . . . . . . . . . . ! - : H #.d . . . . . . . . . . @.$.%.. . . . . . . . . . . l &.Z . . . . . ",
". . . . l x A ( % W . . . . . . . . . . W *.=.. . . . . . . . . . @ B -.= n @ . . . . . . . . . ! w ;.>.. . . . . . . . . . W % % D b @ . . . ",
". . . ! =.,.'.).1 b . . . . . . . . . . W V D # . . . . . . . . . !.N ~.{.].p . . . . . . . . . p ^./.(.. . . . . . . . . . - 6 _.:.v T . . . ",
". . . ! ) e ^ ^ <.n . . . . . . . . . . W V [.8 . . . . . . . . . R X }.|.1._ . . . . . . . . . 2.3./.(.. . . . . . . . . l s 4.^ ^ &.5.. . . ",
". . . ! ,.; 6.7._ x . . . . . . . . . . W 8.9.0.! . . . . . . . . i 9.a.b.& a . . . . . . . . c & - Y (.. . . . . . . . . . & c.d.e.q T . . . ",
". . . . (.% % % ` k . . . . . . . . . . W Y z f.g.. . . . . . . ! 9.h.i.[ a j.! . . . . . . . r k.+.l.(.. . . . . . . . . . 5.` & ( x e . . . ",
". . . . . l 2 v ` 7 m.. . . . . . . . . W Y '.* v d . . . . . . # n.o.^ ^ . D @ . . . . . . ! ) ..p.l.(.. . . . . . . . . q.r.` s.h.c . . . . ",
". . . . . . . m o t.u.. . . . . . . . . W Y 4 v.N >.. . . . . . (.S w.^ ^ x.N y.. . . . . . Z k.z.e.l.(.. . . . . . . . . H ` 3 q.. . . . . . ",
". . . . . . . . u.A.N r . . . . . . . . W Y 4 B.9.< ! . . . . . h.Y C.^ ^ ] D.6 . . . . . d w #.d.e.l.(.. . . . . . . . 1 E.F.8 . . . . . . . ",
". . . . . . . . y.1.G.C c.. . . . . . . W Y 4 ^ H.n.e . . . . . =.b I.^ ^ J.0.T . . . . . y.1.K.^ e.l.(.. . . . . . . >.D G.^.e . . . . . . . ",
". . . . . . . . d #.| * s.q.. . . . . . W Y 4 ^ L.D a . . . . ! M.~ N.^ ^ J I - ! . . . . Q % O.^ e.l.(.. . . . . . @ M.u.s.k ! . . . . . . . ",
". . . . . . . . . ~ B t r.=.. . . . . . W Y 4 J F >.& @ . . . = 8.P.^ Q.4.^ H.l.+ . . . = C e ^ F e.l.(.. . . . . ! k - z Y R.. . . . . . . . ",
". . . . . . . . . . r.# S.D %.. . . . . W Y 4 ~.T.U.].2 . . . >.N V.W.n 3 U.X.N Y.. . . I X p.T.Z.e.l.(.. . . . . @.C x.(.3 ! . . . . . . . . ",
". . . . . . . . . . 2.M.`.! l.R.. . . . W Y |.* - y i 7 d . . 2 l. +b E..+j.+.8.R . . d 3 ..++x ..@+l.(.. . . . _ X #+_.& $+. . . . . . . . . ",
". . . . . . . . . . p Y %+a.r &++ . . . W Y # $.V $.*+=+g.. ! w F.f.8.++<.G.].-+=.. . %.$.f.V $.=+. l.(.. . . e { _ ;+>+B = . . . . . . . . . ",
". . . . . . . . . . ! h u.P ,+5.q ! . . &.$.N ) d % ` ` A %.1 ^.` ( '+^ ^ v.j ` Y G %.s ` ` 0.! o D./.)+. . H.| $ !+I.< H . . . . . . . . . . ",
". . . . . . . . . . . _ 1.K ~+{+( I . . 2.-+t.> ^ ]+&.B g =+=+Y W ^+^ ^ ^ ^ /+6 ^.=+/.g A c.'.^ (+` F.I . ! i ( _+:+q.].)+. . . . . . . . . . ",
". . . . . . . . . . . . 0.<+w c.3 M w Q Y A.+ F ^ ^ i.[+/ V.}+_.i.^ ^ ^ ^ ^ ^ J C./+V.|+1+N.^ ^ 2+!.` B u.| ;.M.R.h F.7 c . . . . . . . . . . ",
". . . . . . . . . . . . @.A , @ | D.G.].| , N.^ ^ ^ ^ ^ ^ ^ ^ ^ ^ ^ ^ ^ ^ ^ ^ ^ ^ ^ ^ ^ ^ ^ ^ ^ ^ 3+K.s.S G.^.w ! +.Y r . . . . . . . . . . . ",
". . . . . . . . . . . . l X d ^ 4+:+).4 5+^ ^ ^ ^ ^ ^ ^ ^ ^ ^ ^ ^ ^ ^ ^ ^ ^ ^ ^ ^ ^ ^ ^ ^ ^ ^ ^ ^ ^ ^ J.4 6.[+6+F y.s + . . . . . . . . . . . ",
". . . . . . . . . . . . ! ' M.7+^ ^ ^ ^ ^ ^ ^ ^ ^ ^ ^ ^ F N.J [ 2+} 8+8+8+8+P 2+[ J N.F ^ ^ ^ ^ ^ ^ ^ ^ ^ ^ ^ ^ 1+% * . . . . . . . . . . . . ",
". . . . . . . . . . . . . _ M w.^ ^ ^ i.9+b.C.p.w.Q.K.c c.R .. .* w v s.s.j.q ;  .8 0+c.. P.a+b+c+d+e+} i.^ ^ ^ E *+)+. . . . . . . . . . . . ",
". . . . . . . . . . . . . c A L ]+z.d r h % S g <+t.F.V ;.M N n.D s s s s s D D n.k.M ;.V F.t.f+;.].5 w g+m.{.^+R.C @ . . . . . . . . . . . . ",
". . . . . . . . . . . . . d | f g -+t.;.D.0.H 6 d v.h+T.c+}.i+1+B.7.7.7.7.7.7.B.1+i+}.p.U.9 j+! ~ =.r.8.g -+-+;.<+k ! . . . . . . . . . . . . ",
". . . . . . . . . . . . . . I t.q m.4./ O.k+2+F ^ ^ ^ ^ ^ ^ ^ ^ ^ ^ ^ ^ ^ ^ ^ ^ ^ ^ ^ ^ ^ ^ ^ ^ F ;+5+_.]+{.d 5.F.h.. . . . . . . . . . . . . ",
". . . . . . . . . . . . . . R.^.U.^ ^ ^ ^ ^ ^ ^ ^ ^ ^ ^ ^ ^ ^ ^ ^ ^ ^ ^ ^ ^ ^ ^ ^ ^ ^ ^ ^ ^ ^ ^ ^ ^ ^ ^ ^ ^ ^ _+^.c.. . . . . . . . . . . . . ",
". . . . . . . . . . . . . . l 0.!+^ ^ ^ ^ ^ ^ J 8+7+d+'.V.l+++>+#+! = l l # ! #+>+'+l+V.m+_.b.9+J ^ ^ ^ ^ ^ ^ ] &+= . . . . . . . . . . . . . ",
". . . . . . . . . . . . . . # 5 S.2+J.!+U.++# $+| ( ]./.*.t.A.` ` <+Y v s.n.[.` ` 3.t.V =+].% #.1 @ n+T.C.5+[ , { @ . . . . . . . . . . . . . ",
". . . . . . . . . . . . . . d r.j u.M.8.V 3.` ` ` ` ` ` ` ` ` ].U l+[+9+8+O.4.R f.` ` ` ` ` ` ` ` ` -+$.D.x Q ^.7 ! . . . . . . . . . . . . . ",
". . . . . . . . . . . . . . . &+f.(+E y , m >.a r.3.` ` ` ` s b+N.^ ^ ^ ^ ^ ^ i.o+l.` ` ` ` <+&+..(.H., S.E K p+h ! . . . . . . . . . . . . . ",
". . . . . . . . . . . . . . . x 8.O.^ ^ ^ ^ ^ [ b.#.` ` ` ` M P.`.F ^ ^ ^ ^ N.1+o.E.` ` ` ` * J.[ ^ ^ ^ ^ ^ }.M w ! . . . . . . . . . . . . . ",
". . . . . . . . . . . . . . ! 3 X 1+^ ^ ^ ^ ^ @+R.A.` ` ` ` ` -+& q+n+r+s+%+U % A.` ` ` ` ` [.(.] ^ ^ ^ ^ ^ i+N 7 . . . . . . . . . . . . . . ",
". . . . . . . . . . . . . . @ s C 7+^ ^ J c+e B ` ` ` ` ` 3.F.f+V $./.N N /.$.V f+t.3.` ` ` ` ` C @ |.i.^ ^ ~+Y 5 c . . . . . . . . . . . . . ",
". . . . . . . . . . . . . . L f.5.6+b.l+R S 3./.D | 1 p +.n+9 b+}+:.:.]+]+:.:.}+b+9 '+o.y.$+j.B ;.A.D._ t+d.k+M.8.= . . . . . . . . . . . . . ",
". . . . . . . . . . . . . . Z $.M.y.&+u+n g.<./ v+8+J ^ ^ J 2+} 6+4+a.a.a.a.I.6+} 2+i.^ ^ J 8+~+]+w+r A g 7 y.& u+R.. . . . . . . . . . . . . ",
". . . . . . . . . . . . . . a 3.` u+: S.~+i.^ [ x+@+h+(+Y.%.i h - 9.M.&+&+M.9.b w i 2 y.K.{+|.7+[ ^ J [+%+u.V ` t.%.. . . . . . . . . . . . . ",
". . . . . . . . . . . . . ! | `  .{+P ^ P m+y+$+( G.*+X 0.w  .1 6 W R.R.R.R.&.6 1 u.h r.^.*+M & 1 O z+3+^ } 0 ; ` q ! . . . . . . . . . . . . ",
". . . . . . . . . . . . . c C 0._+8+[+O T f.k.w y.a+p.A+k+9+[ i.F F F F F F F F i.[ 9+5+[+/ y !.| f.k.2.v.~+I.{+5 r.! . . . . . . . . . . . . ",
". . . . . . . . . . . . . p r.<+p+b % 3.x K.e.8+^ ^ ^ ^ ^ ^ ^ ^ ^ ^ ^ ^ ^ ^ ^ ^ ^ ^ ^ ^ ^ ^ ^ ^ 6+z+t r.-+o - =+[.9.e . . . . . . . . . . . . ",
". . . . . . . . . . . . . . e 2 v ].[.` D.2.m B+i+a.J ^ ^ ^ ^ ^ ^ ^ ^ ^ ^ ^ ^ ^ ^ ^ ^ ^ ^ [ k+4 X.d Q ].` <+8.j.2 # . . . . . . . . . . . . . ",
". . . . . . . . . . . . . . . . ! l h.q A .+F.f+].M.: p <.B+]+L.O.B.x+x+x+x+B._.L.]+~.> L 2.&+S <+F.*+C < ~ e ! . . . . . . . . . . . . . . . ",
". . . . . . . . . . . . . . . . . . . d @ (.r ,.M.X p+*.[.<+g G.1.D A A A A D 1.G.u+[.F.*.E.n.M.H r !.+ ! . . . . . . . . . . . . . . . . . . ",
". . . . . . . . . . . . . . . . . . . . . . . . ! + C+q+2 u.< b 3 ( s s s s % r.s.,.u.2 q+C+# ! . . . . . . . . . . . . . . . . . . . . . . . ",
". . . . . . . . . . . . . . . . . . . . . . . . . . . . . . d ! d @ + @ @ + c ! ! ! . . . . . . . . . . . . . . . . . . . . . . . . . . . . . ",
". . . . . . . . . . . . . . . . . . . . . . . . . . . . . . . . . . . . . . . . . . . . . . . . . . . . . . . . . . . . . . . . . . . . . . . ",
". . . . . . . . . . . . . . . . . . . . . . . . . . . . . . . . . . . . . . . . . . . . . . . . . . . . . . . . . . . . . . . . . . . . . . . ",
". . . . . . . . . . . . . . . . . . . . . . . . . . . . . . . . . . . . . . . . . . . . . . . . . . . . . . . . . . . . . . . . . . . . . . . ",
". . . . . . . . . . . . . . . . . . . . . . . . . . . . . . . . . . . . . . . . . . . . . . . . . . . . . . . . . . . . . . . . . . . . . . . ",
". . . . . . . . . . . . . . . . . . . . . . . . . . . . . . . . . . . . . . . . . . . . . . . . . . . . . . . . . . . . . . . . . . . . . . . ",
". . . . . . . . . . . . . . . . . . . . . . . . . . . . . . . . . . . . . . . . . . . . . . . . . . . . . . . . . . . . . . . . . . . . . . . "};
