/* XPM */
static char * nbwr_xpm[] = {
"71 71 229 2",
"  	c None",
". 	c #808080",
"+ 	c #818181",
"@ 	c #7F7F7F",
"# 	c #7E7E7E",
"$ 	c #828282",
"% 	c #6F6F6F",
"& 	c #6A6A6A",
"* 	c #636363",
"= 	c #646464",
"- 	c #626262",
"; 	c #6B6B6B",
"> 	c #717171",
", 	c #838383",
"' 	c #7D7D7D",
") 	c #7B7B7B",
"! 	c #595959",
"~ 	c #4A4A4A",
"{ 	c #3F3F3F",
"] 	c #363636",
"^ 	c #2E2E2E",
"/ 	c #353535",
"( 	c #5E5E5E",
"_ 	c #101010",
": 	c #090909",
"< 	c #060606",
"[ 	c #0A0A0A",
"} 	c #161616",
"| 	c #676767",
"1 	c #6C6C6C",
"2 	c #2F2F2F",
"3 	c #282828",
"4 	c #303030",
"5 	c #3C3C3C",
"6 	c #4B4B4B",
"7 	c #585858",
"8 	c #7C7C7C",
"9 	c #515151",
"0 	c #050505",
"a 	c #0C0C0C",
"b 	c #151515",
"c 	c #1B1B1B",
"d 	c #171717",
"e 	c #656565",
"f 	c #5C5C5C",
"g 	c #020202",
"h 	c #424242",
"i 	c #878787",
"j 	c #8D8D8D",
"k 	c #8C8C8C",
"l 	c #7A7A7A",
"m 	c #070707",
"n 	c #5D5D5D",
"o 	c #040404",
"p 	c #191919",
"q 	c #555555",
"r 	c #4C4C4C",
"s 	c #C3C3C3",
"t 	c #D3D3D3",
"u 	c #DADADA",
"v 	c #939393",
"w 	c #575757",
"x 	c #030303",
"y 	c #919191",
"z 	c #FFFFFF",
"A 	c #858585",
"B 	c #4F4F4F",
"C 	c #9C9C9C",
"D 	c #D2D2D2",
"E 	c #C2C2C2",
"F 	c #787878",
"G 	c #535353",
"H 	c #BDBDBD",
"I 	c #C4C4C4",
"J 	c #0D0D0D",
"K 	c #686868",
"L 	c #444444",
"M 	c #131313",
"N 	c #CECECE",
"O 	c #B1B1B1",
"P 	c #DBDBDB",
"Q 	c #1C1C1C",
"R 	c #212121",
"S 	c #000000",
"T 	c #333333",
"U 	c #434343",
"V 	c #1E1E1E",
"W 	c #232323",
"X 	c #E1E1E1",
"Y 	c #EAEAEA",
"Z 	c #414141",
"` 	c #121212",
" .	c #979797",
"..	c #F0F0F0",
"+.	c #ECECEC",
"@.	c #E8E8E8",
"#.	c #D5D5D5",
"$.	c #FEFEFE",
"%.	c #FBFBFB",
"&.	c #FAFAFA",
"*.	c #F5F5F5",
"=.	c #F3F3F3",
"-.	c #E9E9E9",
";.	c #E7E7E7",
">.	c #E4E4E4",
",.	c #DFDFDF",
"'.	c #DCDCDC",
").	c #E0E0E0",
"!.	c #E5E5E5",
"~.	c #F6F6F6",
"{.	c #A3A3A3",
"].	c #757575",
"^.	c #5A5A5A",
"/.	c #3B3B3B",
"(.	c #2B2B2B",
"_.	c #252525",
":.	c #202020",
"<.	c #1A1A1A",
"[.	c #1D1D1D",
"}.	c #262626",
"|.	c #2C2C2C",
"1.	c #373737",
"2.	c #454545",
"3.	c #5B5B5B",
"4.	c #696969",
"5.	c #767676",
"6.	c #868686",
"7.	c #949494",
"8.	c #A4A4A4",
"9.	c #747474",
"0.	c #545454",
"a.	c #181818",
"b.	c #272727",
"c.	c #3D3D3D",
"d.	c #505050",
"e.	c #565656",
"f.	c #222222",
"g.	c #727272",
"h.	c #383838",
"i.	c #ADADAD",
"j.	c #BBBBBB",
"k.	c #C5C5C5",
"l.	c #D8D8D8",
"m.	c #E2E2E2",
"n.	c #E6E6E6",
"o.	c #F8F8F8",
"p.	c #F7F7F7",
"q.	c #EBEBEB",
"r.	c #D7D7D7",
"s.	c #D1D1D1",
"t.	c #BABABA",
"u.	c #ACACAC",
"v.	c #343434",
"w.	c #9D9D9D",
"x.	c #959595",
"y.	c #B3B3B3",
"z.	c #FCFCFC",
"A.	c #F4F4F4",
"B.	c #F9F9F9",
"C.	c #AAAAAA",
"D.	c #1F1F1F",
"E.	c #494949",
"F.	c #9E9E9E",
"G.	c #8F8F8F",
"H.	c #525252",
"I.	c #4D4D4D",
"J.	c #404040",
"K.	c #3E3E3E",
"L.	c #464646",
"M.	c #5F5F5F",
"N.	c #ABABAB",
"O.	c #393939",
"P.	c #4E4E4E",
"Q.	c #0B0B0B",
"R.	c #929292",
"S.	c #A0A0A0",
"T.	c #B6B6B6",
"U.	c #C1C1C1",
"V.	c #C7C7C7",
"W.	c #CFCFCF",
"X.	c #C6C6C6",
"Y.	c #C0C0C0",
"Z.	c #B5B5B5",
"`.	c #9F9F9F",
" +	c #616161",
".+	c #F1F1F1",
"++	c #DDDDDD",
"@+	c #A6A6A6",
"#+	c #BFBFBF",
"$+	c #B9B9B9",
"%+	c #B7B7B7",
"&+	c #DEDEDE",
"*+	c #F2F2F2",
"=+	c #474747",
"-+	c #2D2D2D",
";+	c #080808",
">+	c #3A3A3A",
",+	c #484848",
"'+	c #0F0F0F",
")+	c #242424",
"!+	c #606060",
"~+	c #6D6D6D",
"{+	c #737373",
"]+	c #A2A2A2",
"^+	c #8A8A8A",
"/+	c #777777",
"(+	c #9A9A9A",
"_+	c #999999",
":+	c #888888",
"<+	c #AEAEAE",
"[+	c #AFAFAF",
"}+	c #313131",
"|+	c #CCCCCC",
"1+	c #111111",
"2+	c #141414",
"3+	c #010101",
"4+	c #D4D4D4",
"5+	c #6E6E6E",
"6+	c #666666",
"7+	c #9B9B9B",
"8+	c #797979",
"9+	c #A9A9A9",
"0+	c #BCBCBC",
"a+	c #B2B2B2",
"b+	c #323232",
"c+	c #898989",
"d+	c #FDFDFD",
"e+	c #CACACA",
"f+	c #292929",
". . . . . . . . . . . . . . . . . . . . . . . . . . . . . . . . . . . . . . . . . . . . . . . . . . . . . . . . . . . . . . . . . . . . . . . ",
". . . . . . . . . . . . . . . . . . . . . . . . . . . . . . . . . . . . . . . . . . . . . . . . . . . . . . . . . . . . . . . . . . . . . . . ",
". . . . . . . . . . . . . . . . . . . . . . . . . . . . . . . . . . . . . . . . . . . . . . . . . . . . . . . . . . . . . . . . . . . . . . . ",
". . . . . . . . . . . . . . . . . . . . . . . . . . . . . . . . . . . . . . . . . . . . . . . . . . . . . . . . . . . . . . . . . . . . . . . ",
". . . . . . . . . . . . . . . . . . . . + + @ # . . . . . . $ % & & * * = - ; & > , . . . . . + # ' + + . . . . . . . . . . . . . . . . . . . ",
". . . . . . . . . . . . . . . . ) = ! ~ { ] ^ / > . . . . . ( _ : : < < < < : [ } | . . . . . 1 2 3 4 5 6 7 * 8 . . . . . . . . . . . . . . . ",
". . . . . . . . . . . . . . . . 9 0 0 a b c d < e . . . . . f g h ) i j k i l 5 m | . . . . . n o p c b a 0 < q . . . . . . . . . . . . . . . ",
". . . . . . . . . . . . . . . . r : . s t u v 0 w . . . . . f x y z z z z z z A m | . . . . . B m C u D E F 0 G . . . . . . . . . . . . . . . ",
". . . . . . . . . . . . . . . . r : H z z z I J ~ $ + + + + n x y z z z z z z A m K + + + + $ L M N z z z O < G . . . . . . . . . . . . . . . ",
". . . . . . . . . . . . . . . . r : H z z z P Q R h h h h h ^ S y z z z z z z A x T h h h h U V W X z z z O < G . . . . . . . . . . . . . . . ",
". . . . . . . . . . . . . . . . r : H z z z Y Z ` ` ` ` ` ` ` `  .z z z z z z j ` ` ` ` ` ` ` ` ~ ..z z z O < G . . . . . . . . . . . . . . . ",
". . . . . . . . . . . . . . . . r : H z z z z t N N N N N N N N +.z z z z z z @.N N N N N N N N #.z z z z O < G . . . . . . . . . . . . . . . ",
". . . . . . . . . . . . . . . . r : H z z z z z z z z z z z z z z z z z z z z z z z z z z z z z z z z z z O < G . . . . . . . . . . . . . . . ",
". . . . . . . . . . . . . . . . r : H z z z z $.%.&.*.=...-.;.>.,.'.u u u u '.).!.;.-...=.~.&.%.$.z z z z O < G . . . . . . . . . . . . . . . ",
". . . . . . . . . . . . . . . . r : 8 {.v A ].K ^.9 L /.] (.3 _.:.Q c <.<.c [.:.}.3 |.1.5 2.9 3.4.5.6.7.8.9.< G . . . . . . . . . . . . . . . ",
". . . . . . . . . . . . . . . . 0.S o 0 0 : a b a.W b.4 1.c.L 6 d.0.e.w w e.0.d.~ U 5 1.2 b.f.a.b a : 0 0 0 S ! . . . . . . . . . . . . . . . ",
". . . . . . . . . . . . . . . . g.3 S h.i.j.k.D l.m.n.+...=.*.o.&.%.%.%.%.%.%.&.p.*.=...q.n.X r.s.I t.u.v.S |.l . . . . . . . . . . . . . . . ",
". . . . . . . . . . . . . . . . . | [._ w.z z z z z z z z z z z z z z z z z z z z z z z z z z z z z z x.m W 4.. . . . . . . . . . . . . . . . ",
". . . . . . . . . . . . . . . . . . 7 ` _.y.z z z z z z $.z.&.&.o.~.A.=.=.A.~.B.&.&.z.$.z z z z z z C.D.a.! . . . . . . . . . . . . . . . . . ",
". . . . . . . . . . . . . . . . . . . E.S { F.C.w.G.$ 9.& ( q H.I.2.J.c.K.J.L.I.H.q M.& ].$ G.F.N.F.O.S P.. . . . . . . . . . . . . . . . . . ",
". . . . . . . . . . . . . . . . . . . 6.O.S : o o o m Q.J } x S }.b.b.b.b.b.b._.S o b J Q.m o o o : S U i . . . . . . . . . . . . . . . . . . ",
". . . . . . . . . . . . . . . . . . . . ! 0 n R.S.N.T.U.V.W.6 R X.n.n.;.;.n.n.H d r N X.Y.Z.C.`.y B 0  +. . . . . . . . . . . . . . . . . . . ",
". . . . . . . . . . . . . . . . . . . . n < N.z z z z z z %.G R ).z z z z z z r.d 0.%.z z z z z z R.0 = . . . . . . . . . . . . . . . . . . . ",
". . . . . . . . . . . . . . . . . . . . n < N.z z z z z z %.G R ).z z z z z z r.d 0.%.z z z z z z R.0 = . . . . . . . . . . . . . . . . . . . ",
". . . . . . . . . . . . . . . . . . . . n < N.%.~..+Y >.++D ~ V @+#+$+%+%+$+#+`.d 6 D &+>.Y *+~.%.R.0 = . . . . . . . . . . . . . . . . . . . ",
". . . . . . . . . . . . . . . . . . . . n g =+3.=+O.-+_.V d x S Q.[ ;+m m ;+[ Q.S x d V _.-+>+,+f c.o = . . . . . . . . . . . . . . . . . . . ",
". . . . . . . . . . . . . . . . . . . . n g '+<._.)+S ^ 0.!+~+9.@ i # c f.$ i # {+1 M.G }.S }.)+p Q.o = . . . . . . . . . . . . . . . . . . . ",
". . . . . . . . . . . . . . . . . . . . n < 6.l.>.]+m ^+%.z.$.z z z q.2 /.=.z z z $.z.%./+Q.i.>.l.9.0 = . . . . . . . . . . . . . . . . . . . ",
". . . . . . . . . . . . . . . . . . . . n < N.z z T.m G.z z z z z z q.2 /.=.z z z z z z l Q.s z z R.0 = . . . . . . . . . . . . . . . . . . . ",
". . . . . . . . . . . . . . . . . . . . n < N.z z T.m G.z z z z z z q.2 /.=.z z z z z z l Q.s z z R.0 = . . . . . . . . . . . . . . . . . . . ",
". . . . . . . . . . . . . . . . . . . . n < N.z z T.m G.z z z z z z q.2 /.=.z z z z z z l Q.s z z R.0 = . . . . . . . . . . . . . . . . . . . ",
". . . . . . . . . . . . . . . . . . . . n < N.z z T.m G.z z z z z z q.2 /.=.z z z z z z l Q.s z z R.0 = . . . . . . . . . . . . . . . . . . . ",
". . . . . . . . . . . . . . . . . . . . n < (+n.&+7.m ; #+y.N.]+_+v , Q )+:+v _+]+N.y.Y.( Q.`.,.n.6.0 = . . . . . . . . . . . . . . . . . . . ",
". . . . . . . . . . . . . . . . . . . . n g )+b.D.b S ;+Q.< o g 0 0 0 0 0 0 0 0 g o < Q.0 S d D.b.[.o = . . . . . . . . . . . . . . . . . . . ",
". . . . . . . . . . . . . . . . . . . . n g (.h 9 ^.| {+. :+4 <.R.<+[+[+[+[+<+k M }+:+@ g.| ! d.Z )+o = . . . . . . . . . . . . . . . . . . . ",
". . . . . . . . . . . . . . . . . . . . n < `.A.&.%.$.z z %.G R ).z z z z z z r.d 0.%.z z $.%.&.A.^+0 = . . . . . . . . . . . . . . . . . . . ",
". . . . . . . . . . . . . . . . . . . . n < N.z z z z z z %.G R ).z z z z z z r.d 0.%.z z z z z z R.0 = . . . . . . . . . . . . . . . . . . . ",
". . . . . . . . . . . . . . . . . . . . n < N.z z z z z z %.G R ).z z z z z z r.d 0.%.z z z z z z R.0 = . . . . . . . . . . . . . . . . . . . ",
". . . . . . . . . . . . . . . . . . . . n < N.z z z z z z %.G R ).z z z z z z r.d 0.%.z z z z z z R.0 = . . . . . . . . . . . . . . . . . . . ",
". . . . . . . . . . . . . . . . . . . . n < N.$.$.%.%.B.~...G R #.A.A.A.A.A.A.|+d 0..+~.B.%.%.$.$.R.0 = . . . . . . . . . . . . . . . . . . . ",
". . . . . . . . . . . . . . . . . . . . n 0 G 9.K ! G B =+h 1+x c.{ { { { { { /.S ` h =+B G ^.4.9.=+0 = . . . . . . . . . . . . . . . . . . . ",
". . . . . . . . . . . . . . . . . . . . n g Q.J b 2+S 2+f.)+}.}.b.b.b.3+x b.b.b.}._.)+f.'+S } b J ;+o = . . . . . . . . . . . . . . . . . . . ",
". . . . . . . . . . . . . . . . . . . . n < @ V.D v m ) m.>.!.n.n.n.4+2 /.P n.n.n.!.>.m.1 Q.w.D X.5+0 = . . . . . . . . . . . . . . . . . . . ",
". . . . . . . . . . . . . . . . . . . . n < N.z z T.m G.z z z z z z q.2 /.=.z z z z z z l Q.s z z R.0 = . . . . . . . . . . . . . . . . . . . ",
". . . . . . . . . . . . . . . . . . . . n < N.z z T.m G.z z z z z z q.2 /.=.z z z z z z l Q.s z z R.0 = . . . . . . . . . . . . . . . . . . . ",
". . . . . . . . . . . . . . . . . . . . n < N.z z T.m G.z z z z z z q.2 /.=.z z z z z z l Q.s z z R.0 = . . . . . . . . . . . . . . . . . . . ",
". . . . . . . . . . . . . . . . . . . . G < 6+7+7+1 < e.7+7+7+7+7+7+j :.b.y 7+7+7+7+7+7+6 : 9.7+7+7 0 ( . . . . . . . . . . . . . . . . . . . ",
". . . . . . . . . . . . . . . . . . . 8+2 S 0 0 0 0 x 0 0 0 0 0 0 0 0 x x 0 0 0 0 0 0 0 o x 0 0 0 0 S 1.@ . . . . . . . . . . . . . . . . . . ",
". . . . . . . . . . . . . . . . . . , U S ,+F.9+9+9+9+9+9+9+9+9+9+9+9+9+9+9+9+9+9+9+9+9+9+9+9+9+9+_+Z S ,+. . . . . . . . . . . . . . . . . . ",
". . . . . . . . . . . . . . . . . . q [ |.0+z z z z z z z z z z z z z z z z z z z z z z z z z z z z a+W _ ! . . . . . . . . . . . . . . . . . ",
". . . . . . . . . . . . . . . . . K :.[ (+z z z z z z z z z z z z z z z z z z z z z z z z z z z z z z v o :.5+. . . . . . . . . . . . . . . . ",
". . . . . . . . . . . . . . . . l }+S 3.X X X X X X X X X X X X X X X X X X X X X X X X X X X X X X X ).q S / . . . . . . . . . . . . . . . . ",
". . . . . . . . . . . . . . . $ J.S S c R R R R R R R R R R R R R R R R R R R R R R R R R R R R R R R R } S S E.+ . . . . . . . . . . . . . . ",
". . . . . . . . . . . . . . . e.: 3+2.P.P.P.P.P.P.P.P.P.P.P.P.P.P.P.P.P.P.P.P.P.P.P.P.P.P.P.P.P.P.P.P.P.P.U S _ 3.. . . . . . . . . . . . . . ",
". . . . . . . . . . . . . . . 1.S L q.B.B.B.B.B.B.B.B.B.B.B.B.B.B.B.B.B.B.B.B.B.B.B.B.B.B.B.B.B.B.B.B.B.B.!.O.S h.@ . . . . . . . . . . . . . ",
". . . . . . . . . . . . . . . b+S 8+z z z z z z z z z z z z z z z z z z z z z z z z z z z z z z z z z z z z 5+S T @ . . . . . . . . . . . . . ",
". . . . . . . . . . . . . . . b+S x.z z z z z z z z z z z z z z z z z z z z z z z z z z z z z z z z z z z z c+S T @ . . . . . . . . . . . . . ",
". . . . . . . . . . . . . . . b+g (+z z z z z z z z z z z z z z z z z z z z z z z z z z z z z z z z z z z z G.S T @ . . . . . . . . . . . . . ",
". . . . . . . . . . . . . . . b+S j z z z z z z z z z z z z z z z z z z z z z z z z z z z z z z z z z z z z $ S T @ . . . . . . . . . . . . . ",
". . . . . . . . . . . . . . . b+S % $.z z z z z z z z z z z z z z z z z z z z z z z z z z z z z z z z z z d+- S T @ . . . . . . . . . . . . . ",
". . . . . . . . . . . . . . . 4 S Z e+r.r.r.r.r.r.r.r.r.r.r.r.r.r.r.r.r.r.r.r.r.r.r.r.r.r.r.r.r.r.r.r.r.r.X.h.S }+@ . . . . . . . . . . . . . ",
". . . . . . . . . . . . . . 5+p S S d d d d d d d d d d d d d d d d d d d d d d d d d d d d d d d d d d d d S S c {+. . . . . . . . . . . . . ",
". . . . . . . . . . . . . + ,+S : B G G G G G G G G G G G G G G G G G G G G G G G G G G G G G G G G G G G G r 0 S P.. . . . . . . . . . . . . ",
". . . . . . . . . . . . . ' (.S H.~.%.%.%.%.%.%.%.%.%.%.%.%.%.%.%.%.%.%.%.%.%.%.%.%.%.%.%.%.%.%.%.%.%.%.%.%.=.2.S b+. . . . . . . . . . . . . ",
". . . . . . . . . . . . . l Q S e z.z.z.z.z.z.z.z.z.z.z.z.z.z.z.z.z.z.z.z.z.z.z.z.z.z.z.z.z.z.z.z.z.z.z.z.z.B.q S b.@ . . . . . . . . . . . . ",
". . . . . . . . . . . . . ' )+S R ( ( ( ( ( ( ( ( ( ( ( ( ( ( ( ( ( ( ( ( ( ( ( ( ( ( ( ( ( ( ( ( ( ( ( ( ( n <.S f+# . . . . . . . . . . . . ",
". . . . . . . . . . . . . . E.b.b.b.b.b.b.b.b.b.b.b.b.b.b.b.b.b.b.b.b.b.b.b.b.b.b.b.b.b.b.b.b.b.b.b.b.b.b.b.b.b.b.P.. . . . . . . . . . . . . ",
". . . . . . . . . . . . . . @ ' ' ' ' ' ' ' ' ' ' ' ' ' ' ' ' ' ' ' ' ' ' ' ' ' ' ' ' ' ' ' ' ' ' ' ' ' ' ' ' ' ' . . . . . . . . . . . . . . ",
". . . . . . . . . . . . . . . . . . . . . . . . . . . . . . . . . . . . . . . . . . . . . . . . . . . . . . . . . . . . . . . . . . . . . . . ",
". . . . . . . . . . . . . . . . . . . . . . . . . . . . . . . . . . . . . . . . . . . . . . . . . . . . . . . . . . . . . . . . . . . . . . . ",
". . . . . . . . . . . . . . . . . . . . . . . . . . . . . . . . . . . . . . . . . . . . . . . . . . . . . . . . . . . . . . . . . . . . . . . "};
