/* XPM */
static char * nwbb_xpm[] = {
"71 71 305 2",
"  	c None",
". 	c #FFFFFF",
"+ 	c #F3F3F3",
"@ 	c #F5F5F5",
"# 	c #F4F4F4",
"$ 	c #F4F5F4",
"% 	c #848484",
"& 	c #434343",
"* 	c #515151",
"= 	c #A6A6A6",
"- 	c #505050",
"; 	c #4C4C4C",
"> 	c #989898",
", 	c #969696",
"' 	c #000000",
") 	c #292929",
"! 	c #D4D4D4",
"~ 	c #CFCFCF",
"{ 	c #282828",
"] 	c #141414",
"^ 	c #C1C3C1",
"/ 	c #FCFCFC",
"( 	c #686868",
"_ 	c #080808",
": 	c #BFBFBF",
"< 	c #AEAEAE",
"[ 	c #030303",
"} 	c #ACACAC",
"| 	c #808080",
"1 	c #1F1F1F",
"2 	c #D6D6D6",
"3 	c #C2C2C2",
"4 	c #0F0F0F",
"5 	c #1B1B1B",
"6 	c #CDCDCD",
"7 	c #CBCBCB",
"8 	c #2E2E2E",
"9 	c #838383",
"0 	c #FEFFFE",
"a 	c #FBFBFB",
"b 	c #6D6D6D",
"c 	c #DEDEDE",
"d 	c #999999",
"e 	c #E0E1E0",
"f 	c #303030",
"g 	c #0D0D0D",
"h 	c #999A99",
"i 	c #0B0B0B",
"j 	c #7F807F",
"k 	c #F9FAF9",
"l 	c #838483",
"m 	c #202020",
"n 	c #A0A0A0",
"o 	c #B7B8B7",
"p 	c #3E3E3E",
"q 	c #6E6E6E",
"r 	c #868686",
"s 	c #2B2C2B",
"t 	c #313131",
"u 	c #272727",
"v 	c #B2B3B2",
"w 	c #A5A5A5",
"x 	c #2D2E2D",
"y 	c #181818",
"z 	c #919191",
"A 	c #4F4F4F",
"B 	c #3C3D3C",
"C 	c #C4C4C4",
"D 	c #A2A2A2",
"E 	c #222222",
"F 	c #5F5F5F",
"G 	c #DFDFDF",
"H 	c #444444",
"I 	c #545454",
"J 	c #E4E4E4",
"K 	c #AFAFAF",
"L 	c #262626",
"M 	c #E3E3E3",
"N 	c #3A3A3A",
"O 	c #757575",
"P 	c #FEFEFE",
"Q 	c #BDBEBD",
"R 	c #393939",
"S 	c #707070",
"T 	c #ABABAB",
"U 	c #1D1D1D",
"V 	c #484848",
"W 	c #101010",
"X 	c #8D8D8D",
"Y 	c #424342",
"Z 	c #E1E1E1",
"` 	c #F3F4F3",
" .	c #666666",
"..	c #090909",
"+.	c #E5E5E5",
"@.	c #C9C9C9",
"#.	c #333333",
"$.	c #171717",
"%.	c #8A8C8A",
"&.	c #CACACA",
"*.	c #F7F7F7",
"=.	c #494949",
"-.	c #424242",
";.	c #D9D9D9",
">.	c #252525",
",.	c #D2D3D2",
"'.	c #4A4A4A",
").	c #777777",
"!.	c #828282",
"~.	c #5D5D5D",
"{.	c #1A1A1A",
"].	c #BEBEBE",
"^.	c #DCDCDC",
"/.	c #343434",
"(.	c #070707",
"_.	c #676767",
":.	c #060606",
"<.	c #A7A7A7",
"[.	c #EDEDED",
"}.	c #191919",
"|.	c #C8C8C8",
"1.	c #CECECE",
"2.	c #FDFDFD",
"3.	c #A3A4A3",
"4.	c #7F7F7F",
"5.	c #F9F9F9",
"6.	c #585858",
"7.	c #323232",
"8.	c #EAEAEA",
"9.	c #565656",
"0.	c #3B3B3B",
"a.	c #ECECEC",
"b.	c #939393",
"c.	c #111111",
"d.	c #CBCCCB",
"e.	c #020202",
"f.	c #050505",
"g.	c #0C0C0C",
"h.	c #474747",
"i.	c #7C7C7C",
"j.	c #121212",
"k.	c #C1C1C1",
"l.	c #040404",
"m.	c #AAAAAA",
"n.	c #8E8E8E",
"o.	c #595959",
"p.	c #858585",
"q.	c #9F9F9F",
"r.	c #CCCCCC",
"s.	c #B6B6B6",
"t.	c #909090",
"u.	c #6C6C6C",
"v.	c #2F2F2F",
"w.	c #E7E7E7",
"x.	c #2B2B2B",
"y.	c #8C8C8C",
"z.	c #575757",
"A.	c #F2F2F2",
"B.	c #454545",
"C.	c #787878",
"D.	c #E6E6E6",
"E.	c #F8F8F8",
"F.	c #E9E9E9",
"G.	c #DBDBDB",
"H.	c #E2E2E2",
"I.	c #F1F1F1",
"J.	c #D8D8D8",
"K.	c #363636",
"L.	c #EBEBEB",
"M.	c #131313",
"N.	c #4E4E4E",
"O.	c #727272",
"P.	c #1C1C1C",
"Q.	c #DDDDDD",
"R.	c #404040",
"S.	c #656565",
"T.	c #737373",
"U.	c #1E1E1E",
"V.	c #B8B8B8",
"W.	c #6F6F6F",
"X.	c #A9A9A9",
"Y.	c #B7B7B7",
"Z.	c #888988",
"`.	c #A4A4A4",
" +	c #010101",
".+	c #949494",
"++	c #B5B5B5",
"@+	c #212121",
"#+	c #CACBCA",
"$+	c #0F100F",
"%+	c #6B6B6B",
"&+	c #474847",
"*+	c #242424",
"=+	c #353535",
"-+	c #7B7C7B",
";+	c #F6F6F6",
">+	c #0A0B0A",
",+	c #B6B8B6",
"'+	c #7D7D7D",
")+	c #D5D5D5",
"!+	c #0A0A0A",
"~+	c #232323",
"{+	c #E8E8E8",
"]+	c #BDBDBD",
"^+	c #2A2A2A",
"/+	c #717271",
"(+	c #555555",
"_+	c #161616",
":+	c #CCCDCC",
"<+	c #C7C7C7",
"[+	c #B3B3B3",
"}+	c #FAFAFA",
"|+	c #F0F0F0",
"1+	c #888888",
"2+	c #7E7E7E",
"3+	c #979797",
"4+	c #717171",
"5+	c #8A8A8A",
"6+	c #2D2D2D",
"7+	c #B1B1B1",
"8+	c #3D3D3D",
"9+	c #747474",
"0+	c #626262",
"a+	c #E0E0E0",
"b+	c #A8A8A8",
"c+	c #C0C1C0",
"d+	c #A1A1A1",
"e+	c #464646",
"f+	c #3C3C3C",
"g+	c #373737",
"h+	c #ADADAD",
"i+	c #BABABA",
"j+	c #DCDDDC",
"k+	c #1F201F",
"l+	c #C3C3C3",
"m+	c #8B8B8B",
"n+	c #5B5B5B",
"o+	c #B2B2B2",
"p+	c #929292",
"q+	c #151515",
"r+	c #606060",
"s+	c #C0C0C0",
"t+	c #636363",
"u+	c #9E9E9E",
"v+	c #0E0E0E",
"w+	c #818181",
"x+	c #DBDCDB",
"y+	c #9C9C9C",
"z+	c #FBFCFB",
"A+	c #F7F8F7",
"B+	c #C7C8C7",
"C+	c #767676",
"D+	c #2C2C2C",
"E+	c #4B4B4B",
"F+	c #646464",
"G+	c #4D4D4D",
"H+	c #8F8F8F",
"I+	c #3A3B3A",
"J+	c #8F908F",
"K+	c #C5C5C5",
"L+	c #DADBDA",
"M+	c #B0B1B0",
"N+	c #616161",
"O+	c #D1D1D1",
"P+	c #DADADA",
"Q+	c #B9B9B9",
"R+	c #C6C6C6",
"S+	c #242524",
"T+	c #BBBCBB",
"U+	c #EEEEEE",
"V+	c #525252",
"W+	c #9D9D9D",
"X+	c #414141",
"Y+	c #5E5E5E",
"Z+	c #5C5C5C",
"`+	c #070907",
" @	c #515351",
".@	c #B5B6B5",
"+@	c #B5B8B5",
"@@	c #535353",
"#@	c #7A7A7A",
"$@	c #B2B7B2",
"%@	c #B3B6B3",
"&@	c #A3A3A3",
"*@	c #363736",
"=@	c #1A1B1A",
"-@	c #686968",
";@	c #7A7B7A",
">@	c #5A5B5A",
",@	c #5F605F",
"'@	c #BEBFBE",
")@	c #9B9B9B",
"!@	c #B0B0B0",
"~@	c #525352",
"{@	c #868786",
"]@	c #B1B2B1",
"^@	c #FDFEFD",
"/@	c #898A89",
"(@	c #F4F6F4",
"_@	c #818281",
":@	c #A0A1A0",
"<@	c #F2F3F2",
"[@	c #BCBCBC",
"}@	c #EFEFEF",
"|@	c #9E9F9E",
". . . . . . . . . . . . . . . . . . . . . . . . . . . . . . . . . . . . . . . . . . . . . . . . . . . . . . . . . . . . . . . . . . . . . . . ",
". . . . . . . . . . . . . . . . . . . . . . . . . . . . . . . . . . . . . . . . . . . . . . . . . . . . . . . . . . . . . . . . . . . . . . . ",
". . . . . . . . . . . . . . . . . . . . . . . . . . . . . . . . . . . . . . . . . . . . . . . . . . . . . . . . . . . . . . . . . . . . . . . ",
". . . . . . . . . . . . . . . . . . . . . . . . . . . . . . . . . . + @ . . . . . # + . . . . . . . . . . . . . . . . . . . . . . . . . . . . ",
". . . . . . . . . . . . . . . . . . . . . . . . . . . . . . . . $ % & * = . . . = - ; > . . . . . . . . . . . . . . . . . . . . . . . . . . . ",
". . . . . . . . . . . . . . . . . . . . . . . . . . . . . . . . , ' ' ' ) ! . ~ { ' ' ] ^ . . . . . . . . . . . . . . . . . . . . . . . . . . ",
". . . . . . . . . . . . . . . . . . . . . . . . . . . . . . . / ( ' ' ' _ : . < [ ' ' [ } . . . . . . . . . . . . . . . . . . . . . . . . . . ",
". . . . . . . . . . . . . . . . . . . . . . . . . . . . . . . . | ' ' ' 1 2 . 3 4 ' ' 5 6 . . . . . . . . . . . . . . . . . . . . . . . . . . ",
". . . . . . . . . . . . . . . . . . . . . . . . . . . . . . . . 7 8 ' ' 9 0 . a b ' ' | . . . . . . . . . . . . . . . . . . . . . . . . . . . ",
". . . . . . . . . . . . . . . . . . . . . . . . . . . . . . . . c & ' 4 d . . . e f g h . . . . . . . . . . . . . . . . . . . . . . . . . . . ",
". . . . . . . . . . . . . . . . . . . . . . . . . . . . . . . 3 * ' ' ' i j k . l ' ' m n . . . . . . . . . . . . . . . . . . . . . . . . . . ",
". . . . . . . . . . . . . . . . . . . . . . . . . . . . . . o p ' ' ' ' ' ' q r s t ' ' u v . . . . . . . . . . . . . . . . . . . . . . . . . ",
". . . . . . . . . . . . . . . . . . . . . . . . . . . . . w x ' ' ' ' ' ' ' ' y z ~ A ' ' B C . . . . . . . . . . . . . . . . . . . . . . . . ",
". . . . . . . . . . . . . . . . . . . . . . . . . . . . D E ' ' ' ' ' ' ' ' ' ' F G 7 H ' ' I J . . . . . . . . . . . . . . . . . . . . . . . ",
". . . . . . . . . . . . . . . . . . . . . . . . . . . K L ' ' ' ' ' ' ' ' ' ' ' ' F M : N ' ' O P . . . . . . . . . . . . . . . . . . . . . . ",
". . . . . . . . . . . . . . . . . . . . . . . . . . Q R ' ' ' ' ' ' ' ' ' ' ' ' ' ' S / T U ' g = . . . . . . . . . . . . . . . . . . . . . . ",
". . . . . . . . . . . . . . . . . . . . . . . . . 2 V ' ' ' ' ' ' W L 1 ' ' ' ' ' ' ' r . X ' ' Y Z . . . . . . . . . . . . . . . . . . . . . ",
". . . . . . . . . . . . . . . . . . . . . . . . `  .' ' ' ' ' ' .., +.@.#.' ' ' ' ' ' $.T @ F ' ' 9 . . . . . . . . . . . . . . . . . . . . . ",
". . . . . . . . . . . . . . . . . . . . . . . . %.' ' ' ' ' ' ' W &.. *.=.' ' ' ' ' ' ' -.;.C >.' ) ,.. . . . . . . . . . . . . . . . . . . . ",
". . . . . . . . . . . . . . . . . . . . . . . : >.' ' ' ' ' ' ' W &.. *.'.' ' ' ' ' ' ' ' ).P !.' ' !.. . . . . . . . . . . . . . . . . . . . ",
". . . . . . . . . . . . . . . . . . . . . . @ ~.' ' ' ' ' ' ' ' W &.. *.'.' ' ' ' ' ' ' ' {.].^.t ' /.+.. . . . . . . . . . . . . . . . . . . ",
". . . . . . . . . . . . . . . . . . . . . . n (.' ' ' ' ' ' ' ' W &.. *.'.' ' ' ' ' ' ' ' ' _.a !.' :.<.. . . . . . . . . . . . . . . . . . . ",
". . . . . . . . . . . . . . . . . . . . . [.V ' ' ' ' ' ' ' ' ' W &.. *.'.' ' ' ' ' ' ' ' ' }.|.1.5 ' ( 2.. . . . . . . . . . . . . . . . . . ",
". . . . . . . . . . . . . . . . . . . . . 3.:.' ' ' ' ' ' ' ' ' W &.. *.'.' ' ' ' ' ' ' ' ' ' 4.5.6.' 7.8.. . . . . . . . . . . . . . . . . . ",
". . . . . . . . . . . . . . . . . . . . *.9.' ' ' ' ' ' ' ' ' ' W &.. *.'.' ' ' ' ' ' ' ' ' ' 0.a.b.' c.&.. . . . . . . . . . . . . . . . . . ",
". . . . . . . . . . . . . . . . . . . . d.$.' ' ' ' ' ' ' e.f.g.h.c . / i.j.(.[ ' ' ' ' ' ' ' 4 k.|.c.l.m.. . . . . . . . . . . . . . . . . . ",
". . . . . . . . . . . . . . . . . . . . n.' ' ' ' ' c.o.p.q.K 3 J . . . @ r.s.= t.u.v.' ' ' ' ' X w.x.' y.. . . . . . . . . . . . . . . . . . ",
". . . . . . . . . . . . . . . . . . . 5.z.' ' ' ' ' !.a . . . . . . . . . . . . . P ].5 ' ' ' ' ~.A.B.' C.. . . . . . . . . . . . . . . . . . ",
". . . . . . . . . . . . . . . . . . . D.x.' ' ' ' [ q.. . E.F.G.H.. . . I.J.M + 2.. D.L ' ' ' ' K.L.~.' b P . . . . . . . . . . . . . . . . . ",
". . . . . . . . . . . . . . . . . . . ~ M.' ' ' ' ' N.r O.N.8 P.H Q.. / C.}.>.R.S.9 T.i ' ' ' ' U.Q.u.' b P . . . . . . . . . . . . . . . . . ",
". . . . . . . . . . . . . . . . . . . V...' ' ' ' ' ' ' ' ' ' ' W 7 . *.'.' ' ' ' ' ' ' ' ' ' ' 4 @.W.' ).. . . . . . . . . . . . . . . . . . ",
". . . . . . . . . . . . . . . . . . . X.l.' ' ' ' ' ' ' ' ' ' ' W &.. *.'.' ' ' ' ' ' ' ' ' ' ' (.Y.b ' Z.. . . . . . . . . . . . . . . . . . ",
". . . . . . . . . . . . . . . . . . . `.e.' ' ' ' ' ' ' ' ' ' ' W &.. *.'.' ' ' ' ' ' ' ' ' ' ' [ w F [ D . . . . . . . . . . . . . . . . . . ",
". . . . . . . . . . . . . . . . . . . <.[ ' ' ' ' ' ' ' ' ' ' ' W &.. *.'.' ' ' ' ' ' ' ' ' ' '  +.+=.g.k.. . . . . . . . . . . . . . . . . . ",
". . . . . . . . . . . . . . . . . . . ++:.' ' ' ' ' ' ' ' ' ' ' W &.. *.'.' ' ' ' ' ' ' ' ' ' ' ' | /.@+c . . . . . . . . . . . . . . . . . . ",
". . . . . . . . . . . . . . . . . . . #+$+' ' ' ' ' ' ' ' ' ' ' W &.. *.'.' ' ' ' ' ' ' ' ' ' ' ' %+m &+@ . . . . . . . . . . . . . . . . . . ",
". . . . . . . . . . . . . . . . . . . Z *+' ' ' ' ' ' ' ' ' ' ' W &.. *.'.' ' ' ' ' ' ' ' ' ' ' ' =+4 -+. . . . . . . . . . . . . . . . . . . ",
". . . . . . . . . . . . . . . . . . . ;+=.' ' ' ' ' ' ' ' ' ' ' W &.. *.=.' ' ' ' ' ' ' ' ' ' ' '  +>+,+. . . . . . . . . . . . . . . . . . . ",
". . . . . . . . . . . . . . . . . . . . '+' ' ' ' ' ' ' ' ' ' ' g `.w.)+N ' ' ' ' ' ' ' ' ' ' ' ' ' =+F.. . . . . . . . . . . . . . . . . . . ",
". . . . . . . . . . . . . . . . . . . . s.!+' ' ' ' ' ' ' ' ' ' ' }.u ~+' ' ' ' ' ' ' ' ' ' ' ' ' ' C.. . . . . . . . . . . . . . . . . . . . ",
". . . . . . . . . . . . . . . . . . . . {+/.' ' ' ' ' ' ' ' ' ' ' ' ' ' ' ' ' ' ' ' ' ' ' ' ' ' ' W ]+. . . . . . . . . . . . . . . . . . . . ",
". . . . . . . . . . . . . . . . . . . . . i.' ' ' ' ' ' ' ' ' ' ' ' ' ' ' ' ' ' ' ' ' ' ' ' ' ' ' '.+ . . . . . . . . . . . . . . . . . . . . ",
". . . . . . . . . . . . . . . . . . . . . |.P.' ' ' ' ' ' ' f.W U.x.R 0.0.R ^+U 4 l.' ' ' ' ' ' ' X . . . . . . . . . . . . . . . . . . . . . ",
". . . . . . . . . . . . . . . . . . . . . P /+' ' ' !+x.6.p.} @.Q.{+A.+ + A.w.^.|.T !.(+) _ ' ' _+:+. . . . . . . . . . . . . . . . . . . . . ",
". . . . . . . . . . . . . . . . . . . . . . <+U.] b [++.}+|+G.3 m., 1+2+4.1+3+} C ^.I.5.J K ( c.R.A.. . . . . . . . . . . . . . . . . . . . . ",
". . . . . . . . . . . . . . . . . . . . . . 2.4+5+P H.<.q 0.U g.[ ' ' !+' ' ' [ g U.p 4+T +.2.p.T.. . . . . . . . . . . . . . . . . . . . . . ",
". . . . . . . . . . . . . . . . . . . . . . . ++W.S 6+f.' ' ' ' ' v.'+7+1+8+' ' ' ' ' ' :.f 9+0+3+. . . . . . . . . . . . . . . . . . . . . . ",
". . . . . . . . . . . . . . . . . . . . . . . J 7.- H ] ' ' ' g ).J.. . . w.y.P.' ' ' ' ' _ ^+g.s.. . . . . . . . . . . . . . . . . . . . . . ",
". . . . . . . . . . . . . . . . . . . . . . . + h.C # } y ' ' p a+. . . . . J h.' ' ' ' N.b+C u c+. . . . . . . . . . . . . . . . . . . . . . ",
". . . . . . . . . . . . . . . . . . . . . . . + '.@.. , :.' ' ' h.d+a.P [.n e+' ' ' ' (.t.. ^.) k.. . . . . . . . . . . . . . . . . . . . . . ",
". . . . . . . . . . . . . . . . . . . . . . . F.B.)+Y.^+' ' ' ' ' (.f+F p :.' ' ' ' ' ' g+h+H.6+i+. . . . . . . . . . . . . . . . . . . . . . ",
". . . . . . . . . . . . . . . . . . . . . . . j+=.`.p ' ' ' ' ' l.(.i i i i (.[ ' ' ' ' ' U.O.) <.. . . . . . . . . . . . . . . . . . . . . . ",
". . . . . . . . . . . . . . . . . . . . . . . c+k+8  +j.6+N.S X w Y.3 l+l+3 s.`.m+q ; x.c.' ' ' 1+. . . . . . . . . . . . . . . . . . . . . . ",
". . . . . . . . . . . . . . . . . . . . . . . b.{.n+, @.{+;+|+G 1.k.Y.o+o+Y.k.~ a+|+;+w.<+p+9.q+r+/ . . . . . . . . . . . . . . . . . . . . . ",
". . . . . . . . . . . . . . . . . . . . . . a 4+m.;++.s+n.r+R 1 j.i (.:.:._ i M.m N t+z 3 w.@ u+R.[.. . . . . . . . . . . . . . . . . . . . . ",
". . . . . . . . . . . . . . . . . . . . . . c N.9 n+x.g ' ' ' ' ' ' ' ' ' ' ' ' ' ' ' ' v+8 F w+B.2 . . . . . . . . . . . . . . . . . . . . . ",
". . . . . . . . . . . . . . . . . . . . . . x+N. +' ' ' ' ' ' ' ' ' ' ' ' ' ' ' ' ' ' ' ' ' ' u y+. . . . . . . . . . . . . . . . . . . . . . ",
". . . . . . . . . . . . . . . . . . . . . . . +.| @+' ' ' ' ' ' ' ' ' ' ' ' ' ' ' ' ' ' ' [ - ++. . . . . . . . . . . . . . . . . . . . . . . ",
". . . . . . . . . . . . . . z+5.A+}+P . . . . . 0 B+C+D+l.' ' ' ' ' ' ' ' ' ' ' ' ' ' c.E+d [.. . . . . . . / E.A+a . . . . . . . . . . . . . ",
". . . . . . . . . . . |+: m+F+A G+(+u.H+].F.P . . . . G D  .$.{.g f.e.' ' [ ..q+E I+J+K++ . . . . . E.L+M+p.N+N.N.n+C.D O+;+. . . . . . . . . ",
". . . . . . . . . [.d V 4 ' ' ' ' ' ' ' g =+O.m.P+A.a / *.i+N+Q+R+o+C.S+8 y.V.1.T N+T+}+2./ }+U+6 p+(+@+(.' ' ' ' ' ' [ y V+W+L.. . . . . . . ",
". . . . . . . . o+A e.' ' ' ' ' ' ' ' ' ' ' ' :.U.8+z.~.h.}.' X+ .b V z d Y+q r+#.' U * 0+Z+N.=+q+ +' ' ' ' ' ' ' ' ' ' ' ' l.=.X.. . . . . . ",
". . . . . . P y.U.' ' ' ' ' ' [ _ `+[ ' ' ' ' ' ' ' ' ' ' ' ' ' ' ' 9+2.. !.l.' ' ' ' ' ' ' ' ' ' ' ' ' ' ' [ `+_ [ ' ' ' ' ..f.v+'+|+. . . . ",
". . . . . }+'+' @+0._ ' $. @p.= .@+@= !.@@@+e.' ' ' ' ' ' ' ' ' ' q F.. . . n.U ' ' ' ' ' ' ' ' ' ' e.U E+#@d+$@%@&@'+V W ' *@5+_.=@-@# . . . ",
". . . . 2.;@$.).v >@' ,@'@A+. . . . . . 5.;.)@~.>.i  +' ' ' [ v.n.5.. . . . . !@~@g ' ' ' ' e.!+~+n+)@2 ;+. . . . . . @ ++9.' W.}+Q y+*.. . . ",
". . . . U+{@]@^@T.5 /@(@. . . . . . . . . . . }+a+]+u+5+| _@:@G.. . . . . . . . <@[@t.4.!.y.q.]+c 5.. . . . . . . . . . . }@2+:.|@. a . . . . ",
". . . . . *.. i+v.q.. . . . . . . . . . . . . . . . . . . . . . . . . . . . . . . . . . . . . . . . . . . . . . . . . . . . . 4.& F.. . . . . ",
". . . . . . . Q.k.. . . . . . . . . . . . . . . . . . . . . . . . . . . . . . . . . . . . . . . . . . . . . . . . . . . . . . P : P . . . . . ",
". . . . . . . . . . . . . . . . . . . . . . . . . . . . . . . . . . . . . . . . . . . . . . . . . . . . . . . . . . . . . . . . . . . . . . . ",
". . . . . . . . . . . . . . . . . . . . . . . . . . . . . . . . . . . . . . . . . . . . . . . . . . . . . . . . . . . . . . . . . . . . . . . ",
". . . . . . . . . . . . . . . . . . . . . . . . . . . . . . . . . . . . . . . . . . . . . . . . . . . . . . . . . . . . . . . . . . . . . . . "};
