/* XPM */
static char * nwbk_xpm[] = {
"71 71 253 2",
"  	c None",
". 	c #FFFFFF",
"+ 	c #FAFAFA",
"@ 	c #A0A0A0",
"# 	c #616161",
"$ 	c #595959",
"% 	c #525252",
"& 	c #636363",
"* 	c #A9A9A9",
"= 	c #F1F1F1",
"- 	c #515151",
"; 	c #858585",
"> 	c #8A8A8A",
", 	c #131313",
"' 	c #000000",
") 	c #1A1A1A",
"! 	c #8D8D8D",
"~ 	c #838383",
"{ 	c #5A5A5A",
"] 	c #F4F4F4",
"^ 	c #EFEFEF",
"/ 	c #434343",
"( 	c #A2A2A2",
"_ 	c #7C7C7C",
": 	c #9D9D9D",
"< 	c #494949",
"[ 	c #F3F3F3",
"} 	c #353535",
"| 	c #212121",
"1 	c #808080",
"2 	c #C7C7C7",
"3 	c #414141",
"4 	c #090909",
"5 	c #080808",
"6 	c #4B4B4B",
"7 	c #C8C8C8",
"8 	c #7B7B7B",
"9 	c #1B1B1B",
"0 	c #3D3D3D",
"a 	c #383838",
"b 	c #484848",
"c 	c #A3A3A3",
"d 	c #9B9B9B",
"e 	c #454545",
"f 	c #464646",
"g 	c #F5F5F5",
"h 	c #3A3A3A",
"i 	c #585858",
"j 	c #818181",
"k 	c #7D7D7D",
"l 	c #565656",
"m 	c #060606",
"n 	c #A1A1A1",
"o 	c #333333",
"p 	c #CBCBCB",
"q 	c #9C9C9C",
"r 	c #3C3C3C",
"s 	c #B3B3B3",
"t 	c #F8F8F8",
"u 	c #676767",
"v 	c #6F6F6F",
"w 	c #FDFDFD",
"x 	c #ADADAD",
"y 	c #666666",
"z 	c #646464",
"A 	c #030303",
"B 	c #6A6A6A",
"C 	c #444444",
"D 	c #EAEAEA",
"E 	c #E8E8E8",
"F 	c #EDEDED",
"G 	c #070707",
"H 	c #EBEBEB",
"I 	c #B1B1B1",
"J 	c #757575",
"K 	c #2F2F2F",
"L 	c #2A2A2A",
"M 	c #6E6E6E",
"N 	c #DADADA",
"O 	c #848484",
"P 	c #B0B0B0",
"Q 	c #343434",
"R 	c #D7D7D7",
"S 	c #9E9E9E",
"T 	c #6B6B6B",
"U 	c #303030",
"V 	c #474747",
"W 	c #767676",
"X 	c #B4B4B4",
"Y 	c #F2F2F2",
"Z 	c #AAAAAA",
"` 	c #4E4E4E",
" .	c #040404",
"..	c #242424",
"+.	c #727272",
"@.	c #C6C6C6",
"#.	c #9F9F9F",
"$.	c #6D6D6D",
"%.	c #5F5F5F",
"&.	c #C1C1C1",
"*.	c #0C0C0C",
"=.	c #535353",
"-.	c #7F7F7F",
";.	c #101010",
">.	c #232323",
",.	c #878787",
"'.	c #4A4A4A",
").	c #606060",
"!.	c #1E1E1E",
"~.	c #151515",
"{.	c #FCFCFC",
"].	c #797979",
"^.	c #020202",
"/.	c #1C1C1C",
"(.	c #D5D5D5",
"_.	c #3B3B3B",
":.	c #888888",
"<.	c #939393",
"[.	c #949494",
"}.	c #3F3F3F",
"|.	c #CACACA",
"1.	c #050505",
"2.	c #373737",
"3.	c #010101",
"4.	c #8C8C8C",
"5.	c #959595",
"6.	c #DDDDDD",
"7.	c #FBFBFB",
"8.	c #0F0F0F",
"9.	c #B6B6B6",
"0.	c #C5C5C5",
"a.	c #505050",
"b.	c #5E5E5E",
"c.	c #A4A4A4",
"d.	c #D9D9D9",
"e.	c #F0F0F0",
"f.	c #909090",
"g.	c #919191",
"h.	c #C2C2C2",
"i.	c #5D5D5D",
"j.	c #D0D0D0",
"k.	c #F9F9F9",
"l.	c #AEAEAE",
"m.	c #4D4D4D",
"n.	c #2E2E2E",
"o.	c #CCCCCC",
"p.	c #424242",
"q.	c #2D2D2D",
"r.	c #313131",
"s.	c #2B2B2B",
"t.	c #6C6C6C",
"u.	c #D8D8D8",
"v.	c #F7F7F7",
"w.	c #DFDFDF",
"x.	c #0D0D0D",
"y.	c #B5B5B5",
"z.	c #777777",
"A.	c #E7E7E7",
"B.	c #F6F6F6",
"C.	c #EEEEEE",
"D.	c #CECECE",
"E.	c #0B0B0B",
"F.	c #FEFEFE",
"G.	c #A8A8A8",
"H.	c #CFCFCF",
"I.	c #747474",
"J.	c #626262",
"K.	c #292929",
"L.	c #4C4C4C",
"M.	c #262626",
"N.	c #0E0E0E",
"O.	c #B7B7B7",
"P.	c #222222",
"Q.	c #868686",
"R.	c #898989",
"S.	c #787878",
"T.	c #C4C4C4",
"U.	c #E5E5E5",
"V.	c #8E8E8E",
"W.	c #B2B2B2",
"X.	c #181818",
"Y.	c #323232",
"Z.	c #171717",
"`.	c #979797",
" +	c #737373",
".+	c #656565",
"++	c #A5A5A5",
"@+	c #E6E6E6",
"#+	c #929292",
"$+	c #8F8F8F",
"%+	c #9A9A9A",
"&+	c #DEDEDE",
"*+	c #5C5C5C",
"=+	c #E3E3E3",
"-+	c #989898",
";+	c #393939",
">+	c #0A0A0A",
",+	c #191919",
"'+	c #D3D3D3",
")+	c #202020",
"!+	c #282828",
"~+	c #BFBFBF",
"{+	c #404040",
"]+	c #1D1D1D",
"^+	c #D4D4D4",
"/+	c #545454",
"(+	c #161616",
"_+	c #C0C0C0",
":+	c #C9C9C9",
"<+	c #5B5B5B",
"[+	c #141414",
"}+	c #ACACAC",
"|+	c #111111",
"1+	c #7A7A7A",
"2+	c #C3C3C3",
"3+	c #BBBBBB",
"4+	c #575757",
"5+	c #CDCDCD",
"6+	c #D6D6D6",
"7+	c #4F4F4F",
"8+	c #E9E9E9",
"9+	c #DBDBDB",
"0+	c #E2E2E2",
"a+	c #AFAFAF",
"b+	c #363636",
"c+	c #E1E1E1",
"d+	c #B9B9B9",
"e+	c #A6A6A6",
"f+	c #252525",
"g+	c #E4E4E4",
"h+	c #DCDCDC",
"i+	c #D2D2D2",
"j+	c #BEBEBE",
"k+	c #D1D1D1",
"l+	c #3E3E3E",
"m+	c #121212",
"n+	c #272727",
"o+	c #ECECEC",
"p+	c #1F1F1F",
"q+	c #969696",
"r+	c #2C2C2C",
"s+	c #717171",
"t+	c #BABABA",
"u+	c #555555",
"v+	c #828282",
"w+	c #686868",
"x+	c #696969",
"y+	c #8B8B8B",
"z+	c #BCBCBC",
"A+	c #A7A7A7",
"B+	c #707070",
"C+	c #E0E0E0",
"D+	c #999999",
". . . . . . . . . . . . . . . . . . . . . . . . . . . . . . . . . . . . . . . . . . . . . . . . . . . . . . . . . . . . . . . . . . . . . . . ",
". . . . . . . . . . . . . . . . . . . . . . . . . . . . . . . . . . . . . . . . . . . . . . . . . . . . . . . . . . . . . . . . . . . . . . . ",
". . . . . . . . . . . . . . . . . . . . . . . . . . . . . . . . . . . . . . . . . . . . . . . . . . . . . . . . . . . . . . . . . . . . . . . ",
". . . . . . . . . . . . . . . . . . . . . . . . . . . . . . . . . . . . . . . . . . . . . . . . . . . . . . . . . . . . . . . . . . . . . . . ",
". . . . . . . . . . . . . . . . . . . . . . . . . . . . . . . . . . . . . . . . . . . . . . . . . . . . . . . . . . . . . . . . . . . . . . . ",
". . . . . . . . . . . . . . . . . . . . . . . . . . . . . . . . . . . . . . . . . . . . . . . . . . . . . . . . . . . . . . . . . . . . . . . ",
". . . . . . . . . . . . . . . . . . . . . . . . . . . . . . . + + + + + + + + + + . . . . . . . . . . . . . . . . . . . . . . . . . . . . . . ",
". . . . . . . . . . . . . . . . . . . . . . . . . . . . . . @ # $ % % % % % % $ & * . . . . . . . . . . . . . . . . . . . . . . . . . . . . . ",
". . . . . . . . . . . . . . . . . . . . . . . . . . . . . = - ; > , ' ' ' ' ) ! ~ { ] . . . . . . . . . . . . . . . . . . . . . . . . . . . . ",
". . . . . . . . . . . . . . . . . . . . . . . . . . . . . ^ / ( . _ ' ' ' ' ; . : < [ . . . . . . . . . . . . . . . . . . . . . . . . . . . . ",
". . . . . . . . . . . . . . . . . . . . . . . . . . . . . ^ } | 1 2 3 4 5 6 7 8 9 0 [ . . . . . . . . . . . . . . . . . . . . . . . . . . . . ",
". . . . . . . . . . . . . . . . . . . . . . . . . . . . . ^ } ' ' a b c d e } ' ' 0 [ . . . . . . . . . . . . . . . . . . . . . . . . . . . . ",
". . . . . . . . . . . . . . . . . . . . . . . . . . . . . ^ } ' ' ' f + g h ' ' ' 0 [ . . . . . . . . . . . . . . . . . . . . . . . . . . . . ",
". . . . . . . . . . . . . . . . . . . . . . . . . . . . . ^ } ' 4 i e j k e l m ' 0 [ . . . . . . . . . . . . . . . . . . . . . . . . . . . . ",
". . . . . . . . . . . . . . . . . . . . . . . . . . . . . ^ } 3 n 2 o ' ' 0 p q r 0 [ . . . . . . . . . . . . . . . . . . . . . . . . . . . . ",
". . . . . . . . . . . . . . . . . . . . . . . . . . . . . ^ / s t u ' ' ' ' v w x < [ . . . . . . . . . . . . . . . . . . . . . . . . . . . . ",
". . . . . . . . . . . . . . . . . . . . . . . . . . . . . ^ 0 y z A ' ' ' ' 5 B z C [ . . . . . . . . . . . . . . . . . . . . . . . . . . . . ",
". . . . . . . . . . . . . . . . ] D E F g w . . . . . . . ^ } ' ' ' ' 5 G ' ' ' ' 0 [ . . . . . . . w ] F E H g . . . . . . . . . . . . . . . ",
". . . . . . . . . . . . . ^ I J f K L o b M n N . . . . . ^ } ' ' h O I P 1 Q ' ' 0 [ . . . . w R S T f o L U V W X Y . . . . . . . . . . . . ",
". . . . . . . . . . . . Z ` 4 ' ' ' ' ' ' '  ...+.@.. . . ^ } ' # 7 #.$.v c 7 %.' 0 [ . . . &.$.|  .' ' ' ' ' ' ' *.=.P . . . . . . . . . . . ",
". . . . . . . . . . + -.;.' ' ' ' ' ' ' ' ' ' ' ' >.,.F . ^ } '.@.).A ' '  .z 2 3 0 [ . D 1 !.' ' ' ' ' ' ' ' ' ' ' ' ~.~ . . . . . . . . . . ",
". . . . . . . . . {.].' ' ' ' ' ^.../ % < } /. .' ' ' %.(.^ _.: :.' ' ' ' ' ' <.[.}.[ |.$ ' ' ' 1.!.2.'.% 3 | 3.' ' ' ' ' -.. . . . . . . . . ",
". . . . . . . . . 4.' ' ' ' ' a 5.6.] 7.t ^ R @ { 8.' ' '.9.` 7 f ' ' ' ' ' ' % 0.a.s 3 ' ' , b.c.d.e.t 7.] N f.Q ' ' ' '  .g.. . . . . . . . ",
". . . . . . . . h...' ' ' ' i.j.. . . . . . . . k.l.m.' ' o n.o.h ' ' ' ' ' ' p.7 q.r.' ' - X + . . . . . . . . |.l ' ' ' ' s.o.. . . . . . . ",
". . . . . . . {.t.' ' ' ' V u.. . . . + F F v.. . . w.$.' ' x.y.B ' ' ' ' ' ' J x 5 ' ' z.A.. . . B.F C.+ . . . . D.r ' ' ' ' W . . . . . . . ",
". . . . . . . R | ' ' ' E.* . . . F.G.%.Q Q a.,.H.. . v.I.' ' t.&.U ' ' ' ' r @.& ' ' k F.. . |.~ m.o } J.x F.. . . n G ' ' ' K.w.. . . . . . ",
". . . . . . . c A ' ' ' L.g . . {.k 4 ' ' ' ' ' M.> k.. A.{ ' N.q O.{ P.>.b.&.f.m ' & Y . = Q.| ' ' ' ' ' *.-.F.. . ^ 3 ' ' ' m l.. . . . . . ",
". . . . . . . W ' ' ' ' ,.. . . R.' ' ' ' ' ' ' ' ' +.] . 2 q.' , S.T.H.H.&.+.E.' } j.. U.z ' ' ' ' ' ' ' ' ' V.. . . 8 ' ' ' ' ; . . . . . . ",
". . . . . . + { ' ' ' m W.. . D...' ' ' ' ' ' ' ' ' ' k F.. ! ' ' ' X.Y.r.Z.' '  .`.. w  +' ' ' ' ' ' ' ' ' ' K u.. . c.A ' ' ' .+w . . . . . ",
". . . . . . + =.' ' ' E.&.. . :.' ' ' ' ' ' ' ' ' ' ' *.++. @+}.' ' ' ' ' ' ' ' b C.. d G ' ' ' ' ' ' ' ' ' ' ' #+. . 9.5 ' ' ' i + . . . . . ",
". . . . . . + $ ' ' ' E.&.. t a.' ' ' ' ' ' ' ' ' ' ' ' / @+. $+' ' ' ' ' ' ' A %+. &+h ' ' ' ' ' ' ' ' ' ' ' ' *+7.. X G ' ' ' z w . . . . . ",
". . . . . . . +.' ' ' G 9.. F o ' ' ' ' ' ' ' ' ' ' ' ' 3.[.. N M.' ' ' ' ' ' K =+. R.' ' ' ' ' ' ' ' ' ' ' ' ' 0 Y . G.A ' ' ' 1 . . . . . . ",
". . . . . . . -+3.' ' ^.q . H K ' ' ' ' ' ' ' ' ' ' ' ' ' C F w u ' ' ' ' ' ' +.F.A.h ' ' ' ' ' ' ' ' ' ' ' ' ' ;+= . f.' ' '  .++. . . . . . ",
". . . . . . . 7 , ' ' ' S.. = _.' ' ' ' ' ' ' L ' ' ' ' ' >+s . c.1.' ' ' ' 5 I . * m ' ' ' ' ' K.' ' ' ' ' ' ' e g F.$.' ' ' ,+'+. . . . . . ",
". . . . . . . [ 6 ' ' ' 6 B.7.{ ' ' ' ' ' ' r.h.%.' ' ' ' '  +F.N )+' ' ' ' !+=+{.u ' ' ' ' ' J.~+K.' ' ' ' ' ' u {.Y {+' ' ' l v.. . . . . . ",
". . . . . . . . d  .' ' ]+^+. R.' ' ' ' ' ' b.{.^+a ' ' ' A ;+F B.b ' ' ' ' /+k.@+q.^.' ' ' 3 d.+ =.' ' ' ' ' ' [.. p (+' ' 5 c.. . . . . . . ",
". . . . . . . . D < ' ' 3.g.. _+8.' ' ' ' ' ].. . R.' ' %.$.]+:+. W ' ' ' ' ~ . _+,+$.<+' ^.[.. F.t.' ' ' ' ' [+|.. Q.' ' ' /+= . . . . . . . ",
". . . . . . . . . }+|+' ' f ^ e.V ' ' ' ' ' 1+. . 2+N.-.+ P 5 #.. n A ' ' 1.x . <.*.3+v.k [+D.. . $.' ' ' ' ' - B.E _.' ' ,+s . . . . . . . . ",
". . . . . . . . . . 8 ' ' G ( . [.A p.+.f x.{ 7.. p 4+^ . :.' W F.T.N.' ' , 5+F.B 3.<.. E =.6+. k.7+;.b I._. .S . %+A ' ' O . . . . . . . . . ",
". . . . . . . . . . 8+%.' ' L.^ U.3 i t ] Z *+0.. X j . g m.' - k.9+]+' ' >.0+g e ' 4+k.F.S.&.. 3+i a+g g ` 6 F A./ ' ' z = . . . . . . . . . ",
". . . . . . . . . . . (.f '  .-+. n Z.G.. . X v 7 M J.U.4.m ' b+^ D n.' ' a = 8+q.' E.5.c+4+I.2+$.d+. . : ,+Z . V.' ' /+9+. . . . . . . . . . ",
". . . . . . . . . . . . _+{+' _.9+{.$.Q e+[ c+L ,+ .' M.m ' ' f+g+[ 3 ' ' 6 k.h+]+' ' >+f+'  .X.o 8+= S M.I.F.i+r.' p.:+. . . . . . . . . . . ",
". . . . . . . . . . . . . j+{+' _ F.k+o x.}./ ' { d u ' ' ' ' ) u.+ - ' ' i.{.i+~.' ' ' ' $.%+/+' / r E.0 N F. +' }.~+. . . . . . . . . . . . ",
". . . . . . . . . . . . . . j+l+/.d+. $+3.' ' ]+9.=+ +' ' ' ' ~.'+{.%.' ' $.F.@.x.' ' ' ' 8 U.* Z.' '  .%+. P m+}._+. . . . . . . . . . . . . ",
". . . . . . . . . . . . . . . j+;+4+= U.r ' ' ' n+!+3. .E.;.~.K.5+F.T ' ' S.. 2+>.~.;.E. .^.K...' ' ' e o+H 7+}.j+. . . . . . . . . . . . . . ",
". . . . . . . . . . . . . . . . l...#+. 4.]+Y.6 y j d I _+|.i+6+{..  +' ' j . + 6+i+:+~+P %+1 .+< r.p+q+. R.r+d+. . . . . . . . . . . . . . . ",
". . . . . . . . . . . . . . . . . <.2.9+v.9+o+t w . . . . F.w 7.+ k.J ' ' ~ k.+ 7.w F.. . . . w v.o+N + i+r.%+. . . . . . . . . . . . . . . . ",
". . . . . . . . . . . . . . . . . = e a+{.] 8+9+p d+++#+1 s+& l % 7+..' ' L a.% 4+z s+j [.e+t+o.h+D g {.c.m.B.. . . . . . . . . . . . . . . . ",
". . . . . . . . . . . . . . . . . 7.u+L.# / q./.;.4 A ' ' ' ' ' ' ' ' ' ' ' ' ' ' ' ' ' '  .>+|+]+n.e & C # w . . . . . . . . . . . . . . . . ",
". . . . . . . . . . . . . . . . . ~+M.' ' ' ' ' ' ' ' ' ' ' ' ' ' ' ' 3.3.' ' ' ' ' ' ' ' ' ' ' ' ' ' ' ' r+2+. . . . . . . . . . . . . . . . ",
". . . . . . . . . . . . . . . . C.a.' ' ' ' ' 1., M.r a.& I.~ V.f.#+[.q+q+[.#+f.! v+ +J.7+h ..m+1.' ' ' ' ' $ [ . . . . . . . . . . . . . . . ",
". . . . . . . . . . . . . . . . |.8.' ' >.l O l.D.g+Y k.w . . F.{.7.+ + + + 7.{.F.. . w k.= =+o.}+v+% )+' ' Z.i+. . . . . . . . . . . . . . . ",
". . . . . . . . . . . . . . . . 7 x.A 8 R + . k.D R _+Z q+~  +w+b.u+=.% % =.u+b.x+I.O `.}+h.u.H + . k.'+J ' [+j.. . . . . . . . . . . . . . . ",
". . . . . . . . . . . . . . . . @+0 l+t 8+d+~ /+K ,+E. .' ' ' ;.h b.8 4.y+1+*+2.N.' ' '  .*.) r.4+Q.z+H [ b+V o+. . . . . . . . . . . . . . . ",
". . . . . . . . . . . . . . . . . c Q i.a.K., ' ' ' ' ' ' ' !.l.^ {.. . . . {.C.A+9 ' ' ' ' ' ' ' ~.s./+%.r.* . . . . . . . . . . . . . . . . ",
". . . . . . . . . . . . . . . . . . <./.* 6.h.h ' ' ' ' ' ' 3.x+}+^+@+F F U.i+G..+' ' ' ' ' ' ' 3 @.6.@ ,+-+. . . . . . . . . . . . . . . . . ",
". . . . . . . . . . . . . . . . . . j.p+~+. 2 U ' ' ' ' ' ' ' ^.E./.r+2.b+s.9 >+^.' ' ' ' ' ' ' h j.. y.| u.. . . . . . . . . . . . . . . . . ",
". . . . . . . . . . . . . . . . . . w.>.O > } A ;...r l M ~ <.@ Z }+x l.l.x }+Z @ #+v+t./+_.P.8.A _.V.k K.U.. . . . . . . . . . . . . . . . . ",
". . . . . . . . . . . . . . . . . . E q.n+f J ( 7 0+Y k.t Y H A.g+6.N d.d.N 6.g+A.o+Y t k.Y c+2 #.+./ p+b+= . . . . . . . . . . . . . . . . . ",
". . . . . . . . . . . . . . . . . . Y {+B+] B.0+@.++v+.+m.r K n+..!.9 ,+) 9 !.f+n+U 0 ` y O A+7 =+v.[ z < t . . . . . . . . . . . . . . . . . ",
". . . . . . . . . . . . . . . . . . k.w+6 z.< f+8.A ' ' ' ' ' ' ' ' ' ' ' ' ' ' ' ' ' ' ' ' A 8.n+L.S.f B+{.. . . . . . . . . . . . . . . . . ",
". . . . . . . . . . . . . . . . . . . C+t+$+T V U p+~.*.1.A 3.' ' ' ' ' ' ' ' ' ' 3.A 1.*.~.)+Y.< $.g.3+U.. . . . . . . . . . . . . . . . . . ",
". . . . . . . . . . . . . . . . . . . . . . . B.D &+j._+W.c.D+! ,.j 8 1+1+_ j ,.$+D+++W.~+k+w.H B.. . . . . . . . . . . . . . . . . . . . . . ",
". . . . . . . . . . . . . . . . . . . . . . . . . . . . . . . . . . . . . . . . . . . . . . . . . . . . . . . . . . . . . . . . . . . . . . . ",
". . . . . . . . . . . . . . . . . . . . . . . . . . . . . . . . . . . . . . . . . . . . . . . . . . . . . . . . . . . . . . . . . . . . . . . ",
". . . . . . . . . . . . . . . . . . . . . . . . . . . . . . . . . . . . . . . . . . . . . . . . . . . . . . . . . . . . . . . . . . . . . . . ",
". . . . . . . . . . . . . . . . . . . . . . . . . . . . . . . . . . . . . . . . . . . . . . . . . . . . . . . . . . . . . . . . . . . . . . . ",
". . . . . . . . . . . . . . . . . . . . . . . . . . . . . . . . . . . . . . . . . . . . . . . . . . . . . . . . . . . . . . . . . . . . . . . ",
". . . . . . . . . . . . . . . . . . . . . . . . . . . . . . . . . . . . . . . . . . . . . . . . . . . . . . . . . . . . . . . . . . . . . . . ",
". . . . . . . . . . . . . . . . . . . . . . . . . . . . . . . . . . . . . . . . . . . . . . . . . . . . . . . . . . . . . . . . . . . . . . . ",
". . . . . . . . . . . . . . . . . . . . . . . . . . . . . . . . . . . . . . . . . . . . . . . . . . . . . . . . . . . . . . . . . . . . . . . "};
