/* XPM */
static char * nwbn_xpm[] = {
"71 71 242 2",
"  	c None",
". 	c #FFFFFF",
"+ 	c #FAFAFA",
"@ 	c #A4A4A4",
"# 	c #CCCCCC",
"$ 	c #8F8F8F",
"% 	c #797979",
"& 	c #E5E5E5",
"* 	c #9C9C9C",
"= 	c #010101",
"- 	c #383838",
"; 	c #B9B9B9",
"> 	c #1C1C1C",
", 	c #000000",
"' 	c #7C7C7C",
") 	c #828282",
"! 	c #3C3C3C",
"~ 	c #8C8C8C",
"{ 	c #272727",
"] 	c #D6D6D6",
"^ 	c #868686",
"/ 	c #5D5D5D",
"( 	c #555555",
"_ 	c #979797",
": 	c #8B8B8B",
"< 	c #E8E8E8",
"[ 	c #2D2D2D",
"} 	c #C7C7C7",
"| 	c #B0B0B0",
"1 	c #040404",
"2 	c #2C2C2C",
"3 	c #A6A6A6",
"4 	c #9E9E9E",
"5 	c #161616",
"6 	c #535353",
"7 	c #CDCDCD",
"8 	c #C8C8C8",
"9 	c #0D0D0D",
"0 	c #0F0F0F",
"a 	c #585858",
"b 	c #646464",
"c 	c #484848",
"d 	c #050505",
"e 	c #404040",
"f 	c #A9A9A9",
"g 	c #E0E0E0",
"h 	c #DADADA",
"i 	c #C1C1C1",
"j 	c #DEDEDE",
"k 	c #DBDBDB",
"l 	c #1B1B1B",
"m 	c #3F3F3F",
"n 	c #AAAAAA",
"o 	c #FBFBFB",
"p 	c #FCFCFC",
"q 	c #E9E9E9",
"r 	c #B4B4B4",
"s 	c #151515",
"t 	c #0C0C0C",
"u 	c #212121",
"v 	c #080808",
"w 	c #111111",
"x 	c #202020",
"y 	c #737373",
"z 	c #5C5C5C",
"A 	c #BABABA",
"B 	c #D8D8D8",
"C 	c #8D8D8D",
"D 	c #929292",
"E 	c #7E7E7E",
"F 	c #565656",
"G 	c #252525",
"H 	c #090909",
"I 	c #373737",
"J 	c #D5D5D5",
"K 	c #6B6B6B",
"L 	c #6D6D6D",
"M 	c #616161",
"N 	c #1D1D1D",
"O 	c #6F6F6F",
"P 	c #4C4C4C",
"Q 	c #343434",
"R 	c #E3E3E3",
"S 	c #F6F6F6",
"T 	c #E1E1E1",
"U 	c #B6B6B6",
"V 	c #363636",
"W 	c #7D7D7D",
"X 	c #C0C0C0",
"Y 	c #131313",
"Z 	c #3E3E3E",
"` 	c #454545",
" .	c #464646",
"..	c #727272",
"+.	c #D9D9D9",
"@.	c #F9F9F9",
"#.	c #ECECEC",
"$.	c #ACACAC",
"%.	c #5E5E5E",
"&.	c #101010",
"*.	c #030303",
"=.	c #777777",
"-.	c #A5A5A5",
";.	c #EBEBEB",
">.	c #B3B3B3",
",.	c #575757",
"'.	c #020202",
").	c #9B9B9B",
"!.	c #EAEAEA",
"~.	c #353535",
"{.	c #060606",
"].	c #434343",
"^.	c #9A9A9A",
"/.	c #F1F1F1",
"(.	c #F3F3F3",
"_.	c #919191",
":.	c #2A2A2A",
"<.	c #313131",
"[.	c #6A6A6A",
"}.	c #E4E4E4",
"|.	c #0B0B0B",
"1.	c #B5B5B5",
"2.	c #BBBBBB",
"3.	c #4D4D4D",
"4.	c #2F2F2F",
"5.	c #7B7B7B",
"6.	c #CFCFCF",
"7.	c #FDFDFD",
"8.	c #5F5F5F",
"9.	c #292929",
"0.	c #545454",
"a.	c #171717",
"b.	c #626262",
"c.	c #DFDFDF",
"d.	c #606060",
"e.	c #0E0E0E",
"f.	c #888888",
"g.	c #E7E7E7",
"h.	c #D1D1D1",
"i.	c #878787",
"j.	c #959595",
"k.	c #636363",
"l.	c #CBCBCB",
"m.	c #757575",
"n.	c #D3D3D3",
"o.	c #A8A8A8",
"p.	c #848484",
"q.	c #898989",
"r.	c #262626",
"s.	c #656565",
"t.	c #A3A3A3",
"u.	c #707070",
"v.	c #505050",
"w.	c #181818",
"x.	c #FEFEFE",
"y.	c #B7B7B7",
"z.	c #8E8E8E",
"A.	c #747474",
"B.	c #D4D4D4",
"C.	c #696969",
"D.	c #BCBCBC",
"E.	c #222222",
"F.	c #0A0A0A",
"G.	c #7A7A7A",
"H.	c #121212",
"I.	c #D2D2D2",
"J.	c #242424",
"K.	c #303030",
"L.	c #CACACA",
"M.	c #F2F2F2",
"N.	c #595959",
"O.	c #8A8A8A",
"P.	c #6E6E6E",
"Q.	c #5B5B5B",
"R.	c #CECECE",
"S.	c #666666",
"T.	c #1A1A1A",
"U.	c #A1A1A1",
"V.	c #141414",
"W.	c #070707",
"X.	c #949494",
"Y.	c #4B4B4B",
"Z.	c #EEEEEE",
"`.	c #424242",
" +	c #D0D0D0",
".+	c #7F7F7F",
"++	c #414141",
"@+	c #C5C5C5",
"#+	c #818181",
"$+	c #858585",
"%+	c #1F1F1F",
"&+	c #EFEFEF",
"*+	c #B2B2B2",
"=+	c #A7A7A7",
"-+	c #ADADAD",
";+	c #4A4A4A",
">+	c #ABABAB",
",+	c #A2A2A2",
"'+	c #9F9F9F",
")+	c #BFBFBF",
"!+	c #9D9D9D",
"~+	c #717171",
"{+	c #B1B1B1",
"]+	c #939393",
"^+	c #B8B8B8",
"/+	c #AEAEAE",
"(+	c #3D3D3D",
"_+	c #E6E6E6",
":+	c #BDBDBD",
"<+	c #282828",
"[+	c #E2E2E2",
"}+	c #989898",
"|+	c #808080",
"1+	c #4F4F4F",
"2+	c #F7F7F7",
"3+	c #C3C3C3",
"4+	c #444444",
"5+	c #BEBEBE",
"6+	c #525252",
"7+	c #F8F8F8",
"8+	c #3B3B3B",
"9+	c #838383",
"0+	c #6C6C6C",
"a+	c #333333",
"b+	c #393939",
"c+	c #787878",
"d+	c #5A5A5A",
"e+	c #A0A0A0",
"f+	c #2E2E2E",
"g+	c #C2C2C2",
"h+	c #515151",
"i+	c #676767",
"j+	c #191919",
"k+	c #F4F4F4",
"l+	c #474747",
"m+	c #909090",
"n+	c #C4C4C4",
"o+	c #1E1E1E",
"p+	c #3A3A3A",
"q+	c #D7D7D7",
"r+	c #2B2B2B",
"s+	c #C6C6C6",
". . . . . . . . . . . . . . . . . . . . . . . . . . . . . . . . . . . . . . . . . . . . . . . . . . . . . . . . . . . . . . . . . . . . . . . ",
". . . . . . . . . . . . . . . . . . . . . . . . . . . . . . . . . . . . . . . . . . . . . . . . . . . . . . . . . . . . . . . . . . . . . . . ",
". . . . . . . . . . . . . . . . . . . . . . . . . . . . . . . . . . . . . . . . . . . . . . . . . . . . . . . . . . . . . . . . . . . . . . . ",
". . . . . . . . . . . . . . . . . . . . . . . . . . . . . . . . . . . . . . . . . . . . . . . . . . . . . . . . . . . . . . . . . . . . . . . ",
". . . . . . . . . . . . . . . . . . . . . . . . . . . . . . . . . . . . . . . . . . . . . . . . . . . . . . . . . . . . . . . . . . . . . . . ",
". . . . . . . . . . . . . . . . . . . . . . . . . . . . . . . . . . . . . . . . . . . . . . . . . . . . . . . . . . . . . . . . . . . . . . . ",
". . . . . . . . . . . . . . . . . . . . . . . . . . . . . . . . . . . . . . . . . . . . . . . . . . . . . . . . . . . . . . . . . . . . . . . ",
". . . . . . . . . . . . . . . . . . . + @ # . . . . . . $ % & . . . . . . . . . . . . . . . . . . . . . . . . . . . . . . . . . . . . . . . . ",
". . . . . . . . . . . . . . . . . . . * = - ; . . . . # > , ' . . . . . . . . . . . . . . . . . . . . . . . . . . . . . . . . . . . . . . . . ",
". . . . . . . . . . . . . . . . . . . ) , , ! # . . . ~ , , { ] . . . . . . . . . . . . . . . . . . . . . . . . . . . . . . . . . . . . . . . ",
". . . . . . . . . . . . . . . . . . . ^ , , , / . . . ( , , , ^ . . . . . . . . . . . . . . . . . . . . . . . . . . . . . . . . . . . . . . . ",
". . . . . . . . . . . . . . . . . . . _ = , , = : . < [ , , , [ } . . . . . . . . . . . . . . . . . . . . . . . . . . . . . . . . . . . . . . ",
". . . . . . . . . . . . . . . . . . . | 1 , , , 2 3 4 5 , , , , 6 7 . . . . . . . . . . . . . . . . . . . . . . . . . . . . . . . . . . . . . ",
". . . . . . . . . . . . . . . . . . . 8 9 , 0 a b 6 c d , , , , , e f g h 8 i 7 j . . . . . . . . . . . . . . . . . . . . . . . . . . . . . . ",
". . . . . . . . . . . . . . . . . . . k l m n o p q r s , , , , , , t u l 0 v w x y . . . . . . . . . . . . . . . . . . . . . . . . . . . . . ",
". . . . . . . . . . . . . . . . . . . r z A B . C D E , , , , , , v F c G H , , , I J p . . . . . . . . . . . . . . . . . . . . . . . . . . . ",
". . . . . . . . . . . . . . . . . . . K f L M i N O P , , , , , , Q R S T U ' ! H , u V ( W n k . . . . . . . . . . . . . . . . . . . . . . . ",
". . . . . . . . . . . . . . . . . . X Y Z , u ` , N = , , , , , , v  ...@ +.@.#.$.%.&., , , *.Q } . . . . . . . . . . . . . . . . . . . . . . ",
". . . . . . . . . . . . . . . . . . =., , , , , , , , , , , , , , , , , 1 x / -.;.@.>.,.'., V ).. . . . . . . . . . . . . . . . . . . . . . . ",
". . . . . . . . . . . . . . . . . !.~., , , , , , , , , , , , , , , , , , , , {.].^./.(._.:.&.<.[.f }.. . . . . . . . . . . . . . . . . . . . ",
". . . . . . . . . . . . . . . . . A |., , , , , , , , , , , , , , , , , , , , , , *.6 1.. 2.3., , d 4.5.6.. . . . . . . . . . . . . . . . . . ",
". . . . . . . . . . . . . . . . . ^ , , , , , , , , , , , , , , , , , 5  ., , , , , , x : 7.k 8., , , , 9.A . . . . . . . . . . . . . . . . . ",
". . . . . . . . . . . . . . . . . 0., , , , , |.a.5 '., , , , , , , , b.(.( , , , , , , , ..& c.d., e.( f.c.. . . . . . . . . . . . . . . . . ",
". . . . . . . . . . . . . . . . g.2 , , , Z ^ 2.h.h.i.H , , , , , , , a o j.= , , , , , , , M g c.8.d k.l.. . . . . . . . . . . . . . . . . . ",
". . . . . . . . . . . . . . . . f e., , m.n.o.O / p.q.w , , , , , , , r.k i t , , , , , , , , s./.J  ., ~.t.. . . . . . . . . . . . . . . . . ",
". . . . . . . . . . . . . . . k ]., , u.k b.( 5.v., {., , , , , , , , *.4 ] w., , , , , , , , , W x.y.r., 5 z.. . . . . . . . . . . . . . . . ",
". . . . . . . . . . . . . . . A., , ! B.C.=.(.. D.w , , , , , , , , , , u.T E., , , , , , , , , F.).. z.= , 1 G.. . . . . . . . . . . . . . . ",
". . . . . . . . . . . . . . >.s , , z.r H.' I.6.=., , , , , , , , , , , ,.c.J., <., , , , , , , , K.L.M.N., , = O.. . . . . . . . . . . . . . ",
". . . . . . . . . . . . . . F , , w 8 P., *.5 5 , , , , , , , , , , , , Q.R.5 b.J G , , , , , , , , S.@.2.T., , N l.. . . . . . . . . . . . . ",
". . . . . . . . . . . . . U.{., , , P V., , , , , , , , , , , , , , , , W @ {.* J l , , , , , , , , F.-.x.A.w.b f.< . . . . . . . . . . . . . ",
". . . . . . . . . . . . . 3., , , , , , , , , , , , , , , , , , , , , W.| C.5 R.X.'.Y Y., , , , , , , Y.Z.l.I C . . . . . . . . . . . . . . . ",
". . . . . . . . . . . . ).d , , , , , , , , , , , , , , , , , , , , , Z i r.z g `., P. +5 , , , , , , d 4 x.m.1 .+. . . . . . . . . . . . . . ",
". . . . . . . . . . . R ++, , , , , , , , , , , , , , , , , , , , , '.j.p.w.r f., t 1.f W., , , , , , , 3.M.@+w.= ) . . . . . . . . . . . . . ",
". . . . . . . . . . . #+, , , , , , , , , , , , , , , , , , , , , , 8.2.:.$+| %+, a &+d., , , , , , , , |.*++ %., 9 _ . . . . . . . . . . . . ",
". . . . . . . . . . r N , , , , , , , , , , , , , , , , , , , , , 1 N.b.#+2.! , J.U @ 9 , , , , , , , , , C.p =+{., %+-+. . . . . . . . . . . ",
". . . . . . . . . g ;+, , , , , , , , , , , , , , , , , , , , , , , K.>+,+<., G '+)+I , , , , , , , , , , G k & K., , `.T . . . . . . . . . . ",
". . . . . . . . . u., , , , , , , , , , , , , , , , , , , , , , , , ~.b w w a U | Z , , , , , , , , , , , *.!+x.~+G  .:.{+. . . . . . . . . . ",
". . . . . . . . D {., , , , , , , , , , , , , , , , , , , , , , , , { O ]+^+y.O s , , , , , , , , , , , , , 8.o /+(+{+_+. . . . . . . . . . . ",
". . . . . . . :+J., , , , , , , , , , , , , , , , , , , , '.<+~+:., I E P.].V., , , , , , , , , , , , , , , { T [+<+~.D.. . . . . . . . . . . ",
". . . . . . . 8., W., , , , , , , , , , , , , , , , > Z b }++.& <+, , , , , , , , , , , , , , , , , , , , , v r + z ,  .n.. . . . . . . . . . ",
". . . . . .  +w.(+5.w , , , , , , , , , , , , , , 5 =+. . . . X 9 , , , , , , , , , , , , , , , , , , , , , , |+. _., , Q./.. . . . . . . . . ",
". . . . . . -.{.j.& - , , , , , , , , , , , , , N _ . . . . . $+, , , , , , , , , , , , , , , , , , , , , , , 1+2+3+0 , , .+. . . . . . . . . ",
". . . . . . $+F.y.. | 4., , , , , , , , , , , c {+. . . . . . 4+, , , , , , , , , , , , , , , , , , , , , , , r.[+& 9.F., w.5+. . . . . . . . ",
". . . . . . .., m.&+!.3., 6+s.T., , , , , , u.j . . . . . . | t , , , , , , , , , , , , , , , , , , , , , , , 0 @+7+1+8+9+` * . . . . . . . . ",
". . . . . . 0+, , a+<., b+R . #+, , , , , c+. . . . . . . . N., , , , , , , , , , , , , , , , , , , , , , , , *.U.. c+v }+. . . . . . . . . . ",
". . . . . . .+, , , , , d+7.. ' , , , , k.. . . . . . . . }+W., , , , , , , , , , , , , , , , , , , , , , , , , 5.. e+*.4.# . . . . . . . . . ",
". . . . . . n 1 , , , , 8+k B 9., , , > 3+. . . . . . . 3+f+, , , , , , , , , , , , , , , , , , , , , , , , , , ,.o g+t , [.. . . . . . . . . ",
". . . . . . & ++, , , , ,  .h+, , , , i+. . . . . . . k 1+, , , , , , , , , , , , , , , , , , , , , , , , , , , 8+/.k > , V.; . . . . . . . . ",
". . . . . . . =+j+, , , , , , , , , |.{+. . . . . . . S., , , , , , , , , , , , , , , , , , , , , , , , , , , , { }.k+K., , i+. . . . . . . . ",
". . . . . . . . =+(+, , , , , , , , ( . . . . . . . G., , , , , , , , , , , , , , , , , , , , , , , , , , , , , w.J . l+V.5 G j . . . . . . . ",
". . . . . . . . . j : - , , , , , J.^+. . . . . . m+1 , , , , , , , , , , , , , , , , , , , , , , , , , , , , , t n+. 8.(+U.]+g.. . . . . . . ",
". . . . . . . . . . . 7 N.e.*.1 ~.e+. . . . . . f > , , , , , , , , , , , , , , , , , , , , , , , , , , , , , , d >.. =., c+. . . . . . . . . ",
". . . . . . . . . . . . . @+$.*+j . . . . . . 6.! , , , , , , , , , , , , , , , , , , , , , , , , , , , , , , , '.U.. : , 5 U . . . . . . . . ",
". . . . . . . . . . . . . . . . . . . . . . . i+, , , , , , , , , , , , , , , , , , , , , , , , , , , , , , , , , m+. e+*., Q.. . . . . . . . ",
". . . . . . . . . . . . . . . . . . . . . . n t , , , , , , , , , , , , , , , , , , , , , , , , , , , , , , , , , #+. | 1 , F.>+. . . . . . . ",
". . . . . . . . . . . . . . . . . . . . . . h+, , , , , , , , , , , , , , , , , , , , , , , , , , , , , , , , , , y . 5+|.'., 8.. . . . . . . ",
". . . . . . . . . . . . . . . . . . . . . r 9 , , , , , , , , , , , , , , , , , , , , , , , , , , , , , , , , , , [.. @+o+N.%.a & . . . . . . ",
". . . . . . . . . . . . . . . . . . . . . .., , , , , , , , , , , , , , , , , , , , , , , , , , , , , , , , , , , M . R.Y F + Z.. . . . . . . ",
". . . . . . . . . . . . . . . . . . . . + p+, , , , , , , , , , , , , , , , , , , , , , , , , , , , , , , , , , , a . B.5 {.-.. . . . . . . . ",
". . . . . . . . . . . . . . . . . . . . +.l , , , , , , , , , , , , , , , , , , , , , , , , , , , , , , , , , , , 6 . q+w., a . . . . . . . . ",
". . . . . . . . . . . . . . . . . . . . n+t , , , , , , , , , , , , , , , , , , , , , , , , , , , , , , , , , , , 6+. +.T., > h . . . . . . . ",
". . . . . . . . . . . . . . . . . . . . X r+E.E.E.E.E.E.E.E.E.E.E.E.E.E.E.E.E.E.E.E.E.E.E.E.E.E.E.E.E.E.E.E.E.E.E.O . h (+E.[ s+. . . . . . . ",
". . . . . . . . . . . . . . . . . . . . . R R R R R R R R R R R R R R R R R R R R R R R R R R R R R R R R R R R R g.. . R R R . . . . . . . . ",
". . . . . . . . . . . . . . . . . . . . . . . . . . . . . . . . . . . . . . . . . . . . . . . . . . . . . . . . . . . . . . . . . . . . . . . ",
". . . . . . . . . . . . . . . . . . . . . . . . . . . . . . . . . . . . . . . . . . . . . . . . . . . . . . . . . . . . . . . . . . . . . . . ",
". . . . . . . . . . . . . . . . . . . . . . . . . . . . . . . . . . . . . . . . . . . . . . . . . . . . . . . . . . . . . . . . . . . . . . . ",
". . . . . . . . . . . . . . . . . . . . . . . . . . . . . . . . . . . . . . . . . . . . . . . . . . . . . . . . . . . . . . . . . . . . . . . ",
". . . . . . . . . . . . . . . . . . . . . . . . . . . . . . . . . . . . . . . . . . . . . . . . . . . . . . . . . . . . . . . . . . . . . . . ",
". . . . . . . . . . . . . . . . . . . . . . . . . . . . . . . . . . . . . . . . . . . . . . . . . . . . . . . . . . . . . . . . . . . . . . . ",
". . . . . . . . . . . . . . . . . . . . . . . . . . . . . . . . . . . . . . . . . . . . . . . . . . . . . . . . . . . . . . . . . . . . . . . ",
". . . . . . . . . . . . . . . . . . . . . . . . . . . . . . . . . . . . . . . . . . . . . . . . . . . . . . . . . . . . . . . . . . . . . . . "};
