/* XPM */
static char * nwbp_xpm[] = {
"71 71 147 2",
"  	c None",
". 	c #FFFFFF",
"+ 	c #E6E6E6",
"@ 	c #B6B6B6",
"# 	c #9A9A9A",
"$ 	c #999999",
"% 	c #BABABA",
"& 	c #E8E8E8",
"* 	c #A5A5A5",
"= 	c #3D3D3D",
"- 	c #070707",
"; 	c #000000",
"> 	c #090909",
", 	c #444444",
"' 	c #A9A9A9",
") 	c #A7A7A7",
"! 	c #1F1F1F",
"~ 	c #202020",
"{ 	c #AEAEAE",
"] 	c #ECECEC",
"^ 	c #464646",
"/ 	c #515151",
"( 	c #F2F2F2",
"_ 	c #C6C6C6",
": 	c #0E0E0E",
"< 	c #131313",
"[ 	c #CECECE",
"} 	c #B3B3B3",
"| 	c #060606",
"1 	c #0A0A0A",
"2 	c #BFBFBF",
"3 	c #C3C3C3",
"4 	c #0D0D0D",
"5 	c #111111",
"6 	c #CACACA",
"7 	c #3E3E3E",
"8 	c #484848",
"9 	c #EDEDED",
"0 	c #A4A4A4",
"a 	c #1D1D1D",
"b 	c #222222",
"c 	c #ABABAB",
"d 	c #6C6C6C",
"e 	c #767676",
"f 	c #DEDEDE",
"g 	c #4F4F4F",
"h 	c #555555",
"i 	c #E1E1E1",
"j 	c #5F5F5F",
"k 	c #646464",
"l 	c #E9E9E9",
"m 	c #727272",
"n 	c #F8F8F8",
"o 	c #737373",
"p 	c #7E7E7E",
"q 	c #FDFDFD",
"r 	c #7C7C7C",
"s 	c #7F7F7F",
"t 	c #828282",
"u 	c #838383",
"v 	c #080808",
"w 	c #8F8F8F",
"x 	c #D0D0D0",
"y 	c #050505",
"z 	c #2B2B2B",
"A 	c #D8D8D8",
"B 	c #F7F7F7",
"C 	c #B9B9B9",
"D 	c #9C9C9C",
"E 	c #2A2A2A",
"F 	c #2F2F2F",
"G 	c #9FA09F",
"H 	c #BBBBBB",
"I 	c #4C4C4C",
"J 	c #FAFAFA",
"K 	c #C8C8C8",
"L 	c #242424",
"M 	c #D2D2D2",
"N 	c #FCFCFC",
"O 	c #040404",
"P 	c #1A1A1A",
"Q 	c #9E9E9E",
"R 	c #252525",
"S 	c #575757",
"T 	c #F3F3F3",
"U 	c #B2B2B2",
"V 	c #898989",
"W 	c #5C5C5C",
"X 	c #6D6D6D",
"Y 	c #6E6E6E",
"Z 	c #878787",
"` 	c #919191",
" .	c #C4C4C4",
"..	c #191919",
"+.	c #212121",
"@.	c #7A7A7A",
"#.	c #858585",
"$.	c #E7E7E7",
"%.	c #626262",
"&.	c #030303",
"*.	c #0F0F0F",
"=.	c #828382",
"-.	c #F5F5F5",
";.	c #787878",
">.	c #FDFFFD",
",.	c #0C0C0C",
"'.	c #C2C2C2",
").	c #979797",
"!.	c #616161",
"~.	c #A0A0A0",
"{.	c #0B0B0B",
"].	c #101010",
"^.	c #ACACAC",
"/.	c #363636",
"(.	c #3C3C3C",
"_.	c #C1C1C1",
":.	c #BCBCBC",
"<.	c #3F3F3F",
"[.	c #414141",
"}.	c #BEBEBE",
"|.	c #9F9F9F",
"1.	c #2C2C2C",
"2.	c #343434",
"3.	c #1E1E1E",
"4.	c #AFAFAF",
"5.	c #CBCBCB",
"6.	c #404040",
"7.	c #D5D5D5",
"8.	c #FBFBFB",
"9.	c #6A6A6A",
"0.	c #B5B5B5",
"a.	c #181818",
"b.	c #676767",
"c.	c #707070",
"d.	c #DBDBDB",
"e.	c #232323",
"f.	c #E3E3E3",
"g.	c #B4B4B4",
"h.	c #7B7B7B",
"i.	c #595959",
"j.	c #F4F4F4",
"k.	c #454545",
"l.	c #F9F9F9",
"m.	c #686868",
"n.	c #717271",
"o.	c #E5E5E5",
"p.	c #EBEBEB",
". . . . . . . . . . . . . . . . . . . . . . . . . . . . . . . . . . . . . . . . . . . . . . . . . . . . . . . . . . . . . . . . . . . . . . . ",
". . . . . . . . . . . . . . . . . . . . . . . . . . . . . . . . . . . . . . . . . . . . . . . . . . . . . . . . . . . . . . . . . . . . . . . ",
". . . . . . . . . . . . . . . . . . . . . . . . . . . . . . . . . . . . . . . . . . . . . . . . . . . . . . . . . . . . . . . . . . . . . . . ",
". . . . . . . . . . . . . . . . . . . . . . . . . . . . . . . . . . . . . . . . . . . . . . . . . . . . . . . . . . . . . . . . . . . . . . . ",
". . . . . . . . . . . . . . . . . . . . . . . . . . . . . . . . . . . . . . . . . . . . . . . . . . . . . . . . . . . . . . . . . . . . . . . ",
". . . . . . . . . . . . . . . . . . . . . . . . . . . . . . . . . . . . . . . . . . . . . . . . . . . . . . . . . . . . . . . . . . . . . . . ",
". . . . . . . . . . . . . . . . . . . . . . . . . . . . . . . . . + @ # $ % & . . . . . . . . . . . . . . . . . . . . . . . . . . . . . . . . ",
". . . . . . . . . . . . . . . . . . . . . . . . . . . . . . . . * = - ; ; > , ' . . . . . . . . . . . . . . . . . . . . . . . . . . . . . . . ",
". . . . . . . . . . . . . . . . . . . . . . . . . . . . . . . ) ! ; ; ; ; ; ; ~ { . . . . . . . . . . . . . . . . . . . . . . . . . . . . . . ",
". . . . . . . . . . . . . . . . . . . . . . . . . . . . . . ] ^ ; ; ; ; ; ; ; ; / ( . . . . . . . . . . . . . . . . . . . . . . . . . . . . . ",
". . . . . . . . . . . . . . . . . . . . . . . . . . . . . . _ : ; ; ; ; ; ; ; ; < [ . . . . . . . . . . . . . . . . . . . . . . . . . . . . . ",
". . . . . . . . . . . . . . . . . . . . . . . . . . . . . . } | ; ; ; ; ; ; ; ; 1 2 . . . . . . . . . . . . . . . . . . . . . . . . . . . . . ",
". . . . . . . . . . . . . . . . . . . . . . . . . . . . . . 3 4 ; ; ; ; ; ; ; ; 5 6 . . . . . . . . . . . . . . . . . . . . . . . . . . . . . ",
". . . . . . . . . . . . . . . . . . . . . . . . . . . . . . & 7 ; ; ; ; ; ; ; ; 8 9 . . . . . . . . . . . . . . . . . . . . . . . . . . . . . ",
". . . . . . . . . . . . . . . . . . . . . . . . . . . . . . . 0 a ; ; ; ; ; ; b c . . . . . . . . . . . . . . . . . . . . . . . . . . . . . . ",
". . . . . . . . . . . . . . . . . . . . . . . . . . . . . . . . d ; ; ; ; ; ; e . . . . . . . . . . . . . . . . . . . . . . . . . . . . . . . ",
". . . . . . . . . . . . . . . . . . . . . . . . . . . . . . . f g ; ; ; ; ; ; h i . . . . . . . . . . . . . . . . . . . . . . . . . . . . . . ",
". . . . . . . . . . . . . . . . . . . . . . . . . . . . . . i j ; ; ; ; ; ; ; ; k l . . . . . . . . . . . . . . . . . . . . . . . . . . . . . ",
". . . . . . . . . . . . . . . . . . . . . . . . . . . . . l k ; ; ; ; ; ; ; ; ; ; m n . . . . . . . . . . . . . . . . . . . . . . . . . . . . ",
". . . . . . . . . . . . . . . . . . . . . . . . . . . . n o ; ; ; ; ; ; ; ; ; ; ; ; p . . . . . . . . . . . . . . . . . . . . . . . . . . . . ",
". . . . . . . . . . . . . . . . . . . . . . . . . . . q r ; ; ; ; ; ; ; ; ; ; ; ; ; ; s . . . . . . . . . . . . . . . . . . . . . . . . . . . ",
". . . . . . . . . . . . . . . . . . . . . . . . . . . p ; ; ; ; ; ; ; ; ; ; ; ; ; ; ; ; t . . . . . . . . . . . . . . . . . . . . . . . . . . ",
". . . . . . . . . . . . . . . . . . . . . . . . . . u ; ; ; ; ; ; ; ; ; ; ; ; ; ; ; ; ; v w . . . . . . . . . . . . . . . . . . . . . . . . . ",
". . . . . . . . . . . . . . . . . . . . . . . . . x ! | | y ; ; ; ; ; ; ; ; ; ; ; ; y | | z A . . . . . . . . . . . . . . . . . . . . . . . . ",
". . . . . . . . . . . . . . . . . . . . . . . . . B C } } D E ; ; ; ; ; ; ; ; ; ; F G } } H q . . . . . . . . . . . . . . . . . . . . . . . . ",
". . . . . . . . . . . . . . . . . . . . . . . . . . . . . B , ; ; ; ; ; ; ; ; ; ; I J . . . . . . . . . . . . . . . . . . . . . . . . . . . . ",
". . . . . . . . . . . . . . . . . . . . . . . . . . . . . K a ; ; ; ; ; ; ; ; ; ; L M . . . . . . . . . . . . . . . . . . . . . . . . . . . . ",
". . . . . . . . . . . . . . . . . . . . . . . . . . . . N d ; ; ; ; ; ; ; ; ; ; ; ; o . . . . . . . . . . . . . . . . . . . . . . . . . . . . ",
". . . . . . . . . . . . . . . . . . . . . . . . . . . . w O ; ; ; ; ; ; ; ; ; ; ; ; 1 $ . . . . . . . . . . . . . . . . . . . . . . . . . . . ",
". . . . . . . . . . . . . . . . . . . . . . . . . . . D P ; ; ; ; ; ; ; ; ; ; ; ; ; ; ~ Q . . . . . . . . . . . . . . . . . . . . . . . . . . ",
". . . . . . . . . . . . . . . . . . . . . . . . . . { ! ; ; ; ; ; ; ; ; ; ; ; ; ; ; ; ; R @ . . . . . . . . . . . . . . . . . . . . . . . . . ",
". . . . . . . . . . . . . . . . . . . . . . . . . 9 I ; ; ; ; ; ; ; ; ; ; ; ; ; ; ; ; ; ; S T . . . . . . . . . . . . . . . . . . . . . . . . ",
". . . . . . . . . . . . . . . . . . . . . . . . . U v ; ; ; ; ; ; ; ; ; ; ; ; ; ; ; ; ; ; : H . . . . . . . . . . . . . . . . . . . . . . . . ",
". . . . . . . . . . . . . . . . . . . . . . . . . p ; ; ; ; ; ; ; ; ; ; ; ; ; ; ; ; ; ; ; ; V . . . . . . . . . . . . . . . . . . . . . . . . ",
". . . . . . . . . . . . . . . . . . . . . . . . J W ; ; ; ; ; ; ; ; ; ; ; ; ; ; ; ; ; ; ; ; X . . . . . . . . . . . . . . . . . . . . . . . . ",
". . . . . . . . . . . . . . . . . . . . . . . . J j ; ; ; ; ; ; ; ; ; ; ; ; ; ; ; ; ; ; ; ; Y . . . . . . . . . . . . . . . . . . . . . . . . ",
". . . . . . . . . . . . . . . . . . . . . . . . . Z ; ; ; ; ; ; ; ; ; ; ; ; ; ; ; ; ; ; ; ; ` . . . . . . . . . . . . . . . . . . . . . . . . ",
". . . . . . . . . . . . . . . . . . . . . . . . .  ...; ; ; ; ; ; ; ; ; ; ; ; ; ; ; ; ; ; +.[ . . . . . . . . . . . . . . . . . . . . . . . . ",
". . . . . . . . . . . . . . . . . . . . . . . . . . @.; ; ; ; ; ; ; ; ; ; ; ; ; ; ; ; ; ; #.. . . . . . . . . . . . . . . . . . . . . . . . . ",
". . . . . . . . . . . . . . . . . . . . . . . . . . $.%.; ; ; ; ; ; ; ; ; ; ; ; ; ; ; ; Y ( . . . . . . . . . . . . . . . . . . . . . . . . . ",
". . . . . . . . . . . . . . . . . . . . . . . . . . . ] r &.; ; ; ; ; ; ; ; ; ; ; ; *.=.-.. . . . . . . . . . . . . . . . . . . . . . . . . . ",
". . . . . . . . . . . . . . . . . . . . . . . . . . . . . ;.; ; ; ; ; ; ; ; ; ; ; ; #.>.. . . . . . . . . . . . . . . . . . . . . . . . . . . ",
". . . . . . . . . . . . . . . . . . . . . . . . . . . . . % ,.; ; ; ; ; ; ; ; ; ; 4 '.. . . . . . . . . . . . . . . . . . . . . . . . . . . . ",
". . . . . . . . . . . . . . . . . . . . . . . . . . . . . ).&.; ; ; ; ; ; ; ; ; ; y * . . . . . . . . . . . . . . . . . . . . . . . . . . . . ",
". . . . . . . . . . . . . . . . . . . . . . . . . . . . B S ; ; ; ; ; ; ; ; ; ; ; ; !.J . . . . . . . . . . . . . . . . . . . . . . . . . . . ",
". . . . . . . . . . . . . . . . . . . . . . . . . . . . ~.{.; ; ; ; ; ; ; ; ; ; ; ; ].^.. . . . . . . . . . . . . . . . . . . . . . . . . . . ",
". . . . . . . . . . . . . . . . . . . . . . . . . . . 2 /.; ; ; ; ; ; ; ; ; ; ; ; ; ; (._.. . . . . . . . . . . . . . . . . . . . . . . . . . ",
". . . . . . . . . . . . . . . . . . . . . . . . . . :.<.; ; ; ; ; ; ; ; ; ; ; ; ; ; ; ; [.}.. . . . . . . . . . . . . . . . . . . . . . . . . ",
". . . . . . . . . . . . . . . . . . . . . . . . . |.1.; ; ; ; ; ; ; ; ; ; ; ; ; ; ; ; ; ; 2.* . . . . . . . . . . . . . . . . . . . . . . . . ",
". . . . . . . . . . . . . . . . . . . . . . . . |.3.; ; ; ; ; ; ; ; ; ; ; ; ; ; ; ; ; ; ; ; ! ~.. . . . . . . . . . . . . . . . . . . . . . . ",
". . . . . . . . . . . . . . . . . . . . . . . 0 3.; ; ; ; ; ; ; ; ; ; ; ; ; ; ; ; ; ; ; ; ; ; b 4.. . . . . . . . . . . . . . . . . . . . . . ",
". . . . . . . . . . . . . . . . . . . . . . 5.2.; ; ; ; ; ; ; ; ; ; ; ; ; ; ; ; ; ; ; ; ; ; ; ; 6.7.. . . . . . . . . . . . . . . . . . . . . ",
". . . . . . . . . . . . . . . . . . . . . 8.9.; ; ; ; ; ; ; ; ; ; ; ; ; ; ; ; ; ; ; ; ; ; ; ; ; ; m . . . . . . . . . . . . . . . . . . . . . ",
". . . . . . . . . . . . . . . . . . . . . 0.].; ; ; ; ; ; ; ; ; ; ; ; ; ; ; ; ; ; ; ; ; ; ; ; ; ; a.2 . . . . . . . . . . . . . . . . . . . . ",
". . . . . . . . . . . . . . . . . . . . 8.b.; ; ; ; ; ; ; ; ; ; ; ; ; ; ; ; ; ; ; ; ; ; ; ; ; ; ; ; c.q . . . . . . . . . . . . . . . . . . . ",
". . . . . . . . . . . . . . . . . . . . d.e.; ; ; ; ; ; ; ; ; ; ; ; ; ; ; ; ; ; ; ; ; ; ; ; ; ; ; ; z f.. . . . . . . . . . . . . . . . . . . ",
". . . . . . . . . . . . . . . . . . . . ' y ; ; ; ; ; ; ; ; ; ; ; ; ; ; ; ; ; ; ; ; ; ; ; ; ; ; ; ; v g.. . . . . . . . . . . . . . . . . . . ",
". . . . . . . . . . . . . . . . . . . . h.; ; ; ; ; ; ; ; ; ; ; ; ; ; ; ; ; ; ; ; ; ; ; ; ; ; ; ; ; ; V . . . . . . . . . . . . . . . . . . . ",
". . . . . . . . . . . . . . . . . . . J i.; ; ; ; ; ; ; ; ; ; ; ; ; ; ; ; ; ; ; ; ; ; ; ; ; ; ; ; ; ; k N . . . . . . . . . . . . . . . . . . ",
". . . . . . . . . . . . . . . . . . . j.k.; ; ; ; ; ; ; ; ; ; ; ; ; ; ; ; ; ; ; ; ; ; ; ; ; ; ; ; ; ; / l.. . . . . . . . . . . . . . . . . . ",
". . . . . . . . . . . . . . . . . . . T <.; ; ; ; ; ; ; ; ; ; ; ; ; ; ; ; ; ; ; ; ; ; ; ; ; ; ; ; ; ; I B . . . . . . . . . . . . . . . . . . ",
". . . . . . . . . . . . . . . . . . . n m.R R R R R R R R R R R R R R R R R R R R R R R R R R R R R R n.8.. . . . . . . . . . . . . . . . . . ",
". . . . . . . . . . . . . . . . . . . . l o.o.o.o.o.o.o.o.o.o.o.o.o.o.o.o.o.o.o.o.o.o.o.o.o.o.o.o.o.o.p.. . . . . . . . . . . . . . . . . . . ",
". . . . . . . . . . . . . . . . . . . . . . . . . . . . . . . . . . . . . . . . . . . . . . . . . . . . . . . . . . . . . . . . . . . . . . . ",
". . . . . . . . . . . . . . . . . . . . . . . . . . . . . . . . . . . . . . . . . . . . . . . . . . . . . . . . . . . . . . . . . . . . . . . ",
". . . . . . . . . . . . . . . . . . . . . . . . . . . . . . . . . . . . . . . . . . . . . . . . . . . . . . . . . . . . . . . . . . . . . . . ",
". . . . . . . . . . . . . . . . . . . . . . . . . . . . . . . . . . . . . . . . . . . . . . . . . . . . . . . . . . . . . . . . . . . . . . . ",
". . . . . . . . . . . . . . . . . . . . . . . . . . . . . . . . . . . . . . . . . . . . . . . . . . . . . . . . . . . . . . . . . . . . . . . ",
". . . . . . . . . . . . . . . . . . . . . . . . . . . . . . . . . . . . . . . . . . . . . . . . . . . . . . . . . . . . . . . . . . . . . . . ",
". . . . . . . . . . . . . . . . . . . . . . . . . . . . . . . . . . . . . . . . . . . . . . . . . . . . . . . . . . . . . . . . . . . . . . . ",
". . . . . . . . . . . . . . . . . . . . . . . . . . . . . . . . . . . . . . . . . . . . . . . . . . . . . . . . . . . . . . . . . . . . . . . "};
