/* XPM */
static char * nwbr_xpm[] = {
"71 71 226 2",
"  	c None",
". 	c #FFFFFF",
"+ 	c #FBFBFB",
"@ 	c #F7F7F7",
"# 	c #F5F5F5",
"$ 	c #F4F4F4",
"% 	c #CFCFCF",
"& 	c #C3C3C3",
"* 	c #C0C0C0",
"= 	c #B7B7B7",
"- 	c #B1B1B1",
"; 	c #C1C1C1",
"> 	c #C4C4C4",
", 	c #D1D1D1",
"' 	c #F9F9F9",
") 	c #F1F1F1",
"! 	c #FDFDFD",
"~ 	c #E3E3E3",
"{ 	c #B3B4B3",
"] 	c #9A9A9A",
"^ 	c #808080",
"/ 	c #6B6B6B",
"( 	c #595959",
"_ 	c #4D4D4D",
": 	c #535353",
"< 	c #D0D0D0",
"[ 	c #A9A9A9",
"} 	c #161616",
"| 	c #0C0C0C",
"1 	c #0B0B0B",
"2 	c #080808",
"3 	c #060606",
"4 	c #1E1E1E",
"5 	c #BDBDBD",
"6 	c #C2C2C2",
"7 	c #444444",
"8 	c #424242",
"9 	c #505050",
"0 	c #646464",
"a 	c #7D7D7D",
"b 	c #989898",
"c 	c #B4B4B4",
"d 	c #E6E6E6",
"e 	c #8B8B8B",
"f 	c #070707",
"g 	c #010101",
"h 	c #000000",
"i 	c #A3A3A3",
"j 	c #020202",
"k 	c #090909",
"l 	c #BCBCBC",
"m 	c #A5A5A5",
"n 	c #040404",
"o 	c #959595",
"p 	c #838383",
"q 	c #999999",
"r 	c #8C8C8C",
"s 	c #919191",
"t 	c #7F7F7F",
"u 	c #A2A2A2",
"v 	c #BBBBBB",
"w 	c #727272",
"x 	c #2E2E2E",
"y 	c #6C6C6C",
"z 	c #454545",
"A 	c #030303",
"B 	c #525252",
"C 	c #292929",
"D 	c #121212",
"E 	c #101010",
"F 	c #939393",
"G 	c #CECECE",
"H 	c #8A8A8A",
"I 	c #FEFEFE",
"J 	c #F2F2F2",
"K 	c #EAEAEA",
"L 	c #E0E0E0",
"M 	c #DADADA",
"N 	c #D7D7D7",
"O 	c #D4D4D4",
"P 	c #D2D2D2",
"Q 	c #D3D3D3",
"R 	c #D6D6D6",
"S 	c #D9D9D9",
"T 	c #DCDCDC",
"U 	c #E4E4E4",
"V 	c #E7E7E7",
"W 	c #EEEEEE",
"X 	c #F3F3F3",
"Y 	c #FCFCFC",
"Z 	c #A4A4A4",
"` 	c #BABABA",
" .	c #A1A1A1",
"..	c #878787",
"+.	c #6F6F6F",
"@.	c #5A5A5A",
"#.	c #484848",
"$.	c #3B3B3B",
"%.	c #282828",
"&.	c #212121",
"*.	c #1B1B1B",
"=.	c #181818",
"-.	c #151515",
";.	c #131313",
">.	c #141414",
",.	c #171717",
"'.	c #191919",
").	c #1D1D1D",
"!.	c #242424",
"~.	c #333333",
"{.	c #3E3E3E",
"].	c #4C4C4C",
"^.	c #5E5E5E",
"/.	c #747474",
"(.	c #929292",
"_.	c #202020",
":.	c #0A0A0A",
"<.	c #1F1F1F",
"[.	c #9B9B9B",
"}.	c #DEDEDE",
"|.	c #B8B8B8",
"1.	c #2A2A2A",
"2.	c #BFBFBF",
"3.	c #9E9E9E",
"4.	c #050505",
"5.	c #0D0D0D",
"6.	c #828282",
"7.	c #868686",
"8.	c #979797",
"9.	c #B0B0B0",
"0.	c #C6C6C6",
"a.	c #D5D5D5",
"b.	c #CDCDCD",
"c.	c #969696",
"d.	c #858585",
"e.	c #3C3C3C",
"f.	c #F6F6F6",
"g.	c #616161",
"h.	c #FAFAFA",
"i.	c #E8E8E8",
"j.	c #D8D8D8",
"k.	c #E9E9E9",
"l.	c #909090",
"m.	c #9C9C9C",
"n.	c #4E4E4E",
"o.	c #3D3D3D",
"p.	c #373737",
"q.	c #2F2F2F",
"r.	c #B3B3B3",
"s.	c #DDDDDD",
"t.	c #383838",
"u.	c #414141",
"v.	c #B2B2B2",
"w.	c #303030",
"x.	c #494949",
"y.	c #5F5F5F",
"z.	c #6D6D6D",
"A.	c #434343",
"B.	c #A8A8A8",
"C.	c #ABABAB",
"D.	c #272727",
"E.	c #AAAAAA",
"F.	c #1A1A1A",
"G.	c #2C2C2C",
"H.	c #585858",
"I.	c #3F3F3F",
"J.	c #474747",
"K.	c #636363",
"L.	c #C5C5C5",
"M.	c #B6B6B6",
"N.	c #545454",
"O.	c #777777",
"P.	c #7B7B7B",
"Q.	c #9F9F9F",
"R.	c #E5E5E5",
"S.	c #252525",
"T.	c #262626",
"U.	c #5C5C5C",
"V.	c #848484",
"W.	c #6A6A6A",
"X.	c #4B4B4B",
"Y.	c #656565",
"Z.	c #E1E1E1",
"`.	c #767676",
" +	c #4A4A4A",
".+	c #A0A0A0",
"++	c #DFDFDF",
"@+	c #F8F8F8",
"#+	c #757575",
"$+	c #ADADAD",
"%+	c #7E7E7E",
"&+	c #4F4F4F",
"*+	c #EBEBEB",
"=+	c #AEAEAE",
"-+	c #6E6E6E",
";+	c #0E0E0E",
">+	c #323232",
",+	c #AFAFAF",
"'+	c #EDEDED",
")+	c #BEBEBE",
"!+	c #ECECEC",
"~+	c #949494",
"{+	c #F0F0F0",
"]+	c #DBDBDB",
"^+	c #EFEFEF",
"/+	c #2B2B2B",
"(+	c #1C1C1C",
"_+	c #232323",
":+	c #626262",
"<+	c #717171",
"[+	c #7A7A7A",
"}+	c #CCCCCC",
"|+	c #313131",
"1+	c #555555",
"2+	c #393939",
"3+	c #666666",
"4+	c #B5B5B5",
"5+	c #CACACA",
"6+	c #5B5B5B",
"7+	c #5D5D5D",
"8+	c #515151",
"9+	c #C8C8C8",
"0+	c #232423",
"a+	c #7C7C7C",
"b+	c #2D2D2D",
"c+	c #404040",
". . . . . . . . . . . . . . . . . . . . . . . . . . . . . . . . . . . . . . . . . . . . . . . . . . . . . . . . . . . . . . . . . . . . . . . ",
". . . . . . . . . . . . . . . . . . . . . . . . . . . . . . . . . . . . . . . . . . . . . . . . . . . . . . . . . . . . . . . . . . . . . . . ",
". . . . . . . . . . . . . . . . . . . . . . . . . . . . . . . . . . . . . . . . . . . . . . . . . . . . . . . . . . . . . . . . . . . . . . . ",
". . . . . . . . . . . . . . . . . . . . . . . . . . . . . . . . . . . . . . . . . . . . . . . . . . . . . . . . . . . . . . . . . . . . . . . ",
". . . . . . . . . . . . . . . . . . . . . + @ # . . . . . . $ % & * = - - = ; > , ' . . . . . . ) $ ' ! . . . . . . . . . . . . . . . . . . . ",
". . . . . . . . . . . . . . . . ~ { ] ^ / ( _ : < . . . . . [ } | 1 2 3 3 2 1 | 4 5 . . . . . 6 7 8 9 0 a b c d . . . . . . . . . . . . . . . ",
". . . . . . . . . . . . . . . . e f g h h h h 3 c . . . . . i j h h h h h h h h k l . . . . . m n h h h h g 2 o . . . . . . . . . . . . . . . ",
". . . . . . . . . . . . . . . . p h h h h h h g q . . . . . i j h h h h h h h h k l . . . . . r h h h h h h h s . . . . . . . . . . . . . . . ",
". . . . . . . . . . . . . . . . p h h h h h h h t . ! ! ! ! u j h h h h h h h h k v ! ! ! ! ! w h h h h h h h s . . . . . . . . . . . . . . . ",
". . . . . . . . . . . . . . . . p h h h h h h h x y y y y y z h h h h h h h h h A B y y y y y C h h h h h h h s . . . . . . . . . . . . . . . ",
". . . . . . . . . . . . . . . . p h D D D D D D D D D D D D D D D D D D D D D D D D D D D D D D D D D D D E h s . . . . . . . . . . . . . . . ",
". . . . . . . . . . . . . . . . p k F G G G G G G G G G G G G G G G G G G G G G G G G G G G G G G G G G G H 3 s . . . . . . . . . . . . . . . ",
". . . . . . . . . . . . . . . . p k 5 . . . . . . . . . . . . . . . . . . . . . . . . . . . . . . . . . . - 3 s . . . . . . . . . . . . . . . ",
". . . . . . . . . . . . . . . . p k 5 . . . . I + @ J K d L M N O P < < < , Q R S T U V W X ' Y . . . . . - 3 s . . . . . . . . . . . . . . . ",
". . . . . . . . . . . . . . . . p k Z , `  ...+.@.#.$.x %.&.*.=.} -.;.;.;.>.-.,.'.).!.C ~.{.].^./.e Z l Q ] 3 s . . . . . . . . . . . . . . . ",
". . . . . . . . . . . . . . . . (.h _.} :.A h h h h h h h h h h h h h h h h h h h h h h h h h h h h A 1 ,.<.h [.. . . . . . . . . . . . . . . ",
". . . . . . . . . . . . . . . . O 7 h h h h h h h h h h h h h h h h h h h h h h h h h h h h h h h h h h h h ].}.. . . . . . . . . . . . . . . ",
". . . . . . . . . . . . . . . . . |.1.h h h h h h h h h h h h h h h h h h h h h h h h h h h h h h h h h h ~.2.. . . . . . . . . . . . . . . . ",
". . . . . . . . . . . . . . . . . . 3.D h h h h h g A 4.:.1 5.D } } ,.,.,.,.} } D 5.1 :.n A h h h h h h *.i . . . . . . . . . . . . . . . . . ",
". . . . . . . . . . . . . . . . . . . 6.h h #./.7.8.m 9.5 & 0.G O a.a.R R a.a.O b.0.& 5 9.m c.d./.e.h h r . . . . . . . . . . . . . . . . . . ",
". . . . . . . . . . . . . . . . . . . f.g.A [ I Y h.@ J ) i.+ . j.N N N N N N j.. h.k.) X @ h.Y I l.h +.. . . . . . . . . . . . . . . . . . . ",
". . . . . . . . . . . . . . . . . . . . m.A n.y ^.: #.o.p.q.r.s.t.=.=.,.,.=.=.u.V v.w.t.o.x.: y.z.A.4.B.. . . . . . . . . . . . . . . . . . . ",
". . . . . . . . . . . . . . . . . . . .  .j h h h h h h h A C.s.4 h h h h h h D.V E.A h h h h h h h n C.. . . . . . . . . . . . . . . . . . . ",
". . . . . . . . . . . . . . . . . . . .  .j h h h h h h h A C.s.4 h h h h h h D.V E.A h h h h h h h n C.. . . . . . . . . . . . . . . . . . . ",
". . . . . . . . . . . . . . . . . . . .  .j h A 2 5.>.F.&.G.c L H.I.z J.J.z I.y.V r.G._.'.>.| 2 A h n C.. . . . . . . . . . . . . . . . . . . ",
". . . . . . . . . . . . . . . . . . . .  .3 K.i = L., S L V + . X $ f.@ @ f.$ X . + V L j.< > M.u N.4.C.. . . . . . . . . . . . . . . . . . . ",
". . . . . . . . . . . . . . . . . . . .  .3 m.U S M . < E.3.s H t O.^ ~ T P.O.^ e (.Q.E.j.. j.S R...4.C.. . . . . . . . . . . . . . . . . . . ",
". . . . . . . . . . . . . . . . . . . .  .j S.T.F.U.@ /.A j h h h h ;.% & 1 h h h h j A 7.X 9 F.T.<.n C.. . . . . . . . . . . . . . . . . . . ",
". . . . . . . . . . . . . . . . . . . .  .j h h h #.@ +.h h h h h h ;.% & 1 h h h h h h V.X $.h h h n C.. . . . . . . . . . . . . . . . . . . ",
". . . . . . . . . . . . . . . . . . . .  .j h h h #.@ +.h h h h h h ;.% & 1 h h h h h h V.X $.h h h n C.. . . . . . . . . . . . . . . . . . . ",
". . . . . . . . . . . . . . . . . . . .  .j h h h #.@ +.h h h h h h ;.% & 1 h h h h h h V.X $.h h h n C.. . . . . . . . . . . . . . . . . . . ",
". . . . . . . . . . . . . . . . . . . .  .j h h h #.@ +.h h h h h h ;.% & 1 h h h h h h V.X $.h h h n C.. . . . . . . . . . . . . . . . . . . ",
". . . . . . . . . . . . . . . . . . . .  .j E =._.W.@ F I.X.: U.Y./ P.Z.M `./ Y.U.:  +{..+X y.<.=.| n C.. . . . . . . . . . . . . . . . . . . ",
". . . . . . . . . . . . . . . . . . . .  .3 ..N ++k.. f.X @+h.Y ' ' ' ' ' ' ' ' Y h.@+X ' . V ++N #+4.C.. . . . . . . . . . . . . . . . . . . ",
". . . . . . . . . . . . . . . . . . . .  .3 t l $+Z c.e %+`.G U y 9 &+&+&+&+9 w *+b.`.t e 8.m =+5 -+4.C.. . . . . . . . . . . . . . . . . . . ",
". . . . . . . . . . . . . . . . . . . .  .j 1 :.n A h h h A C.s.4 h h h h h h D.V E.A h h h A n :.2 n C.. . . . . . . . . . . . . . . . . . . ",
". . . . . . . . . . . . . . . . . . . .  .j h h h h h h h A C.s.4 h h h h h h D.V E.A h h h h h h h n C.. . . . . . . . . . . . . . . . . . . ",
". . . . . . . . . . . . . . . . . . . .  .j h h h h h h h A C.s.4 h h h h h h D.V E.A h h h h h h h n C.. . . . . . . . . . . . . . . . . . . ",
". . . . . . . . . . . . . . . . . . . .  .j h h h h h h h A C.s.4 h h h h h h D.V E.A h h h h h h h n C.. . . . . . . . . . . . . . . . . . . ",
". . . . . . . . . . . . . . . . . . . .  .j h h h A A 4.2 ;+C.s.C :.:.:.:.:.:.>+V E.5.2 4.A A h h h n C.. . . . . . . . . . . . . . . . . . . ",
". . . . . . . . . . . . . . . . . . . .  .A H.e o Z C.,+= l '++ ; )+)+)+)+)+)+& I !+l = ,+C.Z ~+H ].4.C.. . . . . . . . . . . . . . . . . . . ",
". . . . . . . . . . . . . . . . . . . .  .3 Q.{+k.K . K ]+M j.j.N N N ! + N N N j.j.M T ^+. i.k.) H 4.C.. . . . . . . . . . . . . . . . . . . ",
". . . . . . . . . . . . . . . . . . . .  .j /+p.G./ @ 6.(+F.'.=.=.=.1.% & _+=.=.=.'.F.(+(.X g.G.t.!.n C.. . . . . . . . . . . . . . . . . . . ",
". . . . . . . . . . . . . . . . . . . .  .j h h h #.@ +.h h h h h h ;.% & 1 h h h h h h V.X $.h h h n C.. . . . . . . . . . . . . . . . . . . ",
". . . . . . . . . . . . . . . . . . . .  .j h h h #.@ +.h h h h h h ;.% & 1 h h h h h h V.X $.h h h n C.. . . . . . . . . . . . . . . . . . . ",
". . . . . . . . . . . . . . . . . . . . [.j h h h #.@ +.h h h h h h ;.% & 1 h h h h h h V.X $.h h h n Z . . . . . . . . . . . . . . . . . . . ",
". . . . . . . . . . . . . . . . . . . @+:+'.@.K.K.(.@+B.K.K.K.K.K.K.<+}.N y K.K.K.K.K.K.r.# H K.K.( ;.W.! . . . . . . . . . . . . . . . . . . ",
". . . . . . . . . . . . . . . . . . . c.3 V.' ' ' ' + ' ' ' ' ' ' ' ' + + ' ' ' ' ' ' ' h.+ ' ' ' ' [+| u . . . . . . . . . . . . . . . . . . ",
". . . . . . . . . . . . . . . . . . }+|+h u.1+1+1+1+1+1+1+1+1+1+1+1+1+1+1+1+1+1+1+1+1+1+1+1+1+1+1+1+e.h 2+Q . . . . . . . . . . . . . . . . . ",
". . . . . . . . . . . . . . . . . @ 3+h } *.*.*.*.*.*.*.*.*.*.*.*.*.*.*.*.*.*.*.*.*.*.*.*.*.*.*.*.*.*.-.h z.Y . . . . . . . . . . . . . . . . ",
". . . . . . . . . . . . . . . . . c.4.{.4+]+]+]+]+]+]+]+]+]+]+]+]+]+]+]+]+]+]+]+]+]+]+]+]+]+]+]+]+]+]+4+t.:.Q.. . . . . . . . . . . . . . . . ",
". . . . . . . . . . . . . . . . 5+w.E $+. . . . . . . . . . . . . . . . . . . . . . . . . . . . . . . . Z | t., . . . . . . . . . . . . . . . ",
". . . . . . . . . . . . . . . @ 0 h z @ . . . . . . . . . . . . . . . . . . . . . . . . . . . . . . . . J o.h z.Y . . . . . . . . . . . . . . ",
". . . . . . . . . . . . . . . 8.4.h n.]+++++++++++++++++++++++++++++++++++++++++++++++++++++++++++++++++M J.h k .+. . . . . . . . . . . . . . ",
". . . . . . . . . . . . . . + 6+h h 4._._._._._._._._._._._._._._._._._._._._._._._._._._._._._._._._._._.j h h 0 Y . . . . . . . . . . . . . ",
". . . . . . . . . . . . . . + N.h h h h h h h h h h h h h h h h h h h h h h h h h h h h h h h h h h h h h h h h 7+Y . . . . . . . . . . . . . ",
". . . . . . . . . . . . . . + N.h h h h h h h h h h h h h h h h h h h h h h h h h h h h h h h h h h h h h h h h 7+Y . . . . . . . . . . . . . ",
". . . . . . . . . . . . . . + N.h h h h h h h h h h h h h h h h h h h h h h h h h h h h h h h h h h h h h h h h 7+Y . . . . . . . . . . . . . ",
". . . . . . . . . . . . . . + N.h 3 3 3 3 3 3 3 3 3 3 3 3 3 3 3 3 3 3 3 3 3 3 3 3 3 3 3 3 3 3 3 3 3 3 3 3 3 3 h 7+Y . . . . . . . . . . . . . ",
". . . . . . . . . . . . . . + N.p.u r.r.r.r.r.r.r.r.r.r.r.r.r.r.r.r.r.r.r.r.r.r.r.r.r.r.r.r.r.r.r.r.r.r.r.r.3.x 7+Y . . . . . . . . . . . . . ",
". . . . . . . . . . . . . . + 8+H.R N N N N N N N N N N N N N N N N N N N N N N N N N N N N N N N N N N N N Q ].( Y . . . . . . . . . . . . . ",
". . . . . . . . . . . . . . 9+0+f ,.,.,.,.,.,.,.,.,.,.,.,.,.,.,.,.,.,.,.,.,.,.,.,.,.,.,.,.,.,.,.,.,.,.,.,.,.,.A /+Q . . . . . . . . . . . . . ",
". . . . . . . . . . . . . . a+h h h h h h h h h h h h h h h h h h h h h h h h h h h h h h h h h h h h h h h h h h 7.. . . . . . . . . . . . . ",
". . . . . . . . . . . . . J 7 h h h h h h h h h h h h h h h h h h h h h h h h h h h h h h h h h h h h h h h h h h &+@ . . . . . . . . . . . . ",
". . . . . . . . . . . . . k.b+h h h h h h h h h h h h h h h h h h h h h h h h h h h h h h h h h h h h h h h h h h $.J . . . . . . . . . . . . ",
". . . . . . . . . . . . . ^+p.h h h h h h h h h h h h h h h h h h h h h h h h h h h h h h h h h h h h h h h h h h u.J . . . . . . . . . . . . ",
". . . . . . . . . . . . . h.%+c+c+c+c+c+c+c+c+c+c+c+c+c+c+c+c+c+c+c+c+c+c+c+c+c+c+c+c+c+c+c+c+c+c+c+c+c+c+c+c+c+c+d.Y . . . . . . . . . . . . ",
". . . . . . . . . . . . . . # $ $ $ $ $ $ $ $ $ $ $ $ $ $ $ $ $ $ $ $ $ $ $ $ $ $ $ $ $ $ $ $ $ $ $ $ $ $ $ $ $ $ @ . . . . . . . . . . . . . ",
". . . . . . . . . . . . . . . . . . . . . . . . . . . . . . . . . . . . . . . . . . . . . . . . . . . . . . . . . . . . . . . . . . . . . . . ",
". . . . . . . . . . . . . . . . . . . . . . . . . . . . . . . . . . . . . . . . . . . . . . . . . . . . . . . . . . . . . . . . . . . . . . . ",
". . . . . . . . . . . . . . . . . . . . . . . . . . . . . . . . . . . . . . . . . . . . . . . . . . . . . . . . . . . . . . . . . . . . . . . "};
