/* XPM */
static char * nwwb_xpm[] = {
"71 71 465 2",
"  	c None",
". 	c #FFFFFF",
"+ 	c #FEFFFE",
"@ 	c #EFF0EF",
"# 	c #F2F4F2",
"$ 	c #F2F3F2",
"% 	c #F1F2F1",
"& 	c #818281",
"* 	c #3D3D3D",
"= 	c #494A49",
"- 	c #9FA19F",
"; 	c #4A4A4A",
"> 	c #484948",
", 	c #969796",
"' 	c #929392",
") 	c #151515",
"! 	c #707070",
"~ 	c #575757",
"{ 	c #242424",
"] 	c #D1D2D1",
"^ 	c #CCCDCC",
"/ 	c #232323",
"( 	c #626262",
"_ 	c #131313",
": 	c #BEC0BE",
"< 	c #FCFCFC",
"[ 	c #666766",
"} 	c #515151",
"| 	c #C3C3C3",
"1 	c #1C1C1C",
"2 	c #BBBCBB",
"3 	c #ABACAB",
"4 	c #272727",
"5 	c #E3E3E3",
"6 	c #E4E4E4",
"7 	c #A5A7A5",
"8 	c #7F807F",
"9 	c #333333",
"0 	c #D4D4D4",
"a 	c #919191",
"b 	c #212121",
"c 	c #D1D3D1",
"d 	c #191919",
"e 	c #A4A4A4",
"f 	c #B6B6B6",
"g 	c #2C2C2C",
"h 	c #C6C9C6",
"i 	c #C6C7C6",
"j 	c #2B2B2B",
"k 	c #393939",
"l 	c #1B1B1B",
"m 	c #7A7C7A",
"n 	c #FDFEFD",
"o 	c #F9FAF9",
"p 	c #6B6B6B",
"q 	c #313131",
"r 	c #7C7D7C",
"s 	c #FCFEFC",
"t 	c #D7DAD7",
"u 	c #3F403F",
"v 	c #070707",
"w 	c #0A0A0A",
"x 	c #8D908D",
"y 	c #DCDFDC",
"z 	c #2F2F2F",
"A 	c #080808",
"B 	c #8C908C",
"C 	c #BCBFBC",
"D 	c #4D4E4D",
"E 	c #202020",
"F 	c #828282",
"G 	c #5A5A5A",
"H 	c #797A79",
"I 	c #F4F7F4",
"J 	c #808180",
"K 	c #414141",
"L 	c #5F5F5F",
"M 	c #171817",
"N 	c #9FA09F",
"O 	c #B4B5B4",
"P 	c #353535",
"Q 	c #323232",
"R 	c #A6A6A6",
"S 	c #E5E5E5",
"T 	c #757575",
"U 	c #000000",
"V 	c #6D6D6D",
"W 	c #868686",
"X 	c #373737",
"Y 	c #B2B2B2",
"Z 	c #F1F1F1",
"` 	c #666666",
" .	c #B1B2B1",
"..	c #A4A5A4",
"+.	c #2E2E2E",
"@.	c #3F3F3F",
"#.	c #BBBBBB",
"$.	c #FEFEFE",
"%.	c #838383",
"&.	c #0D0D0D",
"*.	c #181818",
"=.	c #929292",
"-.	c #DFDFDF",
";.	c #585858",
">.	c #363636",
",.	c #A2A2A2",
"'.	c #222222",
").	c #404040",
"!.	c #BFBFBF",
"~.	c #969696",
"{.	c #C9C9C9",
"].	c #505150",
"^.	c #E1E3E1",
"/.	c #ADAEAD",
"(.	c #262626",
"_.	c #C0C0C0",
":.	c #9C9C9C",
"<.	c #ADADAD",
"[.	c #717171",
"}.	c #FBFDFB",
"|.	c #B6B9B6",
"1.	c #343534",
"2.	c #FAFAFA",
"3.	c #E7E7E7",
"4.	c #EFEFEF",
"5.	c #939393",
"6.	c #858585",
"7.	c #0B0B0B",
"8.	c #A2A3A2",
"9.	c #D2D4D2",
"0.	c #434443",
"a.	c #3B3B3B",
"b.	c #F7F7F7",
"c.	c #4E4E4E",
"d.	c #464646",
"e.	c #4F4F4F",
"f.	c #D0D0D0",
"g.	c #808080",
"h.	c #878787",
"i.	c #EDEDED",
"j.	c #525252",
"k.	c #DCDEDC",
"l.	c #F0F3F0",
"m.	c #616261",
"n.	c #292929",
"o.	c #343434",
"p.	c #F5F5F5",
"q.	c #ACACAC",
"r.	c #848784",
"s.	c #050505",
"t.	c #949494",
"u.	c #DDDDDD",
"v.	c #CACACA",
"w.	c #959595",
"x.	c #D3D3D3",
"y.	c #3E3E3E",
"z.	c #434343",
"A.	c #DBDBDB",
"B.	c #FDFDFD",
"C.	c #D0D2D0",
"D.	c #BCBDBC",
"E.	c #6E6E6E",
"F.	c #A5A5A5",
"G.	c #0C0C0C",
"H.	c #797979",
"I.	c #C1C1C1",
"J.	c #171717",
"K.	c #F1F3F1",
"L.	c #5A5B5A",
"M.	c #3A3A3A",
"N.	c #FBFBFB",
"O.	c #676767",
"P.	c #5E5E5E",
"Q.	c #303130",
"R.	c #E2E3E2",
"S.	c #9A9C9A",
"T.	c #9B9B9B",
"U.	c #C2C2C2",
"V.	c #6A6A6A",
"W.	c #A1A3A1",
"X.	c #EAEBEA",
"Y.	c #444444",
"Z.	c #F2F2F2",
"`.	c #1A1A1A",
" +	c #E0E0E0",
".+	c #626362",
"++	c #FAFBFA",
"@+	c #111111",
"#+	c #565656",
"$+	c #2C2D2C",
"%+	c #E6E7E6",
"&+	c #F5F6F5",
"*+	c #535353",
"=+	c #E9E9E9",
"-+	c #AAAAAA",
";+	c #F4F4F4",
">+	c #4C4C4C",
",+	c #EEEEEE",
"'+	c #0E0E0E",
")+	c #C7C9C7",
"!+	c #7C7C7C",
"~+	c #EBEBEB",
"{+	c #9E9E9E",
"]+	c #494949",
"^+	c #474747",
"/+	c #DEDEDE",
"(+	c #161616",
"_+	c #5D5D5D",
":+	c #898989",
"<+	c #CBCBCB",
"[+	c #8C8C8C",
"}+	c #101010",
"|+	c #C4C4C4",
"1+	c #8C8D8C",
"2+	c #BABABA",
"3+	c #F9F9F9",
"4+	c #141414",
"5+	c #595959",
"6+	c #9F9F9F",
"7+	c #AFAFAF",
"8+	c #CCCCCC",
"9+	c #909090",
"0+	c #6C6C6C",
"a+	c #D6D6D6",
"b+	c #C7C7C7",
"c+	c #BEBEBE",
"d+	c #888988",
"e+	c #F5F7F5",
"f+	c #282828",
"g+	c #F3F3F3",
"h+	c #606060",
"i+	c #C8C8C8",
"j+	c #707270",
"k+	c #E4E5E4",
"l+	c #F8F8F8",
"m+	c #E2E2E2",
"n+	c #D8D8D8",
"o+	c #E6E6E6",
"p+	c #5B5B5B",
"q+	c #383838",
"r+	c #CDCDCD",
"s+	c #121212",
"t+	c #656765",
"u+	c #FCFDFC",
"v+	c #727272",
"w+	c #787878",
"x+	c #656565",
"y+	c #737373",
"z+	c #C6C6C6",
"A+	c #1F1F1F",
"B+	c #B3B5B3",
"C+	c #989898",
"D+	c #555555",
"E+	c #9D9D9D",
"F+	c #8D8D8D",
"G+	c #636363",
"H+	c #A3A3A3",
"I+	c #6F716F",
"J+	c #A3A4A3",
"K+	c #040404",
"L+	c #999999",
"M+	c #F0F0F0",
"N+	c #BCBCBC",
"O+	c #B8B8B8",
"P+	c #090909",
"Q+	c #858685",
"R+	c #A1A2A1",
"S+	c #CFCFCF",
"T+	c #A8A8A8",
"U+	c #9EA09E",
"V+	c #A3A5A3",
"W+	c #A1A1A1",
"X+	c #BDBFBD",
"Y+	c #B0B2B0",
"Z+	c #060606",
"`+	c #8E8E8E",
" @	c #DBDDDB",
".@	c #C5C7C5",
"+@	c #818181",
"@@	c #7A7A7A",
"#@	c #F3F4F3",
"$@	c #DEDFDE",
"%@	c #252525",
"&@	c #7D7E7D",
"*@	c #454645",
"=@	c #030303",
"-@	c #B7B9B7",
";@	c #787978",
">@	c #D7D7D7",
",@	c #2D2D2D",
"'@	c #D5D5D5",
")@	c #353635",
"!@	c #E6E9E6",
"~@	c #B1B3B1",
"{@	c #4B4B4B",
"]@	c #777777",
"^@	c #E5E6E5",
"/@	c #2F302F",
"(@	c #EAEAEA",
"_@	c #0F0F0F",
":@	c #BBBDBB",
"<@	c #1D1D1D",
"[@	c #484848",
"}@	c #C5C6C5",
"|@	c #F6F6F6",
"1@	c #CECECE",
"2@	c #020202",
"3@	c #8E8F8E",
"4@	c #FAFEFA",
"5@	c #6C6E6C",
"6@	c #E8E8E8",
"7@	c #CED0CE",
"8@	c #C1C3C1",
"9@	c #303030",
"0@	c #616161",
"a@	c #7B7B7B",
"b@	c #F4F5F4",
"c@	c #636463",
"d@	c #D2D2D2",
"e@	c #696969",
"f@	c #7E807E",
"g@	c #AAABAA",
"h@	c #D9D9D9",
"i@	c #BDBDBD",
"j@	c #8F8F8F",
"k@	c #7D7D7D",
"l@	c #ADAFAD",
"m@	c #424242",
"n@	c #4D4D4D",
"o@	c #1E1E1E",
"p@	c #CACBCA",
"q@	c #F0F1F0",
"r@	c #979797",
"s@	c #D5D6D5",
"t@	c #505050",
"u@	c #E7E8E7",
"v@	c #D1D1D1",
"w@	c #DADADA",
"x@	c #CCCECC",
"y@	c #DCDDDC",
"z@	c #B9BBB9",
"A@	c #BFC0BF",
"B@	c #B3B3B3",
"C@	c #3C3C3C",
"D@	c #010101",
"E@	c #A7A7A7",
"F@	c #9C9D9C",
"G@	c #909290",
"H@	c #737473",
"I@	c #F7F9F7",
"J@	c #555855",
"K@	c #B9B9B9",
"L@	c #4B4C4B",
"M@	c #DADCDA",
"N@	c #D9DAD9",
"O@	c #DDDEDD",
"P@	c #DFE1DF",
"Q@	c #DCDCDC",
"R@	c #696A69",
"S@	c #D8DAD8",
"T@	c #F9FBF9",
"U@	c #DEE0DE",
"V@	c #C0C1C0",
"W@	c #A9ACA9",
"X@	c #A4A6A4",
"Y@	c #B5B6B5",
"Z@	c #C8C9C8",
"`@	c #AFB1AF",
" #	c #F8FAF8",
".#	c #B6B7B6",
"+#	c #A5A8A5",
"@#	c #A9ABA9",
"##	c #D9DBD9",
"$#	c #404140",
"%#	c #545454",
"&#	c #747574",
"*#	c #FBFCFB",
"=#	c #CFD0CF",
"-#	c #8B8C8B",
";#	c #595A59",
">#	c #CDCECD",
",#	c #F7F8F7",
"'#	c #9D9E9D",
")#	c #5E5F5E",
"!#	c #BDBEBD",
"~#	c #8B8B8B",
"{#	c #747474",
"]#	c #7F7F7F",
"^#	c #888888",
"/#	c #E8E9E8",
"(#	c #D2D3D2",
"_#	c #A5A6A5",
":#	c #5C5C5C",
"<#	c #ECECEC",
"[#	c #939493",
"}#	c #717271",
"|#	c #555655",
"1#	c #E1E1E1",
"2#	c #7E7E7E",
"3#	c #3C3D3C",
"4#	c #ABABAB",
"5#	c #5B5C5B",
"6#	c #F6F8F6",
"7#	c #777977",
"8#	c #565756",
"9#	c #E8EBE8",
"0#	c #C0C2C0",
"a#	c #6F6F6F",
"b#	c #B7B7B7",
"c#	c #373837",
"d#	c #B2B3B2",
"e#	c #959695",
"f#	c #B0B1B0",
"g#	c #B8B9B8",
"h#	c #A7A8A7",
"i#	c #878987",
"j#	c #393A39",
"k#	c #3B3C3B",
"l#	c #575857",
"m#	c #929492",
"n#	c #898A89",
"o#	c #707170",
"p#	c #686868",
"q#	c #323332",
"r#	c #2A2A2A",
"s#	c #767676",
"t#	c #C4C8C4",
"u#	c #636563",
"v#	c #5D5F5D",
"w#	c #979897",
"x#	c #E4E6E4",
"y#	c #E5E8E5",
"z#	c #B6B8B6",
"A#	c #7B7C7B",
"B#	c #454545",
"C#	c #CFD1CF",
"D#	c #CBCDCB",
"E#	c #6A6B6A",
"F#	c #595B59",
"G#	c #8D8F8D",
"H#	c #C2C3C2",
"I#	c #F8F9F8",
"J#	c #F3F5F3",
"K#	c #C3C5C3",
"L#	c #AEB0AE",
"M#	c #8A8B8A",
"N#	c #868786",
"O#	c #EBECEB",
"P#	c #8F908F",
"Q#	c #CDCFCD",
"R#	c #949694",
"S#	c #838483",
"T#	c #797B79",
"U#	c #8A8C8A",
"V#	c #7F817F",
"W#	c #E1E2E1",
"X#	c #A2A4A2",
"Y#	c #444544",
"Z#	c #E2E4E2",
"`#	c #ECEDEC",
" $	c #464746",
".$	c #B9BAB9",
"+$	c #383938",
"@$	c #949794",
"#$	c #B7B8B7",
". . . . . . . . . . . . . . . . . . . . . . . . . . . . . . . . . . . . . . . . . . . . . . . . . . . . . . . . . . . . . . . . . . . . . . . ",
". . . . . . . . . . . . . . . . . . . . . . . . . . . . . . . . . . . . . . . . . . . . . . . . . . . . . . . . . . . . . . . . . . . . . . . ",
". . . . . . . . . . . . . . . . . . . . . . . . . . . . . . . . . . . . . . . . . . . . . . . . . . . . . . . . . . . . . . . . . . . . . . . ",
". . . . . . . . . . . . . . . . . . . . . . . . . . . . . . . . . + @ # . . . . . $ % . . . . . . . . . . . . . . . . . . . . . . . . . . . . ",
". . . . . . . . . . . . . . . . . . . . . . . . . . . . . . . . # & * = - . . . - ; > , + . . . . . . . . . . . . . . . . . . . . . . . . . . ",
". . . . . . . . . . . . . . . . . . . . . . . . . . . . . . . . ' ) ! ~ { ] . ^ / ( ( _ : . . . . . . . . . . . . . . . . . . . . . . . . . . ",
". . . . . . . . . . . . . . . . . . . . . . . . . . . . . . . < [ } < | 1 2 . 3 4 5 6 4 7 . . . . . . . . . . . . . . . . . . . . . . . . . . ",
". . . . . . . . . . . . . . . . . . . . . . . . . . . . . . . + 8 9 0 a b c . : d e f g h . . . . . . . . . . . . . . . . . . . . . . . . . . ",
". . . . . . . . . . . . . . . . . . . . . . . . . . . . . . . . i j k l m n . o p 4 q r s . . . . . . . . . . . . . . . . . . . . . . . . . . ",
". . . . . . . . . . . . . . . . . . . . . . . . . . . . . . . . t u v w x n . . y z A B . . . . . . . . . . . . . . . . . . . . . . . . . . . ",
". . . . . . . . . . . . . . . . . . . . . . . . . . . . . . . C D E F G w H I + J K L M N . . . . . . . . . . . . . . . . . . . . . . . . . . ",
". . . . . . . . . . . . . . . . . . . . . . . . . . . . . . O P Q R . S T U V W X Y Z ` 4  .. . . . . . . . . . . . . . . . . . . . . . . . . ",
". . . . . . . . . . . . . . . . . . . . . . . . . . . . . ..+.@.#.. . . $.%.&.*.=.. . -.;.>.: . . . . . . . . . . . . . . . . . . . . . . . . ",
". . . . . . . . . . . . . . . . . . . . . . . . . . . . ,.'.).!.. . . . . . ~.1 L -.. . {.* ].^.. . . . . . . . . . . . . . . . . . . . . . . ",
". . . . . . . . . . . . . . . . . . . . . . . . . . . /.(.K _.. . . . . . . . :.l L 5 . . <.d [.}.. . . . . . . . . . . . . . . . . . . . . . ",
". . . . . . . . . . . . . . . . . . . . . . . . . . |.1.)._.. . 2.3.3.3.4.. . . 5.A [.< . . 6.7.8.. . . . . . . . . . . . . . . . . . . . . . ",
". . . . . . . . . . . . . . . . . . . . . . . . . 9.0.a.!.. . b.T a.c.d.e.f.. . . g.U h.. . i.j.u k.. . . . . . . . . . . . . . . . . . . . . ",
". . . . . . . . . . . . . . . . . . . . . . . . l.m.'.<.. . . -.n.~.S {.o.:.. . . p.` *.q.. . Y _ g.+ . . . . . . . . . . . . . . . . . . . . ",
". . . . . . . . . . . . . . . . . . . . . . . . r.s.t.. . . . u.z v.. b.; w.. . . . x.y.z.A.. B.p 4 C.. . . . . . . . . . . . . . . . . . . . ",
". . . . . . . . . . . . . . . . . . . . . . . D.E E.B.. . . . u.z v.. b.; w.. . . . . F.G.H.. . I.J.8 + . . . . . . . . . . . . . . . . . . . ",
". . . . . . . . . . . . . . . . . . . . . . K.L.M.0 . . . . . u.z v.. b.; w.. . . . . N.O.l !.. 2.P.Q.R.. . . . . . . . . . . . . . . . . . . ",
". . . . . . . . . . . . . . . . . . . . . . S.7.T.. . . . . . u.z v.. b.; w.. . . . . . U.1 V.< . R w W.. . . . . . . . . . . . . . . . . . . ",
". . . . . . . . . . . . . . . . . . . . . X.Y.e.Z.. . . . . . u.z v.. b.; w.. . . . . . $.V `.v..  +4 .+++. . . . . . . . . . . . . . . . . . ",
". . . . . . . . . . . . . . . . . . . . . N 7.,.. . . . . . . u.z v.. b.; t.. . . . . . . #.@+F . 2.#+$+%+. . . . . . . . . . . . . . . . . . ",
". . . . . . . . . . . . . . . . . . . . &+*+k =+. . . $.b.Z 3.-+(.v.. b.; V  +i.;+N.. . . ;+>+y.,+. F '+i . . . . . . . . . . . . . . . . . . ",
". . . . . . . . . . . . . . . . . . . . )+_ !+. . ~+{+p ]+a.z E ^+/+. < !+(+n.>.z._+:+<+. . [+}+|+. R A 7 . . . . . . . . . . . . . . . . . . ",
". . . . . . . . . . . . . . . . . . . . 1+G.2+. 3+E.4+5+6.6+7+U.6 . . . p.8+f R 9+0+z P a+. b+@+9+. c+7.d+. . . . . . . . . . . . . . . . . . ",
". . . . . . . . . . . . . . . . . . . e+*+f+5 . g+* F N.. . . . . . . . . . . . . $.c+4 | . ~+Q h+N.i+'+j++ . . . . . . . . . . . . . . . . . ",
". . . . . . . . . . . . . . . . . . . k+n.>+l+. g+@.6+. . l+=+A.m+. . . Z n+5 g+B.. o+Q | . N.p+q+4.r+s+t+u+. . . . . . . . . . . . . . . . . ",
". . . . . . . . . . . . . . . . . . . ^ s+V $.. g+d.c.W v+c.q E Y.u.. < w+`.n.).x+%.y+J.z+. . F A+/+{.}+t+n . . . . . . . . . . . . . . . . . ",
". . . . . . . . . . . . . . . . . . . B+A W . . . C+@.y.D+H.E+F+4 <+. b.; L F.:+G+Y.q+0+,+. . H+4+<+|+G.I++ . . . . . . . . . . . . . . . . . ",
". . . . . . . . . . . . . . . . . . . J+K+L+. . . . M+Z.2.. . u.z v.. b.; w.. . < p.M+l+. . . N+_ O+#.P+Q+. . . . . . . . . . . . . . . . . . ",
". . . . . . . . . . . . . . . . . . . R+s.,.. . . . . . . . . u.z v.. b.; w.. . . . . . . . . S+J.T+R v U+. . . . . . . . . . . . . . . . . . ",
". . . . . . . . . . . . . . . . . . . V+s.W+. . . . . . . . . u.z v.. b.; w.. . . . . . . . . n+`.T.h.w X+. . . . . . . . . . . . . . . . . . ",
". . . . . . . . . . . . . . . . . . . Y+Z+~.. . . . . . . . . u.z v.. b.; w.. . . . . . . . .  +b `+h+A+ @. . . . . . . . . . . . . . . . . . ",
". . . . . . . . . . . . . . . . . . . .@&.+@. . . . . . . . . u.z v.. b.; w.. . . . . . . . . 6 { @@P d.#@. . . . . . . . . . . . . . . . . . ",
". . . . . . . . . . . . . . . . . . . $@'.G+B.. . . . . . . . u.z v.. b.; w.. . . . . . . . . 6 %@a.s+&@. . . . . . . . . . . . . . . . . . . ",
". . . . . . . . . . . . . . . . . . . $ *@y.Z . . . . . . . . u.z v.. b.; w.. . . . . . . . . 5 / =@7.-@. . . . . . . . . . . . . . . . . . . ",
". . . . . . . . . . . . . . . . . . . . ;@1 >@. . . . . . . . -.,@e 3.'@a.T.. . . . . . . . . A.l U )@!@. . . . . . . . . . . . . . . . . . . ",
". . . . . . . . . . . . . . . . . . . . ~@G.6+. . . . . . . . p.V.K e.{@z.i+. . . . . . . . . x.(+U ]@n . . . . . . . . . . . . . . . . . . . ",
". . . . . . . . . . . . . . . . . . . . ^@/@L 2.. . . . . . . . g+3.3.3.(@. . . . . . . . . . |+G._@:@. . . . . . . . . . . . . . . . . . . . ",
". . . . . . . . . . . . . . . . . . . . + ;@<@S+. . . . . . . . . . . . . . . . . . . . . . . Y s.[@% . . . . . . . . . . . . . . . . . . . . ",
". . . . . . . . . . . . . . . . . . . . . }@`.F . . . . . $.|@=+A.1@| | | | v.>@o+g+B.. . . . ~.2@3@. . . . . . . . . . . . . . . . . . . . . ",
". . . . . . . . . . . . . . . . . . . . . 4@5@Q /+. 4.{.T.E.^+,@1 _ 7.7.7.7._@*.f+).O.t.| 6@< T *.7@. . . . . . . . . . . . . . . . . . . . . ",
". . . . . . . . . . . . . . . . . . . . . . 8@d [.+@@.s+Z+J.9@; 0@[.a@+@+@@@! h+[@z ) K+_@z P.g = b@. . . . . . . . . . . . . . . . . . . . . ",
". . . . . . . . . . . . . . . . . . . . . . ++c@s.7.P E.e d@~+l+B.$.. . . . $.< b.(@f.W+e@q w U f@. . . . . . . . . . . . . . . . . . . . . . ",
". . . . . . . . . . . . . . . . . . . . . . . g@4+F+(@$.. Z.h@i@,.j@F k@!+%.9+H+c+A.;+. B.6@6.@+l@. . . . . . . . . . . . . . . . . . . . . . ",
". . . . . . . . . . . . . . . . . . . . . . . k.'.6+M+#.!+m@1 w =@s.j.6+T.n@2@=@7.o@d.g.!.Z.a @+p@. . . . . . . . . . . . . . . . . . . . . . ",
". . . . . . . . . . . . . . . . . . . . . . . q@X y.^+'+U U U U q r@g+. . M+a g U U U U }+{@k *.s@. . . . . . . . . . . . . . . . . . . . . . ",
". . . . . . . . . . . . . . . . . . . . . . . % k j n@E U U U 4 c+. . . . . . #./ U U U '.t@%@*.s@. . . . . . . . . . . . . . . . . . . . . . ",
". . . . . . . . . . . . . . . . . . . . . . . u@j !+b.v@z.U U s+%.-.. . . . w@!+P+U U n@n+l+E.s+x@. . . . . . . . . . . . . . . . . . . . . . ",
". . . . . . . . . . . . . . . . . . . . . . . y@o@w.. !.+.U U U U P 6.8+i+g.9@U U U U o.b+. h.P+z@. . . . . . . . . . . . . . . . . . . . . . ",
". . . . . . . . . . . . . . . . . . . . . . . A@_ B@z+Y.U U U 2@7.J.E y.C@E (+w D@U U U j.a+E@v F@. . . . . . . . . . . . . . . . . . . . . . ",
". . . . . . . . . . . . . . . . . . . . . . . G@`.r@d.U _@q+V.r@i@x.-.o+o+-.d@#.w.O.P &.U #+E+s+H@s . . . . . . . . . . . . . . . . . . . . . ",
". . . . . . . . . . . . . . . . . . . . . . I@J@'+z q H.i@i.$.. . . . . . . . . . B.~+K@T ,@o.&.L@&+. . . . . . . . . . . . . . . . . . . . . ",
". . . . . . . . . . . . . . . . . . . . . . M@'./ a m+. . . . . . . . . . . . . . . . . $./+[+1 b  @. . . . . . . . . . . . . . . . . . . . . ",
". . . . . . . . . . . . . . . . . . . . . . N@[@A+=.i.. . . . . . . . . . . . . . . . . . =+[+d ; O@. . . . . . . . . . . . . . . . . . . . . ",
". . . . . . . . . . . . . . . . . . . . . . . P@H 1 ^+C+-.N.. . . . . . . . . . . . N.Q@t.z._@R@S@. . . . . . . . . . . . . . . . . . . . . . ",
". . . . . . . . . . . . T@U@V@W@X@Y@Z@k.#@+ . . n :@V.A+f+0@r@|+ +,+g+b.b.g+i./+U.w.L 4 `._+`@T@. . .  #u@^ .#+#@#X+##b@. . . . . . . . . . . ",
". . . . . . . . . . &+/..+$#d.%#D+{@y.k = &#`@u@n . *#=#-#D P+_@E Q @.[@[@y.q E &.4+;#G@>#,#. . + k.'#)#Y.Y.e.#+%#^+).~ ~.P@. . . . . . . . . ",
". . . . . . . . . !#p+n@=.a+Z 2.N.;+(@'@q.]@d.0.0+8.x@k+^@..{ V ~#{#9@s.G._+]#^#} $+R+P@/#^.(#_#R@m@:#L+S+<#|@N.2.Z.Q@E@( L@' @ . . . . . . . ",
". . . . . . . }.[#Y.6.S . . . B.3+|@2.$.. . ,+U.:+5+).y.y.a.W $..  +d.}#|#{#$.. 1#2#* a.z.3#d._+9+S+3+. . . $.B.$.. . . M+4#*+5#}@. . . . . . ",
". . . . . . 6#7#<@D+a@#.2.S+w.V.%#j.#+p `+2+m+N.. 3+3.>@a+5 . . $.{#8#9#0#>.g.B.. . (@>@a+h@=+3+. < 6@b+e %.a#e@0++@R >@b#y.y.7.c#d#. . . . . ",
". . . . . $ {#U *./@@.`+0+L@V e#f#g#h#i#P.j#o.h+:.v@4.N.. . $.1#w+[@8+. . |.k#E.r+N.. . . 2.4.0 W+O.@.y.l#&#-#m#n#o#= >.p#z q#0@r#+./.. . . . ",
". . . . o s#{ m t#u#r#v#w#x#+ . . . . . *#y#z#A#z.z @.p+v+a@p B#.+C#. . . . D#E#M.:#w+a@V 5+B#m@F#G#H#u@I#s . . . n J#K#a#s+(.L#U@M#N#@ . . . ",
". . . . O#P#K#+ R+P+_+Q#. . . . . . . . . . . + @ c f#R#S#T#U#D.e+. . . . . . T@x@U+V#T#N#U+0#W#I@. . . . . . . . . . . s X#o.Y#Z#. O#. . . . ",
". . . . . ,#. `# $H@/#. . . . . . . . . . . . . . . . . . n . . . . . . . . . . . . . n . . . . . . . . . . . . . . . . . . .$+$N#. . . . . . ",
". . . . . . . t @$I#. . . . . . . . . . . . . . . . . . . . . . . . . . . . . . . . . . . . . . . . . . . . . . . . . . . . . #$X@s . . . . . ",
". . . . . . . . s . . . . . . . . . . . . . . . . . . . . . . . . . . . . . . . . . . . . . . . . . . . . . . . . . . . . . . . n . . . . . . ",
". . . . . . . . . . . . . . . . . . . . . . . . . . . . . . . . . . . . . . . . . . . . . . . . . . . . . . . . . . . . . . . . . . . . . . . ",
". . . . . . . . . . . . . . . . . . . . . . . . . . . . . . . . . . . . . . . . . . . . . . . . . . . . . . . . . . . . . . . . . . . . . . . "};
