/* XPM */
static char * abbg_xpm[] = {
"71 71 434 2",
"  	c None",
". 	c #FFFFFF",
"+ 	c #226022",
"@ 	c #213E21",
"# 	c #1E381E",
"$ 	c #213F21",
"% 	c #276827",
"& 	c #1A2D1A",
"* 	c #0B0B0B",
"= 	c #171717",
"- 	c #6A6A6A",
"; 	c #8F8F8F",
"> 	c #5B5B5B",
", 	c #121212",
"' 	c #090909",
") 	c #1B351B",
"! 	c #213221",
"~ 	c #656565",
"{ 	c #242424",
"] 	c #4C4C4C",
"^ 	c #C0C0C0",
"/ 	c #B8B8B8",
"( 	c #404040",
"_ 	c #383838",
": 	c #5E5E5E",
"< 	c #192E19",
"[ 	c #C6C6C6",
"} 	c #B2B2B2",
"| 	c #3E3E3E",
"1 	c #363636",
"2 	c #A7A7A7",
"3 	c #A0A0A0",
"4 	c #2A2A2A",
"5 	c #4A4A4A",
"6 	c #BFBFBF",
"7 	c #B1B1B1",
"8 	c #C4C4C4",
"9 	c #515151",
"0 	c #141414",
"a 	c #131313",
"b 	c #606060",
"c 	c #D8D8D8",
"d 	c #E3E3E3",
"e 	c #616161",
"f 	c #000000",
"g 	c #707070",
"h 	c #F7F7F7",
"i 	c #D1D1D1",
"j 	c #878787",
"k 	c #808080",
"l 	c #696969",
"m 	c #DFDFDF",
"n 	c #848484",
"o 	c #444444",
"p 	c #2C2C2C",
"q 	c #999999",
"r 	c #202020",
"s 	c #585858",
"t 	c #7B7B7B",
"u 	c #132513",
"v 	c #1A1A1A",
"w 	c #1C1C1C",
"x 	c #7E7E7E",
"y 	c #C3C3C3",
"z 	c #6D6D6D",
"A 	c #151515",
"B 	c #161616",
"C 	c #132813",
"D 	c #282828",
"E 	c #333333",
"F 	c #272727",
"G 	c #232323",
"H 	c #AEAEAE",
"I 	c #E7E7E7",
"J 	c #DEDEDE",
"K 	c #ABABAB",
"L 	c #1F331F",
"M 	c #797979",
"N 	c #4D4D4D",
"O 	c #7D7D7D",
"P 	c #C8C8C8",
"Q 	c #969696",
"R 	c #353535",
"S 	c #919191",
"T 	c #9E9E9E",
"U 	c #C2C2C2",
"V 	c #246F24",
"W 	c #245D24",
"X 	c #225222",
"Y 	c #1F511F",
"Z 	c #245724",
"` 	c #276027",
" .	c #266D26",
"..	c #30A130",
"+.	c #152715",
"@.	c #424242",
"#.	c #FBFBFB",
"$.	c #FAFAFA",
"%.	c #132913",
"&.	c #258025",
"*.	c #246C24",
"=.	c #256025",
"-.	c #225422",
";.	c #255F25",
">.	c #247024",
",.	c #36B136",
"'.	c #1D4C1D",
").	c #132213",
"!.	c #070907",
"~.	c #151715",
"{.	c #101610",
"].	c #172B17",
"^.	c #1E501E",
"/.	c #277727",
"(.	c #767676",
"_.	c #FEFEFE",
":.	c #6B6B6B",
"<.	c #267526",
"[.	c #1D4D1D",
"}.	c #142914",
"|.	c #0F150F",
"1.	c #161716",
"2.	c #222222",
"3.	c #111111",
"4.	c #070A07",
"5.	c #132413",
"6.	c #1C4F1C",
"7.	c #1E5A1E",
"8.	c #142214",
"9.	c #0C0C0C",
"0.	c #939393",
"a.	c #DBDBDB",
"b.	c #D4D4D4",
"c.	c #A2A2A2",
"d.	c #6C6C6C",
"e.	c #313131",
"f.	c #131913",
"g.	c #1B421B",
"h.	c #237023",
"i.	c #ACACAC",
"j.	c #070707",
"k.	c #256E25",
"l.	c #1B3F1B",
"m.	c #141914",
"n.	c #343434",
"o.	c #717171",
"p.	c #A4A4A4",
"q.	c #C7C7C7",
"r.	c #D5D5D5",
"s.	c #909090",
"t.	c #4E4E4E",
"u.	c #0A0A0A",
"v.	c #142514",
"w.	c #226122",
"x.	c #194C19",
"y.	c #F1F1F1",
"z.	c #C9C9C9",
"A.	c #8D8D8D",
"B.	c #3D3D3D",
"C.	c #454545",
"D.	c #595959",
"E.	c #7F7F7F",
"F.	c #AFAFAF",
"G.	c #CBCBCB",
"H.	c #505050",
"I.	c #1B3B1B",
"J.	c #0E0E0E",
"K.	c #BCBCBC",
"L.	c #0D150D",
"M.	c #173717",
"N.	c #141814",
"O.	c #555555",
"P.	c #A5A5A5",
"Q.	c #ADADAD",
"R.	c #434343",
"S.	c #CCCCCC",
"T.	c #A6A6A6",
"U.	c #474747",
"V.	c #0F0F0F",
"W.	c #134913",
"X.	c #194E19",
"Y.	c #E0E0E0",
"Z.	c #626262",
"`.	c #5A5A5A",
" +	c #646464",
".+	c #5C5C5C",
"++	c #494949",
"@+	c #2E2E2E",
"#+	c #191919",
"$+	c #020202",
"%+	c #949494",
"&+	c #898989",
"*+	c #A3A3A3",
"=+	c #2D2D2D",
"-+	c #303030",
";+	c #3C3C3C",
">+	c #181818",
",+	c #676767",
"'+	c #C5C5C5",
")+	c #DADADA",
"!+	c #1D541D",
"~+	c #256825",
"{+	c #111211",
"]+	c #727272",
"^+	c #9A9A9A",
"/+	c #292929",
"(+	c #F2F2F2",
"_+	c #FDFDFD",
":+	c #FCFCFC",
"<+	c #F8F8F8",
"[+	c #E9E9E9",
"}+	c #868686",
"|+	c #3B3B3B",
"1+	c #929292",
"2+	c #D0D0D0",
"3+	c #CDCDCD",
"4+	c #D2D2D2",
"5+	c #8E8E8E",
"6+	c #3F3F3F",
"7+	c #8A8A8A",
"8+	c #EBEBEB",
"9+	c #F9F9F9",
"0+	c #CECECE",
"a+	c #828282",
"b+	c #2B2B2B",
"c+	c #9F9F9F",
"d+	c #216921",
"e+	c #193319",
"f+	c #E2E2E2",
"g+	c #CFCFCF",
"h+	c #E5E5E5",
"i+	c #DCDCDC",
"j+	c #414141",
"k+	c #CACACA",
"l+	c #1F1F1F",
"m+	c #1B391B",
"n+	c #236723",
"o+	c #AAAAAA",
"p+	c #636363",
"q+	c #E4E4E4",
"r+	c #B7B7B7",
"s+	c #535353",
"t+	c #545454",
"u+	c #B5B5B5",
"v+	c #1E1E1E",
"w+	c #101210",
"x+	c #226B22",
"y+	c #1A401A",
"z+	c #464646",
"A+	c #EFEFEF",
"B+	c #686868",
"C+	c #BABABA",
"D+	c #888888",
"E+	c #ECECEC",
"F+	c #1D471D",
"G+	c #152515",
"H+	c #B3B3B3",
"I+	c #737373",
"J+	c #252525",
"K+	c #262626",
"L+	c #BBBBBB",
"M+	c #182C18",
"N+	c #131E13",
"O+	c #080808",
"P+	c #1D1D1D",
"Q+	c #484848",
"R+	c #060606",
"S+	c #131F13",
"T+	c #0F1A0F",
"U+	c #E1E1E1",
"V+	c #BDBDBD",
"W+	c #EAEAEA",
"X+	c #777777",
"Y+	c #525252",
"Z+	c #F3F3F3",
"`+	c #D9D9D9",
" @	c #162016",
".@	c #152015",
"+@	c #DDDDDD",
"@@	c #F5F5F5",
"#@	c #050505",
"$@	c #A8A8A8",
"%@	c #E6E6E6",
"&@	c #666666",
"*@	c #9B9B9B",
"=@	c #212121",
"-@	c #BEBEBE",
";@	c #122012",
">@	c #7C7C7C",
",@	c #747474",
"'@	c #2F2F2F",
")@	c #1E411E",
"!@	c #1E4F1E",
"~@	c #575757",
"{@	c #C1C1C1",
"]@	c #5D5D5D",
"^@	c #1B1B1B",
"/@	c #D3D3D3",
"(@	c #E8E8E8",
"_@	c #5F5F5F",
":@	c #F0F0F0",
"<@	c #F6F6F6",
"[@	c #4F4F4F",
"}@	c #247124",
"|@	c #121512",
"1@	c #959595",
"2@	c #B0B0B0",
"3@	c #040404",
"4@	c #B6B6B6",
"5@	c #4B4B4B",
"6@	c #030303",
"7@	c #A1A1A1",
"8@	c #141C14",
"9@	c #31A131",
"0@	c #1A381A",
"a@	c #393939",
"b@	c #323232",
"c@	c #B4B4B4",
"d@	c #373737",
"e@	c #A9A9A9",
"f@	c #1B451B",
"g@	c #236A23",
"h@	c #171A17",
"i@	c #8C8C8C",
"j@	c #9D9D9D",
"k@	c #1C251C",
"l@	c #237423",
"m@	c #1C4B1C",
"n@	c #9C9C9C",
"o@	c #7A7A7A",
"p@	c #1E551E",
"q@	c #193719",
"r@	c #1C411C",
"s@	c #237323",
"t@	c #838383",
"u@	c #818181",
"v@	c #8B8B8B",
"w@	c #3A3A3A",
"x@	c #172E17",
"y@	c #3DCF3D",
"z@	c #236523",
"A@	c #252825",
"B@	c #6F6F6F",
"C@	c #979797",
"D@	c #212921",
"E@	c #216B21",
"F@	c #565656",
"G@	c #B9B9B9",
"H@	c #1E541E",
"I@	c #182E18",
"J@	c #0D0D0D",
"K@	c #183318",
"L@	c #205F20",
"M@	c #3C3D3C",
"N@	c #D6D6D6",
"O@	c #323332",
"P@	c #216521",
"Q@	c #112111",
"R@	c #F4F4F4",
"S@	c #111D11",
"T@	c #152215",
"U@	c #266C26",
"V@	c #030403",
"W@	c #EEEEEE",
"X@	c #101010",
"Y@	c #060806",
"Z@	c #267026",
"`@	c #256B25",
" #	c #787878",
".#	c #6E6E6E",
"+#	c #040604",
"@#	c #256D25",
"##	c #257725",
"$#	c #0B0F0B",
"%#	c #0C120C",
"&#	c #2FA12F",
"*#	c #1A321A",
"=#	c #183618",
"-#	c #205D20",
";#	c #070B07",
">#	c #247324",
",#	c #277327",
"'#	c #080A08",
")#	c #080C08",
"!#	c #257625",
"~#	c #246724",
"{#	c #EDEDED",
"]#	c #D7D7D7",
"^#	c #050705",
"/#	c #246B24",
"(#	c #215421",
"_#	c #205A20",
":#	c #1E421E",
"<#	c #1E471E",
"[#	c #172D17",
"}#	c #101E10",
"|#	c #858585",
"1#	c #122312",
"2#	c #225622",
"3#	c #1A301A",
"4#	c #090E09",
"5#	c #0B100B",
"6#	c #205720",
"7#	c #1D551D",
"8#	c #1A371A",
"9#	c #101B10",
"0#	c #757575",
"a#	c #090B09",
"b#	c #0F1C0F",
"c#	c #1C3B1C",
"d#	c #205820",
"e#	c #257125",
"f#	c #225922",
"g#	c #1D401D",
"h#	c #0C170C",
"i#	c #070C07",
"j#	c #030503",
"k#	c #010101",
"l#	c #090D09",
"m#	c #0D180D",
"n#	c #267226",
"o#	c #257825",
"p#	c #1E441E",
"q#	c #1A341A",
"r#	c #152D15",
"s#	c #112911",
"t#	c #162A16",
"u#	c #102810",
"v#	c #162D16",
"w#	c #1A3B1A",
"x#	c #1F451F",
"y#	c #235123",
"z#	c #286028",
"A#	c #257925",
". . . . . . . . . . . . . . . . . . . . . . . . . . . . . . . . . . . . . . . . . . . . . . . . . . . . . . . . . . . . . . . . . . . . . . . ",
". . . . . . . . . . . . . . . . . . . . . . . . . . . . . . . . . . . . . . . . . . . . . . . . . . . . . . . . . . . . . . . . . . . . . . . ",
". . . . . . . . . . . . . . . . . . . . . . . . . . . . . . . . . . . . . . . . . . . . . . . . . . . . . . . . . . . . . . . . . . . . . . . ",
". . . . . . . . . . . . . . . . . . . . . . . . . . . . . . . . . . . . . . . . . . . . . . . . . . . . . . . . . . . . . . . . . . . . . . . ",
". . . . . . . . . . . . . . . . . . . . . . . . . . . . . . . . . . . . . . . . . . . . . . . . . . . . . . . . . . . . . . . . . . . . . . . ",
". . . . . . . . . . . . . . . . . . . . . . . . . . . . . . . . . . . . . . . . . . . . . . . . . . . . . . . . . . . . . . . . . . . . . . . ",
". . . . . . . . . . . . . . . . . . . . . . . . . . . . . . . . . . . . . . . . . . . . . . . . . . . . . . . . . . . . . . . . . . . . . . . ",
". . . . . . . . . . . . . . . . . . . . . . . . . . . . . . + @ # # # # # # # # $ % . . . . . . . . . . . . . . . . . . . . . . . . . . . . . ",
". . . . . . . . . . . . . . . . . . . . . . . . . . . . . . & * = - ; ; ; ; > , ' ) . . . . . . . . . . . . . . . . . . . . . . . . . . . . . ",
". . . . . . . . . . . . . . . . . . . . . . . . . . . . . . ! ~ { ] ^ . . / ( _ : < . . . . . . . . . . . . . . . . . . . . . . . . . . . . . ",
". . . . . . . . . . . . . . . . . . . . . . . . . . . . . . ! [ } | 1 2 3 4 5 6 7 < . . . . . . . . . . . . . . . . . . . . . . . . . . . . . ",
". . . . . . . . . . . . . . . . . . . . . . . . . . . . . . ! [ . 8 9 0 a b c . 7 < . . . . . . . . . . . . . . . . . . . . . . . . . . . . . ",
". . . . . . . . . . . . . . . . . . . . . . . . . . . . . . ! [ . d e f f g h . 7 < . . . . . . . . . . . . . . . . . . . . . . . . . . . . . ",
". . . . . . . . . . . . . . . . . . . . . . . . . . . . . . ! [ i : = j k * l m 7 < . . . . . . . . . . . . . . . . . . . . . . . . . . . . . ",
". . . . . . . . . . . . . . . . . . . . . . . . . . . . . . ! n o p 3 . . q r s t < . . . . . . . . . . . . . . . . . . . . . . . . . . . . . ",
". . . . . . . . . . . . . . . . . . . . . . . . . . . . . . u v w x y y y y z A B C . . . . . . . . . . . . . . . . . . . . . . . . . . . . . ",
". . . . . . . . . . . . . . . . . . . . . . . . . . . . . . u { D E E E E E E F G C . . . . . . . . . . . . . . . . . . . . . . . . . . . . . ",
". . . . . . . . . . . . . . . . . . . . . . . . . . . . . . ! H I I I J m I I I K L . . . . . . . . . . . . . . . . . . . . . . . . . . . . . ",
". . . . . . . . . . . . . . . . . . . . . . . . . . . . . . ! [ . y M ] N O P . y L . . . . . . . . . . . . . . . . . . . . . . . . . . . . . ",
". . . . . . . . . . . . . . . . . . . . . . . . . . . . . . ! [ Q R : S ; > 1 T U L . . . . . . . . . . . . . . . . . . . . . . . . . . . . . ",
". . . . . . . . . . . . . . . . V W X Y Z `  .... . . . . . +.@.{ T #.. . $.q D o %.. . . . . . &.*.=.Z Y -.;.>.. . . . . . . . . . . . . . . ",
". . . . . . . . . . . . . ,.'.).!., G 4 D r ~.{.].^./.. . . u f (.. . . . . _.:.f C . . . <.[.}.|.1.r D 4 2.3.4.5.6.. . . . . . . . . . . . . ",
". . . . . . . . . . . . 7.8.9.9 0.P J J a.b.[ c.d.e.f.g.h.. u * / . . . . . . i.j.C . k.l.m.n.o.p.q.r.a.J J q.s.t.u.v.w.. . . . . . . . . . . ",
". . . . . . . . . . . x.j.] K y.z.A.: @.B.C.D.E.F.G.3 H.m.I.|.J.8 . . . . . . K.* L.M.N.O.P.G.Q.O s o B.R.e s.S.y.T.U.V.W.. . . . . . . . . . ",
". . . . . . . . . . X.f g Y.^ Z.A v | `. +.+++@+#+e.k G.T | f $+%+. . . . . . &+f f o *+q.t =+#+-+5 .+ +s ;+>+>+,+'+)+~ $+!+. . . . . . . . . ",
". . . . . . . . . ~+{+]+$.^+/+-+j i (+#._+:+<+[+[ }+|+E 1+2+C.f B.3+. . . . U n.f t.4+5+@+6+7+z.8+9+:+_+#.y.0+a+b+p c+[+~ f.d+. . . . . . . . ",
". . . . . . . . . e+N f+q B b g+. . . . . . . . . . h+7+D ] D C.F U.p.i+a.3 ;+b+j+p U.p ; [+. . . . . . . . . . k+> l+c+)+C.m+. . . . . . . . ",
". . . . . . . . n+{+o+^ D p+q+. . . . . . . . . . . . . r+6+G q.z.k s+t+t+t+n 0+u+v+R.K.. . . . . . . . . . . . . m : =+k+c.w+x+. . . . . . . ",
". . . . . . . . y+z+A+B+|+r.. . . . . . . . . . . . . . . 6 6+> Y.. C+}+D+6 . c N @.8 . . . . . . . . . . . . . . . g+-+]+E+|+F+. . . . . . . ",
". . . . . . . . G+O a.G ; . . . . . . . . . . . . . . . . . H+r I+p.G J+G K+2 z p L+. . . . . . . . . . . . . . . . . n b+d o.M+. . . . . . . ",
". . . . . . . . N+c.K.l+0+. . . . . . . . . . . . . . . . . . 7+O+P+Q+i G.| l+R+1+. . . . . . . . . . . . . . . . . . 8 v+[ Q S+. . . . . . . ",
". . . . . . . . T+i.Q.K+U+. . . . . . . _+V+:+. . . . . . . . W+U.f a+. . X+f Y+(+. . . . . . . . Z+V+_.. . . . . . . `+2.C+T. @. . . . . . . ",
". . . . . . . . .@T.H+{ +@. . . . . . . 1+$+(.@@. . . . . . . . c+#@j . . t ' $@. . . . . . . . %@&@j.*@. . . . . . . r.=@-@*@;@. . . . . . . ",
". . . . . . . . ).5+y v+z.. . . . . . `+E ' f >@. . . . . . . . 8+B. +_+$.s ++y.. . . . . . . _+,@f * |+U+. . . . . . ^ v+3+k ].. . . . . . . ",
". . . . . . . . e+&@a.G ^+. . . . . . 7+' x t+9.p.. . #.<+:+. . . }+'@%@+@K+s.. . . #.<+#.. . ^+#@.+x #@%+. . . . . . 5+D m D.)@. . . . . . . ",
". . . . . . . . !@E U+9 ~@<+. . . . y.C.H.@@{@l+C.8 A.]@t.B+c.E+. z.^@T.*@l+/@. (@T &@t._@s.U B.K+k+:@o H.<@. . . . @@[@.+J p W . . . . . . . ",
". . . . . . . . }@|@i.1@3.2@h c '+0+8 #+A.. _+~ f 2.a C.N p 3@t.V+(+@.t.Q+N h 4@5@6@'@t.R.V.2.f g _.. a+l+k+3+[ `+<+2 V.3 7@8@9@. . . . . . . ",
". . . . . . . . . 0@.+a.;+a@Y+P+0 0 p ' r+. . ^+6@b@F.h $.r.'@R+|+V+M f f n c@=+R+d@m #.<@P.F #@T.. . e@R+=+a A v+Y+R C.J 9 f@. . . . . . . . ",
". . . . . . . . . g@h@p.^+#@=@s.H+i@R ' r+. . 4@3.j@. . . *+F o.b+N 1@#@' q U.a@,@{ K . . . 1@3.^ . . o+3@a@s.H+i@v+u.p.^+k@l@. . . . . . . . ",
". . . . . . . . . . m@| 0+- /+3+. . 6 ;+%+. . H+C.A+. . 4+B.n . n@* - >+l+B+J.$@. o@U.)+. . [+| 6 . . D+@.8 . . 8 2.o.k+R p@. . . . . . . . . ",
". . . . . . . . . . . q@Z.G.++,+<+. . 2 :.#.. *+]+_.. @@~ F i+. (+( = 3., 0 5 h . i l+z :+. _+,+2@. <+ +F.. . y.]@Y+G.> r@. . . . . . . . . . ",
". . . . . . . . . . . s@+.t@c@P+u@. . h (.P . n v@. h O f C.9+. #.t.O.L+/ N s :+. Z+w@f E._+. x S . ^ o@$.. . x /+-@o@x@y@. . . . . . . . . . ",
". . . . . . . . . . . . z@A@H a+6@u@h . T B@8+Y+&@H+ +f f 4 S.#.C+K+C@. . i@b+-@#.^ 2.f f :.u+_@_@d &@e@. Z+E.f i@$@D@E@. . . . . . . . . . . ",
". . . . . . . . . . . . . !@] 0+j+f  +U c.9.d@$+f 9.f f f f b@H.F f F@K.G@[@f 4 H.=+f f f f 9.f O+d@3.K V+: f 5 3+@.H@. . . . . . . . . . . . ",
". . . . . . . . . . . . . . I@A.*@3@f B ^@f f f f f f f f f 6@u.J@a B D F B a J@' 6@f f f f f f f f f w 0 f ' p.t@K@. . . . . . . . . . . . . ",
". . . . . . . . . . . . . . L@M@p.J+f f f f f 3@, D R._@>@1@o+L+'+g+b.N@N@b.g+'+C+$@%+o@]@j+K+3.6@f f f f f b+T.O@P@. . . . . . . . . . . . . ",
". . . . . . . . . . . . . . . Q@v f f f = @.(.P.G.q+R@:+. . . . . . . . . . . . . . . . :+Z+d k+c.I+( A f f f ^@+.. . . . . . . . . . . . . . ",
". . . . . . . . . . . . . . . S@f 6@R.A.0+(+. . . . . _+@@E+U+N@z.y ^ L+L+^ y k+N@f+E+<@_+. . . . . y.G.&+6+f f T@. . . . . . . . . . . . . . ",
". . . . . . . . . . . . . . U@V@v+1+E+. . . _+W@4+F.D+~ z+-+2.= V.* J.= = J@* X@= 2.e.U.,+v@7 b.A+_.. . . [+A.#+Y@Z@. . . . . . . . . . . . . ",
". . . . . . . . . . . . . . `@3@ #. . $.)+c.:.a@= R+f f f f f f v+e j@[ '+q ]@^@f f f f f f R+#+;+B@T.i+#.. . .#+#@#. . . . . . . . . . . . . ",
". . . . . . . . . . . . . . ##$#Z.8 *+b F v+F { v 3.3@f f f #@o.G.#.. . . . $.q.z f f f f #@, ^@J+F v+4  +T.{@s %#&#. . . . . . . . . . . . . ",
". . . . . . . . . . . . . . . *#f X@4 l 2 N@I q+`+G.c+n.f f b _.. . . . . . . . _+F@f f | p.3+)+q+I b.p.~ F X@f =#. . . . . . . . . . . . . . ",
". . . . . . . . . . . . . . . H@f Y+/@_+. . . . . . J o f f ;+u+#.. . . . . . 9+2@R f f 5@Y.. . . . . . :+0+5 6@-#. . . . . . . . . . . . . . ",
". . . . . . . . . . . . . . . Z@!.O . . . . . . _./ Y+f f f f = Z.2 i+(+y.a.p.]@, f f f f ~@-@_.. . . . . . o.;#>#. . . . . . . . . . . . . . ",
". . . . . . . . . . . . . . . ,#'#&+. . . . 9+8 o.v f f f 6@j.* X@^@1 [@t.R v X@* j.6@f f f v+X+z.$.. . . . >@)#!#. . . . . . . . . . . . . . ",
". . . . . . . . . . . . . . . ~#j.a+W+{#]#c+.+#+V./+5 d.D+c.4@U k+i b.r.r.b.i k+U u+7@j - Q+F J.^@b c.`+{#W+(.^#/#. . . . . . . . . . . . . . ",
". . . . . . . . . . . . . . . (#f B @+-+l+F D.s.8 h+h _.. . . _.:+$.$.$.$.$.$.:+_.. . . _.<@d U A.O.J+r e.=+, f _#. . . . . . . . . . . . . . ",
". . . . . . . . . . . . . . . :#f f A F@*@)+9+. . #.W+i c@C@x :..+s+9 H.H.9 s+.+d.E.q u+4+8+#.. . 9+]#Q Y+a f f <#. . . . . . . . . . . . . . ",
". . . . . . . . . . . . . . . [#3.o.8 <+. . (+z.0.: d@=+R U.]@g u@A.; ; ; ; A.k B@.+z+n.p _ e C@3+R@. . <@6 d.J@e+. . . . . . . . . . . . . . ",
". . . . . . . . . . . . . . . }#* ~@S k+q.|#++b@] x Q.4+W+<@:+. . . . . . . . . . #.@@[+2+K t ++E ] &+G.[ 5+s+j.1#. . . . . . . . . . . . . . ",
". . . . . . . . . . . . . . . 2#3#4#f a A R+a@0.4+A+$.. . . . . . . . . . . . . . . . . . $.W@g+; 1 #@B , f 5#*#6#. . . . . . . . . . . . . . ",
". . . . . . . . . . . . . . . . . l@7#8#9#!.f u.P+1 t+0#0.H {@i )+q+I I I I q+)+2+{@i.S I+Y+n.w ' f a#b#c#d###. . . . . . . . . . . . . . . . ",
". . . . . . . . . . . . . . . . . . . . . e#f#g#+.h#i#j#f 3@9.0 ^@J+D D D D J+^@0 * 3@k#+#l#m#C :#6#n#. . . . . . . . . . . . . . . . . . . . ",
". . . . . . . . . . . . . . . . . . . . . . . . . . o#/#;.X p#I.q#r#s#t#t#u#v#e+w#x#y#z#@#A#. . . . . . . . . . . . . . . . . . . . . . . . . ",
". . . . . . . . . . . . . . . . . . . . . . . . . . . . . . . . . . . . . . . . . . . . . . . . . . . . . . . . . . . . . . . . . . . . . . . ",
". . . . . . . . . . . . . . . . . . . . . . . . . . . . . . . . . . . . . . . . . . . . . . . . . . . . . . . . . . . . . . . . . . . . . . . ",
". . . . . . . . . . . . . . . . . . . . . . . . . . . . . . . . . . . . . . . . . . . . . . . . . . . . . . . . . . . . . . . . . . . . . . . ",
". . . . . . . . . . . . . . . . . . . . . . . . . . . . . . . . . . . . . . . . . . . . . . . . . . . . . . . . . . . . . . . . . . . . . . . ",
". . . . . . . . . . . . . . . . . . . . . . . . . . . . . . . . . . . . . . . . . . . . . . . . . . . . . . . . . . . . . . . . . . . . . . . ",
". . . . . . . . . . . . . . . . . . . . . . . . . . . . . . . . . . . . . . . . . . . . . . . . . . . . . . . . . . . . . . . . . . . . . . . ",
". . . . . . . . . . . . . . . . . . . . . . . . . . . . . . . . . . . . . . . . . . . . . . . . . . . . . . . . . . . . . . . . . . . . . . . "};
