/* XPM */
static char * abbd_xpm[] = {
"71 71 243 2",
"  	c None",
". 	c #FFFFFF",
"+ 	c #EFEFEF",
"@ 	c #A8A8A8",
"# 	c #D2D2D2",
"$ 	c #919191",
"% 	c #7D7D7D",
"& 	c #E7E7E7",
"* 	c #9F9F9F",
"= 	c #020202",
"- 	c #3E3E3E",
"; 	c #BDBDBD",
"> 	c #CFCFCF",
", 	c #1E1E1E",
"' 	c #000000",
") 	c #7F7F7F",
"! 	c #868686",
"~ 	c #414141",
"{ 	c #CECECE",
"] 	c #909090",
"^ 	c #292929",
"/ 	c #D9D9D9",
"( 	c #8A8A8A",
"_ 	c #111111",
": 	c #616161",
"< 	c #F4F4F4",
"[ 	c #FAFAFA",
"} 	c #5B5B5B",
"| 	c #232323",
"1 	c #1B1B1B",
"2 	c #9C9C9C",
"3 	c #010101",
"4 	c #484848",
"5 	c #E9E9E9",
"6 	c #303030",
"7 	c #040404",
"8 	c #9A9A9A",
"9 	c #9E9E9E",
"0 	c #3A3A3A",
"a 	c #C9C9C9",
"b 	c #B4B4B4",
"c 	c #060606",
"d 	c #8D8D8D",
"e 	c #313131",
"f 	c #A9A9A9",
"g 	c #A1A1A1",
"h 	c #191919",
"i 	c #0B0B0B",
"j 	c #BEBEBE",
"k 	c #2F2F2F",
"l 	c #545454",
"m 	c #CDCDCD",
"n 	c #CBCBCB",
"o 	c #262626",
"p 	c #6D6D6D",
"q 	c #0D0D0D",
"r 	c #0C0C0C",
"s 	c #C5C5C5",
"t 	c #FCFCFC",
"u 	c #656565",
"v 	c #434343",
"w 	c #ADADAD",
"x 	c #E2E2E2",
"y 	c #DDDDDD",
"z 	c #E1E1E1",
"A 	c #F8F8F8",
"B 	c #DEDEDE",
"C 	c #1F1F1F",
"D 	c #030303",
"E 	c #151515",
"F 	c #0E0E0E",
"G 	c #242424",
"H 	c #131313",
"I 	c #777777",
"J 	c #F6F6F6",
"K 	c #B8B8B8",
"L 	c #353535",
"M 	c #646464",
"N 	c #181818",
"O 	c #D7D7D7",
"P 	c #D5D5D5",
"Q 	c #070707",
"R 	c #0A0A0A",
"S 	c #3B3B3B",
"T 	c #D8D8D8",
"U 	c #F0F0F0",
"V 	c #474747",
"W 	c #BABABA",
"X 	c #686868",
"Y 	c #161616",
"Z 	c #575757",
"` 	c #E5E5E5",
" .	c #D4D4D4",
"..	c #818181",
"+.	c #454545",
"@.	c #121212",
"#.	c #383838",
"$.	c #595959",
"%.	c #B0B0B0",
"&.	c #C3C3C3",
"*.	c #343434",
"=.	c #C2C2C2",
"-.	c #4A4A4A",
";.	c #FEFEFE",
">.	c #F2F2F2",
",.	c #BFBFBF",
"'.	c #767676",
").	c #282828",
"!.	c #393939",
"~.	c #CACACA",
"{.	c #7A7A7A",
"].	c #050505",
"^.	c #989898",
"/.	c #8C8C8C",
"(.	c #B2B2B2",
"_.	c #D6D6D6",
":.	c #A0A0A0",
"<.	c #FDFDFD",
"[.	c #EAEAEA",
"}.	c #373737",
"|.	c #858585",
"1.	c #AEAEAE",
"2.	c #C4C4C4",
"3.	c #717171",
"4.	c #8F8F8F",
"5.	c #080808",
"6.	c #323232",
"7.	c #7E7E7E",
"8.	c #898989",
"9.	c #A4A4A4",
"0.	c #AAAAAA",
"a.	c #2E2E2E",
"b.	c #585858",
"c.	c #3F3F3F",
"d.	c #5C5C5C",
"e.	c #8B8B8B",
"f.	c #505050",
"g.	c #EEEEEE",
"h.	c #BCBCBC",
"i.	c #C0C0C0",
"j.	c #696969",
"k.	c #ACACAC",
"l.	c #464646",
"m.	c #101010",
"n.	c #090909",
"o.	c #757575",
"p.	c #A6A6A6",
"q.	c #1C1C1C",
"r.	c #A7A7A7",
"s.	c #DCDCDC",
"t.	c #4E4E4E",
"u.	c #727272",
"v.	c #747474",
"w.	c #F5F5F5",
"x.	c #D1D1D1",
"y.	c #171717",
"z.	c #E8E8E8",
"A.	c #787878",
"B.	c #202020",
"C.	c #B5B5B5",
"D.	c #2C2C2C",
"E.	c #606060",
"F.	c #808080",
"G.	c #B6B6B6",
"H.	c #878787",
"I.	c #565656",
"J.	c #525252",
"K.	c #C8C8C8",
"L.	c #999999",
"M.	c #333333",
"N.	c #EDEDED",
"O.	c #C7C7C7",
"P.	c #2A2A2A",
"Q.	c #4B4B4B",
"R.	c #E0E0E0",
"S.	c #0F0F0F",
"T.	c #ABABAB",
"U.	c #888888",
"V.	c #212121",
"W.	c #A5A5A5",
"X.	c #141414",
"Y.	c #8E8E8E",
"Z.	c #E4E4E4",
"`.	c #1A1A1A",
" +	c #EBEBEB",
".+	c #F1F1F1",
"++	c #4F4F4F",
"@+	c #555555",
"#+	c #7C7C7C",
"$+	c #515151",
"%+	c #979797",
"&+	c #444444",
"*+	c #5A5A5A",
"=+	c #737373",
"-+	c #828282",
";+	c #848484",
">+	c #6F6F6F",
",+	c #FBFBFB",
"'+	c #222222",
")+	c #B1B1B1",
"!+	c #E3E3E3",
"~+	c #DBDBDB",
"{+	c #929292",
"]+	c #363636",
"^+	c #494949",
"/+	c #2D2D2D",
"(+	c #B9B9B9",
"_+	c #969696",
":+	c #F7F7F7",
"<+	c #A2A2A2",
"[+	c #676767",
"}+	c #272727",
"|+	c #AFAFAF",
"1+	c #F9F9F9",
"2+	c #636363",
"3+	c #9B9B9B",
"4+	c #F3F3F3",
"5+	c #5F5F5F",
"6+	c #707070",
"7+	c #B3B3B3",
"8+	c #2B2B2B",
"9+	c #E6E6E6",
"0+	c #B7B7B7",
"a+	c #4C4C4C",
"b+	c #C1C1C1",
"c+	c #9D9D9D",
"d+	c #DFDFDF",
"e+	c #A3A3A3",
"f+	c #424242",
"g+	c #5D5D5D",
"h+	c #838383",
"i+	c #939393",
"j+	c #6B6B6B",
"k+	c #6C6C6C",
"l+	c #252525",
"m+	c #ECECEC",
"n+	c #BBBBBB",
"o+	c #6E6E6E",
"p+	c #404040",
"q+	c #DADADA",
"r+	c #626262",
"s+	c #5E5E5E",
"t+	c #3C3C3C",
". . . . . . . . . . . . . . . . . . . . . . . . . . . . . . . . . . . . . . . . . . . . . . . . . . . . . . . . . . . . . . . . . . . . . . . ",
". . . . . . . . . . . . . . . . . . . . . . . . . . . . . . . . . . . . . . . . . . . . . . . . . . . . . . . . . . . . . . . . . . . . . . . ",
". . . . . . . . . . . . . . . . . . . . . . . . . . . . . . . . . . . . . . . . . . . . . . . . . . . . . . . . . . . . . . . . . . . . . . . ",
". . . . . . . . . . . . . . . . . . . . . . . . . . . . . . . . . . . . . . . . . . . . . . . . . . . . . . . . . . . . . . . . . . . . . . . ",
". . . . . . . . . . . . . . . . . . . . . . . . . . . . . . . . . . . . . . . . . . . . . . . . . . . . . . . . . . . . . . . . . . . . . . . ",
". . . . . . . . . . . . . . . . . . . . . . . . . . . . . . . . . . . . . . . . . . . . . . . . . . . . . . . . . . . . . . . . . . . . . . . ",
". . . . . . . . . . . . . . . . . . . . . . . . . . . . . . . . . . . . . . . . . . . . . . . . . . . . . . . . . . . . . . . . . . . . . . . ",
". . . . . . . . . . . . . . . . . . . + @ # . . . . . . $ % & . . . . . . . . . . . . . . . . . . . . . . . . . . . . . . . . . . . . . . . . ",
". . . . . . . . . . . . . . . . . . . * = - ; . . . . > , ' ) . . . . . . . . . . . . . . . . . . . . . . . . . . . . . . . . . . . . . . . . ",
". . . . . . . . . . . . . . . . . . . ! ' ' ~ { . . . ] ' ' ^ / . . . . . . . . . . . . . . . . . . . . . . . . . . . . . . . . . . . . . . . ",
". . . . . . . . . . . . . . . . . . . ( ' _ ' : < . [ } ' | 1 ( . . . . . . . . . . . . . . . . . . . . . . . . . . . . . . . . . . . . . . . ",
". . . . . . . . . . . . . . . . . . . 2 3 4 - = $ . 5 6 7 8 9 0 a . . . . . . . . . . . . . . . . . . . . . . . . . . . . . . . . . . . . . . ",
". . . . . . . . . . . . . . . . . . . b c 4 d = e f g h i j & k l m . . . . . . . . . . . . . . . . . . . . . . . . . . . . . . . . . . . . . ",
". . . . . . . . . . . . . . . . . . . n _ o p i ' q q ' r s t u ' v w x y n s > z A . . . . . . . . . . . . . . . . . . . . . . . . . . . . . ",
". . . . . . . . . . . . . . . . . . . B C ' ' D ' ' ' ' E # . * D ' F G , _ q H G I J . . . . . . . . . . . . . . . . . . . . . . . . . . . . ",
". . . . . . . . . . . . . . . . . . . K H ' L M h ' ' ' N O . P 1 Q N R ' ' ' ' ' S T U [ . . . . . . . . . . . . . . . . . . . . . . . . . . ",
". . . . . . . . . . . . . . . . . . [ : ' V W X ' ' ' Y Z ` . J * w  .K ..+.@.' ' ' G #.$...%.B . . . . . . . . . . . . . . . . . . . . . . . ",
". . . . . . . . . . . . . . . . . . &.Y *.=.@ 7 ' H -.W + . . . ;.. . . . >.,.'.).' ' ' ' ' Q !.~.. . . . . . . . . . . . . . . . . . . . . . ",
". . . . . . . . . . . . . . . . . . {.].^.. /.' 6 (.` . . . . . . . . . . . . . _.) G ' ' ' 0 :.<.. . . . . . . . . . . . . . . . . . . . . . ",
". . . . . . . . . . . . . . . . . [.}.#.[.. { |.1.. . . . . . . . . . . . . . . . . 2.: 3 ' H L p w ` . . . . . . . . . . . . . . . . . . . . ",
". . . . . . . . . . . . . . . . . ,.F 3.;.. . ;.. . . . . . . . . . . . . . . . . . . J 4.C ' ' ' 5.6.7.# . . . . . . . . . . . . . . . . . . ",
". . . . . . . . . . . . . . . . . 8.7 9.. . . . . . . . . . . . . . . . . . . . . . . . . 0.#.' ' ' ' ' a.j . . . . . . . . . . . . . . . . . ",
". . . . . . . . . . . . . . . . [ b.1 P . . . . . . . . . . . . . . . . . . . . . . . . . . ; c.' ' @.d.e.z . . . . . . . . . . . . . . . . . ",
". . . . . . . . . . . . . . . . 5 k f.J . . g.~.h.i. .A . . . . . . . ;.;.. . . . . . . . . . h.*.' 5.j.{ . . . . . . . . . . . . . . . . . . ",
". . . . . . . . . . . . . . . . k._ ^.. ;.9 l.m.n.Y N o.A . . . . . ;.8.4.. . . . . . . . . . . p.q.' ' !.r.. . . . . . . . . . . . . . . . . ",
". . . . . . . . . . . . . . . s.l.t.[.;.) 5.G H G :.u.v.w.. . . . . x.y.a.z.. . . . . . . . . . . e.' ' ' 1 4.. . . . . . . . . . . . . . . . ",
". . . . . . . . . . . . . . . A.B.C.. 4.3 D.~.4.h > t J . . . . . . 1.7 o ` . . . . . . . . . . . < E.' ' ' ].F.. . . . . . . . . . . . . . . ",
". . . . . . . . . . . . . . G.y.H.. y 6.I.J.> e._ K.. . . . . . . . L.' M.N.. . . . . . . . . . . . O.P.' ' ' 3 d . . . . . . . . . . . . . . ",
". . . . . . . . . . . . . < } Q.[.. r.6.R.'.| S.0 x . . . . . . . . ] ' J.[.T.R.. . . . . . . . . . . U.' ' ' ' V.{ . . . . . . . . . . . . . ",
". . . . . . . . . . . . . W.X.r.. . $ X t & Y.) ; . . . . . . . . . e.' ..d ' $ . . . . . . . . . . . Z.c.' `.u e. +. . . . . . . . . . . . . ",
". . . . . . . . . . . . .+++@+w.. . y / . . . ;.. . . . . . . . . . #+R %.$+7 p.. . . . . . . . . . . . %+= N Y.. . . . . . . . . . . . . . . ",
". . . . . . . . . . . . :._ @ . . . . . . . . . . . . . . . . . . <.: *.K.o c.` . . . . . . . . . . . . & S ' 7 F.. . . . . . . . . . . . . . ",
". . . . . . . . . . . Z.&+*+w.. . . . . . . . . . . . . . . . . . N.#.=+/.n.9 . . . . . . . . . . . . . . ( ' ' 3 -+. . . . . . . . . . . . . ",
". . . . . . . . . . . ;+Y G.. . . . . . . . . . . . . . . . . . . %.r 6 E >+<.. . . . . . . . . . . . . .  .V.' ' F 8 . . . . . . . . . . . . ",
". . . . . . . . . . G.B.'.;.. . . . . . . . . . . . . . . . . . w.} ' ' J.r.f ,+. . . . . . . . . . . . . t u ' ' ' '+)+. . . . . . . . . . . ",
". . . . . . . . . !+++V ~+. . . . . . . . . . . . . . . . . . . {+D ' k F.]+B.~+. . . . . . . . . . . . . . f Q ' ' ' ^+Z.. . . . . . . . . . ",
". . . . . . . . . o./+..9.<.. . . . . . . . . . !+:.J . . . . (+P.' ' '+M._ ! . . . . . . . . . . . . . . . !+D.' ^ Q.a.C.. . . . . . . . . . ",
". . . . . . . . _+, ^.*+*+:+. . . . . . . . . . x.`.<+. . . j c.' ' ' ].V @ . . . . . . . . . . . . . . . . <.[+' S (+z.J . . . . . . . . . . ",
". . . . . . . ,.}+F.|+`.0.. . . . . . . . . . . .+L ++s n /.d.o.6 0 3.p.[.. . . . . . . . . . . . . . . . . . <+7 ' c.i.. . . . . . . . . . . ",
". . . . . . 1+2+!.K.J.{.;.. . . . . . . . . . . 5 /+, } {.3+s.& e 0.;.. . . . . . . . . . . . . . . . . . . . _.1 ' ' V _.. . . . . . . . . . ",
". . . . . . P q.) I t.5 . . . . . . . . . . . >.-+V.f < t . . 2.'+n . . . . . . . . . . . . . . . . . . . . . 4+&+' ' ' 5+N.. . . . . . . . . ",
". . . . . . 0.F f $.q.6+>.. . . . . . . . . 7+l }+* . . . . . e.8+9+. . . . . . . . . . . . . . . . . . . . . . '.' ' ' ' -+. . . . . . . . . ",
". . . . . . 8.Y # R.% n.0+. . . . . . . . :.'+a+7+. . . . . 4+-.5+[ . . . . . . . . . . . . . . . . . . . . . . p.7 ' r ' q.b+. . . . . . . . ",
". . . . . . I y.O . O h c+. . . . . . . )+).=+d+. . . . . . b H e+. . . . . . . . . . . . . . . . . . . . . . . > X.' f+( ^+g . . . . . . . . ",
". . . . . . u.H > . 2 F |+; 7+. . . . g /+F.. . . . . . . J g++.[.. . . . . . . . . . . . . . . . . . . . . . . [.k ' n.8 4+< . . . . . . . . ",
". . . . . . h+i ; [.I.E.T.}+M.& . ;.-+@.[+1+. . . . . . . 8 @.<+. . . . . . . . . . . . . . . . . . . . . . . . [ J.' ' e { . . . . . . . . . ",
". . . . . . 1.n.i+. O N.j+' k+t . 8.' B.K.. . . . . . . s *.p t . . . . . . . . . . . . . . . . . . . . . . . . . A.' ' ' p t . . . . . . . . ",
". . . . . . & &+J.w.. 4+^+l+K.. m+}.' p <.. . . . . . B l +.P . . . . . . . . . . . . . . . . . . . . . . . . . . 2 = ' ' E n+. . . . . . . . ",
". . . . . . . 0.C A.O & J.o+. . P 1 q b . . . . . . w.X G (.. . . . . . . . . . . . . . . . . . . . . . . . . . . h.i ' ' ' k+<.. . . . . . . ",
". . . . . . . . 0.f+, ^ Q i+. . H.' } w.. . . . . . ) 5.%+. . . . . . . . . . . . . . . . . . . . . . . . . . . . P N ' h h }+d+. . . . . . . ",
". . . . . . . . . x Y.S ' @+9.% N }+W . . . . . . {+].7.. . . . . . . . . . . . . . . . . . . . . . . . . . . . . & P.' f+W.^.z.. . . . . . . ",
". . . . . . . . . . . m } m.i Q #.<+. . . . . . w B.M >.. . . . . . . . . . . . . . . . . . . . . . . . . . . . . 4+- ' ' #+. . . . . . . . . ",
". . . . . . . . . . . . >.K.%.G.R.. . . . . . # p+-.q+. . . . . . . . . . . . . . . . . . . . . . . . . . . . . . ,+@+' ' `.(+. . . . . . . . ",
". . . . . . . . . . . . . . . . . . . . . . t k+V.C.. . . . . . . . . . . . . . . . . . . . . . . . . . . . . . . . p ' ' ' d.J . . . . . . . ",
". . . . . . . . . . . . . . . . . . . . . . w F ! . . . . . . . . . . . . . . . . . . . . . . . . . . . . . . . . . ;+' ' ' r %.. . . . . . . ",
". . . . . . . . . . . . . . . . . . . . . < @+- Z.. . . . . . . . . . . . . . . . . . . . . . . . . . . . . . . . . 3+= ' D ' M [ . . . . . . ",
". . . . . . . . . . . . . . . . . . . . . G.F d . . . . . . . . . . . . . . . . . . . . . . . . . . . . . . . . . . 1.7 E E.r+s+& . . . . . . ",
". . . . . . . . . . . . . . . . . . . . . o.`.# . . . . . . . . . . . . . . . . . . . . . . . . . . . . . . . . . . j R ' *+U [.. . . . . . . ",
". . . . . . . . . . . . . . . . . . . . + t+f+< . . . . . . . . . . . . . . . . . . . . . . . . . . . . . . . . . . ~.S.' 5.@ . . . . . . . . ",
". . . . . . . . . . . . . . . . . . . . q+, M J :+:+:+:+:+:+:+:+:+:+:+:+:+:+:+:+:+:+:+:+:+:+:+:+:+:+:+:+:+:+:+:+:+:+m y.' ' d.1+. . . . . . . ",
". . . . . . . . . . . . . . . . . . . . O.F B.V V V V V V V V V V V V V V V V V V V V V V V V V V V V V V V V V V V ~ = ' ' B.y . . . . . . . ",
". . . . . . . . . . . . . . . . . . . . &.k l+l+l+l+l+l+l+l+l+l+l+l+l+l+l+l+l+l+l+l+l+l+l+l+l+l+l+l+l+l+l+l+l+l+l+l+l+l+l+l+6.K.. . . . . . . ",
". . . . . . . . . . . . . . . . . . . . <.` ` ` ` ` ` ` ` ` ` ` ` ` ` ` ` ` ` ` ` ` ` ` ` ` ` ` ` ` ` ` ` ` ` ` ` ` ` ` ` ` ` t . . . . . . . ",
". . . . . . . . . . . . . . . . . . . . . . . . . . . . . . . . . . . . . . . . . . . . . . . . . . . . . . . . . . . . . . . . . . . . . . . ",
". . . . . . . . . . . . . . . . . . . . . . . . . . . . . . . . . . . . . . . . . . . . . . . . . . . . . . . . . . . . . . . . . . . . . . . ",
". . . . . . . . . . . . . . . . . . . . . . . . . . . . . . . . . . . . . . . . . . . . . . . . . . . . . . . . . . . . . . . . . . . . . . . ",
". . . . . . . . . . . . . . . . . . . . . . . . . . . . . . . . . . . . . . . . . . . . . . . . . . . . . . . . . . . . . . . . . . . . . . . ",
". . . . . . . . . . . . . . . . . . . . . . . . . . . . . . . . . . . . . . . . . . . . . . . . . . . . . . . . . . . . . . . . . . . . . . . ",
". . . . . . . . . . . . . . . . . . . . . . . . . . . . . . . . . . . . . . . . . . . . . . . . . . . . . . . . . . . . . . . . . . . . . . . ",
". . . . . . . . . . . . . . . . . . . . . . . . . . . . . . . . . . . . . . . . . . . . . . . . . . . . . . . . . . . . . . . . . . . . . . . ",
". . . . . . . . . . . . . . . . . . . . . . . . . . . . . . . . . . . . . . . . . . . . . . . . . . . . . . . . . . . . . . . . . . . . . . . "};
