/* XPM */
static char * nwwb_xpm[] = {
"71 71 182 2",
"  	c None",
". 	c #FFFFFF",
"+ 	c #646464",
"@ 	c #585858",
"# 	c #676767",
"$ 	c #5C5C5C",
"% 	c #252525",
"& 	c #0B0B0B",
"* 	c #1B1B1B",
"= 	c #1A1A1A",
"- 	c #2A2A2A",
"; 	c #5F5F5F",
"> 	c #1C1C1C",
", 	c #393939",
"' 	c #9C9C9C",
") 	c #D7D7D7",
"! 	c #D6D6D6",
"~ 	c #969696",
"{ 	c #353535",
"] 	c #171717",
"^ 	c #2B2B2B",
"/ 	c #232323",
"( 	c #BABABA",
"_ 	c #B5B5B5",
": 	c #323232",
"< 	c #6C6C6C",
"[ 	c #6A6A6A",
"} 	c #FEFEFE",
"| 	c #FCFCFC",
"1 	c #0E0E0E",
"2 	c #9F9F9F",
"3 	c #626262",
"4 	c #050505",
"5 	c #878787",
"6 	c #797979",
"7 	c #080808",
"8 	c #696969",
"9 	c #0A0A0A",
"0 	c #6E6E6E",
"a 	c #FDFDFD",
"b 	c #636363",
"c 	c #0C0C0C",
"d 	c #777777",
"e 	c #262626",
"f 	c #C3C3C3",
"g 	c #BBBBBB",
"h 	c #222222",
"i 	c #2C2C2C",
"j 	c #5A5A5A",
"k 	c #434343",
"l 	c #ABABAB",
"m 	c #E5E5E5",
"n 	c #E4E4E4",
"o 	c #A6A6A6",
"p 	c #3D3D3D",
"q 	c #151515",
"r 	c #5B5B5B",
"s 	c #404040",
"t 	c #000000",
"u 	c #272727",
"v 	c #090909",
"w 	c #343434",
"x 	c #7F7F7F",
"y 	c #616161",
"z 	c #ECECEC",
"A 	c #363636",
"B 	c #7A7A7A",
"C 	c #747474",
"D 	c #F0F0F0",
"E 	c #666666",
"F 	c #424242",
"G 	c #E9E9E9",
"H 	c #E0E0E0",
"I 	c #4E4E4E",
"J 	c #4B4B4B",
"K 	c #DFDFDF",
"L 	c #DDDDDD",
"M 	c #515151",
"N 	c #484848",
"O 	c #4A4A4A",
"P 	c #BFBFBF",
"Q 	c #B3B3B3",
"R 	c #101010",
"S 	c #444444",
"T 	c #040404",
"U 	c #B9B9B9",
"V 	c #B2B2B2",
"W 	c #717171",
"X 	c #181818",
"Y 	c #5E5E5E",
"Z 	c #555555",
"` 	c #888888",
" .	c #686868",
"..	c #060606",
"+.	c #1E1E1E",
"@.	c #656565",
"#.	c #DCDCDC",
"$.	c #2E2E2E",
"%.	c #6B6B6B",
"&.	c #141414",
"*.	c #6D6D6D",
"=.	c #FAFAFA",
"-.	c #DADADA",
";.	c #414141",
">.	c #131313",
",.	c #AFAFAF",
"'.	c #4F4F4F",
").	c #727272",
"!.	c #595959",
"~.	c #5D5D5D",
"{.	c #E1E1E1",
"].	c #DBDBDB",
"^.	c #1D1D1D",
"/.	c #535353",
"(.	c #D0D0D0",
"_.	c #B8B8B8",
":.	c #202020",
"<.	c #070707",
"[.	c #7E7E7E",
"}.	c #757575",
"|.	c #494949",
"1.	c #C0C0C0",
"2.	c #B4B4B4",
"3.	c #383838",
"4.	c #D8D8D8",
"5.	c #D1D1D1",
"6.	c #3A3A3A",
"7.	c #D5D5D5",
"8.	c #CDCDCD",
"9.	c #4D4D4D",
"0.	c #A9A9A9",
"a.	c #9D9D9D",
"b.	c #525252",
"c.	c #F7F7F7",
"d.	c #F1F1F1",
"e.	c #505050",
"f.	c #464646",
"g.	c #828282",
"h.	c #333333",
"i.	c #020202",
"j.	c #CBCBCB",
"k.	c #3E3E3E",
"l.	c #474747",
"m.	c #030303",
"n.	c #7B7B7B",
"o.	c #565656",
"p.	c #1F1F1F",
"q.	c #0F0F0F",
"r.	c #121212",
"s.	c #B6B6B6",
"t.	c #EFEFEF",
"u.	c #3C3C3C",
"v.	c #999999",
"w.	c #909090",
"x.	c #0D0D0D",
"y.	c #606060",
"z.	c #F2F2F2",
"A.	c #EDEDED",
"B.	c #C4C4C4",
"C.	c #3F3F3F",
"D.	c #242424",
"E.	c #BEBEBE",
"F.	c #CACACA",
"G.	c #C2C2C2",
"H.	c #161616",
"I.	c #575757",
"J.	c #8C8C8C",
"K.	c #212121",
"L.	c #E3E3E3",
"M.	c #292929",
"N.	c #C7C7C7",
"O.	c #8A8A8A",
"P.	c #C5C5C5",
"Q.	c #E8E8E8",
"R.	c #F5F5F5",
"S.	c #373737",
"T.	c #EBEBEB",
"U.	c #303030",
"V.	c #B1B1B1",
"W.	c #AAAAAA",
"X.	c #2D2D2D",
"Y.	c #454545",
". . . . . . . . . . . . . . . . . . . . . . . . . . . . . . . . . . . . . . . . . . . . . . . . . . . . . . . . . . . . . . . . . . . . . . . ",
". . . . . . . . . . . . . . . . . . . . . . . . . . . . . . . . . . . . . . . . . . . . . . . . . . . . . . . . . . . . . . . . . . . . . . . ",
". . . . . . . . . . . . . . . . . . . . . . . . . . . . . . . . . . . . . . . . . . . . . . . . . . . . . . . . . . . . . . . . . . . . . . . ",
". . . . . . . . . . . . . . . . . . . . . . . . . . . . . . . . . . . . . . . . . . . . . . . . . . . . . . . . . . . . . . . . . . . . . . . ",
". . . . . . . . . . . . . . . . . . . . . . . . . . . . . . . . . . . . . . . . . . . . . . . . . . . . . . . . . . . . . . . . . . . . . . . ",
". . . . . . . . . . . . . . . . . . . . . . . . . . . . . . . . . . . . . . . . . . . . . . . . . . . . . . . . . . . . . . . . . . . . . . . ",
". . . . . . . . . . . . . . . . . . . . . . . . . . . . . . . . . . + @ @ # . . . . . . . . . . . . . . . . . . . . . . . . . . . . . . . . . ",
". . . . . . . . . . . . . . . . . . . . . . . . . . . . . . . . $ % & * = & - ; . . . . . . . . . . . . . . . . . . . . . . . . . . . . . . . ",
". . . . . . . . . . . . . . . . . . . . . . . . . . . . . . . ; > , ' ) ! ~ { ] ; . . . . . . . . . . . . . . . . . . . . . . . . . . . . . . ",
". . . . . . . . . . . . . . . . . . . . . . . . . . . . . . . ^ / ( . . . . _ * : . . . . . . . . . . . . . . . . . . . . . . . . . . . . . . ",
". . . . . . . . . . . . . . . . . . . . . . . . . . . . . . < & [ } . . . . | ; 1 2 . . . . . . . . . . . . . . . . . . . . . . . . . . . . . ",
". . . . . . . . . . . . . . . . . . . . . . . . . . . . . . 3 4 5 . . . . . . 6 7 [ . . . . . . . . . . . . . . . . . . . . . . . . . . . . . ",
". . . . . . . . . . . . . . . . . . . . . . . . . . . . . . 8 9 0 } . . . . a b c d . . . . . . . . . . . . . . . . . . . . . . . . . . . . . ",
". . . . . . . . . . . . . . . . . . . . . . . . . . . . . . . e - f . . . . g h i . . . . . . . . . . . . . . . . . . . . . . . . . . . . . . ",
". . . . . . . . . . . . . . . . . . . . . . . . . . . . . . . j ] k l m n o p q r . . . . . . . . . . . . . . . . . . . . . . . . . . . . . . ",
". . . . . . . . . . . . . . . . . . . . . . . . . . . . . . . . s t & u e v t k . . . . . . . . . . . . . . . . . . . . . . . . . . . . . . . ",
". . . . . . . . . . . . . . . . . . . . . . . . . . . . . . . . w t 3 x x y t : z . . . . . . . . . . . . . . . . . . . . . . . . . . . . . . ",
". . . . . . . . . . . . . . . . . . . . . . . . . . . . . . . A t x . . . } B t { . . . . . . . . . . . . . . . . . . . . . . . . . . . . . . ",
". . . . . . . . . . . . . . . . . . . . . . . . . . . . . . { t C | . . . . D E t F . . . . . . . . . . . . . . . . . . . . . . . . . . . . . ",
". . . . . . . . . . . . . . . . . . . . . . . . . . . . . k t 3 G . . . . . . H ; t I . . . . . . . . . . . . . . . . . . . . . . . . . . . . ",
". . . . . . . . . . . . . . . . . . . . . . . . . . . . J t j K . . . . . . . . L M t N . . . . . . . . . . . . . . . . . . . . . . . . . . . ",
". . . . . . . . . . . . . . . . . . . . . . . . . . . O t q P . . . . . . . . . . Q R t F . . . . . . . . . . . . . . . . . . . . . . . . . . ",
". . . . . . . . . . . . . . . . . . . . . . . . . . S t t T d Q U U U U U U U U V W t t 7 M . . . . . . . . . . . . . . . . . . . . . . . . . ",
". . . . . . . . . . . . . . . . . . . . . . . . . V X T T T t 7 7 7 7 7 7 7 7 7 7 t T T T h z . . . . . . . . . . . . . . . . . . . . . . . . ",
". . . . . . . . . . . . . . . . . . . . . . . . . . b Y Y Z > 7 < ` ` ` ` ` `  ...+.Z Y Y @.. . . . . . . . . . . . . . . . . . . . . . . . . ",
". . . . . . . . . . . . . . . . . . . . . . . . . . . . . . ^ ^ n . . . . . . #./ $.. . . . . . . . . . . . . . . . . . . . . . . . . . . . . ",
". . . . . . . . . . . . . . . . . . . . . . . . . . . . . %.&.*.} . . . . . . =.b X -.. . . . . . . . . . . . . . . . . . . . . . . . . . . . ",
". . . . . . . . . . . . . . . . . . . . . . . . . . . . . ;.>.( . . . . . . . . ,.c ;.. . . . . . . . . . . . . . . . . . . . . . . . . . . . ",
". . . . . . . . . . . . . . . . . . . . . . . . . . . . '.T ).} . . . . . . . . =.%.9 !.. . . . . . . . . . . . . . . . . . . . . . . . . . . ",
". . . . . . . . . . . . . . . . . . . . . . . . . . . ~.= Y {.. . . . . . . . . . ].Z ^.~.. . . . . . . . . . . . . . . . . . . . . . . . . . ",
". . . . . . . . . . . . . . . . . . . . . . . . . . Y = /.#.. . . . . . . . . . . . (.N = b . . . . . . . . . . . . . . . . . . . . . . . . . ",
". . . . . . . . . . . . . . . . . . . . . . . . . . $.- f . . . . . . . . . . . . . . _.:.w . . . . . . . . . . . . . . . . . . . . . . . . . ",
". . . . . . . . . . . . . . . . . . . . . . . . . + <.[.. . . . . . . . . . . . . . . . }.& E . . . . . . . . . . . . . . . . . . . . . . . . ",
". . . . . . . . . . . . . . . . . . . . . . . . . |.1 1.. . . . . . . . . . . . . . . . 2.v I . . . . . . . . . . . . . . . . . . . . . . . . ",
". . . . . . . . . . . . . . . . . . . . . . . . . 3.= 4.. . . . . . . . . . . . . . . . 5.q s . . . . . . . . . . . . . . . . . . . . . . . . ",
". . . . . . . . . . . . . . . . . . . . . . . . . 6.X 7.. . . . . . . . . . . . . . . . 8.>.k . . . . . . . . . . . . . . . . . . . . . . . . ",
". . . . . . . . . . . . . . . . . . . . . . . . . 9.<.0.. . . . . . . . . . . . . . . . a.T b.. . . . . . . . . . . . . . . . . . . . . . . . ",
". . . . . . . . . . . . . . . . . . . . . . . . . < >.$ c.. . . . . . . . . . . . . . d.e.X V . . . . . . . . . . . . . . . . . . . . . . . . ",
". . . . . . . . . . . . . . . . . . . . . . . . . . f.t g.} . . . . . . . . . . . . a x t 9.. . . . . . . . . . . . . . . . . . . . . . . . . ",
". . . . . . . . . . . . . . . . . . . . . . . . . . . h.i.).(.=.. . . . . . . . =.j.0 t k.. . . . . . . . . . . . . . . . . . . . . . . . . . ",
". . . . . . . . . . . . . . . . . . . . . . . . . . . . l.m./ @ n.5 ` ` ` ` 5 6 o.p.q.O . . . . . . . . . . . . . . . . . . . . . . . . . . . ",
". . . . . . . . . . . . . . . . . . . . . . . . . . . . . F t <.& & & & & & & & 4 t 9.. . . . . . . . . . . . . . . . . . . . . . . . . . . . ",
". . . . . . . . . . . . . . . . . . . . . . . . . . . . . 8 9 }.f f f f f f f f 0 v < . . . . . . . . . . . . . . . . . . . . . . . . . . . . ",
". . . . . . . . . . . . . . . . . . . . . . . . . . . . . Z r.1.. . . . . . . . s.1 $ . . . . . . . . . . . . . . . . . . . . . . . . . . . . ",
". . . . . . . . . . . . . . . . . . . . . . . . . . . . . A l.t.. . . . . . . . G u.6.. . . . . . . . . . . . . . . . . . . . . . . . . . . . ",
". . . . . . . . . . . . . . . . . . . . . . . . . . . . @ 1 v.. . . . . . . . . . w.x.y.. . . . . . . . . . . . . . . . . . . . . . . . . . . ",
". . . . . . . . . . . . . . . . . . . . . . . . . . . < / Y z.. . . . . . . . . . A.Z % b . . . . . . . . . . . . . . . . . . . . . . . . . . ",
". . . . . . . . . . . . . . . . . . . . . . . . . . 8 - ;.j.. . . . . . . . . . . . B.C.D.8 . . . . . . . . . . . . . . . . . . . . . . . . . ",
". . . . . . . . . . . . . . . . . . . . . . . . . @ p.;.P . . . . . . . . . . . . . . E.C./ @ . . . . . . . . . . . . . . . . . . . . . . . . ",
". . . . . . . . . . . . . . . . . . . . . . . . ; > !.F.. . . . . . . . . . . . . . . . G.e.H.I.. . . . . . . . . . . . . . . . . . . . . . . ",
". . . . . . . . . . . . . . . . . . . . . . . !.= b K . . . . . . . . . . . . . . . . . . #.; q Y . . . . . . . . . . . . . . . . . . . . . . ",
". . . . . . . . . . . . . . . . . . . . . . J.K.y.L.. . . . . . . . . . . . . . . . . . . . K j M.z . . . . . . . . . . . . . . . . . . . . . ",
". . . . . . . . . . . . . . . . . . . . . . k.h.(.. . . . . . . . . . . . . . . . . . . . . . N.M.;.. . . . . . . . . . . . . . . . . . . . . ",
". . . . . . . . . . . . . . . . . . . . . + x.O.. . . . . . . . . . . . . . . . . . . . . . . . x r.8 . . . . . . . . . . . . . . . . . . . . ",
". . . . . . . . . . . . . . . . . . . . . k.X (.. . . . . . . . . . . . . . . . . . . . . . . . P.r.;.. . . . . . . . . . . . . . . . . . . . ",
". . . . . . . . . . . . . . . . . . . . . X w t.. . . . . . . . . . . . . . . . . . . . . . . . Q.i ^.. . . . . . . . . . . . . . . . . . . . ",
". . . . . . . . . . . . . . . . . . . . y.4 C.R.. . . . . . . . . . . . . . . . . . . . . . . . z.6.<.@.. . . . . . . . . . . . . . . . . . . ",
". . . . . . . . . . . . . . . . . . . . l.t S.D . . . . . . . . . . . . . . . . . . . . . . . . T.U.t '.. . . . . . . . . . . . . . . . . . . ",
". . . . . . . . . . . . . . . . . . . . { t r.V.a a a a a a a a a a a a a a a a a a a a a a a a W.c t p . . . . . . . . . . . . . . . . . . . ",
". . . . . . . . . . . . . . . . . . . . M.t t X.y # # # # # # # # # # # # # # # # # # # # # # ; - t t : . . . . . . . . . . . . . . . . . . . ",
". . . . . . . . . . . . . . . . . . . . e t t t t t t t t t t t t t t t t t t t t t t t t t t t t t t $.. . . . . . . . . . . . . . . . . . . ",
". . . . . . . . . . . . . . . . . . . . s = = = = = = = = = = = = = = = = = = = = = = = = = = = = = = Y.. . . . . . . . . . . . . . . . . . . ",
". . . . . . . . . . . . . . . . . . . . . . . . . . . . . . . . . . . . . . . . . . . . . . . . . . . . . . . . . . . . . . . . . . . . . . . ",
". . . . . . . . . . . . . . . . . . . . . . . . . . . . . . . . . . . . . . . . . . . . . . . . . . . . . . . . . . . . . . . . . . . . . . . ",
". . . . . . . . . . . . . . . . . . . . . . . . . . . . . . . . . . . . . . . . . . . . . . . . . . . . . . . . . . . . . . . . . . . . . . . ",
". . . . . . . . . . . . . . . . . . . . . . . . . . . . . . . . . . . . . . . . . . . . . . . . . . . . . . . . . . . . . . . . . . . . . . . ",
". . . . . . . . . . . . . . . . . . . . . . . . . . . . . . . . . . . . . . . . . . . . . . . . . . . . . . . . . . . . . . . . . . . . . . . ",
". . . . . . . . . . . . . . . . . . . . . . . . . . . . . . . . . . . . . . . . . . . . . . . . . . . . . . . . . . . . . . . . . . . . . . . ",
". . . . . . . . . . . . . . . . . . . . . . . . . . . . . . . . . . . . . . . . . . . . . . . . . . . . . . . . . . . . . . . . . . . . . . . ",
". . . . . . . . . . . . . . . . . . . . . . . . . . . . . . . . . . . . . . . . . . . . . . . . . . . . . . . . . . . . . . . . . . . . . . . ",
". . . . . . . . . . . . . . . . . . . . . . . . . . . . . . . . . . . . . . . . . . . . . . . . . . . . . . . . . . . . . . . . . . . . . . . "};
