/* XPM */
static char * nwwq_xpm[] = {
"71 71 254 2",
"  	c None",
". 	c #FFFFFF",
"+ 	c #F1F1F1",
"@ 	c #F2F2F2",
"# 	c #E5E5E5",
"$ 	c #818181",
"% 	c #454545",
"& 	c #484848",
"* 	c #888888",
"= 	c #E8E8E8",
"- 	c #636363",
"; 	c #4E4E4E",
"> 	c #979797",
", 	c #949494",
"' 	c #464646",
") 	c #686868",
"! 	c #F7F7F7",
"~ 	c #B5B5B5",
"{ 	c #323232",
"] 	c #D2D2D2",
"^ 	c #C7C7C7",
"/ 	c #2E2E2E",
"( 	c #BEBEBE",
"_ 	c #494949",
": 	c #FAFAFA",
"< 	c #F5F5F5",
"[ 	c #414141",
"} 	c #A4A4A4",
"| 	c #ACACAC",
"1 	c #343434",
"2 	c #D7D7D7",
"3 	c #303030",
"4 	c #B8B8B8",
"5 	c #EAEAEA",
"6 	c #5B5B5B",
"7 	c #585858",
"8 	c #ADADAD",
"9 	c #A9A9A9",
"0 	c #555555",
"a 	c #616161",
"b 	c #F0F0F0",
"c 	c #EEEEEE",
"d 	c #DEDEDE",
"e 	c #737373",
"f 	c #090909",
"g 	c #0E0E0E",
"h 	c #777777",
"i 	c #EFEFEF",
"j 	c #919191",
"k 	c #444444",
"l 	c #3E3E3E",
"m 	c #7D7D7D",
"n 	c #E6E6E6",
"o 	c #F8F8F8",
"p 	c #515151",
"q 	c #E1E1E1",
"r 	c #797979",
"s 	c #3D3D3D",
"t 	c #9A9A9A",
"u 	c #AFAFAF",
"v 	c #292929",
"w 	c #8B8B8B",
"x 	c #9C9C9C",
"y 	c #787878",
"z 	c #505050",
"A 	c #5D5D5D",
"B 	c #FCFCFC",
"C 	c #707070",
"D 	c #A1A1A1",
"E 	c #313131",
"F 	c #B9B9B9",
"G 	c #FDFDFD",
"H 	c #666666",
"I 	c #3B3B3B",
"J 	c #ECECEC",
"K 	c #F6F6F6",
"L 	c #353535",
"M 	c #AAAAAA",
"N 	c #FEFEFE",
"O 	c #5C5C5C",
"P 	c #5A5A5A",
"Q 	c #FBFBFB",
"R 	c #8A8A8A",
"S 	c #1F1F1F",
"T 	c #262626",
"U 	c #E4E4E4",
"V 	c #969696",
"W 	c #858585",
"X 	c #BABABA",
"Y 	c #2B2B2B",
"Z 	c #1B1B1B",
"` 	c #8F8F8F",
" .	c #BBBBBB",
"..	c #0B0B0B",
"+.	c #0F0F0F",
"@.	c #C4C4C4",
"#.	c #898989",
"$.	c #212121",
"%.	c #676767",
"&.	c #C6C6C6",
"*.	c #B6B6B6",
"=.	c #000000",
"-.	c #1A1A1A",
";.	c #9B9B9B",
">.	c #6A6A6A",
",.	c #4B4B4B",
"'.	c #C1C1C1",
").	c #C9C9C9",
"!.	c #E7E7E7",
"~.	c #A0A0A0",
"{.	c #A6A6A6",
"].	c #565656",
"^.	c #4C4C4C",
"/.	c #6F6F6F",
"(.	c #ABABAB",
"_.	c #CACACA",
":.	c #DBDBDB",
"<.	c #2C2C2C",
"[.	c #2D2D2D",
"}.	c #C5C5C5",
"|.	c #3A3A3A",
"1.	c #878787",
"2.	c #7B7B7B",
"3.	c #F4F4F4",
"4.	c #757575",
"5.	c #151515",
"6.	c #BFBFBF",
"7.	c #2A2A2A",
"8.	c #838383",
"9.	c #4A4A4A",
"0.	c #CBCBCB",
"a.	c #D4D4D4",
"b.	c #C8C8C8",
"c.	c #232323",
"d.	c #B2B2B2",
"e.	c #A7A7A7",
"f.	c #E0E0E0",
"g.	c #161616",
"h.	c #D3D3D3",
"i.	c #5F5F5F",
"j.	c #DCDCDC",
"k.	c #8D8D8D",
"l.	c #7A7A7A",
"m.	c #999999",
"n.	c #3F3F3F",
"o.	c #060606",
"p.	c #B4B4B4",
"q.	c #D6D6D6",
"r.	c #CECECE",
"s.	c #202020",
"t.	c #020202",
"u.	c #393939",
"v.	c #A8A8A8",
"w.	c #6B6B6B",
"x.	c #D5D5D5",
"y.	c #696969",
"z.	c #595959",
"A.	c #222222",
"B.	c #383838",
"C.	c #535353",
"D.	c #E9E9E9",
"E.	c #2F2F2F",
"F.	c #959595",
"G.	c #717171",
"H.	c #EBEBEB",
"I.	c #D1D1D1",
"J.	c #7E7E7E",
"K.	c #272727",
"L.	c #5E5E5E",
"M.	c #4D4D4D",
"N.	c #8C8C8C",
"O.	c #808080",
"P.	c #F9F9F9",
"Q.	c #575757",
"R.	c #6C6C6C",
"S.	c #AEAEAE",
"T.	c #040404",
"U.	c #929292",
"V.	c #CCCCCC",
"W.	c #B7B7B7",
"X.	c #242424",
"Y.	c #1E1E1E",
"Z.	c #A5A5A5",
"`.	c #545454",
" +	c #939393",
".+	c #010101",
"++	c #7F7F7F",
"@+	c #DADADA",
"#+	c #767676",
"$+	c #424242",
"%+	c #191919",
"&+	c #050505",
"*+	c #9E9E9E",
"=+	c #282828",
"-+	c #868686",
";+	c #E2E2E2",
">+	c #828282",
",+	c #3C3C3C",
"'+	c #333333",
")+	c #D9D9D9",
"!+	c #909090",
"~+	c #CDCDCD",
"{+	c #727272",
"]+	c #656565",
"^+	c #626262",
"/+	c #DDDDDD",
"(+	c #525252",
"_+	c #7C7C7C",
":+	c #A3A3A3",
"<+	c #A2A2A2",
"[+	c #BCBCBC",
"}+	c #B1B1B1",
"|+	c #989898",
"1+	c #363636",
"2+	c #4F4F4F",
"3+	c #606060",
"4+	c #8E8E8E",
"5+	c #141414",
"6+	c #121212",
"7+	c #373737",
"8+	c #C0C0C0",
"9+	c #9D9D9D",
"0+	c #0C0C0C",
"a+	c #181818",
"b+	c #1C1C1C",
"c+	c #030303",
"d+	c #111111",
"e+	c #E3E3E3",
"f+	c #D0D0D0",
"g+	c #404040",
"h+	c #C2C2C2",
"i+	c #101010",
"j+	c #9F9F9F",
"k+	c #D8D8D8",
"l+	c #252525",
"m+	c #131313",
"n+	c #070707",
"o+	c #171717",
"p+	c #DFDFDF",
"q+	c #6E6E6E",
"r+	c #434343",
"s+	c #EDEDED",
"t+	c #F3F3F3",
"u+	c #646464",
"v+	c #080808",
"w+	c #848484",
"x+	c #0A0A0A",
"y+	c #6D6D6D",
"z+	c #C3C3C3",
"A+	c #B0B0B0",
"B+	c #0D0D0D",
"C+	c #CFCFCF",
"D+	c #B3B3B3",
"E+	c #1D1D1D",
". . . . . . . . . . . . . . . . . . . . . . . . . . . . . . . . . . . . . . . . . . . . . . . . . . . . . . . . . . . . . . . . . . . . . . . ",
". . . . . . . . . . . . . . . . . . . . . . . . . . . . . . . . . . . . . . . . . . . . . . . . . . . . . . . . . . . . . . . . . . . . . . . ",
". . . . . . . . . . . . . . . . . . . . . . . . . . . . . . . . . . . . . . . . . . . . . . . . . . . . . . . . . . . . . . . . . . . . . . . ",
". . . . . . . . . . . . . . . . . . . . . . . . . . . . . . . . . . . . . . . . . . . . . . . . . . . . . . . . . . . . . . . . . . . . . . . ",
". . . . . . . . . . . . . . . . . . . . . . . . . . . . . . . . . . . . . . . . . . . . . . . . . . . . . . . . . . . . . . . . . . . . . . . ",
". . . . . . . . . . . . . . . . . . . . . . . . . . . . . . . . . . . . . . . . . . . . . . . . . . . . . . . . . . . . . . . . . . . . . . . ",
". . . . . . . . . . . . . . . . . . . . . . . . . . . . . . . . . . . . . . . . . . . . . . . . . . . . . . . . . . . . . . . . . . . . . . . ",
". . . . . . . . . . . . . . . . . . . . . . . . . . . . . . . . . . . + @ . . . . . . . . . . . . . . . . . . . . . . . . . . . . . . . . . . ",
". . . . . . . . . . . . . . . . . . . . . . . . . . . . . . . . . # $ % & * = . . . . . . . . . . . . . . . . . . . . . . . . . . . . . . . . ",
". . . . . . . . . . . . . . . . . . . . . . . . . . . . . . . . @ - ; > , ' ) ! . . . . . . . . . . . . . . . . . . . . . . . . . . . . . . . ",
". . . . . . . . . . . . . . . . . . . . . . . . . . . . . . . . ~ { ] . . ^ / ( . . . . . . . . . . . . . . . . . . . . . . . . . . . . . . . ",
". . . . . . . . . . . . . . . . . . . . . . . . . . . . . . . . > _ : . . < [ } . . . . . . . . . . . . . . . . . . . . . . . . . . . . . . . ",
". . . . . . . . . . . . . . . . . . . . . . . . . . . . . . . . | 1 2 . . ] 3 4 . . . . . . . . . . . . . . . . . . . . . . . . . . . . . . . ",
". . . . . . . . . . . . . . . . . . . . . . . . . . . . . . . . 5 6 7 8 9 0 a b . . . . . . . . . . . . . . . . . . . . . . . . . . . . . . . ",
". . . . . . . . . . . . . . . . . . . . c c . . . . . . . . . . . d e f g h # . . . . . . . . . . . c i . . . . . . . . . . . . . . . . . . . ",
". . . . . . . . . . . . . . . . . . . j k l m n . . . . . . . . . . o ' p : . . . . . . . . . . q r s ' t . . . . . . . . . . . . . . . . . . ",
". . . . . . . . . . . . . . . . . . u v w x l y . . . . . . . . . . : z A B . . . . . . . . . B C _ D * E F . . . . . . . . . . . . . . . . . ",
". . . . . . . . . . . . . . . . . G e H . . x I J . . . . . . . . . + I ' K . . . . . . . . . n L M . N O $ . . . . . . . . . . . . . . . . . ",
". . . . . . . . . . . . . . . . . . h P Q . R % b . . . . . . . . . d S T U . . . . . . . . . 5 I V . K p W . . . . . . . . . . . . . . . . . ",
". . . . . . . . . . . . . . . . . . X Y P H Z ` . . . . . . . . . .  ...+.@.. . . . . . . . . . #.$.%.7 { &.. . . . . . . . . . . . . . . . . ",
". . . . . . . . . . . . . . . . . . . *.[ =.C . . . . . . . . . . . ` Z -.;.. . . . . . . . . . . >.=.,.'.. . . . . . . . . . . . . . . . . . ",
". . . . . b ).&.!.. . . . . . . . . . . ~...{.. . . . . . . . . . B - ].^./.. . . . . . . . . . . t g (.. . . . . . . . . . . # @._.@ . . . . ",
". . . . :.6 <.[.& }.. . . . . . . . . . }.g $ . . . . . . . . . . i |.1.2.% 3.. . . . . . . . . . 4.5.] . . . . . . . . . . 6.' / 7.a # . . . ",
". . . . 8.9.0.a.A H : . . . . . . . . . b.+.I = . . . . . . . . . 2 c.d.e.T f.. . . . . . . . . q E g.h.. . . . . . . . . ! i.%.j.@.l k.. . . ",
". . . : O l.. . m.n.@ . . . . . . . . . b.+.o.~.. . . . . . . . . p.c.q.r.s.6.. . . . . . . . . V t.g.h.. . . . . . . . . 5 u.v.. . w.>.B . . ",
". . . . $ ; x.n y.z.o . . . . . . . . . b.A.B.C.< . . . . . . . . * B.i D.E.F.. . . . . . . . i & I v h.. . . . . . . . . < ; G.H.I.% w . . . ",
". . . . x.^./ [.=.J.. . . . . . . . . . b.K.* Z ~ . . . . . . . : O a B : 0 y.G . . . . . . . | Z k.7.h.. . . . . . . . . . G.=.E.<.P f.. . . ",
". . . . . # (.>.=.L.Q . . . . . . . . . b.K.0.M.>.B . . . . . . J 1 N.. . O.s @ . . . . . . P.L.Q.).7.h.. . . . . . . . . K C.=.R.S.H.. . . . ",
". . . . . . . @ 9.T.U.. . . . . . . . . b.K.2 ;.$.V.. . . . . . h.A.W.. . (.X.j.. . . . . . @.Y.Z.I.7.h.. . . . . . . . . #.=.`.K . . . . . . ",
". . . . . . . .  +.+c.d.. . . . . . . . b.K.2 # B.++. . . . . . 8 X.@+. . ] $.F . . . . . . #+$+H.I.7.h.. . . . . . . . (.%+&+*+. . . . . . . ",
". . . . . . . . j.=+g.% a.. . . . . . . b.K.2 . -+E ;+. . . . . >+,++ . . J '+k.. . . . . )+v !+. I.7.h.. . . . . . . ~+,+g.E U . . . . . . . ",
". . . . . . . . . {+[ M.]+< . . . . . . b.K.2 . h.T V . . . . : 0 H G . . Q P ^+Q . . . . N.[./+. I.7.h.. . . . . . J A (+s _+. . . . . . . . ",
". . . . . . . . .  .v w { -+. . . . . . b.K.2 Q N C _ i . . . D./ j . :+v.. -+B.i . . . 5 l l.. N I.7.h.. . . . . . m I * =+&.. . . . . . . . ",
". . . . . . . . . 3.z _+<+v e.. . . . . b.K.2 d.6.( Y.8 . . . r.s.[+F Y 1 ( }+A.q.. . . :+A.).6. .I.7.h.. . . . . ~.7.(.{+P o . . . . . . . . ",
". . . . . . . . . . |+1+U $ u.).. . . . b.K.r.M.I D 2+3+P.. . {.X.4+,+5+6+n.k.s.d.. . K `.Q.*+7+Q.V.7.h.. . . . 8+E #.j.E.Z.. . . . . . . . . ",
". . . . . . . . . . f.{ 9+i 3+6 D.. . . b.K._+0+..0+5.g.*.. . 4.&+a+Y.*+m.g.b+c+$ . . S.+.a+..0+d+O.7.h.. . . e+p y.o U.u.n . . . . . . . . . ",
". . . . . . . . . . . #+(+K f+g+2.. . . h+i+-.u.>+[.=.=.% v.~.Y =.<.j+. . ;.v =.'+:+Z.n.=.=.'+$ 3 S g.r.. . . e & k++ _ >+. . . . . . . . . . ",
". . . . . . . . . . . h+A.R ;+u <.;.. . , c+T.> . }.w.l+g m+6+c.R.&.. . . . 8+%.s.m+6+g =+G.0.. ` =.&+j+. . k.<.*.d 8.X.0.. . . . . . . . . . ",
". . . . . . . . . . . K 0 n+k G.1 o+h w { .+m N . . B p+^ [+'.j.B . . . . . . Q @+8+[+b.q G . . P.e =.u.k.G.+.1+q+r+&+3+P.. . . . . . . . . . ",
". . . . . . . . . . . . ~.=+, J.[ S g.b+[ , G . . . . . . . . . . . . . . . . . . . . . . . . . . ! !+s Z g.s.k $ k.X.9 . . . . . . . . . . . ",
". . . . . . . . . . . . U '+>+. b d a.2 s+. . . . . . . . . . . . . . . . . . . . . . . . . . . . . . J 2 x.p+@ N #+l H.. . . . . . . . . . . ",
". . . . . . . . . . . . . 2.1+= . . . . . . . . . . . . N G Q : P.< t+t+t+t+K P.: Q G N . . . . . . . . . . . . q [.W . . . . . . . . . . . . ",
". . . . . . . . . . . . . ( -.W.. . . B 3.D.@+).W.:+!+++G.u+Q.C.M.k l s s n.% ; C.7 ]+G.O.j } 4 _.:.5 < B . . . M b+).. . . . . . . . . . . . ",
". . . . . . . . . . . . . s+|.h }.Z.>+3+r+[.Z g n+T.&+..+.o+-.A.T K.K.K.K.K.T T A.%+o++...&+T.v++.b+/ k ^+w+e.&.q+k @ . . . . . . . . . . . . ",
". . . . . . . . . . . . . . /.f g c+T.+.S '+^.%.>+;.S.6._.q.)+q # n n n n n n # q )+q.).( 8 t $ H ,.{ Y.g c+c++.n+l.. . . . . . . . . . . . . ",
". . . . . . . . . . . . . . D T.% w+v.^ /+c P.N . . . . . . . . . . . . . . . . . . . . . . . . N o s+j.}.e.>+g+o.8 . . . . . . . . . . . . . ",
". . . . . . . . . . . . . . ).l+( . . . . . . . . . . . . . . . . . . . . . . . . . . . . . . . . . . . . . . *.=+a.. . . . . . . . . . . . . ",
". . . . . . . . . . . . . . # g+k+. . . . . . Q t+= :.0.[+| *+U.#.$ 2.r r _+$ #.U.j+| [+~+j.D.3.Q . . . . . . ] ' 5 . . . . . . . . . . . . . ",
". . . . . . . . . . . . . . @ ' <+P.J k+( *+_+6 [ <.b+i+x+T..+=.=.n+c.l s A.o.=.=.t.T...d+b+[.$+A J.~.6.@+s+: , ; K . . . . . . . . . . . . . ",
". . . . . . . . . . . . . . : p v (+1+Y...t.=.=.=.=.=.=.=.=.=.b+) | p+3.t+/+v.u+a+=.=.=.=.=.=.=.=.=.c+0+S 7+p s.L.B . . . . . . . . . . . . . ",
". . . . . . . . . . . . . . B A a+` M D , W C 0 { t.=.=.=.=.K.4 G . . . . . . B ~ X.=.=.=.=.n+L Q.{+-+, <+M R m+y+. . . . . . . . . . . . . . ",
". . . . . . . . . . . . . . B A Y./+. . . . . : D.$+=.=.=.=.o+j U N . . . . G q N.5+=.=.=.=.M.J : . . . . . q.o+q+. . . . . . . . . . . . . . ",
". . . . . . . . . . . . . . Q `.$.q . . . . . V.q+.+=.=.=.=.=.c+E.>.~.z+h+9+) [..+=.=.=.=.=.o.{+] . . . . . )+-.^+B . . . . . . . . . . . . . ",
". . . . . . . . . . . . . . t+n.7.= . . Q _.l.l+=.=.=.=.=.t.&+v+..0+i+-.-.i+0+..v+T.t.=.=.=.=.=.7.J.r.B . . ;+c.9.! . . . . . . . . . . . . . ",
". . . . . . . . . . . . . . ;+T g+@ D.| u+Z t.i+T [ A y k.~.8 4 '.@.@.}.}.@.@.'.4 8 j+N.#+6 n.l++..+S y.A+H.c 1+/ = . . . . . . . . . . . . . ",
". . . . . . . . . . . . . . z+g 1+#+L B+Y - m.^ e+t+Q . . Q P.< @ b i i i i + @ < P.B . . Q t+;+}.F.3+=+g |.#+E.6+0.. . . . . . . . . . . . . ",
". . . . . . . . . . . . . . > t.=.B+].<+;+B . : !.V.S.` 4.L.2+r+I B.1+L L 1+B.,+k 2+i.#+!+u r.= : . Q p+9+(+..=.T.} . . . . . . . . . . . . . ",
". . . . . . . . . . . . . G y+=.C.u K . K ~+ +6 <.g.5.$.'+k C.A %.R.q+q+q+q+w.%.A (+r+{ s.5.o+E.A V C+! . < 9 ; =.y . . . . . . . . . . . . . ",
". . . . . . . . . . . . . t+r+'+*.t+p+V z a+%+k #+} ).f.c 3.: B N N N N N N N N B : 3.s+p+^ D e [ a+%+`.;.;++ u / M.! . . . . . . . . . . . . ",
". . . . . . . . . . . . . U ; n+m+,+[.t.7+!+I.t+. . . . . . . . . . . . . . . . . . . . . . . . @ C+w { c+3 I d+v+z.D.. . . . . . . . . . . . ",
". . . . . . . . . . . . . . !.9 ) v n+=.S `.W D+)+i Q . . . . . . . . . . . . . . . . . . : c 2 }+>+p b+=.f <.w.S.D.. . . . . . . . . . . . . ",
". . . . . . . . . . . . . . . . B ;+S.#+[ -.o.v+b+1+].y m.D+}.h./+# !.!.!.!.# j.h.}.d.> h `.L Z n+o.E+r+l.D+# G . . . . . . . . . . . . . . . ",
". . . . . . . . . . . . . . . . . . . . + q.8 O.Q.{ b+B+o.n+g g.E+T =+=+=+=+T E+g.B+o.&+B+E+1 z.8.u 2 @ . . . . . . . . . . . . . . . . . . . ",
". . . . . . . . . . . . . . . . . . . . . . . . : s+@+h+v.` r - C.9.$+,+,+$+9.C.]+2.!+(.@.:.s+: . . . . . . . . . . . . . . . . . . . . . . . ",
". . . . . . . . . . . . . . . . . . . . . . . . . . . . . . . B : ! 3.@ @ 3.! P.B . . . . . . . . . . . . . . . . . . . . . . . . . . . . . . ",
". . . . . . . . . . . . . . . . . . . . . . . . . . . . . . . . . . . . . . . . . . . . . . . . . . . . . . . . . . . . . . . . . . . . . . . ",
". . . . . . . . . . . . . . . . . . . . . . . . . . . . . . . . . . . . . . . . . . . . . . . . . . . . . . . . . . . . . . . . . . . . . . . ",
". . . . . . . . . . . . . . . . . . . . . . . . . . . . . . . . . . . . . . . . . . . . . . . . . . . . . . . . . . . . . . . . . . . . . . . ",
". . . . . . . . . . . . . . . . . . . . . . . . . . . . . . . . . . . . . . . . . . . . . . . . . . . . . . . . . . . . . . . . . . . . . . . ",
". . . . . . . . . . . . . . . . . . . . . . . . . . . . . . . . . . . . . . . . . . . . . . . . . . . . . . . . . . . . . . . . . . . . . . . ",
". . . . . . . . . . . . . . . . . . . . . . . . . . . . . . . . . . . . . . . . . . . . . . . . . . . . . . . . . . . . . . . . . . . . . . . "};
