/* XPM */
static char * nwwr_xpm[] = {
"71 71 234 2",
"  	c None",
". 	c #FFFFFF",
"+ 	c #FBFBFB",
"@ 	c #F7F7F7",
"# 	c #F5F5F5",
"$ 	c #F4F4F4",
"% 	c #CFCFCF",
"& 	c #C3C3C3",
"* 	c #C0C0C0",
"= 	c #B6B6B6",
"- 	c #B2B2B2",
"; 	c #C1C1C1",
"> 	c #C4C4C4",
", 	c #D1D1D1",
"' 	c #F9F9F9",
") 	c #F1F1F1",
"! 	c #FDFDFD",
"~ 	c #E3E3E3",
"{ 	c #B3B3B3",
"] 	c #9A9A9A",
"^ 	c #808080",
"/ 	c #6A6A6A",
"( 	c #595959",
"_ 	c #4D4D4D",
": 	c #535353",
"< 	c #D0D0D0",
"[ 	c #A9A9A9",
"} 	c #161616",
"| 	c #0C0C0C",
"1 	c #0B0B0B",
"2 	c #080808",
"3 	c #060606",
"4 	c #1E1E1E",
"5 	c #BDBDBD",
"6 	c #C2C2C2",
"7 	c #444444",
"8 	c #424242",
"9 	c #505050",
"0 	c #646464",
"a 	c #7D7D7D",
"b 	c #989898",
"c 	c #B4B4B4",
"d 	c #E6E6E6",
"e 	c #8B8B8B",
"f 	c #070707",
"g 	c #050505",
"h 	c #151515",
"i 	c #1B1B1B",
"j 	c #171717",
"k 	c #A3A3A3",
"l 	c #020202",
"m 	c #7B7B7B",
"n 	c #878787",
"o 	c #8D8D8D",
"p 	c #8C8C8C",
"q 	c #7A7A7A",
"r 	c #3C3C3C",
"s 	c #090909",
"t 	c #BCBCBC",
"u 	c #A5A5A5",
"v 	c #040404",
"w 	c #191919",
"x 	c #959595",
"y 	c #838383",
"z 	c #D3D3D3",
"A 	c #DADADA",
"B 	c #939393",
"C 	c #999999",
"D 	c #030303",
"E 	c #919191",
"F 	c #858585",
"G 	c #9C9C9C",
"H 	c #D2D2D2",
"I 	c #787878",
"J 	c #0D0D0D",
"K 	c #7F7F7F",
"L 	c #A2A2A2",
"M 	c #BBBBBB",
"N 	c #727272",
"O 	c #131313",
"P 	c #CECECE",
"Q 	c #B1B1B1",
"R 	c #DBDBDB",
"S 	c #1C1C1C",
"T 	c #2E2E2E",
"U 	c #6C6C6C",
"V 	c #454545",
"W 	c #000000",
"X 	c #525252",
"Y 	c #292929",
"Z 	c #232323",
"` 	c #E1E1E1",
" .	c #EAEAEA",
"..	c #414141",
"+.	c #121212",
"@.	c #979797",
"#.	c #4A4A4A",
"$.	c #F0F0F0",
"%.	c #ECECEC",
"&.	c #E8E8E8",
"*.	c #D5D5D5",
"=.	c #FEFEFE",
"-.	c #FAFAFA",
";.	c #F3F3F3",
">.	c #E9E9E9",
",.	c #E7E7E7",
"'.	c #E4E4E4",
").	c #DFDFDF",
"!.	c #DCDCDC",
"~.	c #E0E0E0",
"{.	c #E5E5E5",
"].	c #F6F6F6",
"^.	c #7C7C7C",
"/.	c #757575",
"(.	c #686868",
"_.	c #5A5A5A",
":.	c #515151",
"<.	c #3B3B3B",
"[.	c #363636",
"}.	c #2B2B2B",
"|.	c #282828",
"1.	c #252525",
"2.	c #202020",
"3.	c #1A1A1A",
"4.	c #1D1D1D",
"5.	c #262626",
"6.	c #2C2C2C",
"7.	c #373737",
"8.	c #5B5B5B",
"9.	c #696969",
"0.	c #767676",
"a.	c #868686",
"b.	c #949494",
"c.	c #A4A4A4",
"d.	c #747474",
"e.	c #929292",
"f.	c #181818",
"g.	c #272727",
"h.	c #303030",
"i.	c #3D3D3D",
"j.	c #4B4B4B",
"k.	c #545454",
"l.	c #565656",
"m.	c #575757",
"n.	c #434343",
"o.	c #2F2F2F",
"p.	c #222222",
"q.	c #9B9B9B",
"r.	c #D4D4D4",
"s.	c #383838",
"t.	c #ADADAD",
"u.	c #C5C5C5",
"v.	c #D8D8D8",
"w.	c #E2E2E2",
"x.	c #F8F8F8",
"y.	c #EBEBEB",
"z.	c #D7D7D7",
"A.	c #BABABA",
"B.	c #ACACAC",
"C.	c #343434",
"D.	c #4C4C4C",
"E.	c #DEDEDE",
"F.	c #2A2A2A",
"G.	c #101010",
"H.	c #9D9D9D",
"I.	c #333333",
"J.	c #BFBFBF",
"K.	c #FCFCFC",
"L.	c #AAAAAA",
"M.	c #1F1F1F",
"N.	c #3F3F3F",
"O.	c #9E9E9E",
"P.	c #8F8F8F",
"Q.	c #828282",
"R.	c #5E5E5E",
"S.	c #555555",
"T.	c #404040",
"U.	c #3E3E3E",
"V.	c #464646",
"W.	c #5F5F5F",
"X.	c #ABABAB",
"Y.	c #393939",
"Z.	c #616161",
"`.	c #6F6F6F",
" +	c #5D5D5D",
".+	c #A0A0A0",
"++	c #C7C7C7",
"@+	c #212121",
"#+	c #C6C6C6",
"$+	c #B5B5B5",
"%+	c #9F9F9F",
"&+	c #4F4F4F",
"*+	c #A8A8A8",
"=+	c #A1A1A1",
"-+	c #DDDDDD",
";+	c #A6A6A6",
">+	c #B9B9B9",
",+	c #B7B7B7",
"'+	c #F2F2F2",
")+	c #474747",
"!+	c #2D2D2D",
"~+	c #0A0A0A",
"{+	c #3A3A3A",
"]+	c #484848",
"^+	c #5C5C5C",
"/+	c #0F0F0F",
"(+	c #242424",
"_+	c #606060",
":+	c #6D6D6D",
"<+	c #7E7E7E",
"[+	c #737373",
"}+	c #8A8A8A",
"|+	c #777777",
"1+	c #6B6B6B",
"2+	c #888888",
"3+	c #676767",
"4+	c #AEAEAE",
"5+	c #AFAFAF",
"6+	c #313131",
"7+	c #CCCCCC",
"8+	c #111111",
"9+	c #141414",
"0+	c #010101",
"a+	c #6E6E6E",
"b+	c #666666",
"c+	c #585858",
"d+	c #4E4E4E",
"e+	c #656565",
"f+	c #797979",
"g+	c #898989",
"h+	c #626262",
"i+	c #CACACA",
"j+	c #C9C9C9",
"k+	c #EFEFEF",
". . . . . . . . . . . . . . . . . . . . . . . . . . . . . . . . . . . . . . . . . . . . . . . . . . . . . . . . . . . . . . . . . . . . . . . ",
". . . . . . . . . . . . . . . . . . . . . . . . . . . . . . . . . . . . . . . . . . . . . . . . . . . . . . . . . . . . . . . . . . . . . . . ",
". . . . . . . . . . . . . . . . . . . . . . . . . . . . . . . . . . . . . . . . . . . . . . . . . . . . . . . . . . . . . . . . . . . . . . . ",
". . . . . . . . . . . . . . . . . . . . . . . . . . . . . . . . . . . . . . . . . . . . . . . . . . . . . . . . . . . . . . . . . . . . . . . ",
". . . . . . . . . . . . . . . . . . . . . + @ # . . . . . . $ % & * = - - = ; > , ' . . . . . . ) $ ' ! . . . . . . . . . . . . . . . . . . . ",
". . . . . . . . . . . . . . . . ~ { ] ^ / ( _ : < . . . . . [ } | 1 2 3 3 2 1 | 4 5 . . . . . 6 7 8 9 0 a b c d . . . . . . . . . . . . . . . ",
". . . . . . . . . . . . . . . . e f g | h i j 3 c . . . . . k l 8 m n o p n q r s t . . . . . u v w i h | g 2 x . . . . . . . . . . . . . . . ",
". . . . . . . . . . . . . . . . y s ^ & z A B g C . . . . . k D E . . . . . . F s t . . . . . e f G A H 6 I g E . . . . . . . . . . . . . . . ",
". . . . . . . . . . . . . . . . y s 5 . . . > J K . ! ! ! ! L D E . . . . . . F s M ! ! ! ! ! N O P . . . Q 3 E . . . . . . . . . . . . . . . ",
". . . . . . . . . . . . . . . . y s 5 . . . R S T U U U U U V W E . . . . . . F D X U U U U U Y Z ` . . . Q 3 E . . . . . . . . . . . . . . . ",
". . . . . . . . . . . . . . . . y s 5 . . .  ...+.+.+.+.+.+.+.+.@.. . . . . . o +.+.+.+.+.+.+.+.#.$.. . . Q 3 E . . . . . . . . . . . . . . . ",
". . . . . . . . . . . . . . . . y s 5 . . . . z P P P P P P P P %.. . . . . . &.P P P P P P P P *.. . . . Q 3 E . . . . . . . . . . . . . . . ",
". . . . . . . . . . . . . . . . y s 5 . . . . . . . . . . . . . . . . . . . . . . . . . . . . . . . . . . Q 3 E . . . . . . . . . . . . . . . ",
". . . . . . . . . . . . . . . . y s 5 . . . . =.+ -.# ;.$.>.,.'.).!.A A A A !.~.{.,.>.$.;.].-.+ =.. . . . Q 3 E . . . . . . . . . . . . . . . ",
". . . . . . . . . . . . . . . . y s ^.k B F /.(._.:.7 <.[.}.|.1.2.S i 3.3.i 4.2.5.|.6.7.r V :.8.9.0.a.b.c.d.3 E . . . . . . . . . . . . . . . ",
". . . . . . . . . . . . . . . . e.W v g g s | h f.Z g.h.7.i.7 j.9 k.l.m.m.l.k.9 #.n.r 7.o.g.p.f.h | s g g g W q.. . . . . . . . . . . . . . . ",
". . . . . . . . . . . . . . . . r.7 W s.t.M u.H v.w.d %.$.;.# x.-.+ + + + + + -.@ # ;.$.y.d ` z., > A.B.C.W D.E.. . . . . . . . . . . . . . . ",
". . . . . . . . . . . . . . . . . A.F.G.H.. . . . . . . . . . . . . . . . . . . . . . . . . . . . . . x f I.J.. . . . . . . . . . . . . . . . ",
". . . . . . . . . . . . . . . . . . H.+.1.{ . . . . . . =.K.-.-.x.].$ ;.;.$ ].' -.-.K.=.. . . . . . L.M.i k . . . . . . . . . . . . . . . . . ",
". . . . . . . . . . . . . . . . . . . y W N.O.L.H.P.Q.d./ R.S.X _ V T.i.U.T.V._ X S.W./ /.Q.P.O.X.O.Y.W p . . . . . . . . . . . . . . . . . . ",
". . . . . . . . . . . . . . . . . . . @ Z.W s v v v f 1 J } D W 5.g.g.g.g.g.g.1.W v h J 1 f v v v s W `.. . . . . . . . . . . . . . . . . . . ",
". . . . . . . . . . . . . . . . . . . . G g  +e..+X.= ; ++% j.@+#+d d ,.,.d d 5 j D.P #+* $+L.%+E &+g *+. . . . . . . . . . . . . . . . . . . ",
". . . . . . . . . . . . . . . . . . . . =+3 X.. . . . . . + : @+~.. . . . . . z.j k.+ . . . . . . e.g X.. . . . . . . . . . . . . . . . . . . ",
". . . . . . . . . . . . . . . . . . . . =+3 X.. . . . . . + : @+~.. . . . . . z.j k.+ . . . . . . e.g X.. . . . . . . . . . . . . . . . . . . ",
". . . . . . . . . . . . . . . . . . . . =+3 X.+ ].)  .'.-+H #.4 ;+J.>+,+,+>+J.%+j j.H E.'. .'+].+ e.g X.. . . . . . . . . . . . . . . . . . . ",
". . . . . . . . . . . . . . . . . . . . =+l )+8.)+Y.!+1.4 j D W 1 ~+2 f f 2 ~+1 W D j 4 1.!+{+]+^+i.v X.. . . . . . . . . . . . . . . . . . . ",
". . . . . . . . . . . . . . . . . . . . =+l /+3.1.(+W T k._+:+d.K n <+i p.Q.n <+[+U W.: 5.W 5.(+w 1 v X.. . . . . . . . . . . . . . . . . . . ",
". . . . . . . . . . . . . . . . . . . . =+3 a.v.'.L f }++ K.=.. . . y.o.<.;.. . . =.K.+ |+1 t.'.v.d.g X.. . . . . . . . . . . . . . . . . . . ",
". . . . . . . . . . . . . . . . . . . . =+3 X.. . = f P.. . . . . . y.o.<.;.. . . . . . q 1 & . . e.g X.. . . . . . . . . . . . . . . . . . . ",
". . . . . . . . . . . . . . . . . . . . =+3 X.. . = f P.. . . . . . y.o.<.;.. . . . . . q 1 & . . e.g X.. . . . . . . . . . . . . . . . . . . ",
". . . . . . . . . . . . . . . . . . . . =+3 X.. . = f P.. . . . . . y.o.<.;.. . . . . . q 1 & . . e.g X.. . . . . . . . . . . . . . . . . . . ",
". . . . . . . . . . . . . . . . . . . . =+3 X.. . = f P.. . . . . . y.o.<.;.. . . . . . q 1 & . . e.g X.. . . . . . . . . . . . . . . . . . . ",
". . . . . . . . . . . . . . . . . . . . =+3 ] d E.b.f 1+J.{ X.L C B y S (+2+B C L X.{ * R.1 %+).d a.g X.. . . . . . . . . . . . . . . . . . . ",
". . . . . . . . . . . . . . . . . . . . =+l (+g.M.h W 2 1 3 v l g g g g g g g g l v 3 1 g W j M.g.4.v X.. . . . . . . . . . . . . . . . . . . ",
". . . . . . . . . . . . . . . . . . . . =+l }.8 :._.3+[+^ 2+h.3.e.4+5+5+5+5+4+p O 6+2+K N 3+( 9 ..(+v X.. . . . . . . . . . . . . . . . . . . ",
". . . . . . . . . . . . . . . . . . . . =+3 %+$ -.+ =.. . + : @+~.. . . . . . z.j k.+ . . =.+ -.$ }+g X.. . . . . . . . . . . . . . . . . . . ",
". . . . . . . . . . . . . . . . . . . . =+3 X.. . . . . . + : @+~.. . . . . . z.j k.+ . . . . . . e.g X.. . . . . . . . . . . . . . . . . . . ",
". . . . . . . . . . . . . . . . . . . . =+3 X.. . . . . . + : @+~.. . . . . . z.j k.+ . . . . . . e.g X.. . . . . . . . . . . . . . . . . . . ",
". . . . . . . . . . . . . . . . . . . . =+3 X.. . . . . . + : @+~.. . . . . . z.j k.+ . . . . . . e.g X.. . . . . . . . . . . . . . . . . . . ",
". . . . . . . . . . . . . . . . . . . . =+3 X.=.=.+ + ' ].$.: @+*.$ $ $ $ $ $ 7+j k.) ].' + + =.=.e.g X.. . . . . . . . . . . . . . . . . . . ",
". . . . . . . . . . . . . . . . . . . . =+g : d.(.( : &+)+8 8+D i.N.N.N.N.N.N.<.W +.8 )+&+: _.9.d.)+g X.. . . . . . . . . . . . . . . . . . . ",
". . . . . . . . . . . . . . . . . . . . =+l 1 J h 9+W 9+p.(+5.5.g.g.g.0+D g.g.g.5.1.(+p./+W } h J 2 v X.. . . . . . . . . . . . . . . . . . . ",
". . . . . . . . . . . . . . . . . . . . =+3 K ++H B f m w.'.{.d d d r.o.<.R d d d {.'.w.U 1 H.H #+a+g X.. . . . . . . . . . . . . . . . . . . ",
". . . . . . . . . . . . . . . . . . . . =+3 X.. . = f P.. . . . . . y.o.<.;.. . . . . . q 1 & . . e.g X.. . . . . . . . . . . . . . . . . . . ",
". . . . . . . . . . . . . . . . . . . . =+3 X.. . = f P.. . . . . . y.o.<.;.. . . . . . q 1 & . . e.g X.. . . . . . . . . . . . . . . . . . . ",
". . . . . . . . . . . . . . . . . . . . =+3 X.. . = f P.. . . . . . y.o.<.;.. . . . . . q 1 & . . e.g X.. . . . . . . . . . . . . . . . . . . ",
". . . . . . . . . . . . . . . . . . . . B 3 b+q.q.U 3 l.q.q.q.q.q.q.o 2.g.E q.q.q.q.q.q.j.s d.q.q.c+g %+. . . . . . . . . . . . . . . . . . . ",
". . . . . . . . . . . . . . . . . . . w.9 W g g g g D g g g g g g g g D D g g g g g g g v D g g g g W _.%.. . . . . . . . . . . . . . . . . . ",
". . . . . . . . . . . . . . . . . . . d.W ]+O.[ [ [ [ [ [ [ [ [ [ [ [ [ [ [ [ [ [ [ [ [ [ [ [ [ [ C ..W <+. . . . . . . . . . . . . . . . . . ",
". . . . . . . . . . . . . . . . . . ] ~+6.t . . . . . . . . . . . . . . . . . . . . . . . . . . . . - Z 8+k . . . . . . . . . . . . . . . . . ",
". . . . . . . . . . . . . . . . . J.!+~+] . . . . . . . . . . . . . . . . . . . . . . . . . . . . . . B v I.++. . . . . . . . . . . . . . . . ",
". . . . . . . . . . . . . . . . ~ :.W 8.` ` ` ` ` ` ` ` ` ` ` ` ` ` ` ` ` ` ` ` ` ` ` ` ` ` ` ` ` ` ` ~.S.W ( %.. . . . . . . . . . . . . . . ",
". . . . . . . . . . . . . . . ! d.W W i @+@+@+@+@+@+@+@+@+@+@+@+@+@+@+@+@+@+@+@+@+@+@+@+@+@+@+@+@+@+@+@+} W W <+. . . . . . . . . . . . . . . ",
". . . . . . . . . . . . . . . H.s 0+V d+d+d+d+d+d+d+d+d+d+d+d+d+d+d+d+d+d+d+d+d+d+d+d+d+d+d+d+d+d+d+d+d+d+n.W +.u . . . . . . . . . . . . . . ",
". . . . . . . . . . . . . . + ^+W 7 y.' ' ' ' ' ' ' ' ' ' ' ' ' ' ' ' ' ' ' ' ' ' ' ' ' ' ' ' ' ' ' ' ' ' {.Y.W e+K.. . . . . . . . . . . . . ",
". . . . . . . . . . . . . . + k.W f+. . . . . . . . . . . . . . . . . . . . . . . . . . . . . . . . . . . . a+W  +K.. . . . . . . . . . . . . ",
". . . . . . . . . . . . . . + k.W x . . . . . . . . . . . . . . . . . . . . . . . . . . . . . . . . . . . . g+W  +K.. . . . . . . . . . . . . ",
". . . . . . . . . . . . . . + k.l ] . . . . . . . . . . . . . . . . . . . . . . . . . . . . . . . . . . . . P.W  +K.. . . . . . . . . . . . . ",
". . . . . . . . . . . . . . + k.W o . . . . . . . . . . . . . . . . . . . . . . . . . . . . . . . . . . . . Q.W  +K.. . . . . . . . . . . . . ",
". . . . . . . . . . . . . . + k.W `.=.. . . . . . . . . . . . . . . . . . . . . . . . . . . . . . . . . . ! h+W  +K.. . . . . . . . . . . . . ",
". . . . . . . . . . . . . . + :.W ..i+z.z.z.z.z.z.z.z.z.z.z.z.z.z.z.z.z.z.z.z.z.z.z.z.z.z.z.z.z.z.z.z.z.z.#+s.W ( K.. . . . . . . . . . . . . ",
". . . . . . . . . . . . . . j+(+W W j j j j j j j j j j j j j j j j j j j j j j j j j j j j j j j j j j j j W W }.z . . . . . . . . . . . . . ",
". . . . . . . . . . . . . . ^.W s &+: : : : : : : : : : : : : : : : : : : : : : : : : : : : : : : : : : : : D.g W a.. . . . . . . . . . . . . ",
". . . . . . . . . . . . . '+7 W X ].+ + + + + + + + + + + + + + + + + + + + + + + + + + + + + + + + + + + + ;.V W &+@ . . . . . . . . . . . . ",
". . . . . . . . . . . . . >.!+W e+K.K.K.K.K.K.K.K.K.K.K.K.K.K.K.K.K.K.K.K.K.K.K.K.K.K.K.K.K.K.K.K.K.K.K.K.K.' S.W <.'+. . . . . . . . . . . . ",
". . . . . . . . . . . . . k+7.W @+R.R.R.R.R.R.R.R.R.R.R.R.R.R.R.R.R.R.R.R.R.R.R.R.R.R.R.R.R.R.R.R.R.R.R.R.R. +3.W ..'+. . . . . . . . . . . . ",
". . . . . . . . . . . . . -.<+T.T.T.T.T.T.T.T.T.T.T.T.T.T.T.T.T.T.T.T.T.T.T.T.T.T.T.T.T.T.T.T.T.T.T.T.T.T.T.T.T.T.F K.. . . . . . . . . . . . ",
". . . . . . . . . . . . . . # $ $ $ $ $ $ $ $ $ $ $ $ $ $ $ $ $ $ $ $ $ $ $ $ $ $ $ $ $ $ $ $ $ $ $ $ $ $ $ $ $ $ @ . . . . . . . . . . . . . ",
". . . . . . . . . . . . . . . . . . . . . . . . . . . . . . . . . . . . . . . . . . . . . . . . . . . . . . . . . . . . . . . . . . . . . . . ",
". . . . . . . . . . . . . . . . . . . . . . . . . . . . . . . . . . . . . . . . . . . . . . . . . . . . . . . . . . . . . . . . . . . . . . . ",
". . . . . . . . . . . . . . . . . . . . . . . . . . . . . . . . . . . . . . . . . . . . . . . . . . . . . . . . . . . . . . . . . . . . . . . "};
