/* XPM */
static char * quit_xpm[] = {
"77 46 204 2",
"  	c None",
". 	c #FFFFFF",
"+ 	c #323232",
"@ 	c #474747",
"# 	c #585858",
"$ 	c #5A5A5A",
"% 	c #4D4D4D",
"& 	c #393939",
"* 	c #333333",
"= 	c #A7A7A7",
"- 	c #D4D4D4",
"; 	c #B2B2B2",
"> 	c #3A3A3A",
", 	c #444444",
"' 	c #CBCBCB",
") 	c #D5D5D5",
"! 	c #D2D2D2",
"~ 	c #626262",
"{ 	c #CCCCCC",
"] 	c #D6D6D6",
"^ 	c #3F3F3F",
"/ 	c #AAAAAA",
"( 	c #D8D8D8",
"_ 	c #BCBCBC",
": 	c #2B2B2B",
"< 	c #494949",
"[ 	c #DADADA",
"} 	c #5B5B5B",
"| 	c #5D5D5D",
"1 	c #DCDCDC",
"2 	c #5E5E5E",
"3 	c #DDDDDD",
"4 	c #DEDEDE",
"5 	c #DBDBDB",
"6 	c #C6C6C6",
"7 	c #DFDFDF",
"8 	c #888888",
"9 	c #000000",
"0 	c #C7C7C7",
"a 	c #696969",
"b 	c #A4A4A4",
"c 	c #9D9D9D",
"d 	c #606060",
"e 	c #E1E1E1",
"f 	c #BEBEBE",
"g 	c #434343",
"h 	c #5C5C5C",
"i 	c #CFCFCF",
"j 	c #B0B0B0",
"k 	c #B7B7B7",
"l 	c #070707",
"m 	c #040404",
"n 	c #939393",
"o 	c #616161",
"p 	c #E2E2E2",
"q 	c #151515",
"r 	c #191919",
"s 	c #BFBFBF",
"t 	c #D0D0D0",
"u 	c #949494",
"v 	c #0B0B0B",
"w 	c #232323",
"x 	c #D7D7D7",
"y 	c #989898",
"z 	c #A9A9A9",
"A 	c #E3E3E3",
"B 	c #555555",
"C 	c #404040",
"D 	c #202020",
"E 	c #CECECE",
"F 	c #D1D1D1",
"G 	c #4B4B4B",
"H 	c #676767",
"I 	c #1C1C1C",
"J 	c #9C9C9C",
"K 	c #919191",
"L 	c #7F7F7F",
"M 	c #717171",
"N 	c #525252",
"O 	c #121212",
"P 	c #E4E4E4",
"Q 	c #D9D9D9",
"R 	c #C0C0C0",
"S 	c #595959",
"T 	c #272727",
"U 	c #646464",
"V 	c #B9B9B9",
"W 	c #242424",
"X 	c #E5E5E5",
"Y 	c #ACACAC",
"Z 	c #7D7D7D",
"` 	c #686868",
" .	c #363636",
"..	c #969696",
"+.	c #6F6F6F",
"@.	c #282828",
"#.	c #AFAFAF",
"$.	c #2F2F2F",
"%.	c #B3B3B3",
"&.	c #0E0E0E",
"*.	c #E6E6E6",
"=.	c #737373",
"-.	c #707070",
";.	c #A5A5A5",
">.	c #C9C9C9",
",.	c #818181",
"'.	c #9E9E9E",
").	c #8C8C8C",
"!.	c #1D1D1D",
"~.	c #C2C2C2",
"{.	c #BBBBBB",
"].	c #7A7A7A",
"^.	c #E7E7E7",
"/.	c #161616",
"(.	c #454545",
"_.	c #575757",
":.	c #909090",
"<.	c #979797",
"[.	c #4C4C4C",
"}.	c #636363",
"|.	c #E8E8E8",
"1.	c #9F9F9F",
"2.	c #747474",
"3.	c #B1B1B1",
"4.	c #7E7E7E",
"5.	c #E9E9E9",
"6.	c #6E6E6E",
"7.	c #D3D3D3",
"8.	c #373737",
"9.	c #8A8A8A",
"0.	c #252525",
"a.	c #999999",
"b.	c #EAEAEA",
"c.	c #727272",
"d.	c #2C2C2C",
"e.	c #1A1A1A",
"f.	c #424242",
"g.	c #A1A1A1",
"h.	c #929292",
"i.	c #757575",
"j.	c #3B3B3B",
"k.	c #EBEBEB",
"l.	c #B4B4B4",
"m.	c #CACACA",
"n.	c #ECECEC",
"o.	c #6B6B6B",
"p.	c #A2A2A2",
"q.	c #848484",
"r.	c #4A4A4A",
"s.	c #A6A6A6",
"t.	c #9B9B9B",
"u.	c #797979",
"v.	c #515151",
"w.	c #1E1E1E",
"x.	c #767676",
"y.	c #656565",
"z.	c #EEEEEE",
"A.	c #313131",
"B.	c #292929",
"C.	c #222222",
"D.	c #C1C1C1",
"E.	c #777777",
"F.	c #4E4E4E",
"G.	c #343434",
"H.	c #3C3C3C",
"I.	c #131313",
"J.	c #C5C5C5",
"K.	c #BABABA",
"L.	c #EFEFEF",
"M.	c #4F4F4F",
"N.	c #2D2D2D",
"O.	c #959595",
"P.	c #565656",
"Q.	c #0F0F0F",
"R.	c #E0E0E0",
"S.	c #383838",
"T.	c #666666",
"U.	c #F0F0F0",
"V.	c #171717",
"W.	c #878787",
"X.	c #8E8E8E",
"Y.	c #B8B8B8",
"Z.	c #F1F1F1",
"`.	c #ADADAD",
" +	c #484848",
".+	c #EDEDED",
"++	c #F3F3F3",
"@+	c #3D3D3D",
"#+	c #B6B6B6",
"$+	c #F5F5F5",
"%+	c #414141",
"&+	c #F7F7F7",
"*+	c #F8F8F8",
"=+	c #6A6A6A",
"-+	c #F9F9F9",
";+	c #FAFAFA",
">+	c #545454",
",+	c #FBFBFB",
"'+	c #FCFCFC",
")+	c #5F5F5F",
"!+	c #FDFDFD",
"~+	c #9A9A9A",
"{+	c #FEFEFE",
"]+	c #6C6C6C",
". . . . . . . . . . . . . . . . . . . . . . . . . . . . . . . . . . . . . . . . . . . . . . . . . . . . . . . . . . . . . . . . . . . . . . . . . . . . . ",
". . . . . . . . . . . . . . . . . . . . . . . . . . . . . . . . . . . . . . . . . . . . . . . . . . . . . . . . . . . . . . . . . . . . . . . . . . . . . ",
". . . . . .   + @ # $ $ $ $ $ $ $ $ $ $ $ $ $ $ $ $ $ $ $ $ $ $ $ $ $ $ $ $ $ $ $ $ $ $ $ $ $ $ $ $ $ $ $ $ $ $ $ $ $ $ $ $ $ $ $ $ $ # % &   . . . . . . ",
". . . .   * = - - - - - - - - - - - - - - - - - - - - - - - - - - - - - - - - - - - - - - - - - - - - - - - - - - - - - - - - - - - - - - - ; >   . . . . ",
". . .   , ' ) ) ) ) ) ) ) ) ) ) ) ) ) ) ) ) ) ) ) ) ) ) ) ) ) ) ) ) ) ) ) ) ) ) ) ) ) ) ) ) ) ) ) ) ) ) ) ) ) ) ) ) ) ) ) ) ) ) ) ) ) ) ) ) ) ! ~   . . . ",
". . . * { ] ] ] ] ] ] ] ] ] ] ] ] ] ] ] ] ] ] ] ] ] ] ] ] ] ] ] ] ] ] ] ] ] ] ] ] ] ] ] ] ] ] ] ] ] ] ] ] ] ] ] ] ] ] ] ] ] ] ] ] ] ] ] ] ] ] ] ] ^ . . . ",
". .   / ( ( ( ( ( ( ( ( ( ( ( ( ( ( ( ( ( ( ( ( ( ( ( ( ( ( ( ( ( ( ( ( ( ( ( ( ( ( ( ( ( ( ( ( ( ( ( ( ( ( ( ( ( ( ( ( ( ( ( ( ( ( ( ( ( ( ( ( ( _ : . . ",
". . * ( ( ( ( ( ( ( ( ( ( ( ( ( ( ( ( ( ( ( ( ( ( ( ( ( ( ( ( ( ( ( ( ( ( ( ( ( ( ( ( ( ( ( ( ( ( ( ( ( ( ( ( ( ( ( ( ( ( ( ( ( ( ( ( ( ( ( ( ( ( ( , . . ",
". . < [ [ [ [ [ [ [ [ [ [ [ [ [ [ [ [ [ [ [ [ [ [ [ [ [ [ [ [ [ [ [ [ [ [ [ [ [ [ [ [ [ [ [ [ [ [ [ [ [ [ [ [ [ [ [ [ [ [ [ [ [ [ [ [ [ [ [ [ [ [ [ } . . ",
". . $ [ [ [ [ [ [ [ [ [ [ [ [ [ [ [ [ [ [ [ [ [ [ [ [ [ [ [ [ [ [ [ [ [ [ [ [ [ [ [ [ [ [ [ [ [ [ [ [ [ [ [ [ [ [ [ [ [ [ [ [ [ [ [ [ [ [ [ [ [ [ [ | . . ",
". . | 1 1 1 1 1 1 1 1 1 1 1 1 1 1 1 1 1 1 1 1 1 1 1 1 1 1 1 1 1 1 1 1 1 1 1 1 1 1 1 1 1 1 1 1 1 1 1 1 1 1 1 1 1 1 1 1 1 1 1 1 1 1 1 1 1 1 1 1 1 1 1 | . . ",
". . 2 3 3 3 3 3 3 3 3 3 3 3 3 3 3 3 3 3 3 3 3 3 3 3 3 3 3 3 3 3 3 3 3 3 3 3 3 3 3 3 3 3 3 3 3 3 3 3 3 3 3 3 3 3 3 3 3 3 3 3 3 3 3 3 3 3 3 3 3 3 3 3 2 . . ",
". . 2 4 4 4 4 4 4 4 4 4 4 4 4 4 4 4 4 4 4 4 4 4 4 4 4 4 4 4 4 4 4 4 4 4 4 4 4 4 4 4 4 4 4 4 4 5 < 6 4 4 4 4 4 4 4 4 4 4 4 4 4 4 4 4 4 4 4 4 4 4 4 4 2 . . ",
". . 2 7 7 7 7 7 7 7 7 7 7 7 7 7 7 7 7 7 7 7 7 7 7 7 7 7 7 7 7 7 7 7 7 7 7 7 7 7 7 7 7 7 7 7 7 8 9 0 7 7 7 7 7 7 7 7 7 7 7 7 7 7 7 7 7 7 7 7 7 7 7 7 2 . . ",
". . 2 7 7 7 7 7 7 7 7 7 7 7 7 7 7 7 7 7 7 7 7 7 7 7 7 7 7 7 7 7 7 7 7 7 7 7 7 7 7 7 7 7 7 7 7 a 9 < b c 7 7 7 7 7 7 7 7 7 7 7 7 7 7 7 7 7 7 7 7 7 7 2 . . ",
". . d e e e e e e e e e e e e e e e e f g h i e e e e e e e e e e e e e e e e e { j ] e e e e k l 9 m n e e e e e e e e e e e e e e e e e e e e e e d . . ",
". . o p p p p p p p p p p p p p p p - q 9 9 r s p p p p p p p p - t p p p p p u v 9 w x p p p p t y t p p z p p p p p p t j j 5 p p p p p p p p p p o . . ",
". . o A A A A A A A A A A A A A A A B C B 9 9 D E A A A A A F G 9 m H A A A 7 I 9 m 9 J A A A A 1 K L 1 A I : M M N + O 9 9 9 l J A A A A A A A A A o . . ",
". . o P P P P P P P P P P P P i Q R 9 R P S 9 9 & P P P P P T 9 9 9 9 0 P P J 9 9 S q U P P P V D 9 9 U P : 9 9 9 9 9 9 9 9 9 9 W P P P P P P P P P o . . ",
". . ~ X X X X X X X X X X X X Y Z ` 9 Y X 4 D 9 9 Z X X X X x  .9 9 9 Y X X Z 9 9 ..9 +.X X e @.9 9 9 & X #.: 9 9 9 D 9 $.%.%.G &.X X X X X X X X X ~ . . ",
". . ~ *.*.*.*.*.*.*.*.*.*.*.*.Z =.r 9 -.*.*.;.9 9 l >.*.*.*.*.,.9 9 9 Y *.*.;.9 9 '.9 ).*.*.*.5 !.9 9 > *.*.*.6 ~.7 {.9 ].*.*.*.>.*.*.*.*.*.*.*.*.*.~ . . ",
". . ~ ^.^.^.^.^.^.^.^.^.^.^.^.: =.9 9 /.Q ^.^.(.9 9 _.^.^.^.^.:.9 9 9 _ ^.^.<.9 9 [.9 s ^.^.^.^._.9 9 > ^.^.^.^.^.^.-.9 :.^.^.^.^.^.^.^.^.^.^.^.^.^.~ . . ",
". . }.|.|.|.|.|.|.|.|.|.|.|.J 9 1.!.9 9 2.|.|.3.9 9 9 _ |.|.|.K 9 9 9 e |.|.K 9 9 m * |.|.|.|.|._.9 9 ~ |.|.|.|.|.|.> 9 4.|.|.|.|.|.|.|.|.|.|.|.|.|.}.. . ",
". . }.5.5.5.5.5.5.5.5.5.5.p !.9 [ 6.9 9 v 7.5.5.8.9 9 % 5.5.5.9.9 9 0.5.5.5.K 9 9 9 a.5.5.5.5.5.@.9 9 2.5.5.5.5.5.5.> 9 # 5.5.5.5.5.5.5.5.5.5.5.5.5.}.. . ",
". . U b.b.b.b.b.b.b.b.b.b.c.9 d.b.( e.9 9 f.*.b.g.9 9 l 7 b.b.H 9 9 < b.b.b.h.9 9 O *.b.b.b.b.b.!.9 9 i.b.b.b.b.b.b.j.9 !.b.b.b.b.b.b.b.b.b.b.b.b.b.U . . ",
". . U k.k.k.k.k.k.k.k.k.) l 9 H k.k.l.m 9 9 d k.^.O 9 9 z k.k.f.9 9 +.k.k.k.n 9 9 h k.k.k.k.k.k.!.9 9 i.k.k.k.k.k.k.j.9 9 m.k.k.k.k.k.k.k.k.k.k.k.k.U . . ",
". . U n.n.n.n.n.n.n.n.n.o.9 9 p.n.n.n.q.9 9 9 q.n.r.9 9 s.n.n.d.9 9 t.n.n.n.u.9 9 v.n.n.n.n.n.n.w.9 9 x.n.n.n.n.n.n.j.9 9 u.n.n.n.n.n.n.n.n.n.n.n.n.U . . ",
". . y.z.z.z.z.z.z.z.z.z.A.9 9 ].z.z.z.z.$ 9 9 m K B.9 C.A z.z.w.9 9 D.z.z.z.$ 9 9 /.D.z.z.z.z.z.w.9 9 E.z.z.z.z.z.z.w.9 9 F.z.z.z.z.z.z.z.z.z.z.z.z.y.. . ",
". . y.z.z.z.z.z.z.z.z.z.C.9 9 9 G.H.H.H.I.9 9 9 9 9 0.>.z.z.z.w.9 9 ; z.z.J./.9 9 9 9 K.z.z.z.z.w.9 9 o z.z.z.z.z.= 9 9 9 @ z.z.z.z.z.z.z.z.z.z.z.z.y.. . ",
". . y.L.L.L.L.L.L.L.L.L.M.9 9 9 9 9 9 9 9 9 9 9 9 w.Q L.L.L.L.H.9 9 N.O.o m P.m 9 9 Q.R.L.L.L.L.B.9 9 l Y L.L.L.S.9 9 9 9 2.L.L.L.L.L.L.L.L.L.L.L.L.y.. . ",
". . T.U.U.U.U.U.U.U.U.U.! V.9 9 9 9 9 9 9 9 9 9 9 M.U.U.U.U.U.W.9 9 9 9 v X.U._.9 9 X.U.U.U.U.U.a 9 m i.U.U.U.U.Y.v 9 9 N.e U.U.U.U.U.U.U.U.U.U.U.U.T.. . ",
". . T.Z.Z.Z.Z.Z.Z.Z.Z.Z.Z.*.p.............`.z Q.9 C.Z.Z.Z.Z.Z.5._.9 m  +7.Z.Z.5.;._ Z.Z.Z.Z.Z.Z..+p.' Z.Z.Z.Z.Z.Z.[ '.`..+Z.Z.Z.Z.Z.Z.Z.Z.Z.Z.Z.Z.Z.T.. . ",
". . ` ++++++++++++++++++++++++++++++++++++++++@+9 # ++++++++++++++( P ++++++++++++++++++++++++++++++++++++++++++++++++++++++++++++++++++++++++++++++` . . ",
". . ` ++++++++++++++++++++++++++++++++++++++++@+m #+++++++++++++++++++++++++++++++++++++++++++++++++++++++++++++++++++++++++++++++++++++++++++++++++` . . ",
". . a $+$+$+$+$+$+$+$+$+$+$+$+$+$+$+$+$+$+$+$+%+b $+$+$+$+$+$+$+$+$+$+$+$+$+$+$+$+$+$+$+$+$+$+$+$+$+$+$+$+$+$+$+$+$+$+$+$+$+$+$+$+$+$+$+$+$+$+$+$+$+a . . ",
". . a $+$+$+$+$+$+$+$+$+$+$+$+$+$+$+$+$+$+$+$+$+$+$+$+$+$+$+$+$+$+$+$+$+$+$+$+$+$+$+$+$+$+$+$+$+$+$+$+$+$+$+$+$+$+$+$+$+$+$+$+$+$+$+$+$+$+$+$+$+$+$+a . . ",
". . a &+&+&+&+&+&+&+&+&+&+&+&+&+&+&+&+&+&+&+&+&+&+&+&+&+&+&+&+&+&+&+&+&+&+&+&+&+&+&+&+&+&+&+&+&+&+&+&+&+&+&+&+&+&+&+&+&+&+&+&+&+&+&+&+&+&+&+&+&+&+&+a . . ",
". . ` *+*+*+*+*+*+*+*+*+*+*+*+*+*+*+*+*+*+*+*+*+*+*+*+*+*+*+*+*+*+*+*+*+*+*+*+*+*+*+*+*+*+*+*+*+*+*+*+*+*+*+*+*+*+*+*+*+*+*+*+*+*+*+*+*+*+*+*+*+*+*+=+. . ",
". . # -+-+-+-+-+-+-+-+-+-+-+-+-+-+-+-+-+-+-+-+-+-+-+-+-+-+-+-+-+-+-+-+-+-+-+-+-+-+-+-+-+-+-+-+-+-+-+-+-+-+-+-+-+-+-+-+-+-+-+-+-+-+-+-+-+-+-+-+-+-+-+H . . ",
". . @+;+;+;+;+;+;+;+;+;+;+;+;+;+;+;+;+;+;+;+;+;+;+;+;+;+;+;+;+;+;+;+;+;+;+;+;+;+;+;+;+;+;+;+;+;+;+;+;+;+;+;+;+;+;+;+;+;+;+;+;+;+;+;+;+;+;+;+;+;+;+;+>+. . ",
". .   ] ,+,+,+,+,+,+,+,+,+,+,+,+,+,+,+,+,+,+,+,+,+,+,+,+,+,+,+,+,+,+,+,+,+,+,+,+,+,+,+,+,+,+,+,+,+,+,+,+,+,+,+,+,+,+,+,+,+,+,+,+,+,+,+,+,+,+,+,+,+k.8.. . ",
". . . (.*+'+'+'+'+'+'+'+'+'+'+'+'+'+'+'+'+'+'+'+'+'+'+'+'+'+'+'+'+'+'+'+'+'+'+'+'+'+'+'+'+'+'+'+'+'+'+'+'+'+'+'+'+'+'+'+'+'+'+'+'+'+'+'+'+'+'+'+'+)+. . . ",
". . .   -.!+!+!+!+!+!+!+!+!+!+!+!+!+!+!+!+!+!+!+!+!+!+!+!+!+!+!+!+!+!+!+!+!+!+!+!+!+!+!+!+!+!+!+!+!+!+!+!+!+!+!+!+!+!+!+!+!+!+!+!+!+!+!+!+!+!+!+~+  . . . ",
". . . .   r.3 {+{+{+{+{+{+{+{+{+{+{+{+{+{+{+{+{+{+{+{+{+{+{+{+{+{+{+{+{+{+{+{+{+{+{+{+{+{+{+{+{+{+{+{+{+{+{+{+{+{+{+{+{+{+{+{+{+{+{+{+{+{+{+z.)+  . . . . ",
". . . . . . + % ~ ]+]+]+]+]+]+]+]+]+]+]+]+]+]+]+]+]+]+]+]+]+]+]+]+]+]+]+]+]+]+]+]+]+]+]+]+]+]+]+]+]+]+]+]+]+]+]+]+]+]+]+]+]+]+]+]+]+]+]+a B 8.. . . . . . ",
". . . . . . . . . . . . . . . . . . . . . . . . . . . . . . . . . . . . . . . . . . . . . . . . . . . . . . . . . . . . . . . . . . . . . . . . . . . . . "};
