/* XPM */
static char * resign_xpm[] = {
"97 46 218 2",
"  	c None",
". 	c #FFFFFF",
"+ 	c #323232",
"@ 	c #474747",
"# 	c #585858",
"$ 	c #5A5A5A",
"% 	c #4D4D4D",
"& 	c #393939",
"* 	c #333333",
"= 	c #A7A7A7",
"- 	c #D4D4D4",
"; 	c #B2B2B2",
"> 	c #3A3A3A",
", 	c #444444",
"' 	c #CBCBCB",
") 	c #D5D5D5",
"! 	c #D2D2D2",
"~ 	c #626262",
"{ 	c #CCCCCC",
"] 	c #D6D6D6",
"^ 	c #3F3F3F",
"/ 	c #AAAAAA",
"( 	c #D8D8D8",
"_ 	c #BCBCBC",
": 	c #2B2B2B",
"< 	c #494949",
"[ 	c #DADADA",
"} 	c #5B5B5B",
"| 	c #5D5D5D",
"1 	c #DCDCDC",
"2 	c #5E5E5E",
"3 	c #DDDDDD",
"4 	c #DEDEDE",
"5 	c #959595",
"6 	c #7C7C7C",
"7 	c #DFDFDF",
"8 	c #070707",
"9 	c #7A7A7A",
"0 	c #000000",
"a 	c #1C1C1C",
"b 	c #969696",
"c 	c #929292",
"d 	c #D1D1D1",
"e 	c #606060",
"f 	c #E1E1E1",
"g 	c #8C8C8C",
"h 	c #4E4E4E",
"i 	c #2E2E2E",
"j 	c #313131",
"k 	c #636363",
"l 	c #C5C5C5",
"m 	c #272727",
"n 	c #515151",
"o 	c #616161",
"p 	c #E2E2E2",
"q 	c #D7D7D7",
"r 	c #151515",
"s 	c #787878",
"t 	c #7F7F7F",
"u 	c #0B0B0B",
"v 	c #828282",
"w 	c #C9C9C9",
"x 	c #A9A9A9",
"y 	c #B0B0B0",
"z 	c #B7B7B7",
"A 	c #BFBFBF",
"B 	c #9F9F9F",
"C 	c #CDCDCD",
"D 	c #868686",
"E 	c #E3E3E3",
"F 	c #404040",
"G 	c #C3C3C3",
"H 	c #838383",
"I 	c #191919",
"J 	c #B8B8B8",
"K 	c #525252",
"L 	c #555555",
"M 	c #B1B1B1",
"N 	c #757575",
"O 	c #CECECE",
"P 	c #040404",
"Q 	c #0E0E0E",
"R 	c #E4E4E4",
"S 	c #D9D9D9",
"T 	c #B9B9B9",
"U 	c #3D3D3D",
"V 	c #8B8B8B",
"W 	c #565656",
"X 	c #121212",
"Y 	c #E0E0E0",
"Z 	c #999999",
"` 	c #CFCFCF",
" .	c #6F6F6F",
"..	c #727272",
"+.	c #E5E5E5",
"@.	c #A4A4A4",
"#.	c #9D9D9D",
"$.	c #414141",
"%.	c #8F8F8F",
"&.	c #D3D3D3",
"*.	c #161616",
"=.	c #656565",
"-.	c #2F2F2F",
";.	c #202020",
">.	c #686868",
",.	c #C8C8C8",
"'.	c #797979",
").	c #AFAFAF",
"!.	c #484848",
"~.	c #B6B6B6",
"{.	c #888888",
"].	c #767676",
"^.	c #C1C1C1",
"/.	c #7D7D7D",
"(.	c #E6E6E6",
"_.	c #D0D0D0",
":.	c #707070",
"<.	c #363636",
"[.	c #BBBBBB",
"}.	c #DBDBDB",
"|.	c #C6C6C6",
"1.	c #696969",
"2.	c #ACACAC",
"3.	c #4C4C4C",
"4.	c #A5A5A5",
"5.	c #E7E7E7",
"6.	c #909090",
"7.	c #777777",
"8.	c #505050",
"9.	c #949494",
"0.	c #ADADAD",
"a.	c #CACACA",
"b.	c #A6A6A6",
"c.	c #242424",
"d.	c #3E3E3E",
"e.	c #E8E8E8",
"f.	c #666666",
"g.	c #AEAEAE",
"h.	c #545454",
"i.	c #2C2C2C",
"j.	c #C4C4C4",
"k.	c #0F0F0F",
"l.	c #575757",
"m.	c #7B7B7B",
"n.	c #6A6A6A",
"o.	c #E9E9E9",
"p.	c #A0A0A0",
"q.	c #424242",
"r.	c #9C9C9C",
"s.	c #1D1D1D",
"t.	c #8A8A8A",
"u.	c #646464",
"v.	c #EAEAEA",
"w.	c #3B3B3B",
"x.	c #BABABA",
"y.	c #EBEBEB",
"z.	c #4A4A4A",
"A.	c #808080",
"B.	c #343434",
"C.	c #848484",
"D.	c #C2C2C2",
"E.	c #9E9E9E",
"F.	c #878787",
"G.	c #ECECEC",
"H.	c #212121",
"I.	c #9B9B9B",
"J.	c #737373",
"K.	c #1E1E1E",
"L.	c #939393",
"M.	c #252525",
"N.	c #A2A2A2",
"O.	c #EDEDED",
"P.	c #2D2D2D",
"Q.	c #979797",
"R.	c #BDBDBD",
"S.	c #1A1A1A",
"T.	c #C0C0C0",
"U.	c #EEEEEE",
"V.	c #8D8D8D",
"W.	c #4B4B4B",
"X.	c #7E7E7E",
"Y.	c #898989",
"Z.	c #A3A3A3",
"`.	c #EFEFEF",
" +	c #B3B3B3",
".+	c #4F4F4F",
"++	c #222222",
"@+	c #F0F0F0",
"#+	c #353535",
"$+	c #A1A1A1",
"%+	c #171717",
"&+	c #292929",
"*+	c #383838",
"=+	c #080808",
"-+	c #B4B4B4",
";+	c #A8A8A8",
">+	c #F1F1F1",
",+	c #B5B5B5",
"'+	c #6E6E6E",
")+	c #717171",
"!+	c #F3F3F3",
"~+	c #989898",
"{+	c #131313",
"]+	c #5F5F5F",
"^+	c #F5F5F5",
"/+	c #F7F7F7",
"(+	c #F8F8F8",
"_+	c #F9F9F9",
":+	c #676767",
"<+	c #FAFAFA",
"[+	c #FBFBFB",
"}+	c #373737",
"|+	c #454545",
"1+	c #FCFCFC",
"2+	c #FDFDFD",
"3+	c #9A9A9A",
"4+	c #FEFEFE",
"5+	c #6C6C6C",
". . . . . . . . . . . . . . . . . . . . . . . . . . . . . . . . . . . . . . . . . . . . . . . . . . . . . . . . . . . . . . . . . . . . . . . . . . . . . . . . . . . . . . . . . . . . . . . . . ",
". . . . . . . . . . . . . . . . . . . . . . . . . . . . . . . . . . . . . . . . . . . . . . . . . . . . . . . . . . . . . . . . . . . . . . . . . . . . . . . . . . . . . . . . . . . . . . . . . ",
". . . . . .   + @ # $ $ $ $ $ $ $ $ $ $ $ $ $ $ $ $ $ $ $ $ $ $ $ $ $ $ $ $ $ $ $ $ $ $ $ $ $ $ $ $ $ $ $ $ $ $ $ $ $ $ $ $ $ $ $ $ $ $ $ $ $ $ $ $ $ $ $ $ $ $ $ $ $ $ $ $ $ $ # % &   . . . . . ",
". . . .   * = - - - - - - - - - - - - - - - - - - - - - - - - - - - - - - - - - - - - - - - - - - - - - - - - - - - - - - - - - - - - - - - - - - - - - - - - - - - - - - - - - - - - ; >   . . . ",
". . .   , ' ) ) ) ) ) ) ) ) ) ) ) ) ) ) ) ) ) ) ) ) ) ) ) ) ) ) ) ) ) ) ) ) ) ) ) ) ) ) ) ) ) ) ) ) ) ) ) ) ) ) ) ) ) ) ) ) ) ) ) ) ) ) ) ) ) ) ) ) ) ) ) ) ) ) ) ) ) ) ) ) ) ) ) ) ) ) ! ~   . . ",
". . . * { ] ] ] ] ] ] ] ] ] ] ] ] ] ] ] ] ] ] ] ] ] ] ] ] ] ] ] ] ] ] ] ] ] ] ] ] ] ] ] ] ] ] ] ] ] ] ] ] ] ] ] ] ] ] ] ] ] ] ] ] ] ] ] ] ] ] ] ] ] ] ] ] ] ] ] ] ] ] ] ] ] ] ] ] ] ] ] ] ] ^ . . ",
". .   / ( ( ( ( ( ( ( ( ( ( ( ( ( ( ( ( ( ( ( ( ( ( ( ( ( ( ( ( ( ( ( ( ( ( ( ( ( ( ( ( ( ( ( ( ( ( ( ( ( ( ( ( ( ( ( ( ( ( ( ( ( ( ( ( ( ( ( ( ( ( ( ( ( ( ( ( ( ( ( ( ( ( ( ( ( ( ( ( ( ( _ : . ",
". . * ( ( ( ( ( ( ( ( ( ( ( ( ( ( ( ( ( ( ( ( ( ( ( ( ( ( ( ( ( ( ( ( ( ( ( ( ( ( ( ( ( ( ( ( ( ( ( ( ( ( ( ( ( ( ( ( ( ( ( ( ( ( ( ( ( ( ( ( ( ( ( ( ( ( ( ( ( ( ( ( ( ( ( ( ( ( ( ( ( ( ( ( , . ",
". . < [ [ [ [ [ [ [ [ [ [ [ [ [ [ [ [ [ [ [ [ [ [ [ [ [ [ [ [ [ [ [ [ [ [ [ [ [ [ [ [ [ [ [ [ [ [ [ [ [ [ [ [ [ [ [ [ [ [ [ [ [ [ [ [ [ [ [ [ [ [ [ [ [ [ [ [ [ [ [ [ [ [ [ [ [ [ [ [ [ [ [ [ } . ",
". . $ [ [ [ [ [ [ [ [ [ [ [ [ [ [ [ [ [ [ [ [ [ [ [ [ [ [ [ [ [ [ [ [ [ [ [ [ [ [ [ [ [ [ [ [ [ [ [ [ [ [ [ [ [ [ [ [ [ [ [ [ [ [ [ [ [ [ [ [ [ [ [ [ [ [ [ [ [ [ [ [ [ [ [ [ [ [ [ [ [ [ [ [ | . ",
". . | 1 1 1 1 1 1 1 1 1 1 1 1 1 1 1 1 1 1 1 1 1 1 1 1 1 1 1 1 1 1 1 1 1 1 1 1 1 1 1 1 1 1 1 1 1 1 1 1 1 1 1 1 1 1 1 1 1 1 1 1 1 1 1 1 1 1 1 1 1 1 1 1 1 1 1 1 1 1 1 1 1 1 1 1 1 1 1 1 1 1 1 1 | . ",
". . 2 3 3 3 3 3 3 3 3 3 3 3 3 3 3 3 3 3 3 3 3 3 3 3 3 3 3 3 3 3 3 3 3 3 3 3 3 3 3 3 3 3 3 3 3 3 3 3 3 3 3 3 3 3 3 3 3 3 3 3 3 3 3 3 3 3 3 3 3 3 3 3 3 3 3 3 3 3 3 3 3 3 3 3 3 3 3 3 3 3 3 3 3 2 . ",
". . 2 4 4 4 4 4 4 4 4 4 4 4 4 4 4 4 4 4 4 4 4 4 4 4 4 4 4 4 4 4 4 4 4 4 4 4 4 4 4 4 4 4 4 4 4 4 4 4 4 4 4 4 4 4 5 6 4 4 4 4 4 4 4 4 4 4 4 4 4 4 4 4 4 4 4 4 4 4 4 4 4 4 4 4 4 4 4 4 4 4 4 4 4 2 . ",
". . 2 7 7 7 7 7 7 7 7 7 7 7 7 7 7 7 7 7 7 7 7 7 7 7 7 7 7 7 7 7 7 7 7 7 7 7 7 7 7 7 7 7 7 7 7 7 7 7 7 7 7 7 7 ) 8 9 7 7 7 7 7 7 7 7 7 7 7 7 7 7 7 7 7 7 7 7 7 7 7 7 7 7 7 7 7 7 7 7 7 7 7 7 7 2 . ",
". . 2 7 7 7 7 7 7 7 7 7 7 7 7 7 7 7 7 7 7 7 7 7 7 7 7 7 7 7 7 7 7 7 7 7 7 7 7 7 7 7 7 7 7 7 7 7 7 7 7 7 7 7 7 _ 0 a b c d 7 7 7 7 7 7 7 7 7 7 7 7 7 7 7 7 7 7 7 7 7 7 7 7 7 7 7 7 7 7 7 7 7 7 2 . ",
". . e f f f f f f f f f f f f 3 g h i a j k l f f f f f f f f f f f f f f f f f f f f f f f f f f f f f f f f f m 0 0 n f f f f f f f f f f f f f f f f f f f f f f f f f f f f f f f f f f f e . ",
". . o p p p p p p p p p p p q m 0 r s t : 0 u v p p p p p p p p w x y - p - z p p p p p p p 4 z A 4 p p p p p p 4 B z p p p p p p p p A x y C p p p p p p 4 q p p p - D A p p p p p p p p p p o . ",
". . o E E E E E E E E E E E F 0 0 G E E E e 0 0 H E E E E E A & 0 0 0 0 I u J E E E E E J K u 0 0 u L B ) E E E E M N A E E E E O L r 0 0 0 P d E E E E G m Q J E E L 0 u M E E E E E E E E E o . ",
". . o R R R R R R R R R R S P 0 m R R R R T 0 0 U R R R R ! r 0 0 0 0 0 8 V R R R R R H P 0 0 0 0 0 0 r S R R S W 0 0 X Y R R Z Q 0 0 0 0 0 0 ` R R R R  .0 0 ..R R o 0 0 U R R R R R R R R R o . ",
". . ~ +.+.+.+.+.+.+.+.+.+.@.0 0 & +.+.+.+.#.0 0 $.+.+.+.+.#.0 o %.%.%.c &.+.+.+.+.+.` 8 0 *.o =.-.;.>.,.+.+.+.'.0 0 0 0 ,.+.).P 0 !.#.l ~.{.].4 ^.+.+.+.U 0 0 /.+.+.f & 0 P +.+.+.+.+.+.+.+.+.~ . ",
". . ~ (.(.(.(.(.(.(.(.(.(.%.0 0 > _.:.<.w * 0 0 %.(.(.(.(.[.0 }.(.(.(.(.(.(.(.(.(.(.|.0 u - (.(.(.(.(.(.(.(.(.(.1.0 0 0 w 7 *.Q 2.(.(.(.(.- 3.u 4.(.(.(.].0 0 =.(.(.(.C Q 0 (.(.(.(.(.(.(.(.(.~ . ",
". . ~ 5.5.5.5.5.5.5.5.5.5.6.0 0 > !.0 0 P 0 P 7.5.5.5.5.5.5.1.3.A 5.5.5.5.5.5.5.5.5.5.8.0 9.1 5.5.5.5.5.5.5.5.5.0.0 0 0 a.b.u G 5.5.5.5.1 c.0 2 5.5.5.5.d u 0 0 v 5.5.5.d.c.5.5.5.5.5.5.5.5.5.~ . ",
". . k e.e.e.e.e.e.e.e.e.e.9.0 0 > 8.0 0 f.g.] e.e.e.e.e.e.e.e.< 0 h.e.e.e.e.e.e.e.e.e.R ~ 8 P i.} 7.j.e.e.e.e.e.g.0 0 k.R ~ l.e.e.e.e.e.} 0 0 _ e.e.e.e.e.m.0 0 0 v e.e.l.n.e.e.e.e.e.e.e.e.e.k . ",
". . k o.o.o.o.o.o.o.o.o.o.4 0 0 > p.0 0 < o.o.o.o.o.o.o.o.o.h.0 0 q.o.o.o.o.o.o.o.o.o.o.o.4 r.H < k.0 k +.o.o.o.t 0 0 s.o.t t.o.o.o.o.q P 0 0 +.o.o.o.o.o.4 u 0 0 0 5 o.% ; o.o.o.o.o.o.o.o.o.k . ",
". . u.v.v.v.v.v.v.v.v.v.v.v.0 0 w.v.i.0 8 7 v.v.v.v.v.v.v.N 0 < ).v.v.v.v.v.v.v.v.v.v.v.v.v.v.v.v.(.@.s.h.v.v.v.N 0 0 s.v.2.* 7 v.v.v.x.0 0 X v.v.v.v.v.v._.0 0 0 0 k.C * v.v.v.v.v.v.v.v.v.v.u.. ",
". . u.y.y.y.y.y.y.y.y.y.y.y.0 0 w.y.y 0 0 %.y.y.y.y.y.y.O P %.y.y.y.u.z.A.x y.y.y.y.y.y.y.y.y.y.y.y.y.O 0 z y.y.N 0 0 s.y.5.B.s.C.D.a.N 0 0 s.y.y.y.y.y.y.A.0 E.X 0 0 w.F.y.y.y.y.y.y.y.y.y.y.u.. ",
". . u.G.G.G.G.G.G.G.G.G.G.G.0 0 w.G.G.u.0 H.e.G.G.G.G.G.I.P f G.G.G.O g J.g ] g G.G.G.G.G.G.G.G.G.G.G.G.K.L.G.G.].0 0 K.G.G.' *.0 0 0 M.K.0 u G.G.G.G.G.+.*.M.G.O M.0 0 N.G.G.G.G.G.G.G.G.G.G.u.. ",
". . =.O.O.O.O.O.O.O.O.O.O.p 0 0 w.O.O.p P.0 Q.O.O.O.O.O.Q.0 u.o.O.O.O.O.O.T M.9 O.O.R.9 B 4 O.O.O.O.O.o.k.b.O.O.].0 0 K.O.O.O.&.^ P S.,.B 0 0 T.O.O.O.O.:.0 u.O.O.,.*.0 K O.O.O.O.O.O.O.O.O.O.=.. ",
". . =.U.U.U.U.U.U.U.U.U.U.= 0 0 K U.U.U.{ k.S.7 U.U.U.U.w P 0 k.K V.9.9 ^ 0 u { U.7.0 0 0 8 $ ~.U.U.{ W.*.5.U.U.7.0 0 8 5.U.U.U.U.7 U.U.U.X.0 Y.U.U.U.).0 0 ).U.U.U.Z.0 ^ U.U.U.U.U.U.U.U.U.U.=.. ",
". . =.`.`.`.`.`.`.`.`.`.Z *.0 0 5 `.`.`.`. +P o `.`.`.`.`.t 0 0 0 0 0 0 0 P 5 `.Y u 0 0 0 0 0 0 k.P.0 P z `.`.`.v 0 0 0 .+`.`.`.`.`.`.`.`.`.$ K `.`.Z P 0 ++y.`.`.`.`.B.m.`.`.`.`.`.`.`.`.`.`.=.. ",
". . f.@+@+@+@+@+@+@+@+@+b 0 0 #+G.@+@+@+@+@+$+P F.@+@+@+@+@+2.%+0 0 0 0 &+[.@+@+f *+4.t., =+0 0 0 0 S.-+@+@+@+@+a.P 0 !.f @+@+@+@+@+@+@+@+@+e.&+@+@+-+=+P ;+@+@+@+@+@+G G.@+@+@+@+@+@+@+@+@+@+f.. ",
". . f.>+>+>+>+>+>+>+>+>+>+j.J >+>+>+>+>+>+>+>+N.=+F.>+>+>+>+>+O.J b N.[ >+>+>+>+>+4 >+>+>+o.0.b b ,+(.>+>+>+>+>+>+' J >+>+>+_ '+)+_ >+>+>+>+>+P.[ >+>+&.` >+>+>+>+>+>+>+>+>+>+>+>+>+>+>+>+>+>+f.. ",
". . >.!+!+!+!+!+!+!+!+!+!+!+!+!+!+!+!+!+!+!+!+!+l + {.!+!+!+!+!+!+!+!+!+!+!+!+!+!+!+!+!+!+!+!+!+!+!+!+!+!+!+!+!+!+!+!+!+!+6.0 0 0 0 #+~+e.e.'.0 e.!+!+!+!+!+!+!+!+!+!+!+!+!+!+!+!+!+!+!+!+!+!+>.. ",
". . >.!+!+!+!+!+!+!+!+!+!+!+!+!+!+!+!+!+!+!+!+!+!+!+1 !+!+!+!+!+!+!+!+!+!+!+!+!+!+!+!+!+!+!+!+!+!+!+!+!+!+!+!+!+!+!+!+!+( u u {+0 0 0 0 P u 0 ]+!+!+!+!+!+!+!+!+!+!+!+!+!+!+!+!+!+!+!+!+!+!+!+>.. ",
". . 1.^+^+^+^+^+^+^+^+^+^+^+^+^+^+^+^+^+^+^+^+^+^+^+^+^+^+^+^+^+^+^+^+^+^+^+^+^+^+^+^+^+^+^+^+^+^+^+^+^+^+^+^+^+^+^+^+^+Y.A ^+^+(.y J.$.U J.[.^+^+^+^+^+^+^+^+^+^+^+^+^+^+^+^+^+^+^+^+^+^+^+^+1.. ",
". . 1.^+^+^+^+^+^+^+^+^+^+^+^+^+^+^+^+^+^+^+^+^+^+^+^+^+^+^+^+^+^+^+^+^+^+^+^+^+^+^+^+^+^+^+^+^+^+^+^+^+^+^+^+^+^+^+^+^+^+^+^+^+^+^+^+^+^+^+^+^+^+^+^+^+^+^+^+^+^+^+^+^+^+^+^+^+^+^+^+^+^+^+^+1.. ",
". . 1./+/+/+/+/+/+/+/+/+/+/+/+/+/+/+/+/+/+/+/+/+/+/+/+/+/+/+/+/+/+/+/+/+/+/+/+/+/+/+/+/+/+/+/+/+/+/+/+/+/+/+/+/+/+/+/+/+/+/+/+/+/+/+/+/+/+/+/+/+/+/+/+/+/+/+/+/+/+/+/+/+/+/+/+/+/+/+/+/+/+/+/+1.. ",
". . >.(+(+(+(+(+(+(+(+(+(+(+(+(+(+(+(+(+(+(+(+(+(+(+(+(+(+(+(+(+(+(+(+(+(+(+(+(+(+(+(+(+(+(+(+(+(+(+(+(+(+(+(+(+(+(+(+(+(+(+(+(+(+(+(+(+(+(+(+(+(+(+(+(+(+(+(+(+(+(+(+(+(+(+(+(+(+(+(+(+(+(+(+n.. ",
". . # _+_+_+_+_+_+_+_+_+_+_+_+_+_+_+_+_+_+_+_+_+_+_+_+_+_+_+_+_+_+_+_+_+_+_+_+_+_+_+_+_+_+_+_+_+_+_+_+_+_+_+_+_+_+_+_+_+_+_+_+_+_+_+_+_+_+_+_+_+_+_+_+_+_+_+_+_+_+_+_+_+_+_+_+_+_+_+_+_+_+_+_+:+. ",
". . U <+<+<+<+<+<+<+<+<+<+<+<+<+<+<+<+<+<+<+<+<+<+<+<+<+<+<+<+<+<+<+<+<+<+<+<+<+<+<+<+<+<+<+<+<+<+<+<+<+<+<+<+<+<+<+<+<+<+<+<+<+<+<+<+<+<+<+<+<+<+<+<+<+<+<+<+<+<+<+<+<+<+<+<+<+<+<+<+<+<+<+<+h.. ",
". .   ] [+[+[+[+[+[+[+[+[+[+[+[+[+[+[+[+[+[+[+[+[+[+[+[+[+[+[+[+[+[+[+[+[+[+[+[+[+[+[+[+[+[+[+[+[+[+[+[+[+[+[+[+[+[+[+[+[+[+[+[+[+[+[+[+[+[+[+[+[+[+[+[+[+[+[+[+[+[+[+[+[+[+[+[+[+[+[+[+[+[+y.}+. ",
". . . |+(+1+1+1+1+1+1+1+1+1+1+1+1+1+1+1+1+1+1+1+1+1+1+1+1+1+1+1+1+1+1+1+1+1+1+1+1+1+1+1+1+1+1+1+1+1+1+1+1+1+1+1+1+1+1+1+1+1+1+1+1+1+1+1+1+1+1+1+1+1+1+1+1+1+1+1+1+1+1+1+1+1+1+1+1+1+1+1+1+1+]+. . ",
". . .   :.2+2+2+2+2+2+2+2+2+2+2+2+2+2+2+2+2+2+2+2+2+2+2+2+2+2+2+2+2+2+2+2+2+2+2+2+2+2+2+2+2+2+2+2+2+2+2+2+2+2+2+2+2+2+2+2+2+2+2+2+2+2+2+2+2+2+2+2+2+2+2+2+2+2+2+2+2+2+2+2+2+2+2+2+2+2+2+2+3+  . . ",
". . . .   z.3 4+4+4+4+4+4+4+4+4+4+4+4+4+4+4+4+4+4+4+4+4+4+4+4+4+4+4+4+4+4+4+4+4+4+4+4+4+4+4+4+4+4+4+4+4+4+4+4+4+4+4+4+4+4+4+4+4+4+4+4+4+4+4+4+4+4+4+4+4+4+4+4+4+4+4+4+4+4+4+4+4+4+4+4+U.]+  . . . ",
". . . . . . + % ~ 5+5+5+5+5+5+5+5+5+5+5+5+5+5+5+5+5+5+5+5+5+5+5+5+5+5+5+5+5+5+5+5+5+5+5+5+5+5+5+5+5+5+5+5+5+5+5+5+5+5+5+5+5+5+5+5+5+5+5+5+5+5+5+5+5+5+5+5+5+5+5+5+5+5+5+5+5+5+5+5+1.L }+. . . . . ",
". . . . . . . . . . . . . . . . . . . . . . . . . . . . . . . . . . . . . . . . . . . . . . . . . . . . . . . . . . . . . . . . . . . . . . . . . . . . . . . . . . . . . . . . . . . . . . . . . "};
