/* XPM */
static char * white_xpm[] = {
"95 47 209 2",
"  	c None",
". 	c #FFFFFF",
"+ 	c #323232",
"@ 	c #474747",
"# 	c #585858",
"$ 	c #5A5A5A",
"% 	c #4D4D4D",
"& 	c #393939",
"* 	c #333333",
"= 	c #A7A7A7",
"- 	c #D4D4D4",
"; 	c #B2B2B2",
"> 	c #3A3A3A",
", 	c #444444",
"' 	c #CBCBCB",
") 	c #D5D5D5",
"! 	c #D2D2D2",
"~ 	c #626262",
"{ 	c #CCCCCC",
"] 	c #D6D6D6",
"^ 	c #3F3F3F",
"/ 	c #AAAAAA",
"( 	c #D8D8D8",
"_ 	c #BCBCBC",
": 	c #2B2B2B",
"< 	c #494949",
"[ 	c #DADADA",
"} 	c #5B5B5B",
"| 	c #5D5D5D",
"1 	c #DBDBDB",
"2 	c #5E5E5E",
"3 	c #DDDDDD",
"4 	c #BABABA",
"5 	c #575757",
"6 	c #DFDFDF",
"7 	c #C7C7C7",
"8 	c #969696",
"9 	c #929292",
"0 	c #343434",
"a 	c #3B3B3B",
"b 	c #818181",
"c 	c #070707",
"d 	c #000000",
"e 	c #0A0A0A",
"f 	c #151515",
"g 	c #7D7D7D",
"h 	c #A0A0A0",
"i 	c #B9B9B9",
"j 	c #606060",
"k 	c #E1E1E1",
"l 	c #909090",
"m 	c #8C8C8C",
"n 	c #232323",
"o 	c #555555",
"p 	c #A5A5A5",
"q 	c #040404",
"r 	c #BEBEBE",
"s 	c #6A6A6A",
"t 	c #191919",
"u 	c #D3D3D3",
"v 	c #616161",
"w 	c #E2E2E2",
"x 	c #B4B4B4",
"y 	c #1C1C1C",
"z 	c #7F7F7F",
"A 	c #636363",
"B 	c #202020",
"C 	c #2E2E2E",
"D 	c #595959",
"E 	c #B7B7B7",
"F 	c #A9A9A9",
"G 	c #D7D7D7",
"H 	c #A6A6A6",
"I 	c #DEDEDE",
"J 	c #C9C9C9",
"K 	c #C2C2C2",
"L 	c #B0B0B0",
"M 	c #E3E3E3",
"N 	c #353535",
"O 	c #9C9C9C",
"P 	c #6E6E6E",
"Q 	c #676767",
"R 	c #DCDCDC",
"S 	c #BFBFBF",
"T 	c #B5B5B5",
"U 	c #7C7C7C",
"V 	c #A3A3A3",
"W 	c #525252",
"X 	c #717171",
"Y 	c #272727",
"Z 	c #0B0B0B",
"` 	c #646464",
" .	c #E4E4E4",
"..	c #D9D9D9",
"+.	c #1D1D1D",
"@.	c #959595",
"#.	c #AEAEAE",
"$.	c #797979",
"%.	c #B6B6B6",
"&.	c #CFCFCF",
"*.	c #404040",
"=.	c #0E0E0E",
"-.	c #3D3D3D",
";.	c #8E8E8E",
">.	c #727272",
",.	c #121212",
"'.	c #6B6B6B",
").	c #C0C0C0",
"!.	c #8B8B8B",
"~.	c #E6E6E6",
"{.	c #454545",
"].	c #9E9E9E",
"^.	c #8F8F8F",
"/.	c #363636",
"(.	c #767676",
"_.	c #7A7A7A",
":.	c #A1A1A1",
"<.	c #CDCDCD",
"[.	c #D0D0D0",
"}.	c #E7E7E7",
"|.	c #949494",
"1.	c #696969",
"2.	c #E0E0E0",
"3.	c #161616",
"4.	c #9B9B9B",
"5.	c #505050",
"6.	c #CACACA",
"7.	c #C3C3C3",
"8.	c #414141",
"9.	c #B8B8B8",
"0.	c #282828",
"a.	c #9F9F9F",
"b.	c #E8E8E8",
"c.	c #7E7E7E",
"d.	c #212121",
"e.	c #C4C4C4",
"f.	c #E9E9E9",
"g.	c #0F0F0F",
"h.	c #303030",
"i.	c #E5E5E5",
"j.	c #5F5F5F",
"k.	c #ABABAB",
"l.	c #7B7B7B",
"m.	c #787878",
"n.	c #1A1A1A",
"o.	c #C1C1C1",
"p.	c #EAEAEA",
"q.	c #999999",
"r.	c #3E3E3E",
"s.	c #424242",
"t.	c #252525",
"u.	c #C5C5C5",
"v.	c #2C2C2C",
"w.	c #373737",
"x.	c #AFAFAF",
"y.	c #545454",
"z.	c #878787",
"A.	c #A8A8A8",
"B.	c #EBEBEB",
"C.	c #9A9A9A",
"D.	c #6F6F6F",
"E.	c #757575",
"F.	c #5C5C5C",
"G.	c #CECECE",
"H.	c #292929",
"I.	c #ECECEC",
"J.	c #1E1E1E",
"K.	c #A2A2A2",
"L.	c #B1B1B1",
"M.	c #686868",
"N.	c #656565",
"O.	c #EDEDED",
"P.	c #4A4A4A",
"Q.	c #C8C8C8",
"R.	c #EEEEEE",
"S.	c #919191",
"T.	c #3C3C3C",
"U.	c #131313",
"V.	c #858585",
"W.	c #EFEFEF",
"X.	c #747474",
"Y.	c #434343",
"Z.	c #707070",
"`.	c #D1D1D1",
" +	c #ACACAC",
".+	c #777777",
"++	c #666666",
"@+	c #F0F0F0",
"#+	c #313131",
"$+	c #838383",
"%+	c #2D2D2D",
"&+	c #535353",
"*+	c #222222",
"=+	c #484848",
"-+	c #F1F1F1",
";+	c #F2F2F2",
">+	c #F3F3F3",
",+	c #1B1B1B",
"'+	c #F4F4F4",
")+	c #8D8D8D",
"!+	c #F5F5F5",
"~+	c #F6F6F6",
"{+	c #F8F8F8",
"]+	c #F9F9F9",
"^+	c #FAFAFA",
"/+	c #F7F7F7",
"(+	c #FBFBFB",
"_+	c #FDFDFD",
":+	c #6C6C6C",
". . . . . . . . . . . . . . . . . . . . . . . . . . . . . . . . . . . . . . . . . . . . . . . . . . . . . . . . . . . . . . . . . . . . . . . . . . . . . . . . . . . . . . . . . . . . . . . ",
". . . . . . . . . . . . . . . . . . . . . . . . . . . . . . . . . . . . . . . . . . . . . . . . . . . . . . . . . . . . . . . . . . . . . . . . . . . . . . . . . . . . . . . . . . . . . . . ",
". . . . . .   + @ # $ $ $ $ $ $ $ $ $ $ $ $ $ $ $ $ $ $ $ $ $ $ $ $ $ $ $ $ $ $ $ $ $ $ $ $ $ $ $ $ $ $ $ $ $ $ $ $ $ $ $ $ $ $ $ $ $ $ $ $ $ $ $ $ $ $ $ $ $ $ $ $ $ $ $ # % &   . . . . . . ",
". . . .   * = - - - - - - - - - - - - - - - - - - - - - - - - - - - - - - - - - - - - - - - - - - - - - - - - - - - - - - - - - - - - - - - - - - - - - - - - - - - - - - - - - ; >   . . . . ",
". . .   , ' ) ) ) ) ) ) ) ) ) ) ) ) ) ) ) ) ) ) ) ) ) ) ) ) ) ) ) ) ) ) ) ) ) ) ) ) ) ) ) ) ) ) ) ) ) ) ) ) ) ) ) ) ) ) ) ) ) ) ) ) ) ) ) ) ) ) ) ) ) ) ) ) ) ) ) ) ) ) ) ) ) ) ) ! ~   . . . ",
". . . * { ] ] ] ] ] ] ] ] ] ] ] ] ] ] ] ] ] ] ] ] ] ] ] ] ] ] ] ] ] ] ] ] ] ] ] ] ] ] ] ] ] ] ] ] ] ] ] ] ] ] ] ] ] ] ] ] ] ] ] ] ] ] ] ] ] ] ] ] ] ] ] ] ] ] ] ] ] ] ] ] ] ] ] ] ] ] ^ . . . ",
". .   / ( ( ( ( ( ( ( ( ( ( ( ( ( ( ( ( ( ( ( ( ( ( ( ( ( ( ( ( ( ( ( ( ( ( ( ( ( ( ( ( ( ( ( ( ( ( ( ( ( ( ( ( ( ( ( ( ( ( ( ( ( ( ( ( ( ( ( ( ( ( ( ( ( ( ( ( ( ( ( ( ( ( ( ( ( ( ( _ : . . ",
". . * ( ( ( ( ( ( ( ( ( ( ( ( ( ( ( ( ( ( ( ( ( ( ( ( ( ( ( ( ( ( ( ( ( ( ( ( ( ( ( ( ( ( ( ( ( ( ( ( ( ( ( ( ( ( ( ( ( ( ( ( ( ( ( ( ( ( ( ( ( ( ( ( ( ( ( ( ( ( ( ( ( ( ( ( ( ( ( ( ( , . . ",
". . < [ [ [ [ [ [ [ [ [ [ [ [ [ [ [ [ [ [ [ [ [ [ [ [ [ [ [ [ [ [ [ [ [ [ [ [ [ [ [ [ [ [ [ [ [ [ [ [ [ [ [ [ [ [ [ [ [ [ [ [ [ [ [ [ [ [ [ [ [ [ [ [ [ [ [ [ [ [ [ [ [ [ [ [ [ [ [ [ [ } . . ",
". . $ [ [ [ [ [ [ [ [ [ [ [ [ [ [ [ [ [ [ [ [ [ [ [ [ [ [ [ [ [ [ [ [ [ [ [ [ [ [ [ [ [ [ [ [ [ [ [ [ [ [ [ [ [ [ [ [ [ [ [ [ [ [ [ [ [ [ [ [ [ [ [ [ [ [ [ [ [ [ [ [ [ [ [ [ [ [ [ [ [ | . . ",
". . | 1 1 1 1 1 1 1 1 1 1 1 1 1 1 1 1 1 1 1 1 1 1 1 1 1 1 1 1 1 1 1 1 1 1 1 1 1 1 1 1 1 1 1 1 1 1 1 1 1 1 1 1 1 1 1 1 1 1 1 1 1 1 1 1 1 1 1 1 1 1 1 1 1 1 1 1 1 1 1 1 1 1 1 1 1 1 1 1 1 | . . ",
". . 2 3 3 3 3 3 3 3 3 3 3 3 3 3 3 3 3 3 3 3 3 3 3 3 3 3 3 3 3 3 3 3 3 3 3 3 3 3 3 3 3 3 3 3 3 3 3 3 3 3 3 3 3 3 3 3 3 3 3 3 3 3 3 3 3 3 3 3 3 3 3 3 3 3 3 3 3 3 3 3 3 3 3 3 3 3 3 3 3 3 2 . . ",
". . 2 3 3 3 3 3 3 3 3 3 3 3 3 3 3 3 3 3 3 3 3 3 3 3 3 3 3 3 3 3 3 3 3 3 3 3 3 3 3 3 3 3 3 3 3 3 3 3 3 3 3 4 5 3 3 3 3 3 3 3 3 3 3 3 3 3 3 3 3 3 3 3 3 3 3 3 3 3 3 3 3 3 3 3 3 3 3 3 3 3 2 . . ",
". . 2 6 6 6 6 6 6 6 6 6 6 6 6 6 6 6 6 6 6 6 6 6 6 6 6 6 6 7 8 9 7 6 6 6 6 6 6 6 6 6 6 6 6 6 6 6 6 6 6 6 6 0 a 6 6 6 6 6 6 6 6 6 6 6 6 6 6 6 6 6 6 6 6 6 6 6 6 6 6 6 6 6 6 6 6 6 6 6 6 6 2 . . ",
". . 2 6 6 6 6 6 6 6 6 6 6 6 6 6 6 6 6 6 6 6 6 6 6 6 6 6 b c d d e 8 6 6 6 6 6 6 6 6 6 6 6 6 6 6 6 6 6 6 6 f c g h i 6 6 6 6 6 6 6 6 6 6 6 6 6 6 6 6 6 6 6 6 6 6 6 6 6 6 6 6 6 6 6 6 6 6 2 . . ",
". . j k k k k k k k k k k ] l m ] k k k k k m n o 3 k p d d d d d q r k k k k k k k k k k k k k k k k k k s d d t u k k k k k k k k k k k k k k k k k k k k k k k k k k k k k k k k k k j . . ",
". . v w w w w w w w w w l q d d & w w w w x q y d z w A B C q d d d D w w w w E F G w w w w w w w w w w w w x H I w J K w w w w w w K F K w w w w w w G L F K w w F w w w w w w w w w w v . . ",
". . v M M M M M M M M M N d d d d O M M M P d Q y C M z R M S f d d & M M T : d d y M M M M M M M M M M M M 7 U V M / q W X Q @ Y c d d d Y ) M M 6 P c d d d Z f ` M M M M M M M M M M v . . ",
". . v  . . . . . . . . ...Y d d d C  . . .: d : W +. . . . . .@.d d &  . .#.: d d d 7  . . . . . . . . . .U c d d i i d d d d d d d d d d d $. . .D d d d d d d , .. . . . . . . . . . .v . . ",
". . v  . . . . . . . . . .%.d d d d &. . .*.d d q :  . . . . .3 =.d -. . . .h d d d 7  . . . . . . . . .#.q d d d ;. .>.,.d d Z B d '.).@.+.`  . .=.C !.;.;.;.;  . . . . . . . . . . . .v . . ",
". . ~ ~.~.~.~.~.~.~.~.~.~.~.{.d d d ].~.~.^.d d d 2 ~.~.~.~.~.~./.d (.~.~.~.J d d d ~.~.~.~.~.L 2 _.( ~.~.:.d d d ^.~.~.w E <.~.v d [.~.~.- 1 ~.~./._.~.~.~.~.~.~.~.~.~.~.~.~.~.~.~.~.~.~ . . ",
". . ~ }.}.}.}.}.}.}.}.}.}.}.|.d d d 1.}.}.2.3.d d q 4.}.}.}.}.}.5.=...}.}.}.6.d d 3.}.}.}.7.> d d d 8.}.}.}.d d d l }.}.}.}.}.M ,.d }.}.}.}.}.}.}.9.0.a.2.}.}.}.}.}.}.}.}.}.}.}.}.}.}.}.~ . . ",
". . A b.b.b.b.b.b.b.b.b.b.b.! d d d * b.b.b.c.d d d q / b.b.b.b.0.c.b.b.b.b.' d d * b.b.c.Z d.d d d q b.b.b.d d d i b.b.b.b.b.7 d d ! b.b.b.b.b.b.b.a.d 3.e.b.b.b.b.b.b.b.b.b.b.b.b.b.b.A . . ",
". . A f.f.f.f.f.f.f.f.f.f.f.f.+.d d d [ f.f.e.d d d d g.e.f.f.%.h.i.f.f.f.f.%.d d j.k.{.s { f.l.d d 0.f.f.i d d d { f.f.f.f.f.{ d d h f.f.f.f.f.f.m.c n.} o.f.f.f.f.f.f.f.f.f.f.f.f.f.f.A . . ",
". . ` p.p.p.p.p.p.p.p.p.p.p.p.# d d d q.p.~.r.q s.d d d t.~.u.v.<.p.p.p.p.p.U d d 0.w.- p.p.p.;.d d m.p.p.x.d d d <.p.p.p.p.p.<.d d y.p.p.p.p.p.z.Z 9 ~.p.r u.A.p.p.p.p.p.p.p.p.p.p.p.p.` . . ",
". . ` B.B.B.B.B.B.B.B.B.B.B.B.C.d d d o B.$.d D.}.v.d d d :.h.E B.B.B.B.B.B.E.d d n.R B.B.B.B.F.d n.2.B.B.L d d d G.B.B.B.B.B.G.d d ,.B.B.B.B.B.n.Q B.B.B.6.g.0 H.B.) B.B.B.B.B.B.B.B.B.` . . ",
". . ` I.I.I.I.I.I.I.I.I.I.I.I...d d d q g q J.k I.F d d d D.b.I.I.I.I.I.I.I.(.d d ^.I.I.I.I.3 g.d K.I.I.I.L.d d d G.I.I.I.I.I.7.d d d ).I.I.I.I.d M.I.I.I.I.I.b._ 7 J.I.I.I.I.I.I.I.I.I.` . . ",
". . N.O.O.O.O.O.O.O.O.O.O.O.O.O.P.d d d d d ; O.O.O.H.d d M.O.O.O.O.O.O.O.O.(.d d T O.O.O.O.(.d (.O.O.O.O.; d d d Q.O.O.O.O.O.(.d d d 4.O.O.O.O.J.d M.; f.O.O.[ g Z ^ O.O.O.O.O.O.O.O.O.N.. . ",
". . N.R.R.R.R.R.R.R.R.R.R.R.R.R.o.d d d d N.R.R.R.R.1.d d o.R.R.R.R.R.R.R.R.S.d d c.R.R.R.}.3.T.R.R.R.R.R.; d d d | }.R.R.( _.U.d d d %.R.R.R.R.V.d d d Z J.3.d d q o.R.R.R.R.R.R.R.R.R.N.. . ",
". . N.W.W.W.W.W.W.W.W.W.W.W.W.W.W.X.d d Y.B.W.W.W.W.h d Z.W.W.W.W.W.W.W.W.W.2.c d Z `.W.W.q.d  +W.W.W.W.W.R d d d W W.W.W.<.3.d d d t.B.W.W.W.W.W..+d d d d d d g.A.W.W.W.W.W.W.W.W.W.W.N.. . ",
". . ++@+@+@+@+@+@+@+@+@+@+@+@+@+@+@+E.E.i.@+@+@+@+@+S :.@+@+@+@+@+@+@+@+@+@+@+p #+E.I.@+@+, g.I.@+@+@+@+@+@+$+#+8 @+@+@+@+@+6.5 %+~ ..@+@+@+@+@+@+@+ +&+*+J.=+E.] @+@+@+@+@+@+@+@+@+@+@+++. . ",
". . ++-+-+-+-+-+-+-+-+-+-+-+-+-+-+-+-+-+-+-+-+-+-+-+-+-+-+-+-+-+-+-+-+-+-+-+-+-+-+-+-+-+-+U.*.-+-+-+-+-+-+-+-+-+-+-+-+-+-+-+-+-+-+-+-+-+-+-+-+-+-+-+-+-+-+-+-+-+-+-+-+-+-+-+-+-+-+-+-+-+++. . ",
". . M.;+;+;+;+;+;+;+;+;+;+;+;+;+;+;+;+;+;+;+;+;+;+;+;+;+;+;+;+;+;+;+;+;+;+;+;+;+;+;+;+;+6 d >.;+;+;+;+;+;+;+;+;+;+;+;+;+;+;+;+;+;+;+;+;+;+;+;+;+;+;+;+;+;+;+;+;+;+;+;+;+;+;+;+;+;+;+;+;+M.. . ",
". . M.>+>+>+>+>+>+>+>+>+>+>+>+>+>+>+>+>+>+>+>+>+>+>+>+>+>+>+>+>+>+>+>+>+>+>+>+>+>+>+>+>+>+,+A >+>+>+>+>+>+>+>+>+>+>+>+>+>+>+>+>+>+>+>+>+>+>+>+>+>+>+>+>+>+>+>+>+>+>+>+>+>+>+>+>+>+>+>+>+M.. . ",
". . M.'+'+'+'+'+'+'+'+'+'+'+'+'+'+'+'+'+'+'+'+'+'+'+'+'+'+'+'+'+'+'+'+'+'+'+'+'+'+'+'+'+'+)+g.r '+'+'+'+'+'+'+'+'+'+'+'+'+'+'+'+'+'+'+'+'+'+'+'+'+'+'+'+'+'+'+'+'+'+'+'+'+'+'+'+'+'+'+'+M.. . ",
". . 1.!+!+!+!+!+!+!+!+!+!+!+!+!+!+!+!+!+!+!+!+!+!+!+!+!+!+!+!+!+!+!+!+!+!+!+!+!+!+!+!+!+!+!+!+!+!+!+!+!+!+!+!+!+!+!+!+!+!+!+!+!+!+!+!+!+!+!+!+!+!+!+!+!+!+!+!+!+!+!+!+!+!+!+!+!+!+!+!+!+1.. . ",
". . 1.~+~+~+~+~+~+~+~+~+~+~+~+~+~+~+~+~+~+~+~+~+~+~+~+~+~+~+~+~+~+~+~+~+~+~+~+~+~+~+~+~+~+~+~+~+~+~+~+~+~+~+~+~+~+~+~+~+~+~+~+~+~+~+~+~+~+~+~+~+~+~+~+~+~+~+~+~+~+~+~+~+~+~+~+~+~+~+~+~+1.. . ",
". . M.{+{+{+{+{+{+{+{+{+{+{+{+{+{+{+{+{+{+{+{+{+{+{+{+{+{+{+{+{+{+{+{+{+{+{+{+{+{+{+{+{+{+{+{+{+{+{+{+{+{+{+{+{+{+{+{+{+{+{+{+{+{+{+{+{+{+{+{+{+{+{+{+{+{+{+{+{+{+{+{+{+{+{+{+{+{+{+{+{+s . . ",
". . # {+{+{+{+{+{+{+{+{+{+{+{+{+{+{+{+{+{+{+{+{+{+{+{+{+{+{+{+{+{+{+{+{+{+{+{+{+{+{+{+{+{+{+{+{+{+{+{+{+{+{+{+{+{+{+{+{+{+{+{+{+{+{+{+{+{+{+{+{+{+{+{+{+{+{+{+{+{+{+{+{+{+{+{+{+{+{+{+{+Q . . ",
". . -.]+]+]+]+]+]+]+]+]+]+]+]+]+]+]+]+]+]+]+]+]+]+]+]+]+]+]+]+]+]+]+]+]+]+]+]+]+]+]+]+]+]+]+]+]+]+]+]+]+]+]+]+]+]+]+]+]+]+]+]+]+]+]+]+]+]+]+]+]+]+]+]+]+]+]+]+]+]+]+]+]+]+]+]+]+]+]+]+]+y.. . ",
". .   ) ^+^+^+^+^+^+^+^+^+^+^+^+^+^+^+^+^+^+^+^+^+^+^+^+^+^+^+^+^+^+^+^+^+^+^+^+^+^+^+^+^+^+^+^+^+^+^+^+^+^+^+^+^+^+^+^+^+^+^+^+^+^+^+^+^+^+^+^+^+^+^+^+^+^+^+^+^+^+^+^+^+^+^+^+^+^+^+p.w.. . ",
". . . {./+(+(+(+(+(+(+(+(+(+(+(+(+(+(+(+(+(+(+(+(+(+(+(+(+(+(+(+(+(+(+(+(+(+(+(+(+(+(+(+(+(+(+(+(+(+(+(+(+(+(+(+(+(+(+(+(+(+(+(+(+(+(+(+(+(+(+(+(+(+(+(+(+(+(+(+(+(+(+(+(+(+(+(+(+(+(+2 . . . ",
". . .   Z._+_+_+_+_+_+_+_+_+_+_+_+_+_+_+_+_+_+_+_+_+_+_+_+_+_+_+_+_+_+_+_+_+_+_+_+_+_+_+_+_+_+_+_+_+_+_+_+_+_+_+_+_+_+_+_+_+_+_+_+_+_+_+_+_+_+_+_+_+_+_+_+_+_+_+_+_+_+_+_+_+_+_+_+_+C.  . . . ",
". . . .   P.R _+_+_+_+_+_+_+_+_+_+_+_+_+_+_+_+_+_+_+_+_+_+_+_+_+_+_+_+_+_+_+_+_+_+_+_+_+_+_+_+_+_+_+_+_+_+_+_+_+_+_+_+_+_+_+_+_+_+_+_+_+_+_+_+_+_+_+_+_+_+_+_+_+_+_+_+_+_+_+_+_+O.j.  . . . . ",
". . . . . . + % ~ :+:+:+:+:+:+:+:+:+:+:+:+:+:+:+:+:+:+:+:+:+:+:+:+:+:+:+:+:+:+:+:+:+:+:+:+:+:+:+:+:+:+:+:+:+:+:+:+:+:+:+:+:+:+:+:+:+:+:+:+:+:+:+:+:+:+:+:+:+:+:+:+:+:+:+:+:+1.o w.. . . . . . ",
". . . . . . . . . . . . . . . . . . . . . . . . . . . . . . . . . . . . . . . . . . . . . . . . . . . . . . . . . . . . . . . . . . . . . . . . . . . . . . . . . . . . . . . . . . . . . . . ",
". . . . . . . . . . . . . . . . . . . . . . . . . . . . . . . . . . . . . . . . . . . . . . . . . . . . . . . . . . . . . . . . . . . . . . . . . . . . . . . . . . . . . . . . . . . . . . . "};
