/* XPM */
static char * wwbn_xpm[] = {
"71 71 244 2",
"  	c None",
". 	c #FFFFFF",
"+ 	c #FEFEFE",
"@ 	c #EEEEEE",
"# 	c #A4A4A4",
"$ 	c #CCCCCC",
"% 	c #8F8F8F",
"& 	c #797979",
"* 	c #E5E5E5",
"= 	c #9C9C9C",
"- 	c #010101",
"; 	c #383838",
"> 	c #B9B9B9",
", 	c #1C1C1C",
"' 	c #000000",
") 	c #7C7C7C",
"! 	c #828282",
"~ 	c #3C3C3C",
"{ 	c #8C8C8C",
"] 	c #272727",
"^ 	c #D6D6D6",
"/ 	c #868686",
"( 	c #5D5D5D",
"_ 	c #F0F0F0",
": 	c #F9F9F9",
"< 	c #555555",
"[ 	c #979797",
"} 	c #8B8B8B",
"| 	c #E8E8E8",
"1 	c #2D2D2D",
"2 	c #C7C7C7",
"3 	c #B0B0B0",
"4 	c #040404",
"5 	c #2C2C2C",
"6 	c #A6A6A6",
"7 	c #9E9E9E",
"8 	c #161616",
"9 	c #535353",
"0 	c #CDCDCD",
"a 	c #C8C8C8",
"b 	c #0D0D0D",
"c 	c #0F0F0F",
"d 	c #585858",
"e 	c #646464",
"f 	c #484848",
"g 	c #050505",
"h 	c #404040",
"i 	c #A9A9A9",
"j 	c #E0E0E0",
"k 	c #DADADA",
"l 	c #C1C1C1",
"m 	c #DEDEDE",
"n 	c #F7F7F7",
"o 	c #DBDBDB",
"p 	c #1B1B1B",
"q 	c #3F3F3F",
"r 	c #AAAAAA",
"s 	c #FBFBFB",
"t 	c #FCFCFC",
"u 	c #E9E9E9",
"v 	c #B4B4B4",
"w 	c #151515",
"x 	c #0C0C0C",
"y 	c #212121",
"z 	c #080808",
"A 	c #111111",
"B 	c #202020",
"C 	c #737373",
"D 	c #F4F4F4",
"E 	c #5C5C5C",
"F 	c #BABABA",
"G 	c #D8D8D8",
"H 	c #8D8D8D",
"I 	c #929292",
"J 	c #7E7E7E",
"K 	c #565656",
"L 	c #252525",
"M 	c #090909",
"N 	c #373737",
"O 	c #D5D5D5",
"P 	c #EFEFEF",
"Q 	c #6B6B6B",
"R 	c #6D6D6D",
"S 	c #616161",
"T 	c #1D1D1D",
"U 	c #6F6F6F",
"V 	c #4C4C4C",
"W 	c #343434",
"X 	c #E3E3E3",
"Y 	c #F6F6F6",
"Z 	c #E1E1E1",
"` 	c #B6B6B6",
" .	c #363636",
"..	c #7D7D7D",
"+.	c #C0C0C0",
"@.	c #131313",
"#.	c #3E3E3E",
"$.	c #454545",
"%.	c #464646",
"&.	c #727272",
"*.	c #D9D9D9",
"=.	c #ECECEC",
"-.	c #ACACAC",
";.	c #5E5E5E",
">.	c #101010",
",.	c #030303",
"'.	c #777777",
").	c #A5A5A5",
"!.	c #EBEBEB",
"~.	c #B3B3B3",
"{.	c #575757",
"].	c #020202",
"^.	c #9B9B9B",
"/.	c #353535",
"(.	c #060606",
"_.	c #434343",
":.	c #9A9A9A",
"<.	c #F1F1F1",
"[.	c #F3F3F3",
"}.	c #919191",
"|.	c #2A2A2A",
"1.	c #313131",
"2.	c #6A6A6A",
"3.	c #E4E4E4",
"4.	c #0B0B0B",
"5.	c #B5B5B5",
"6.	c #BBBBBB",
"7.	c #4D4D4D",
"8.	c #2F2F2F",
"9.	c #7B7B7B",
"0.	c #CFCFCF",
"a.	c #FDFDFD",
"b.	c #5F5F5F",
"c.	c #292929",
"d.	c #545454",
"e.	c #171717",
"f.	c #626262",
"g.	c #DFDFDF",
"h.	c #606060",
"i.	c #0E0E0E",
"j.	c #888888",
"k.	c #E7E7E7",
"l.	c #D1D1D1",
"m.	c #878787",
"n.	c #959595",
"o.	c #636363",
"p.	c #CBCBCB",
"q.	c #757575",
"r.	c #D3D3D3",
"s.	c #A8A8A8",
"t.	c #848484",
"u.	c #898989",
"v.	c #262626",
"w.	c #656565",
"x.	c #A3A3A3",
"y.	c #707070",
"z.	c #505050",
"A.	c #181818",
"B.	c #B7B7B7",
"C.	c #8E8E8E",
"D.	c #747474",
"E.	c #D4D4D4",
"F.	c #696969",
"G.	c #BCBCBC",
"H.	c #222222",
"I.	c #0A0A0A",
"J.	c #7A7A7A",
"K.	c #121212",
"L.	c #D2D2D2",
"M.	c #242424",
"N.	c #303030",
"O.	c #CACACA",
"P.	c #F2F2F2",
"Q.	c #595959",
"R.	c #8A8A8A",
"S.	c #6E6E6E",
"T.	c #5B5B5B",
"U.	c #CECECE",
"V.	c #666666",
"W.	c #1A1A1A",
"X.	c #A1A1A1",
"Y.	c #141414",
"Z.	c #070707",
"`.	c #949494",
" +	c #4B4B4B",
".+	c #424242",
"++	c #D0D0D0",
"@+	c #7F7F7F",
"#+	c #414141",
"$+	c #C5C5C5",
"%+	c #818181",
"&+	c #858585",
"*+	c #1F1F1F",
"=+	c #B2B2B2",
"-+	c #FAFAFA",
";+	c #A7A7A7",
">+	c #ADADAD",
",+	c #4A4A4A",
"'+	c #ABABAB",
")+	c #A2A2A2",
"!+	c #9F9F9F",
"~+	c #BFBFBF",
"{+	c #9D9D9D",
"]+	c #717171",
"^+	c #B1B1B1",
"/+	c #939393",
"(+	c #B8B8B8",
"_+	c #AEAEAE",
":+	c #3D3D3D",
"<+	c #E6E6E6",
"[+	c #BDBDBD",
"}+	c #282828",
"|+	c #E2E2E2",
"1+	c #F8F8F8",
"2+	c #989898",
"3+	c #808080",
"4+	c #4F4F4F",
"5+	c #C3C3C3",
"6+	c #444444",
"7+	c #BEBEBE",
"8+	c #EAEAEA",
"9+	c #525252",
"0+	c #3B3B3B",
"a+	c #838383",
"b+	c #6C6C6C",
"c+	c #333333",
"d+	c #393939",
"e+	c #787878",
"f+	c #F5F5F5",
"g+	c #5A5A5A",
"h+	c #A0A0A0",
"i+	c #2E2E2E",
"j+	c #C2C2C2",
"k+	c #515151",
"l+	c #676767",
"m+	c #191919",
"n+	c #474747",
"o+	c #909090",
"p+	c #C4C4C4",
"q+	c #1E1E1E",
"r+	c #3A3A3A",
"s+	c #D7D7D7",
"t+	c #2B2B2B",
"u+	c #C6C6C6",
". . . . . . . . . . . . . . . . . . . . . . . . . . . . . . . . . . . . . . . . . . . . . . . . . . . . . . . . . . . . . . . . . . . . . . . ",
". . . . . . . . . . . . . . . . . . . . . . . . . . . . . . . . . . . . . . . . . . . . . . . . . . . . . . . . . . . . . . . . . . . . . . . ",
". . . . . . . . . . . . . . . . . . . . . . . . . . . . . . . . . . . . . . . . . . . . . . . . . . . . . . . . . . . . . . . . . . . . . . . ",
". . . . . . . . . . . . . . . . . . . . . . . . . . . . . . . . . . . . . . . . . . . . . . . . . . . . . . . . . . . . . . . . . . . . . . . ",
". . . . . . . . . . . . . . . . . . . . . . . . . . . . . . . . . . . . . . . . . . . . . . . . . . . . . . . . . . . . . . . . . . . . . . . ",
". . . . . . . . . . . . . . . . . . . . . . . . . . . . . . . . . . . . . . . . . . . . . . . . . . . . . . . . . . . . . . . . . . . . . . . ",
". . . . . . . . . . . . . . . . . . . . . . . . . . . . . + . . . . . . . . . . . . . . . . . . . . . . . . . . . . . . . . . . . . . . . . . ",
". . . . . . . . . . . . . . . . . . . @ # $ . . . . . . % & * . . . . . . . . . . . . . . . . . . . . . . . . . . . . . . . . . . . . . . . . ",
". . . . . . . . . . . . . . . . . . . = - ; > . . . . $ , ' ) + . . . . . . . . . . . . . . . . . . . . . . . . . . . . . . . . . . . . . . . ",
". . . . . . . . . . . . . . . . . . . ! ' ' ~ $ . . . { ' ' ] ^ . . . . . . . . . . . . . . . . . . . . . . . . . . . . . . . . . . . . . . . ",
". . . . . . . . . . . . . . . . . . . / ' ' ' ( _ . : < ' ' ' / . . . . . . . . . . . . . . . . . . . . . . . . . . . . . . . . . . . . . . . ",
". . . . . . . . . . . . . . . . . . . [ - ' ' - } . | 1 ' ' ' 1 2 . . . . . . . . . . . . . . . . . . . . . . . . . . . . . . . . . . . . . . ",
". . . . . . . . . . . . . . . . . . . 3 4 ' ' ' 5 6 7 8 ' ' ' ' 9 0 . . . . . . . . . . . . . . . . . . . . . . . . . . . . . . . . . . . . . ",
". . . . . . . . . . . . . . . . . . . a b ' c d e 9 f g ' ' ' ' ' h i j k a l 0 m n . . . . . . . . . . . . . . . . . . . . . . . . . . . . . ",
". . . . . . . . . . . . . . . . . . . o p q r s t u v w ' ' ' ' ' ' x y p c z A B C D . . . . . . . . . . . . . . . . . . . . . . . . . . . . ",
". . . . . . . . . . . . . . . . . . . v E F G . H I J ' ' ' ' ' ' z K f L M ' ' ' N O P : . . . . . . . . . . . . . . . . . . . . . . . . . . ",
". . . . . . . . . . . . . . . . . . : Q i R S l T U V ' ' ' ' ' ' W X Y Z ` ) ~ M ' y  .< ..r o . . . . . . . . . . . . . . . . . . . . . . . ",
". . . . . . . . . . . . . . . . . . +.@.#.' y $.' T - ' ' ' ' ' ' z %.&.# *.: =.-.;.>.' ' ' ,.W 2 . . . . . . . . . . . . . . . . . . . . . . ",
". . . . . . . . . . . . . . . . . + '.' ' ' ' ' ' ' ' ' ' ' ' ' ' ' ' ' 4 B ( ).!.: ~.{.].'  .^.s . . . . . . . . . . . . . . . . . . . . . . ",
". . . . . . . . . . . . . . . . . u /.' ' ' ' ' ' ' ' ' ' ' ' ' ' ' ' ' ' ' ' (._.:.<.[.}.|.>.1.2.i 3.. . . . . . . . . . . . . . . . . . . . ",
". . . . . . . . . . . . . . . . . F 4.' ' ' ' ' ' ' ' ' ' ' ' ' ' ' ' ' ' ' ' ' ' ,.9 5.. 6.7.' ' g 8.9.0.. . . . . . . . . . . . . . . . . . ",
". . . . . . . . . . . . . . . . . / ' ' ' ' ' ' ' ' ' ' ' ' ' ' ' ' ' 8 %.' ' ' ' ' ' B } a.o b.' ' ' ' c.F . . . . . . . . . . . . . . . . . ",
". . . . . . . . . . . . . . . . : d.' ' ' ' ' 4.e.8 ].' ' ' ' ' ' ' ' f.[.< ' ' ' ' ' ' ' &.* g.h.' i.< j.g.. . . . . . . . . . . . . . . . . ",
". . . . . . . . . . . . . . . . k.5 ' ' ' #./ 6.l.l.m.M ' ' ' ' ' ' ' d s n.- ' ' ' ' ' ' ' S j g.b.g o.p.. . . . . . . . . . . . . . . . . . ",
". . . . . . . . . . . . . . . . i i.' ' q.r.s.U ( t.u.A ' ' ' ' ' ' ' v.o l x ' ' ' ' ' ' ' ' w.<.O %.' /.x.. . . . . . . . . . . . . . . . . ",
". . . . . . . . . . . . . . . o _.' ' y.o f.< 9.z.' (.' ' ' ' ' ' ' ' ,.7 ^ A.' ' ' ' ' ' ' ' ' ..+ B.v.' 8 C.a.. . . . . . . . . . . . . . . ",
". . . . . . . . . . . . . . a.D.' ' ~ E.F.'.[.. G.A ' ' ' ' ' ' ' ' ' ' y.Z H.' ' ' ' ' ' ' ' ' I.^.. C.- ' 4 J.t . . . . . . . . . . . . . . ",
". . . . . . . . . . . . . . ~.w ' ' C.v K.) L.0.'.' ' ' ' ' ' ' ' ' ' ' {.g.M.' 1.' ' ' ' ' ' ' ' N.O.P.Q.' ' - R.. . . . . . . . . . . . . . ",
". . . . . . . . . . . . . P.K ' ' A a S.' ,.8 8 ' ' ' ' ' ' ' ' ' ' ' ' T.U.8 f.O L ' ' ' ' ' ' ' ' V.: 6.W.' ' T p.. . . . . . . . . . . . . ",
". . . . . . . . . . . . . X.(.' ' ' V Y.' ' ' ' ' ' ' ' ' ' ' ' ' ' ' ' ..# (.= O p ' ' ' ' ' ' ' ' I.).+ D.A.e j.| . . . . . . . . . . . . . ",
". . . . . . . . . . . . _ 7.' ' ' ' ' ' ' ' ' ' ' ' ' ' ' ' ' ' ' ' ' Z.3 F.8 U.`.].@. +' ' ' ' ' ' '  +@ p.N H . . . . . . . . . . . . . . . ",
". . . . . . . . . . . . ^.g ' ' ' ' ' ' ' ' ' ' ' ' ' ' ' ' ' ' ' ' ' #.l v.E j .+' S.++8 ' ' ' ' ' ' g 7 + q.4 @+. . . . . . . . . . . . . . ",
". . . . . . . . . . . X #+' ' ' ' ' ' ' ' ' ' ' ' ' ' ' ' ' ' ' ' ' ].n.t.A.v j.' x 5.i Z.' ' ' ' ' ' ' 7.P.$+A.- ! . . . . . . . . . . . . . ",
". . . . . . . . . . . %+' ' ' ' ' ' ' ' ' ' ' ' ' ' ' ' ' ' ' ' ' ' b.6.|.&+3 *+' d P h.' ' ' ' ' ' ' ' 4.=+-+;.' b [ . . . . . . . . . . . . ",
". . . . . . . . . . v T ' ' ' ' ' ' ' ' ' ' ' ' ' ' ' ' ' ' ' ' ' 4 Q.f.%+6.~ ' M.` # b ' ' ' ' ' ' ' ' ' F.t ;+(.' *+>+. . . . . . . . . . . ",
". . . . . . . . . j ,+' ' ' ' ' ' ' ' ' ' ' ' ' ' ' ' ' ' ' ' ' ' ' N.'+)+1.' L !+~+N ' ' ' ' ' ' ' ' ' ' L o * N.' ' .+Z . . . . . . . . . . ",
". . . . . . . . t y.' ' ' ' ' ' ' ' ' ' ' ' ' ' ' ' ' ' ' ' ' ' ' ' /.e A A d ` 3 #.' ' ' ' ' ' ' ' ' ' ' ,.{++ ]+L %.|.^+. . . . . . . . . . ",
". . . . . . . . I (.' ' ' ' ' ' ' ' ' ' ' ' ' ' ' ' ' ' ' ' ' ' ' ' ] U /+(+B.U w ' ' ' ' ' ' ' ' ' ' ' ' ' b.s _+:+^+<+D . . . . . . . . . . ",
". . . . . . . [+M.' ' ' ' ' ' ' ' ' ' ' ' ' ' ' ' ' ' ' ' ].}+]+|.' N J S._.Y.' ' ' ' ' ' ' ' ' ' ' ' ' ' ' ] Z |+}+/.G.. . . . . . . . . . . ",
". . . . . . 1+b.' Z.' ' ' ' ' ' ' ' ' ' ' ' ' ' ' ' , #.e 2+*.* }+' ' ' ' ' ' ' ' ' ' ' ' ' ' ' ' ' ' ' ' ' z v -+E ' %.r.. . . . . . . . . . ",
". . . . . . ++A.:+9.A ' ' ' ' ' ' ' ' ' ' ' ' ' ' 8 ;+P.t . . +.b ' ' ' ' ' ' ' ' ' ' ' ' ' ' ' ' ' ' ' ' ' ' 3+. }.' ' T.!.. . . . . . . . . ",
". . . . . . ).(.n.* ; ' ' ' ' ' ' ' ' ' ' ' ' ' T [ . . . . . &+' ' ' ' ' ' ' ' ' ' ' ' ' ' ' ' ' ' ' ' ' ' ' 4+n 5+c ' ' @+. . . . . . . . . ",
". . . . . . &+I.B.. 3 8.' ' ' ' ' ' ' ' ' ' ' f ^+. . . . . <.6+' ' ' ' ' ' ' ' ' ' ' ' ' ' ' ' ' ' ' ' ' ' ' v.|+* c.I.' A.7+. . . . . . . . ",
". . . . . . &.' q.P 8+7.' 9+w.W.' ' ' ' ' ' y.m . . . . . . 3 x ' ' ' ' ' ' ' ' ' ' ' ' ' ' ' ' ' ' ' ' ' ' ' c $+1+4+0+a+$.= . . . . . . . . ",
". . . . . + b+' ' c+1.' d+X . %+' ' ' ' ' e+1+. . . . . . f+Q.' ' ' ' ' ' ' ' ' ' ' ' ' ' ' ' ' ' ' ' ' ' ' ' ,.X.. e+z 2+P.<.. . . . . . . . ",
". . . . . a.@+' ' ' ' ' g+a.. ) ' ' ' ' o.Y . . . . . . . 2+Z.' ' ' ' ' ' ' ' ' ' ' ' ' ' ' ' ' ' ' ' ' ' ' ' ' 9.. h+,.8.$ . . . . . . . . . ",
". . . . . . r 4 ' ' ' ' 0+o G c.' ' ' , 5+. . . . . . . 5+i+' ' ' ' ' ' ' ' ' ' ' ' ' ' ' ' ' ' ' ' ' ' ' ' ' ' {.s j+x ' 2.t . . . . . . . . ",
". . . . . . * #+' ' ' ' ' %.k+' ' ' ' l+t . . . . . . o 4+' ' ' ' ' ' ' ' ' ' ' ' ' ' ' ' ' ' ' ' ' ' ' ' ' ' ' 0+<.o , ' Y.> . . . . . . . . ",
". . . . . . . ;+m+' ' ' ' ' ' ' ' ' 4.^+. . . . . . [.V.' ' ' ' ' ' ' ' ' ' ' ' ' ' ' ' ' ' ' ' ' ' ' ' ' ' ' ' ] 3.=.N.' ' l+t . . . . . . . ",
". . . . . . . . ;+:+' ' ' ' ' ' ' ' < [.. . . . . a.J.' ' ' ' ' ' ' ' ' ' ' ' ' ' ' ' ' ' ' ' ' ' ' ' ' ' ' ' ' A.O Y n+Y.8 L m . . . . . . . ",
". . . . . . . . . m } ; ' ' ' ' ' M.(+. . . . . . o+4 ' ' ' ' ' ' ' ' ' ' ' ' ' ' ' ' ' ' ' ' ' ' ' ' ' ' ' ' ' x p+t b.:+X./+k.. . . . . . . ",
". . . . . . . . . . . 0 Q.i.,.4 /.h+. . . . . . i , ' ' ' ' ' ' ' ' ' ' ' ' ' ' ' ' ' ' ' ' ' ' ' ' ' ' ' ' ' ' g ~.. '.' e+a.. . . . . . . . ",
". . . . . . . . . . . . <.$+-.=+m . . . . . . 0.~ ' ' ' ' ' ' ' ' ' ' ' ' ' ' ' ' ' ' ' ' ' ' ' ' ' ' ' ' ' ' ' ].X.. } ' 8 ` . . . . . . . . ",
". . . . . . . . . . . . . . . . . . . . . . s l+' ' ' ' ' ' ' ' ' ' ' ' ' ' ' ' ' ' ' ' ' ' ' ' ' ' ' ' ' ' ' ' ' o+. h+,.' T.f+. . . . . . . ",
". . . . . . . . . . . . . . . . . . . . . . r x ' ' ' ' ' ' ' ' ' ' ' ' ' ' ' ' ' ' ' ' ' ' ' ' ' ' ' ' ' ' ' ' ' %+. 3 4 ' I.'+. . . . . . . ",
". . . . . . . . . . . . . . . . . . . . . P.k+' ' ' ' ' ' ' ' ' ' ' ' ' ' ' ' ' ' ' ' ' ' ' ' ' ' ' ' ' ' ' ' ' ' C . 7+4.].' b.: . . . . . . ",
". . . . . . . . . . . . . . . . . . . . . v b ' ' ' ' ' ' ' ' ' ' ' ' ' ' ' ' ' ' ' ' ' ' ' ' ' ' ' ' ' ' ' ' ' ' 2.+ $+q+Q.;.d * . . . . . . ",
". . . . . . . . . . . . . . . . . . . . . &.' ' ' ' ' ' ' ' ' ' ' ' ' ' ' ' ' ' ' ' ' ' ' ' ' ' ' ' ' ' ' ' ' ' ' S a.U.@.K @ 8+. . . . . . . ",
". . . . . . . . . . . . . . . . . . . . @ r+' ' ' ' ' ' ' ' ' ' ' ' ' ' ' ' ' ' ' ' ' ' ' ' ' ' ' ' ' ' ' ' ' ' ' d s E.8 (.).. . . . . . . . ",
". . . . . . . . . . . . . . . . . . . . *.p ' ' ' ' ' ' ' ' ' ' ' ' ' ' ' ' ' ' ' ' ' ' ' ' ' ' ' ' ' ' ' ' ' ' ' 9 -+s+A.' d n . . . . . . . ",
". . . . . . . . . . . . . . . . . . . . p+x ' ' ' ' ' ' ' ' ' ' ' ' ' ' ' ' ' ' ' ' ' ' ' ' ' ' ' ' ' ' ' ' ' ' ' 9+-+*.W.' , k . . . . . . . ",
". . . . . . . . . . . . . . . . . . . . +.t+H.H.H.H.H.H.H.H.H.H.H.H.H.H.H.H.H.H.H.H.H.H.H.H.H.H.H.H.H.H.H.H.H.H.H.U -+k :+H.1 u+. . . . . . . ",
". . . . . . . . . . . . . . . . . . . . t X X X X X X X X X X X X X X X X X X X X X X X X X X X X X X X X X X X X k.a.a.X X X t . . . . . . . ",
". . . . . . . . . . . . . . . . . . . . . . . . . . . . . . . . . . . . . . . . . . . . . . . . . . . . . . . . . . . . . . . . . . . . . . . ",
". . . . . . . . . . . . . . . . . . . . . . . . . . . . . . . . . . . . . . . . . . . . . . . . . . . . . . . . . . . . . . . . . . . . . . . ",
". . . . . . . . . . . . . . . . . . . . . . . . . . . . . . . . . . . . . . . . . . . . . . . . . . . . . . . . . . . . . . . . . . . . . . . ",
". . . . . . . . . . . . . . . . . . . . . . . . . . . . . . . . . . . . . . . . . . . . . . . . . . . . . . . . . . . . . . . . . . . . . . . ",
". . . . . . . . . . . . . . . . . . . . . . . . . . . . . . . . . . . . . . . . . . . . . . . . . . . . . . . . . . . . . . . . . . . . . . . ",
". . . . . . . . . . . . . . . . . . . . . . . . . . . . . . . . . . . . . . . . . . . . . . . . . . . . . . . . . . . . . . . . . . . . . . . ",
". . . . . . . . . . . . . . . . . . . . . . . . . . . . . . . . . . . . . . . . . . . . . . . . . . . . . . . . . . . . . . . . . . . . . . . ",
". . . . . . . . . . . . . . . . . . . . . . . . . . . . . . . . . . . . . . . . . . . . . . . . . . . . . . . . . . . . . . . . . . . . . . . "};
