/* XPM */
static char * nwbq_xpm[] = {
"71 71 251 2",
"  	c None",
". 	c #FFFFFF",
"+ 	c #F1F1F1",
"@ 	c #F2F2F2",
"# 	c #E6E6E6",
"$ 	c #818181",
"% 	c #414141",
"& 	c #444444",
"* 	c #868686",
"= 	c #E9E9E9",
"- 	c #636363",
"; 	c #000000",
"> 	c #686868",
", 	c #F7F7F7",
"' 	c #B5B5B5",
") 	c #080808",
"! 	c #0C0C0C",
"~ 	c #BEBEBE",
"{ 	c #979797",
"] 	c #010101",
"^ 	c #A4A4A4",
"/ 	c #ADADAD",
"( 	c #040404",
"_ 	c #B8B8B8",
": 	c #EAEAEA",
"< 	c #5A5A5A",
"[ 	c #616161",
"} 	c #F0F0F0",
"| 	c #EEEEEE",
"1 	c #DFDFDF",
"2 	c #737373",
"3 	c #060606",
"4 	c #777777",
"5 	c #E5E5E5",
"6 	c #EFEFEF",
"7 	c #919191",
"8 	c #424242",
"9 	c #383838",
"0 	c #7C7C7C",
"a 	c #F8F8F8",
"b 	c #464646",
"c 	c #515151",
"d 	c #FAFAFA",
"e 	c #E1E1E1",
"f 	c #797979",
"g 	c #363636",
"h 	c #9A9A9A",
"i 	c #AFAFAF",
"j 	c #0E0E0E",
"k 	c #787878",
"l 	c #505050",
"m 	c #5D5D5D",
"n 	c #FCFCFC",
"o 	c #707070",
"p 	c #1A1A1A",
"q 	c #B9B9B9",
"r 	c #FDFDFD",
"s 	c #353535",
"t 	c #ECECEC",
"u 	c #3B3B3B",
"v 	c #F6F6F6",
"w 	c #2B2B2B",
"x 	c #808080",
"y 	c #DEDEDE",
"z 	c #1F1F1F",
"A 	c #262626",
"B 	c #E4E4E4",
"C 	c #858585",
"D 	c #BBBBBB",
"E 	c #8F8F8F",
"F 	c #0B0B0B",
"G 	c #0F0F0F",
"H 	c #C4C4C4",
"I 	c #898989",
"J 	c #323232",
"K 	c #C6C6C6",
"L 	c #B6B6B6",
"M 	c #030303",
"N 	c #9B9B9B",
"O 	c #6A6A6A",
"P 	c #4B4B4B",
"Q 	c #C1C1C1",
"R 	c #C9C9C9",
"S 	c #E7E7E7",
"T 	c #A0A0A0",
"U 	c #A5A5A5",
"V 	c #6F6F6F",
"W 	c #999999",
"X 	c #ABABAB",
"Y 	c #CACACA",
"Z 	c #DBDBDB",
"` 	c #5B5B5B",
" .	c #0D0D0D",
"..	c #484848",
"+.	c #C5C5C5",
"@.	c #3A3A3A",
"#.	c #454545",
"$.	c #F4F4F4",
"%.	c #757575",
"&.	c #151515",
"*.	c #D2D2D2",
"=.	c #BFBFBF",
"-.	c #838383",
";.	c #666666",
">.	c #C8C8C8",
",.	c #E8E8E8",
"'.	c #D7D7D7",
").	c #1B1B1B",
"!.	c #232323",
"~.	c #E0E0E0",
"{.	c #313131",
"].	c #161616",
"^.	c #D3D3D3",
"/.	c #5F5F5F",
"(.	c #8D8D8D",
"_.	c #5C5C5C",
":.	c #B4B4B4",
"<.	c #969696",
"[.	c #020202",
"}.	c #303030",
"|.	c #595959",
"1.	c #535353",
"2.	c #F5F5F5",
"3.	c #888888",
"4.	c #959595",
"5.	c #474747",
"6.	c #4E4E4E",
"7.	c #8B8B8B",
"8.	c #D5D5D5",
"9.	c #4C4C4C",
"0.	c #7E7E7E",
"a.	c #101010",
"b.	c #FBFBFB",
"c.	c #696969",
"d.	c #ACACAC",
"e.	c #090909",
"f.	c #717171",
"g.	c #050505",
"h.	c #6B6B6B",
"i.	c #5E5E5E",
"j.	c #343434",
"k.	c #3D3D3D",
"l.	c #F9F9F9",
"m.	c #6E6E6E",
"n.	c #EBEBEB",
"o.	c #939393",
"p.	c #1E1E1E",
"q.	c #CCCCCC",
"r.	c #181818",
"s.	c #DCDCDC",
"t.	c #171717",
"u.	c #B2B2B2",
"v.	c #7F7F7F",
"w.	c #0A0A0A",
"x.	c #747474",
"y.	c #D1D1D1",
"z.	c #D4D4D4",
"A.	c #E2E2E2",
"B.	c #828282",
"C.	c #D9D9D9",
"D.	c #282828",
"E.	c #CDCDCD",
"F.	c #3C3C3C",
"G.	c #242424",
"H.	c #656565",
"I.	c #555555",
"J.	c #8C8C8C",
"K.	c #A1A1A1",
"L.	c #494949",
"M.	c #2E2E2E",
"N.	c #3F3F3F",
"O.	c #7D7D7D",
"P.	c #E3E3E3",
"Q.	c #2D2D2D",
"R.	c #A7A7A7",
"S.	c #CECECE",
"T.	c #141414",
"U.	c #D6D6D6",
"V.	c #A3A3A3",
"W.	c #070707",
"X.	c #373737",
"Y.	c #727272",
"Z.	c #393939",
"`.	c #545454",
" +	c #C0C0C0",
".+	c #7B7B7B",
"++	c #B7B7B7",
"@+	c #767676",
"#+	c #AEAEAE",
"$+	c #131313",
"%+	c #C2C2C2",
"&+	c #A8A8A8",
"*+	c #2A2A2A",
"=+	c #333333",
"-+	c #949494",
";+	c #9F9F9F",
">+	c #929292",
",+	c #191919",
"'+	c #222222",
")+	c #575757",
"!+	c #9D9D9D",
"~+	c #292929",
"{+	c #404040",
"]+	c #4F4F4F",
"^+	c #7A7A7A",
"/+	c #212121",
"(+	c #434343",
"_+	c #CFCFCF",
":+	c #6C6C6C",
"<+	c #1C1C1C",
"[+	c #FEFEFE",
"}+	c #F3F3F3",
"|+	c #BCBCBC",
"1+	c #CBCBCB",
"2+	c #D0D0D0",
"3+	c #BDBDBD",
"4+	c #AAAAAA",
"5+	c #989898",
"6+	c #878787",
"7+	c #6D6D6D",
"8+	c #3E3E3E",
"9+	c #252525",
"0+	c #EDEDED",
"a+	c #2C2C2C",
"b+	c #D8D8D8",
"c+	c #A2A2A2",
"d+	c #8E8E8E",
"e+	c #4A4A4A",
"f+	c #646464",
"g+	c #111111",
"h+	c #272727",
"i+	c #9C9C9C",
"j+	c #9E9E9E",
"k+	c #DADADA",
"l+	c #606060",
"m+	c #C7C7C7",
"n+	c #1D1D1D",
"o+	c #909090",
"p+	c #A9A9A9",
"q+	c #C3C3C3",
"r+	c #4D4D4D",
"s+	c #A6A6A6",
"t+	c #8A8A8A",
"u+	c #2F2F2F",
"v+	c #BABABA",
"w+	c #202020",
"x+	c #585858",
"y+	c #121212",
"z+	c #848484",
"A+	c #565656",
"B+	c #B3B3B3",
". . . . . . . . . . . . . . . . . . . . . . . . . . . . . . . . . . . . . . . . . . . . . . . . . . . . . . . . . . . . . . . . . . . . . . . ",
". . . . . . . . . . . . . . . . . . . . . . . . . . . . . . . . . . . . . . . . . . . . . . . . . . . . . . . . . . . . . . . . . . . . . . . ",
". . . . . . . . . . . . . . . . . . . . . . . . . . . . . . . . . . . . . . . . . . . . . . . . . . . . . . . . . . . . . . . . . . . . . . . ",
". . . . . . . . . . . . . . . . . . . . . . . . . . . . . . . . . . . . . . . . . . . . . . . . . . . . . . . . . . . . . . . . . . . . . . . ",
". . . . . . . . . . . . . . . . . . . . . . . . . . . . . . . . . . . . . . . . . . . . . . . . . . . . . . . . . . . . . . . . . . . . . . . ",
". . . . . . . . . . . . . . . . . . . . . . . . . . . . . . . . . . . . . . . . . . . . . . . . . . . . . . . . . . . . . . . . . . . . . . . ",
". . . . . . . . . . . . . . . . . . . . . . . . . . . . . . . . . . . . . . . . . . . . . . . . . . . . . . . . . . . . . . . . . . . . . . . ",
". . . . . . . . . . . . . . . . . . . . . . . . . . . . . . . . . . . + @ . . . . . . . . . . . . . . . . . . . . . . . . . . . . . . . . . . ",
". . . . . . . . . . . . . . . . . . . . . . . . . . . . . . . . . # $ % & * = . . . . . . . . . . . . . . . . . . . . . . . . . . . . . . . . ",
". . . . . . . . . . . . . . . . . . . . . . . . . . . . . . . . @ - ; ; ; ; > , . . . . . . . . . . . . . . . . . . . . . . . . . . . . . . . ",
". . . . . . . . . . . . . . . . . . . . . . . . . . . . . . . . ' ) ; ; ; ; ! ~ . . . . . . . . . . . . . . . . . . . . . . . . . . . . . . . ",
". . . . . . . . . . . . . . . . . . . . . . . . . . . . . . . . { ; ; ; ; ; ] ^ . . . . . . . . . . . . . . . . . . . . . . . . . . . . . . . ",
". . . . . . . . . . . . . . . . . . . . . . . . . . . . . . . . / ( ; ; ; ; ) _ . . . . . . . . . . . . . . . . . . . . . . . . . . . . . . . ",
". . . . . . . . . . . . . . . . . . . . . . . . . . . . . . . . : < ; ; ; ; [ } . . . . . . . . . . . . . . . . . . . . . . . . . . . . . . . ",
". . . . . . . . . . . . . . . . . . . . | | . . . . . . . . . . . 1 2 ; 3 4 5 . . . . . . . . . . . | 6 . . . . . . . . . . . . . . . . . . . ",
". . . . . . . . . . . . . . . . . . . 7 8 9 0 5 . . . . . . . . . . a b c d . . . . . . . . . . e f g & h . . . . . . . . . . . . . . . . . . ",
". . . . . . . . . . . . . . . . . . i j ; ; ; k . . . . . . . . . . d l m n . . . . . . . . . n o ; ; ; p q . . . . . . . . . . . . . . . . . ",
". . . . . . . . . . . . . . . . . r 2 ; ; ; ; s t . . . . . . . . . + u b v . . . . . . . . . # w ; ; ; ; x . . . . . . . . . . . . . . . . . ",
". . . . . . . . . . . . . . . . . . 4 ; ; ; ; 8 } . . . . . . . . . y z A B . . . . . . . . . : g ; ; ; ; C . . . . . . . . . . . . . . . . . ",
". . . . . . . . . . . . . . . . . . D w ; ; ; E . . . . . . . . . . D F G H . . . . . . . . . . I ; ; ; J K . . . . . . . . . . . . . . . . . ",
". . . . . . . . . . . . . . . . . . . L % ; o . . . . . . . . . . . E ; M N . . . . . . . . . . . O ; P Q . . . . . . . . . . . . . . . . . . ",
". . . . . } R K S . . . . . . . . . . . T F U . . . . . . . . . . n - ; ; V . . . . . . . . . . . W j X . . . . . . . . . . . 5 H Y @ . . . . ",
". . . . Z ` j  ...+.. . . . . . . . . . +.j $ . . . . . . . . . . 6 @.; ; #.$.. . . . . . . . . . %.&.*.. . . . . . . . . . =.b ! G [ 5 . . . ",
". . . . -.; ; ; ; ;.d . . . . . . . . . >.G u ,.. . . . . . . . . '.).; ; !.~.. . . . . . . . . ~.{.].^.. . . . . . . . . , /.; ; ; ; (.. . . ",
". . . d _.; ; ; ; u @ . . . . . . . . . >.G 3 T . . . . . . . . . :.) ; ; ! =.. . . . . . . . . <.[.].^.. . . . . . . . . : }.; ; ; ; O n . . ",
". . . . $ ; ; ; ; |.a . . . . . . . . . >.G ; 1.2.. . . . . . . . 3.; ; ; ; 4.. . . . . . . . } 5.; ].^.. . . . . . . . . 2.6.; ; ; ; 7.. . . ",
". . . . 8.9.( ; ; 0.. . . . . . . . . . >.G ; a.' . . . . . . . b._.; ; ; ; c.r . . . . . . . d.e.; ].^.. . . . . . . . . . f.; ; g.< ~.. . . ",
". . . . . 5 X h.; i.d . . . . . . . . . >.G ; ; O n . . . . . . t j.; ; ; ; k.@ . . . . . . l.i.; ; ].^.. . . . . . . . . 2.1.[.m.i n.. . . . ",
". . . . . . . + b ( o.. . . . . . . . . >.G ; ; p.q.. . . . . . ^.r.; ; ; ; z s.. . . . . . H t.; ; ].^.. . . . . . . . . I ; l v . . . . . . ",
". . . . . . . . 7.; !.u.. . . . . . . . >.G ; ; ; v.. . . . . . / 3 ; ; ; ; w.q . . . . . . x.; ; ; ].^.. . . . . . . . X p [.<.. . . . . . . ",
". . . . . . . . y.).; & z.. . . . . . . >.G ; ; ; {.A.. . . . . B.; ; ; ; ; ; (.. . . . . C.D.; ; ; ].^.. . . . . . . E.F.; G.C.. . . . . . . ",
". . . . . . . . l._.; ; H.2.. . . . . . >.G ; ; ; M <.. . . . d I.; ; ; ; ; ; [ b.. . . . J.; ; ; ; ].^.. . . . . . t _.; ; > n . . . . . . . ",
". . . . . . . . . K.g.; ; * . . . . . . >.G ; ; ; ; L.6 . . . = M.; ; ; ; ; ; 9 6 . . . : N.; ; ; ; ].^.. . . . . . O.; ; ) d.. . . . . . . . ",
". . . . . . . . . P.Q.; ; t.R.. . . . . >.G ; ; ; ; w./ . . . S.T.; ; ; ; ; ; ).U.. . . V.W.; ; ; ; ].^.. . . . . T a.; ; X.,.. . . . . . . . ",
". . . . . . . . . . Y.; ; ; Z.R . . . . >.G ; ; ; ; ; /.l.. . U g.; ; ; ; ; ; W.u.. . v `.; ; ; ; ; ].^.. . . .  +{.; ; ; .+. . . . . . . . . ",
". . . . . . . . . . ++ .; ; ; < = . . . >.G ; ; ; ; ; ].L . . @+; ; ; ; ; ; ; ; $ . . #+G ; ; ; ; ; ].^.. . . P.c ; ; ; $+%+. . . . . . . . . ",
". . . . . . . . . . | 8 ; ; ; ; .+. . . %+j ; ; ; ; ; ; #.&+T *+; ; ; ; ; ; ; ; =+V.U N.; ; ; ; ; ; $+S.. . . 2 ; ; ; ; 6.$.. . . . . . . . . ",
". . . . . . . . . . . I ; ; ; ;  .N . . -+M ; ; ; ; ; ; ; w.W.; ; ; ; ; ; ; ; ; ; ) ) ; ; ; ; ; ; ; g.;+. . (.( ; ; ; ; >+. . . . . . . . . . ",
". . . . . . . . . . . E.,+; ; ; ; t.4 7.J ; ; ; ; ; ; ; ; ; ; ; ; ; ; ; ; ; ; ; ; ; ; ; ; ; ; ; ; ; ; Z.(.f.G ; ; ; ; '+U.. . . . . . . . . . ",
". . . . . . . . . . . a )+; ; ; ; ; ; [.; ; ; ; ; ; ; ; ; ; ; ; ; ; ; ; ; ; ; ; ; ; ; ; ; ; ; ; ; ; ; ; M ; ; ; ; ; ; - b.. . . . . . . . . . ",
". . . . . . . . . . . . !+( ; ; ; ; ; ; ; ; ; ; ; ; ; ; ; ; ; ; ; ; ; ; ; ; ; ; ; ; ; ; ; ; ; ; ; ; ; ; ; ; ; ; ; ; 3 &+. . . . . . . . . . . ",
". . . . . . . . . . . . 1 ~+; ; ; ; ; ; ; ; ; ; ; ) T.'+{.{+]+_.h.o %.^+^+x.o h._.6.N.}./+$+W.; ; ; ; ; ; ; ; ; ; ; J # . . . . . . . . . . . ",
". . . . . . . . . . . . r m.; ; ; ; ; ; g.p.(+m.-+++_+e t $.d b.. . . . . . . . b.d $.t ~._+' >+:+% <+( ; ; ; ; ; ; k . . . . . . . . . . . . ",
". . . . . . . . . . . . . u.w.; ; ; p.- ^ C.$.[+. . . . . . . . [+r n n n n r [+. . . . . . . . [+}+'.T /.).; ; ; G |+. . . . . . . . . . . . ",
". . . . . . . . . . . . . ,.s ; F Y.1+n . . . n @ P.2+3+4+5+6+k 7+H./._._./.;.m.k 6+W X ~ *.B }+r . . . d K 7+[.; N.| . . . . . . . . . . . . ",
". . . . . . . . . . . . . . %.[.J.[+. . n.%+7 H.8+9+&.F M ; ; ; ; ; ; ] ] ; ; ; ; ; ; M F ].A {+> -+H 0+. . [+0.; $ . . . . . . . . . . . . . ",
". . . . . . . . . . . . . . :.a+e . Y O.9 G ; ; ; ; ; ; ; ; ; ; 3 }.c.-+>+;.Q.( ; ; ; ; ; ; ; ; ; ; a.F.B.2+. U.*+=.. . . . . . . . . . . . . ",
". . . . . . . . . . . . . . B ..b+I G.; ; ; ; ; ; ; ; ; ; ; ; 6.c+# [+. . r P.!+L.; ; ; ; ; ; ; ; ; ; ; ; ~+d+E.e+n.. . . . . . . . . . . . . ",
". . . . . . . . . . . . . . b.f+% g+e+k 3.0 7+` (+A ) ; ; ; < 6 . . . . . . . . : ]+; ; ; e.h+& _.m.O.3.@+5.T.{+7+. . . . . . . . . . . . . . ",
". . . . . . . . . . . . . . . >+].U v . . . . b.$.A.-.F ; ; J i+: . . . . . [+,.{ D.; ; a.7.B 2.b.. . . . $.N $+j+. . . . . . . . . . . . . . ",
". . . . . . . . . . . . . . . |+A C.. . . . . . . S.i.; ; ; ; 3 u O.++Z k+:.^+X.( ; ; ; ; l+^.. . . . . . . *.9+m+. . . . . . . . . . . . . . ",
". . . . . . . . . . . . . . . z.w S.. . . . . 1 7.{.; ; ; ; ; ; ; ; w.n+<+e.; ; ; ; ; ; ; ; X.o+P.. . . . . +.~+k+. . . . . . . . . . . . . . ",
". . . . . . . . . . . . . . . '.z p+. . @ q+.+}.; ; ; ; M w.g+,+!.D.a+{.{.w D.'+,+g+w.M ; ; ; ; j.x m+}+. . ;+G.y . . . . . . . . . . . . . . ",
". . . . . . . . . . . . . . . 2+$+I.i+.+(+$+3 r.{.r+m.7.s+|+E.b+A.S = 0+0+= S e b+q.D U t+:+P u+t.g.&.b O.!+6.n+Z . . . . . . . . . . . . . . ",
". . . . . . . . . . . . . . . v+w.; ( ).P v.i ^.n.a [+. . . . . . . . . . . . . . . . . . [+a : *./ O...r.( ; ].z.. . . . . . . . . . . . . . ",
". . . . . . . . . . . . . . . 4.] @.J.*.v . . . . . . . . b.2.} ,.5 A.1 1 P.5 ,.} 2.b.. . . . . . . . 2._+3.j.) X . . . . . . . . . . . . . . ",
". . . . . . . . . . . . . . l._.l U.. . . . . , P.1+/ (.f.)+(+g w A !.z w+!.A w X.& x+Y.E i q.B , . . . . . 2+..O n . . . . . . . . . . . . . ",
". . . . . . . . . . . . . . K p.V.. . , C.p+f P h+g+g.; ; ; ; ; ; ; ; ; ; ; ; ; ; ; ; ; ; g.y+~+6.0 / k+a . . { '+2+. . . . . . . . . . . . . ",
". . . . . . . . . . . . . . f ~+Z S.d+c z g.; ; ; ; ; ; ; ; ; ; ; ; ; ; ; ; ; ; ; ; ; ; ; ; ; ; ; ; 3 w+`.7 *.z./+z+. . . . . . . . . . . . . ",
". . . . . . . . . . . . . = m h+A+,+; ; ; ; ; ; ; ; ; ; ; ; ; ; ; ; ; ; ; ; ; ; ; ; ; ; ; ; ; ; ; ; ; ; ; ; <+)+9+c.| . . . . . . . . . . . . ",
". . . . . . . . . . . . . . S 4+c.~+W.; ; ; ; ; ; ; ; ; ; ; ; ; ; ; ; ; ; ; ; ; ; ; ; ; ; ; ; ; ; ; ; ; ; e.Q.:+#+= . . . . . . . . . . . . . ",
". . . . . . . . . . . . . . . . n A.#+@+% p 3 ; ; ; ; ; ; ; ; ; ; ; ; ; ; ; ; ; ; ; ; ; ; ; ; ; ; 3 n+(+^+B+B r . . . . . . . . . . . . . . . ",
". . . . . . . . . . . . . . . . . . . . + U.X x I.J <+ .( ; ; ; ; ; ; ; ; ; ; ; ; ; ; (  .n+j.)+-.i '.@ . . . . . . . . . . . . . . . . . . . ",
". . . . . . . . . . . . . . . . . . . . . . . . d 0+k+q+p+E f - 1.e+% F.F.8 e+1.H..+o+4++.Z 0+d . . . . . . . . . . . . . . . . . . . . . . . ",
". . . . . . . . . . . . . . . . . . . . . . . . . . . . . . . n d , $.}+}+$., l.n . . . . . . . . . . . . . . . . . . . . . . . . . . . . . . ",
". . . . . . . . . . . . . . . . . . . . . . . . . . . . . . . . . . . . . . . . . . . . . . . . . . . . . . . . . . . . . . . . . . . . . . . ",
". . . . . . . . . . . . . . . . . . . . . . . . . . . . . . . . . . . . . . . . . . . . . . . . . . . . . . . . . . . . . . . . . . . . . . . ",
". . . . . . . . . . . . . . . . . . . . . . . . . . . . . . . . . . . . . . . . . . . . . . . . . . . . . . . . . . . . . . . . . . . . . . . ",
". . . . . . . . . . . . . . . . . . . . . . . . . . . . . . . . . . . . . . . . . . . . . . . . . . . . . . . . . . . . . . . . . . . . . . . ",
". . . . . . . . . . . . . . . . . . . . . . . . . . . . . . . . . . . . . . . . . . . . . . . . . . . . . . . . . . . . . . . . . . . . . . . ",
". . . . . . . . . . . . . . . . . . . . . . . . . . . . . . . . . . . . . . . . . . . . . . . . . . . . . . . . . . . . . . . . . . . . . . . "};
