/* XPM */
static char * ybbb_xpm[] = {
"71 71 541 2",
"  	c None",
". 	c #1C8D1C",
"+ 	c #218921",
"@ 	c #218A21",
"# 	c #208920",
"$ 	c #2A8F2A",
"% 	c #1C4F1C",
"& 	c #162A16",
"* 	c #163016",
"= 	c #226122",
"- 	c #173017",
"; 	c #172F17",
"> 	c #1C591C",
", 	c #1B8C1B",
"' 	c #205920",
") 	c #000000",
"! 	c #111A11",
"~ 	c #227922",
"{ 	c #217621",
"] 	c #0E100E",
"^ 	c #247224",
"/ 	c #1C8B1C",
"( 	c #194019",
"_ 	c #050605",
": 	c #236F23",
"< 	c #216621",
"[ 	c #030303",
"} 	c #020202",
"| 	c #216421",
"1 	c #1A4C1A",
"2 	c #0C140C",
"3 	c #237A23",
"4 	c #227022",
"5 	c #080A08",
"6 	c #0B110B",
"7 	c #227622",
"8 	c #257725",
"9 	c #121E12",
"0 	c #184A18",
"a 	c #1D8D1D",
"b 	c #238E23",
"c 	c #143F14",
"d 	c #1D4D1D",
"e 	c #1E8D1E",
"f 	c #268026",
"g 	c #0E260E",
"h 	c #050705",
"i 	c #265B26",
"j 	c #2A842A",
"k 	c #0F1F0F",
"l 	c #030603",
"m 	c #225922",
"n 	c #1D6E1D",
"o 	c #143014",
"p 	c #0A0A0A",
"q 	c #174917",
"r 	c #2F932F",
"s 	c #164B16",
"t 	c #050E05",
"u 	c #135913",
"v 	c #276D27",
"w 	c #132413",
"x 	c #184218",
"y 	c #225422",
"z 	c #2B2B2B",
"A 	c #313131",
"B 	c #0B190B",
"C 	c #246B24",
"D 	c #175E17",
"E 	c #112011",
"F 	c #181818",
"G 	c #919191",
"H 	c #CFCFCF",
"I 	c #4F4F4F",
"J 	c #152615",
"K 	c #1F6F1F",
"L 	c #145B14",
"M 	c #061406",
"N 	c #5F5F5F",
"O 	c #DFDFDF",
"P 	c #CBCBCB",
"Q 	c #444444",
"R 	c #143214",
"S 	c #248424",
"T 	c #206720",
"U 	c #0A180A",
"V 	c #E3E3E3",
"W 	c #BFBFBF",
"X 	c #3A3A3A",
"Y 	c #154415",
"Z 	c #208E20",
"` 	c #226D22",
" .	c #172617",
"..	c #707070",
"+.	c #FCFCFC",
"@.	c #ABABAB",
"#.	c #1D1D1D",
"$.	c #070907",
"%.	c #1F611F",
"&.	c #247C24",
"*.	c #112911",
"=.	c #101010",
"-.	c #262626",
";.	c #1F1F1F",
">.	c #868686",
",.	c #FFFFFF",
"'.	c #8D8D8D",
").	c #132913",
"!.	c #258225",
"~.	c #258C25",
"{.	c #163C16",
"].	c #090909",
"^.	c #969696",
"/.	c #E5E5E5",
"(.	c #C9C9C9",
"_.	c #333333",
":.	c #171717",
"<.	c #F5F5F5",
"[.	c #194C19",
"}.	c #1C8C1C",
"|.	c #1C511C",
"1.	c #CACACA",
"2.	c #F7F7F7",
"3.	c #494949",
"4.	c #424242",
"5.	c #D9D9D9",
"6.	c #C4C4C4",
"7.	c #252525",
"8.	c #0F1B0F",
"9.	c #247A24",
"0.	c #216E21",
"a.	c #0F170F",
"b.	c #4A4A4A",
"c.	c #777777",
"d.	c #FEFEFE",
"e.	c #828282",
"f.	c #1A4D1A",
"g.	c #238A23",
"h.	c #153815",
"i.	c #1A1A1A",
"j.	c #BEBEBE",
"k.	c #DCDCDC",
"l.	c #102010",
"m.	c #238323",
"n.	c #1C5C1C",
"o.	c #050505",
"p.	c #676767",
"q.	c #FBFBFB",
"r.	c #206220",
"s.	c #238723",
"t.	c #132B13",
"u.	c #191919",
"v.	c #C8C8C8",
"w.	c #CECECE",
"x.	c #1B1B1B",
"y.	c #183C18",
"z.	c #1F8D1F",
"A.	c #1E601E",
"B.	c #040404",
"C.	c #7F7F7F",
"D.	c #F9F9F9",
"E.	c #585858",
"F.	c #0F1E0F",
"G.	c #218521",
"H.	c #218B21",
"I.	c #133313",
"J.	c #3B3B3B",
"K.	c #ECECEC",
"L.	c #939393",
"M.	c #060A06",
"N.	c #227522",
"O.	c #247624",
"P.	c #090E09",
"Q.	c #0C0C0C",
"R.	c #474747",
"S.	c #DEDEDE",
"T.	c #7C7C7C",
"U.	c #121212",
"V.	c #070707",
"W.	c #0F0F0F",
"X.	c #C1C1C1",
"Y.	c #111111",
"Z.	c #1C541C",
"`.	c #595959",
" +	c #858585",
".+	c #9F9F9F",
"++	c #AFAFAF",
"@+	c #C2C2C2",
"#+	c #E4E4E4",
"$+	c #CCCCCC",
"%+	c #B6B6B6",
"&+	c #A6A6A6",
"*+	c #909090",
"=+	c #6C6C6C",
"-+	c #2F2F2F",
";+	c #E7E7E7",
">+	c #1E531E",
",+	c #208B20",
"'+	c #183618",
")+	c #5D5D5D",
"!+	c #F2F2F2",
"~+	c #454545",
"{+	c #1B471B",
"]+	c #218321",
"^+	c #0E1B0E",
"/+	c #F8F8F8",
"(+	c #E9E9E9",
"_+	c #DBDBDB",
":+	c #E2E2E2",
"<+	c #F1F1F1",
"[+	c #D8D8D8",
"}+	c #F3F3F3",
"|+	c #FDFDFD",
"1+	c #E6E6E6",
"2+	c #363636",
"3+	c #EBEBEB",
"4+	c #1B411B",
"5+	c #227722",
"6+	c #080D08",
"7+	c #4E4E4E",
"8+	c #727272",
"9+	c #2E2E2E",
"0+	c #1C1C1C",
"a+	c #DDDDDD",
"b+	c #787878",
"c+	c #404040",
"d+	c #656565",
"e+	c #838383",
"f+	c #737373",
"g+	c #0B0B0B",
"h+	c #1E1E1E",
"i+	c #1C401C",
"j+	c #1E8E1E",
"k+	c #216A21",
"l+	c #6F6F6F",
"m+	c #1B461B",
"n+	c #216321",
"o+	c #B7B7B7",
"p+	c #6D6D6D",
"q+	c #1D511D",
"r+	c #226222",
"s+	c #A5A5A5",
"t+	c #1F5F1F",
"u+	c #010101",
"v+	c #949494",
"w+	c #060806",
"x+	c #226A22",
"y+	c #020302",
"z+	c #808080",
"A+	c #343434",
"B+	c #0A140A",
"C+	c #227F22",
"D+	c #237523",
"E+	c #6B6B6B",
"F+	c #202020",
"G+	c #218021",
"H+	c #0B170B",
"I+	c #353535",
"J+	c #1B4A1B",
"K+	c #142C14",
"L+	c #050805",
"M+	c #226C22",
"N+	c #0D0D0D",
"O+	c #A4A4A4",
"P+	c #D5D5D5",
"Q+	c #228522",
"R+	c #226B22",
"S+	c #272727",
"T+	c #232323",
"U+	c #194619",
"V+	c #228422",
"W+	c #080B08",
"X+	c #1A491A",
"Y+	c #152C15",
"Z+	c #228922",
"`+	c #227422",
" @	c #0B120B",
".@	c #393939",
"+@	c #2A2A2A",
"@@	c #1C521C",
"#@	c #1F8E1F",
"$@	c #194319",
"%@	c #ACACAC",
"&@	c #E8E8E8",
"*@	c #555555",
"=@	c #292929",
"-@	c #080808",
";@	c #080E08",
">@	c #217321",
",@	c #0B130B",
"'@	c #141414",
")@	c #B3B3B3",
"!@	c #FAFAFA",
"~@	c #F0F0F0",
"{@	c #AAAAAA",
"]@	c #888888",
"^@	c #7E7E7E",
"/@	c #979797",
"(@	c #686868",
"_@	c #112511",
":@	c #218821",
"<@	c #1E451E",
"[@	c #8A8A8A",
"}@	c #A7A7A7",
"|@	c #6E6E6E",
"1@	c #3E3E3E",
"2@	c #717171",
"3@	c #1D461D",
"4@	c #226822",
"5@	c #6A6C6A",
"6@	c #2D2D2D",
"7@	c #7D7D7D",
"8@	c #B1B1B1",
"9@	c #3D3D3D",
"0@	c #060606",
"a@	c #303030",
"b@	c #747474",
"c@	c #626262",
"d@	c #1D581D",
"e@	c #218121",
"f@	c #162316",
"g@	c #505050",
"h@	c #8C8C8C",
"i@	c #090A09",
"j@	c #248A24",
"k@	c #203220",
"l@	c #F4F4F4",
"m@	c #E0E0E0",
"n@	c #A8A8A8",
"o@	c #202220",
"p@	c #246F24",
"q@	c #243624",
"r@	c #A1A1A1",
"s@	c #EDEDED",
"t@	c #A0A0A0",
"u@	c #464646",
"v@	c #222422",
"w@	c #1F831F",
"x@	c #243324",
"y@	c #3C3C3C",
"z@	c #373737",
"A@	c #ADADAD",
"B@	c #292B29",
"C@	c #236C23",
"D@	c #227E22",
"E@	c #353D35",
"F@	c #206120",
"G@	c #191C19",
"H@	c #C3C3C3",
"I@	c #8B8B8B",
"J@	c #4C4C4C",
"K@	c #1E521E",
"L@	c #1D571D",
"M@	c #5B5B5B",
"N@	c #F6F6F6",
"O@	c #B2B2B2",
"P@	c #C7C7C7",
"Q@	c #929292",
"R@	c #565656",
"S@	c #151515",
"T@	c #183A18",
"U@	c #1E8C1E",
"V@	c #1F8C1F",
"W@	c #2C4C2C",
"X@	c #C0C0C0",
"Y@	c #8E8E8E",
"Z@	c #606060",
"`@	c #131313",
" #	c #636363",
".#	c #9E9E9E",
"+#	c #1B2C1B",
"@#	c #228622",
"##	c #364036",
"$#	c #0E0E0E",
"%#	c #818181",
"&#	c #393D39",
"*#	c #217A21",
"=#	c #1E7B1E",
"-#	c #122D12",
";#	c #101810",
">#	c #225C22",
",#	c #268526",
"'#	c #0D150D",
")#	c #1E681E",
"!#	c #1D8C1D",
"~#	c #208C20",
"{#	c #184618",
"]#	c #080C08",
"^#	c #152D15",
"/#	c #1E591E",
"(#	c #268826",
"_#	c #218721",
":#	c #216F21",
"<#	c #193C19",
"[#	c #173117",
"}#	c #173317",
"|#	c #1A411A",
"1#	c #1C551C",
"2#	c #226E22",
"3#	c #238023",
"4#	c #1E5F1E",
"5#	c #173B17",
"6#	c #0B0F0B",
"7#	c #222222",
"8#	c #1E551E",
"9#	c #227322",
"0#	c #227D22",
"a#	c #226722",
"b#	c #1E4F1E",
"c#	c #173617",
"d#	c #1A471A",
"e#	c #237823",
"f#	c #228B22",
"g#	c #248824",
"h#	c #070B07",
"i#	c #102110",
"j#	c #206320",
"k#	c #227C22",
"l#	c #3C4E3C",
"m#	c #B9B9B9",
"n#	c #C6C6C6",
"o#	c #1C1E1C",
"p#	c #252725",
"q#	c #B8B8B8",
"r#	c #314931",
"s#	c #1F6C1F",
"t#	c #237623",
"u#	c #1D561D",
"v#	c #0B140B",
"w#	c #030503",
"x#	c #090F09",
"y#	c #1E5C1E",
"z#	c #248624",
"A#	c #1E661E",
"B#	c #142F14",
"C#	c #030403",
"D#	c #102410",
"E#	c #153415",
"F#	c #143714",
"G#	c #122912",
"H#	c #0A100A",
"I#	c #414141",
"J#	c #666666",
"K#	c #484848",
"L#	c #195419",
"M#	c #215B21",
"N#	c #5E5E5E",
"O#	c #0C130C",
"P#	c #143114",
"Q#	c #163B16",
"R#	c #153715",
"S#	c #142E14",
"T#	c #0F200F",
"U#	c #132C13",
"V#	c #259125",
"W#	c #1A511A",
"X#	c #101510",
"Y#	c #040604",
"Z#	c #1C471C",
"`#	c #289228",
" $	c #114911",
".$	c #070807",
"+$	c #080908",
"@$	c #1A4A1A",
"#$	c #298C29",
"$$	c #319531",
"%$	c #204D20",
"&$	c #122112",
"*$	c #0A0F0A",
"=$	c #153115",
"-$	c #1D4F1D",
";$	c #206A20",
">$	c #1C4D1C",
",$	c #163216",
"'$	c #0C150C",
")$	c #184318",
"!$	c #238523",
"~$	c #1C531C",
"{$	c #0E130E",
"]$	c #0A120A",
"^$	c #132D13",
"/$	c #1A481A",
"($	c #216B21",
"_$	c #1B4B1B",
":$	c #112311",
"<$	c #215221",
"[$	c #193E19",
"}$	c #143E14",
"|$	c #2A922A",
"1$	c #234D23",
"2$	c #194719",
"3$	c #296B29",
"4$	c #133213",
"5$	c #163916",
"6$	c #218C21",
"7$	c #237C23",
"8$	c #1E5B1E",
"9$	c #173817",
"0$	c #0B150B",
"a$	c #060706",
"b$	c #1D531D",
"c$	c #299029",
"d$	c #1D641D",
"e$	c #060906",
"f$	c #163616",
"g$	c #1E5A1E",
"h$	c #237B23",
"i$	c #143314",
"j$	c #164116",
"k$	c #268F26",
"l$	c #1F5B1F",
"m$	c #248C24",
"n$	c #225122",
"o$	c #1E671E",
"p$	c #248F24",
"q$	c #164316",
"r$	c #111311",
"s$	c #1B511B",
"t$	c #238C23",
"u$	c #1F8B1F",
"v$	c #228022",
"w$	c #205D20",
"x$	c #1D4C1D",
"y$	c #1C4C1C",
"z$	c #205E20",
"A$	c #257D25",
"B$	c #1C4B1C",
"C$	c #298B29",
"D$	c #1B491B",
"E$	c #1D5C1D",
"F$	c #1D8B1D",
"G$	c #216C21",
"H$	c #0E1C0E",
"I$	c #1A5B1A",
"J$	c #218E21",
"K$	c #134713",
"L$	c #112811",
"M$	c #208320",
"N$	c #248024",
"O$	c #1E6F1E",
"P$	c #2A912A",
". . . . . . . . . . . . . . . . . . . . . . . . . . . . . . . . . . . . . . . . . . . . . . . . . . . . . . . . . . . . . . . . . . . . . . . ",
". . . . . . . . . . . . . . . . . . . . . . . . . . . . . . . . . . . . . . . . . . . . . . . . . . . . . . . . . . . . . . . . . . . . . . . ",
". . . . . . . . . . . . . . . . . . . . . . . . . . . . . . . . . . . . . . . . . . . . . . . . . . . . . . . . . . . . . . . . . . . . . . . ",
". . . . . . . . . . . . . . . . . . . . . . . . . . . . . . . . . . + @ . . . . . @ # . . . . . . . . . . . . . . . . . . . . . . . . . . . . ",
". . . . . . . . . . . . . . . . . . . . . . . . . . . . . . . . $ % & * = . . . = - ; > , . . . . . . . . . . . . . . . . . . . . . . . . . . ",
". . . . . . . . . . . . . . . . . . . . . . . . . . . . . . . . ' ) ) ) ! ~ . { ! ) ) ] ^ . . . . . . . . . . . . . . . . . . . . . . . . . . ",
". . . . . . . . . . . . . . . . . . . . . . . . . . . . . . . / ( ) ) ) _ : . < [ ) ) } | . . . . . . . . . . . . . . . . . . . . . . . . . . ",
". . . . . . . . . . . . . . . . . . . . . . . . . . . . . . . . 1 ) ) ) 2 3 . 4 5 ) ) 6 7 . . . . . . . . . . . . . . . . . . . . . . . . . . ",
". . . . . . . . . . . . . . . . . . . . . . . . . . . . . . . . 8 9 ) ) 0 a . b c ) ) d e . . . . . . . . . . . . . . . . . . . . . . . . . . ",
". . . . . . . . . . . . . . . . . . . . . . . . . . . . . . . . f g ) h i a . . j k l m . . . . . . . . . . . . . . . . . . . . . . . . . . . ",
". . . . . . . . . . . . . . . . . . . . . . . . . . . . . . . n o ) ) ) p q r . s ) ) t u . . . . . . . . . . . . . . . . . . . . . . . . . . ",
". . . . . . . . . . . . . . . . . . . . . . . . . . . . . . v w ) ) ) ) ) ) x y z A ) ) B C . . . . . . . . . . . . . . . . . . . . . . . . . ",
". . . . . . . . . . . . . . . . . . . . . . . . . . . . . D E ) ) ) ) ) ) ) ) F G H I ) ) J K . . . . . . . . . . . . . . . . . . . . . . . . ",
". . . . . . . . . . . . . . . . . . . . . . . . . . . . L M ) ) ) ) ) ) ) ) ) ) N O P Q ) ) R S . . . . . . . . . . . . . . . . . . . . . . . ",
". . . . . . . . . . . . . . . . . . . . . . . . . . . T U ) ) ) ) ) ) ) ) ) ) ) ) N V W X ) ) Y Z . . . . . . . . . . . . . . . . . . . . . . ",
". . . . . . . . . . . . . . . . . . . . . . . . . . `  .) ) ) ) ) ) ) ) ) ) ) ) ) ) ..+.@.#.) $.%.. . . . . . . . . . . . . . . . . . . . . . ",
". . . . . . . . . . . . . . . . . . . . . . . . . &.*.) ) ) ) ) ) =.-.;.) ) ) ) ) ) ) >.,.'.) ) ).!.. . . . . . . . . . . . . . . . . . . . . ",
". . . . . . . . . . . . . . . . . . . . . . . . ~.{.) ) ) ) ) ) ].^./.(._.) ) ) ) ) ) :.@.<.N ) ) [.}.. . . . . . . . . . . . . . . . . . . . ",
". . . . . . . . . . . . . . . . . . . . . . . . |.) ) ) ) ) ) ) =.1.,.2.3.) ) ) ) ) ) ) 4.5.6.7.) 8.9.. . . . . . . . . . . . . . . . . . . . ",
". . . . . . . . . . . . . . . . . . . . . . . 0.a.) ) ) ) ) ) ) =.1.,.2.b.) ) ) ) ) ) ) ) c.d.e.) ) f.}.. . . . . . . . . . . . . . . . . . . ",
". . . . . . . . . . . . . . . . . . . . . . g.h.) ) ) ) ) ) ) ) =.1.,.2.b.) ) ) ) ) ) ) ) i.j.k.A ) l.m.. . . . . . . . . . . . . . . . . . . ",
". . . . . . . . . . . . . . . . . . . . . . n.o.) ) ) ) ) ) ) ) =.1.,.2.b.) ) ) ) ) ) ) ) ) p.q.e.) [ r.. . . . . . . . . . . . . . . . . . . ",
". . . . . . . . . . . . . . . . . . . . . s.t.) ) ) ) ) ) ) ) ) =.1.,.2.b.) ) ) ) ) ) ) ) ) u.v.w.x.) y.z.. . . . . . . . . . . . . . . . . . ",
". . . . . . . . . . . . . . . . . . . . . A.B.) ) ) ) ) ) ) ) ) =.1.,.2.b.) ) ) ) ) ) ) ) ) ) C.D.E.) F.G.. . . . . . . . . . . . . . . . . . ",
". . . . . . . . . . . . . . . . . . . . H.I.) ) ) ) ) ) ) ) ) ) =.1.,.2.b.) ) ) ) ) ) ) ) ) ) J.K.L.) M.N.. . . . . . . . . . . . . . . . . . ",
". . . . . . . . . . . . . . . . . . . . O.P.) ) ) ) ) ) ) } o.Q.R.S.,.+.T.U.V.[ ) ) ) ) ) ) ) W.X.v.Y.[ | . . . . . . . . . . . . . . . . . . ",
". . . . . . . . . . . . . . . . . . . . Z.) ) ) ) ) Y.`. +.+++@+#+,.,.,.<.$+%+&+*+=+-+) ) ) ) ) '.;+z ) >+. . . . . . . . . . . . . . . . . . ",
". . . . . . . . . . . . . . . . . . . ,+'+) ) ) ) ) e.q.,.,.,.,.,.,.,.,.,.,.,.,.,.d.j.x.) ) ) ) )+!+~+) {+. . . . . . . . . . . . . . . . . . ",
". . . . . . . . . . . . . . . . . . . ]+^+) ) ) ) [ .+,.,./+(+_+:+,.,.,.<+[+V }+|+,.1+-.) ) ) ) 2+3+)+) 4+e . . . . . . . . . . . . . . . . . ",
". . . . . . . . . . . . . . . . . . . 5+6+) ) ) ) ) 7+>.8+7+9+0+Q a+,.+.b+u.7.c+d+e+f+g+) ) ) ) h+a+=+) i+j+. . . . . . . . . . . . . . . . . ",
". . . . . . . . . . . . . . . . . . . k+h ) ) ) ) ) ) ) ) ) ) ) =.P ,.2.b.) ) ) ) ) ) ) ) ) ) ) W.(.l+) m+. . . . . . . . . . . . . . . . . . ",
". . . . . . . . . . . . . . . . . . . n+[ ) ) ) ) ) ) ) ) ) ) ) =.1.,.2.b.) ) ) ) ) ) ) ) ) ) ) V.o+p+) q+. . . . . . . . . . . . . . . . . . ",
". . . . . . . . . . . . . . . . . . . r+} ) ) ) ) ) ) ) ) ) ) ) =.1.,.2.b.) ) ) ) ) ) ) ) ) ) ) [ s+N } t+. . . . . . . . . . . . . . . . . . ",
". . . . . . . . . . . . . . . . . . . r+} ) ) ) ) ) ) ) ) ) ) ) =.1.,.2.b.) ) ) ) ) ) ) ) ) ) ) u+v+3.w+4 . . . . . . . . . . . . . . . . . . ",
". . . . . . . . . . . . . . . . . . . x+y+) ) ) ) ) ) ) ) ) ) ) =.1.,.2.b.) ) ) ) ) ) ) ) ) ) ) ) z+A+B+C+. . . . . . . . . . . . . . . . . . ",
". . . . . . . . . . . . . . . . . . . D+M.) ) ) ) ) ) ) ) ) ) ) =.1.,.2.b.) ) ) ) ) ) ) ) ) ) ) ) E+F+t.# . . . . . . . . . . . . . . . . . . ",
". . . . . . . . . . . . . . . . . . . G+H+) ) ) ) ) ) ) ) ) ) ) =.1.,.2.b.) ) ) ) ) ) ) ) ) ) ) ) I+W.J+. . . . . . . . . . . . . . . . . . . ",
". . . . . . . . . . . . . . . . . . . @ K+) ) ) ) ) ) ) ) ) ) ) =.1.,.2.3.) ) ) ) ) ) ) ) ) ) ) ) u+L+M+. . . . . . . . . . . . . . . . . . . ",
". . . . . . . . . . . . . . . . . . . . J+) ) ) ) ) ) ) ) ) ) ) N+O+;+P+X ) ) ) ) ) ) ) ) ) ) ) ) ) k Q+. . . . . . . . . . . . . . . . . . . ",
". . . . . . . . . . . . . . . . . . . . R+_ ) ) ) ) ) ) ) ) ) ) ) u.S+T+) ) ) ) ) ) ) ) ) ) ) ) ) ) U+a . . . . . . . . . . . . . . . . . . . ",
". . . . . . . . . . . . . . . . . . . . V+l.) ) ) ) ) ) ) ) ) ) ) ) ) ) ) ) ) ) ) ) ) ) ) ) ) ) ) W+0.. . . . . . . . . . . . . . . . . . . . ",
". . . . . . . . . . . . . . . . . . . . }.X+) ) ) ) ) ) ) ) ) ) ) ) ) ) ) ) ) ) ) ) ) ) ) ) ) ) ) Y+Z+. . . . . . . . . . . . . . . . . . . . ",
". . . . . . . . . . . . . . . . . . . . . `+ @) ) ) ) ) ) ) o.=.h+z .@J.J..@+@#.W.B.) ) ) ) ) ) ) @@. . . . . . . . . . . . . . . . . . . . . ",
". . . . . . . . . . . . . . . . . . . . . #@$@) ) ) p z E. +%@(.a+&@!+}+}+!+;+k.v.@.e.*@=@-@) ) ;@O.. . . . . . . . . . . . . . . . . . . . . ",
". . . . . . . . . . . . . . . . . . . . . . >@,@'@p+)@/.!@~@_+@+{@^.]@^@C.]@/@%@6.k.<+D.#+++(@Y._@:@. . . . . . . . . . . . . . . . . . . . . ",
". . . . . . . . . . . . . . . . . . . . . . Z <@[@d.:+}@|@J.#.Q.[ ) ) p ) ) ) [ N+h+1@2@@./.|+ +3@e . . . . . . . . . . . . . . . . . . . . . ",
". . . . . . . . . . . . . . . . . . . . . . . 4@5@..6@o.) ) ) ) ) -+7@8@]@9@) ) ) ) ) ) 0@a@b@c@d@. . . . . . . . . . . . . . . . . . . . . . ",
". . . . . . . . . . . . . . . . . . . . . . . e@f@g@Q '@) ) ) N+c.[+,.,.,.;+h@0+) ) ) ) ) -@+@i@x+. . . . . . . . . . . . . . . . . . . . . . ",
". . . . . . . . . . . . . . . . . . . . . . . j@k@6.l@%@F ) ) 1@m@,.,.,.,.,.#+R.) ) ) ) 7+n@6.o@p@. . . . . . . . . . . . . . . . . . . . . . ",
". . . . . . . . . . . . . . . . . . . . . . . j@q@(.,.^.0@) ) ) R.r@K.d.s@t@u@) ) ) ) V.*+,.k.v@p@. . . . . . . . . . . . . . . . . . . . . . ",
". . . . . . . . . . . . . . . . . . . . . . . w@x@P+o++@) ) ) ) ) V.y@N 1@0@) ) ) ) ) ) z@A@:+B@C@. . . . . . . . . . . . . . . . . . . . . . ",
". . . . . . . . . . . . . . . . . . . . . . . D@E@O+1@) ) ) ) ) B.V.g+g+g+g+V.[ ) ) ) ) ) h+8+S+F@. . . . . . . . . . . . . . . . . . . . . . ",
". . . . . . . . . . . . . . . . . . . . . . . 4 G@9+u+U.6@7+..'.s+o+@+H@H@@+%+O+I@|@J@z Y.) ) ) K@. . . . . . . . . . . . . . . . . . . . . . ",
". . . . . . . . . . . . . . . . . . . . . . . L@i.M@^.(.&@N@~@O w.X.o+O@O@o+X.H m@~@N@;+P@Q@R@S@T@U@. . . . . . . . . . . . . . . . . . . . . ",
". . . . . . . . . . . . . . . . . . . . . . V@W@{@N@/.X@Y@Z@.@;.U.g+V.0@0@-@g+`@F+X  #G @+;+<..#+#@#. . . . . . . . . . . . . . . . . . . . . ",
". . . . . . . . . . . . . . . . . . . . . . D@##e+M@z N+) ) ) ) ) ) ) ) ) ) ) ) ) ) ) ) $#9+N %#&#*#. . . . . . . . . . . . . . . . . . . . . ",
". . . . . . . . . . . . . . . . . . . . . . =#-#u+) ) ) ) ) ) ) ) ) ) ) ) ) ) ) ) ) ) ) ) ) ) ;#>#. . . . . . . . . . . . . . . . . . . . . . ",
". . . . . . . . . . . . . . . . . . . . . . . ,#1 '#) ) ) ) ) ) ) ) ) ) ) ) ) ) ) ) ) ) ) [ o )#. . . . . . . . . . . . . . . . . . . . . . . ",
". . . . . . . . . . . . . . !#,+,+~#e . . . . . }.>@{#8.[ ) ) ) ) ) ) ) ) ) ) ) ) ) ) ]#^#/#(#. . . . . . . U@,+,+V@a . . . . . . . . . . . . ",
". . . . . . . . . . . _#:#@@<#- [#}#|#1#2#Q+e . . . #@3#4#5#6#i.N+o.} ) ) [ ].S@7#J 8#9#Z+. . . . . H.0#a#b#T@- * c#d#t+e#f#. . . . . . . . . ",
". . . . . . . . . g#/#K+h#) ) ) ) ) ) ) $.i#$@j#k#:@V@!#H.C@l#m#n#O@b+o#p#h@q#w.@.r#s#V@!#V@~#_#t#u#}#v#w#) ) ) ) ) ) [ x#o y#z#. . . . . . . ",
". . . . . . . . A#B#} ) ) ) ) ) ) ) ) ) ) ) ) C#,@D#E#F#G#H#) I#J#p+K#L#M#N#|@Z@_.) O#P#Q#R#S#T#6+u+) ) ) ) ) ) ) ) ) ) ) ) [ U#r.e . . . . . ",
". . . . . . V#W#X#) ) ) ) ) ) } Y#h } ) ) ) ) ) ) ) ) ) ) ) ) ) ) ) Z#`#}. $B.) ) ) ) ) ) ) ) ) ) ) ) ) ) ) [ h Y#[ ) ) ) ) .$} +$@$#$. . . . ",
". . . . . $$%$) v#&$C#) *$=$-$F@;$R+r+>$,$'$} ) ) ) ) ) ) ) ) ) ) )$!$. . a ~${$) ) ) ) ) ) ) ) ) ) } ]$^$/$t+($;$t+_$U#W+) :$<$[$6 }$+ . . . ",
". . . . |$1$*$2$3$4$) 5$p@,+. . . . . . 6$7$8$9$0$a$u+) ) ) } 9 b$c$. . . . . d$,$e$) ) ) ) } w+0$f$g$h$@ a . . . . . @ k+i$) j$k$2#l$m$. . . ",
". . . . s.n$o$p$q$r$s$t$. . . . . . . . . . . u$v$2#w$K@x$y$z$A$. . . . . . . . g.` 8#B$d >+y#0.D@,+. . . . . . . . . . . C$D$o.E$. F$. . . . ",
". . . . . H.. G$H$I$. . . . . . . . . . . . . . . . . . . a . . . . . . . . . . . . . a . . . . . . . . . . . . . . . . . . J$K$L$M$. . . . . ",
". . . . . . . N$O$. . . . . . . . . . . . . . . . . . . . . . . . . . . . . . . . . . . . . . . . . . . . . . . . . . . . . . P$G$z.. . . . . ",
". . . . . . . . . . . . . . . . . . . . . . . . . . . . . . . . . . . . . . . . . . . . . . . . . . . . . . . . . . . . . . . . }.. . . . . . ",
". . . . . . . . . . . . . . . . . . . . . . . . . . . . . . . . . . . . . . . . . . . . . . . . . . . . . . . . . . . . . . . . . . . . . . . ",
". . . . . . . . . . . . . . . . . . . . . . . . . . . . . . . . . . . . . . . . . . . . . . . . . . . . . . . . . . . . . . . . . . . . . . . "};
