/* XPM */
static char * ybbk_xpm[] = {
"71 71 477 2",
"  	c None",
". 	c #1C8D1C",
"+ 	c #1B8A1B",
"@ 	c #165B16",
"# 	c #123912",
"$ 	c #0E330E",
"% 	c #092E09",
"& 	c #0F340F",
"* 	c #133B13",
"= 	c #175F17",
"- 	c #1C871C",
"; 	c #1A351A",
"> 	c #858585",
", 	c #8A8A8A",
"' 	c #131313",
") 	c #000000",
"! 	c #1A1A1A",
"~ 	c #8D8D8D",
"{ 	c #838383",
"] 	c #183918",
"^ 	c #1C881C",
"/ 	c #1D861D",
"( 	c #182D18",
"_ 	c #A2A2A2",
": 	c #FFFFFF",
"< 	c #7C7C7C",
"[ 	c #9D9D9D",
"} 	c #152F15",
"| 	c #1B871B",
"1 	c #0A200A",
"2 	c #212121",
"3 	c #808080",
"4 	c #C7C7C7",
"5 	c #414141",
"6 	c #090909",
"7 	c #080808",
"8 	c #4B4B4B",
"9 	c #C8C8C8",
"0 	c #7B7B7B",
"a 	c #1B1B1B",
"b 	c #092309",
"c 	c #383838",
"d 	c #484848",
"e 	c #A3A3A3",
"f 	c #9B9B9B",
"g 	c #454545",
"h 	c #353535",
"i 	c #464646",
"j 	c #FAFAFA",
"k 	c #F5F5F5",
"l 	c #3A3A3A",
"m 	c #585858",
"n 	c #818181",
"o 	c #7D7D7D",
"p 	c #565656",
"q 	c #060606",
"r 	c #A1A1A1",
"s 	c #333333",
"t 	c #3D3D3D",
"u 	c #CBCBCB",
"v 	c #9C9C9C",
"w 	c #3C3C3C",
"x 	c #182E18",
"y 	c #B3B3B3",
"z 	c #F8F8F8",
"A 	c #676767",
"B 	c #6F6F6F",
"C 	c #FDFDFD",
"D 	c #ADADAD",
"E 	c #122812",
"F 	c #666666",
"G 	c #646464",
"H 	c #030303",
"I 	c #6A6A6A",
"J 	c #0F2A0F",
"K 	c #1D831D",
"L 	c #1A801A",
"M 	c #1D851D",
"N 	c #1B881B",
"O 	c #070707",
"P 	c #1D8D1D",
"Q 	c #1D841D",
"R 	c #166316",
"S 	c #0E410E",
"T 	c #0B280B",
"U 	c #091C09",
"V 	c #061806",
"W 	c #0A1F0A",
"X 	c #0B290B",
"Y 	c #103F10",
"Z 	c #145A14",
"` 	c #1B7A1B",
" .	c #1C8C1C",
"..	c #848484",
"+.	c #B1B1B1",
"@.	c #B0B0B0",
"#.	c #343434",
"$.	c #1D8C1D",
"%.	c #197719",
"&.	c #135913",
"*.	c #103D10",
"=.	c #0A1E0A",
"-.	c #061706",
";.	c #114311",
">.	c #166516",
",.	c #166016",
"'.	c #0D2D0D",
").	c #030603",
"!.	c #000200",
"~.	c #091709",
"{.	c #114111",
"].	c #196F19",
"^.	c #616161",
"/.	c #9F9F9F",
"(.	c #6D6D6D",
"_.	c #5F5F5F",
":.	c #196C19",
"<.	c #0F3D0F",
"[.	c #061306",
"}.	c #010201",
"|.	c #030703",
"1.	c #0C300C",
"2.	c #166216",
"3.	c #238E23",
"4.	c #134913",
"5.	c #050A05",
"6.	c #091609",
"7.	c #144D14",
"8.	c #1C841C",
"9.	c #4A4A4A",
"0.	c #C6C6C6",
"a.	c #606060",
"b.	c #040404",
"c.	c #1C821C",
"d.	c #114911",
"e.	c #071307",
"f.	c #050D05",
"g.	c #104A10",
"h.	c #1F8E1F",
"i.	c #154815",
"j.	c #020202",
"k.	c #242424",
"l.	c #434343",
"m.	c #525252",
"n.	c #494949",
"o.	c #1C1C1C",
"p.	c #0D360D",
"q.	c #1C781C",
"r.	c #102510",
"s.	c #888888",
"t.	c #939393",
"u.	c #949494",
"v.	c #0B260B",
"w.	c #1C731C",
"x.	c #0F330F",
"y.	c #050505",
"z.	c #1E1E1E",
"A.	c #373737",
"B.	c #010101",
"C.	c #0E460E",
"D.	c #124F12",
"E.	c #959595",
"F.	c #DDDDDD",
"G.	c #F4F4F4",
"H.	c #FBFBFB",
"I.	c #EFEFEF",
"J.	c #D7D7D7",
"K.	c #A0A0A0",
"L.	c #5A5A5A",
"M.	c #0F0F0F",
"N.	c #0E2B0E",
"O.	c #1C691C",
"P.	c #233823",
"Q.	c #C5C5C5",
"R.	c #1C361C",
"S.	c #146414",
"T.	c #082508",
"U.	c #5E5E5E",
"V.	c #A4A4A4",
"W.	c #D9D9D9",
"X.	c #F0F0F0",
"Y.	c #DADADA",
"Z.	c #909090",
"`.	c #125212",
" +	c #186D18",
".+	c #081608",
"++	c #5D5D5D",
"@+	c #D0D0D0",
"#+	c #F9F9F9",
"$+	c #AEAEAE",
"%+	c #4D4D4D",
"&+	c #0B1E0B",
"*+	c #212721",
"=+	c #CCCCCC",
"-+	c #424242",
";+	c #1A231A",
">+	c #051A05",
",+	c #515151",
"'+	c #B4B4B4",
")+	c #CACACA",
"!+	c #081A08",
"~+	c #1B731B",
"{+	c #474747",
"]+	c #D8D8D8",
"^+	c #EDEDED",
"/+	c #F7F7F7",
"(+	c #DFDFDF",
"_+	c #0D0D0D",
":+	c #B5B5B5",
"<+	c #757575",
"[+	c #777777",
"}+	c #E7E7E7",
"|+	c #F6F6F6",
"1+	c #EEEEEE",
"2+	c #CECECE",
"3+	c #104310",
"4+	c #1C791C",
"5+	c #081508",
"6+	c #0B0B0B",
"7+	c #A9A9A9",
"8+	c #FEFEFE",
"9+	c #A8A8A8",
"0+	c #505050",
"a+	c #878787",
"b+	c #CFCFCF",
"c+	c #747474",
"d+	c #6C6C6C",
"e+	c #C1C1C1",
"f+	c #303030",
"g+	c #636363",
"h+	c #626262",
"i+	c #071807",
"j+	c #1B7C1B",
"k+	c #4C4C4C",
"l+	c #FCFCFC",
"m+	c #262626",
"n+	c #0E0E0E",
"o+	c #B7B7B7",
"p+	c #222222",
"q+	c #232323",
"r+	c #F2F2F2",
"s+	c #F1F1F1",
"t+	c #868686",
"u+	c #0C0C0C",
"v+	c #7F7F7F",
"w+	c #010301",
"x+	c #166116",
"y+	c #114411",
"z+	c #898989",
"A+	c #727272",
"B+	c #2D2D2D",
"C+	c #787878",
"D+	c #C4C4C4",
"E+	c #E5E5E5",
"F+	c #8E8E8E",
"G+	c #124B12",
"H+	c #0C330C",
"I+	c #B2B2B2",
"J+	c #181818",
"K+	c #323232",
"L+	c #313131",
"M+	c #171717",
"N+	c #979797",
"O+	c #737373",
"P+	c #2F2F2F",
"Q+	c #113B11",
"R+	c #1E8D1E",
"S+	c #A5A5A5",
"T+	c #E6E6E6",
"U+	c #3F3F3F",
"V+	c #929292",
"W+	c #B6B6B6",
"X+	c #8F8F8F",
"Y+	c #9A9A9A",
"Z+	c #DEDEDE",
"`+	c #5C5C5C",
" @	c #103A10",
".@	c #114211",
"+@	c #E3E3E3",
"@@	c #165716",
"#@	c #EBEBEB",
"$@	c #444444",
"%@	c #393939",
"&@	c #185F18",
"*@	c #1A711A",
"=@	c #040B04",
"-@	c #3B3B3B",
";@	c #2A2A2A",
">@	c #0A0A0A",
",@	c #292929",
"'@	c #040E04",
")@	c #187518",
"!@	c #0C2C0C",
"~@	c #C2C2C2",
"{@	c #202020",
"]@	c #282828",
"^@	c #BFBFBF",
"/@	c #404040",
"(@	c #0D310D",
"_@	c #1D891D",
":@	c #155715",
"<@	c #020302",
"[@	c #1D1D1D",
"}@	c #D4D4D4",
"|@	c #545454",
"1@	c #535353",
"2@	c #161616",
"3@	c #020402",
"4@	c #155C15",
"5@	c #1C831C",
"6@	c #0C2B0C",
"7@	c #919191",
"8@	c #C0C0C0",
"9@	c #797979",
"0@	c #C9C9C9",
"a@	c #767676",
"b@	c #191919",
"c@	c #5B5B5B",
"d@	c #141414",
"e@	c #0E310E",
"f@	c #1C861C",
"g@	c #156015",
"h@	c #030A03",
"i@	c #7A7A7A",
"j@	c #C3C3C3",
"k@	c #BBBBBB",
"l@	c #E8E8E8",
"m@	c #060F06",
"n@	c #186518",
"o@	c #114711",
"p@	c #575757",
"q@	c #CDCDCD",
"r@	c #D6D6D6",
"s@	c #4F4F4F",
"t@	c #101010",
"u@	c #9E9E9E",
"v@	c #134C13",
"w@	c #0D350D",
"x@	c #AAAAAA",
"y@	c #DBDBDB",
"z@	c #E2E2E2",
"A@	c #AFAFAF",
"B@	c #4E4E4E",
"C@	c #0E380E",
"D@	c #1F881F",
"E@	c #0C290C",
"F@	c #989898",
"G@	c #6E6E6E",
"H@	c #8C8C8C",
"I@	c #363636",
"J@	c #EAEAEA",
"K@	c #2E2E2E",
"L@	c #E9E9E9",
"M@	c #E1E1E1",
"N@	c #B9B9B9",
"O@	c #113311",
"P@	c #1B7B1B",
"Q@	c #166A16",
"R@	c #072307",
"S@	c #A6A6A6",
"T@	c #F3F3F3",
"U@	c #252525",
"V@	c #E4E4E4",
"W@	c #DCDCDC",
"X@	c #D2D2D2",
"Y@	c #0A260A",
"Z@	c #1D731D",
"`@	c #156915",
" #	c #082408",
".#	c #D1D1D1",
"+#	c #151515",
"@#	c #156A15",
"##	c #186B18",
"$#	c #0A240A",
"%#	c #D3D3D3",
"&#	c #121212",
"*#	c #186A18",
"=#	c #0C220C",
"-#	c #272727",
";#	c #6B6B6B",
">#	c #ECECEC",
",#	c #082308",
"'#	c #1A631A",
")#	c #656565",
"!#	c #1F1F1F",
"~#	c #969696",
"{#	c #186918",
"]#	c #343534",
"^#	c #2C2F2C",
"/#	c #0E290E",
"(#	c #717171",
"_#	c #BABABA",
":#	c #0E2E0E",
"<#	c #1C891C",
"[#	c #1C8B1C",
"}#	c #0F310F",
"|#	c #111111",
"1#	c #103810",
"2#	c #166916",
"3#	c #061606",
"4#	c #061906",
"5#	c #196E19",
"6#	c #1C851C",
"7#	c #0B2D0B",
"8#	c #828282",
"9#	c #177017",
"0#	c #020902",
"a#	c #ACACAC",
"b#	c #060E06",
"c#	c #1C771C",
"d#	c #186F18",
"e#	c #030803",
"f#	c #686868",
"g#	c #555555",
"h#	c #696969",
"i#	c #050C05",
"j#	c #1B751B",
"k#	c #1C811C",
"l#	c #0A230A",
"m#	c #3E3E3E",
"n#	c #8B8B8B",
"o#	c #BCBCBC",
"p#	c #1B831B",
"q#	c #155B15",
"r#	c #1B271B",
"s#	c #A7A7A7",
"t#	c #2B2B2B",
"u#	c #152315",
"v#	c #145E14",
"w#	c #151815",
"x#	c #101410",
"y#	c #125512",
"z#	c #1A751A",
"A#	c #101710",
"B#	c #2C2C2C",
"C#	c #0C160C",
"D#	c #1A781A",
"E#	c #1C7D1C",
"F#	c #0B170B",
"G#	c #0A1A0A",
"H#	c #1C801C",
"I#	c #1B821B",
"J#	c #091B09",
"K#	c #081F08",
"L#	c #1A861A",
"M#	c #0C260C",
"N#	c #707070",
"O#	c #0B2A0B",
"P#	c #1D8A1D",
"Q#	c #0F3C0F",
"R#	c #454845",
"S#	c #3D423D",
"T#	c #0F400F",
"U#	c #1A7E1A",
"V#	c #196919",
"W#	c #155215",
"X#	c #113E11",
"Y#	c #081C08",
"Z#	c #061206",
"`#	c #060D06",
" $	c #010601",
".$	c #051205",
"+$	c #0F3E0F",
"@$	c #135213",
"#$	c #1B801B",
"$$	c #1B741B",
"%$	c #176417",
"&$	c #155D15",
"*$	c #145614",
"=$	c #145114",
"-$	c #134D13",
";$	c #144A14",
">$	c #174A17",
",$	c #164716",
"'$	c #155615",
")$	c #165D16",
"!$	c #1A7C1A",
". . . . . . . . . . . . . . . . . . . . . . . . . . . . . . . . . . . . . . . . . . . . . . . . . . . . . . . . . . . . . . . . . . . . . . . ",
". . . . . . . . . . . . . . . . . . . . . . . . . . . . . . . . . . . . . . . . . . . . . . . . . . . . . . . . . . . . . . . . . . . . . . . ",
". . . . . . . . . . . . . . . . . . . . . . . . . . . . . . . . . . . . . . . . . . . . . . . . . . . . . . . . . . . . . . . . . . . . . . . ",
". . . . . . . . . . . . . . . . . . . . . . . . . . . . . . . . . . . . . . . . . . . . . . . . . . . . . . . . . . . . . . . . . . . . . . . ",
". . . . . . . . . . . . . . . . . . . . . . . . . . . . . . . . . . . . . . . . . . . . . . . . . . . . . . . . . . . . . . . . . . . . . . . ",
". . . . . . . . . . . . . . . . . . . . . . . . . . . . . . . . . . . . . . . . . . . . . . . . . . . . . . . . . . . . . . . . . . . . . . . ",
". . . . . . . . . . . . . . . . . . . . . . . . . . . . . . . + + + + + + + + + + . . . . . . . . . . . . . . . . . . . . . . . . . . . . . . ",
". . . . . . . . . . . . . . . . . . . . . . . . . . . . . . @ # $ % % % % % % & * = . . . . . . . . . . . . . . . . . . . . . . . . . . . . . ",
". . . . . . . . . . . . . . . . . . . . . . . . . . . . . - ; > , ' ) ) ) ) ! ~ { ] ^ . . . . . . . . . . . . . . . . . . . . . . . . . . . . ",
". . . . . . . . . . . . . . . . . . . . . . . . . . . . . / ( _ : < ) ) ) ) > : [ } | . . . . . . . . . . . . . . . . . . . . . . . . . . . . ",
". . . . . . . . . . . . . . . . . . . . . . . . . . . . . / 1 2 3 4 5 6 7 8 9 0 a b | . . . . . . . . . . . . . . . . . . . . . . . . . . . . ",
". . . . . . . . . . . . . . . . . . . . . . . . . . . . . / 1 ) ) c d e f g h ) ) b | . . . . . . . . . . . . . . . . . . . . . . . . . . . . ",
". . . . . . . . . . . . . . . . . . . . . . . . . . . . . / 1 ) ) ) i j k l ) ) ) b | . . . . . . . . . . . . . . . . . . . . . . . . . . . . ",
". . . . . . . . . . . . . . . . . . . . . . . . . . . . . / 1 ) 6 m g n o g p q ) b | . . . . . . . . . . . . . . . . . . . . . . . . . . . . ",
". . . . . . . . . . . . . . . . . . . . . . . . . . . . . / 1 5 r 4 s ) ) t u v w b | . . . . . . . . . . . . . . . . . . . . . . . . . . . . ",
". . . . . . . . . . . . . . . . . . . . . . . . . . . . . / x y z A ) ) ) ) B C D } | . . . . . . . . . . . . . . . . . . . . . . . . . . . . ",
". . . . . . . . . . . . . . . . . . . . . . . . . . . . . / E F G H ) ) ) ) 7 I G J | . . . . . . . . . . . . . . . . . . . . . . . . . . . . ",
". . . . . . . . . . . . . . . . ^ K L M N . . . . . . . . / 1 ) ) ) ) 7 O ) ) ) ) b | . . . . . . . P ^ M L Q N . . . . . . . . . . . . . . . ",
". . . . . . . . . . . . . / R S T U V W X Y Z `  .. . . . / 1 ) ) l ..+.@.3 #.) ) b | . . . . $.%.&.*.T =.-.U X ;.>.| . . . . . . . . . . . . ",
". . . . . . . . . . . . ,.'.).) ) ) ) ) ) ) !.~.{.].. . . / 1 ) ^.9 /.(.B e 9 _.) b | . . . :.<.[.}.) ) ) ) ) ) ) |.1.2.. . . . . . . . . . . ",
". . . . . . . . . . 3.4.5.) ) ) ) ) ) ) ) ) ) ) ) 6.7.8.. / 1 9.0.a.H ) ) b.G 4 5 b | . c.d.e.) ) ) ) ) ) ) ) ) ) ) ) f.g.. . . . . . . . . . ",
". . . . . . . . . h.i.) ) ) ) ) j.k.l.m.n.h o.b.) ) ) p.q./ r.[ s.) ) ) ) ) ) t.u.v.| w.x.) ) ) y.z.A.9.m.5 2 B.) ) ) ) ) C.. . . . . . . . . ",
". . . . . . . . . D.) ) ) ) ) c E.F.G.H.z I.J.K.L.M.) ) N.O.P.9 i ) ) ) ) ) ) m.Q.R.S.T.) ) ' U.V.W.X.z H.G.Y.Z.#.) ) ) ) j.`.. . . . . . . . ",
". . . . . . . .  +.+) ) ) ) ++@+: : : : : : : : #+$+%+) ) &+*+=+l ) ) ) ) ) ) -+9 ;+>+) ) ,+'+j : : : : : : : : )+p ) ) ) ) !+~+. . . . . . . ",
". . . . . . .  .<.) ) ) ) {+]+: : : : j ^+^+/+: : : (+(.) ) _+:+I ) ) ) ) ) ) <+D 7 ) ) [+}+: : : |+^+1+j : : : : 2+w ) ) ) ) 3+. . . . . . . ",
". . . . . . . 4+5+) ) ) 6+7+: : : 8+9+_.#.#.0+a+b+: : /+c+) ) d+e+f+) ) ) ) w 0.g+) ) o 8+: : )+{ %+s h h+D 8+: : : r O ) ) ) i+j+. . . . . . ",
". . . . . . . @ }.) ) ) k+k : : l+o 6 ) ) ) ) ) m+, #+: }+L.) n+v o+L.p+q+U.e+Z.q ) g+r+: s+t+2 ) ) ) ) ) u+v+8+: : I.5 ) ) ) w+x+. . . . . . ",
". . . . . . . y+) ) ) ) a+: : : z+) ) ) ) ) ) ) ) ) A+G.: 4 B+) ' C+D+b+b+e+A+6+) h @+: E+G ) ) ) ) ) ) ) ) ) F+: : : 0 ) ) ) ) G+. . . . . . ",
". . . . . . + H+) ) ) q I+: : 2+k.) ) ) ) ) ) ) ) ) ) o 8+: ~ ) ) ) J+K+L+M+) ) b.N+: C O+) ) ) ) ) ) ) ) ) ) P+]+: : V.H ) ) ) Q+R+. . . . . ",
". . . . . . + % ) ) ) 6+e+: : s.) ) ) ) ) ) ) ) ) ) ) u+S+: T+U+) ) ) ) ) ) ) ) d 1+: f O ) ) ) ) ) ) ) ) ) ) ) V+: : W+7 ) ) ) $ + . . . . . ",
". . . . . . + H+) ) ) 6+e+: z 0+) ) ) ) ) ) ) ) ) ) ) ) l.T+: X+) ) ) ) ) ) ) H Y+: Z+l ) ) ) ) ) ) ) ) ) ) ) ) `+H.: '+O ) ) )  @R+. . . . . ",
". . . . . . . .@) ) ) O W+: ^+s ) ) ) ) ) ) ) ) ) ) ) ) B.u.: Y.m+) ) ) ) ) ) P++@: z+) ) ) ) ) ) ) ) ) ) ) ) ) t r+: 9+H ) ) ) 4.. . . . . . ",
". . . . . . . @@B.) ) j.v : #@P+) ) ) ) ) ) ) ) ) ) ) ) ) $@^+C A ) ) ) ) ) ) A+8+}+l ) ) ) ) ) ) ) ) ) ) ) ) ) %@s+: Z.) ) ) }.&@. . . . . . ",
". . . . . . . *@=@) ) ) C+: s+-@) ) ) ) ) ) ) ;@) ) ) ) ) >@y : V.y.) ) ) ) 7 +.: 7+q ) ) ) ) ) ,@) ) ) ) ) ) ) g k 8+(.) ) ) '@)@. . . . . . ",
". . . . . . . - !@) ) ) 8 |+H.L.) ) ) ) ) ) L+~@_.) ) ) ) ) O+8+Y.{@) ) ) ) ]@+@l+A ) ) ) ) ) h+^@,@) ) ) ) ) ) A l+r+/@) ) ) (@_@. . . . . . ",
". . . . . . . . :@<@) ) [@}@: z+) ) ) ) ) ) U.l+}@c ) ) ) H %@^+|+d ) ) ) ) |@#+T+B+j.) ) ) 5 W.j 1@) ) ) ) ) ) u.: u 2@) ) 3@4@. . . . . . . ",
". . . . . . . . 5@6@) ) B.7@: 8@M.) ) ) ) ) 9@: : z+) ) _.(.[@0@: a@) ) ) ) { : 8@b@(.c@) j.u.: 8+d+) ) ) ) ) d@)+: t+) ) ) e@f@. . . . . . . ",
". . . . . . . . . g@h@) ) i I.X.{+) ) ) ) ) i@: : j@n+v+j @.7 /.: r H ) ) y.D : t.u+k@/+o d@2+: : (.) ) ) ) ) ,+|+l@-@) ) m@n@. . . . . . . . ",
". . . . . . . . . . o@) ) O _ : u.H -+A+i _+L.H.: u p@I.: s.) a@8+D+n+) ) ' q@8+I B.t.: l@1@r@: #+s@t@d c+-@b.u@: Y+H ) ) v@. . . . . . . . . ",
". . . . . . . . . . 5@w@) ) k+I.E+5 m z G.x@`+Q.: '+n : k %+) ,+#+y@[@) ) q+z@k g ) p@#+8+C+e+: k@m A@k k B@8 ^+}+l.) ) C@D@. . . . . . . . . ",
". . . . . . . . . . . q.E@) b.F@: r M+9+: : '+B 9 G@h+E+H@q ) I@I.J@K@) ) c s+L@B+) 6+E.M@p@c+j@(.N@: : [ b@x@: F+) ) O@P@. . . . . . . . . . ",
". . . . . . . . . . . . Q@R@) -@y@l+(.#.S@T@M@;@b@b.) m+q ) ) U@V@T@5 ) ) 8 #+W@[@) ) >@U@) b.J+s L@s+u@m+c+8+X@L+) Y@Z@. . . . . . . . . . . ",
". . . . . . . . . . . . . `@ #) < 8+.#s _+U+l.) L.f A ) ) ) ) ! ]+j ,+) ) ++l+X@+#) ) ) ) (.Y+|@) l.w 6+t Y.8+O+) R@@#. . . . . . . . . . . . ",
". . . . . . . . . . . . . . ##$#o.N@: X+B.) ) [@W++@O+) ) ) ) +#%#l+_.) ) (.8+0._+) ) ) ) 0 E+7+M+) ) b.Y+: @.&#R@`@. . . . . . . . . . . . . ",
". . . . . . . . . . . . . . . *#=#p@s+E+w ) ) ) -#]@B.b.6+t@+#,@q@8+;#) ) C+: j@q++#t@6+b.j.,@k.) ) ) g >##@s@,#`@. . . . . . . . . . . . . . ",
". . . . . . . . . . . . . . . . '#~.V+: H@[@K+8 F n f +.8@)+X@r@l+: O+) ) n : j r@X@0@^@@.Y+3 )#n.L+!#~#: z+!+{#. . . . . . . . . . . . . . . ",
". . . . . . . . . . . . . . . . . `.]#y@/+y@>#z C : : : : 8+C H.j #+<+) ) { #+j H.C 8+: : : : C /+>#Y.j X@^#:@. . . . . . . . . . . . . . . . ",
". . . . . . . . . . . . . . . . . f@/#A@l+G.L@y@u N@S+V+3 (#g+p m.s@k.) ) ;@0+m.p@G (#n u.S@_#=+W@J@k l+V.:#<#. . . . . . . . . . . . . . . . ",
". . . . . . . . . . . . . . . . . [#}#k+^.l.B+o.t@6 H ) ) ) ) ) ) ) ) ) ) ) ) ) ) ) ) ) ) b.>@|#[@K@g g+$@1#P . . . . . . . . . . . . . . . . ",
". . . . . . . . . . . . . . . . . 2#3#) ) ) ) ) ) ) ) ) ) ) ) ) ) ) ) B.B.) ) ) ) ) ) ) ) ) ) ) ) ) ) ) ) 4#5#. . . . . . . . . . . . . . . . ",
". . . . . . . . . . . . . . . . 6#7#) ) ) ) ) y.' m+w 0+g+c+{ F+Z.V+u.~#~#u.V+Z.~ 8#O+h+s@l k.&#y.) ) ) ) ) $ - . . . . . . . . . . . . . . . ",
". . . . . . . . . . . . . . . . 9#0#) ) q+p ..$+2+V@r+#+C : : 8+l+H.j j j j H.l+8+: : C #+s++@=+a#8#m.{@) ) b#c#. . . . . . . . . . . . . . . ",
". . . . . . . . . . . . . . . . d#e#H 0 J.j : #+J@J.8@x@~#{ O+f#U.g#1@m.m.1@g#U.h#c+..N+a#~@]+#@j : #+%#<+) i#j#. . . . . . . . . . . . . . . ",
". . . . . . . . . . . . . . . . k#l#m#z L@N@{ |@P+b@6+b.) ) ) t@l U.0 H@n#i@`+A.n+) ) ) b.u+! L+p@t+o##@T@I@X p#. . . . . . . . . . . . . . . ",
". . . . . . . . . . . . . . . . . q#r#++0+,@' ) ) ) ) ) ) ) z.$+I.l+: : : : l+1+s#a ) ) ) ) ) ) ) +#t#|@_.u#v#. . . . . . . . . . . . . . . . ",
". . . . . . . . . . . . . . . . . . `.w#7+F.~@l ) ) ) ) ) ) B.h#a#}@T+^+^+E+X@9+)#) ) ) ) ) ) ) 5 0.F.K.x#y#. . . . . . . . . . . . . . . . . ",
". . . . . . . . . . . . . . . . . . z#A#^@: 4 f+) ) ) ) ) ) ) j.6+o.B#A.I@t#a >@j.) ) ) ) ) ) ) l @+: :+C#D#. . . . . . . . . . . . . . . . . ",
". . . . . . . . . . . . . . . . . . E#F#.., h H t@k.w p G@{ t.K.x@a#D $+$+D a#x@K.V+8#d+|@-@p+M.H -@F+o G#H#. . . . . . . . . . . . . . . . . ",
". . . . . . . . . . . . . . . . . . I#J#-#i <+_ 9 z@r+#+z r+#@}+V@F.Y.W.W.Y.F.V@}+>#r+z #+r+M@4 /.A+l.!#K#f@. . . . . . . . . . . . . . . . . ",
". . . . . . . . . . . . . . . . . . L#M#N#G.|+z@0.S+8#)#%+w P+-#k.z.a b@! a z.U@-#f+t B@F ..s#9 +@/+T@G O#P#. . . . . . . . . . . . . . . . . ",
". . . . . . . . . . . . . . . . . . + Q#R#[+n.U@M.H ) ) ) ) ) ) ) ) ) ) ) ) ) ) ) ) ) ) ) ) H M.-#k+C+S#T#$.. . . . . . . . . . . . . . . . . ",
". . . . . . . . . . . . . . . . . . . U#V#W#X#O#Y#Z#`# $w+j.B.) ) ) ) ) ) ) ) ) ) B.j.w+ $`#.$Y#O#+$@$*##$. . . . . . . . . . . . . . . . . . ",
". . . . . . . . . . . . . . . . . . . . . . R+<#p#j+$$##%$&$*$=$-$;$>$,$,$>$;$-$=$'$)$n@:.j#!$5@<#. . . . . . . . . . . . . . . . . . . . . . ",
". . . . . . . . . . . . . . . . . . . . . . . . . . . . . . . . . . . . . . . . . . . . . . . . . . . . . . . . . . . . . . . . . . . . . . . ",
". . . . . . . . . . . . . . . . . . . . . . . . . . . . . . . . . . . . . . . . . . . . . . . . . . . . . . . . . . . . . . . . . . . . . . . ",
". . . . . . . . . . . . . . . . . . . . . . . . . . . . . . . . . . . . . . . . . . . . . . . . . . . . . . . . . . . . . . . . . . . . . . . ",
". . . . . . . . . . . . . . . . . . . . . . . . . . . . . . . . . . . . . . . . . . . . . . . . . . . . . . . . . . . . . . . . . . . . . . . ",
". . . . . . . . . . . . . . . . . . . . . . . . . . . . . . . . . . . . . . . . . . . . . . . . . . . . . . . . . . . . . . . . . . . . . . . ",
". . . . . . . . . . . . . . . . . . . . . . . . . . . . . . . . . . . . . . . . . . . . . . . . . . . . . . . . . . . . . . . . . . . . . . . ",
". . . . . . . . . . . . . . . . . . . . . . . . . . . . . . . . . . . . . . . . . . . . . . . . . . . . . . . . . . . . . . . . . . . . . . . ",
". . . . . . . . . . . . . . . . . . . . . . . . . . . . . . . . . . . . . . . . . . . . . . . . . . . . . . . . . . . . . . . . . . . . . . . "};
