/* XPM */
static char * ybbn_xpm[] = {
"71 71 472 2",
"  	c None",
". 	c #1C8D1C",
"+ 	c #1D8D1D",
"@ 	c #1D861D",
"# 	c #155F15",
"$ 	c #197519",
"% 	c #145314",
"& 	c #114711",
"* 	c #1C821C",
"= 	c #155915",
"- 	c #000100",
"; 	c #0B250B",
"> 	c #196B19",
", 	c #1A741A",
"' 	c #061206",
") 	c #000000",
"! 	c #124912",
"~ 	c #124B12",
"{ 	c #092409",
"] 	c #197319",
"^ 	c #165316",
"/ 	c #091909",
"( 	c #1C7A1C",
"_ 	c #134E13",
": 	c #0F380F",
"< 	c #1D881D",
"[ 	c #1C8B1C",
"} 	c #0E340E",
"| 	c #124E12",
"1 	c #145814",
"2 	c #010101",
"3 	c #125112",
"4 	c #1D831D",
"5 	c #091C09",
"6 	c #081C08",
"7 	c #1B711B",
"8 	c #176517",
"9 	c #020402",
"0 	c #165F16",
"a 	c #145A14",
"b 	c #040E04",
"c 	c #103210",
"d 	c #1C751C",
"e 	c #1C741C",
"f 	c #060C06",
"g 	c #0F0F0F",
"h 	c #585858",
"i 	c #646464",
"j 	c #494E49",
"k 	c #3F443F",
"l 	c #050505",
"m 	c #0A260A",
"n 	c #176217",
"o 	c #208120",
"p 	c #1C7C1C",
"q 	c #1A721A",
"r 	c #176D17",
"s 	c #1A7D1A",
"t 	c #1C8A1C",
"u 	c #1A7B1A",
"v 	c #051205",
"w 	c #3F3F3F",
"x 	c #AAAAAA",
"y 	c #FBFBFB",
"z 	c #FCFCFC",
"A 	c #E9E9E9",
"B 	c #B4B4B4",
"C 	c #151515",
"D 	c #040904",
"E 	c #0A160A",
"F 	c #040A04",
"G 	c #020702",
"H 	c #040B04",
"I 	c #061506",
"J 	c #114411",
"K 	c #1B891B",
"L 	c #176817",
"M 	c #4E564E",
"N 	c #BABABA",
"O 	c #D8D8D8",
"P 	c #FFFFFF",
"Q 	c #8D8D8D",
"R 	c #929292",
"S 	c #7E7E7E",
"T 	c #080808",
"U 	c #565656",
"V 	c #484848",
"W 	c #252525",
"X 	c #090909",
"Y 	c #082108",
"Z 	c #1B791B",
"` 	c #1C861C",
" .	c #1D8A1D",
"..	c #1E8B1E",
"+.	c #1D461D",
"@.	c #A9A9A9",
"#.	c #6D6D6D",
"$.	c #616161",
"%.	c #C1C1C1",
"&.	c #1D1D1D",
"*.	c #6F6F6F",
"=.	c #4C4C4C",
"-.	c #343434",
";.	c #E3E3E3",
">.	c #F6F6F6",
",.	c #E1E1E1",
"'.	c #B6B6B6",
").	c #7C7C7C",
"!.	c #3C3C3C",
"~.	c #092109",
"{.	c #0F340F",
"].	c #144A14",
"^.	c #196419",
"/.	c #1B6F1B",
"(.	c #070F07",
"_.	c #3E3E3E",
":.	c #212121",
"<.	c #454545",
"[.	c #464646",
"}.	c #727272",
"|.	c #A4A4A4",
"1.	c #D9D9D9",
"2.	c #F9F9F9",
"3.	c #ECECEC",
"4.	c #ACACAC",
"5.	c #5E5E5E",
"6.	c #101010",
"7.	c #102410",
"8.	c #1B721B",
"9.	c #1D8C1D",
"0.	c #124712",
"a.	c #040404",
"b.	c #202020",
"c.	c #5D5D5D",
"d.	c #A5A5A5",
"e.	c #EBEBEB",
"f.	c #B3B3B3",
"g.	c #575757",
"h.	c #020202",
"i.	c #185B18",
"j.	c #1C8C1C",
"k.	c #1D841D",
"l.	c #0B220B",
"m.	c #060606",
"n.	c #434343",
"o.	c #9A9A9A",
"p.	c #F1F1F1",
"q.	c #F3F3F3",
"r.	c #919191",
"s.	c #2A2A2A",
"t.	c #0A1F0A",
"u.	c #103F10",
"v.	c #1A621A",
"w.	c #1C811C",
"x.	c #1C6D1C",
"y.	c #050905",
"z.	c #030303",
"A.	c #535353",
"B.	c #B5B5B5",
"C.	c #BBBBBB",
"D.	c #4D4D4D",
"E.	c #030503",
"F.	c #0A1E0A",
"G.	c #124812",
"H.	c #1C761C",
"I.	c #144E14",
"J.	c #161616",
"K.	c #8B8B8B",
"L.	c #FDFDFD",
"M.	c #DBDBDB",
"N.	c #5F5F5F",
"O.	c #081B08",
"P.	c #176A17",
"Q.	c #0C320C",
"R.	c #0B0B0B",
"S.	c #171717",
"T.	c #626262",
"U.	c #555555",
"V.	c #E5E5E5",
"W.	c #DFDFDF",
"X.	c #606060",
"Y.	c #0F360F",
"Z.	c #134F13",
"`.	c #1D7F1D",
" +	c #868686",
".+	c #D1D1D1",
"++	c #878787",
"@+	c #959595",
"#+	c #E0E0E0",
"$+	c #020502",
"%+	c #0E3B0E",
"&+	c #187318",
"*+	c #176117",
"=+	c #030903",
"-+	c #757575",
";+	c #D3D3D3",
">+	c #A8A8A8",
",+	c #848484",
"'+	c #898989",
")+	c #111111",
"!+	c #262626",
"~+	c #0C0C0C",
"{+	c #656565",
"]+	c #D5D5D5",
"^+	c #0A210A",
"/+	c #155E15",
"(+	c #1E7D1E",
"_+	c #0C290C",
":+	c #707070",
"<+	c #7B7B7B",
"[+	c #505050",
"}+	c #9E9E9E",
"|+	c #D6D6D6",
"1+	c #181818",
"2+	c #7D7D7D",
"3+	c #FEFEFE",
"4+	c #B7B7B7",
"5+	c #071107",
"6+	c #175317",
"7+	c #114511",
"8+	c #D4D4D4",
"9+	c #696969",
"0+	c #777777",
"a+	c #BCBCBC",
"b+	c #222222",
"c+	c #0A0A0A",
"d+	c #9B9B9B",
"e+	c #8E8E8E",
"f+	c #030403",
"g+	c #0E460E",
"h+	c #196819",
"i+	c #121212",
"j+	c #D2D2D2",
"k+	c #CFCFCF",
"l+	c #242424",
"m+	c #313131",
"n+	c #303030",
"o+	c #CACACA",
"p+	c #F2F2F2",
"q+	c #595959",
"r+	c #155015",
"s+	c #1C881C",
"t+	c #0D340D",
"u+	c #C8C8C8",
"v+	c #6E6E6E",
"w+	c #5B5B5B",
"x+	c #CECECE",
"y+	c #666666",
"z+	c #1A1A1A",
"A+	c #091409",
"B+	c #187218",
"C+	c #165D16",
"D+	c #030603",
"E+	c #141414",
"F+	c #9C9C9C",
"G+	c #1B1B1B",
"H+	c #747474",
"I+	c #081108",
"J+	c #123C12",
"K+	c #155115",
"L+	c #1E851E",
"M+	c #1E871E",
"N+	c #0D2F0D",
"O+	c #070707",
"P+	c #B0B0B0",
"Q+	c #949494",
"R+	c #131313",
"S+	c #4B4B4B",
"T+	c #EEEEEE",
"U+	c #CBCBCB",
"V+	c #2D342D",
"W+	c #195319",
"X+	c #5C5C5C",
"Y+	c #424242",
"Z+	c #D0D0D0",
"`+	c #0F470F",
" @	c #1C801C",
".@	c #0B270B",
"+@	c #888888",
"@@	c #C5C5C5",
"#@	c #114911",
"$@	c #114A11",
"%@	c #858585",
"&@	c #1F1F1F",
"*@	c #EFEFEF",
"=@	c #B2B2B2",
"-@	c #FAFAFA",
";@	c #080A08",
">@	c #165716",
",@	c #176617",
"'@	c #071307",
")@	c #818181",
"!@	c #0D0D0D",
"~@	c #A7A7A7",
"{@	c #061406",
"]@	c #166316",
"^@	c #1C7F1C",
"/@	c #0B2D0B",
"(@	c #ABABAB",
"_@	c #A2A2A2",
":@	c #9F9F9F",
"<@	c #BFBFBF",
"[@	c #373737",
"}@	c #0B290B",
"|@	c #1B7F1B",
"1@	c #0F420F",
"2@	c #353535",
"3@	c #9D9D9D",
"4@	c #717171",
"5@	c #0C2B0C",
"6@	c #0A1C0A",
"7@	c #166516",
"8@	c #155515",
"9@	c #040504",
"0@	c #272727",
"a@	c #939393",
"b@	c #B8B8B8",
"c@	c #AEAEAE",
"d@	c #112A11",
"e@	c #156615",
"f@	c #1B811B",
"g@	c #1C891C",
"h@	c #196C19",
"i@	c #091809",
"j@	c #144514",
"k@	c #E2E2E2",
"l@	c #282828",
"m@	c #072307",
"n@	c #156A15",
"o@	c #1D8B1D",
"p@	c #0E390E",
"q@	c #071207",
"r@	c #113C11",
"s@	c #135713",
"t@	c #1B7B1B",
"u@	c #071A07",
"v@	c #1B781B",
"w@	c #1D791D",
"x@	c #3D3D3D",
"y@	c #031103",
"z@	c #176017",
"A@	c #1B871B",
"B@	c #808080",
"C@	c #0C360C",
"D@	c #383838",
"E@	c #071507",
"F@	c #115811",
"G@	c #175017",
"H@	c #4F4F4F",
"I@	c #F7F7F7",
"J@	c #C3C3C3",
"K@	c #134B13",
"L@	c #2F2F2F",
"M@	c #0C2C0C",
"N@	c #0D2C0D",
"O@	c #292929",
"P@	c #061106",
"Q@	c #186C18",
"R@	c #104310",
"S@	c #EAEAEA",
"T@	c #525252",
"U@	c #104210",
"V@	c #1F7F1F",
"W@	c #196619",
"X@	c #F8F8F8",
"Y@	c #092609",
"Z@	c #0E2B0E",
"`@	c #0E400E",
" #	c #333333",
".#	c #393939",
"+#	c #1D891D",
"@#	c #A1A1A1",
"##	c #787878",
"$#	c #040704",
"%#	c #155815",
"&#	c #1E881E",
"*#	c #1C871C",
"=#	c #144C14",
"-#	c #5A5A5A",
";#	c #185918",
">#	c #050605",
",#	c #A0A0A0",
"'#	c #071D07",
")#	c #3B3B3B",
"!#	c #091509",
"~#	c #1B701B",
"{#	c #0B1F0B",
"]#	c #C2C2C2",
"^#	c #0A270A",
"/#	c #515151",
"(#	c #133F13",
"_#	c #1E8D1E",
":#	c #1A7C1A",
"<#	c #0E310E",
"[#	c #1C1C1C",
"}#	c #050D05",
"|#	c #196A19",
"1#	c #145F14",
"2#	c #041204",
"3#	c #040804",
"4#	c #196719",
"5#	c #218B21",
"6#	c #103C10",
"7#	c #E4E4E4",
"8#	c #113E11",
"9#	c #1B881B",
"0#	c #0F460F",
"a#	c #474747",
"b#	c #050F05",
"c#	c #061606",
"d#	c #1B7D1B",
"e#	c #1B7E1B",
"f#	c #145214",
"g#	c #0E250E",
"h#	c #071707",
"i#	c #1A6A1A",
"j#	c #155315",
"k#	c #020302",
"l#	c #C4C4C4",
"m#	c #0D280D",
"n#	c #1E621E",
"o#	c #1D821D",
"p#	c #227822",
"q#	c #113711",
"r#	c #020802",
"s#	c #000200",
"t#	c #0A220A",
"u#	c #145B14",
"v#	c #166116",
"w#	c #114611",
"x#	c #1D871D",
"y#	c #187018",
"z#	c #166416",
"A#	c #166616",
"B#	c #071007",
"C#	c #186918",
"D#	c #0E3D0E",
"E#	c #909090",
"F#	c #0D350D",
"G#	c #030703",
"H#	c #166216",
"I#	c #0C300C",
"J#	c #737373",
"K#	c #BEBEBE",
"L#	c #010201",
"M#	c #0E380E",
"N#	c #176717",
"O#	c #6A6A6A",
"P#	c #131A13",
"Q#	c #133913",
"R#	c #1A811A",
"S#	c #1B831B",
"T#	c #1B851B",
"U#	c #0A230A",
"V#	c #175F17",
"W#	c #1A7A1A",
"X#	c #041004",
"Y#	c #D7D7D7",
"Z#	c #0F350F",
"`#	c #1A701A",
" $	c #4E4E4E",
".$	c #191919",
"+$	c #071407",
"@$	c #1A6F1A",
"#$	c #051505",
"$$	c #0D210D",
"%$	c #1F3D1F",
"&$	c #081D08",
"*$	c #186F18",
"=$	c #1A7F1A",
"-$	c #1A861A",
";$	c #1A871A",
". . . . . . . . . . . . . . . . . . . . . . . . . . . . . . . . . . . . . . . . . . . . . . . . . . . . . . . . . . . . . . . . . . . . . . . ",
". . . . . . . . . . . . . . . . . . . . . . . . . . . . . . . . . . . . . . . . . . . . . . . . . . . . . . . . . . . . . . . . . . . . . . . ",
". . . . . . . . . . . . . . . . . . . . . . . . . . . . . . . . . . . . . . . . . . . . . . . . . . . . . . . . . . . . . . . . . . . . . . . ",
". . . . . . . . . . . . . . . . . . . . . . . . . . . . . . . . . . . . . . . . . . . . . . . . . . . . . . . . . . . . . . . . . . . . . . . ",
". . . . . . . . . . . . . . . . . . . . . . . . . . . . . . . . . . . . . . . . . . . . . . . . . . . . . . . . . . . . . . . . . . . . . . . ",
". . . . . . . . . . . . . . . . . . . . . . . . . . . . . . . . . . . . . . . . . . . . . . . . . . . . . . . . . . . . . . . . . . . . . . . ",
". . . . . . . . . . . . . . . . . . . . . . . . . . . . . + . . . . . . . . . . . . . . . . . . . . . . . . . . . . . . . . . . . . . . . . . ",
". . . . . . . . . . . . . . . . . . . @ # $ . . . . . . % & * . . . . . . . . . . . . . . . . . . . . . . . . . . . . . . . . . . . . . . . . ",
". . . . . . . . . . . . . . . . . . . = - ; > . . . . , ' ) ! . . . . . . . . . . . . . . . . . . . . . . . . . . . . . . . . . . . . . . . . ",
". . . . . . . . . . . . . . . . . . . ~ ) ) { ] . . . ^ ) ) / ( . . . . . . . . . . . . . . . . . . . . . . . . . . . . . . . . . . . . . . . ",
". . . . . . . . . . . . . . . . . . . _ ) ) ) : < . [ } ) ) ) | . . . . . . . . . . . . . . . . . . . . . . . . . . . . . . . . . . . . . . . ",
". . . . . . . . . . . . . . . . . . . 1 ) ) ) 2 3 . 4 5 ) ) ) 6 7 . . . . . . . . . . . . . . . . . . . . . . . . . . . . . . . . . . . . . . ",
". . . . . . . . . . . . . . . . . . . 8 9 ) ) ) 5 0 a b ) ) ) ) c d . . . . . . . . . . . . . . . . . . . . . . . . . . . . . . . . . . . . . ",
". . . . . . . . . . . . . . . . . . . e f ) g h i j k l ) ) ) ) ) m n o p q r , s t . . . . . . . . . . . . . . . . . . . . . . . . . . . . . ",
". . . . . . . . . . . . . . . . . . . u v w x y z A B C ) ) ) ) ) ) D E ' F G H I J K . . . . . . . . . . . . . . . . . . . . . . . . . . . . ",
". . . . . . . . . . . . . . . . . . . L M N O P Q R S ) ) ) ) ) ) T U V W X ) ) ) Y Z `  .. . . . . . . . . . . . . . . . . . . . . . . . . . ",
". . . . . . . . . . . . . . . . . . ..+.@.#.$.%.&.*.=.) ) ) ) ) ) -.;.>.,.'.).!.X ) I ~.{.].^.p . . . . . . . . . . . . . . . . . . . . . . . ",
". . . . . . . . . . . . . . . . . . /.(._.) :.<.) &.2 ) ) ) ) ) ) T [.}.|.1.2.3.4.5.6.) ) ) 9 7.8.. . . . . . . . . . . . . . . . . . . . . . ",
". . . . . . . . . . . . . . . . . 9.0.) ) ) ) ) ) ) ) ) ) ) ) ) ) ) ) ) a.b.c.d.e.2.f.g.h.) ~.i.j.. . . . . . . . . . . . . . . . . . . . . . ",
". . . . . . . . . . . . . . . . . k.l.) ) ) ) ) ) ) ) ) ) ) ) ) ) ) ) ) ) ) ) m.n.o.p.q.r.s.H t.u.v.w.. . . . . . . . . . . . . . . . . . . . ",
". . . . . . . . . . . . . . . . . x.y.) ) ) ) ) ) ) ) ) ) ) ) ) ) ) ) ) ) ) ) ) ) z.A.B.P C.D.) ) E.F.G.H.. . . . . . . . . . . . . . . . . . ",
". . . . . . . . . . . . . . . . . I.) ) ) ) ) ) ) ) ) ) ) ) ) ) ) ) ) J.[.) ) ) ) ) ) b.K.L.M.N.) ) ) ) O.P.. . . . . . . . . . . . . . . . . ",
". . . . . . . . . . . . . . . . [ Q.) ) ) ) ) R.S.J.h.) ) ) ) ) ) ) ) T.q.U.) ) ) ) ) ) ) }.V.W.X.) H Y.Z.`.. . . . . . . . . . . . . . . . . ",
". . . . . . . . . . . . . . . . * O.) ) ) _. +C..+.+++X ) ) ) ) ) ) ) h y @+2 ) ) ) ) ) ) ) $.#+W.N.$+%+&+. . . . . . . . . . . . . . . . . . ",
". . . . . . . . . . . . . . . . *+=+) ) -+;+>+*.c.,+'+)+) ) ) ) ) ) ) !+M.%.~+) ) ) ) ) ) ) ) {+p.]+[.) ^+/+. . . . . . . . . . . . . . . . . ",
". . . . . . . . . . . . . . . (+_+) ) :+M.T.U.<+[+) m.) ) ) ) ) ) ) ) z.}+|+1+) ) ) ) ) ) ) ) ) 2+3+4+!+) 5+6+9.. . . . . . . . . . . . . . . ",
". . . . . . . . . . . . . . . 7+) ) !.8+9+0+q.P a+)+) ) ) ) ) ) ) ) ) ) :+,.b+) ) ) ) ) ) ) ) ) c+d+P e+2 ) f+g+. . . . . . . . . . . . . . . ",
". . . . . . . . . . . . . . h+(.) ) e+B i+).j+k+0+) ) ) ) ) ) ) ) ) ) ) g.W.l+) m+) ) ) ) ) ) ) ) n+o+p+q+) ) 2 r+. . . . . . . . . . . . . . ",
". . . . . . . . . . . . . s+t+) ) )+u+v+) z.J.J.) ) ) ) ) ) ) ) ) ) ) ) w+x+J.T.]+W ) ) ) ) ) ) ) ) y+2.C.z+) ) A+B+. . . . . . . . . . . . . ",
". . . . . . . . . . . . . C+D+) ) ) =.E+) ) ) ) ) ) ) ) ) ) ) ) ) ) ) ) 2+|.m.F+]+G+) ) ) ) ) ) ) ) c+d.3+H+I+J+K+L+. . . . . . . . . . . . . ",
". . . . . . . . . . . . M+N+) ) ) ) ) ) ) ) ) ) ) ) ) ) ) ) ) ) ) ) ) O+P+9+J.x+Q+h.R+S+) ) ) ) ) ) ) S+T+U+V+W+. . . . . . . . . . . . . . . ",
". . . . . . . . . . . . a 9 ) ) ) ) ) ) ) ) ) ) ) ) ) ) ) ) ) ) ) ) ) _.%.!+X+#+Y+) v+Z+J.) ) ) ) ) ) l }+3+-+z.`+. . . . . . . . . . . . . . ",
". . . . . . . . . . .  @.@) ) ) ) ) ) ) ) ) ) ) ) ) ) ) ) ) ) ) ) ) h.@+,+1+B +@) ~+B.@.O+) ) ) ) ) ) ) D.p+@@1+2 #@. . . . . . . . . . . . . ",
". . . . . . . . . . . $@) ) ) ) ) ) ) ) ) ) ) ) ) ) ) ) ) ) ) ) ) ) N.C.s.%@P+&@) h *@X.) ) ) ) ) ) ) ) R.=@-@5.) ;@>@. . . . . . . . . . . . ",
". . . . . . . . . . ,@'@) ) ) ) ) ) ) ) ) ) ) ) ) ) ) ) ) ) ) ) ) a.q+T.)@C.!.) l+'.|.!@) ) ) ) ) ) ) ) ) 9+z ~@m.) {@]@. . . . . . . . . . . ",
". . . . . . . . . ^@/@) ) ) ) ) ) ) ) ) ) ) ) ) ) ) ) ) ) ) ) ) ) ) n+(@_@m+) W :@<@[@) ) ) ) ) ) ) ) ) ) W M.V.n+) ) }@|@. . . . . . . . . . ",
". . . . . . . . . 1@) ) ) ) ) ) ) ) ) ) ) ) ) ) ) ) ) ) ) ) ) ) ) ) 2@i )+)+h '.P+_.) ) ) ) ) ) ) ) ) ) ) z.3@3+4@/ 5@6@7@. . . . . . . . . . ",
". . . . . . . . 8@9@) ) ) ) ) ) ) ) ) ) ) ) ) ) ) ) ) ) ) ) ) ) ) ) 0@*.a@b@4+*.C ) ) ) ) ) ) ) ) ) ) ) ) ) N.y c@d@e@f@g@. . . . . . . . . . ",
". . . . . . . h@i@) ) ) ) ) ) ) ) ) ) ) ) ) ) ) ) ) ) ) ) - O.j@6@) [@S v+n.E+) ) ) ) ) ) ) ) ) ) ) ) ) ) ) 0@,.k@l@m@n@. . . . . . . . . . . ",
". . . . . . o@p@) O+) ) ) ) ) ) ) ) ) ) ) ) ) ) ) ) q@.@r@s@t@w.u@) ) ) ) ) ) ) ) ) ) ) ) ) ) ) ) ) ) ) ) ) T B -@X+) }@v@. . . . . . . . . . ",
". . . . . . w@5+x@<+)+) ) ) ) ) ) ) ) ) ) ) ) ) ) y@z@A@9.. . /.=+) ) ) ) ) ) ) ) ) ) ) ) ) ) ) ) ) ) ) ) ) ) B@P r.) ) C@k.. . . . . . . . . ",
". . . . . . z@E.@+V.D@) ) ) ) ) ) ) ) ) ) ) ) ) E@F@. . . . . G@) ) ) ) ) ) ) ) ) ) ) ) ) ) ) ) ) ) ) ) ) ) ) H@I@J@g ) ) K@9.. . . . . . . . ",
". . . . . . I.c+4+P P+L@) ) ) ) ) ) ) ) ) ) ) M@8 . . . . . s+N@) ) ) ) ) ) ) ) ) ) ) ) ) ) ) ) ) ) ) ) ) ) ) !+k@V.O@G ) P@Q@. . . . . . . . ",
". . . . . . R@) -+*@S@D.) T@{+z+) ) ) ) ) ) U@V@. . . . . . W@D ) ) ) ) ) ) ) ) ) ) ) ) ) ) ) ) ) ) ) ) ) ) ) g @@X@H@Y@| Z@a . . . . . . . . ",
". . . . . . `@) )  #m+) .#;.P )@) ) ) ) ) g++ . . . . . . +#Y.) ) ) ) ) ) ) ) ) ) ) ) ) ) ) ) ) ) ) ) ) ) ) ) z.@#P ##$#%#&#*#. . . . . . . . ",
". . . . . 9.=#) ) ) ) ) -#L.P ).) ) ) ) %+o@. . . . . . . ;#>#) ) ) ) ) ) ) ) ) ) ) ) ) ) ) ) ) ) ) ) ) ) ) ) ) <+P ,#z.'#&+. . . . . . . . . ",
". . . . . . ^.9 ) ) ) ) )#M.O O@) ) ) !#~#. . . . . . . ~#{#) ) ) ) ) ) ) ) ) ) ) ) ) ) ) ) ) ) ) ) ) ) ) ) ) ) g.y ]#~+) u.+ . . . . . . . . ",
". . . . . . w.^#) ) ) ) ) [./#) ) ) ) (#_#. . . . . . :#<#) ) ) ) ) ) ) ) ) ) ) ) ) ) ) ) ) ) ) ) ) ) ) ) ) ) ) )#p.M.[#) }#|#. . . . . . . . ",
". . . . . . . 1#2#) ) ) ) ) ) ) ) ) 3#4#. . . . . . 5#6#) ) ) ) ) ) ) ) ) ) ) ) ) ) ) ) ) ) ) ) ) ) ) ) ) ) ) ) 0@7#3.n+) ) 8#_#. . . . . . . ",
". . . . . . . . 1#m ) ) ) ) ) ) ) ) t+9#. . . . . . 0#) ) ) ) ) ) ) ) ) ) ) ) ) ) ) ) ) ) ) ) ) ) ) ) ) ) ) ) ) 1+]+>.a#b#b#c#d#. . . . . . . ",
". . . . . . . . . e#f#g#) ) ) ) ) h#i#. . . . . . j#k#) ) ) ) ) ) ) ) ) ) ) ) ) ) ) ) ) ) ) ) ) ) ) ) ) ) ) ) ) ~+l#z N.m#n#>@o#. . . . . . . ",
". . . . . . . . . . . p#q#r#s#9 t#u#. . . . . . v#'@) ) ) ) ) ) ) ) ) ) ) ) ) ) ) ) ) ) ) ) ) ) ) ) ) ) ) ) ) ) l f.P 0+) w#. . . . . . . . . ",
". . . . . . . . . . . . x#y#z#A#e#. . . . . . $ ; ) ) ) ) ) ) ) ) ) ) ) ) ) ) ) ) ) ) ) ) ) ) ) ) ) ) ) ) ) ) ) h.@#P K.) B#C#. . . . . . . . ",
". . . . . . . . . . . . . . . . . . . . . . j.D#) ) ) ) ) ) ) ) ) ) ) ) ) ) ) ) ) ) ) ) ) ) ) ) ) ) ) ) ) ) ) ) ) E#P ,#z.) F#g@. . . . . . . ",
". . . . . . . . . . . . . . . . . . . . . . *+3#) ) ) ) ) ) ) ) ) ) ) ) ) ) ) ) ) ) ) ) ) ) ) ) ) ) ) ) ) ) ) ) ) )@P P+a.) G#H#. . . . . . . ",
". . . . . . . . . . . . . . . . . . . . . A@I#) ) ) ) ) ) ) ) ) ) ) ) ) ) ) ) ) ) ) ) ) ) ) ) ) ) ) ) ) ) ) ) ) ) J#P K#R.L#) M#o@. . . . . . ",
". . . . . . . . . . . . . . . . . . . . . N#D ) ) ) ) ) ) ) ) ) ) ) ) ) ) ) ) ) ) ) ) ) ) ) ) ) ) ) ) ) ) ) ) ) ) O#3+@@P#Q#M#Y.R#. . . . . . ",
". . . . . . . . . . . . . . . . . . . . . U@) ) ) ) ) ) ) ) ) ) ) ) ) ) ) ) ) ) ) ) ) ) ) ) ) ) ) ) ) ) ) ) ) ) ) $.L.x+R+t+` S#. . . . . . . ",
". . . . . . . . . . . . . . . . . . . . T#U#) ) ) ) ) ) ) ) ) ) ) ) ) ) ) ) ) ) ) ) ) ) ) ) ) ) ) ) ) ) ) ) ) ) ) h y 8+J.D+V#. . . . . . . . ",
". . . . . . . . . . . . . . . . . . . . W#X#) ) ) ) ) ) ) ) ) ) ) ) ) ) ) ) ) ) ) ) ) ) ) ) ) ) ) ) ) ) ) ) ) ) ) A.-@Y#1+) Z# .. . . . . . . ",
". . . . . . . . . . . . . . . . . . . . `#r#) ) ) ) ) ) ) ) ) ) ) ) ) ) ) ) ) ) ) ) ) ) ) ) ) ) ) ) ) ) ) ) ) ) )  $j+P+.$) +$u . . . . . . . ",
". . . . . . . . . . . . . . . . . . . . @$5 I I I I I I I I I I I I I I I I I I I I I I I I I I I I I I I I I #$I $$%$%$c#I &$*$. . . . . . . ",
". . . . . . . . . . . . . . . . . . . . 9.|@|@|@|@|@|@|@|@|@|@|@|@|@|@|@|@|@|@|@|@|@|@|@|@|@|@|@|@|@|@|@|@|@|@=$|@f@-$;$|@|@|@j.. . . . . . . ",
". . . . . . . . . . . . . . . . . . . . . . . . . . . . . . . . . . . . . . . . . . . . . . . . . . . . . . . . . . . . . . . . . . . . . . . ",
". . . . . . . . . . . . . . . . . . . . . . . . . . . . . . . . . . . . . . . . . . . . . . . . . . . . . . . . . . . . . . . . . . . . . . . ",
". . . . . . . . . . . . . . . . . . . . . . . . . . . . . . . . . . . . . . . . . . . . . . . . . . . . . . . . . . . . . . . . . . . . . . . ",
". . . . . . . . . . . . . . . . . . . . . . . . . . . . . . . . . . . . . . . . . . . . . . . . . . . . . . . . . . . . . . . . . . . . . . . ",
". . . . . . . . . . . . . . . . . . . . . . . . . . . . . . . . . . . . . . . . . . . . . . . . . . . . . . . . . . . . . . . . . . . . . . . ",
". . . . . . . . . . . . . . . . . . . . . . . . . . . . . . . . . . . . . . . . . . . . . . . . . . . . . . . . . . . . . . . . . . . . . . . ",
". . . . . . . . . . . . . . . . . . . . . . . . . . . . . . . . . . . . . . . . . . . . . . . . . . . . . . . . . . . . . . . . . . . . . . . ",
". . . . . . . . . . . . . . . . . . . . . . . . . . . . . . . . . . . . . . . . . . . . . . . . . . . . . . . . . . . . . . . . . . . . . . . "};
