/* XPM */
static char * ybbp_xpm[] = {
"71 71 207 2",
"  	c None",
". 	c #1C8D1C",
"+ 	c #238323",
"@ 	c #246C24",
"# 	c #245F24",
"$ 	c #256F25",
"% 	c #248624",
"& 	c #236323",
"* 	c #142814",
"= 	c #040604",
"- 	c #000000",
"; 	c #050705",
"> 	c #182D18",
", 	c #246624",
"' 	c #266526",
") 	c #1B1D1B",
"! 	c #111811",
"~ 	c #1F671F",
"{ 	c #248824",
"] 	c #182E18",
"^ 	c #1B351B",
"/ 	c #238A23",
"( 	c #267626",
"_ 	c #090C09",
": 	c #0A0F0A",
"< 	c #247824",
"[ 	c #226A22",
"} 	c #040504",
"| 	c #070907",
"1 	c #257325",
"2 	c #247224",
"3 	c #070A07",
"4 	c #080D08",
"5 	c #247724",
"6 	c #172F17",
"7 	c #248924",
"8 	c #1E601E",
"9 	c #131713",
"0 	c #0B160B",
"a 	c #1C631C",
"b 	c #1E451E",
"c 	c #1C481C",
"d 	c #2B842B",
"e 	c #1E361E",
"f 	c #183618",
"g 	c #1F7F1F",
"h 	c #1E7F1E",
"i 	c #163A16",
"j 	c #0F390F",
"k 	c #238523",
"l 	c #103A10",
"m 	c #1D471D",
"n 	c #319431",
"o 	c #329532",
"p 	c #1D481D",
"q 	c #275327",
"r 	c #329932",
"s 	c #319731",
"t 	c #255025",
"u 	c #1D4F1D",
"v 	c #229122",
"w 	c #239023",
"x 	c #1E4F1E",
"y 	c #124912",
"z 	c #1D8C1D",
"A 	c #144A14",
"B 	c #080808",
"C 	c #1E571E",
"D 	c #227822",
"E 	c #121912",
"F 	c #030503",
"G 	c #030403",
"H 	c #1A231A",
"I 	c #237D23",
"J 	c #228C22",
"K 	c #1E6B1E",
"L 	c #1B671B",
"M 	c #1E5C1E",
"N 	c #111E11",
"O 	c #102010",
"P 	c #1C5D1C",
"Q 	c #206E20",
"R 	c #259125",
"S 	c #162D16",
"T 	c #183218",
"U 	c #228D22",
"V 	c #247424",
"W 	c #0C140C",
"X 	c #0E190E",
"Y 	c #257A25",
"Z 	c #279127",
"` 	c #1D441D",
" .	c #1A461A",
"..	c #228F22",
"+.	c #1E551E",
"@.	c #040404",
"#.	c #0A0A0A",
"$.	c #256025",
"%.	c #296229",
"&.	c #1A1A1A",
"*.	c #286328",
"=.	c #206620",
"-.	c #151B15",
";.	c #141B14",
">.	c #216B21",
",.	c #173117",
"'.	c #1A371A",
").	c #248C24",
"!.	c #256C25",
"~.	c #060706",
"{.	c #080B08",
"].	c #247024",
"^.	c #208F20",
"/.	c #204F20",
"(.	c #205420",
"_.	c #218E21",
":.	c #1B3C1B",
"<.	c #1F451F",
"[.	c #1F8D1F",
"}.	c #218D21",
"|.	c #1E3E1E",
"1.	c #214821",
"2.	c #1F8E1F",
"3.	c #205320",
"4.	c #215921",
"5.	c #0E140E",
"6.	c #111911",
"7.	c #237823",
"8.	c #218F21",
"9.	c #1D4C1D",
"0.	c #225222",
"a.	c #1E8E1E",
"b.	c #103810",
"c.	c #194319",
"d.	c #2C8E2C",
"e.	c #278927",
"f.	c #1D4D1D",
"g.	c #030303",
"h.	c #0F0F0F",
"i.	c #1F511F",
"j.	c #2C902C",
"k.	c #208E20",
"l.	c #184718",
"m.	c #205220",
"n.	c #297129",
"o.	c #090A09",
"p.	c #060A06",
"q.	c #297529",
"r.	c #215C21",
"s.	c #248E24",
"t.	c #1B391B",
"u.	c #1B3E1B",
"v.	c #238F23",
"w.	c #1F5F1F",
"x.	c #0A0D0A",
"y.	c #256925",
"z.	c #2A742A",
"A.	c #172517",
"B.	c #1B6C1B",
"C.	c #297229",
"D.	c #1A2C1A",
"E.	c #0E270E",
"F.	c #257125",
"G.	c #205F20",
"H.	c #142014",
"I.	c #172417",
"J.	c #1C5F1C",
"K.	c #2C652C",
"L.	c #0F170F",
"M.	c #1D5E1D",
"N.	c #1E611E",
"O.	c #171A17",
"P.	c #0C170C",
"Q.	c #112311",
"R.	c #182B18",
"S.	c #247D24",
"T.	c #1B421B",
"U.	c #1B471B",
"V.	c #219021",
"W.	c #236B23",
"X.	c #0E130E",
"Y.	c #247124",
"Z.	c #1C421C",
"`.	c #1A451A",
" +	c #248024",
".+	c #0F190F",
"++	c #131E13",
"@+	c #268526",
"#+	c #256625",
"$+	c #050505",
"%+	c #266D26",
"&+	c #1E4D1E",
"*+	c #215521",
"=+	c #1D411D",
"-+	c #1E8C1E",
";+	c #218A21",
">+	c #152C15",
",+	c #1A351A",
"'+	c #228E22",
")+	c #142914",
"!+	c #183118",
"~+	c #208A20",
"{+	c #204420",
"]+	c #111C11",
"^+	c #214921",
"/+	c #258725",
"(+	c #258525",
". . . . . . . . . . . . . . . . . . . . . . . . . . . . . . . . . . . . . . . . . . . . . . . . . . . . . . . . . . . . . . . . . . . . . . . ",
". . . . . . . . . . . . . . . . . . . . . . . . . . . . . . . . . . . . . . . . . . . . . . . . . . . . . . . . . . . . . . . . . . . . . . . ",
". . . . . . . . . . . . . . . . . . . . . . . . . . . . . . . . . . . . . . . . . . . . . . . . . . . . . . . . . . . . . . . . . . . . . . . ",
". . . . . . . . . . . . . . . . . . . . . . . . . . . . . . . . . . . . . . . . . . . . . . . . . . . . . . . . . . . . . . . . . . . . . . . ",
". . . . . . . . . . . . . . . . . . . . . . . . . . . . . . . . . . . . . . . . . . . . . . . . . . . . . . . . . . . . . . . . . . . . . . . ",
". . . . . . . . . . . . . . . . . . . . . . . . . . . . . . . . . . . . . . . . . . . . . . . . . . . . . . . . . . . . . . . . . . . . . . . ",
". . . . . . . . . . . . . . . . . . . . . . . . . . . . . . . . . + @ # # $ % . . . . . . . . . . . . . . . . . . . . . . . . . . . . . . . . ",
". . . . . . . . . . . . . . . . . . . . . . . . . . . . . . . . & * = - - ; > , . . . . . . . . . . . . . . . . . . . . . . . . . . . . . . . ",
". . . . . . . . . . . . . . . . . . . . . . . . . . . . . . . ' ) - - - - - - ! ~ . . . . . . . . . . . . . . . . . . . . . . . . . . . . . . ",
". . . . . . . . . . . . . . . . . . . . . . . . . . . . . . { ] - - - - - - - - ^ / . . . . . . . . . . . . . . . . . . . . . . . . . . . . . ",
". . . . . . . . . . . . . . . . . . . . . . . . . . . . . . ( _ - - - - - - - - : < . . . . . . . . . . . . . . . . . . . . . . . . . . . . . ",
". . . . . . . . . . . . . . . . . . . . . . . . . . . . . . [ } - - - - - - - - | 1 . . . . . . . . . . . . . . . . . . . . . . . . . . . . . ",
". . . . . . . . . . . . . . . . . . . . . . . . . . . . . . 2 3 - - - - - - - - 4 5 . . . . . . . . . . . . . . . . . . . . . . . . . . . . . ",
". . . . . . . . . . . . . . . . . . . . . . . . . . . . . . % * - - - - - - - - 6 7 . . . . . . . . . . . . . . . . . . . . . . . . . . . . . ",
". . . . . . . . . . . . . . . . . . . . . . . . . . . . . . . 8 9 - - - - - - 0 a . . . . . . . . . . . . . . . . . . . . . . . . . . . . . . ",
". . . . . . . . . . . . . . . . . . . . . . . . . . . . . . . . b - - - - - - c . . . . . . . . . . . . . . . . . . . . . . . . . . . . . . . ",
". . . . . . . . . . . . . . . . . . . . . . . . . . . . . . . d e - - - - - - f g . . . . . . . . . . . . . . . . . . . . . . . . . . . . . . ",
". . . . . . . . . . . . . . . . . . . . . . . . . . . . . . h i - - - - - - - - j k . . . . . . . . . . . . . . . . . . . . . . . . . . . . . ",
". . . . . . . . . . . . . . . . . . . . . . . . . . . . . k l - - - - - - - - - - m n . . . . . . . . . . . . . . . . . . . . . . . . . . . . ",
". . . . . . . . . . . . . . . . . . . . . . . . . . . . o p - - - - - - - - - - - - q r . . . . . . . . . . . . . . . . . . . . . . . . . . . ",
". . . . . . . . . . . . . . . . . . . . . . . . . . . s t - - - - - - - - - - - - - - u v . . . . . . . . . . . . . . . . . . . . . . . . . . ",
". . . . . . . . . . . . . . . . . . . . . . . . . . w x - - - - - - - - - - - - - - - - y z . . . . . . . . . . . . . . . . . . . . . . . . . ",
". . . . . . . . . . . . . . . . . . . . . . . . . z A - - - - - - - - - - - - - - - - - B C . . . . . . . . . . . . . . . . . . . . . . . . . ",
". . . . . . . . . . . . . . . . . . . . . . . . . D E F F } - - - - - - - - - - - - G F F H I . . . . . . . . . . . . . . . . . . . . . . . . ",
". . . . . . . . . . . . . . . . . . . . . . . . . J K L L M N - - - - - - - - - - O P L L Q R . . . . . . . . . . . . . . . . . . . . . . . . ",
". . . . . . . . . . . . . . . . . . . . . . . . . . . . . J S - - - - - - - - - - T U . . . . . . . . . . . . . . . . . . . . . . . . . . . . ",
". . . . . . . . . . . . . . . . . . . . . . . . . . . . . V W - - - - - - - - - - X Y . . . . . . . . . . . . . . . . . . . . . . . . . . . . ",
". . . . . . . . . . . . . . . . . . . . . . . . . . . . Z ` - - - - - - - - - - - -  .... . . . . . . . . . . . . . . . . . . . . . . . . . . ",
". . . . . . . . . . . . . . . . . . . . . . . . . . . . +.@.- - - - - - - - - - - - #.$.. . . . . . . . . . . . . . . . . . . . . . . . . . . ",
". . . . . . . . . . . . . . . . . . . . . . . . . . . %.&.- - - - - - - - - - - - - - ) *.. . . . . . . . . . . . . . . . . . . . . . . . . . ",
". . . . . . . . . . . . . . . . . . . . . . . . . . =.-.- - - - - - - - - - - - - - - - ;.>.. . . . . . . . . . . . . . . . . . . . . . . . . ",
". . . . . . . . . . . . . . . . . . . . . . . . . 7 ,.- - - - - - - - - - - - - - - - - - '.).. . . . . . . . . . . . . . . . . . . . . . . . ",
". . . . . . . . . . . . . . . . . . . . . . . . . !.~.- - - - - - - - - - - - - - - - - - {.].. . . . . . . . . . . . . . . . . . . . . . . . ",
". . . . . . . . . . . . . . . . . . . . . . . . ^./.- - - - - - - - - - - - - - - - - - - - (.. . . . . . . . . . . . . . . . . . . . . . . . ",
". . . . . . . . . . . . . . . . . . . . . . . . _.:.- - - - - - - - - - - - - - - - - - - - <.[.. . . . . . . . . . . . . . . . . . . . . . . ",
". . . . . . . . . . . . . . . . . . . . . . . . }.|.- - - - - - - - - - - - - - - - - - - - 1.2.. . . . . . . . . . . . . . . . . . . . . . . ",
". . . . . . . . . . . . . . . . . . . . . . . . . 3.- - - - - - - - - - - - - - - - - - - - 4.. . . . . . . . . . . . . . . . . . . . . . . . ",
". . . . . . . . . . . . . . . . . . . . . . . . . ( 5.- - - - - - - - - - - - - - - - - - 6.7.. . . . . . . . . . . . . . . . . . . . . . . . ",
". . . . . . . . . . . . . . . . . . . . . . . . . 8.9.- - - - - - - - - - - - - - - - - - 0.a.. . . . . . . . . . . . . . . . . . . . . . . . ",
". . . . . . . . . . . . . . . . . . . . . . . . . . % b.- - - - - - - - - - - - - - - - c.d.. . . . . . . . . . . . . . . . . . . . . . . . . ",
". . . . . . . . . . . . . . . . . . . . . . . . . . . e.f.g.- - - - - - - - - - - - h.i.j.. . . . . . . . . . . . . . . . . . . . . . . . . . ",
". . . . . . . . . . . . . . . . . . . . . . . . . . . . k.l.- - - - - - - - - - - - m.a.. . . . . . . . . . . . . . . . . . . . . . . . . . . ",
". . . . . . . . . . . . . . . . . . . . . . . . . . . . . n.o.- - - - - - - - - - p.q.. . . . . . . . . . . . . . . . . . . . . . . . . . . . ",
". . . . . . . . . . . . . . . . . . . . . . . . . . . . . r.g.- - - - - - - - - - } & . . . . . . . . . . . . . . . . . . . . . . . . . . . . ",
". . . . . . . . . . . . . . . . . . . . . . . . . . . . s.t.- - - - - - - - - - - - u.v.. . . . . . . . . . . . . . . . . . . . . . . . . . . ",
". . . . . . . . . . . . . . . . . . . . . . . . . . . . w.o.- - - - - - - - - - - - x.y.. . . . . . . . . . . . . . . . . . . . . . . . . . . ",
". . . . . . . . . . . . . . . . . . . . . . . . . . . z.A.- - - - - - - - - - - - - - * B.. . . . . . . . . . . . . . . . . . . . . . . . . . ",
". . . . . . . . . . . . . . . . . . . . . . . . . . C.D.- - - - - - - - - - - - - - - - E.F.. . . . . . . . . . . . . . . . . . . . . . . . . ",
". . . . . . . . . . . . . . . . . . . . . . . . . G.H.- - - - - - - - - - - - - - - - - - I.J.. . . . . . . . . . . . . . . . . . . . . . . . ",
". . . . . . . . . . . . . . . . . . . . . . . . K.) - - - - - - - - - - - - - - - - - - - - L.M.. . . . . . . . . . . . . . . . . . . . . . . ",
". . . . . . . . . . . . . . . . . . . . . . . N.O.- - - - - - - - - - - - - - - - - - - - - - P.=.. . . . . . . . . . . . . . . . . . . . . . ",
". . . . . . . . . . . . . . . . . . . . . . 5 Q.- - - - - - - - - - - - - - - - - - - - - - - - R.S.. . . . . . . . . . . . . . . . . . . . . ",
". . . . . . . . . . . . . . . . . . . . . v.T.- - - - - - - - - - - - - - - - - - - - - - - - - - U.V.. . . . . . . . . . . . . . . . . . . . ",
". . . . . . . . . . . . . . . . . . . . . W.x.- - - - - - - - - - - - - - - - - - - - - - - - - - X.Y.. . . . . . . . . . . . . . . . . . . . ",
". . . . . . . . . . . . . . . . . . . . _.Z.- - - - - - - - - - - - - - - - - - - - - - - - - - - - `.^.. . . . . . . . . . . . . . . . . . . ",
". . . . . . . . . . . . . . . . . . . .  +.+- - - - - - - - - - - - - - - - - - - - - - - - - - - - ++@+. . . . . . . . . . . . . . . . . . . ",
". . . . . . . . . . . . . . . . . . . . #+$+- - - - - - - - - - - - - - - - - - - - - - - - - - - - ~.%+. . . . . . . . . . . . . . . . . . . ",
". . . . . . . . . . . . . . . . . . . a.&+- - - - - - - - - - - - - - - - - - - - - - - - - - - - - - *+. . . . . . . . . . . . . . . . . . . ",
". . . . . . . . . . . . . . . . . . . }.t.- - - - - - - - - - - - - - - - - - - - - - - - - - - - - - =+-+. . . . . . . . . . . . . . . . . . ",
". . . . . . . . . . . . . . . . . . . ;+>+- - - - - - - - - - - - - - - - - - - - - - - - - - - - - - ,+'+. . . . . . . . . . . . . . . . . . ",
". . . . . . . . . . . . . . . . . . . ;+)+- - - - - - - - - - - - - - - - - - - - - - - - - - - - - - !+~+. . . . . . . . . . . . . . . . . . ",
". . . . . . . . . . . . . . . . . . . J {+]+]+]+]+]+]+]+]+]+]+]+]+]+]+]+]+]+]+]+]+]+]+]+]+]+]+]+]+]+]+^+}.. . . . . . . . . . . . . . . . . . ",
". . . . . . . . . . . . . . . . . . . . /+(+(+(+(+(+(+(+(+(+(+(+(+(+(+(+(+(+(+(+(+(+(+(+(+(+(+(+(+(+(+/+. . . . . . . . . . . . . . . . . . . ",
". . . . . . . . . . . . . . . . . . . . . . . . . . . . . . . . . . . . . . . . . . . . . . . . . . . . . . . . . . . . . . . . . . . . . . . ",
". . . . . . . . . . . . . . . . . . . . . . . . . . . . . . . . . . . . . . . . . . . . . . . . . . . . . . . . . . . . . . . . . . . . . . . ",
". . . . . . . . . . . . . . . . . . . . . . . . . . . . . . . . . . . . . . . . . . . . . . . . . . . . . . . . . . . . . . . . . . . . . . . ",
". . . . . . . . . . . . . . . . . . . . . . . . . . . . . . . . . . . . . . . . . . . . . . . . . . . . . . . . . . . . . . . . . . . . . . . ",
". . . . . . . . . . . . . . . . . . . . . . . . . . . . . . . . . . . . . . . . . . . . . . . . . . . . . . . . . . . . . . . . . . . . . . . ",
". . . . . . . . . . . . . . . . . . . . . . . . . . . . . . . . . . . . . . . . . . . . . . . . . . . . . . . . . . . . . . . . . . . . . . . ",
". . . . . . . . . . . . . . . . . . . . . . . . . . . . . . . . . . . . . . . . . . . . . . . . . . . . . . . . . . . . . . . . . . . . . . . ",
". . . . . . . . . . . . . . . . . . . . . . . . . . . . . . . . . . . . . . . . . . . . . . . . . . . . . . . . . . . . . . . . . . . . . . . "};
