/* XPM */
static char * ybbq_xpm[] = {
"71 71 546 2",
"  	c None",
". 	c #1C8D1C",
"+ 	c #1B861B",
"@ 	c #1C801C",
"# 	c #124A12",
"$ 	c #092509",
"% 	c #0A270A",
"& 	c #134D13",
"* 	c #1C821C",
"= 	c #1B871B",
"- 	c #0C370C",
"; 	c #000000",
"> 	c #0D3A0D",
", 	c #1C891C",
"' 	c #186618",
") 	c #030503",
"! 	c #030803",
"~ 	c #196B19",
"{ 	c #145514",
"] 	c #155C15",
"^ 	c #156015",
"/ 	c #000200",
"( 	c #020502",
"_ 	c #176717",
": 	c #1D831D",
"< 	c #0E340E",
"[ 	c #0E370E",
"} 	c #1C851C",
"| 	c #1B841B",
"1 	c #1C7C1C",
"2 	c #0E400E",
"3 	c #040404",
"4 	c #114411",
"5 	c #1C7F1C",
"6 	c #1C841C",
"7 	c #1C861C",
"8 	c #145214",
"9 	c #0B260B",
"0 	c #0B220B",
"a 	c #124712",
"b 	c #1E811E",
"c 	c #1C8A1C",
"d 	c #092709",
"e 	c #113111",
"f 	c #1B8A1B",
"g 	c #1A7D1A",
"h 	c #104410",
"i 	c #0B200B",
"j 	c #0D280D",
"k 	c #175917",
"l 	c #186318",
"m 	c #060A06",
"n 	c #0B2E0B",
"o 	c #133813",
"p 	c #1D8C1D",
"q 	c #1C8C1C",
"r 	c #0F3F0F",
"s 	c #0A120A",
"t 	c #196919",
"u 	c #1D8D1D",
"v 	c #124212",
"w 	c #0A200A",
"x 	c #0B240B",
"y 	c #0B280B",
"z 	c #1D891D",
"A 	c #1B811B",
"B 	c #081A08",
"C 	c #0F480F",
"D 	c #0C270C",
"E 	c #1B7B1B",
"F 	c #051205",
"G 	c #071707",
"H 	c #1B7F1B",
"I 	c #1C831C",
"J 	c #0A1F0A",
"K 	c #124C12",
"L 	c #186A18",
"M 	c #081908",
"N 	c #125012",
"O 	c #030703",
"P 	c #020802",
"Q 	c #196F19",
"R 	c #104C10",
"S 	c #0A1E0A",
"T 	c #1B711B",
"U 	c #0E3F0E",
"V 	c #135113",
"W 	c #010101",
"X 	c #165816",
"Y 	c #103D10",
"Z 	c #0E2D0E",
"` 	c #1A6D1A",
" .	c #1B851B",
"..	c #177017",
"+.	c #176E17",
"@.	c #155A15",
"#.	c #020602",
"$.	c #155D15",
"%.	c #103A10",
"&.	c #0F400F",
"*.	c #185918",
"=.	c #030903",
"-.	c #176117",
";.	c #1A7F1A",
">.	c #166D16",
",.	c #1C871C",
"'.	c #1D7C1D",
").	c #020702",
"!.	c #092909",
"~.	c #176D17",
"{.	c #104810",
"].	c #092109",
"^.	c #0B290B",
"/.	c #1C881C",
"(.	c #114311",
"_.	c #070E07",
":.	c #1E771E",
"<.	c #196C19",
"[.	c #0C280C",
"}.	c #010601",
"|.	c #104910",
"1.	c #0D390D",
"2.	c #197019",
"3.	c #0A220A",
"4.	c #1C811C",
"5.	c #1B791B",
"6.	c #051005",
"7.	c #051405",
"8.	c #1A7C1A",
"9.	c #1C7E1C",
"0.	c #081C08",
"a.	c #080E08",
"b.	c #207920",
"c.	c #0F360F",
"d.	c #145114",
"e.	c #0C330C",
"f.	c #082208",
"g.	c #020302",
"h.	c #176517",
"i.	c #135413",
"j.	c #0B1D0B",
"k.	c #143F14",
"l.	c #114911",
"m.	c #0E330E",
"n.	c #1D8A1D",
"o.	c #0A2E0A",
"p.	c #1B881B",
"q.	c #144E14",
"r.	c #155515",
"s.	c #0A290A",
"t.	c #0D2D0D",
"u.	c #144F14",
"v.	c #1D781D",
"w.	c #114711",
"x.	c #040904",
"y.	c #186718",
"z.	c #1C8B1C",
"A.	c #103610",
"B.	c #113C11",
"C.	c #010301",
"D.	c #123612",
"E.	c #145F14",
"F.	c #0D3C0D",
"G.	c #0D350D",
"H.	c #1E8C1E",
"I.	c #0F3C0F",
"J.	c #091F09",
"K.	c #092409",
"L.	c #0E360E",
"M.	c #0D300D",
"N.	c #020202",
"O.	c #103F10",
"P.	c #218621",
"Q.	c #1D861D",
"R.	c #0C2A0C",
"S.	c #030303",
"T.	c #135213",
"U.	c #041104",
"V.	c #197319",
"W.	c #1A761A",
"X.	c #060F06",
"Y.	c #1C7B1C",
"Z.	c #186D18",
"`.	c #030D03",
" +	c #124D12",
".+	c #124F12",
"++	c #061406",
"@+	c #176417",
"#+	c #124812",
"$+	c #166116",
"%+	c #010501",
"&+	c #186818",
"*+	c #104210",
"=+	c #061006",
"-+	c #1A751A",
";+	c #061106",
">+	c #0B270B",
",+	c #197619",
"'+	c #0B1E0B",
")+	c #134A13",
"!+	c #135013",
"~+	c #1A791A",
"{+	c #081808",
"]+	c #1B731B",
"^+	c #092209",
"/+	c #071507",
"(+	c #1C7A1C",
"_+	c #0E350E",
":+	c #0F3A0F",
"<+	c #1F8A1F",
"[+	c #010201",
"}+	c #0D320D",
"|+	c #103910",
"1+	c #114E11",
"2+	c #1D841D",
"3+	c #0F3B0F",
"4+	c #165B16",
"5+	c #134C13",
"6+	c #0B2A0B",
"7+	c #1D821D",
"8+	c #081B08",
"9+	c #1D851D",
"0+	c #1D7E1D",
"a+	c #0A1C0A",
"b+	c #060E06",
"c+	c #165F16",
"d+	c #186218",
"e+	c #1C741C",
"f+	c #040C04",
"g+	c #1B781B",
"h+	c #020402",
"i+	c #165A16",
"j+	c #050A05",
"k+	c #0B210B",
"l+	c #114111",
"m+	c #1A711A",
"n+	c #103810",
"o+	c #1D8B1D",
"p+	c #185F18",
"q+	c #186518",
"r+	c #0B300B",
"s+	c #0A1D0A",
"t+	c #114611",
"u+	c #176617",
"v+	c #040D04",
"w+	c #124412",
"x+	c #156115",
"y+	c #1D7F1D",
"z+	c #0C2E0C",
"A+	c #030B03",
"B+	c #196D19",
"C+	c #104510",
"D+	c #186E18",
"E+	c #175F17",
"F+	c #0A1B0A",
"G+	c #091E09",
"H+	c #155B15",
"I+	c #145C14",
"J+	c #082408",
"K+	c #050C05",
"L+	c #1C751C",
"M+	c #0F410F",
"N+	c #0B2C0B",
"O+	c #040804",
"P+	c #145814",
"Q+	c #145414",
"R+	c #000100",
"S+	c #030603",
"T+	c #000400",
"U+	c #010401",
"V+	c #000300",
"W+	c #135813",
"X+	c #155215",
"Y+	c #165316",
"Z+	c #1B741B",
"`+	c #050F05",
" @	c #050E05",
".@	c #155115",
"+@	c #0C1F0C",
"@@	c #124112",
"#@	c #071407",
"$@	c #1C781C",
"%@	c #0F390F",
"&@	c #186018",
"*@	c #1B7D1B",
"=@	c #080808",
"-@	c #141414",
";@	c #222222",
">@	c #313131",
",@	c #404040",
"'@	c #4F4F4F",
")@	c #5C5C5C",
"!@	c #6B6B6B",
"~@	c #707070",
"{@	c #757575",
"]@	c #7A7A7A",
"^@	c #747474",
"/@	c #4E4E4E",
"(@	c #3F3F3F",
"_@	c #303030",
":@	c #212121",
"<@	c #131313",
"[@	c #070707",
"}@	c #081D08",
"|@	c #1D811D",
"1@	c #0E3E0E",
"2@	c #050505",
"3@	c #1E1E1E",
"4@	c #434343",
"5@	c #6E6E6E",
"6@	c #949494",
"7@	c #B7B7B7",
"8@	c #CFCFCF",
"9@	c #E1E1E1",
"0@	c #ECECEC",
"a@	c #F4F4F4",
"b@	c #FAFAFA",
"c@	c #FBFBFB",
"d@	c #FFFFFF",
"e@	c #E0E0E0",
"f@	c #B5B5B5",
"g@	c #929292",
"h@	c #6C6C6C",
"i@	c #414141",
"j@	c #1C1C1C",
"k@	c #124512",
"l@	c #166316",
"m@	c #636363",
"n@	c #A4A4A4",
"o@	c #D9D9D9",
"p@	c #FEFEFE",
"q@	c #FDFDFD",
"r@	c #FCFCFC",
"s@	c #F3F3F3",
"t@	c #D7D7D7",
"u@	c #A0A0A0",
"v@	c #5F5F5F",
"w@	c #1B1B1B",
"x@	c #1A6A1A",
"y@	c #1B821B",
"z@	c #0B0B0B",
"A@	c #727272",
"B@	c #CBCBCB",
"C@	c #F2F2F2",
"D@	c #E3E3E3",
"E@	c #D0D0D0",
"F@	c #BDBDBD",
"G@	c #AAAAAA",
"H@	c #989898",
"I@	c #878787",
"J@	c #787878",
"K@	c #6D6D6D",
"L@	c #656565",
"M@	c #666666",
"N@	c #999999",
"O@	c #ABABAB",
"P@	c #BEBEBE",
"Q@	c #D2D2D2",
"R@	c #E4E4E4",
"S@	c #C6C6C6",
"T@	c #0B250B",
"U@	c #8C8C8C",
"V@	c #EBEBEB",
"W@	c #C2C2C2",
"X@	c #919191",
"Y@	c #3E3E3E",
"Z@	c #252525",
"`@	c #151515",
" #	c #161616",
".#	c #262626",
"+#	c #686868",
"@#	c #C4C4C4",
"##	c #EDEDED",
"$#	c #7E7E7E",
"%#	c #114811",
"&#	c #166416",
"*#	c #242724",
"=#	c #CACACA",
"-#	c #7D7D7D",
";#	c #383838",
">#	c #0F0F0F",
",#	c #060606",
"'#	c #696969",
")#	c #2D2D2D",
"!#	c #101010",
"~#	c #3C3C3C",
"{#	c #828282",
"]#	c #D6D6D6",
"^#	c #1D231D",
"/#	c #176B17",
"(#	c #233623",
"_#	c #D8D8D8",
":#	c #898989",
"<#	c #242424",
"[#	c #A2A2A2",
"}#	c #E6E6E6",
"|#	c #9D9D9D",
"1#	c #494949",
"2#	c #292929",
"3#	c #8E8E8E",
"4#	c #CDCDCD",
"5#	c #1C341C",
"6#	c #1B831B",
"7#	c #113B11",
"8#	c #111111",
"9#	c #4A4A4A",
"0#	c #888888",
"a#	c #7C7C7C",
"b#	c #5B5B5B",
"c#	c #5A5A5A",
"d#	c #EFEFEF",
"e#	c #EAEAEA",
"f#	c #090909",
"g#	c #272727",
"h#	c #444444",
"i#	c #767676",
"j#	c #474747",
"k#	c #134013",
"l#	c #1E8E1E",
"m#	c #145314",
"n#	c #A5A5A5",
"o#	c #F6F6F6",
"p#	c #E2E2E2",
"q#	c #838383",
"r#	c #323232",
"s#	c #9C9C9C",
"t#	c #E8E8E8",
"u#	c #979797",
"v#	c #282828",
"w#	c #8B8B8B",
"x#	c #F5F5F5",
"y#	c #9B9B9B",
"z#	c #101110",
"A#	c #176A17",
"B#	c #1D211D",
"C#	c #CECECE",
"D#	c #5E5E5E",
"E#	c #3B3B3B",
"F#	c #DBDBDB",
"G#	c #DADADA",
"H#	c #B4B4B4",
"I#	c #373737",
"J#	c #606060",
"K#	c #D3D3D3",
"L#	c #191F19",
"M#	c #1A701A",
"N#	c #1A771A",
"O#	c #192219",
"P#	c #DFDFDF",
"Q#	c #0A0A0A",
"R#	c #1D1D1D",
"S#	c #909090",
"T#	c #C5C5C5",
"U#	c #131E13",
"V#	c #1A7A1A",
"W#	c #187718",
"X#	c #091409",
"Y#	c #A9A9A9",
"Z#	c #C3C3C3",
"`#	c #7B7B7B",
" $	c #191919",
".$	c #232323",
"+$	c #2C2C2C",
"@$	c #2B2B2B",
"#$	c #343434",
"$$	c #808080",
"%$	c #C7C7C7",
"&$	c #9F9F9F",
"*$	c #0D180D",
"=$	c #1E7E1E",
"-$	c #1A741A",
";$	c #555555",
">$	c #181818",
",$	c #4D4D4D",
"'$	c #A6A6A6",
")$	c #BCBCBC",
"!$	c #E7E7E7",
"~$	c #E9E9E9",
"{$	c #CCCCCC",
"]$	c #BBBBBB",
"^$	c #8A8A8A",
"/$	c #4B4B4B",
"($	c #2F2F2F",
"_$	c #171717",
":$	c #464646",
"<$	c #051105",
"[$	c #176817",
"}$	c #7F7F7F",
"|$	c #AFAFAF",
"1$	c #F8F8F8",
"2$	c #ADADAD",
"3$	c #484848",
"4$	c #125312",
"5$	c #3A3A3A",
"6$	c #F0F0F0",
"7$	c #E5E5E5",
"8$	c #166016",
"9$	c #0C340C",
"0$	c #505050",
"a$	c #F7F7F7",
"b$	c #8D8D8D",
"c$	c #717171",
"d$	c #575757",
"e$	c #363636",
"f$	c #1F1F1F",
"g$	c #202020",
"h$	c #585858",
"i$	c #8F8F8F",
"j$	c #1A6F1A",
"k$	c #0B140B",
"l$	c #A3A3A3",
"m$	c #797979",
"n$	c #121212",
"o$	c #081508",
"p$	c #197419",
"q$	c #515151",
"r$	c #545454",
"s$	c #D4D4D4",
"t$	c #134B13",
"u$	c #1E831E",
"v$	c #123712",
"w$	c #232523",
"x$	c #565656",
"y$	c #163F16",
"z$	c #1E861E",
"A$	c #103C10",
"B$	c #0A1A0A",
"C$	c #091B09",
"D$	c #0F3D0F",
"E$	c #176217",
"F$	c #144714",
"G$	c #1B671B",
"H$	c #0D310D",
"I$	c #081E08",
"J$	c #166216",
"K$	c #1A781A",
"L$	c #1B7A1B",
"M$	c #155F15",
"N$	c #0F310F",
"O$	c #0D2B0D",
"P$	c #0C260C",
"Q$	c #072207",
"R$	c #0C2B0C",
"S$	c #0E310E",
"T$	c #176017",
"U$	c #1B891B",
". . . . . . . . . . . . . . . . . . . . . . . . . . . . . . . . . . . . . . . . . . . . . . . . . . . . . . . . . . . . . . . . . . . . . . . ",
". . . . . . . . . . . . . . . . . . . . . . . . . . . . . . . . . . . . . . . . . . . . . . . . . . . . . . . . . . . . . . . . . . . . . . . ",
". . . . . . . . . . . . . . . . . . . . . . . . . . . . . . . . . . . . . . . . . . . . . . . . . . . . . . . . . . . . . . . . . . . . . . . ",
". . . . . . . . . . . . . . . . . . . . . . . . . . . . . . . . . . . . . . . . . . . . . . . . . . . . . . . . . . . . . . . . . . . . . . . ",
". . . . . . . . . . . . . . . . . . . . . . . . . . . . . . . . . . . . . . . . . . . . . . . . . . . . . . . . . . . . . . . . . . . . . . . ",
". . . . . . . . . . . . . . . . . . . . . . . . . . . . . . . . . . . . . . . . . . . . . . . . . . . . . . . . . . . . . . . . . . . . . . . ",
". . . . . . . . . . . . . . . . . . . . . . . . . . . . . . . . . . . . . . . . . . . . . . . . . . . . . . . . . . . . . . . . . . . . . . . ",
". . . . . . . . . . . . . . . . . . . . . . . . . . . . . . . . . . . + + . . . . . . . . . . . . . . . . . . . . . . . . . . . . . . . . . . ",
". . . . . . . . . . . . . . . . . . . . . . . . . . . . . . . . . @ # $ % & * . . . . . . . . . . . . . . . . . . . . . . . . . . . . . . . . ",
". . . . . . . . . . . . . . . . . . . . . . . . . . . . . . . . = - ; ; ; ; > , . . . . . . . . . . . . . . . . . . . . . . . . . . . . . . . ",
". . . . . . . . . . . . . . . . . . . . . . . . . . . . . . . . ' ) ; ; ; ; ! ~ . . . . . . . . . . . . . . . . . . . . . . . . . . . . . . . ",
". . . . . . . . . . . . . . . . . . . . . . . . . . . . . . . . { ; ; ; ; ; ; ] . . . . . . . . . . . . . . . . . . . . . . . . . . . . . . . ",
". . . . . . . . . . . . . . . . . . . . . . . . . . . . . . . . ^ / ; ; ; ; ( _ . . . . . . . . . . . . . . . . . . . . . . . . . . . . . . . ",
". . . . . . . . . . . . . . . . . . . . . . . . . . . . . . . . : < ; ; ; ; [ } . . . . . . . . . . . . . . . . . . . . . . . . . . . . . . . ",
". . . . . . . . . . . . . . . . . . . . } | . . . . . . . . . . . 1 2 ; 3 4 5 . . . . . . . . . . . 6 7 . . . . . . . . . . . . . . . . . . . ",
". . . . . . . . . . . . . . . . . . . 8 9 0 a b . . . . . . . . . . c d e f . . . . . . . . . . g h i j k . . . . . . . . . . . . . . . . . . ",
". . . . . . . . . . . . . . . . . . l m ; ; ; 4 . . . . . . . . . . f n o p . . . . . . . . . q r ; ; ; s t . . . . . . . . . . . . . . . . . ",
". . . . . . . . . . . . . . . . . u v ; ; ; ; w 6 . . . . . . . . . + x y z . . . . . . . . . A B ; ; ; ; C . . . . . . . . . . . . . . . . . ",
". . . . . . . . . . . . . . . . . . h ; ; ; ; D 7 . . . . . . . . . E F G H . . . . . . . . . I J ; ; ; ; K . . . . . . . . . . . . . . . . . ",
". . . . . . . . . . . . . . . . . . L M ; ; ; N . . . . . . . . . . t O P Q . . . . . . . . . . R ; ; ; S T . . . . . . . . . . . . . . . . . ",
". . . . . . . . . . . . . . . . . . . _ 9 ; U . . . . . . . . . . . V ; W X . . . . . . . . . . u Y ; Z ` . . . . . . . . . . . . . . . . . . ",
". . . . .  ...+.A . . . . . . . . . . . @.#.$.. . . . . . . . . . q %.; ; &.. . . . . . . . . . . *.=.-.. . . . . . . . . . . ;.>...,.. . . . ",
". . . . '.< ! ).!.~.. . . . . . . . . . Q ! {.. . . . . . . . . .  .].; ; ^./.. . . . . . . . . . (._.:.. . . . . . . . . . <.[.}.P - ;.. . . ",
". . . . |.; ; ; ; 1.f . . . . . . . . . 2.=.3.4.. . . . . . . . . 5.6.; ; 7.8.. . . . . . . . . 9.0.a.b.. . . . . . . . . , c.; ; ; ; d.. . . ",
". . . f e.; ; ; ; f.+ . . . . . . . . . 2.=.g.@.. . . . . . . . . h.( ; ; O ` . . . . . . . . . i.W a.b.. . . . . . . . . A j.; ; ; ; k.p . . ",
". . . . l.; ; ; ; m.n.. . . . . . . . . 2.=.; o.p.. . . . . . . . q.; ; ; ; r.. . . . . . . .  .s.; a.b.. . . . . . . . . /.t.; ; ; ; u.. . . ",
". . . . v.Z / ; ; w.. . . . . . . . . . 2.=.; x.y.. . . . . . . z.A.; ; ; ; B.u . . . . . . . -.#.; a.b.. . . . . . . . . . &.; ; C.D.9.. . . ",
". . . . . @ E.F.; G.H.. . . . . . . . . 2.=.; ; I.u . . . . . . 6 J.; ; ; ; K.+ . . . . . . c L.; ; a.b.. . . . . . . . . z M.N.O.l P.. . . . ",
". . . . . . . Q.R.S.T.. . . . . . . . . 2.=.; ; U.V.. . . . . . W.X.; ; ; ; F Y.. . . . . . Z.`.; ; a.b.. . . . . . . . .  +; n , . . . . . . ",
". . . . . . . . .+; ++@+. . . . . . . . 2.=.; ; ; #+. . . . . . $+C.; ; ; ; %+&+. . . . . . *+; ; ; a.b.. . . . . . . . ^ =+N.r.. . . . . . . ",
". . . . . . . . -+;+; >+,+. . . . . . . 2.=.; ; ; '+9.. . . . . )+; ; ; ; ; ; !+. . . . . ~+{+; ; ; a.b.. . . . . . . ]+^+; /+(+. . . . . . . ",
". . . . . . . . c _+; ; :+<+. . . . . . 2.=.; ; ; [+i.. . . . c }+; ; ; ; ; ; |+H.. . . . 1+; ; ; ; a.b.. . . . . . 2+_+; ; 3+p . . . . . . . ",
". . . . . . . . . 4+[+; ; 5+. . . . . . 2.=.; ; ; ; 6+7 . . . 7+8+; ; ; ; ; ; ].9+. . . * K.; ; ; ; a.b.. . . . . . a ; ; ( ^ . . . . . . . . ",
". . . . . . . . . 0+a+; ; b+c+. . . . . 2.=.; ; ; ; #.d+. . . e+f+; ; ; ; ; ; 6.g+. . . ] h+; ; ; ; a.b.. . . . . i+j+; ; k+7+. . . . . . . . ",
". . . . . . . . . . l+; ; ; ].m+. . . . 2.=.; ; ; ; ; n+o+. . p+/ ; ; ; ; ; ; h+q+. . p.r+; ; ; ; ; a.b.. . . . <.s+; ; ; t+. . . . . . . . . ",
". . . . . . . . . . u+).; ; ; < I . . . 2.=.; ; ; ; ; v+u+. . w+; ; ; ; ; ; ; ; # . . x+=.; ; ; ; ; a.b.. . . y+z+; ; ; A+B+. . . . . . . . . ",
". . . . . . . . . . 9+D ; ; ; ; C+. . . D+P ; ; ; ; ; ; >+E+@.F+; ; ; ; ; ; ; ; G+H+I+J+; ; ; ; ; ; K+L+. . q M+; ; ; ; N+/.. . . . . . . . . ",
". . . . . . . . . . . q.; ; ; ; O+P+. . Q+R+; ; ; ; ; ; ; S+T+; ; ; ; ; ; ; ; ; ; U+( ; ; ; ; ; ; ; V+W+. . X+S.; ; ; ; Y+. . . . . . . . . . ",
". . . . . . . . . . . Z+`+; ; ; ;  @*+.@+@; ; ; ; ; ; ; ; ; ; ; ; ; ; ; ; ; ; ; ; ; ; ; ; ; ; ; ; ; ; ]..@@@m ; ; ; ; #@$@. . . . . . . . . . ",
". . . . . . . . . . . , m.; ; ; ; ; ; [+; ; ; ; ; ; ; ; ; ; ; ; ; ; ; ; ; ; ; ; ; ; ; ; ; ; ; ; ; ; ; ; R+; ; ; ; ; ; %@z.. . . . . . . . . . ",
". . . . . . . . . . . . i+[+; ; ; ; ; ; ; ; ; ; ; ; ; ; ; ; ; ; ; ; ; ; ; ; ; ; ; ; ; ; ; ; ; ; ; ; ; ; ; ; ; ; ; ; U+&@. . . . . . . . . . . ",
". . . . . . . . . . . . *@M ; ; ; ; ; ; ; ; ; ; ; =@-@;@>@,@'@)@!@~@{@]@]@^@~@!@)@/@(@_@:@<@[@; ; ; ; ; ; ; ; ; ; ; }@|@. . . . . . . . . . . ",
". . . . . . . . . . . . u 1@; ; ; ; ; ; 2@3@4@5@6@7@8@9@0@a@b@c@d@d@d@d@d@d@d@d@c@b@a@0@e@8@f@g@h@i@j@3 ; ; ; ; ; ; k@. . . . . . . . . . . . ",
". . . . . . . . . . . . . l@S+; ; ; 3@m@n@o@a@p@d@d@d@d@d@d@d@d@p@q@r@r@r@r@q@p@d@d@d@d@d@d@d@d@p@s@t@u@v@w@; ; ; =.x@. . . . . . . . . . . . ",
". . . . . . . . . . . . . y@w ; z@A@B@r@d@d@d@r@C@D@E@F@G@H@I@J@K@L@v@)@)@v@M@5@J@I@N@O@P@Q@R@s@q@d@d@d@b@S@K@N.; T@} . . . . . . . . . . . . ",
". . . . . . . . . . . . . . (.N.U@p@d@d@V@W@X@L@Y@Z@`@z@S.; ; ; ; ; ; W W ; ; ; ; ; ; S.z@ #.#,@+#6@@###d@d@p@$#; %#. . . . . . . . . . . . . ",
". . . . . . . . . . . . . . &#*#9@d@=#-#;#>#; ; ; ; ; ; ; ; ; ; ,#_@'#6@g@M@)#3 ; ; ; ; ; ; ; ; ; ; !#~#{#E@d@]#^#/#. . . . . . . . . . . . . ",
". . . . . . . . . . . . . . ;.(#_#:#<#; ; ; ; ; ; ; ; ; ; ; ; /@[#}#p@d@d@q@D@|#1#; ; ; ; ; ; ; ; ; ; ; ; 2#3#4#5#6#. . . . . . . . . . . . . ",
". . . . . . . . . . . . . . z.7#i@8#9#J@0#a#K@b#4@.#=@; ; ; c#d#d@d@d@d@d@d@d@d@e#'@; ; ; f#g#h#)@5@-#0#i#j#-@,@k#l#. . . . . . . . . . . . . ",
". . . . . . . . . . . . . . . m# #n#o#d@d@d@d@c@a@p#q#z@; ; r#s#e#d@d@d@d@d@p@t#u#v#; ; !#w#R@x#c@d@d@d@d@a@y#z#i+. . . . . . . . . . . . . . ",
". . . . . . . . . . . . . . . A#B#o@d@d@d@d@d@d@d@C#D#; ; ; ; ,#E#-#7@F#G#H#]@I#3 ; ; ; ; J#K#d@d@d@d@d@d@d@Q@L#M#. . . . . . . . . . . . . . ",
". . . . . . . . . . . . . . . N#O#C#d@d@d@d@d@P#w#>@; ; ; ; ; ; ; ; Q#R#j@f#; ; ; ; ; ; ; ; I#S#D@d@d@d@d@d@T#U#V#. . . . . . . . . . . . . . ",
". . . . . . . . . . . . . . . W#X#Y#d@d@C@Z#`#_@; ; ; ; S.Q#8# $.$v#+$>@>@@$v#;@ $8#Q#S.; ; ; ; #$$$%$s@d@d@&$*$=$. . . . . . . . . . . . . . ",
". . . . . . . . . . . . . . . -$K+;$s#`#4@<@,#>$>@,$5@w#'$)$4#_#p#!$~$####~$!$9@_#{$]$n#^$h@/$($_$2@`@:$-#|#/@<$V#. . . . . . . . . . . . . . ",
". . . . . . . . . . . . . . . [$#.; 3 w@/$}$|$K#V@1$p@d@d@d@d@d@d@d@d@d@d@d@d@d@d@d@d@d@d@p@1$e#Q@2$-#3$>$3 ; v+,+. . . . . . . . . . . . . . ",
". . . . . . . . . . . . . . . 4$W 5$U@Q@o#d@d@d@d@d@d@d@d@c@x#6$t#7$p#P#P#D@7$t#6$x#c@d@d@d@d@d@d@d@d@x#8@0##$h+8$. . . . . . . . . . . . . . ",
". . . . . . . . . . . . . . o+9$0$]#d@d@d@d@d@a$D@B@2$b$c$d$4@e$@$.#.$f$g$.$.#@$I#h#h$A@i$|${$R@a$d@d@d@d@d@E@3$I.p . . . . . . . . . . . . . ",
". . . . . . . . . . . . . . j$k$l$d@d@a$o@Y#m$/$g#8#2@; ; ; ; ; ; ; ; ; ; ; ; ; ; ; ; ; ; 2@n$2#/@a#2$G#1$d@d@u#o$p$. . . . . . . . . . . . . ",
". . . . . . . . . . . . . . 4 2#F#C#3#q$f$2@; ; ; ; ; ; ; ; ; ; ; ; ; ; ; ; ; ; ; ; ; ; ; ; ; ; ; ; ,#g$r$X@Q@s$:@t$. . . . . . . . . . . . . ",
". . . . . . . . . . . . . u$v$w$x$ $; ; ; ; ; ; ; ; ; ; ; ; ; ; ; ; ; ; ; ; ; ; ; ; ; ; ; ; ; ; ; ; ; ; ; ; j@d$B#y$z$. . . . . . . . . . . . ",
". . . . . . . . . . . . . . 4.&@A$B$h+; ; ; ; ; ; ; ; ; ; ; ; ; ; ; ; ; ; ; ; ; ; ; ; ; ; ; ; ; ; ; ; ; ; S+C$D$E$I . . . . . . . . . . . . . ",
". . . . . . . . . . . . . . . . q y+E$w+9 =+C.; ; ; ; ; ; ; ; ; ; ; ; ; ; ; ; ; ; ; ; ; ; ; ; ; ; h+<$>+F$G$b q . . . . . . . . . . . . . . . ",
". . . . . . . . . . . . . . . . . . . . 7 N#-.)+H$I$;+O / ; ; ; ; ; ; ; ; ; ; ; ; ; ; / ! ;+J.m.t$J$K$= . . . . . . . . . . . . . . . . . . . ",
". . . . . . . . . . . . . . . . . . . . . . . . f | L$Z.M$8 t+%@N$O$P$Q$f.D R$S$%@t+8 T$j$E 6 f . . . . . . . . . . . . . . . . . . . . . . . ",
". . . . . . . . . . . . . . . . . . . . . . . . . . . . . . . q H., /.+ + /.U$o+q . . . . . . . . . . . . . . . . . . . . . . . . . . . . . . ",
". . . . . . . . . . . . . . . . . . . . . . . . . . . . . . . . . . . . . . . . . . . . . . . . . . . . . . . . . . . . . . . . . . . . . . . ",
". . . . . . . . . . . . . . . . . . . . . . . . . . . . . . . . . . . . . . . . . . . . . . . . . . . . . . . . . . . . . . . . . . . . . . . ",
". . . . . . . . . . . . . . . . . . . . . . . . . . . . . . . . . . . . . . . . . . . . . . . . . . . . . . . . . . . . . . . . . . . . . . . ",
". . . . . . . . . . . . . . . . . . . . . . . . . . . . . . . . . . . . . . . . . . . . . . . . . . . . . . . . . . . . . . . . . . . . . . . ",
". . . . . . . . . . . . . . . . . . . . . . . . . . . . . . . . . . . . . . . . . . . . . . . . . . . . . . . . . . . . . . . . . . . . . . . ",
". . . . . . . . . . . . . . . . . . . . . . . . . . . . . . . . . . . . . . . . . . . . . . . . . . . . . . . . . . . . . . . . . . . . . . . "};
