/* XPM */
static char * ybbr_xpm[] = {
"71 71 347 2",
"  	c None",
". 	c #1C8D1C",
"+ 	c #208E20",
"@ 	c #218D21",
"# 	c #208B20",
"$ 	c #228B22",
"% 	c #278D27",
"& 	c #247924",
"* 	c #257425",
"= 	c #277327",
"- 	c #216C21",
"; 	c #256A25",
"> 	c #266B26",
", 	c #226B22",
"' 	c #277427",
") 	c #247424",
"! 	c #257A25",
"~ 	c #248F24",
"{ 	c #248B24",
"] 	c #218A21",
"^ 	c #228D22",
"/ 	c #1E8C1E",
"( 	c #288528",
"_ 	c #256C25",
": 	c #256025",
"< 	c #205020",
"[ 	c #1D441D",
"} 	c #1B3A1B",
"| 	c #183118",
"1 	c #1C371C",
"2 	c #257B25",
"3 	c #256625",
"4 	c #0C110C",
"5 	c #070A07",
"6 	c #070907",
"7 	c #040604",
"8 	c #050605",
"9 	c #080A08",
"0 	c #101710",
"a 	c #247124",
"b 	c #267426",
"c 	c #1D311D",
"d 	c #152A15",
"e 	c #193419",
"f 	c #1C401C",
"g 	c #235023",
"h 	c #275F27",
"i 	c #246C24",
"j 	c #278627",
"k 	c #225722",
"l 	c #010101",
"m 	c #000000",
"n 	c #266D26",
"o 	c #236323",
"p 	c #020202",
"q 	c #060806",
"r 	c #247024",
"s 	c #236523",
"t 	c #040404",
"u 	c #235C23",
"v 	c #215121",
"w 	c #235E23",
"x 	c #205520",
"y 	c #245A24",
"z 	c #1F4F1F",
"A 	c #208F20",
"B 	c #1F8D1F",
"C 	c #276527",
"D 	c #267026",
"E 	c #238F23",
"F 	c #1E481E",
"G 	c #182218",
"H 	c #214721",
"I 	c #1C301C",
"J 	c #030303",
"K 	c #1D361D",
"L 	c #141F14",
"M 	c #121212",
"N 	c #101010",
"O 	c #090909",
"P 	c #939393",
"Q 	c #CECECE",
"R 	c #8A8A8A",
"S 	c #060606",
"T 	c #BDBDBD",
"U 	c #FFFFFF",
"V 	c #B1B1B1",
"W 	c #FEFEFE",
"X 	c #FBFBFB",
"Y 	c #F7F7F7",
"Z 	c #F2F2F2",
"` 	c #EAEAEA",
" .	c #E6E6E6",
"..	c #E0E0E0",
"+.	c #DADADA",
"@.	c #D7D7D7",
"#.	c #D4D4D4",
"$.	c #D2D2D2",
"%.	c #D0D0D0",
"&.	c #D1D1D1",
"*.	c #D3D3D3",
"=.	c #D6D6D6",
"-.	c #D9D9D9",
";.	c #DCDCDC",
">.	c #E4E4E4",
",.	c #E7E7E7",
"'.	c #EEEEEE",
").	c #F3F3F3",
"!.	c #F9F9F9",
"~.	c #FCFCFC",
"{.	c #A4A4A4",
"].	c #BABABA",
"^.	c #A1A1A1",
"/.	c #878787",
"(.	c #6F6F6F",
"_.	c #5A5A5A",
":.	c #484848",
"<.	c #3B3B3B",
"[.	c #2E2E2E",
"}.	c #282828",
"|.	c #212121",
"1.	c #1B1B1B",
"2.	c #181818",
"3.	c #161616",
"4.	c #151515",
"5.	c #131313",
"6.	c #141414",
"7.	c #171717",
"8.	c #191919",
"9.	c #1D1D1D",
"0.	c #242424",
"a.	c #292929",
"b.	c #333333",
"c.	c #3E3E3E",
"d.	c #4C4C4C",
"e.	c #5E5E5E",
"f.	c #747474",
"g.	c #8B8B8B",
"h.	c #BCBCBC",
"i.	c #9A9A9A",
"j.	c #255C25",
"k.	c #202020",
"l.	c #0A0A0A",
"m.	c #0B0B0B",
"n.	c #1F1F1F",
"o.	c #245F24",
"p.	c #277C27",
"q.	c #142B14",
"r.	c #152F15",
"s.	c #2C842C",
"t.	c #256F25",
"u.	c #121E12",
"v.	c #162416",
"w.	c #237123",
"x.	c #215F21",
"y.	c #050505",
"z.	c #0D0D0D",
"A.	c #151815",
"B.	c #1E601E",
"C.	c #1D8C1D",
"D.	c #1C4F1C",
"E.	c #868686",
"F.	c #979797",
"G.	c #A5A5A5",
"H.	c #B0B0B0",
"I.	c #C3C3C3",
"J.	c #C6C6C6",
"K.	c #D5D5D5",
"L.	c #CDCDCD",
"M.	c #969696",
"N.	c #858585",
"O.	c #3C3C3C",
"P.	c #1D551D",
"Q.	c #2C922C",
"R.	c #193D19",
"S.	c #A9A9A9",
"T.	c #FAFAFA",
"U.	c #F1F1F1",
"V.	c #E8E8E8",
"W.	c #D8D8D8",
"X.	c #E9E9E9",
"Y.	c #909090",
"Z.	c #224922",
"`.	c #2B952B",
" +	c #236023",
".+	c #4E4E4E",
"++	c #6C6C6C",
"@+	c #535353",
"#+	c #3D3D3D",
"$+	c #373737",
"%+	c #2F2F2F",
"&+	c #B3B3B3",
"*+	c #DDDDDD",
"=+	c #383838",
"-+	c #414141",
";+	c #B2B2B2",
">+	c #303030",
",+	c #494949",
"'+	c #5F5F5F",
")+	c #6D6D6D",
"!+	c #434343",
"~+	c #2A682A",
"{+	c #266426",
"]+	c #ABABAB",
"^+	c #1E1E1E",
"/+	c #272727",
"(+	c #AAAAAA",
"_+	c #2B6A2B",
":+	c #080808",
"<+	c #1A1A1A",
"[+	c #2C2C2C",
"}+	c #B4B4B4",
"|+	c #585858",
"1+	c #3F3F3F",
"2+	c #454545",
"3+	c #474747",
"4+	c #0C0C0C",
"5+	c #636363",
"6+	c #A3A3A3",
"7+	c #B7B7B7",
"8+	c #C5C5C5",
"9+	c #F4F4F4",
"0+	c #F6F6F6",
"a+	c #C4C4C4",
"b+	c #B6B6B6",
"c+	c #A2A2A2",
"d+	c #545454",
"e+	c #9C9C9C",
"f+	c #9E9E9E",
"g+	c #919191",
"h+	c #7F7F7F",
"i+	c #777777",
"j+	c #808080",
"k+	c #E3E3E3",
"l+	c #7B7B7B",
"m+	c #929292",
"n+	c #9F9F9F",
"o+	c #E5E5E5",
"p+	c #252525",
"q+	c #262626",
"r+	c #5C5C5C",
"s+	c #CFCFCF",
"t+	c #505050",
"u+	c #848484",
"v+	c #6A6A6A",
"w+	c #4B4B4B",
"x+	c #656565",
"y+	c #6B6B6B",
"z+	c #E1E1E1",
"A+	c #767676",
"B+	c #4A4A4A",
"C+	c #A0A0A0",
"D+	c #DFDFDF",
"E+	c #F8F8F8",
"F+	c #757575",
"G+	c #ADADAD",
"H+	c #7E7E7E",
"I+	c #4F4F4F",
"J+	c #727272",
"K+	c #EBEBEB",
"L+	c #AEAEAE",
"M+	c #6E6E6E",
"N+	c #0E0E0E",
"O+	c #323232",
"P+	c #959595",
"Q+	c #AFAFAF",
"R+	c #EDEDED",
"S+	c #C1C1C1",
"T+	c #BEBEBE",
"U+	c #ECECEC",
"V+	c #949494",
"W+	c #F0F0F0",
"X+	c #DBDBDB",
"Y+	c #FDFDFD",
"Z+	c #EFEFEF",
"`+	c #2B2B2B",
" @	c #828282",
".@	c #1C1C1C",
"+@	c #2A2A2A",
"@@	c #232323",
"#@	c #616161",
"$@	c #266126",
"%@	c #296529",
"&@	c #238D23",
"*@	c #1C3F1C",
"=@	c #A8A8A8",
"-@	c #717171",
";@	c #DEDEDE",
">@	c #F5F5F5",
",@	c #595959",
"'@	c #1C431C",
")@	c #259025",
"!@	c #1C591C",
"~@	c #7A7A7A",
"{@	c #0A0B0A",
"]@	c #236223",
"^@	c #297B29",
"/@	c #142214",
"(@	c #555555",
"_@	c #152715",
":@	c #237A23",
"<@	c #258E25",
"[@	c #1E421E",
"}@	c #1C441C",
"|@	c #B5B5B5",
"1@	c #090A09",
"2@	c #206020",
"3@	c #267926",
"4@	c #132013",
"5@	c #142614",
"6@	c #267B26",
"7@	c #268F26",
"8@	c #1D401D",
"9@	c #1D451D",
"0@	c #1F5B1F",
"a@	c #1E5F1E",
"b@	c #208D20",
"c@	c #1B3C1B",
"d@	c #143C14",
"e@	c #1C8C1C",
"f@	c #183618",
"g@	c #123712",
"h@	c #163316",
"i@	c #123512",
"j@	c #277727",
"k@	c #101A10",
"l@	c #070707",
"m@	c #0E1D0E",
"n@	c #277D27",
"o@	c #1F8E1F",
"p@	c #204E20",
"q@	c #225422",
"r@	c #192E19",
"s@	c #1B351B",
"t@	c #238C23",
"u@	c #228522",
"v@	c #111E11",
"w@	c #172917",
"x@	c #258A25",
"y@	c #228822",
"z@	c #142514",
"A@	c #162C16",
"B@	c #218921",
"C@	c #1F8C1F",
"D@	c #1E4E1E",
"E@	c #132A13",
"F@	c #205320",
". . . . . . . . . . . . . . . . . . . . . . . . . . . . . . . . . . . . . . . . . . . . . . . . . . . . . . . . . . . . . . . . . . . . . . . ",
". . . . . . . . . . . . . . . . . . . . . . . . . . . . . . . . . . . . . . . . . . . . . . . . . . . . . . . . . . . . . . . . . . . . . . . ",
". . . . . . . . . . . . . . . . . . . . . . . . . . . . . . . . . . . . . . . . . . . . . . . . . . . . . . . . . . . . . . . . . . . . . . . ",
". . . . . . . . . . . . . . . . . . . . . . . . . . . . . . . . . . . . . . . . . . . . . . . . . . . . . . . . . . . . . . . . . . . . . . . ",
". . . . . . . . . . . . . . . . . . . . + @ # $ . . . . . . % & * = - ; > , ' ) ! ~ . . . . . + { ] ^ / . . . . . . . . . . . . . . . . . . . ",
". . . . . . . . . . . . . . . . ( _ : < [ } | 1 2 . . . . . 3 4 5 6 7 8 8 8 6 9 0 a . . . . . b c d e f g h i j . . . . . . . . . . . . . . . ",
". . . . . . . . . . . . . . . . k 7 l m m m m 8 n . . . . . o p m m m m m m m m q r . . . . . s t m m m m l 8 u . . . . . . . . . . . . . . . ",
". . . . . . . . . . . . . . . . v m m m m m m l w . . . . . o p m m m m m m m m q r . . . . . x m m m m m m m y . . . . . . . . . . . . . . . ",
". . . . . . . . . . . . . . . . v m m m m m m m z A B B B B C p m m m m m m m m q D B B B B E F m m m m m m m y . . . . . . . . . . . . . . . ",
". . . . . . . . . . . . . . . . v m m m m m m m G H H H H H I m m m m m m m m m J K H H H H H L m m m m m m m y . . . . . . . . . . . . . . . ",
". . . . . . . . . . . . . . . . v m M M M M M M M M M M M M M M M M M M M M M M M M M M M M M M M M M M M N m y . . . . . . . . . . . . . . . ",
". . . . . . . . . . . . . . . . v O P Q Q Q Q Q Q Q Q Q Q Q Q Q Q Q Q Q Q Q Q Q Q Q Q Q Q Q Q Q Q Q Q Q Q R S y . . . . . . . . . . . . . . . ",
". . . . . . . . . . . . . . . . v O T U U U U U U U U U U U U U U U U U U U U U U U U U U U U U U U U U U V S y . . . . . . . . . . . . . . . ",
". . . . . . . . . . . . . . . . v O T U U U U W X Y Z `  ...+.@.#.$.%.%.%.&.*.=.-.;.>.,.'.).!.~.U U U U U V S y . . . . . . . . . . . . . . . ",
". . . . . . . . . . . . . . . . v O {.&.].^./.(._.:.<.[.}.|.1.2.3.4.5.5.5.6.4.7.8.9.0.a.b.c.d.e.f.g.{.h.*.i.S y . . . . . . . . . . . . . . . ",
". . . . . . . . . . . . . . . . j.m k.3.l.J m m m m m m m m m m m m m m m m m m m m m m m m m m m m J m.7.n.m o.. . . . . . . . . . . . . . . ",
". . . . . . . . . . . . . . . . p.q.m m m m m m m m m m m m m m m m m m m m m m m m m m m m m m m m m m m m r.s.. . . . . . . . . . . . . . . ",
". . . . . . . . . . . . . . . . . t.u.m m m m m m m m m m m m m m m m m m m m m m m m m m m m m m m m m m v.w.. . . . . . . . . . . . . . . . ",
". . . . . . . . . . . . . . . . . . x.M m m m m m l J y.l.m.z.M 3.3.7.7.7.7.3.3.M z.m.l.t J m m m m m m A.B.. . . . . . . . . . . . . . . . . ",
". . . . . . . . . . . . . . . . . . C.D.m m :.f.E.F.G.H.T I.J.Q #.K.K.=.=.K.K.#.L.J.I.T H.G.M.N.f.O.m m P.. . . . . . . . . . . . . . . . . . ",
". . . . . . . . . . . . . . . . . . . Q.R.J S.W ~.T.Y Z U.V.X U W.@.@.@.@.@.@.W.U T.X.U.).Y T.~.W Y.m Z.`.. . . . . . . . . . . . . . . . . . ",
". . . . . . . . . . . . . . . . . . . .  +J .+++e.@+:.#+$+%+&+*+=+2.2.7.7.2.2.-+,.;+>+=+#+,+@+'+)+!+y.~+. . . . . . . . . . . . . . . . . . . ",
". . . . . . . . . . . . . . . . . . . . {+p m m m m m m m J ]+*+^+m m m m m m /+,.(+J m m m m m m m t _+. . . . . . . . . . . . . . . . . . . ",
". . . . . . . . . . . . . . . . . . . . {+p m m m m m m m J ]+*+^+m m m m m m /+,.(+J m m m m m m m t _+. . . . . . . . . . . . . . . . . . . ",
". . . . . . . . . . . . . . . . . . . . {+p m J :+z.6.<+|.[+}+..|+1+2+3+3+2+1+'+,.&+[+k.8.6.4+:+J m t _+. . . . . . . . . . . . . . . . . . . ",
". . . . . . . . . . . . . . . . . . . . {+S 5+6+7+8+&.-...,.X U ).9+0+Y Y 0+9+).U X ,...W.%.a+b+c+d+y._+. . . . . . . . . . . . . . . . . . . ",
". . . . . . . . . . . . . . . . . . . . {+S e+>.-.+.U %.(+f+g+R h+i+j+k+;.l+i+j+g.m+n+(+W.U W.-.o+/.y._+. . . . . . . . . . . . . . . . . . . ",
". . . . . . . . . . . . . . . . . . . . {+p p+q+<+r+Y f.J p m m m m 5.s+I.m.m m m m p J E.).t+<+q+n.t _+. . . . . . . . . . . . . . . . . . . ",
". . . . . . . . . . . . . . . . . . . . {+p m m m :.Y (.m m m m m m 5.s+I.m.m m m m m m u+).<.m m m t _+. . . . . . . . . . . . . . . . . . . ",
". . . . . . . . . . . . . . . . . . . . {+p m m m :.Y (.m m m m m m 5.s+I.m.m m m m m m u+).<.m m m t _+. . . . . . . . . . . . . . . . . . . ",
". . . . . . . . . . . . . . . . . . . . {+p m m m :.Y (.m m m m m m 5.s+I.m.m m m m m m u+).<.m m m t _+. . . . . . . . . . . . . . . . . . . ",
". . . . . . . . . . . . . . . . . . . . {+p m m m :.Y (.m m m m m m 5.s+I.m.m m m m m m u+).<.m m m t _+. . . . . . . . . . . . . . . . . . . ",
". . . . . . . . . . . . . . . . . . . . {+p N 2.k.v+Y P 1+w+@+r+x+y+l+z++.A+y+x+r+@+B+c.C+).'+n.2.4+t _+. . . . . . . . . . . . . . . . . . . ",
". . . . . . . . . . . . . . . . . . . . {+S /.@.D+X.U 0+).E+T.~.!.!.!.!.!.!.!.!.~.T.E+).!.U ,.D+@.F+y._+. . . . . . . . . . . . . . . . . . . ",
". . . . . . . . . . . . . . . . . . . . {+S h+h.G+{.M.g.H+A+Q >.++t+I+I+I+I+t+J+K+L.A+h+g.F.G.L+T M+y._+. . . . . . . . . . . . . . . . . . . ",
". . . . . . . . . . . . . . . . . . . . {+p m.l.t J m m m J ]+*+^+m m m m m m /+,.(+J m m m J t l.:+t _+. . . . . . . . . . . . . . . . . . . ",
". . . . . . . . . . . . . . . . . . . . {+p m m m m m m m J ]+*+^+m m m m m m /+,.(+J m m m m m m m t _+. . . . . . . . . . . . . . . . . . . ",
". . . . . . . . . . . . . . . . . . . . {+p m m m m m m m J ]+*+^+m m m m m m /+,.(+J m m m m m m m t _+. . . . . . . . . . . . . . . . . . . ",
". . . . . . . . . . . . . . . . . . . . {+p m m m m m m m J ]+*+^+m m m m m m /+,.(+J m m m m m m m t _+. . . . . . . . . . . . . . . . . . . ",
". . . . . . . . . . . . . . . . . . . . {+p m m m J J y.:+N+]+*+a.l.l.l.l.l.l.O+,.(+z.:+y.J J m m m t _+. . . . . . . . . . . . . . . . . . . ",
". . . . . . . . . . . . . . . . . . . . {+J |+g.P+{.]+Q+7+h.R+X S+T+T+T+T+T+T+I.W U+h.7+Q+]+{.V+R d.y._+. . . . . . . . . . . . . . . . . . . ",
". . . . . . . . . . . . . . . . . . . . {+S n+W+X.` U ` X++.W.W.@.@.@.Y+X @.@.@.W.W.+.;.Z+U V.X.U.R y._+. . . . . . . . . . . . . . . . . . . ",
". . . . . . . . . . . . . . . . . . . . {+p `+$+[+y+Y  @.@<+8.2.2.2.+@s+I.@@2.2.2.8.<+.@m+).#@[+=+0.t _+. . . . . . . . . . . . . . . . . . . ",
". . . . . . . . . . . . . . . . . . . . {+p m m m :.Y (.m m m m m m 5.s+I.m.m m m m m m u+).<.m m m t _+. . . . . . . . . . . . . . . . . . . ",
". . . . . . . . . . . . . . . . . . . . {+p m m m :.Y (.m m m m m m 5.s+I.m.m m m m m m u+).<.m m m t _+. . . . . . . . . . . . . . . . . . . ",
". . . . . . . . . . . . . . . . . . . . $@p m m m :.Y (.m m m m m m 5.s+I.m.m m m m m m u+).<.m m m t %@. . . . . . . . . . . . . . . . . . . ",
". . . . . . . . . . . . . . . . . . . &@*@8._.5+5+m+E+=@5+5+5+5+5+5+-@;@@.++5+5+5+5+5+5+&+>@R 5+5+,@5.'@)@. . . . . . . . . . . . . . . . . . ",
". . . . . . . . . . . . . . . . . . . !@S u+!.!.!.!.X !.!.!.!.!.!.!.!.X X !.!.!.!.!.!.!.T.X !.!.!.!.~@{@]@. . . . . . . . . . . . . . . . . . ",
". . . . . . . . . . . . . . . . . . ^@/@m -+(@(@(@(@(@(@(@(@(@(@(@(@(@(@(@(@(@(@(@(@(@(@(@(@(@(@(@(@O.m _@:@. . . . . . . . . . . . . . . . . ",
". . . . . . . . . . . . . . . . . <@[@m 3.1.1.1.1.1.1.1.1.1.1.1.1.1.1.1.1.1.1.1.1.1.1.1.1.1.1.1.1.1.1.4.m }@)@. . . . . . . . . . . . . . . . ",
". . . . . . . . . . . . . . . . . !@y.c.|@X+X+X+X+X+X+X+X+X+X+X+X+X+X+X+X+X+X+X+X+X+X+X+X+X+X+X+X+X+X+|@=+1@2@. . . . . . . . . . . . . . . . ",
". . . . . . . . . . . . . . . . 3@4@N G+U U U U U U U U U U U U U U U U U U U U U U U U U U U U U U U U {.4+5@6@. . . . . . . . . . . . . . . ",
". . . . . . . . . . . . . . . 7@8@m 2+Y U U U U U U U U U U U U U U U U U U U U U U U U U U U U U U U U Z #+m 9@~ . . . . . . . . . . . . . . ",
". . . . . . . . . . . . . . . 0@y.m .+X+D+D+D+D+D+D+D+D+D+D+D+D+D+D+D+D+D+D+D+D+D+D+D+D+D+D+D+D+D+D+D+D++.3+m O a@. . . . . . . . . . . . . . ",
". . . . . . . . . . . . . . b@c@m m y.k.k.k.k.k.k.k.k.k.k.k.k.k.k.k.k.k.k.k.k.k.k.k.k.k.k.k.k.k.k.k.k.k.k.p m m d@e@. . . . . . . . . . . . . ",
". . . . . . . . . . . . . . b@f@m m m m m m m m m m m m m m m m m m m m m m m m m m m m m m m m m m m m m m m m g@e@. . . . . . . . . . . . . ",
". . . . . . . . . . . . . . b@f@m m m m m m m m m m m m m m m m m m m m m m m m m m m m m m m m m m m m m m m m g@e@. . . . . . . . . . . . . ",
". . . . . . . . . . . . . . b@f@m m m m m m m m m m m m m m m m m m m m m m m m m m m m m m m m m m m m m m m m g@e@. . . . . . . . . . . . . ",
". . . . . . . . . . . . . . b@f@m S S S S S S S S S S S S S S S S S S S S S S S S S S S S S S S S S S S S S S m g@e@. . . . . . . . . . . . . ",
". . . . . . . . . . . . . . b@f@$+c+&+&+&+&+&+&+&+&+&+&+&+&+&+&+&+&+&+&+&+&+&+&+&+&+&+&+&+&+&+&+&+&+&+&+&+&+f+[.g@e@. . . . . . . . . . . . . ",
". . . . . . . . . . . . . . b@h@|+=.@.@.@.@.@.@.@.@.@.@.@.@.@.@.@.@.@.@.@.@.@.@.@.@.@.@.@.@.@.@.@.@.@.@.@.@.*.d.i@e@. . . . . . . . . . . . . ",
". . . . . . . . . . . . . . j@k@l@7.7.7.7.7.7.7.7.7.7.7.7.7.7.7.7.7.7.7.7.7.7.7.7.7.7.7.7.7.7.7.7.7.7.7.7.7.7.J m@n@. . . . . . . . . . . . . ",
". . . . . . . . . . . . . o@p@m m m m m m m m m m m m m m m m m m m m m m m m m m m m m m m m m m m m m m m m m m q@C.. . . . . . . . . . . . ",
". . . . . . . . . . . . . ] r@m m m m m m m m m m m m m m m m m m m m m m m m m m m m m m m m m m m m m m m m m m s@t@. . . . . . . . . . . . ",
". . . . . . . . . . . . . u@v@m m m m m m m m m m m m m m m m m m m m m m m m m m m m m m m m m m m m m m m m m m w@x@. . . . . . . . . . . . ",
". . . . . . . . . . . . . y@z@m m m m m m m m m m m m m m m m m m m m m m m m m m m m m m m m m m m m m m m m m m A@B@. . . . . . . . . . . . ",
". . . . . . . . . . . . . C@D@E@E@E@E@E@E@E@E@E@E@E@E@E@E@E@E@E@E@E@E@E@E@E@E@E@E@E@E@E@E@E@E@E@E@E@E@E@E@E@E@E@E@F@/ . . . . . . . . . . . . ",
". . . . . . . . . . . . . . ] ] ] ] ] ] ] ] ] ] ] ] ] ] ] ] ] ] ] ] ] ] ] ] ] ] ] ] ] ] ] ] ] ] ] ] ] ] ] ] ] ] ] $ . . . . . . . . . . . . . ",
". . . . . . . . . . . . . . . . . . . . . . . . . . . . . . . . . . . . . . . . . . . . . . . . . . . . . . . . . . . . . . . . . . . . . . . ",
". . . . . . . . . . . . . . . . . . . . . . . . . . . . . . . . . . . . . . . . . . . . . . . . . . . . . . . . . . . . . . . . . . . . . . . ",
". . . . . . . . . . . . . . . . . . . . . . . . . . . . . . . . . . . . . . . . . . . . . . . . . . . . . . . . . . . . . . . . . . . . . . . "};
