/* XPM */
static char * ybwk_xpm[] = {
"71 71 435 2",
"  	c None",
". 	c #1C8D1C",
"+ 	c #226022",
"@ 	c #213E21",
"# 	c #1E381E",
"$ 	c #213F21",
"% 	c #276827",
"& 	c #1A2D1A",
"* 	c #0B0B0B",
"= 	c #171717",
"- 	c #6A6A6A",
"; 	c #8F8F8F",
"> 	c #5B5B5B",
", 	c #121212",
"' 	c #090909",
") 	c #1B351B",
"! 	c #213221",
"~ 	c #656565",
"{ 	c #242424",
"] 	c #4C4C4C",
"^ 	c #C0C0C0",
"/ 	c #FFFFFF",
"( 	c #B8B8B8",
"_ 	c #404040",
": 	c #383838",
"< 	c #5E5E5E",
"[ 	c #192E19",
"} 	c #C6C6C6",
"| 	c #B2B2B2",
"1 	c #3E3E3E",
"2 	c #363636",
"3 	c #A7A7A7",
"4 	c #A0A0A0",
"5 	c #2A2A2A",
"6 	c #4A4A4A",
"7 	c #BFBFBF",
"8 	c #B1B1B1",
"9 	c #C4C4C4",
"0 	c #515151",
"a 	c #141414",
"b 	c #131313",
"c 	c #606060",
"d 	c #D8D8D8",
"e 	c #E3E3E3",
"f 	c #616161",
"g 	c #000000",
"h 	c #707070",
"i 	c #F7F7F7",
"j 	c #D1D1D1",
"k 	c #878787",
"l 	c #808080",
"m 	c #696969",
"n 	c #DFDFDF",
"o 	c #848484",
"p 	c #444444",
"q 	c #2C2C2C",
"r 	c #999999",
"s 	c #202020",
"t 	c #585858",
"u 	c #7B7B7B",
"v 	c #132513",
"w 	c #1A1A1A",
"x 	c #1C1C1C",
"y 	c #7E7E7E",
"z 	c #C3C3C3",
"A 	c #6D6D6D",
"B 	c #151515",
"C 	c #161616",
"D 	c #132813",
"E 	c #282828",
"F 	c #333333",
"G 	c #272727",
"H 	c #232323",
"I 	c #AEAEAE",
"J 	c #E7E7E7",
"K 	c #DEDEDE",
"L 	c #ABABAB",
"M 	c #1F331F",
"N 	c #797979",
"O 	c #4D4D4D",
"P 	c #7D7D7D",
"Q 	c #C8C8C8",
"R 	c #969696",
"S 	c #353535",
"T 	c #919191",
"U 	c #9E9E9E",
"V 	c #C2C2C2",
"W 	c #246F24",
"X 	c #245D24",
"Y 	c #225222",
"Z 	c #1F511F",
"` 	c #245724",
" .	c #276027",
"..	c #266D26",
"+.	c #30A130",
"@.	c #152715",
"#.	c #424242",
"$.	c #FBFBFB",
"%.	c #FAFAFA",
"&.	c #132913",
"*.	c #258025",
"=.	c #246C24",
"-.	c #256025",
";.	c #225422",
">.	c #255F25",
",.	c #247024",
"'.	c #36B136",
").	c #1D4C1D",
"!.	c #132213",
"~.	c #070907",
"{.	c #151715",
"].	c #101610",
"^.	c #172B17",
"/.	c #1E501E",
"(.	c #277727",
"_.	c #767676",
":.	c #FEFEFE",
"<.	c #6B6B6B",
"[.	c #267526",
"}.	c #1D4D1D",
"|.	c #142914",
"1.	c #0F150F",
"2.	c #161716",
"3.	c #222222",
"4.	c #111111",
"5.	c #070A07",
"6.	c #132413",
"7.	c #1C4F1C",
"8.	c #1E5A1E",
"9.	c #142214",
"0.	c #0C0C0C",
"a.	c #939393",
"b.	c #DBDBDB",
"c.	c #D4D4D4",
"d.	c #A2A2A2",
"e.	c #6C6C6C",
"f.	c #313131",
"g.	c #131913",
"h.	c #1B421B",
"i.	c #237023",
"j.	c #ACACAC",
"k.	c #070707",
"l.	c #256E25",
"m.	c #1B3F1B",
"n.	c #141914",
"o.	c #343434",
"p.	c #717171",
"q.	c #A4A4A4",
"r.	c #C7C7C7",
"s.	c #D5D5D5",
"t.	c #909090",
"u.	c #4E4E4E",
"v.	c #0A0A0A",
"w.	c #142514",
"x.	c #226122",
"y.	c #194C19",
"z.	c #F1F1F1",
"A.	c #C9C9C9",
"B.	c #8D8D8D",
"C.	c #3D3D3D",
"D.	c #454545",
"E.	c #595959",
"F.	c #7F7F7F",
"G.	c #AFAFAF",
"H.	c #CBCBCB",
"I.	c #505050",
"J.	c #1B3B1B",
"K.	c #0E0E0E",
"L.	c #BCBCBC",
"M.	c #0D150D",
"N.	c #173717",
"O.	c #141814",
"P.	c #555555",
"Q.	c #A5A5A5",
"R.	c #ADADAD",
"S.	c #434343",
"T.	c #CCCCCC",
"U.	c #A6A6A6",
"V.	c #474747",
"W.	c #0F0F0F",
"X.	c #134913",
"Y.	c #194E19",
"Z.	c #E0E0E0",
"`.	c #626262",
" +	c #5A5A5A",
".+	c #646464",
"++	c #5C5C5C",
"@+	c #494949",
"#+	c #2E2E2E",
"$+	c #191919",
"%+	c #020202",
"&+	c #949494",
"*+	c #898989",
"=+	c #A3A3A3",
"-+	c #2D2D2D",
";+	c #303030",
">+	c #3C3C3C",
",+	c #181818",
"'+	c #676767",
")+	c #C5C5C5",
"!+	c #DADADA",
"~+	c #1D541D",
"{+	c #256825",
"]+	c #111211",
"^+	c #727272",
"/+	c #9A9A9A",
"(+	c #292929",
"_+	c #F2F2F2",
":+	c #FDFDFD",
"<+	c #FCFCFC",
"[+	c #F8F8F8",
"}+	c #E9E9E9",
"|+	c #868686",
"1+	c #3B3B3B",
"2+	c #929292",
"3+	c #D0D0D0",
"4+	c #CDCDCD",
"5+	c #D2D2D2",
"6+	c #8E8E8E",
"7+	c #3F3F3F",
"8+	c #8A8A8A",
"9+	c #EBEBEB",
"0+	c #F9F9F9",
"a+	c #CECECE",
"b+	c #828282",
"c+	c #2B2B2B",
"d+	c #9F9F9F",
"e+	c #216921",
"f+	c #193319",
"g+	c #E2E2E2",
"h+	c #CFCFCF",
"i+	c #E5E5E5",
"j+	c #DCDCDC",
"k+	c #414141",
"l+	c #CACACA",
"m+	c #1F1F1F",
"n+	c #1B391B",
"o+	c #236723",
"p+	c #AAAAAA",
"q+	c #636363",
"r+	c #E4E4E4",
"s+	c #B7B7B7",
"t+	c #535353",
"u+	c #545454",
"v+	c #B5B5B5",
"w+	c #1E1E1E",
"x+	c #101210",
"y+	c #226B22",
"z+	c #1A401A",
"A+	c #464646",
"B+	c #EFEFEF",
"C+	c #686868",
"D+	c #BABABA",
"E+	c #888888",
"F+	c #ECECEC",
"G+	c #1D471D",
"H+	c #152515",
"I+	c #B3B3B3",
"J+	c #737373",
"K+	c #252525",
"L+	c #262626",
"M+	c #BBBBBB",
"N+	c #182C18",
"O+	c #131E13",
"P+	c #080808",
"Q+	c #1D1D1D",
"R+	c #484848",
"S+	c #060606",
"T+	c #131F13",
"U+	c #0F1A0F",
"V+	c #E1E1E1",
"W+	c #BDBDBD",
"X+	c #EAEAEA",
"Y+	c #777777",
"Z+	c #525252",
"`+	c #F3F3F3",
" @	c #D9D9D9",
".@	c #162016",
"+@	c #152015",
"@@	c #DDDDDD",
"#@	c #F5F5F5",
"$@	c #050505",
"%@	c #A8A8A8",
"&@	c #E6E6E6",
"*@	c #666666",
"=@	c #9B9B9B",
"-@	c #212121",
";@	c #BEBEBE",
">@	c #122012",
",@	c #7C7C7C",
"'@	c #747474",
")@	c #2F2F2F",
"!@	c #1E411E",
"~@	c #1E4F1E",
"{@	c #575757",
"]@	c #C1C1C1",
"^@	c #5D5D5D",
"/@	c #1B1B1B",
"(@	c #D3D3D3",
"_@	c #E8E8E8",
":@	c #5F5F5F",
"<@	c #F0F0F0",
"[@	c #F6F6F6",
"}@	c #4F4F4F",
"|@	c #247124",
"1@	c #121512",
"2@	c #959595",
"3@	c #B0B0B0",
"4@	c #040404",
"5@	c #B6B6B6",
"6@	c #4B4B4B",
"7@	c #030303",
"8@	c #A1A1A1",
"9@	c #141C14",
"0@	c #31A131",
"a@	c #1A381A",
"b@	c #393939",
"c@	c #323232",
"d@	c #B4B4B4",
"e@	c #373737",
"f@	c #A9A9A9",
"g@	c #1B451B",
"h@	c #236A23",
"i@	c #171A17",
"j@	c #8C8C8C",
"k@	c #9D9D9D",
"l@	c #1C251C",
"m@	c #237423",
"n@	c #1C4B1C",
"o@	c #9C9C9C",
"p@	c #7A7A7A",
"q@	c #1E551E",
"r@	c #193719",
"s@	c #1C411C",
"t@	c #237323",
"u@	c #838383",
"v@	c #818181",
"w@	c #8B8B8B",
"x@	c #3A3A3A",
"y@	c #172E17",
"z@	c #3DCF3D",
"A@	c #236523",
"B@	c #252825",
"C@	c #6F6F6F",
"D@	c #979797",
"E@	c #212921",
"F@	c #216B21",
"G@	c #565656",
"H@	c #B9B9B9",
"I@	c #1E541E",
"J@	c #182E18",
"K@	c #0D0D0D",
"L@	c #183318",
"M@	c #205F20",
"N@	c #3C3D3C",
"O@	c #D6D6D6",
"P@	c #323332",
"Q@	c #216521",
"R@	c #112111",
"S@	c #F4F4F4",
"T@	c #111D11",
"U@	c #152215",
"V@	c #266C26",
"W@	c #030403",
"X@	c #EEEEEE",
"Y@	c #101010",
"Z@	c #060806",
"`@	c #267026",
" #	c #256B25",
".#	c #787878",
"+#	c #6E6E6E",
"@#	c #040604",
"##	c #256D25",
"$#	c #257725",
"%#	c #0B0F0B",
"&#	c #0C120C",
"*#	c #2FA12F",
"=#	c #1A321A",
"-#	c #183618",
";#	c #205D20",
">#	c #070B07",
",#	c #247324",
"'#	c #277327",
")#	c #080A08",
"!#	c #080C08",
"~#	c #257625",
"{#	c #246724",
"]#	c #EDEDED",
"^#	c #D7D7D7",
"/#	c #050705",
"(#	c #246B24",
"_#	c #215421",
":#	c #205A20",
"<#	c #1E421E",
"[#	c #1E471E",
"}#	c #172D17",
"|#	c #101E10",
"1#	c #858585",
"2#	c #122312",
"3#	c #225622",
"4#	c #1A301A",
"5#	c #090E09",
"6#	c #0B100B",
"7#	c #205720",
"8#	c #1D551D",
"9#	c #1A371A",
"0#	c #101B10",
"a#	c #757575",
"b#	c #090B09",
"c#	c #0F1C0F",
"d#	c #1C3B1C",
"e#	c #205820",
"f#	c #257125",
"g#	c #225922",
"h#	c #1D401D",
"i#	c #0C170C",
"j#	c #070C07",
"k#	c #030503",
"l#	c #010101",
"m#	c #090D09",
"n#	c #0D180D",
"o#	c #267226",
"p#	c #257825",
"q#	c #1E441E",
"r#	c #1A341A",
"s#	c #152D15",
"t#	c #112911",
"u#	c #162A16",
"v#	c #102810",
"w#	c #162D16",
"x#	c #1A3B1A",
"y#	c #1F451F",
"z#	c #235123",
"A#	c #286028",
"B#	c #257925",
". . . . . . . . . . . . . . . . . . . . . . . . . . . . . . . . . . . . . . . . . . . . . . . . . . . . . . . . . . . . . . . . . . . . . . . ",
". . . . . . . . . . . . . . . . . . . . . . . . . . . . . . . . . . . . . . . . . . . . . . . . . . . . . . . . . . . . . . . . . . . . . . . ",
". . . . . . . . . . . . . . . . . . . . . . . . . . . . . . . . . . . . . . . . . . . . . . . . . . . . . . . . . . . . . . . . . . . . . . . ",
". . . . . . . . . . . . . . . . . . . . . . . . . . . . . . . . . . . . . . . . . . . . . . . . . . . . . . . . . . . . . . . . . . . . . . . ",
". . . . . . . . . . . . . . . . . . . . . . . . . . . . . . . . . . . . . . . . . . . . . . . . . . . . . . . . . . . . . . . . . . . . . . . ",
". . . . . . . . . . . . . . . . . . . . . . . . . . . . . . . . . . . . . . . . . . . . . . . . . . . . . . . . . . . . . . . . . . . . . . . ",
". . . . . . . . . . . . . . . . . . . . . . . . . . . . . . . . . . . . . . . . . . . . . . . . . . . . . . . . . . . . . . . . . . . . . . . ",
". . . . . . . . . . . . . . . . . . . . . . . . . . . . . . + @ # # # # # # # # $ % . . . . . . . . . . . . . . . . . . . . . . . . . . . . . ",
". . . . . . . . . . . . . . . . . . . . . . . . . . . . . . & * = - ; ; ; ; > , ' ) . . . . . . . . . . . . . . . . . . . . . . . . . . . . . ",
". . . . . . . . . . . . . . . . . . . . . . . . . . . . . . ! ~ { ] ^ / / ( _ : < [ . . . . . . . . . . . . . . . . . . . . . . . . . . . . . ",
". . . . . . . . . . . . . . . . . . . . . . . . . . . . . . ! } | 1 2 3 4 5 6 7 8 [ . . . . . . . . . . . . . . . . . . . . . . . . . . . . . ",
". . . . . . . . . . . . . . . . . . . . . . . . . . . . . . ! } / 9 0 a b c d / 8 [ . . . . . . . . . . . . . . . . . . . . . . . . . . . . . ",
". . . . . . . . . . . . . . . . . . . . . . . . . . . . . . ! } / e f g g h i / 8 [ . . . . . . . . . . . . . . . . . . . . . . . . . . . . . ",
". . . . . . . . . . . . . . . . . . . . . . . . . . . . . . ! } j < = k l * m n 8 [ . . . . . . . . . . . . . . . . . . . . . . . . . . . . . ",
". . . . . . . . . . . . . . . . . . . . . . . . . . . . . . ! o p q 4 / / r s t u [ . . . . . . . . . . . . . . . . . . . . . . . . . . . . . ",
". . . . . . . . . . . . . . . . . . . . . . . . . . . . . . v w x y z z z z A B C D . . . . . . . . . . . . . . . . . . . . . . . . . . . . . ",
". . . . . . . . . . . . . . . . . . . . . . . . . . . . . . v { E F F F F F F G H D . . . . . . . . . . . . . . . . . . . . . . . . . . . . . ",
". . . . . . . . . . . . . . . . . . . . . . . . . . . . . . ! I J J J K n J J J L M . . . . . . . . . . . . . . . . . . . . . . . . . . . . . ",
". . . . . . . . . . . . . . . . . . . . . . . . . . . . . . ! } / z N ] O P Q / z M . . . . . . . . . . . . . . . . . . . . . . . . . . . . . ",
". . . . . . . . . . . . . . . . . . . . . . . . . . . . . . ! } R S < T ; > 2 U V M . . . . . . . . . . . . . . . . . . . . . . . . . . . . . ",
". . . . . . . . . . . . . . . . W X Y Z `  ...+.. . . . . . @.#.{ U $./ / %.r E p &.. . . . . . *.=.-.` Z ;.>.,.. . . . . . . . . . . . . . . ",
". . . . . . . . . . . . . '.).!.~., H 5 E s {.].^./.(.. . . v g _./ / / / / :.<.g D . . . [.}.|.1.2.s E 5 3.4.5.6.7.. . . . . . . . . . . . . ",
". . . . . . . . . . . . 8.9.0.0 a.Q K K b.c.} d.e.f.g.h.i.. v * ( / / / / / / j.k.D . l.m.n.o.p.q.r.s.b.K K r.t.u.v.w.x.. . . . . . . . . . . ",
". . . . . . . . . . . y.k.] L z.A.B.< #.C.D.E.F.G.H.4 I.n.J.1.K.9 / / / / / / L.* M.N.O.P.Q.H.R.P t p C.S.f t.T.z.U.V.W.X.. . . . . . . . . . ",
". . . . . . . . . . Y.g h Z.^ `.B w 1  +.+++@+#+$+f.l H.U 1 g %+&+/ / / / / / *+g g p =+r.u -+$+;+6 ++.+t >+,+,+'+)+!+~ %+~+. . . . . . . . . ",
". . . . . . . . . {+]+^+%./+(+;+k j _+$.:+<+[+}+} |+1+F 2+3+D.g C.4+/ / / / V o.g u.5+6+#+7+8+A.9+0+<+:+$.z.a+b+c+q d+}+~ g.e+. . . . . . . . ",
". . . . . . . . . f+O g+r C c h+/ / / / / / / / / / i+8+E ] E D.G V.q.j+b.4 >+c+k+q V.q ; }+/ / / / / / / / / / l+> m+d+!+D.n+. . . . . . . . ",
". . . . . . . . o+]+p+^ E q+r+/ / / / / / / / / / / / / s+7+H r.A.l t+u+u+u+o a+v+w+S.L./ / / / / / / / / / / / / n < -+l+d.x+y+. . . . . . . ",
". . . . . . . . z+A+B+C+1+s./ / / / / / / / / / / / / / / 7 7+> Z./ D+|+E+7 / d O #.9 / / / / / / / / / / / / / / / h+;+^+F+1+G+. . . . . . . ",
". . . . . . . . H+P b.H ; / / / / / / / / / / / / / / / / / I+s J+q.H K+H L+3 A q M+/ / / / / / / / / / / / / / / / / o c+e p.N+. . . . . . . ",
". . . . . . . . O+d.L.m+a+/ / / / / / / / / / / / / / / / / / 8+P+Q+R+j H.1 m+S+2+/ / / / / / / / / / / / / / / / / / 9 w+} R T+. . . . . . . ",
". . . . . . . . U+j.R.L+V+/ / / / / / / :+W+<+/ / / / / / / / X+V.g b+/ / Y+g Z+_+/ / / / / / / / `+W+:./ / / / / / /  @3.D+U..@. . . . . . . ",
". . . . . . . . +@U.I+{ @@/ / / / / / / 2+%+_.#@/ / / / / / / / d+$@k / / u ' %@/ / / / / / / / &@*@k.=@/ / / / / / / s.-@;@=@>@. . . . . . . ",
". . . . . . . . !.6+z w+A./ / / / / /  @F ' g ,@/ / / / / / / / 9+C..+:+%.t @+z./ / / / / / / :+'@g * 1+V+/ / / / / / ^ w+4+l ^.. . . . . . . ",
". . . . . . . . f+*@b.H /+/ / / / / / 8+' y u+0.q./ / $.[+<+/ / / |+)@&@@@L+t./ / / $.[+$./ / /+$@++y $@&+/ / / / / / 6+E n E.!@. . . . . . . ",
". . . . . . . . ~@F V+0 {@[+/ / / / z.D.I.#@]@m+D.9 B.^@u.C+d.F+/ A./@U.=@m+(@/ _@U *@u.:@t.V C.L+l+<@p I.[@/ / / / #@}@++K q X . . . . . . . ",
". . . . . . . . |@1@j.2@4.3@i d )+a+9 $+B./ :+~ g 3.b D.O q 4@u.W+_+#.u.R+O i 5@6@7@)@u.S.W.3.g h :./ b+m+l+4+}  @[+3 W.4 8@9@0@. . . . . . . ",
". . . . . . . . . a@++b.>+b@Z+Q+a a q ' s+/ / /+7@c@G.i %.s.)@S+1+W+N g g o d@-+S+e@n $.[@Q.G $@U./ / f@S+-+b B w+Z+S D.K 0 g@. . . . . . . . ",
". . . . . . . . . h@i@q./+$@-@t.I+j@S ' s+/ / 5@4.k@/ / / =+G p.c+O 2@$@' r V.b@'@{ L / / / 2@4.^ / / p+4@b@t.I+j@w+v.q./+l@m@. . . . . . . . ",
". . . . . . . . . . n@1 a+- (+4+/ / 7 >+&+/ / I+D.B+/ / 5+C.o / o@* - ,+m+C+K.%@/ p@V.!+/ / }+1 7 / / E+#.9 / / 9 3.p.l+S q@. . . . . . . . . ",
". . . . . . . . . . . r@`.H.@+'+[+/ / 3 <.$./ =+^+:./ #@~ G j+/ _+_ = 4., a 6 i / j m+A <+/ :+'+3@/ [+.+G./ / z.^@Z+H.> s@. . . . . . . . . . ",
". . . . . . . . . . . t@@.u@d@Q+v@/ / i _.Q / o w@/ i P g D.0+/ $.u.P.M+( O t <+/ `+x@g F.:+/ y T / ^ p@%./ / y (+;@p@y@z@. . . . . . . . . . ",
". . . . . . . . . . . . A@B@I b+7@v@i / U C@9+Z+*@I+.+g g 5 T.$.D+L+D@/ / j@c+;@$.^ 3.g g <.v+:@:@e *@f@/ `+F.g j@%@E@F@. . . . . . . . . . . ",
". . . . . . . . . . . . . ~@] a+k+g .+V d.0.e@%+g 0.g g g g c@I.G g G@L.H@}@g 5 I.-+g g g g 0.g P+e@4.L W+< g 6 4+#.I@. . . . . . . . . . . . ",
". . . . . . . . . . . . . . J@B.=@4@g C /@g g g g g g g g g 7@v.K@b C E G C b K@' 7@g g g g g g g g g x a g ' q.u@L@. . . . . . . . . . . . . ",
". . . . . . . . . . . . . . M@N@q.K+g g g g g 4@, E S.:@,@2@p+M+)+h+c.O@O@c.h+)+D+%@&+p@^@k+L+4.7@g g g g g c+U.P@Q@. . . . . . . . . . . . . ",
". . . . . . . . . . . . . . . R@w g g g = #._.Q.H.r+S@<+/ / / / / / / / / / / / / / / / <+`+e l+d.J+_ B g g g /@@.. . . . . . . . . . . . . . ",
". . . . . . . . . . . . . . . T@g 7@S.B.a+_+/ / / / / :+#@F+V+O@A.z ^ M+M+^ z l+O@g+F+[@:+/ / / / / z.H.*+7+g g U@. . . . . . . . . . . . . . ",
". . . . . . . . . . . . . . V@W@w+2+F+/ / / :+X@5+G.E+~ A+;+3.= W.* K.= = K@* Y@= 3.f.V.'+w@8 c.B+:./ / / }+B.$+Z@`@. . . . . . . . . . . . . ",
". . . . . . . . . . . . . .  #4@.#/ / %.!+d.<.b@= S+g g g g g g w+f k@} )+r ^@/@g g g g g g S+$+>+C@U.j+$./ / +#@###. . . . . . . . . . . . . ",
". . . . . . . . . . . . . . $#%#`.9 =+c G w+G { w 4.4@g g g $@p.H.$./ / / / %.r.A g g g g $@, /@K+G w+5 .+U.]@t &#*#. . . . . . . . . . . . . ",
". . . . . . . . . . . . . . . =#g Y@5 m 3 O@J r+ @H.d+o.g g c :./ / / / / / / / :+G@g g 1 q.4+!+r+J c.q.~ G Y@g -#. . . . . . . . . . . . . . ",
". . . . . . . . . . . . . . . I@g Z+(@:+/ / / / / / K p g g >+v+$./ / / / / / 0+3@S g g 6@Z./ / / / / / <+a+6 7@;#. . . . . . . . . . . . . . ",
". . . . . . . . . . . . . . . `@~.P / / / / / / :.( Z+g g g g = `.3 j+_+z.b.q.^@, g g g g {@;@:./ / / / / / p.>#,#. . . . . . . . . . . . . . ",
". . . . . . . . . . . . . . . '#)#*+/ / / / 0+9 p.w g g g 7@k.* Y@/@2 }@u.S w Y@* k.7@g g g w+Y+A.%./ / / / ,@!#~#. . . . . . . . . . . . . . ",
". . . . . . . . . . . . . . . {#k.b+X+]#^#d+++$+W.(+6 e.E+d.5@V l+j c.s.s.c.j l+V v+8@k - R+G K./@c d. @]#X+_./#(#. . . . . . . . . . . . . . ",
". . . . . . . . . . . . . . . _#g C #+;+m+G E.t.9 i+i :./ / / :.<+%.%.%.%.%.%.<+:./ / / :.[@e V B.P.K+s f.-+, g :#. . . . . . . . . . . . . . ",
". . . . . . . . . . . . . . . <#g g B G@=@!+0+/ / $.X+j d@D@y <.++t+0 I.I.0 t+++e.F.r v+5+9+$./ / 0+^#R Z+b g g [#. . . . . . . . . . . . . . ",
". . . . . . . . . . . . . . . }#4.p.9 [+/ / _+A.a.< e@-+S V.^@h v@B.; ; ; ; B.l C@++A+o.q : f D@4+S@/ / [@7 e.K@f+. . . . . . . . . . . . . . ",
". . . . . . . . . . . . . . . |#* {@T l+r.1#@+c@] y R.5+X+[@<+/ / / / / / / / / / $.#@}+3+L u @+F ] *+H.} 6+t+k.2#. . . . . . . . . . . . . . ",
". . . . . . . . . . . . . . . 3#4#5#g b B S+b@a.5+B+%./ / / / / / / / / / / / / / / / / / %.X@h+; 2 $@C , g 6#=#7#. . . . . . . . . . . . . . ",
". . . . . . . . . . . . . . . . . m@8#9#0#~.g v.Q+2 u+a#a.I ]@j !+r+J J J J r+!+3+]@j.T J+Z+o.x ' g b#c#d#e#$#. . . . . . . . . . . . . . . . ",
". . . . . . . . . . . . . . . . . . . . . f#g#h#@.i#j#k#g 4@0.a /@K+E E E E K+/@a * 4@l#@#m#n#D <#7#o#. . . . . . . . . . . . . . . . . . . . ",
". . . . . . . . . . . . . . . . . . . . . . . . . . p#(#>.Y q#J.r#s#t#u#u#v#w#f+x#y#z#A###B#. . . . . . . . . . . . . . . . . . . . . . . . . ",
". . . . . . . . . . . . . . . . . . . . . . . . . . . . . . . . . . . . . . . . . . . . . . . . . . . . . . . . . . . . . . . . . . . . . . . ",
". . . . . . . . . . . . . . . . . . . . . . . . . . . . . . . . . . . . . . . . . . . . . . . . . . . . . . . . . . . . . . . . . . . . . . . ",
". . . . . . . . . . . . . . . . . . . . . . . . . . . . . . . . . . . . . . . . . . . . . . . . . . . . . . . . . . . . . . . . . . . . . . . ",
". . . . . . . . . . . . . . . . . . . . . . . . . . . . . . . . . . . . . . . . . . . . . . . . . . . . . . . . . . . . . . . . . . . . . . . ",
". . . . . . . . . . . . . . . . . . . . . . . . . . . . . . . . . . . . . . . . . . . . . . . . . . . . . . . . . . . . . . . . . . . . . . . ",
". . . . . . . . . . . . . . . . . . . . . . . . . . . . . . . . . . . . . . . . . . . . . . . . . . . . . . . . . . . . . . . . . . . . . . . ",
". . . . . . . . . . . . . . . . . . . . . . . . . . . . . . . . . . . . . . . . . . . . . . . . . . . . . . . . . . . . . . . . . . . . . . . "};
