/* XPM */
static char * ybwn_xpm[] = {
"71 71 500 2",
"  	c None",
". 	c #1C8D1C",
"+ 	c #1D8C1D",
"@ 	c #218F21",
"# 	c #238923",
"$ 	c #206520",
"% 	c #2A7D2A",
"& 	c #1E8E1E",
"* 	c #1D571D",
"= 	c #1E4D1E",
"- 	c #248624",
"; 	c #216021",
"> 	c #020202",
", 	c #1C2E1C",
"' 	c #2E752E",
") 	c #257A25",
"! 	c #0E160E",
"~ 	c #000000",
"{ 	c #1C4E1C",
"] 	c #235423",
"^ 	c #162A16",
"/ 	c #247724",
"( 	c #225922",
"_ 	c #111D11",
": 	c #268026",
"< 	c #245724",
"[ 	c #111111",
"} 	c #1C3F1C",
"| 	c #288D28",
"1 	c #228D22",
"2 	c #1C3C1C",
"3 	c #232323",
"4 	c #1B1B1B",
"5 	c #1E531E",
"6 	c #256025",
"7 	c #010101",
"8 	c #484848",
"9 	c #3E3E3E",
"0 	c #205720",
"a 	c #228622",
"b 	c #112011",
"c 	c #040404",
"d 	c #9A9A9A",
"e 	c #9E9E9E",
"f 	c #1C2A1C",
"g 	c #257625",
"h 	c #266D26",
"i 	c #040504",
"j 	c #8D8D8D",
"k 	c #162216",
"l 	c #256625",
"m 	c #246224",
"n 	c #0C130C",
"o 	c #0B0B0B",
"p 	c #BEBEBE",
"q 	c #E7E7E7",
"r 	c #2F2F2F",
"s 	c #1C381C",
"t 	c #247924",
"u 	c #277927",
"v 	c #0A0E0A",
"w 	c #262626",
"x 	c #6D6D6D",
"y 	c #070A07",
"z 	c #0C0C0C",
"A 	c #C5C5C5",
"B 	c #FCFCFC",
"C 	c #656565",
"D 	c #152B15",
"E 	c #246824",
"F 	c #248424",
"G 	c #247F24",
"H 	c #237723",
"I 	c #247424",
"J 	c #247824",
"K 	c #248224",
"L 	c #208C20",
"M 	c #258125",
"N 	c #0D160D",
"O 	c #030303",
"P 	c #151515",
"Q 	c #D2D2D2",
"R 	c #FFFFFF",
"S 	c #9F9F9F",
"T 	c #080B08",
"U 	c #0F1A0F",
"V 	c #0C150C",
"W 	c #080D08",
"X 	c #090B09",
"Y 	c #090E09",
"Z 	c #0F190F",
"` 	c #1D4A1D",
" .	c #228C22",
"..	c #277027",
"+.	c #0B0F0B",
"@.	c #353535",
"#.	c #646464",
"$.	c #191919",
"%.	c #181818",
"&.	c #D7D7D7",
"*.	c #D5D5D5",
"=.	c #070707",
"-.	c #0A0A0A",
";.	c #142614",
">.	c #2A802A",
",.	c #208D20",
"'.	c #1B3E1B",
").	c #474747",
"!.	c #BABABA",
"~.	c #686868",
"{.	c #161616",
"].	c #575757",
"^.	c #E5E5E5",
"/.	c #F6F6F6",
"(.	c #ADADAD",
"_.	c #D4D4D4",
":.	c #B8B8B8",
"<.	c #818181",
"[.	c #454545",
"}.	c #121212",
"|.	c #0E190E",
"1.	c #122612",
"2.	c #1A381A",
"3.	c #1F501F",
"4.	c #286B28",
"5.	c #268126",
"6.	c #277527",
"7.	c #0D110D",
"8.	c #343434",
"9.	c #C2C2C2",
"0.	c #A8A8A8",
"a.	c #131313",
"b.	c #4A4A4A",
"c.	c #EFEFEF",
"d.	c #FEFEFE",
"e.	c #F2F2F2",
"f.	c #BFBFBF",
"g.	c #767676",
"h.	c #282828",
"i.	c #1D2A1D",
"j.	c #297929",
"k.	c #1D4C1D",
"l.	c #050505",
"m.	c #989898",
"n.	c #8C8C8C",
"o.	c #303030",
"p.	c #B2B2B2",
"q.	c #D6D6D6",
"r.	c #7F7F7F",
"s.	c #242424",
"t.	c #1B291B",
"u.	c #296429",
"v.	c #289228",
"w.	c #248724",
"x.	c #383838",
"y.	c #EAEAEA",
"z.	c #CECECE",
"A.	c #858585",
"B.	c #AEAEAE",
"C.	c #C4C4C4",
"D.	c #616161",
"E.	c #0F110F",
"F.	c #152515",
"G.	c #1C451C",
"H.	c #246924",
"I.	c #297329",
"J.	c #090C09",
"K.	c #717171",
"L.	c #8F8F8F",
"M.	c #1F1F1F",
"N.	c #132313",
"O.	c #1D4E1D",
"P.	c #287D28",
"Q.	c #1F541F",
"R.	c #A4A4A4",
"S.	c #AAAAAA",
"T.	c #142014",
"U.	c #206E20",
"V.	c #1B3A1B",
"W.	c #BDBDBD",
"X.	c #3F3F3F",
"Y.	c #0E100E",
"Z.	c #254025",
"`.	c #215621",
" +	c #278427",
".+	c #122112",
"++	c #505050",
"@+	c #EEEEEE",
"#+	c #CACACA",
"$+	c #BCBCBC",
"%+	c #C0C0C0",
"&+	c #F8F8F8",
"*+	c #080808",
"=+	c #1F431F",
"-+	c #257925",
";+	c #216521",
">+	c #464646",
",+	c #101010",
"'+	c #090909",
")+	c #757575",
"!+	c #898989",
"~+	c #A6A6A6",
"{+	c #1C1C1C",
"]+	c #162716",
"^+	c #278127",
"/+	c #182E18",
"(+	c #4E4E4E",
"_+	c #A0A0A0",
":+	c #727272",
"<+	c #747474",
"[+	c #F5F5F5",
"}+	c #D1D1D1",
"|+	c #171717",
"1+	c #2E2E2E",
"2+	c #E8E8E8",
"3+	c #8B8B8B",
"4+	c #151815",
"5+	c #1E551E",
"6+	c #208F20",
"7+	c #229022",
"8+	c #202020",
"9+	c #B5B5B5",
"0+	c #2C2C2C",
"a+	c #CFCFCF",
"b+	c #F4F4F4",
"c+	c #606060",
"d+	c #164916",
"e+	c #219021",
"f+	c #236D23",
"g+	c #0C110C",
"h+	c #878787",
"i+	c #DDDDDD",
"j+	c #323232",
"k+	c #565656",
"l+	c #525252",
"m+	c #C8C8C8",
"n+	c #999999",
"o+	c #333333",
"p+	c #EDEDED",
"q+	c #C7C7C7",
"r+	c #2A2A2A",
"s+	c #1D541D",
"t+	c #248C24",
"u+	c #1B3B1B",
"v+	c #4B4B4B",
"w+	c #A7A7A7",
"x+	c #E0E0E0",
"y+	c #0F0F0F",
"z+	c #3A3A3A",
"A+	c #E2E2E2",
"B+	c #909090",
"C+	c #ABABAB",
"D+	c #888888",
"E+	c #151B15",
"F+	c #216421",
"G+	c #121312",
"H+	c #919191",
"I+	c #8E8E8E",
"J+	c #E4E4E4",
"K+	c #193F19",
"L+	c #225622",
"M+	c #2A8B2A",
"N+	c #258A25",
"O+	c #183318",
"P+	c #555555",
"Q+	c #D9D9D9",
"R+	c #7C7C7C",
"S+	c #B0B0B0",
"T+	c #515151",
"U+	c #979797",
"V+	c #141614",
"W+	c #205620",
"X+	c #226022",
"Y+	c #101110",
"Z+	c #FDFDFD",
"`+	c #3B3B3B",
" @	c #104810",
".@	c #278627",
"+@	c #172C17",
"@@	c #5A5A5A",
"#@	c #737373",
"$@	c #8A8A8A",
"%@	c #124A12",
"&@	c #1E511E",
"*@	c #B6B6B6",
"=@	c #6F6F6F",
"-@	c #212121",
";@	c #0E0E0E",
">@	c #245F24",
",@	c #1F6A1F",
"'@	c #111811",
")@	c #5B5B5B",
"!@	c #A9A9A9",
"~@	c #FBFBFB",
"{@	c #111911",
"]@	c #206920",
"^@	c #183418",
"/@	c #DBDBDB",
"(@	c #929292",
"_@	c #808080",
":@	c #363636",
"<@	c #1A321A",
"[@	c #268426",
"}@	c #289328",
"|@	c #1C481C",
"1@	c #2D2D2D",
"2@	c #E3E3E3",
"3@	c #B9B9B9",
"4@	c #222222",
"5@	c #868686",
"6@	c #141E14",
"7@	c #183018",
"8@	c #142114",
"9@	c #226C22",
"0@	c #215B21",
"a@	c #1E1E1E",
"b@	c #F7F7F7",
"c@	c #1A1A1A",
"d@	c #A2A2A2",
"e@	c #676767",
"f@	c #1B2B1B",
"g@	c #307430",
"h@	c #238623",
"i@	c #247224",
"j@	c #151F15",
"k@	c #AFAFAF",
"l@	c #F1F1F1",
"m@	c #4F4F4F",
"n@	c #CBCBCB",
"o@	c #455045",
"p@	c #224B22",
"q@	c #172217",
"r@	c #172B17",
"s@	c #1C6E1C",
"t@	c #218D21",
"u@	c #1A3F1A",
"v@	c #393939",
"w@	c #7A7A7A",
"x@	c #E9E9E9",
"y@	c #0F160F",
"z@	c #2E442E",
"A@	c #2F552F",
"B@	c #215E21",
"C@	c #258025",
"D@	c #162416",
"E@	c #112C11",
"F@	c #2A7F2A",
"G@	c #297E29",
"H@	c #0E150E",
"I@	c #777777",
"J@	c #828282",
"K@	c #171C17",
"L@	c #206420",
"M@	c #218A21",
"N@	c #1E8C1E",
"O@	c #297529",
"P@	c #1B1F1B",
"Q@	c #F3F3F3",
"R@	c #444444",
"S@	c #1A3D1A",
"T@	c #278927",
"U@	c #276827",
"V@	c #595959",
"W@	c #707070",
"X@	c #B3B3B3",
"Y@	c #545454",
"Z@	c #171E17",
"`@	c #215521",
" #	c #2B2B2B",
".#	c #E6E6E6",
"+#	c #1E501E",
"@#	c #215421",
"##	c #7D7D7D",
"$#	c #B7B7B7",
"%#	c #216A21",
"&#	c #1A331A",
"*#	c #5F5F5F",
"=#	c #FAFAFA",
"-#	c #090A09",
";#	c #111611",
">#	c #257325",
",#	c #1E8D1E",
"'#	c #204B20",
")#	c #9D9D9D",
"!#	c #B1B1B1",
"~#	c #1D481D",
"{#	c #288228",
"]#	c #246C24",
"^#	c #A3A3A3",
"/#	c #141414",
"(#	c #1E301E",
"_#	c #285928",
":#	c #193019",
"<#	c #256325",
"[#	c #1D8D1D",
"}#	c #1F8F1F",
"|#	c #214A21",
"1#	c #9C9C9C",
"2#	c #A1A1A1",
"3#	c #2D942D",
"4#	c #1B3C1B",
"5#	c #1F5D1F",
"6#	c #238A23",
"7#	c #215321",
"8#	c #272727",
"9#	c #1E421E",
"0#	c #2D922D",
"a#	c #142314",
"b#	c #266A26",
"c#	c #939393",
"d#	c #6B6B6B",
"e#	c #6C6C6C",
"f#	c #267726",
"g#	c #247324",
"h#	c #787878",
"i#	c #1B441B",
"j#	c #228F22",
"k#	c #494949",
"l#	c #252525",
"m#	c #ECECEC",
"n#	c #373737",
"o#	c #1E451E",
"p#	c #1B381B",
"q#	c #236E23",
"r#	c #1F641F",
"s#	c #6E6E6E",
"t#	c #080A08",
"u#	c #2E922E",
"v#	c #163E16",
"w#	c #1C441C",
"x#	c #228E22",
"y#	c #192C19",
"z#	c #292929",
"A#	c #1A3B1A",
"B#	c #248D24",
"C#	c #205020",
"D#	c #101510",
"E#	c #0E130E",
"F#	c #0E1B0E",
"G#	c #227F22",
"H#	c #1E561E",
"I#	c #172917",
"J#	c #0E1A0E",
"K#	c #236F23",
"L#	c #1F571F",
"M#	c #7E7E7E",
"N#	c #1B2E1B",
"O#	c #346C34",
"P#	c #225D22",
"Q#	c #248524",
"R#	c #1A391A",
"S#	c #050605",
"T#	c #142514",
"U#	c #195E19",
"V#	c #121912",
"W#	c #248A24",
"X#	c #237623",
"Y#	c #246A24",
"Z#	c #258325",
"`#	c #237A23",
" $	c #DADADA",
".$	c #0F150F",
"+$	c #248F24",
"@$	c #1B431B",
"#$	c #183918",
"$$	c #218C21",
"%$	c #226722",
"&$	c #0A0C0A",
"*$	c #848484",
"=$	c #226922",
"-$	c #9B9B9B",
";$	c #1D411D",
">$	c #236C23",
",$	c #0F120F",
"'$	c #2A452A",
")$	c #1B3F1B",
"!$	c #1F3E1F",
"~$	c #228522",
"{$	c #1D491D",
"]$	c #1A3A1A",
"^$	c #268C26",
"/$	c #208420",
"($	c #228822",
"_$	c #142814",
":$	c #424242",
"<$	c #0D150D",
"[$	c #CDCDCD",
"}$	c #238E23",
"|$	c #247624",
"1$	c #070B07",
"2$	c #414141",
"3$	c #0F180F",
"4$	c #248124",
"5$	c #277427",
"6$	c #172317",
"7$	c #111C11",
"8$	c #192419",
"9$	c #247524",
"0$	c #258525",
"a$	c #218E21",
". . . . . . . . . . . . . . . . . . . . . . . . . . . . . . . . . . . . . . . . . . . . . . . . . . . . . . . . . . . . . . . . . . . . . . . ",
". . . . . . . . . . . . . . . . . . . . . . . . . . . . . . . . . . . . . . . . . . . . . . . . . . . . . . . . . . . . . . . . . . . . . . . ",
". . . . . . . . . . . . . . . . . . . . . . . . . . . . . . . . . . . . . . . . . . . . . . . . . . . . . . . . . . . . . . . . . . . . . . . ",
". . . . . . . . . . . . . . . . . . . . . . . . . . . . . . . . . . . . . . . . . . . . . . . . . . . . . . . . . . . . . . . . . . . . . . . ",
". . . . . . . . . . . . . . . . . . . . . . . . . . . . . . . . . . . . . . . . . . . . . . . . . . . . . . . . . . . . . . . . . . . . . . . ",
". . . . . . . . . . . . . . . . . . . . . . . . . . . . . . . . . . . . . . . . . . . . . . . . . . . . . . . . . . . . . . . . . . . . . . . ",
". . . . . . . . . . . . . . . . . . . . . . . . . . . . + @ . . . . . . . . . . . . . . . . . . . . . . . . . . . . . . . . . . . . . . . . . ",
". . . . . . . . . . . . . . . . . . . # $ % . . . . . & * = - . . . . . . . . . . . . . . . . . . . . . . . . . . . . . . . . . . . . . . . . ",
". . . . . . . . . . . . . . . . . . . ; > , ' . . . . ) ! ~ { & . . . . . . . . . . . . . . . . . . . . . . . . . . . . . . . . . . . . . . . ",
". . . . . . . . . . . . . . . . . . + ] ~ ~ ^ / . . . ( ~ ~ _ : . . . . . . . . . . . . . . . . . . . . . . . . . . . . . . . . . . . . . . . ",
". . . . . . . . . . . . . . . . . . . < ~ [ ~ } | . 1 2 ~ 3 4 5 . . . . . . . . . . . . . . . . . . . . . . . . . . . . . . . . . . . . . . . ",
". . . . . . . . . . . . . . . . . . . 6 7 8 9 > 0 . a b c d e f g . . . . . . . . . . . . . . . . . . . . . . . . . . . . . . . . . . . . . . ",
". . . . . . . . . . . . . . . . . . . h i 8 j > k l m n o p q r s t . . . . . . . . . . . . . . . . . . . . . . . . . . . . . . . . . . . . . ",
". . . . . . . . . . . . . . . . . . . u v w x o ~ y y ~ z A B C ~ D E F G H I J K L . . . . . . . . . . . . . . . . . . . . . . . . . . . . . ",
". . . . . . . . . . . . . . . . . . . M N ~ ~ O ~ ~ ~ ~ P Q R S O ~ T U V W X Y Z `  .. . . . . . . . . . . . . . . . . . . . . . . . . . . . ",
". . . . . . . . . . . . . . . . . . . ..+.~ @.#.$.~ ~ ~ %.&.R *.4 =.%.-.~ ~ ~ ~ ~ ;.>.# ,.. . . . . . . . . . . . . . . . . . . . . . . . . . ",
". . . . . . . . . . . . . . . . . . 1 '.~ ).!.~.~ ~ ~ {.].^.R /.S (._.:.<.[.}.~ ~ ~ |.1.2.3.4.5.. . . . . . . . . . . . . . . . . . . . . . . ",
". . . . . . . . . . . . . . . . . . 6.7.8.9.0.c ~ a.b.!.c.R R R d.R R R R e.f.g.h.~ ~ ~ ~ ~ =.i.j.. . . . . . . . . . . . . . . . . . . . . . ",
". . . . . . . . . . . . . . . . . & k.l.m.R n.~ o.p.^.R R R R R R R R R R R R R q.r.s.~ ~ ~ t.u.v.. . . . . . . . . . . . . . . . . . . . . . ",
". . . . . . . . . . . . . . . . . w.;.x.y.R z.A.B.R R R R R R R R R R R R R R R R R C.D.7 ~ E.F.G.H.F + . . . . . . . . . . . . . . . . . . . ",
". . . . . . . . . . . . . . . . . I.J.K.d.R R d.R R R R R R R R R R R R R R R R R R R /.L.M.~ ~ ~ =.N.O.P.. . . . . . . . . . . . . . . . . . ",
". . . . . . . . . . . . . . . . . Q.c R.R R R R R R R R R R R R R R R R R R R R R R R R R S.x.~ ~ ~ ~ ~ T.U.. . . . . . . . . . . . . . . . . ",
". . . . . . . . . . . . . . . . 1 V.4 *.R R R R R R R R R R R R R R R R R R R R R R R R R R W.X.~ ~ Y.Z.`. +. . . . . . . . . . . . . . . . . ",
". . . . . . . . . . . . . . . . w..+++/.R R @+#+$+%+_.&+R R R R R R R d.d.R R R R R R R R R R $+8.~ *+=+-+. . . . . . . . . . . . . . . . . . ",
". . . . . . . . . . . . . . . . ;+W m.R d.e >+,+'+{.%.)+&+R R R R R d.!+L.R R R R R R R R R R R ~+{+~ ~ ]+;+. . . . . . . . . . . . . . . . . ",
". . . . . . . . . . . . . . . ^+/+(+y.d.r.*+s.a.s._+:+<+[+R R R R R }+|+1+2+R R R R R R R R R R R 3+~ ~ ~ 4+5+6+. . . . . . . . . . . . . . . ",
". . . . . . . . . . . . . . 7+` 8+9+R L.7 0+#+L.$.a+B /.R R R R R R B.c w ^.R R R R R R R R R R R b+c+~ ~ ~ l.d+e+. . . . . . . . . . . . . . ",
". . . . . . . . . . . . . . f+g+h+R i+j+k+l+a+3+[ m+R R R R R R R R n+~ o+p+R R R R R R R R R R R R q+r+~ ~ ~ 7 s+. . . . . . . . . . . . . . ",
". . . . . . . . . . . . . t+u+v+y.R w+j+x+g.3 y+z+A+R R R R R R R R B+~ l+y.C+x+R R R R R R R R R R R D+~ ~ ~ ~ E+t . . . . . . . . . . . . . ",
". . . . . . . . . . . . . F+G+w+R R H+~.B q I+r.W.R R R R R R R R R 3+~ <.j ~ H+R R R R R R R R R R R J+X.~ n K+L+M+. . . . . . . . . . . . . ",
". . . . . . . . . . . . N+O+P+[+R R i+Q+R R R d.R R R R R R R R R R R+-.S+T+c ~+R R R R R R R R R R R R U+> V+W++ . . . . . . . . . . . . . . ",
". . . . . . . . . . . . X+Y+0.R R R R R R R R R R R R R R R R R R Z+D.8.m+w X.^.R R R R R R R R R R R R q `+~ c  @+ . . . . . . . . . . . . . ",
". . . . . . . . . . . .@+@@@[+R R R R R R R R R R R R R R R R R R p+x.#@n.'+e R R R R R R R R R R R R R R $@~ ~ 7 %@+ . . . . . . . . . . . . ",
". . . . . . . . . . . &@{.*@R R R R R R R R R R R R R R R R R R R S+z o.P =@Z+R R R R R R R R R R R R R R _.-@~ ~ ;@>@. . . . . . . . . . . . ",
". . . . . . . . . . ,@'@g.d.R R R R R R R R R R R R R R R R R R [+)@~ ~ l+w+!@~@R R R R R R R R R R R R R B C ~ ~ ~ {@]@. . . . . . . . . . . ",
". . . . . . . . .  +^@)./@R R R R R R R R R R R R R R R R R R R (@O ~ r _@:@8+/@R R R R R R R R R R R R R R !@=.~ ~ ~ <@[@. . . . . . . . . . ",
". . . . . . . . }@|@1@<.R.Z+R R R R R R R R R R 2@_+/.R R R R 3@r+~ ~ 4@o+[ 5@R R R R R R R R R R R R R R R 2@0+~ 6@7@8@9@. . . . . . . . . . ",
". . . . . . . . 0@a@m.@@@@b@R R R R R R R R R R }+c@d@R R R p X.~ ~ ~ l.).0.R R R R R R R R R R R R R R R R Z+e@~ f@g@h@ .. . . . . . . . . . ",
". . . . . . . i@j@_@k@c@S.R R R R R R R R R R R l@@.m@A n@n.o@p@q@z+K.~+y.R R R R R R R R R R R R R R R R R R d@c ~ r@s@. . . . . . . . . . . ",
". . . . . . t@u@v@m+l+w@d.R R R R R R R R R R R x@1@y@z@A@B@C@- D@S.d.R R R R R R R R R R R R R R R R R R R R q.4 ~ ~ E@F@. . . . . . . . . . ",
". . . . . . G@H@r.I@(+x@R R R R R R R R R R R e.J@K@L@M@N@. . O@P@n@R R R R R R R R R R R R R R R R R R R R R Q@R@~ ~ ~ S@T@. . . . . . . . . ",
". . . . . . U@;@!@V@{+W@e.R R R R R R R R R X@Y@Z@u.. . . . . `@ #.#R R R R R R R R R R R R R R R R R R R R R R g.~ ~ ~ ~ +#+ . . . . . . . . ",
". . . . . . @#{.Q x+##'+$#R R R R R R R R _+4@<@%#. . . . . t+&#*#=#R R R R R R R R R R R R R R R R R R R R R R ~+c ~ -#~ ;#>#. . . . . . . . ",
". . . . . ,#'#|+&.R &.$.)#R R R R R R R !#h.~#{#. . . . . . ]#Y.^#R R R R R R R R R R R R R R R R R R R R R R R a+/#~ (#_#:#<#[#. . . . . . . ",
". . . . . }#|#a.a+R 1#;@k@W.X@R R R R 2#1@{ 3#. . . . . .  .4#[.y.R R R R R R R R R R R R R R R R R R R R R R R y.r ~ '+5#6#t+. . . . . . . . ",
". . . . . + 7#o W.y.k+c+C+8#o+q R d.J@}.9#0#. . . . . . . 5#[ d@R R R R R R R R R R R R R R R R R R R R R R R R =#l+~ ~ a#t . . . . . . . . . ",
". . . . . . b#*+c#R &.p+d#~ e#B R !+~ {@f#. . . . . . . g#D@x B R R R R R R R R R R R R R R R R R R R R R R R R R h#~ ~ ~ i#j#. . . . . . . . ",
". . . . . . - +@l+[+R Q@k#l#m+R m#n#~ o#@ . . . . . . {#p#[.*.R R R R R R R R R R R R R R R R R R R R R R R R R R 1#> ~ ~ g+q#. . . . . . . . ",
". . . . . . . r#N h#&.q l+s#R R *.4 t#9@. . . . . . u#v#s.p.R R R R R R R R R R R R R R R R R R R R R R R R R R R $+o ~ ~ ~ w#x#. . . . . . . ",
". . . . . . . . r#y#a@z#=.c#R R h+~ A#B#. . . . . 7+C#*+U+R R R R R R R R R R R R R R R R R R R R R R R R R R R R *.%.~ D#E#F#G#. . . . . . . ",
". . . . . . . . .  +H#I#~ P+R.##%.J#K#. . . . . . L#l.M#R R R R R R R R R R R R R R R R R R R R R R R R R R R R R q r+~ N#O#P#Q#. . . . . . . ",
". . . . . . . . . . . t R#J.-.S#T#U#. . . . . . $ V##.e.R R R R R R R R R R R R R R R R R R R R R R R R R R R R R Q@9 ~ ~ k.6+. . . . . . . . ",
". . . . . . . . . . . . W#X#Y#f+Z#. . . . . . `#^ b. $R R R R R R R R R R R R R R R R R R R R R R R R R R R R R R ~@P+~ ~ .$K#. . . . . . . . ",
". . . . . . . . . . . . . . . . . . . . . . +$@$-@9+R R R R R R R R R R R R R R R R R R R R R R R R R R R R R R R R x ~ ~ ~ #$$$. . . . . . . ",
". . . . . . . . . . . . . . . . . . . . . . %$&$5@R R R R R R R R R R R R R R R R R R R R R R R R R R R R R R R R R *$~ ~ ~ y =$. . . . . . . ",
". . . . . . . . . . . . . . . . . . . . . B#2.9 J+R R R R R R R R R R R R R R R R R R R R R R R R R R R R R R R R R -$> ~ O ~ ;$,.. . . . . . ",
". . . . . . . . . . . . . . . . . . . . . >$T j R R R R R R R R R R R R R R R R R R R R R R R R R R R R R R R R R R B.c ,$'$)$!$~$. . . . . . ",
". . . . . . . . . . . . . . . . . . . . ,#{$c@Q R R R R R R R R R R R R R R R R R R R R R R R R R R R R R R R R R R p -.~ ]$^$/$. . . . . . . ",
". . . . . . . . . . . . . . . . . . . . ($_$:$b+R R R R R R R R R R R R R R R R R R R R R R R R R R R R R R R R R R #+y+~ =.F+. . . . . . . . ",
". . . . . . . . . . . . . . . . . . . . G <$#./.b@b@b@b@b@b@b@b@b@b@b@b@b@b@b@b@b@b@b@b@b@b@b@b@b@b@b@b@b@b@b@b@b@b@[$|+~ ~ 4#}$. . . . . . . ",
". . . . . . . . . . . . . . . . . . . . |$1$8+).).).).).).).).).).).).).).).).).).).).).).).).).).).).).).).).).).).2$> ~ ~ 3$4$. . . . . . . ",
". . . . . . . . . . . . . . . . . . . . 5$6$7$7$7$7$7$7$7$7$7$7$7$7$7$7$7$7$7$7$7$7$7$7$7$7$7$7$7$7$7$7$7$7$7$7$7$7$7$7$7$7$8$9$. . . . . . . ",
". . . . . . . . . . . . . . . . . . . . j#0$0$0$0$0$0$0$0$0$0$0$0$0$0$0$0$0$0$0$0$0$0$0$0$0$0$0$0$0$0$0$0$0$0$0$0$0$0$0$0$0$0$a$. . . . . . . ",
". . . . . . . . . . . . . . . . . . . . . . . . . . . . . . . . . . . . . . . . . . . . . . . . . . . . . . . . . . . . . . . . . . . . . . . ",
". . . . . . . . . . . . . . . . . . . . . . . . . . . . . . . . . . . . . . . . . . . . . . . . . . . . . . . . . . . . . . . . . . . . . . . ",
". . . . . . . . . . . . . . . . . . . . . . . . . . . . . . . . . . . . . . . . . . . . . . . . . . . . . . . . . . . . . . . . . . . . . . . ",
". . . . . . . . . . . . . . . . . . . . . . . . . . . . . . . . . . . . . . . . . . . . . . . . . . . . . . . . . . . . . . . . . . . . . . . ",
". . . . . . . . . . . . . . . . . . . . . . . . . . . . . . . . . . . . . . . . . . . . . . . . . . . . . . . . . . . . . . . . . . . . . . . ",
". . . . . . . . . . . . . . . . . . . . . . . . . . . . . . . . . . . . . . . . . . . . . . . . . . . . . . . . . . . . . . . . . . . . . . . ",
". . . . . . . . . . . . . . . . . . . . . . . . . . . . . . . . . . . . . . . . . . . . . . . . . . . . . . . . . . . . . . . . . . . . . . . ",
". . . . . . . . . . . . . . . . . . . . . . . . . . . . . . . . . . . . . . . . . . . . . . . . . . . . . . . . . . . . . . . . . . . . . . . "};
