/* XPM */
static char * ybwb_xpm[] = {
"71 71 186 2",
"  	c None",
". 	c #1C8D1C",
"+ 	c #646464",
"@ 	c #585858",
"# 	c #676767",
"$ 	c #5C5C5C",
"% 	c #252525",
"& 	c #0B0B0B",
"* 	c #1B1B1B",
"= 	c #1A1A1A",
"- 	c #2A2A2A",
"; 	c #5F5F5F",
"> 	c #1C1C1C",
", 	c #393939",
"' 	c #9C9C9C",
") 	c #D7D7D7",
"! 	c #D6D6D6",
"~ 	c #969696",
"{ 	c #353535",
"] 	c #171717",
"^ 	c #2B2B2B",
"/ 	c #232323",
"( 	c #BABABA",
"_ 	c #FFFFFF",
": 	c #B5B5B5",
"< 	c #323232",
"[ 	c #6C6C6C",
"} 	c #6A6A6A",
"| 	c #FEFEFE",
"1 	c #FCFCFC",
"2 	c #0E0E0E",
"3 	c #537953",
"4 	c #626262",
"5 	c #050505",
"6 	c #878787",
"7 	c #797979",
"8 	c #080808",
"9 	c #696969",
"0 	c #0A0A0A",
"a 	c #6E6E6E",
"b 	c #FDFDFD",
"c 	c #636363",
"d 	c #0C0C0C",
"e 	c #686F68",
"f 	c #262626",
"g 	c #C3C3C3",
"h 	c #BBBBBB",
"i 	c #222222",
"j 	c #2C2C2C",
"k 	c #5A5A5A",
"l 	c #434343",
"m 	c #ABABAB",
"n 	c #E5E5E5",
"o 	c #E4E4E4",
"p 	c #A6A6A6",
"q 	c #3D3D3D",
"r 	c #151515",
"s 	c #5B5B5B",
"t 	c #404040",
"u 	c #000000",
"v 	c #272727",
"w 	c #090909",
"x 	c #343434",
"y 	c #7F7F7F",
"z 	c #616161",
"A 	c #278927",
"B 	c #363636",
"C 	c #7A7A7A",
"D 	c #747474",
"E 	c #F0F0F0",
"F 	c #666666",
"G 	c #424242",
"H 	c #E9E9E9",
"I 	c #E0E0E0",
"J 	c #4E4E4E",
"K 	c #4B4B4B",
"L 	c #DFDFDF",
"M 	c #DDDDDD",
"N 	c #515151",
"O 	c #484848",
"P 	c #4A4A4A",
"Q 	c #BFBFBF",
"R 	c #B3B3B3",
"S 	c #101010",
"T 	c #444444",
"U 	c #040404",
"V 	c #777777",
"W 	c #B9B9B9",
"X 	c #B2B2B2",
"Y 	c #717171",
"Z 	c #487C48",
"` 	c #181818",
" .	c #5E5E5E",
"..	c #555555",
"+.	c #888888",
"@.	c #686868",
"#.	c #060606",
"$.	c #1E1E1E",
"%.	c #656565",
"&.	c #DCDCDC",
"*.	c #2E2E2E",
"=.	c #6B6B6B",
"-.	c #141414",
";.	c #6D6D6D",
">.	c #FAFAFA",
",.	c #328532",
"'.	c #414141",
").	c #131313",
"!.	c #AFAFAF",
"~.	c #4F4F4F",
"{.	c #727272",
"].	c #595959",
"^.	c #5D5D5D",
"/.	c #E1E1E1",
"(.	c #DBDBDB",
"_.	c #1D1D1D",
":.	c #535353",
"<.	c #D0D0D0",
"[.	c #B8B8B8",
"}.	c #202020",
"|.	c #070707",
"1.	c #7E7E7E",
"2.	c #757575",
"3.	c #494949",
"4.	c #C0C0C0",
"5.	c #B4B4B4",
"6.	c #383838",
"7.	c #D8D8D8",
"8.	c #D1D1D1",
"9.	c #3A3A3A",
"0.	c #D5D5D5",
"a.	c #CDCDCD",
"b.	c #4D4D4D",
"c.	c #A9A9A9",
"d.	c #9D9D9D",
"e.	c #525252",
"f.	c #F7F7F7",
"g.	c #F1F1F1",
"h.	c #505050",
"i.	c #477D47",
"j.	c #464646",
"k.	c #828282",
"l.	c #333333",
"m.	c #020202",
"n.	c #CBCBCB",
"o.	c #3E3E3E",
"p.	c #474747",
"q.	c #030303",
"r.	c #7B7B7B",
"s.	c #565656",
"t.	c #1F1F1F",
"u.	c #0F0F0F",
"v.	c #121212",
"w.	c #B6B6B6",
"x.	c #EFEFEF",
"y.	c #3C3C3C",
"z.	c #999999",
"A.	c #909090",
"B.	c #0D0D0D",
"C.	c #606060",
"D.	c #F2F2F2",
"E.	c #EDEDED",
"F.	c #C4C4C4",
"G.	c #3F3F3F",
"H.	c #242424",
"I.	c #BEBEBE",
"J.	c #CACACA",
"K.	c #C2C2C2",
"L.	c #161616",
"M.	c #575757",
"N.	c #5D745D",
"O.	c #212121",
"P.	c #E3E3E3",
"Q.	c #292929",
"R.	c #C7C7C7",
"S.	c #8A8A8A",
"T.	c #C5C5C5",
"U.	c #E8E8E8",
"V.	c #F5F5F5",
"W.	c #373737",
"X.	c #EBEBEB",
"Y.	c #303030",
"Z.	c #B1B1B1",
"`.	c #AAAAAA",
" +	c #2D2D2D",
".+	c #454545",
". . . . . . . . . . . . . . . . . . . . . . . . . . . . . . . . . . . . . . . . . . . . . . . . . . . . . . . . . . . . . . . . . . . . . . . ",
". . . . . . . . . . . . . . . . . . . . . . . . . . . . . . . . . . . . . . . . . . . . . . . . . . . . . . . . . . . . . . . . . . . . . . . ",
". . . . . . . . . . . . . . . . . . . . . . . . . . . . . . . . . . . . . . . . . . . . . . . . . . . . . . . . . . . . . . . . . . . . . . . ",
". . . . . . . . . . . . . . . . . . . . . . . . . . . . . . . . . . . . . . . . . . . . . . . . . . . . . . . . . . . . . . . . . . . . . . . ",
". . . . . . . . . . . . . . . . . . . . . . . . . . . . . . . . . . . . . . . . . . . . . . . . . . . . . . . . . . . . . . . . . . . . . . . ",
". . . . . . . . . . . . . . . . . . . . . . . . . . . . . . . . . . . . . . . . . . . . . . . . . . . . . . . . . . . . . . . . . . . . . . . ",
". . . . . . . . . . . . . . . . . . . . . . . . . . . . . . . . . . + @ @ # . . . . . . . . . . . . . . . . . . . . . . . . . . . . . . . . . ",
". . . . . . . . . . . . . . . . . . . . . . . . . . . . . . . . $ % & * = & - ; . . . . . . . . . . . . . . . . . . . . . . . . . . . . . . . ",
". . . . . . . . . . . . . . . . . . . . . . . . . . . . . . . ; > , ' ) ! ~ { ] ; . . . . . . . . . . . . . . . . . . . . . . . . . . . . . . ",
". . . . . . . . . . . . . . . . . . . . . . . . . . . . . . . ^ / ( _ _ _ _ : * < . . . . . . . . . . . . . . . . . . . . . . . . . . . . . . ",
". . . . . . . . . . . . . . . . . . . . . . . . . . . . . . [ & } | _ _ _ _ 1 ; 2 3 . . . . . . . . . . . . . . . . . . . . . . . . . . . . . ",
". . . . . . . . . . . . . . . . . . . . . . . . . . . . . . 4 5 6 _ _ _ _ _ _ 7 8 } . . . . . . . . . . . . . . . . . . . . . . . . . . . . . ",
". . . . . . . . . . . . . . . . . . . . . . . . . . . . . . 9 0 a | _ _ _ _ b c d e . . . . . . . . . . . . . . . . . . . . . . . . . . . . . ",
". . . . . . . . . . . . . . . . . . . . . . . . . . . . . . . f - g _ _ _ _ h i j . . . . . . . . . . . . . . . . . . . . . . . . . . . . . . ",
". . . . . . . . . . . . . . . . . . . . . . . . . . . . . . . k ] l m n o p q r s . . . . . . . . . . . . . . . . . . . . . . . . . . . . . . ",
". . . . . . . . . . . . . . . . . . . . . . . . . . . . . . . . t u & v f w u l . . . . . . . . . . . . . . . . . . . . . . . . . . . . . . . ",
". . . . . . . . . . . . . . . . . . . . . . . . . . . . . . . . x u 4 y y z u < A . . . . . . . . . . . . . . . . . . . . . . . . . . . . . . ",
". . . . . . . . . . . . . . . . . . . . . . . . . . . . . . . B u y _ _ _ | C u { . . . . . . . . . . . . . . . . . . . . . . . . . . . . . . ",
". . . . . . . . . . . . . . . . . . . . . . . . . . . . . . { u D 1 _ _ _ _ E F u G . . . . . . . . . . . . . . . . . . . . . . . . . . . . . ",
". . . . . . . . . . . . . . . . . . . . . . . . . . . . . l u 4 H _ _ _ _ _ _ I ; u J . . . . . . . . . . . . . . . . . . . . . . . . . . . . ",
". . . . . . . . . . . . . . . . . . . . . . . . . . . . K u k L _ _ _ _ _ _ _ _ M N u O . . . . . . . . . . . . . . . . . . . . . . . . . . . ",
". . . . . . . . . . . . . . . . . . . . . . . . . . . P u r Q _ _ _ _ _ _ _ _ _ _ R S u G . . . . . . . . . . . . . . . . . . . . . . . . . . ",
". . . . . . . . . . . . . . . . . . . . . . . . . . T u u U V R W W W W W W W W X Y u u 8 N . . . . . . . . . . . . . . . . . . . . . . . . . ",
". . . . . . . . . . . . . . . . . . . . . . . . . Z ` U U U u 8 8 8 8 8 8 8 8 8 8 u U U U i A . . . . . . . . . . . . . . . . . . . . . . . . ",
". . . . . . . . . . . . . . . . . . . . . . . . . . c  . ...> 8 [ +.+.+.+.+.+.@.#.$... . .%.. . . . . . . . . . . . . . . . . . . . . . . . . ",
". . . . . . . . . . . . . . . . . . . . . . . . . . . . . . ^ ^ o _ _ _ _ _ _ &./ *.. . . . . . . . . . . . . . . . . . . . . . . . . . . . . ",
". . . . . . . . . . . . . . . . . . . . . . . . . . . . . =.-.;.| _ _ _ _ _ _ >.c ` ,.. . . . . . . . . . . . . . . . . . . . . . . . . . . . ",
". . . . . . . . . . . . . . . . . . . . . . . . . . . . . '.).( _ _ _ _ _ _ _ _ !.d '.. . . . . . . . . . . . . . . . . . . . . . . . . . . . ",
". . . . . . . . . . . . . . . . . . . . . . . . . . . . ~.U {.| _ _ _ _ _ _ _ _ >.=.0 ].. . . . . . . . . . . . . . . . . . . . . . . . . . . ",
". . . . . . . . . . . . . . . . . . . . . . . . . . . ^.=  ./._ _ _ _ _ _ _ _ _ _ (..._.^.. . . . . . . . . . . . . . . . . . . . . . . . . . ",
". . . . . . . . . . . . . . . . . . . . . . . . . .  .= :.&._ _ _ _ _ _ _ _ _ _ _ _ <.O = c . . . . . . . . . . . . . . . . . . . . . . . . . ",
". . . . . . . . . . . . . . . . . . . . . . . . . . *.- g _ _ _ _ _ _ _ _ _ _ _ _ _ _ [.}.x . . . . . . . . . . . . . . . . . . . . . . . . . ",
". . . . . . . . . . . . . . . . . . . . . . . . . + |.1._ _ _ _ _ _ _ _ _ _ _ _ _ _ _ _ 2.& F . . . . . . . . . . . . . . . . . . . . . . . . ",
". . . . . . . . . . . . . . . . . . . . . . . . . 3.2 4._ _ _ _ _ _ _ _ _ _ _ _ _ _ _ _ 5.w J . . . . . . . . . . . . . . . . . . . . . . . . ",
". . . . . . . . . . . . . . . . . . . . . . . . . 6.= 7._ _ _ _ _ _ _ _ _ _ _ _ _ _ _ _ 8.r t . . . . . . . . . . . . . . . . . . . . . . . . ",
". . . . . . . . . . . . . . . . . . . . . . . . . 9.` 0._ _ _ _ _ _ _ _ _ _ _ _ _ _ _ _ a.).l . . . . . . . . . . . . . . . . . . . . . . . . ",
". . . . . . . . . . . . . . . . . . . . . . . . . b.|.c._ _ _ _ _ _ _ _ _ _ _ _ _ _ _ _ d.U e.. . . . . . . . . . . . . . . . . . . . . . . . ",
". . . . . . . . . . . . . . . . . . . . . . . . . [ ).$ f._ _ _ _ _ _ _ _ _ _ _ _ _ _ g.h.` i.. . . . . . . . . . . . . . . . . . . . . . . . ",
". . . . . . . . . . . . . . . . . . . . . . . . . . j.u k.| _ _ _ _ _ _ _ _ _ _ _ _ b y u b.. . . . . . . . . . . . . . . . . . . . . . . . . ",
". . . . . . . . . . . . . . . . . . . . . . . . . . . l.m.{.<.>._ _ _ _ _ _ _ _ >.n.a u o.. . . . . . . . . . . . . . . . . . . . . . . . . . ",
". . . . . . . . . . . . . . . . . . . . . . . . . . . . p.q./ @ r.6 +.+.+.+.6 7 s.t.u.P . . . . . . . . . . . . . . . . . . . . . . . . . . . ",
". . . . . . . . . . . . . . . . . . . . . . . . . . . . . G u |.& & & & & & & & 5 u b.. . . . . . . . . . . . . . . . . . . . . . . . . . . . ",
". . . . . . . . . . . . . . . . . . . . . . . . . . . . . 9 0 2.g g g g g g g g a w [ . . . . . . . . . . . . . . . . . . . . . . . . . . . . ",
". . . . . . . . . . . . . . . . . . . . . . . . . . . . . ..v.4._ _ _ _ _ _ _ _ w.2 $ . . . . . . . . . . . . . . . . . . . . . . . . . . . . ",
". . . . . . . . . . . . . . . . . . . . . . . . . . . . . B p.x._ _ _ _ _ _ _ _ H y.9.. . . . . . . . . . . . . . . . . . . . . . . . . . . . ",
". . . . . . . . . . . . . . . . . . . . . . . . . . . . @ 2 z._ _ _ _ _ _ _ _ _ _ A.B.C.. . . . . . . . . . . . . . . . . . . . . . . . . . . ",
". . . . . . . . . . . . . . . . . . . . . . . . . . . [ /  .D._ _ _ _ _ _ _ _ _ _ E...% c . . . . . . . . . . . . . . . . . . . . . . . . . . ",
". . . . . . . . . . . . . . . . . . . . . . . . . . 9 - '.n._ _ _ _ _ _ _ _ _ _ _ _ F.G.H.9 . . . . . . . . . . . . . . . . . . . . . . . . . ",
". . . . . . . . . . . . . . . . . . . . . . . . . @ t.'.Q _ _ _ _ _ _ _ _ _ _ _ _ _ _ I.G./ @ . . . . . . . . . . . . . . . . . . . . . . . . ",
". . . . . . . . . . . . . . . . . . . . . . . . ; > ].J._ _ _ _ _ _ _ _ _ _ _ _ _ _ _ _ K.h.L.M.. . . . . . . . . . . . . . . . . . . . . . . ",
". . . . . . . . . . . . . . . . . . . . . . . ].= c L _ _ _ _ _ _ _ _ _ _ _ _ _ _ _ _ _ _ &.; r  .. . . . . . . . . . . . . . . . . . . . . . ",
". . . . . . . . . . . . . . . . . . . . . . N.O.C.P._ _ _ _ _ _ _ _ _ _ _ _ _ _ _ _ _ _ _ _ L k Q.A . . . . . . . . . . . . . . . . . . . . . ",
". . . . . . . . . . . . . . . . . . . . . . o.l.<._ _ _ _ _ _ _ _ _ _ _ _ _ _ _ _ _ _ _ _ _ _ R.Q.'.. . . . . . . . . . . . . . . . . . . . . ",
". . . . . . . . . . . . . . . . . . . . . + B.S._ _ _ _ _ _ _ _ _ _ _ _ _ _ _ _ _ _ _ _ _ _ _ _ y v.9 . . . . . . . . . . . . . . . . . . . . ",
". . . . . . . . . . . . . . . . . . . . . o.` <._ _ _ _ _ _ _ _ _ _ _ _ _ _ _ _ _ _ _ _ _ _ _ _ T.v.'.. . . . . . . . . . . . . . . . . . . . ",
". . . . . . . . . . . . . . . . . . . . . ` x x._ _ _ _ _ _ _ _ _ _ _ _ _ _ _ _ _ _ _ _ _ _ _ _ U.j _.. . . . . . . . . . . . . . . . . . . . ",
". . . . . . . . . . . . . . . . . . . . C.5 G.V._ _ _ _ _ _ _ _ _ _ _ _ _ _ _ _ _ _ _ _ _ _ _ _ D.9.|.%.. . . . . . . . . . . . . . . . . . . ",
". . . . . . . . . . . . . . . . . . . . p.u W.E _ _ _ _ _ _ _ _ _ _ _ _ _ _ _ _ _ _ _ _ _ _ _ _ X.Y.u ~.. . . . . . . . . . . . . . . . . . . ",
". . . . . . . . . . . . . . . . . . . . { u v.Z.b b b b b b b b b b b b b b b b b b b b b b b b `.d u q . . . . . . . . . . . . . . . . . . . ",
". . . . . . . . . . . . . . . . . . . . Q.u u  +z # # # # # # # # # # # # # # # # # # # # # # ; - u u < . . . . . . . . . . . . . . . . . . . ",
". . . . . . . . . . . . . . . . . . . . f u u u u u u u u u u u u u u u u u u u u u u u u u u u u u u *.. . . . . . . . . . . . . . . . . . . ",
". . . . . . . . . . . . . . . . . . . . t = = = = = = = = = = = = = = = = = = = = = = = = = = = = = = .+. . . . . . . . . . . . . . . . . . . ",
". . . . . . . . . . . . . . . . . . . . . . . . . . . . . . . . . . . . . . . . . . . . . . . . . . . . . . . . . . . . . . . . . . . . . . . ",
". . . . . . . . . . . . . . . . . . . . . . . . . . . . . . . . . . . . . . . . . . . . . . . . . . . . . . . . . . . . . . . . . . . . . . . ",
". . . . . . . . . . . . . . . . . . . . . . . . . . . . . . . . . . . . . . . . . . . . . . . . . . . . . . . . . . . . . . . . . . . . . . . ",
". . . . . . . . . . . . . . . . . . . . . . . . . . . . . . . . . . . . . . . . . . . . . . . . . . . . . . . . . . . . . . . . . . . . . . . ",
". . . . . . . . . . . . . . . . . . . . . . . . . . . . . . . . . . . . . . . . . . . . . . . . . . . . . . . . . . . . . . . . . . . . . . . ",
". . . . . . . . . . . . . . . . . . . . . . . . . . . . . . . . . . . . . . . . . . . . . . . . . . . . . . . . . . . . . . . . . . . . . . . ",
". . . . . . . . . . . . . . . . . . . . . . . . . . . . . . . . . . . . . . . . . . . . . . . . . . . . . . . . . . . . . . . . . . . . . . . ",
". . . . . . . . . . . . . . . . . . . . . . . . . . . . . . . . . . . . . . . . . . . . . . . . . . . . . . . . . . . . . . . . . . . . . . . ",
". . . . . . . . . . . . . . . . . . . . . . . . . . . . . . . . . . . . . . . . . . . . . . . . . . . . . . . . . . . . . . . . . . . . . . . "};
