/* XPM */
static char * ybwr_xpm[] = {
"71 71 233 2",
"  	c None",
". 	c #1C8D1C",
"+ 	c #5BA95B",
"@ 	c #6A6A6A",
"# 	c #636363",
"$ 	c #646464",
"% 	c #626262",
"& 	c #6B6B6B",
"* 	c #50CC50",
"= 	c #595959",
"- 	c #4A4A4A",
"; 	c #3F3F3F",
"> 	c #363636",
", 	c #2E2E2E",
"' 	c #353535",
") 	c #56BB56",
"! 	c #5E5E5E",
"~ 	c #101010",
"{ 	c #090909",
"] 	c #060606",
"^ 	c #0A0A0A",
"/ 	c #161616",
"( 	c #676767",
"_ 	c #6C6C6C",
": 	c #2F2F2F",
"< 	c #282828",
"[ 	c #303030",
"} 	c #3C3C3C",
"| 	c #4B4B4B",
"1 	c #585858",
"2 	c #515151",
"3 	c #050505",
"4 	c #0C0C0C",
"5 	c #151515",
"6 	c #1B1B1B",
"7 	c #171717",
"8 	c #656565",
"9 	c #5C5C5C",
"0 	c #020202",
"a 	c #424242",
"b 	c #7B7B7B",
"c 	c #878787",
"d 	c #8D8D8D",
"e 	c #8C8C8C",
"f 	c #7A7A7A",
"g 	c #070707",
"h 	c #5D5D5D",
"i 	c #040404",
"j 	c #191919",
"k 	c #555555",
"l 	c #4C4C4C",
"m 	c #808080",
"n 	c #C3C3C3",
"o 	c #D3D3D3",
"p 	c #DADADA",
"q 	c #939393",
"r 	c #575757",
"s 	c #030303",
"t 	c #919191",
"u 	c #FFFFFF",
"v 	c #858585",
"w 	c #4F4F4F",
"x 	c #9C9C9C",
"y 	c #D2D2D2",
"z 	c #C2C2C2",
"A 	c #787878",
"B 	c #535353",
"C 	c #BDBDBD",
"D 	c #C4C4C4",
"E 	c #0D0D0D",
"F 	c #686868",
"G 	c #444444",
"H 	c #131313",
"I 	c #CECECE",
"J 	c #B1B1B1",
"K 	c #DBDBDB",
"L 	c #1C1C1C",
"M 	c #212121",
"N 	c #000000",
"O 	c #333333",
"P 	c #434343",
"Q 	c #1E1E1E",
"R 	c #232323",
"S 	c #E1E1E1",
"T 	c #EAEAEA",
"U 	c #414141",
"V 	c #121212",
"W 	c #979797",
"X 	c #F0F0F0",
"Y 	c #ECECEC",
"Z 	c #E8E8E8",
"` 	c #D5D5D5",
" .	c #FEFEFE",
"..	c #FBFBFB",
"+.	c #FAFAFA",
"@.	c #F5F5F5",
"#.	c #F3F3F3",
"$.	c #E9E9E9",
"%.	c #E7E7E7",
"&.	c #E4E4E4",
"*.	c #DFDFDF",
"=.	c #DCDCDC",
"-.	c #E0E0E0",
";.	c #E5E5E5",
">.	c #F6F6F6",
",.	c #7C7C7C",
"'.	c #A3A3A3",
").	c #757575",
"!.	c #5A5A5A",
"~.	c #3B3B3B",
"{.	c #2B2B2B",
"].	c #252525",
"^.	c #202020",
"/.	c #1A1A1A",
"(.	c #1D1D1D",
"_.	c #262626",
":.	c #2C2C2C",
"<.	c #373737",
"[.	c #454545",
"}.	c #5B5B5B",
"|.	c #696969",
"1.	c #767676",
"2.	c #868686",
"3.	c #949494",
"4.	c #A4A4A4",
"5.	c #747474",
"6.	c #545454",
"7.	c #181818",
"8.	c #272727",
"9.	c #3D3D3D",
"0.	c #505050",
"a.	c #565656",
"b.	c #222222",
"c.	c #383838",
"d.	c #ADADAD",
"e.	c #BBBBBB",
"f.	c #C5C5C5",
"g.	c #D8D8D8",
"h.	c #E2E2E2",
"i.	c #E6E6E6",
"j.	c #F8F8F8",
"k.	c #F7F7F7",
"l.	c #EBEBEB",
"m.	c #D7D7D7",
"n.	c #D1D1D1",
"o.	c #BABABA",
"p.	c #ACACAC",
"q.	c #343434",
"r.	c #9D9D9D",
"s.	c #959595",
"t.	c #B3B3B3",
"u.	c #FCFCFC",
"v.	c #F4F4F4",
"w.	c #F9F9F9",
"x.	c #AAAAAA",
"y.	c #1F1F1F",
"z.	c #494949",
"A.	c #9E9E9E",
"B.	c #8F8F8F",
"C.	c #828282",
"D.	c #525252",
"E.	c #4D4D4D",
"F.	c #404040",
"G.	c #3E3E3E",
"H.	c #464646",
"I.	c #5F5F5F",
"J.	c #ABABAB",
"K.	c #393939",
"L.	c #4E4E4E",
"M.	c #0B0B0B",
"N.	c #929292",
"O.	c #A0A0A0",
"P.	c #B6B6B6",
"Q.	c #C1C1C1",
"R.	c #C7C7C7",
"S.	c #CFCFCF",
"T.	c #C6C6C6",
"U.	c #C0C0C0",
"V.	c #B5B5B5",
"W.	c #9F9F9F",
"X.	c #616161",
"Y.	c #F1F1F1",
"Z.	c #DDDDDD",
"`.	c #A6A6A6",
" +	c #BFBFBF",
".+	c #B9B9B9",
"++	c #B7B7B7",
"@+	c #DEDEDE",
"#+	c #F2F2F2",
"$+	c #474747",
"%+	c #2D2D2D",
"&+	c #080808",
"*+	c #3A3A3A",
"=+	c #484848",
"-+	c #0F0F0F",
";+	c #242424",
">+	c #606060",
",+	c #6D6D6D",
"'+	c #7F7F7F",
")+	c #7E7E7E",
"!+	c #737373",
"~+	c #A2A2A2",
"{+	c #8A8A8A",
"]+	c #777777",
"^+	c #9A9A9A",
"/+	c #999999",
"(+	c #838383",
"_+	c #888888",
":+	c #AEAEAE",
"<+	c #AFAFAF",
"[+	c #313131",
"}+	c #727272",
"|+	c #CCCCCC",
"1+	c #111111",
"2+	c #141414",
"3+	c #010101",
"4+	c #D4D4D4",
"5+	c #6E6E6E",
"6+	c #666666",
"7+	c #9B9B9B",
"8+	c #A9A9A9",
"9+	c #BCBCBC",
"0+	c #B2B2B2",
"a+	c #6B756B",
"b+	c #323232",
"c+	c #797979",
"d+	c #898989",
"e+	c #6F6F6F",
"f+	c #FDFDFD",
"g+	c #CACACA",
"h+	c #668866",
"i+	c #2AA12A",
"j+	c #292929",
". . . . . . . . . . . . . . . . . . . . . . . . . . . . . . . . . . . . . . . . . . . . . . . . . . . . . . . . . . . . . . . . . . . . . . . ",
". . . . . . . . . . . . . . . . . . . . . . . . . . . . . . . . . . . . . . . . . . . . . . . . . . . . . . . . . . . . . . . . . . . . . . . ",
". . . . . . . . . . . . . . . . . . . . . . . . . . . . . . . . . . . . . . . . . . . . . . . . . . . . . . . . . . . . . . . . . . . . . . . ",
". . . . . . . . . . . . . . . . . . . . . . . . . . . . . . . . . . . . . . . . . . . . . . . . . . . . . . . . . . . . . . . . . . . . . . . ",
". . . . . . . . . . . . . . . . . . . . . . . . . . . . . . . + @ @ # # $ % & @ * . . . . . . . . . . . . . . . . . . . . . . . . . . . . . . ",
". . . . . . . . . . . . . . . . . $ = - ; > , ' ) . . . . . ! ~ { { ] ] ] ] { ^ / ( . . . . . _ : < [ } | 1 # . . . . . . . . . . . . . . . . ",
". . . . . . . . . . . . . . . . 2 3 3 4 5 6 7 ] 8 . . . . . 9 0 a b c d e c f } g ( . . . . . h i j 6 5 4 3 ] k . . . . . . . . . . . . . . . ",
". . . . . . . . . . . . . . . . l { m n o p q 3 r . . . . . 9 s t u u u u u u v g ( . . . . . w g x p y z A 3 B . . . . . . . . . . . . . . . ",
". . . . . . . . . . . . . . . . l { C u u u D E - . . . . . h s t u u u u u u v g F . . . . . G H I u u u J ] B . . . . . . . . . . . . . . . ",
". . . . . . . . . . . . . . . . l { C u u u K L M a a a a a , N t u u u u u u v s O a a a a P Q R S u u u J ] B . . . . . . . . . . . . . . . ",
". . . . . . . . . . . . . . . . l { C u u u T U V V V V V V V V W u u u u u u d V V V V V V V V - X u u u J ] B . . . . . . . . . . . . . . . ",
". . . . . . . . . . . . . . . . l { C u u u u o I I I I I I I I Y u u u u u u Z I I I I I I I I ` u u u u J ] B . . . . . . . . . . . . . . . ",
". . . . . . . . . . . . . . . . l { C u u u u u u u u u u u u u u u u u u u u u u u u u u u u u u u u u u J ] B . . . . . . . . . . . . . . . ",
". . . . . . . . . . . . . . . . l { C u u u u  ...+.@.#.X $.%.&.*.=.p p p p =.-.;.%.$.X #.>.+... .u u u u J ] B . . . . . . . . . . . . . . . ",
". . . . . . . . . . . . . . . . l { ,.'.q v ).F !.2 G ~.> {.< ].^.L 6 /./.6 (.^._.< :.<.} [.2 }.|.1.2.3.4.5.] B . . . . . . . . . . . . . . . ",
". . . . . . . . . . . . . . . . 6.N i 3 3 { 4 5 7.R 8.[ <.9.G | 0.6.a.r r a.6.0.- P } <.: 8.b.7.5 4 { 3 3 3 N = . . . . . . . . . . . . . . . ",
". . . . . . . . . . . . . . . . . < N c.d.e.f.y g.h.i.Y X #.@.j.+.............+.k.@.#.X l.i.S m.n.D o.p.q.N :.. . . . . . . . . . . . . . . . ",
". . . . . . . . . . . . . . . . . ( (.~ r.u u u u u u u u u u u u u u u u u u u u u u u u u u u u u u s.g R |.. . . . . . . . . . . . . . . . ",
". . . . . . . . . . . . . . . . . . 1 V ].t.u u u u u u  .u.+.+.j.>.v.#.#.v.>.w.+.+.u. .u u u u u u x.y.7.= . . . . . . . . . . . . . . . . . ",
". . . . . . . . . . . . . . . . . . . z.N ; A.x.r.B.C.5.@ ! k D.E.[.F.9.G.F.H.E.D.k I.@ ).C.B.A.J.A.K.N L.. . . . . . . . . . . . . . . . . . ",
". . . . . . . . . . . . . . . . . . . . K.N { i i i g M.E / s N _.8.8.8.8.8.8.].N i 5 E M.g i i i { N P . . . . . . . . . . . . . . . . . . . ",
". . . . . . . . . . . . . . . . . . . . = 3 h N.O.J.P.Q.R.S.| M T.i.i.%.%.i.i.C 7 l I T.U.V.x.W.t w 3 X.. . . . . . . . . . . . . . . . . . . ",
". . . . . . . . . . . . . . . . . . . . h ] J.u u u u u u ..B M -.u u u u u u m.7 6...u u u u u u N.3 $ . . . . . . . . . . . . . . . . . . . ",
". . . . . . . . . . . . . . . . . . . . h ] J.u u u u u u ..B M -.u u u u u u m.7 6...u u u u u u N.3 $ . . . . . . . . . . . . . . . . . . . ",
". . . . . . . . . . . . . . . . . . . . h ] J...>.Y.T &.Z.y - Q `. +.+++++.+ +W.7 | y @+&.T #+>...N.3 $ . . . . . . . . . . . . . . . . . . . ",
". . . . . . . . . . . . . . . . . . . . h 0 $+}.$+K.%+].Q 7 s N M.^ &+g g &+^ M.N s 7 Q ].%+*+=+9 9.i $ . . . . . . . . . . . . . . . . . . . ",
". . . . . . . . . . . . . . . . . . . . h 0 -+/.].;+N , 6.>+,+5.'+c )+6 b.C.c )+!+_ I.B _.N _.;+j M.i $ . . . . . . . . . . . . . . . . . . . ",
". . . . . . . . . . . . . . . . . . . . h ] 2.g.&.~+g {+..u. .u u u l.: ~.#.u u u  .u...]+M.d.&.g.5.3 $ . . . . . . . . . . . . . . . . . . . ",
". . . . . . . . . . . . . . . . . . . . h ] J.u u P.g B.u u u u u u l.: ~.#.u u u u u u f M.n u u N.3 $ . . . . . . . . . . . . . . . . . . . ",
". . . . . . . . . . . . . . . . . . . . h ] J.u u P.g B.u u u u u u l.: ~.#.u u u u u u f M.n u u N.3 $ . . . . . . . . . . . . . . . . . . . ",
". . . . . . . . . . . . . . . . . . . . h ] J.u u P.g B.u u u u u u l.: ~.#.u u u u u u f M.n u u N.3 $ . . . . . . . . . . . . . . . . . . . ",
". . . . . . . . . . . . . . . . . . . . h ] J.u u P.g B.u u u u u u l.: ~.#.u u u u u u f M.n u u N.3 $ . . . . . . . . . . . . . . . . . . . ",
". . . . . . . . . . . . . . . . . . . . h ] ^+i.@+3.g &  +t.J.~+/+q (+L ;+_+q /+~+J.t.U.! M.W.*.i.2.3 $ . . . . . . . . . . . . . . . . . . . ",
". . . . . . . . . . . . . . . . . . . . h 0 ;+8.y.5 N &+M.] i 0 3 3 3 3 3 3 3 3 0 i ] M.3 N 7 y.8.(.i $ . . . . . . . . . . . . . . . . . . . ",
". . . . . . . . . . . . . . . . . . . . h 0 {.a 2 !.( !+m _+[ /.N.:+<+<+<+<+:+e H [+_+'+}+( = 0.U ;+i $ . . . . . . . . . . . . . . . . . . . ",
". . . . . . . . . . . . . . . . . . . . h ] W.v.+... .u u ..B M -.u u u u u u m.7 6...u u  ...+.v.{+3 $ . . . . . . . . . . . . . . . . . . . ",
". . . . . . . . . . . . . . . . . . . . h ] J.u u u u u u ..B M -.u u u u u u m.7 6...u u u u u u N.3 $ . . . . . . . . . . . . . . . . . . . ",
". . . . . . . . . . . . . . . . . . . . h ] J.u u u u u u ..B M -.u u u u u u m.7 6...u u u u u u N.3 $ . . . . . . . . . . . . . . . . . . . ",
". . . . . . . . . . . . . . . . . . . . h ] J.u u u u u u ..B M -.u u u u u u m.7 6...u u u u u u N.3 $ . . . . . . . . . . . . . . . . . . . ",
". . . . . . . . . . . . . . . . . . . . h ] J. . .....w.>.X B M ` v.v.v.v.v.v.|+7 6.Y.>.w..... . .N.3 $ . . . . . . . . . . . . . . . . . . . ",
". . . . . . . . . . . . . . . . . . . . h 3 B 5.F = B w $+a 1+s 9.; ; ; ; ; ; ~.N V a $+w B !.|.5.$+3 $ . . . . . . . . . . . . . . . . . . . ",
". . . . . . . . . . . . . . . . . . . . h 0 M.E 5 2+N 2+b.;+_._.8.8.8.3+s 8.8.8._.].;+b.-+N / 5 E &+i $ . . . . . . . . . . . . . . . . . . . ",
". . . . . . . . . . . . . . . . . . . . h ] '+R.y q g b h.&.;.i.i.i.4+: ~.K i.i.i.;.&.h._ M.r.y T.5+3 $ . . . . . . . . . . . . . . . . . . . ",
". . . . . . . . . . . . . . . . . . . . h ] J.u u P.g B.u u u u u u l.: ~.#.u u u u u u f M.n u u N.3 $ . . . . . . . . . . . . . . . . . . . ",
". . . . . . . . . . . . . . . . . . . . h ] J.u u P.g B.u u u u u u l.: ~.#.u u u u u u f M.n u u N.3 $ . . . . . . . . . . . . . . . . . . . ",
". . . . . . . . . . . . . . . . . . . . h ] J.u u P.g B.u u u u u u l.: ~.#.u u u u u u f M.n u u N.3 $ . . . . . . . . . . . . . . . . . . . ",
". . . . . . . . . . . . . . . . . . . . B ] 6+7+7+_ ] a.7+7+7+7+7+7+d ^.8.t 7+7+7+7+7+7+| { 5.7+7+1 3 ! . . . . . . . . . . . . . . . . . . . ",
". . . . . . . . . . . . . . . . . . . . : N 3 3 3 3 s 3 3 3 3 3 3 3 3 s s 3 3 3 3 3 3 3 i s 3 3 3 3 N <.. . . . . . . . . . . . . . . . . . . ",
". . . . . . . . . . . . . . . . . . . P N =+A.8+8+8+8+8+8+8+8+8+8+8+8+8+8+8+8+8+8+8+8+8+8+8+8+8+8+/+U N =+. . . . . . . . . . . . . . . . . . ",
". . . . . . . . . . . . . . . . . . k ^ :.9+u u u u u u u u u u u u u u u u u u u u u u u u u u u u 0+R ~ = . . . . . . . . . . . . . . . . . ",
". . . . . . . . . . . . . . . . . F ^.^ ^+u u u u u u u u u u u u u u u u u u u u u u u u u u u u u u q i ^.a+. . . . . . . . . . . . . . . . ",
". . . . . . . . . . . . . . . . . [+N }.S S S S S S S S S S S S S S S S S S S S S S S S S S S S S S S -.k N ' . . . . . . . . . . . . . . . . ",
". . . . . . . . . . . . . . . . F.N N 6 M M M M M M M M M M M M M M M M M M M M M M M M M M M M M M M M / N N z.. . . . . . . . . . . . . . . ",
". . . . . . . . . . . . . . . a.{ 3+[.L.L.L.L.L.L.L.L.L.L.L.L.L.L.L.L.L.L.L.L.L.L.L.L.L.L.L.L.L.L.L.L.L.L.P N ~ }.. . . . . . . . . . . . . . ",
". . . . . . . . . . . . . . . <.N G l.w.w.w.w.w.w.w.w.w.w.w.w.w.w.w.w.w.w.w.w.w.w.w.w.w.w.w.w.w.w.w.w.w.w.;.K.N c.. . . . . . . . . . . . . . ",
". . . . . . . . . . . . . . . b+N c+u u u u u u u u u u u u u u u u u u u u u u u u u u u u u u u u u u u u 5+N O . . . . . . . . . . . . . . ",
". . . . . . . . . . . . . . . b+N s.u u u u u u u u u u u u u u u u u u u u u u u u u u u u u u u u u u u u d+N O . . . . . . . . . . . . . . ",
". . . . . . . . . . . . . . . b+0 ^+u u u u u u u u u u u u u u u u u u u u u u u u u u u u u u u u u u u u B.N O . . . . . . . . . . . . . . ",
". . . . . . . . . . . . . . . b+N d u u u u u u u u u u u u u u u u u u u u u u u u u u u u u u u u u u u u C.N O . . . . . . . . . . . . . . ",
". . . . . . . . . . . . . . . b+N e+ .u u u u u u u u u u u u u u u u u u u u u u u u u u u u u u u u u u f+% N O . . . . . . . . . . . . . . ",
". . . . . . . . . . . . . . . [ N U g+m.m.m.m.m.m.m.m.m.m.m.m.m.m.m.m.m.m.m.m.m.m.m.m.m.m.m.m.m.m.m.m.m.m.T.c.N [+. . . . . . . . . . . . . . ",
". . . . . . . . . . . . . . h+j N N 7 7 7 7 7 7 7 7 7 7 7 7 7 7 7 7 7 7 7 7 7 7 7 7 7 7 7 7 7 7 7 7 7 7 7 7 N N 6 i+. . . . . . . . . . . . . ",
". . . . . . . . . . . . . . =+N { w B B B B B B B B B B B B B B B B B B B B B B B B B B B B B B B B B B B B l 3 N L.. . . . . . . . . . . . . ",
". . . . . . . . . . . . . . {.N D.>.........................................................................#.[.N b+. . . . . . . . . . . . . ",
". . . . . . . . . . . . . . L N 8 u.u.u.u.u.u.u.u.u.u.u.u.u.u.u.u.u.u.u.u.u.u.u.u.u.u.u.u.u.u.u.u.u.u.u.u.u.w.k N 8.. . . . . . . . . . . . . ",
". . . . . . . . . . . . . . ;+N M ! ! ! ! ! ! ! ! ! ! ! ! ! ! ! ! ! ! ! ! ! ! ! ! ! ! ! ! ! ! ! ! ! ! ! ! ! h /.N j+. . . . . . . . . . . . . ",
". . . . . . . . . . . . . . z.8.8.8.8.8.8.8.8.8.8.8.8.8.8.8.8.8.8.8.8.8.8.8.8.8.8.8.8.8.8.8.8.8.8.8.8.8.8.8.8.8.8.L.. . . . . . . . . . . . . ",
". . . . . . . . . . . . . . . . . . . . . . . . . . . . . . . . . . . . . . . . . . . . . . . . . . . . . . . . . . . . . . . . . . . . . . . ",
". . . . . . . . . . . . . . . . . . . . . . . . . . . . . . . . . . . . . . . . . . . . . . . . . . . . . . . . . . . . . . . . . . . . . . . ",
". . . . . . . . . . . . . . . . . . . . . . . . . . . . . . . . . . . . . . . . . . . . . . . . . . . . . . . . . . . . . . . . . . . . . . . ",
". . . . . . . . . . . . . . . . . . . . . . . . . . . . . . . . . . . . . . . . . . . . . . . . . . . . . . . . . . . . . . . . . . . . . . . "};
