/* XPM */
static char * ywbb_xpm[] = {
"71 71 527 2",
"  	c None",
". 	c #42EC42",
"+ 	c #297B29",
"@ 	c #143F14",
"# 	c #184B18",
"$ 	c #2D9A2D",
"% 	c #2D992D",
"& 	c #184A18",
"* 	c #154615",
"= 	c #2B8D2B",
"- 	c #2B8B2B",
"; 	c #000000",
"> 	c #0C260C",
", 	c #3AC43A",
"' 	c #38BF38",
") 	c #0B250B",
"! 	c #0A130A",
"~ 	c #38B538",
"{ 	c #206120",
"] 	c #050805",
"^ 	c #37B137",
"/ 	c #2EA12E",
"( 	c #010301",
"_ 	c #31A031",
": 	c #267726",
"< 	c #0C1D0C",
"[ 	c #39C639",
"} 	c #35B435",
"| 	c #060E06",
"1 	c #091909",
"2 	c #38BE38",
"3 	c #38BC38",
"4 	c #102B10",
"5 	c #247924",
"6 	c #216621",
"7 	c #237723",
"8 	c #3CCE3C",
"9 	c #153E15",
"0 	c #040E04",
"a 	c #2C8E2C",
"b 	c #40D140",
"c 	c #0F2D0F",
"d 	c #040C04",
"e 	c #2A8F2A",
"f 	c #34B434",
"g 	c #080B08",
"h 	c #227722",
"i 	c #267A26",
"j 	c #081D08",
"k 	c #2A952A",
"l 	c #34AB34",
"m 	c #123A12",
"n 	c #226622",
"o 	c #287D28",
"p 	c #252B25",
"q 	c #313131",
"r 	c #0E250E",
"s 	c #35A735",
"t 	c #2F992F",
"u 	c #112B11",
"v 	c #131813",
"w 	c #919191",
"x 	c #CFCFCF",
"y 	c #4F4F4F",
"z 	c #133913",
"A 	c #35B635",
"B 	c #2C962C",
"C 	c #0B200B",
"D 	c #5F5F5F",
"E 	c #DFDFDF",
"F 	c #CBCBCB",
"G 	c #444444",
"H 	c #194E19",
"I 	c #3ED33E",
"J 	c #33A233",
"K 	c #0E240E",
"L 	c #E3E3E3",
"M 	c #BFBFBF",
"N 	c #3A3A3A",
"O 	c #216D21",
"P 	c #33B033",
"Q 	c #133613",
"R 	c #707070",
"S 	c #FCFCFC",
"T 	c #ABABAB",
"U 	c #1D1D1D",
"V 	c #050C05",
"W 	c #2F9A2F",
"X 	c #3CC73C",
"Y 	c #174317",
"Z 	c #101010",
"` 	c #262626",
" .	c #1F1F1F",
"..	c #868686",
"+.	c #FFFFFF",
"@.	c #8D8D8D",
"#.	c #3DD03D",
"$.	c #1D5F1D",
"%.	c #090909",
"&.	c #969696",
"*.	c #E5E5E5",
"=.	c #C9C9C9",
"-.	c #333333",
";.	c #171717",
">.	c #F5F5F5",
",.	c #257A25",
"'.	c #278227",
").	c #CACACA",
"!.	c #F7F7F7",
"~.	c #494949",
"{.	c #424242",
"].	c #D9D9D9",
"^.	c #C4C4C4",
"/.	c #252525",
"(.	c #0F270F",
"_.	c #3CC43C",
":.	c #35B135",
"<.	c #0D230D",
"[.	c #4A4A4A",
"}.	c #777777",
"|.	c #FEFEFE",
"1.	c #828282",
"2.	c #257925",
"3.	c #1B561B",
"4.	c #1A1A1A",
"5.	c #BEBEBE",
"6.	c #DCDCDC",
"7.	c #103110",
"8.	c #3DD43D",
"9.	c #2C952C",
"0.	c #030603",
"a.	c #676767",
"b.	c #FBFBFB",
"c.	c #020502",
"d.	c #309B30",
"e.	c #41E941",
"f.	c #164316",
"g.	c #191919",
"h.	c #C8C8C8",
"i.	c #CECECE",
"j.	c #1B1B1B",
"k.	c #2D982D",
"l.	c #7F7F7F",
"m.	c #F9F9F9",
"n.	c #585858",
"o.	c #112E11",
"p.	c #40E140",
"q.	c #195019",
"r.	c #3B3B3B",
"s.	c #ECECEC",
"t.	c #939393",
"u.	c #061006",
"v.	c #37BC37",
"w.	c #3ABD3A",
"x.	c #091509",
"y.	c #020202",
"z.	c #050505",
"A.	c #0C0C0C",
"B.	c #474747",
"C.	c #DEDEDE",
"D.	c #7C7C7C",
"E.	c #121212",
"F.	c #070707",
"G.	c #030303",
"H.	c #0F0F0F",
"I.	c #C1C1C1",
"J.	c #111111",
"K.	c #2F9E2F",
"L.	c #278427",
"M.	c #595959",
"N.	c #858585",
"O.	c #9F9F9F",
"P.	c #AFAFAF",
"Q.	c #C2C2C2",
"R.	c #E4E4E4",
"S.	c #CCCCCC",
"T.	c #B6B6B6",
"U.	c #A6A6A6",
"V.	c #909090",
"W.	c #6C6C6C",
"X.	c #2F2F2F",
"Y.	c #E7E7E7",
"Z.	c #2B2B2B",
"`.	c #298329",
" +	c #195119",
".+	c #5D5D5D",
"++	c #F2F2F2",
"@+	c #454545",
"#+	c #246F24",
"$+	c #3ED53E",
"%+	c #0E290E",
"&+	c #F8F8F8",
"*+	c #E9E9E9",
"=+	c #DBDBDB",
"-+	c #E2E2E2",
";+	c #F1F1F1",
">+	c #D8D8D8",
",+	c #F3F3F3",
"'+	c #FDFDFD",
")+	c #E6E6E6",
"!+	c #363636",
"~+	c #EBEBEB",
"{+	c #206520",
"]+	c #37BF37",
"^+	c #071207",
"/+	c #4E4E4E",
"(+	c #727272",
"_+	c #2E2E2E",
":+	c #1C1C1C",
"<+	c #DDDDDD",
"[+	c #787878",
"}+	c #404040",
"|+	c #656565",
"1+	c #838383",
"2+	c #737373",
"3+	c #0B0B0B",
"4+	c #1E1E1E",
"5+	c #1F651F",
"6+	c #33AB33",
"7+	c #6F6F6F",
"8+	c #226E22",
"9+	c #309D30",
"0+	c #B7B7B7",
"a+	c #6D6D6D",
"b+	c #277F27",
"c+	c #339933",
"d+	c #010201",
"e+	c #A5A5A5",
"f+	c #020302",
"g+	c #2E972E",
"h+	c #319B31",
"i+	c #010101",
"j+	c #949494",
"k+	c #030B03",
"l+	c #34B334",
"m+	c #32A832",
"n+	c #808080",
"o+	c #343434",
"p+	c #0A1F0A",
"q+	c #3BCE3B",
"r+	c #050F05",
"s+	c #6B6B6B",
"t+	c #202020",
"u+	c #3CD13C",
"v+	c #0B220B",
"w+	c #353535",
"x+	c #227322",
"y+	c #154415",
"z+	c #030A03",
"A+	c #32AA32",
"B+	c #247424",
"C+	c #0D0D0D",
"D+	c #A4A4A4",
"E+	c #D5D5D5",
"F+	c #113211",
"G+	c #3FDE3F",
"H+	c #34A934",
"I+	c #040904",
"J+	c #272727",
"K+	c #232323",
"L+	c #236F23",
"M+	c #3CD73C",
"N+	c #103010",
"O+	c #060F06",
"P+	c #34AF34",
"Q+	c #257325",
"R+	c #164516",
"S+	c #37BA37",
"T+	c #0A1A0A",
"U+	c #393939",
"V+	c #2A2A2A",
"W+	c #040404",
"X+	c #278327",
"Y+	c #206A20",
"Z+	c #0A0A0A",
"`+	c #ACACAC",
" @	c #E8E8E8",
".@	c #555555",
"+@	c #292929",
"@@	c #080808",
"#@	c #3BBE3B",
"$@	c #36B936",
"%@	c #0A1C0A",
"&@	c #141414",
"*@	c #B3B3B3",
"=@	c #FAFAFA",
"-@	c #F0F0F0",
";@	c #AAAAAA",
">@	c #888888",
",@	c #7E7E7E",
"'@	c #979797",
")@	c #686868",
"!@	c #143B14",
"~@	c #246924",
"{@	c #8A8A8A",
"]@	c #A7A7A7",
"^@	c #6E6E6E",
"/@	c #3E3E3E",
"(@	c #717171",
"_@	c #236B23",
":@	c #32A732",
"<@	c #696E69",
"[@	c #2D2D2D",
"}@	c #7D7D7D",
"|@	c #B1B1B1",
"1@	c #3D3D3D",
"2@	c #060606",
"3@	c #303030",
"4@	c #747474",
"5@	c #626262",
"6@	c #2A8C2A",
"7@	c #3DD33D",
"8@	c #192F19",
"9@	c #505050",
"0@	c #8C8C8C",
"a@	c #070C07",
"b@	c #31A831",
"c@	c #1D431D",
"d@	c #F4F4F4",
"e@	c #181818",
"f@	c #E0E0E0",
"g@	c #A8A8A8",
"h@	c #202720",
"i@	c #204620",
"j@	c #A1A1A1",
"k@	c #EDEDED",
"l@	c #A0A0A0",
"m@	c #464646",
"n@	c #222822",
"o@	c #35B335",
"p@	c #274227",
"q@	c #3C3C3C",
"r@	c #373737",
"s@	c #ADADAD",
"t@	c #262C26",
"u@	c #33AC33",
"v@	c #3DCC3D",
"w@	c #344734",
"x@	c #262926",
"y@	c #2E9A2E",
"z@	c #172017",
"A@	c #C3C3C3",
"B@	c #8B8B8B",
"C@	c #4C4C4C",
"D@	c #2B882B",
"E@	c #5B5B5B",
"F@	c #F6F6F6",
"G@	c #B2B2B2",
"H@	c #C7C7C7",
"I@	c #929292",
"J@	c #565656",
"K@	c #151515",
"L@	c #1D5A1D",
"M@	c #316B31",
"N@	c #C0C0C0",
"O@	c #8E8E8E",
"P@	c #606060",
"Q@	c #131313",
"R@	c #636363",
"S@	c #9E9E9E",
"T@	c #1C3D1C",
"U@	c #41E741",
"V@	c #3BCD3B",
"W@	c #344B34",
"X@	c #0E0E0E",
"Y@	c #818181",
"Z@	c #324332",
"`@	c #3CC63C",
" #	c #3BCC3B",
".#	c #164816",
"+#	c #0F250F",
"@#	c #2B902B",
"##	c #3FD43F",
"$#	c #247724",
"%#	c #0B1F0B",
"&#	c #37B937",
"*#	c #0F290F",
"=#	c #030403",
"-#	c #051005",
";#	c #164616",
">#	c #2B8E2B",
",#	c #33B133",
"'#	c #288128",
")#	c #1E5D1E",
"!#	c #164A16",
"~#	c #154715",
"{#	c #184F18",
"]#	c #278527",
"^#	c #3EDE3E",
"/#	c #3DCF3D",
"(#	c #1F5F1F",
"_#	c #091609",
":#	c #222222",
"<#	c #143714",
"[#	c #288528",
"}#	c #34B634",
"|#	c #3DCB3D",
"1#	c #30A430",
"2#	c #247C24",
"3#	c #1C5A1C",
"4#	c #154915",
"5#	c #154815",
"6#	c #1B551B",
"7#	c #237023",
"8#	c #2E962E",
"9#	c #3BC23B",
"0#	c #298E29",
"a#	c #154315",
"b#	c #226A22",
"c#	c #309E30",
"d#	c #3BCA3B",
"e#	c #35AC35",
"f#	c #3E5E3E",
"g#	c #B9B9B9",
"h#	c #C6C6C6",
"i#	c #172317",
"j#	c #202C20",
"k#	c #B8B8B8",
"l#	c #365D36",
"m#	c #35AE35",
"n#	c #1A4F1A",
"o#	c #020602",
"p#	c #091709",
"q#	c #184D18",
"r#	c #2E922E",
"s#	c #40E440",
"t#	c #31A531",
"u#	c #174917",
"v#	c #123812",
"w#	c #1A511A",
"x#	c #154215",
"y#	c #091809",
"z#	c #414141",
"A#	c #666666",
"B#	c #484848",
"C#	c #288728",
"D#	c #595E59",
"E#	c #0A1B0A",
"F#	c #1A4C1A",
"G#	c #1E5B1E",
"H#	c #0F310F",
"I#	c #091409",
"J#	c #020402",
"K#	c #164416",
"L#	c #268126",
"M#	c #246C24",
"N#	c #237923",
"O#	c #040804",
"P#	c #050905",
"Q#	c #060D06",
"R#	c #257425",
"S#	c #0D1F0D",
"T#	c #123612",
"U#	c #020802",
"V#	c #081508",
"W#	c #194D19",
"X#	c #267C26",
"Y#	c #36AA36",
"Z#	c #36AC36",
"`#	c #267926",
" $	c #0C1F0C",
".$	c #236623",
"+$	c #42E142",
"@$	c #2A842A",
"#$	c #0C1B0C",
"$$	c #0B1C0B",
"%$	c #237123",
"&$	c #2E952E",
"*$	c #34AA34",
"=$	c #2F972F",
"-$	c #267526",
";$	c #144314",
">$	c #133413",
",$	c #2C812C",
"'$	c #1F601F",
")$	c #1F611F",
"!$	c #277327",
"~$	c #081608",
"{$	c #38A638",
"]$	c #185518",
"^$	c #1C591C",
"/$	c #34B134",
"($	c #3CC93C",
"_$	c #1C561C",
":$	c #0C230C",
"<$	c #050A05",
"[$	c #0E2C0E",
"}$	c #268326",
"|$	c #30A330",
"1$	c #060C06",
"2$	c #0C210C",
"3$	c #1D551D",
"4$	c #2C8F2C",
"5$	c #3BC63B",
"6$	c #34A834",
"7$	c #1A501A",
"8$	c #1F671F",
"9$	c #42E742",
"0$	c #2C912C",
"a$	c #257E25",
"b$	c #30A530",
"c$	c #42EB42",
"d$	c #216B21",
"e$	c #278027",
"f$	c #3CCF3C",
"g$	c #2B922B",
"h$	c #247624",
"i$	c #257725",
"j$	c #309630",
"k$	c #3BCB3B",
"l$	c #35AF35",
"m$	c #298629",
"n$	c #237623",
"o$	c #267826",
"p$	c #298229",
"q$	c #2B932B",
"r$	c #3DCE3D",
"s$	c #227422",
"t$	c #040604",
"u$	c #2D942D",
"v$	c #35AD35",
"w$	c #102C10",
"x$	c #299429",
"y$	c #217621",
"z$	c #133E13",
"A$	c #3ECD3E",
"B$	c #32B032",
". . . . . . . . . . . . . . . . . . . . . . . . . . . . . . . . . . . . . . . . . . . . . . . . . . . . . . . . . . . . . . . . . . . . . . . ",
". . . . . . . . . . . . . . . . . . . . . . . . . . . . . . . . . . . . . . . . . . . . . . . . . . . . . . . . . . . . . . . . . . . . . . . ",
". . . . . . . . . . . . . . . . . . . . . . . . . . . . . . . . . . . . . . . . . . . . . . . . . . . . . . . . . . . . . . . . . . . . . . . ",
". . . . . . . . . . . . . . . . . . . . . . . . . . . . . . . . . . . . . . . . . . . . . . . . . . . . . . . . . . . . . . . . . . . . . . . ",
". . . . . . . . . . . . . . . . . . . . . . . . . . . . . . . . . + @ # $ . . . % & * = . . . . . . . . . . . . . . . . . . . . . . . . . . . ",
". . . . . . . . . . . . . . . . . . . . . . . . . . . . . . . . - ; ; ; > , . ' ) ; ; ! ~ . . . . . . . . . . . . . . . . . . . . . . . . . . ",
". . . . . . . . . . . . . . . . . . . . . . . . . . . . . . . . { ; ; ; ] ^ . / ( ; ; ( _ . . . . . . . . . . . . . . . . . . . . . . . . . . ",
". . . . . . . . . . . . . . . . . . . . . . . . . . . . . . . . : ; ; ; < [ . } | ; ; 1 2 . . . . . . . . . . . . . . . . . . . . . . . . . . ",
". . . . . . . . . . . . . . . . . . . . . . . . . . . . . . . . 3 4 ; ; 5 . . . 6 ; ; 7 . . . . . . . . . . . . . . . . . . . . . . . . . . . ",
". . . . . . . . . . . . . . . . . . . . . . . . . . . . . . . . 8 9 ; 0 a . . . b c d e . . . . . . . . . . . . . . . . . . . . . . . . . . . ",
". . . . . . . . . . . . . . . . . . . . . . . . . . . . . . . f # ; ; ; g h . . i ; ; j k . . . . . . . . . . . . . . . . . . . . . . . . . . ",
". . . . . . . . . . . . . . . . . . . . . . . . . . . . . . l m ; ; ; ; ; ; n o p q ; ; r s . . . . . . . . . . . . . . . . . . . . . . . . . ",
". . . . . . . . . . . . . . . . . . . . . . . . . . . . . t u ; ; ; ; ; ; ; ; v w x y ; ; z A . . . . . . . . . . . . . . . . . . . . . . . . ",
". . . . . . . . . . . . . . . . . . . . . . . . . . . . B C ; ; ; ; ; ; ; ; ; ; D E F G ; ; H I . . . . . . . . . . . . . . . . . . . . . . . ",
". . . . . . . . . . . . . . . . . . . . . . . . . . . J K ; ; ; ; ; ; ; ; ; ; ; ; D L M N ; ; O . . . . . . . . . . . . . . . . . . . . . . . ",
". . . . . . . . . . . . . . . . . . . . . . . . . . P Q ; ; ; ; ; ; ; ; ; ; ; ; ; ; R S T U ; V W . . . . . . . . . . . . . . . . . . . . . . ",
". . . . . . . . . . . . . . . . . . . . . . . . . X Y ; ; ; ; ; ; Z `  .; ; ; ; ; ; ; ..+.@.; ; 9 #.. . . . . . . . . . . . . . . . . . . . . ",
". . . . . . . . . . . . . . . . . . . . . . . . . $.; ; ; ; ; ; %.&.*.=.-.; ; ; ; ; ; ;.T >.D ; ; ,.. . . . . . . . . . . . . . . . . . . . . ",
". . . . . . . . . . . . . . . . . . . . . . . . '.; ; ; ; ; ; ; Z ).+.!.~.; ; ; ; ; ; ; {.].^./.; (._.. . . . . . . . . . . . . . . . . . . . ",
". . . . . . . . . . . . . . . . . . . . . . . :.<.; ; ; ; ; ; ; Z ).+.!.[.; ; ; ; ; ; ; ; }.|.1.; ; 2.. . . . . . . . . . . . . . . . . . . . ",
". . . . . . . . . . . . . . . . . . . . . . . 3.; ; ; ; ; ; ; ; Z ).+.!.[.; ; ; ; ; ; ; ; 4.5.6.q ; 7.8.. . . . . . . . . . . . . . . . . . . ",
". . . . . . . . . . . . . . . . . . . . . . 9.0.; ; ; ; ; ; ; ; Z ).+.!.[.; ; ; ; ; ; ; ; ; a.b.1.; c.d.. . . . . . . . . . . . . . . . . . . ",
". . . . . . . . . . . . . . . . . . . . . e.f.; ; ; ; ; ; ; ; ; Z ).+.!.[.; ; ; ; ; ; ; ; ; g.h.i.j.; { . . . . . . . . . . . . . . . . . . . ",
". . . . . . . . . . . . . . . . . . . . . k.0.; ; ; ; ; ; ; ; ; Z ).+.!.[.; ; ; ; ; ; ; ; ; ; l.m.n.; o.p.. . . . . . . . . . . . . . . . . . ",
". . . . . . . . . . . . . . . . . . . . . q.; ; ; ; ; ; ; ; ; ; Z ).+.!.[.; ; ; ; ; ; ; ; ; ; r.s.t.; u.v.. . . . . . . . . . . . . . . . . . ",
". . . . . . . . . . . . . . . . . . . . w.x.; ; ; ; ; ; ; y.z.A.B.C.+.S D.E.F.G.; ; ; ; ; ; ; H.I.h.J.( K.. . . . . . . . . . . . . . . . . . ",
". . . . . . . . . . . . . . . . . . . . L.; ; ; ; ; J.M.N.O.P.Q.R.+.+.+.>.S.T.U.V.W.X.; ; ; ; ; @.Y.Z.; `.. . . . . . . . . . . . . . . . . . ",
". . . . . . . . . . . . . . . . . . . .  +; ; ; ; ; 1.b.+.+.+.+.+.+.+.+.+.+.+.+.+.|.5.j.; ; ; ; .+++@+; #+. . . . . . . . . . . . . . . . . . ",
". . . . . . . . . . . . . . . . . . . $+%+; ; ; ; G.O.+.+.&+*+=+-++.+.+.;+>+L ,+'++.)+` ; ; ; ; !+~+.+; {+. . . . . . . . . . . . . . . . . . ",
". . . . . . . . . . . . . . . . . . . ]+^+; ; ; ; ; /+..(+/+_+:+G <++.S [+g./.}+|+1+2+3+; ; ; ; 4+<+W.; 5+. . . . . . . . . . . . . . . . . . ",
". . . . . . . . . . . . . . . . . . . 6+] ; ; ; ; ; ; ; ; ; ; ; Z F +.!.[.; ; ; ; ; ; ; ; ; ; ; H.=.7+; 8+. . . . . . . . . . . . . . . . . . ",
". . . . . . . . . . . . . . . . . . . 9+( ; ; ; ; ; ; ; ; ; ; ; Z ).+.!.[.; ; ; ; ; ; ; ; ; ; ; F.0+a+; b+. . . . . . . . . . . . . . . . . . ",
". . . . . . . . . . . . . . . . . . . c+d+; ; ; ; ; ; ; ; ; ; ; Z ).+.!.[.; ; ; ; ; ; ; ; ; ; ; G.e+D f+g+. . . . . . . . . . . . . . . . . . ",
". . . . . . . . . . . . . . . . . . . h+f+; ; ; ; ; ; ; ; ; ; ; Z ).+.!.[.; ; ; ; ; ; ; ; ; ; ; i+j+~.k+l+. . . . . . . . . . . . . . . . . . ",
". . . . . . . . . . . . . . . . . . . m+c.; ; ; ; ; ; ; ; ; ; ; Z ).+.!.[.; ; ; ; ; ; ; ; ; ; ; ; n+o+p+q+. . . . . . . . . . . . . . . . . . ",
". . . . . . . . . . . . . . . . . . . v.r+; ; ; ; ; ; ; ; ; ; ; Z ).+.!.[.; ; ; ; ; ; ; ; ; ; ; ; s+t+f.. . . . . . . . . . . . . . . . . . . ",
". . . . . . . . . . . . . . . . . . . u+v+; ; ; ; ; ; ; ; ; ; ; Z ).+.!.[.; ; ; ; ; ; ; ; ; ; ; ; w+H.x+. . . . . . . . . . . . . . . . . . . ",
". . . . . . . . . . . . . . . . . . . . y+; ; ; ; ; ; ; ; ; ; ; Z ).+.!.~.; ; ; ; ; ; ; ; ; ; ; ; i+z+A+. . . . . . . . . . . . . . . . . . . ",
". . . . . . . . . . . . . . . . . . . . B+; ; ; ; ; ; ; ; ; ; ; C+D+Y.E+N ; ; ; ; ; ; ; ; ; ; ; ; ; F+G+. . . . . . . . . . . . . . . . . . . ",
". . . . . . . . . . . . . . . . . . . . H+I+; ; ; ; ; ; ; ; ; ; ; g.J+K+; ; ; ; ; ; ; ; ; ; ; ; ; ; L+. . . . . . . . . . . . . . . . . . . . ",
". . . . . . . . . . . . . . . . . . . . M+N+; ; ; ; ; ; ; ; ; ; ; ; ; ; ; ; ; ; ; ; ; ; ; ; ; ; ; O+P+. . . . . . . . . . . . . . . . . . . . ",
". . . . . . . . . . . . . . . . . . . . . Q+; ; ; ; ; ; ; ; ; ; ; ; ; ; ; ; ; ; ; ; ; ; ; ; ; ; ; R+. . . . . . . . . . . . . . . . . . . . . ",
". . . . . . . . . . . . . . . . . . . . . S+T+; ; ; ; ; ; ; z.Z 4+Z.U+r.r.U+V+U H.W+; ; ; ; ; ; ; X+. . . . . . . . . . . . . . . . . . . . . ",
". . . . . . . . . . . . . . . . . . . . . . Y+; ; ; Z+Z.n.N.`+=.<+ @++,+,+++Y.6.h.T 1..@+@@@; ; x.#@. . . . . . . . . . . . . . . . . . . . . ",
". . . . . . . . . . . . . . . . . . . . . . $@%@&@a+*@*.=@-@=+Q.;@&.>@,@l.>@'@`+^.6.;+m.R.P.)@J.!@. . . . . . . . . . . . . . . . . . . . . . ",
". . . . . . . . . . . . . . . . . . . . . . . ~@{@|.-+]@^@r.U A.G.; ; Z+; ; ; G.C+4+/@(@T *.'+N._@. . . . . . . . . . . . . . . . . . . . . . ",
". . . . . . . . . . . . . . . . . . . . . . . :@<@R [@z.; ; ; ; ; X.}@|@>@1@; ; ; ; ; ; 2@3@4@5@6@. . . . . . . . . . . . . . . . . . . . . . ",
". . . . . . . . . . . . . . . . . . . . . . . 7@8@9@G &@; ; ; C+}.>++.+.+.Y.0@:+; ; ; ; ; @@V+a@b@. . . . . . . . . . . . . . . . . . . . . . ",
". . . . . . . . . . . . . . . . . . . . . . . . c@^.d@`+e@; ; /@f@+.+.+.+.+.R.B.; ; ; ; /+g@^.h@l+. . . . . . . . . . . . . . . . . . . . . . ",
". . . . . . . . . . . . . . . . . . . . . . . . i@=.+.&.2@; ; ; B.j@s.|.k@l@m@; ; ; ; F.V.+.6.n@o@. . . . . . . . . . . . . . . . . . . . . . ",
". . . . . . . . . . . . . . . . . . . . . . . G+p@E+0+V+; ; ; ; ; F.q@D /@2@; ; ; ; ; ; r@s@-+t@u@. . . . . . . . . . . . . . . . . . . . . . ",
". . . . . . . . . . . . . . . . . . . . . . . v@w@D+/@; ; ; ; ; W+F.3+3+3+3+F.G.; ; ; ; ; 4+(+x@y@. . . . . . . . . . . . . . . . . . . . . . ",
". . . . . . . . . . . . . . . . . . . . . . . o@z@_+i+E.[@/+R @.e+0+Q.A@A@Q.T.D+B@^@C@Z.J.; ; ; b+. . . . . . . . . . . . . . . . . . . . . . ",
". . . . . . . . . . . . . . . . . . . . . . . D@4.E@&.=. @F@-@E i.I.0+G@G@0+I.x f@-@F@Y.H@I@J@K@L@. . . . . . . . . . . . . . . . . . . . . . ",
". . . . . . . . . . . . . . . . . . . . . . . M@;@F@*.N@O@P@U+ .E.3+F.2@2@@@3+Q@t+N R@w Q.Y.>.S@T@U@. . . . . . . . . . . . . . . . . . . . . ",
". . . . . . . . . . . . . . . . . . . . . . V@W@1+E@Z.C+; ; ; ; ; ; ; ; ; ; ; ; ; ; ; ; X@_+D Y@Z@`@. . . . . . . . . . . . . . . . . . . . . ",
". . . . . . . . . . . . . . . . . . . . . .  #.#i+; ; ; ; ; ; ; ; ; ; ; ; ; ; ; ; ; ; ; ; ; ; +#@#. . . . . . . . . . . . . . . . . . . . . . ",
". . . . . . . . . . . . . . . . . . . . . . . ##$#%#; ; ; ; ; ; ; ; ; ; ; ; ; ; ; ; ; ; ; f+# m+. . . . . . . . . . . . . . . . . . . . . . . ",
". . . . . . . . . . . . . . . . . . . . . . . . . &#8+*#=#; ; ; ; ; ; ; ; ; ; ; ; ; ; -#;#>#e.. . . . . . . . . . . . . . . . . . . . . . . . ",
". . . . . . . . . . . . ,#'#)#!#~#{#5+]#P ^#. . . . . /#g+(#_#4.C+z.y.; ; G.%.K@:#<#[#}#. . . . . . . |#1#2#3#4#5#6#7#8#9#. . . . . . . . . . ",
". . . . . . . . . e.0#a#0 ; ; ; ; ; ; ; d 7.b#c#d#. . . . e#f#g#h#G@[+i#j#0@k#i.T l#m#. . . . e.#@D@n#%#o#; ; ; ; ; ; ( p#q#r#s#. . . . . . . ",
". . . . . . . . t#u#d+; ; ; ; ; ; ; ; ; ; ; ; c.%@v#w#3.x#y#; z#A#a+B#C#>#D#^@P@-.; E#F#G#3.u#H#I#i+; ; ; ; ; ; ; ; ; ; ; ; J#K#9+. . . . . . ",
". . . . . . . L#< ; ; ; ; ; ; ( ] I+( ; ; ; ; ; ; ; ; ; ; ; ; ; ; ; M#. . N#W+; ; ; ; ; ; ; ; ; ; ; ; ; ; ; ( O#] ( ; ; ; ; P#c.Q#R#. . . . . ",
". . . . . . B+; S#T#U#; V#W#X#y@Y#Z#y@`#W# $d+; ; ; ; ; ; ; ; ; ; .$+$. . . @$#$; ; ; ; ; ; ; ; ; ; d+$$R+%$&$*$H+=$-$;$O+; >$,$'$1 )$. . . . ",
". . . . . !$~$8+{$]$; ^$/$. . . . . . . . ($@#_$:$<$i+; ; ; f+[$}$. . . . . . |$W#1$; ; ; ; d+<$2$3$4$5$. . . . . . . . 6$7$; 8$9$/$0$. . . . ",
". . . . . a$b$c$d$1 e$. . . . . . . . . . . . . f$P+g$e$h$i$j$k$. . . . . . . . . l$m$n$o$p$q$P+r$. . . . . . . . . . . . . s$t$u$. . . . . . ",
". . . . . . . v$w$x$. . . . . . . . . . . . . . . . . . . . . . . . . . . . . . . . . . . . . . . . . . . . . . . . . . . . . y$z$^#. . . . . ",
". . . . . . . A$o@. . . . . . . . . . . . . . . . . . . . . . . . . . . . . . . . . . . . . . . . . . . . . . . . . . . . . . . B$. . . . . . ",
". . . . . . . . . . . . . . . . . . . . . . . . . . . . . . . . . . . . . . . . . . . . . . . . . . . . . . . . . . . . . . . . . . . . . . . ",
". . . . . . . . . . . . . . . . . . . . . . . . . . . . . . . . . . . . . . . . . . . . . . . . . . . . . . . . . . . . . . . . . . . . . . . ",
". . . . . . . . . . . . . . . . . . . . . . . . . . . . . . . . . . . . . . . . . . . . . . . . . . . . . . . . . . . . . . . . . . . . . . . "};
