/* XPM */
static char * ywbk_xpm[] = {
"71 71 488 2",
"  	c None",
". 	c #C4F9C4",
"+ 	c #94F494",
"@ 	c #42EC42",
"# 	c #40E840",
"$ 	c #2D952D",
"% 	c #1F5B1F",
"& 	c #1B521B",
"* 	c #154D15",
"= 	c #1B531B",
"- 	c #205D20",
"; 	c #2F9C2F",
"> 	c #40E040",
", 	c #234C23",
"' 	c #858585",
") 	c #8A8A8A",
"! 	c #131313",
"~ 	c #000000",
"{ 	c #1A1A1A",
"] 	c #8D8D8D",
"^ 	c #838383",
"/ 	c #235423",
"( 	c #40E340",
"_ 	c #40DE40",
": 	c #1F3F1F",
"< 	c #A2A2A2",
"[ 	c #FFFFFF",
"} 	c #7C7C7C",
"| 	c #9D9D9D",
"1 	c #1E461E",
"2 	c #3FE13F",
"3 	c #123212",
"4 	c #212121",
"5 	c #808080",
"6 	c #C7C7C7",
"7 	c #414141",
"8 	c #090909",
"9 	c #080808",
"0 	c #4B4B4B",
"a 	c #C8C8C8",
"b 	c #7B7B7B",
"c 	c #1B1B1B",
"d 	c #123A12",
"e 	c #383838",
"f 	c #484848",
"g 	c #A3A3A3",
"h 	c #9B9B9B",
"i 	c #454545",
"j 	c #353535",
"k 	c #464646",
"l 	c #FAFAFA",
"m 	c #F5F5F5",
"n 	c #3A3A3A",
"o 	c #585858",
"p 	c #818181",
"q 	c #7D7D7D",
"r 	c #565656",
"s 	c #060606",
"t 	c #A1A1A1",
"u 	c #333333",
"v 	c #3D3D3D",
"w 	c #CBCBCB",
"x 	c #9C9C9C",
"y 	c #3C3C3C",
"z 	c #204020",
"A 	c #B3B3B3",
"B 	c #F8F8F8",
"C 	c #676767",
"D 	c #6F6F6F",
"E 	c #FDFDFD",
"F 	c #ADADAD",
"G 	c #1E451E",
"H 	c #193A19",
"I 	c #666666",
"J 	c #646464",
"K 	c #030303",
"L 	c #6A6A6A",
"M 	c #184018",
"N 	c #40E240",
"O 	c #3FD93F",
"P 	c #3CD63C",
"Q 	c #40DC40",
"R 	c #42EB42",
"S 	c #070707",
"T 	c #43EB43",
"U 	c #40DA40",
"V 	c #2FA32F",
"W 	c #1F6C1F",
"X 	c #154115",
"Y 	c #0F2C0F",
"Z 	c #0C260C",
"` 	c #113011",
" .	c #154215",
"..	c #206620",
"+.	c #2B952B",
"@.	c #3BC93B",
"#.	c #848484",
"$.	c #B1B1B1",
"%.	c #B0B0B0",
"&.	c #343434",
"*.	c #42EA42",
"=.	c #39C739",
"-.	c #2A932A",
";.	c #1F641F",
">.	c #112F11",
",.	c #102C10",
"'.	c #164316",
").	c #226E22",
"!.	c #30A630",
"~.	c #3FE03F",
"{.	c #2F9E2F",
"].	c #174817",
"^.	c #040804",
"/.	c #010301",
"(.	c #0D220D",
"_.	c #216921",
":.	c #36B736",
"<.	c #616161",
"[.	c #9F9F9F",
"}.	c #6D6D6D",
"|.	c #5F5F5F",
"1.	c #35B335",
"2.	c #1F651F",
"3.	c #0B1F0B",
"4.	c #040A04",
"5.	c #184D18",
"6.	c #30A230",
"7.	c #47E847",
"8.	c #257725",
"9.	c #060F06",
"0.	c #0D210D",
"a.	c #277D27",
"b.	c #3FDC3F",
"c.	c #4A4A4A",
"d.	c #C6C6C6",
"e.	c #606060",
"f.	c #040404",
"g.	c #3ED83E",
"h.	c #247724",
"i.	c #0B1C0B",
"j.	c #071307",
"k.	c #247A24",
"l.	c #44EA44",
"m.	c #267226",
"n.	c #020202",
"o.	c #242424",
"p.	c #434343",
"q.	c #525252",
"r.	c #494949",
"s.	c #1C1C1C",
"t.	c #1B581B",
"u.	c #3BC53B",
"v.	c #173717",
"w.	c #888888",
"x.	c #939393",
"y.	c #949494",
"z.	c #143C14",
"A.	c #39BB39",
"B.	c #050505",
"C.	c #1E1E1E",
"D.	c #373737",
"E.	c #010101",
"F.	c #217521",
"G.	c #268126",
"H.	c #959595",
"I.	c #DDDDDD",
"J.	c #F4F4F4",
"K.	c #FBFBFB",
"L.	c #EFEFEF",
"M.	c #D7D7D7",
"N.	c #A0A0A0",
"O.	c #5A5A5A",
"P.	c #0F0F0F",
"Q.	c #174417",
"R.	c #36A936",
"S.	c #2A4A2A",
"T.	c #C5C5C5",
"U.	c #254D25",
"V.	c #2FA62F",
"W.	c #123C12",
"X.	c #5E5E5E",
"Y.	c #A4A4A4",
"Z.	c #D9D9D9",
"`.	c #F0F0F0",
" +	c #DADADA",
".+	c #909090",
"++	c #020302",
"@+	c #288728",
"#+	c #35B435",
"$+	c #5D5D5D",
"%+	c #D0D0D0",
"&+	c #F9F9F9",
"*+	c #AEAEAE",
"=+	c #4D4D4D",
"-+	c #232D23",
";+	c #CCCCCC",
">+	c #424242",
",+	c #1D2B1D",
"'+	c #0C2C0C",
")+	c #515151",
"!+	c #B4B4B4",
"~+	c #CACACA",
"{+	c #0E290E",
"]+	c #38BD38",
"^+	c #1E641E",
"/+	c #474747",
"(+	c #D8D8D8",
"_+	c #EDEDED",
":+	c #F7F7F7",
"<+	c #DFDFDF",
"[+	c #0D0D0D",
"}+	c #B5B5B5",
"|+	c #757575",
"1+	c #777777",
"2+	c #E7E7E7",
"3+	c #F6F6F6",
"4+	c #EEEEEE",
"5+	c #CECECE",
"6+	c #216E21",
"7+	c #3CC73C",
"8+	c #0D1F0D",
"9+	c #0B0B0B",
"0+	c #A9A9A9",
"a+	c #FEFEFE",
"b+	c #A8A8A8",
"c+	c #505050",
"d+	c #878787",
"e+	c #CFCFCF",
"f+	c #747474",
"g+	c #6C6C6C",
"h+	c #C1C1C1",
"i+	c #303030",
"j+	c #636363",
"k+	c #626262",
"l+	c #0D270D",
"m+	c #3BCE3B",
"n+	c #2D962D",
"o+	c #4C4C4C",
"p+	c #FCFCFC",
"q+	c #262626",
"r+	c #0E0E0E",
"s+	c #B7B7B7",
"t+	c #222222",
"u+	c #232323",
"v+	c #F2F2F2",
"w+	c #F1F1F1",
"x+	c #868686",
"y+	c #0C0C0C",
"z+	c #7F7F7F",
"A+	c #020502",
"B+	c #2FA12F",
"C+	c #898989",
"D+	c #727272",
"E+	c #2D2D2D",
"F+	c #787878",
"G+	c #C4C4C4",
"H+	c #E5E5E5",
"I+	c #8E8E8E",
"J+	c #257A25",
"K+	c #195319",
"L+	c #B2B2B2",
"M+	c #181818",
"N+	c #323232",
"O+	c #313131",
"P+	c #171717",
"Q+	c #979797",
"R+	c #737373",
"S+	c #2F2F2F",
"T+	c #1F5F1F",
"U+	c #A5A5A5",
"V+	c #E6E6E6",
"W+	c #3F3F3F",
"X+	c #929292",
"Y+	c #B6B6B6",
"Z+	c #1A521A",
"`+	c #41E841",
" @	c #195219",
".@	c #8F8F8F",
"+@	c #9A9A9A",
"@@	c #DEDEDE",
"#@	c #5C5C5C",
"$@	c #1E5E1E",
"%@	c #43EA43",
"&@	c #216A21",
"*@	c #E3E3E3",
"=@	c #2C8D2C",
"-@	c #EBEBEB",
";@	c #444444",
">@	c #393939",
",@	c #309930",
"'@	c #38BA38",
")@	c #061206",
"!@	c #3B3B3B",
"~@	c #2A2A2A",
"{@	c #0A0A0A",
"]@	c #292929",
"^@	c #071707",
"/@	c #37C237",
"(@	c #40E140",
"_@	c #164716",
":@	c #C2C2C2",
"<@	c #202020",
"[@	c #282828",
"}@	c #BFBFBF",
"|@	c #404040",
"1@	c #195019",
"2@	c #41E541",
"3@	c #2B8F2B",
"4@	c #1D1D1D",
"5@	c #D4D4D4",
"6@	c #545454",
"7@	c #535353",
"8@	c #161616",
"9@	c #030603",
"0@	c #2C972C",
"a@	c #3ED93E",
"b@	c #164416",
"c@	c #919191",
"d@	c #C0C0C0",
"e@	c #797979",
"f@	c #C9C9C9",
"g@	c #767676",
"h@	c #191919",
"i@	c #5B5B5B",
"j@	c #141414",
"k@	c #194E19",
"l@	c #2E9E2E",
"m@	c #061006",
"n@	c #7A7A7A",
"o@	c #C3C3C3",
"p@	c #BBBBBB",
"q@	c #E8E8E8",
"r@	c #091709",
"s@	c #32A632",
"t@	c #237323",
"u@	c #575757",
"v@	c #CDCDCD",
"w@	c #D6D6D6",
"x@	c #4F4F4F",
"y@	c #101010",
"z@	c #9E9E9E",
"A@	c #267B26",
"B@	c #1A571A",
"C@	c #AAAAAA",
"D@	c #DBDBDB",
"E@	c #E2E2E2",
"F@	c #AFAFAF",
"G@	c #4E4E4E",
"H@	c #1C5C1C",
"I@	c #43E043",
"J@	c #989898",
"K@	c #6E6E6E",
"L@	c #8C8C8C",
"M@	c #363636",
"N@	c #EAEAEA",
"O@	c #2E2E2E",
"P@	c #E9E9E9",
"Q@	c #E1E1E1",
"R@	c #B9B9B9",
"S@	c #1C4F1C",
"T@	c #3BCC3B",
"U@	c #32B232",
"V@	c #103B10",
"W@	c #A6A6A6",
"X@	c #F3F3F3",
"Y@	c #252525",
"Z@	c #E4E4E4",
"`@	c #DCDCDC",
" #	c #D2D2D2",
".#	c #133E13",
"+#	c #31B131",
"@#	c #113A11",
"##	c #D1D1D1",
"$#	c #151515",
"%#	c #32B132",
"&#	c #34B034",
"*#	c #133A13",
"=#	c #D3D3D3",
"-#	c #121212",
";#	c #33AF33",
">#	c #133513",
",#	c #272727",
"'#	c #6B6B6B",
")#	c #ECECEC",
"!#	c #33A133",
"~#	c #0E230E",
"{#	c #656565",
"]#	c #1F1F1F",
"^#	c #969696",
"/#	c #33AC33",
"(#	c #288828",
"_#	c #343634",
":#	c #2D312D",
"<#	c #2B8E2B",
"[#	c #174017",
"}#	c #717171",
"|#	c #BABABA",
"1#	c #194819",
"2#	c #41E441",
"3#	c #41E941",
"4#	c #1A4F1A",
"5#	c #111111",
"6#	c #1E591E",
"7#	c #32B032",
"8#	c #0C240C",
"9#	c #0C280C",
"0#	c #35B535",
"a#	c #3FDD3F",
"b#	c #164A16",
"c#	c #828282",
"d#	c #35BB35",
"e#	c #040E04",
"f#	c #ACACAC",
"g#	c #081508",
"h#	c #3AC43A",
"i#	c #35B935",
"j#	c #040C04",
"k#	c #686868",
"l#	c #555555",
"m#	c #696969",
"n#	c #081208",
"o#	c #3AC13A",
"p#	c #3ED63E",
"q#	c #123812",
"r#	c #3E3E3E",
"s#	c #8B8B8B",
"t#	c #BCBCBC",
"u#	c #3EDB3E",
"v#	c #1F311F",
"w#	c #A7A7A7",
"x#	c #2B2B2B",
"y#	c #1A2F1A",
"z#	c #2D9C2D",
"A#	c #278827",
"B#	c #161B16",
"C#	c #121812",
"D#	c #298D29",
"E#	c #39C039",
"F#	c #121D12",
"G#	c #2C2C2C",
"H#	c #0F1F0F",
"I#	c #3CCE3C",
"J#	c #0F210F",
"K#	c #0F270F",
"L#	c #3DD43D",
"M#	c #3DD83D",
"N#	c #0F2B0F",
"O#	c #103310",
"P#	c #3FDF3F",
"Q#	c #153C15",
"R#	c #707070",
"S#	c #154415",
"T#	c #41E641",
"U#	c #1E611E",
"V#	c #464B46",
"W#	c #3F463F",
"X#	c #1F691F",
"Y#	c #3CD13C",
"Z#	c #34AC34",
"`#	c #298529",
" $	c #206320",
".$	c #154315",
"+$	c #0A1C0A",
"@$	c #081308",
"#$	c #030B03",
"$$	c #010401",
"%$	c #091D09",
"&$	c #0F2E0F",
"*$	c #34AE34",
"=$	c #3DD53D",
"-$	c #3EDA3E",
";$	c #3CCD3C",
">$	c #34B234",
",$	c #31A431",
"'$	c #2D992D",
")$	c #2A8D2A",
"!$	c #288428",
"~$	c #267D26",
"{$	c #267726",
"]$	c #287328",
"^$	c #277127",
"/$	c #288528",
"($	c #2B8D2B",
"_$	c #2E992E",
":$	c #32A532",
"<$	c #35B235",
"[$	c #39C139",
"}$	c #3FDA3F",
". + + + + + + + + + + + + + + + + + + + + + + + + + + + + + + + + + + + + + + + + + + + + + + + + + + + + + + + + + + + + + + + + + + + + + + ",
"+ @ @ @ @ @ @ @ @ @ @ @ @ @ @ @ @ @ @ @ @ @ @ @ @ @ @ @ @ @ @ @ @ @ @ @ @ @ @ @ @ @ @ @ @ @ @ @ @ @ @ @ @ @ @ @ @ @ @ @ @ @ @ @ @ @ @ @ @ @ @ ",
"+ @ @ @ @ @ @ @ @ @ @ @ @ @ @ @ @ @ @ @ @ @ @ @ @ @ @ @ @ @ @ @ @ @ @ @ @ @ @ @ @ @ @ @ @ @ @ @ @ @ @ @ @ @ @ @ @ @ @ @ @ @ @ @ @ @ @ @ @ @ @ ",
"+ @ @ @ @ @ @ @ @ @ @ @ @ @ @ @ @ @ @ @ @ @ @ @ @ @ @ @ @ @ @ @ @ @ @ @ @ @ @ @ @ @ @ @ @ @ @ @ @ @ @ @ @ @ @ @ @ @ @ @ @ @ @ @ @ @ @ @ @ @ @ ",
"+ @ @ @ @ @ @ @ @ @ @ @ @ @ @ @ @ @ @ @ @ @ @ @ @ @ @ @ @ @ @ @ @ @ @ @ @ @ @ @ @ @ @ @ @ @ @ @ @ @ @ @ @ @ @ @ @ @ @ @ @ @ @ @ @ @ @ @ @ @ @ ",
"+ @ @ @ @ @ @ @ @ @ @ @ @ @ @ @ @ @ @ @ @ @ @ @ @ @ @ @ @ @ @ @ @ @ @ @ @ @ @ @ @ @ @ @ @ @ @ @ @ @ @ @ @ @ @ @ @ @ @ @ @ @ @ @ @ @ @ @ @ @ @ ",
"+ @ @ @ @ @ @ @ @ @ @ @ @ @ @ @ @ @ @ @ @ @ @ @ @ @ @ @ @ @ @ # # # # # # # # # # @ @ @ @ @ @ @ @ @ @ @ @ @ @ @ @ @ @ @ @ @ @ @ @ @ @ @ @ @ @ ",
"+ @ @ @ @ @ @ @ @ @ @ @ @ @ @ @ @ @ @ @ @ @ @ @ @ @ @ @ @ @ $ % & * * * * * * = - ; @ @ @ @ @ @ @ @ @ @ @ @ @ @ @ @ @ @ @ @ @ @ @ @ @ @ @ @ @ ",
"+ @ @ @ @ @ @ @ @ @ @ @ @ @ @ @ @ @ @ @ @ @ @ @ @ @ @ @ @ > , ' ) ! ~ ~ ~ ~ { ] ^ / ( @ @ @ @ @ @ @ @ @ @ @ @ @ @ @ @ @ @ @ @ @ @ @ @ @ @ @ @ ",
"+ @ @ @ @ @ @ @ @ @ @ @ @ @ @ @ @ @ @ @ @ @ @ @ @ @ @ @ @ _ : < [ } ~ ~ ~ ~ ' [ | 1 2 @ @ @ @ @ @ @ @ @ @ @ @ @ @ @ @ @ @ @ @ @ @ @ @ @ @ @ @ ",
"+ @ @ @ @ @ @ @ @ @ @ @ @ @ @ @ @ @ @ @ @ @ @ @ @ @ @ @ @ _ 3 4 5 6 7 8 9 0 a b c d 2 @ @ @ @ @ @ @ @ @ @ @ @ @ @ @ @ @ @ @ @ @ @ @ @ @ @ @ @ ",
"+ @ @ @ @ @ @ @ @ @ @ @ @ @ @ @ @ @ @ @ @ @ @ @ @ @ @ @ @ _ 3 ~ ~ e f g h i j ~ ~ d 2 @ @ @ @ @ @ @ @ @ @ @ @ @ @ @ @ @ @ @ @ @ @ @ @ @ @ @ @ ",
"+ @ @ @ @ @ @ @ @ @ @ @ @ @ @ @ @ @ @ @ @ @ @ @ @ @ @ @ @ _ 3 ~ ~ ~ k l m n ~ ~ ~ d 2 @ @ @ @ @ @ @ @ @ @ @ @ @ @ @ @ @ @ @ @ @ @ @ @ @ @ @ @ ",
"+ @ @ @ @ @ @ @ @ @ @ @ @ @ @ @ @ @ @ @ @ @ @ @ @ @ @ @ @ _ 3 ~ 8 o i p q i r s ~ d 2 @ @ @ @ @ @ @ @ @ @ @ @ @ @ @ @ @ @ @ @ @ @ @ @ @ @ @ @ ",
"+ @ @ @ @ @ @ @ @ @ @ @ @ @ @ @ @ @ @ @ @ @ @ @ @ @ @ @ @ _ 3 7 t 6 u ~ ~ v w x y d 2 @ @ @ @ @ @ @ @ @ @ @ @ @ @ @ @ @ @ @ @ @ @ @ @ @ @ @ @ ",
"+ @ @ @ @ @ @ @ @ @ @ @ @ @ @ @ @ @ @ @ @ @ @ @ @ @ @ @ @ _ z A B C ~ ~ ~ ~ D E F G 2 @ @ @ @ @ @ @ @ @ @ @ @ @ @ @ @ @ @ @ @ @ @ @ @ @ @ @ @ ",
"+ @ @ @ @ @ @ @ @ @ @ @ @ @ @ @ @ @ @ @ @ @ @ @ @ @ @ @ @ _ H I J K ~ ~ ~ ~ 9 L J M 2 @ @ @ @ @ @ @ @ @ @ @ @ @ @ @ @ @ @ @ @ @ @ @ @ @ @ @ @ ",
"+ @ @ @ @ @ @ @ @ @ @ @ @ @ @ @ N O P Q ( R @ @ @ @ @ @ @ _ 3 ~ ~ ~ ~ 9 S ~ ~ ~ ~ d 2 @ @ @ @ @ @ @ T ( Q P U ( @ @ @ @ @ @ @ @ @ @ @ @ @ @ @ ",
"+ @ @ @ @ @ @ @ @ @ @ @ @ _ V W X Y Z `  ...+.@.R @ @ @ @ _ 3 ~ ~ n #.$.%.5 &.~ ~ d 2 @ @ @ @ *.=.-.;.X >.Z ,.'.).!.~.@ @ @ @ @ @ @ @ @ @ @ @ ",
"+ @ @ @ @ @ @ @ @ @ @ @ {.].^.~ ~ ~ ~ ~ ~ ~ /.(._.:.@ @ @ _ 3 ~ <.a [.}.D g a |.~ d 2 @ @ @ 1.2.3./.~ ~ ~ ~ ~ ~ ~ 4.5.6.@ @ @ @ @ @ @ @ @ @ @ ",
"+ @ @ @ @ @ @ @ @ @ 7.8.9.~ ~ ~ ~ ~ ~ ~ ~ ~ ~ ~ ~ 0.a.b.@ _ 3 c.d.e.K ~ ~ f.J 6 7 d 2 @ g.h.i.~ ~ ~ ~ ~ ~ ~ ~ ~ ~ ~ ~ j.k.R @ @ @ @ @ @ @ @ @ ",
"+ @ @ @ @ @ @ @ @ l.m.~ ~ ~ ~ ~ n.o.p.q.r.j s.f.~ ~ ~ t.u._ v.| w.~ ~ ~ ~ ~ ~ x.y.z.2 A.& ~ ~ ~ B.C.D.c.q.7 4 E.~ ~ ~ ~ ~ F.@ @ @ @ @ @ @ @ @ ",
"+ @ @ @ @ @ @ @ @ G.~ ~ ~ ~ ~ e H.I.J.K.B L.M.N.O.P.~ ~ Q.R.S.a k ~ ~ ~ ~ ~ ~ q.T.U.V.W.~ ~ ! X.Y.Z.`.B K.J. +.+&.~ ~ ~ ~ ++@+@ @ @ @ @ @ @ @ ",
"+ @ @ @ @ @ @ @ #+(.~ ~ ~ ~ $+%+[ [ [ [ [ [ [ [ &+*+=+~ ~ >.-+;+n ~ ~ ~ ~ ~ ~ >+a ,+'+~ ~ )+!+l [ [ [ [ [ [ [ [ ~+r ~ ~ ~ ~ {+]+@ @ @ @ @ @ @ ",
"+ @ @ @ @ @ @ *.^+~ ~ ~ ~ /+(+[ [ [ [ l _+_+:+[ [ [ <+}.~ ~ [+}+L ~ ~ ~ ~ ~ ~ |+F 9 ~ ~ 1+2+[ [ [ 3+_+4+l [ [ [ [ 5+y ~ ~ ~ ~ 6+@ @ @ @ @ @ @ ",
"+ @ @ @ @ @ @ 7+8+~ ~ ~ 9+0+[ [ [ a+b+|.&.&.c+d+e+[ [ :+f+~ ~ g+h+i+~ ~ ~ ~ y d.j+~ ~ q a+[ [ ~+^ =+u j k+F a+[ [ [ t S ~ ~ ~ l+m+@ @ @ @ @ @ ",
"+ @ @ @ @ @ @ n+/.~ ~ ~ o+m [ [ p+q 8 ~ ~ ~ ~ ~ q+) &+[ 2+O.~ r+x s+O.t+u+X.h+.+s ~ j+v+[ w+x+4 ~ ~ ~ ~ ~ y+z+a+[ [ L.7 ~ ~ ~ A+B+@ @ @ @ @ @ ",
"+ @ @ @ @ @ R ).~ ~ ~ ~ d+[ [ [ C+~ ~ ~ ~ ~ ~ ~ ~ ~ D+J.[ 6 E+~ ! F+G+e+e+h+D+9+~ j %+[ H+J ~ ~ ~ ~ ~ ~ ~ ~ ~ I+[ [ [ b ~ ~ ~ ~ J+@ @ @ @ @ @ ",
"+ @ @ @ @ @ # K+~ ~ ~ s L+[ [ 5+o.~ ~ ~ ~ ~ ~ ~ ~ ~ ~ q a+[ ] ~ ~ ~ M+N+O+P+~ ~ f.Q+[ E R+~ ~ ~ ~ ~ ~ ~ ~ ~ ~ S+(+[ [ Y.K ~ ~ ~ T+T @ @ @ @ @ ",
"+ @ @ @ @ @ # * ~ ~ ~ 9+h+[ [ w.~ ~ ~ ~ ~ ~ ~ ~ ~ ~ ~ y+U+[ V+W+~ ~ ~ ~ ~ ~ ~ ~ f 4+[ h S ~ ~ ~ ~ ~ ~ ~ ~ ~ ~ ~ X+[ [ Y+9 ~ ~ ~ Z+`+@ @ @ @ @ ",
"+ @ @ @ @ @ #  @~ ~ ~ 9+h+[ B c+~ ~ ~ ~ ~ ~ ~ ~ ~ ~ ~ ~ p.V+[ .@~ ~ ~ ~ ~ ~ ~ K +@[ @@n ~ ~ ~ ~ ~ ~ ~ ~ ~ ~ ~ ~ #@K.[ !+S ~ ~ ~ $@%@@ @ @ @ @ ",
"+ @ @ @ @ @ R &@~ ~ ~ S Y+[ _+u ~ ~ ~ ~ ~ ~ ~ ~ ~ ~ ~ ~ E.y.[  +q+~ ~ ~ ~ ~ ~ S+*@[ C+~ ~ ~ ~ ~ ~ ~ ~ ~ ~ ~ ~ ~ v v+[ b+K ~ ~ ~ 8.@ @ @ @ @ @ ",
"+ @ @ @ @ @ @ =@E.~ ~ n.x [ -@S+~ ~ ~ ~ ~ ~ ~ ~ ~ ~ ~ ~ ~ ;@_+E C ~ ~ ~ ~ ~ ~ D+a+2+n ~ ~ ~ ~ ~ ~ ~ ~ ~ ~ ~ ~ ~ >@w+[ .+~ ~ ~ ++,@@ @ @ @ @ @ ",
"+ @ @ @ @ @ @ '@)@~ ~ ~ F+[ w+!@~ ~ ~ ~ ~ ~ ~ ~@~ ~ ~ ~ ~ {@A [ Y.B.~ ~ ~ ~ 9 $.[ 0+s ~ ~ ~ ~ ~ ]@~ ~ ~ ~ ~ ~ ~ i m a+}.~ ~ ~ ^@/@@ @ @ @ @ @ ",
"+ @ @ @ @ @ @ (@_@~ ~ ~ 0 3+K.O.~ ~ ~ ~ ~ ~ O+:@|.~ ~ ~ ~ ~ R+a+ +<@~ ~ ~ ~ [@*@p+C ~ ~ ~ ~ ~ k+}@]@~ ~ ~ ~ ~ ~ C p+v+|@~ ~ ~ 1@2@@ @ @ @ @ @ ",
"+ @ @ @ @ @ @ @ 3@K ~ ~ 4@5@[ C+~ ~ ~ ~ ~ ~ X.p+5@e ~ ~ ~ K >@_+3+f ~ ~ ~ ~ 6@&+V+E+n.~ ~ ~ 7 Z.l 7@~ ~ ~ ~ ~ ~ y.[ w 8@~ ~ 9@0@@ @ @ @ @ @ @ ",
"+ @ @ @ @ @ @ @ a@b@~ ~ E.c@[ d@P.~ ~ ~ ~ ~ e@[ [ C+~ ~ |.}.4@f@[ g@~ ~ ~ ~ ^ [ d@h@}.i@~ n.y.[ a+g+~ ~ ~ ~ ~ j@~+[ x+~ ~ ~ k@~.@ @ @ @ @ @ @ ",
"+ @ @ @ @ @ @ @ @ l@m@~ ~ k L.`./+~ ~ ~ ~ ~ n@[ [ o@r+z+l %.9 [.[ t K ~ ~ B.F [ x.y+p@:+q j@5+[ [ }.~ ~ ~ ~ ~ )+3+q@!@~ ~ r@s@@ @ @ @ @ @ @ @ ",
"+ @ @ @ @ @ @ @ @ @ t@~ ~ S < [ y.K >+D+k [+O.K.[ w u@L.[ w.~ g@a+G+r+~ ~ ! v@a+L E.x.[ q@7@w@[ &+x@y@f f+!@f.z@[ +@K ~ ~ A@@ @ @ @ @ @ @ @ @ ",
"+ @ @ @ @ @ @ @ @ @ g.B@~ ~ o+L.H+7 o B J.C@#@T.[ !+p [ m =+~ )+&+D@4@~ ~ u+E@m i ~ u@&+a+F+h+[ p@o F@m m G@0 _+2+p.~ ~ H@I@@ @ @ @ @ @ @ @ @ ",
"+ @ @ @ @ @ @ @ @ @ @ u. .~ f.J@[ t P+b+[ [ !+D a K@k+H+L@s ~ M@L.N@O@~ ~ e w+P@E+~ 9+H.Q@u@f+o@}.R@[ [ | h@C@[ I+~ ~ S@T@@ @ @ @ @ @ @ @ @ @ ",
"+ @ @ @ @ @ @ @ @ @ @ @ U@V@~ !@D@p+}.&.W@X@Q@~@h@f.~ q+s ~ ~ Y@Z@X@7 ~ ~ 0 &+`@4@~ ~ {@Y@~ f.M+u P@w+z@q+f+a+ #O+~ .#A.@ @ @ @ @ @ @ @ @ @ @ ",
"+ @ @ @ @ @ @ @ @ @ @ @ @ +#@#~ } a+##u [+W+p.~ O.h C ~ ~ ~ ~ { (+l )+~ ~ $+p+ #$#~ ~ ~ ~ }.+@6@~ p.y 9+v  +a+R+~ V@%#@ @ @ @ @ @ @ @ @ @ @ @ ",
"+ @ @ @ @ @ @ @ @ @ @ @ @ @ &#*#s.R@[ .@E.~ ~ 4@Y+*@R+~ ~ ~ ~ $#=#p+|.~ ~ }.a+d.[+~ ~ ~ ~ b H+0+P+~ ~ f.+@[ %.-#V@+#@ @ @ @ @ @ @ @ @ @ @ @ @ ",
"+ @ @ @ @ @ @ @ @ @ @ @ @ @ @ ;#>#u@w+H+y ~ ~ ~ ,#[@E.f.9+y@$#]@v@a+'#~ ~ F+[ o@u+$#y@9+f.n.]@o.~ ~ ~ i )#-@x@@#+#@ @ @ @ @ @ @ @ @ @ @ @ @ @ ",
"+ @ @ @ @ @ @ @ @ @ @ @ @ @ @ @ !#~#X+[ L@4@N+0 I p h $.d@~+ #w@p+[ R+~ ~ p [ l w@ #f@}@%.+@5 {#r.O+]#^#[ C+{+/#@ @ @ @ @ @ @ @ @ @ @ @ @ @ @ ",
"+ @ @ @ @ @ @ @ @ @ @ @ @ @ @ @ @ (#_#D@:+D@)#B E [ [ [ [ a+E K.l &+|+~ ~ ^ &+l K.E a+[ [ [ [ E :+)# +l  #:#<#@ @ @ @ @ @ @ @ @ @ @ @ @ @ @ @ ",
"+ @ @ @ @ @ @ @ @ @ @ @ @ @ @ @ @ > [#F@p+J.P@D@w R@U+X+5 }#j+r q.x@o.~ ~ ~@c+q.u@J }#p y.W@|#;+`@N@m p+Y.1#2#@ @ @ @ @ @ @ @ @ @ @ @ @ @ @ @ ",
"+ @ @ @ @ @ @ @ @ @ @ @ @ @ @ @ @ 3#4#o+<.p.E+s.y@8 K ~ ~ ~ ~ ~ ~ ~ ~ ~ ~ ~ ~ ~ ~ ~ ~ ~ ~ f.{@5#4@O@i j+;@6#T @ @ @ @ @ @ @ @ @ @ @ @ @ @ @ @ ",
"+ @ @ @ @ @ @ @ @ @ @ @ @ @ @ @ @ 7#8#~ ~ ~ ~ ~ ~ ~ ~ ~ ~ ~ ~ ~ ~ ~ ~ E.E.~ ~ ~ ~ ~ ~ ~ ~ ~ ~ ~ ~ ~ ~ ~ ~ 9#0#@ @ @ @ @ @ @ @ @ @ @ @ @ @ @ @ ",
"+ @ @ @ @ @ @ @ @ @ @ @ @ @ @ @ a#b#~ ~ ~ ~ ~ B.! q+y c+j+f+^ I+.+X+y.^#^#y.X+.+] c#R+k+x@n o.-#B.~ ~ ~ ~ ~ = N @ @ @ @ @ @ @ @ @ @ @ @ @ @ @ ",
"+ @ @ @ @ @ @ @ @ @ @ @ @ @ @ @ d#e#~ ~ u+r #.*+5+Z@v+&+E [ [ a+p+K.l l l l K.p+a+[ [ E &+w+*@;+f#c#q.<@~ ~ g#h#@ @ @ @ @ @ @ @ @ @ @ @ @ @ @ ",
"+ @ @ @ @ @ @ @ @ @ @ @ @ @ @ @ i#j#K b M.l [ &+N@M.d@C@^#^ R+k#X.l#7@q.q.7@l#X.m#f+#.Q+f#:@(+-@l [ &+=#|+~ n#o#@ @ @ @ @ @ @ @ @ @ @ @ @ @ @ ",
"+ @ @ @ @ @ @ @ @ @ @ @ @ @ @ @ p#q#r#B P@R@^ 6@S+h@9+f.~ ~ ~ y@n X.b L@s#n@#@D.r+~ ~ ~ f.y+{ O+u@x+t#-@X@M@ .u#@ @ @ @ @ @ @ @ @ @ @ @ @ @ @ ",
"+ @ @ @ @ @ @ @ @ @ @ @ @ @ @ @ @ 0@v#$+c+]@! ~ ~ ~ ~ ~ ~ ~ C.*+L.p+[ [ [ [ p+4+w#c ~ ~ ~ ~ ~ ~ ~ $#x#6@|.y#z#@ @ @ @ @ @ @ @ @ @ @ @ @ @ @ @ ",
"+ @ @ @ @ @ @ @ @ @ @ @ @ @ @ @ @ @ A#B#0+I.:@n ~ ~ ~ ~ ~ ~ E.m#f#5@V+_+_+H+ #b+{#~ ~ ~ ~ ~ ~ ~ 7 d.I.N.C#D#@ @ @ @ @ @ @ @ @ @ @ @ @ @ @ @ @ ",
"+ @ @ @ @ @ @ @ @ @ @ @ @ @ @ @ @ @ E#F#}@[ 6 i+~ ~ ~ ~ ~ ~ ~ n.9+s.G#D.M@x#c {@n.~ ~ ~ ~ ~ ~ ~ n %+[ }+H#=.@ @ @ @ @ @ @ @ @ @ @ @ @ @ @ @ @ ",
"+ @ @ @ @ @ @ @ @ @ @ @ @ @ @ @ @ @ I#J##.) j K y@o.y r K@^ x.N.C@f#F *+*+F f#C@N.X+c#g+6@!@t+P.K !@I+q K#L#@ @ @ @ @ @ @ @ @ @ @ @ @ @ @ @ @ ",
"+ @ @ @ @ @ @ @ @ @ @ @ @ @ @ @ @ @ M#N#,#k |+< a E@v+&+B v+-@2+Z@I. +Z.Z. +I.Z@2+)#v+B &+v+Q@6 [.D+p.]#O#P#@ @ @ @ @ @ @ @ @ @ @ @ @ @ @ @ @ ",
"+ @ @ @ @ @ @ @ @ @ @ @ @ @ @ @ @ @ 2 Q#R#J.3+E@d.U+c#{#=+y S+,#o.C.c h@{ c C.Y@,#i+v G@I #.w#a *@:+X@J S#T#@ @ @ @ @ @ @ @ @ @ @ @ @ @ @ @ @ ",
"+ @ @ @ @ @ @ @ @ @ @ @ @ @ @ @ @ @ `+U#V#1+r.Y@P.K ~ ~ ~ ~ ~ ~ ~ ~ ~ ~ ~ ~ ~ ~ ~ ~ ~ ~ ~ ~ K P.,#o+F+W#X#*.@ @ @ @ @ @ @ @ @ @ @ @ @ @ @ @ @ ",
"+ @ @ @ @ @ @ @ @ @ @ @ @ @ @ @ @ @ @ Y#Z#`# $.$Y +$@$#$$$++E.~ ~ ~ ~ ~ ~ ~ ~ ~ ~ E.++A+#$@$%$&$S#2.(#*$=$@ @ @ @ @ @ @ @ @ @ @ @ @ @ @ @ @ @ ",
"+ @ @ @ @ @ @ @ @ @ @ @ @ @ @ @ @ @ @ @ @ @ T 2#-$;$E#>$,$'$)$!$~${$]$^$^$]${$~$/$($_$:$<$[$m+}$2#R @ @ @ @ @ @ @ @ @ @ @ @ @ @ @ @ @ @ @ @ @ ",
"+ @ @ @ @ @ @ @ @ @ @ @ @ @ @ @ @ @ @ @ @ @ @ @ @ @ @ @ @ @ @ @ @ @ @ @ @ @ @ @ @ @ @ @ @ @ @ @ @ @ @ @ @ @ @ @ @ @ @ @ @ @ @ @ @ @ @ @ @ @ @ ",
"+ @ @ @ @ @ @ @ @ @ @ @ @ @ @ @ @ @ @ @ @ @ @ @ @ @ @ @ @ @ @ @ @ @ @ @ @ @ @ @ @ @ @ @ @ @ @ @ @ @ @ @ @ @ @ @ @ @ @ @ @ @ @ @ @ @ @ @ @ @ @ ",
"+ @ @ @ @ @ @ @ @ @ @ @ @ @ @ @ @ @ @ @ @ @ @ @ @ @ @ @ @ @ @ @ @ @ @ @ @ @ @ @ @ @ @ @ @ @ @ @ @ @ @ @ @ @ @ @ @ @ @ @ @ @ @ @ @ @ @ @ @ @ @ ",
"+ @ @ @ @ @ @ @ @ @ @ @ @ @ @ @ @ @ @ @ @ @ @ @ @ @ @ @ @ @ @ @ @ @ @ @ @ @ @ @ @ @ @ @ @ @ @ @ @ @ @ @ @ @ @ @ @ @ @ @ @ @ @ @ @ @ @ @ @ @ @ ",
"+ @ @ @ @ @ @ @ @ @ @ @ @ @ @ @ @ @ @ @ @ @ @ @ @ @ @ @ @ @ @ @ @ @ @ @ @ @ @ @ @ @ @ @ @ @ @ @ @ @ @ @ @ @ @ @ @ @ @ @ @ @ @ @ @ @ @ @ @ @ @ ",
"+ @ @ @ @ @ @ @ @ @ @ @ @ @ @ @ @ @ @ @ @ @ @ @ @ @ @ @ @ @ @ @ @ @ @ @ @ @ @ @ @ @ @ @ @ @ @ @ @ @ @ @ @ @ @ @ @ @ @ @ @ @ @ @ @ @ @ @ @ @ @ ",
"+ @ @ @ @ @ @ @ @ @ @ @ @ @ @ @ @ @ @ @ @ @ @ @ @ @ @ @ @ @ @ @ @ @ @ @ @ @ @ @ @ @ @ @ @ @ @ @ @ @ @ @ @ @ @ @ @ @ @ @ @ @ @ @ @ @ @ @ @ @ @ ",
"+ @ @ @ @ @ @ @ @ @ @ @ @ @ @ @ @ @ @ @ @ @ @ @ @ @ @ @ @ @ @ @ @ @ @ @ @ @ @ @ @ @ @ @ @ @ @ @ @ @ @ @ @ @ @ @ @ @ @ @ @ @ @ @ @ @ @ @ @ @ @ "};
