/* XPM */
static char * ywbn_xpm[] = {
"71 71 493 2",
"  	c None",
". 	c #C4F9C4",
"+ 	c #94F494",
"@ 	c #42EC42",
"# 	c #42EB42",
"$ 	c #41DE41",
"% 	c #2E9C2E",
"& 	c #38C238",
"* 	c #298629",
"= 	c #237423",
"- 	c #3ED73E",
"; 	c #2C932C",
"> 	c #000100",
", 	c #133A13",
"' 	c #35AF35",
") 	c #38BF38",
"! 	c #0A1C0A",
"~ 	c #000000",
"{ 	c #247724",
"] 	c #257B25",
"^ 	c #123C12",
"/ 	c #37BE37",
"( 	c #2B862B",
"_ 	c #0E260E",
": 	c #3BC93B",
"< 	c #278027",
"[ 	c #1D5B1D",
"} 	c #41E241",
"| 	c #41E841",
"1 	c #1B541B",
"2 	c #268026",
"3 	c #2B902B",
"4 	c #010101",
"5 	c #278627",
"6 	c #40D940",
"7 	c #102C10",
"8 	c #0F2D0F",
"9 	c #38BA38",
"0 	c #31A631",
"a 	c #030503",
"b 	c #0F2C0F",
"c 	c #2B952B",
"d 	c #071707",
"e 	c #1B4F1B",
"f 	c #3ABF3A",
"g 	c #38BD38",
"h 	c #081008",
"i 	c #0F0F0F",
"j 	c #585858",
"k 	c #646464",
"l 	c #4B534B",
"m 	c #414941",
"n 	c #050505",
"o 	c #143E14",
"p 	c #30A030",
"q 	c #40D240",
"r 	c #3CCC3C",
"s 	c #37BC37",
"t 	c #34B634",
"u 	c #3BD03B",
"v 	c #41E641",
"w 	c #3BCD3B",
"x 	c #091C09",
"y 	c #3F3F3F",
"z 	c #AAAAAA",
"A 	c #FBFBFB",
"B 	c #FCFCFC",
"C 	c #E9E9E9",
"D 	c #B4B4B4",
"E 	c #151515",
"F 	c #060D06",
"G 	c #0E210E",
"H 	c #0A1B0A",
"I 	c #060F06",
"J 	c #030B03",
"K 	c #061106",
"L 	c #0B200B",
"M 	c #226F22",
"N 	c #40E540",
"O 	c #32AC32",
"P 	c #515D51",
"Q 	c #BABABA",
"R 	c #D8D8D8",
"S 	c #FFFFFF",
"T 	c #8D8D8D",
"U 	c #929292",
"V 	c #7E7E7E",
"W 	c #080808",
"X 	c #565656",
"Y 	c #484848",
"Z 	c #252525",
"` 	c #090909",
" .	c #113611",
"..	c #3BC83B",
"+.	c #40DF40",
"@.	c #42E742",
"#.	c #43E843",
"$.	c #2B692B",
"%.	c #A9A9A9",
"&.	c #6D6D6D",
"*.	c #616161",
"=.	c #C1C1C1",
"-.	c #1D1D1D",
";.	c #6F6F6F",
">.	c #4C4C4C",
",.	c #343434",
"'.	c #E3E3E3",
").	c #F6F6F6",
"!.	c #E1E1E1",
"~.	c #B6B6B6",
"{.	c #7C7C7C",
"].	c #3C3C3C",
"^.	c #0B210B",
"/.	c #113511",
"(.	c #1B531B",
"_.	c #267826",
":.	c #32A232",
"<.	c #3CCD3C",
"[.	c #37B537",
"}.	c #0A160A",
"|.	c #3E3E3E",
"1.	c #212121",
"2.	c #454545",
"3.	c #464646",
"4.	c #727272",
"5.	c #A4A4A4",
"6.	c #D9D9D9",
"7.	c #F9F9F9",
"8.	c #ECECEC",
"9.	c #ACACAC",
"0.	c #5E5E5E",
"a.	c #101010",
"b.	c #030603",
"c.	c #173517",
"d.	c #38BB38",
"e.	c #247324",
"f.	c #040404",
"g.	c #202020",
"h.	c #5D5D5D",
"i.	c #A5A5A5",
"j.	c #EBEBEB",
"k.	c #B3B3B3",
"l.	c #575757",
"m.	c #020202",
"n.	c #2F942F",
"o.	c #3FDA3F",
"p.	c #123412",
"q.	c #060606",
"r.	c #434343",
"s.	c #9A9A9A",
"t.	c #F1F1F1",
"u.	c #F3F3F3",
"v.	c #919191",
"w.	c #2A2A2A",
"x.	c #113211",
"y.	c #206620",
"z.	c #32A032",
"A.	c #3ED53E",
"B.	c #37B137",
"C.	c #070D07",
"D.	c #030303",
"E.	c #535353",
"F.	c #B5B5B5",
"G.	c #BBBBBB",
"H.	c #4D4D4D",
"I.	c #040704",
"J.	c #102F10",
"K.	c #257625",
"L.	c #3AC23A",
"M.	c #277F27",
"N.	c #161616",
"O.	c #8B8B8B",
"P.	c #FDFDFD",
"Q.	c #DBDBDB",
"R.	c #5F5F5F",
"S.	c #0F2B0F",
"T.	c #33B033",
"U.	c #42E842",
"V.	c #195119",
"W.	c #0B0B0B",
"X.	c #171717",
"Y.	c #626262",
"Z.	c #555555",
"`.	c #E5E5E5",
" +	c #DFDFDF",
".+	c #606060",
"++	c #1C561C",
"@+	c #278127",
"#+	c #3ED03E",
"$+	c #3FD83F",
"%+	c #0E2B0E",
"&+	c #868686",
"*+	c #D1D1D1",
"=+	c #878787",
"-+	c #959595",
";+	c #E0E0E0",
">+	c #030703",
",+	c #1D611D",
"'+	c #37BF37",
")+	c #309F30",
"!+	c #050D05",
"~+	c #757575",
"{+	c #D3D3D3",
"]+	c #A8A8A8",
"^+	c #848484",
"/+	c #898989",
"(+	c #111111",
"_+	c #262626",
":+	c #0C0C0C",
"<+	c #656565",
"[+	c #D5D5D5",
"}+	c #2D9B2D",
"|+	c #3ECC3E",
"1+	c #164116",
"2+	c #707070",
"3+	c #7B7B7B",
"4+	c #505050",
"5+	c #9E9E9E",
"6+	c #D6D6D6",
"7+	c #181818",
"8+	c #7D7D7D",
"9+	c #FEFEFE",
"0+	c #B7B7B7",
"a+	c #0A1A0A",
"b+	c #2B852B",
"c+	c #236F23",
"d+	c #D4D4D4",
"e+	c #696969",
"f+	c #777777",
"g+	c #BCBCBC",
"h+	c #222222",
"i+	c #0A0A0A",
"j+	c #9B9B9B",
"k+	c #8E8E8E",
"l+	c #030403",
"m+	c #217621",
"n+	c #33A933",
"o+	c #091609",
"p+	c #121212",
"q+	c #D2D2D2",
"r+	c #CFCFCF",
"s+	c #242424",
"t+	c #313131",
"u+	c #303030",
"v+	c #CACACA",
"w+	c #F2F2F2",
"x+	c #595959",
"y+	c #298229",
"z+	c #41E341",
"A+	c #1A541A",
"B+	c #C8C8C8",
"C+	c #6E6E6E",
"D+	c #5B5B5B",
"E+	c #CECECE",
"F+	c #666666",
"G+	c #1A1A1A",
"H+	c #0D1E0D",
"I+	c #36BE36",
"J+	c #2E9A2E",
"K+	c #040804",
"L+	c #141414",
"M+	c #9C9C9C",
"N+	c #1B1B1B",
"O+	c #747474",
"P+	c #0B180B",
"Q+	c #205F20",
"R+	c #40DB40",
"S+	c #41E041",
"T+	c #184A18",
"U+	c #070707",
"V+	c #B0B0B0",
"W+	c #949494",
"X+	c #131313",
"Y+	c #4B4B4B",
"Z+	c #EEEEEE",
"`+	c #CBCBCB",
" @	c #2F392F",
".@	c #2C842C",
"+@	c #2C942C",
"@@	c #5C5C5C",
"#@	c #424242",
"$@	c #D0D0D0",
"%@	c #227722",
"&@	c #3ED43E",
"*@	c #153F15",
"=@	c #888888",
"-@	c #C5C5C5",
";@	c #247924",
">@	c #247B24",
",@	c #858585",
"'@	c #1F1F1F",
")@	c #EFEFEF",
"!@	c #B2B2B2",
"~@	c #FAFAFA",
"{@	c #090D09",
"]@	c #2C8F2C",
"^@	c #32A932",
"/@	c #0B1D0B",
"(@	c #818181",
"_@	c #0D0D0D",
":@	c #A7A7A7",
"<@	c #30A330",
"[@	c #3ED23E",
"}@	c #164916",
"|@	c #ABABAB",
"1@	c #A2A2A2",
"2@	c #9F9F9F",
"3@	c #BFBFBF",
"4@	c #373737",
"5@	c #154315",
"6@	c #3DD43D",
"7@	c #206C20",
"8@	c #353535",
"9@	c #9D9D9D",
"0@	c #717171",
"a@	c #0F270F",
"b@	c #174517",
"c@	c #31A831",
"d@	c #2B8A2B",
"e@	c #050605",
"f@	c #272727",
"g@	c #939393",
"h@	c #B8B8B8",
"i@	c #AEAEAE",
"j@	c #193E19",
"k@	c #30AA30",
"l@	c #3DD73D",
"m@	c #40E440",
"n@	c #35B135",
"o@	c #0E250E",
"p@	c #0E2A0E",
"q@	c #246D24",
"r@	c #E2E2E2",
"s@	c #282828",
"t@	c #103B10",
"u@	c #32B132",
"v@	c #1C5D1C",
"w@	c #0B1C0B",
"x@	c #1F601F",
"y@	c #2A8F2A",
"z@	c #3BCB3B",
"A@	c #3ED63E",
"B@	c #0E290E",
"C@	c #154215",
"D@	c #3BC63B",
"E@	c #3CC53C",
"F@	c #3D3D3D",
"G@	c #081D08",
"H@	c #2F9D2F",
"I@	c #40E240",
"J@	c #43EA43",
"K@	c #37B637",
"L@	c #050E05",
"M@	c #808080",
"N@	c #1A581A",
"O@	c #3FDB3F",
"P@	c #309D30",
"Q@	c #383838",
"R@	c #0C220C",
"S@	c #299329",
"T@	c #2A812A",
"U@	c #4F4F4F",
"V@	c #F7F7F7",
"W@	c #C3C3C3",
"X@	c #267926",
"Y@	c #287F28",
"Z@	c #2F2F2F",
"`@	c #174617",
" #	c #31A731",
".#	c #292929",
"+#	c #040B04",
"@#	c #34B334",
"##	c #216E21",
"$#	c #EAEAEA",
"%#	c #525252",
"&#	c #216B21",
"*#	c #3FCF3F",
"=#	c #33A733",
"-#	c #F8F8F8",
";#	c #133D13",
">#	c #184218",
",#	c #2C952C",
"'#	c #1F6A1F",
")#	c #333333",
"!#	c #393939",
"~#	c #43EB43",
"{#	c #41E441",
"]#	c #1C571C",
"^#	c #A1A1A1",
"/#	c #787878",
"(#	c #050805",
"_#	c #2B8F2B",
":#	c #277B27",
"<#	c #5A5A5A",
"[#	c #1D601D",
"}#	c #2E902E",
"|#	c #050705",
"1#	c #A0A0A0",
"2#	c #0E2F0E",
"3#	c #3B3B3B",
"4#	c #0D1F0D",
"5#	c #38B638",
"6#	c #113011",
"7#	c #C2C2C2",
"8#	c #1F661F",
"9#	c #42EA42",
"0#	c #143F14",
"a#	c #515151",
"b#	c #226522",
"c#	c #3BCE3B",
"d#	c #1A4F1A",
"e#	c #1C1C1C",
"f#	c #081408",
"g#	c #35AD35",
"h#	c #2D9D2D",
"i#	c #081E08",
"j#	c #050C05",
"k#	c #44E344",
"l#	c #1F611F",
"m#	c #E4E4E4",
"n#	c #206420",
"o#	c #2D9E2D",
"p#	c #40E340",
"q#	c #227522",
"r#	c #474747",
"s#	c #091809",
"t#	c #081708",
"u#	c #0B230B",
"v#	c #3CCF3C",
"w#	c #3CD03C",
"x#	c #288528",
"y#	c #163816",
"z#	c #0C240C",
"A#	c #2A882A",
"B#	c #C4C4C4",
"C#	c #163E16",
"D#	c #359B35",
"E#	c #2C8C2C",
"F#	c #3EBF3E",
"G#	c #1E551E",
"H#	c #040E04",
"I#	c #010401",
"J#	c #2C972C",
"K#	c #2FA02F",
"L#	c #237323",
"M#	c #36B936",
"N#	c #30A430",
"O#	c #31A931",
"P#	c #38C338",
"Q#	c #133B13",
"R#	c #0A180A",
"S#	c #33AC33",
"T#	c #1E651E",
"U#	c #909090",
"V#	c #1A561A",
"W#	c #040A04",
"X#	c #2FA22F",
"Y#	c #184F18",
"Z#	c #737373",
"`#	c #BEBEBE",
" $	c #010301",
".$	c #1C5C1C",
"+$	c #32AA32",
"@$	c #6A6A6A",
"#$	c #162016",
"$$	c #205920",
"%$	c #1C5B1C",
"&$	c #216D21",
"*$	c #3ED93E",
"=$	c #3FDE3F",
"-$	c #123812",
";$	c #2F9B2F",
">$	c #081B08",
",$	c #D7D7D7",
"'$	c #1C551C",
")$	c #37B937",
"!$	c #040D04",
"~$	c #4E4E4E",
"{$	c #191919",
"]$	c #0B1E0B",
"^$	c #3BCC3B",
"/$	c #102D10",
"($	c #0A220A",
"_$	c #143214",
":$	c #295629",
"<$	c #295529",
"[$	c #0F2E0F",
"}$	c #35B935",
"|$	c #3CD43C",
"1$	c #3CD33C",
"2$	c #3DD83D",
"3$	c #3EE03E",
"4$	c #3FE23F",
". + + + + + + + + + + + + + + + + + + + + + + + + + + + + + + + + + + + + + + + + + + + + + + + + + + + + + + + + + + + + + + + + + + + + + + ",
"+ @ @ @ @ @ @ @ @ @ @ @ @ @ @ @ @ @ @ @ @ @ @ @ @ @ @ @ @ @ @ @ @ @ @ @ @ @ @ @ @ @ @ @ @ @ @ @ @ @ @ @ @ @ @ @ @ @ @ @ @ @ @ @ @ @ @ @ @ @ @ ",
"+ @ @ @ @ @ @ @ @ @ @ @ @ @ @ @ @ @ @ @ @ @ @ @ @ @ @ @ @ @ @ @ @ @ @ @ @ @ @ @ @ @ @ @ @ @ @ @ @ @ @ @ @ @ @ @ @ @ @ @ @ @ @ @ @ @ @ @ @ @ @ ",
"+ @ @ @ @ @ @ @ @ @ @ @ @ @ @ @ @ @ @ @ @ @ @ @ @ @ @ @ @ @ @ @ @ @ @ @ @ @ @ @ @ @ @ @ @ @ @ @ @ @ @ @ @ @ @ @ @ @ @ @ @ @ @ @ @ @ @ @ @ @ @ ",
"+ @ @ @ @ @ @ @ @ @ @ @ @ @ @ @ @ @ @ @ @ @ @ @ @ @ @ @ @ @ @ @ @ @ @ @ @ @ @ @ @ @ @ @ @ @ @ @ @ @ @ @ @ @ @ @ @ @ @ @ @ @ @ @ @ @ @ @ @ @ @ ",
"+ @ @ @ @ @ @ @ @ @ @ @ @ @ @ @ @ @ @ @ @ @ @ @ @ @ @ @ @ @ @ @ @ @ @ @ @ @ @ @ @ @ @ @ @ @ @ @ @ @ @ @ @ @ @ @ @ @ @ @ @ @ @ @ @ @ @ @ @ @ @ ",
"+ @ @ @ @ @ @ @ @ @ @ @ @ @ @ @ @ @ @ @ @ @ @ @ @ @ @ @ @ # @ @ @ @ @ @ @ @ @ @ @ @ @ @ @ @ @ @ @ @ @ @ @ @ @ @ @ @ @ @ @ @ @ @ @ @ @ @ @ @ @ ",
"+ @ @ @ @ @ @ @ @ @ @ @ @ @ @ @ @ @ @ $ % & @ @ @ @ @ @ * = - @ @ @ @ @ @ @ @ @ @ @ @ @ @ @ @ @ @ @ @ @ @ @ @ @ @ @ @ @ @ @ @ @ @ @ @ @ @ @ @ ",
"+ @ @ @ @ @ @ @ @ @ @ @ @ @ @ @ @ @ @ ; > , ' @ @ @ @ ) ! ~ { @ @ @ @ @ @ @ @ @ @ @ @ @ @ @ @ @ @ @ @ @ @ @ @ @ @ @ @ @ @ @ @ @ @ @ @ @ @ @ @ ",
"+ @ @ @ @ @ @ @ @ @ @ @ @ @ @ @ @ @ @ ] ~ ~ ^ / @ @ @ ( ~ ~ _ : @ @ @ @ @ @ @ @ @ @ @ @ @ @ @ @ @ @ @ @ @ @ @ @ @ @ @ @ @ @ @ @ @ @ @ @ @ @ @ ",
"+ @ @ @ @ @ @ @ @ @ @ @ @ @ @ @ @ @ @ < ~ ~ ~ [ } @ | 1 ~ ~ ~ 2 @ @ @ @ @ @ @ @ @ @ @ @ @ @ @ @ @ @ @ @ @ @ @ @ @ @ @ @ @ @ @ @ @ @ @ @ @ @ @ ",
"+ @ @ @ @ @ @ @ @ @ @ @ @ @ @ @ @ @ @ 3 > ~ ~ 4 5 @ 6 7 ~ ~ ~ 8 9 @ @ @ @ @ @ @ @ @ @ @ @ @ @ @ @ @ @ @ @ @ @ @ @ @ @ @ @ @ @ @ @ @ @ @ @ @ @ ",
"+ @ @ @ @ @ @ @ @ @ @ @ @ @ @ @ @ @ @ 0 a ~ ~ ~ b % c d ~ ~ ~ ~ e f @ @ @ @ @ @ @ @ @ @ @ @ @ @ @ @ @ @ @ @ @ @ @ @ @ @ @ @ @ @ @ @ @ @ @ @ @ ",
"+ @ @ @ @ @ @ @ @ @ @ @ @ @ @ @ @ @ @ g h ~ i j k l m n ~ ~ ~ ~ ~ o p q r s t ) u v @ @ @ @ @ @ @ @ @ @ @ @ @ @ @ @ @ @ @ @ @ @ @ @ @ @ @ @ @ ",
"+ @ @ @ @ @ @ @ @ @ @ @ @ @ @ @ @ @ @ w x y z A B C D E ~ ~ ~ ~ ~ ~ F G H I J K L M N @ @ @ @ @ @ @ @ @ @ @ @ @ @ @ @ @ @ @ @ @ @ @ @ @ @ @ @ ",
"+ @ @ @ @ @ @ @ @ @ @ @ @ @ @ @ @ @ @ O P Q R S T U V ~ ~ ~ ~ ~ ~ W X Y Z ` ~ ~ ~  ...+.@.@ @ @ @ @ @ @ @ @ @ @ @ @ @ @ @ @ @ @ @ @ @ @ @ @ @ ",
"+ @ @ @ @ @ @ @ @ @ @ @ @ @ @ @ @ @ #.$.%.&.*.=.-.;.>.~ ~ ~ ~ ~ ~ ,.'.).!.~.{.].` ~ ^./.(._.:.<.@ @ @ @ @ @ @ @ @ @ @ @ @ @ @ @ @ @ @ @ @ @ @ ",
"+ @ @ @ @ @ @ @ @ @ @ @ @ @ @ @ @ @ [.}.|.~ 1.2.~ -.4 ~ ~ ~ ~ ~ ~ W 3.4.5.6.7.8.9.0.a.~ ~ ~ b.c.d.@ @ @ @ @ @ @ @ @ @ @ @ @ @ @ @ @ @ @ @ @ @ ",
"+ @ @ @ @ @ @ @ @ @ @ @ @ @ @ @ @ # e.~ ~ ~ ~ ~ ~ ~ ~ ~ ~ ~ ~ ~ ~ ~ ~ ~ f.g.h.i.j.7.k.l.m.~ /.n.# @ @ @ @ @ @ @ @ @ @ @ @ @ @ @ @ @ @ @ @ @ @ ",
"+ @ @ @ @ @ @ @ @ @ @ @ @ @ @ @ @ o.p.~ ~ ~ ~ ~ ~ ~ ~ ~ ~ ~ ~ ~ ~ ~ ~ ~ ~ ~ ~ q.r.s.t.u.v.w.K x.y.z.A.@ @ @ @ @ @ @ @ @ @ @ @ @ @ @ @ @ @ @ @ ",
"+ @ @ @ @ @ @ @ @ @ @ @ @ @ @ @ @ B.C.~ ~ ~ ~ ~ ~ ~ ~ ~ ~ ~ ~ ~ ~ ~ ~ ~ ~ ~ ~ ~ ~ D.E.F.S G.H.~ ~ I.J.K.L.@ @ @ @ @ @ @ @ @ @ @ @ @ @ @ @ @ @ ",
"+ @ @ @ @ @ @ @ @ @ @ @ @ @ @ @ @ M.~ ~ ~ ~ ~ ~ ~ ~ ~ ~ ~ ~ ~ ~ ~ ~ ~ N.3.~ ~ ~ ~ ~ ~ g.O.P.Q.R.~ ~ ~ ~ S.T.@ @ @ @ @ @ @ @ @ @ @ @ @ @ @ @ @ ",
"+ @ @ @ @ @ @ @ @ @ @ @ @ @ @ @ U.V.~ ~ ~ ~ ~ W.X.N.m.~ ~ ~ ~ ~ ~ ~ ~ Y.u.Z.~ ~ ~ ~ ~ ~ ~ 4.`. +.+~ K ++@+#+@ @ @ @ @ @ @ @ @ @ @ @ @ @ @ @ @ ",
"+ @ @ @ @ @ @ @ @ @ @ @ @ @ @ @ $+%+~ ~ ~ |.&+G.*+*+=+` ~ ~ ~ ~ ~ ~ ~ j A -+4 ~ ~ ~ ~ ~ ~ ~ *.;+ +R.>+,+'+@ @ @ @ @ @ @ @ @ @ @ @ @ @ @ @ @ @ ",
"+ @ @ @ @ @ @ @ @ @ @ @ @ @ @ @ )+!+~ ~ ~+{+]+;.h.^+/+(+~ ~ ~ ~ ~ ~ ~ _+Q.=.:+~ ~ ~ ~ ~ ~ ~ ~ <+t.[+3.~ /.}+@ @ @ @ @ @ @ @ @ @ @ @ @ @ @ @ @ ",
"+ @ @ @ @ @ @ @ @ @ @ @ @ @ @ |+1+~ ~ 2+Q.Y.Z.3+4+~ q.~ ~ ~ ~ ~ ~ ~ ~ D.5+6+7+~ ~ ~ ~ ~ ~ ~ ~ ~ 8+9+0+_+~ a+b+# @ @ @ @ @ @ @ @ @ @ @ @ @ @ @ ",
"+ @ @ @ @ @ @ @ @ @ @ @ @ @ @ c+~ ~ ].d+e+f+u.S g+(+~ ~ ~ ~ ~ ~ ~ ~ ~ ~ 2+!.h+~ ~ ~ ~ ~ ~ ~ ~ ~ i+j+S k+4 ~ l+m+@ @ @ @ @ @ @ @ @ @ @ @ @ @ @ ",
"+ @ @ @ @ @ @ @ @ @ @ @ @ @ n+o+~ ~ k+D p+{.q+r+f+~ ~ ~ ~ ~ ~ ~ ~ ~ ~ ~ l. +s+~ t+~ ~ ~ ~ ~ ~ ~ ~ u+v+w+x+~ ~ 4 y+@ @ @ @ @ @ @ @ @ @ @ @ @ @ ",
"+ @ @ @ @ @ @ @ @ @ @ @ @ z+A+~ ~ (+B+C+~ D.N.N.~ ~ ~ ~ ~ ~ ~ ~ ~ ~ ~ ~ D+E+N.Y.[+Z ~ ~ ~ ~ ~ ~ ~ ~ F+7.G.G+~ ~ H+I+@ @ @ @ @ @ @ @ @ @ @ @ @ ",
"+ @ @ @ @ @ @ @ @ @ @ @ @ J+K+~ ~ ~ >.L+~ ~ ~ ~ ~ ~ ~ ~ ~ ~ ~ ~ ~ ~ ~ ~ 8+5.q.M+[+N+~ ~ ~ ~ ~ ~ ~ ~ i+i.9+O+P+Q+y+R+@ @ @ @ @ @ @ @ @ @ @ @ @ ",
"+ @ @ @ @ @ @ @ @ @ @ @ S+T+~ ~ ~ ~ ~ ~ ~ ~ ~ ~ ~ ~ ~ ~ ~ ~ ~ ~ ~ ~ ~ U+V+e+N.E+W+m.X+Y+~ ~ ~ ~ ~ ~ ~ Y+Z+`+ @.@@ @ @ @ @ @ @ @ @ @ @ @ @ @ @ ",
"+ @ @ @ @ @ @ @ @ @ @ @ +@b.~ ~ ~ ~ ~ ~ ~ ~ ~ ~ ~ ~ ~ ~ ~ ~ ~ ~ ~ ~ ~ |.=._+@@;+#@~ C+$@N.~ ~ ~ ~ ~ ~ n 5+9+~+l+%@@ @ @ @ @ @ @ @ @ @ @ @ @ @ ",
"+ @ @ @ @ @ @ @ @ @ @ &@*@~ ~ ~ ~ ~ ~ ~ ~ ~ ~ ~ ~ ~ ~ ~ ~ ~ ~ ~ ~ ~ m.-+^+7+D =@~ :+F.%.U+~ ~ ~ ~ ~ ~ ~ H.w+-@7+4 ;@@ @ @ @ @ @ @ @ @ @ @ @ @ ",
"+ @ @ @ @ @ @ @ @ @ @ >@~ ~ ~ ~ ~ ~ ~ ~ ~ ~ ~ ~ ~ ~ ~ ~ ~ ~ ~ ~ ~ ~ R.G.w.,@V+'@~ j )@.+~ ~ ~ ~ ~ ~ ~ ~ W.!@~@0.~ {@]@@ @ @ @ @ @ @ @ @ @ @ @ ",
"+ @ @ @ @ @ @ @ @ @ ^@/@~ ~ ~ ~ ~ ~ ~ ~ ~ ~ ~ ~ ~ ~ ~ ~ ~ ~ ~ ~ ~ f.x+Y.(@G.].~ s+~.5._@~ ~ ~ ~ ~ ~ ~ ~ ~ e+B :@q.~ L <@@ @ @ @ @ @ @ @ @ @ @ ",
"+ @ @ @ @ @ @ @ @ [@}@~ ~ ~ ~ ~ ~ ~ ~ ~ ~ ~ ~ ~ ~ ~ ~ ~ ~ ~ ~ ~ ~ ~ u+|@1@t+~ Z 2@3@4@~ ~ ~ ~ ~ ~ ~ ~ ~ ~ Z Q.`.u+~ ~ 5@6@@ @ @ @ @ @ @ @ @ @ ",
"+ @ @ @ @ @ @ @ # 7@~ ~ ~ ~ ~ ~ ~ ~ ~ ~ ~ ~ ~ ~ ~ ~ ~ ~ ~ ~ ~ ~ ~ ~ 8@k (+(+j ~.V+|.~ ~ ~ ~ ~ ~ ~ ~ ~ ~ ~ D.9@9+0@a@b@7 c@@ @ @ @ @ @ @ @ @ @ ",
"+ @ @ @ @ @ @ @ d@e@~ ~ ~ ~ ~ ~ ~ ~ ~ ~ ~ ~ ~ ~ ~ ~ ~ ~ ~ ~ ~ ~ ~ ~ f@;.g@h@0+;.E ~ ~ ~ ~ ~ ~ ~ ~ ~ ~ ~ ~ ~ R.A i@j@k@l@m@@ @ @ @ @ @ @ @ @ @ ",
"+ @ @ @ @ @ @ n@o@~ ~ ~ ~ ~ ~ ~ ~ ~ ~ ~ ~ ~ ~ ~ ~ ~ ~ ~ ~ > p@q@7 ~ 4@V C+r.L+~ ~ ~ ~ ~ ~ ~ ~ ~ ~ ~ ~ ~ ~ ~ f@!.r@s@t@u@@ @ @ @ @ @ @ @ @ @ @ ",
"+ @ @ @ @ @ @.v@~ U+~ ~ ~ ~ ~ ~ ~ ~ ~ ~ ~ ~ ~ ~ ~ ~ w@*@x@y@z@A@B@~ ~ ~ ~ ~ ~ ~ ~ ~ ~ ~ ~ ~ ~ ~ ~ ~ ~ ~ ~ ~ W D ~@@@~ C@D@@ @ @ @ @ @ @ @ @ @ ",
"+ @ @ @ @ @ E@a+F@3+(+~ ~ ~ ~ ~ ~ ~ ~ ~ ~ ~ ~ ~ ~ G@H@I@J@@ @ K@L@~ ~ ~ ~ ~ ~ ~ ~ ~ ~ ~ ~ ~ ~ ~ ~ ~ ~ ~ ~ ~ ~ M@S v.~ ~ N@O@@ @ @ @ @ @ @ @ @ ",
"+ @ @ @ @ @ P@b.-+`.Q@~ ~ ~ ~ ~ ~ ~ ~ ~ ~ ~ ~ ~ R@S@@ @ @ @ @ T@~ ~ ~ ~ ~ ~ ~ ~ ~ ~ ~ ~ ~ ~ ~ ~ ~ ~ ~ ~ ~ ~ ~ U@V@W@i ~ ~ X@# @ @ @ @ @ @ @ @ ",
"+ @ @ @ @ @ Y@i+0+S V+Z@~ ~ ~ ~ ~ ~ ~ ~ ~ ~ ~ `@ #@ @ @ @ @ I@`@~ ~ ~ ~ ~ ~ ~ ~ ~ ~ ~ ~ ~ ~ ~ ~ ~ ~ ~ ~ ~ ~ ~ _+r@`..#+#~ a+@#@ @ @ @ @ @ @ @ ",
"+ @ @ @ @ @ ##~ ~+)@$#H.~ %#<+G+~ ~ ~ ~ ~ ~ &#*#@ @ @ @ @ @ =#F ~ ~ ~ ~ ~ ~ ~ ~ ~ ~ ~ ~ ~ ~ ~ ~ ~ ~ ~ ~ ~ ~ ~ i -@-#U@;#2 >#,#@ @ @ @ @ @ @ @ ",
"+ @ @ @ @ @ '#~ ~ )#t+~ !#'.S (@~ ~ ~ ~ ~ m+~#@ @ @ @ @ @ {#]#~ ~ ~ ~ ~ ~ ~ ~ ~ ~ ~ ~ ~ ~ ~ ~ ~ ~ ~ ~ ~ ~ ~ ~ D.^#S /#(#_#S+I@@ @ @ @ @ @ @ @ ",
"+ @ @ @ @ # :#~ ~ ~ ~ ~ <#P.S {.~ ~ ~ ~ [#@.@ @ @ @ @ @ @ }#|#~ ~ ~ ~ ~ ~ ~ ~ ~ ~ ~ ~ ~ ~ ~ ~ ~ ~ ~ ~ ~ ~ ~ ~ ~ 3+S 1#D.2#'+@ @ @ @ @ @ @ @ @ ",
"+ @ @ @ @ @ :.b.~ ~ ~ ~ 3#Q.R .#~ ~ ~ 4#9 @ @ @ @ @ @ @ 5#6#~ ~ ~ ~ ~ ~ ~ ~ ~ ~ ~ ~ ~ ~ ~ ~ ~ ~ ~ ~ ~ ~ ~ ~ ~ ~ l.A 7#:+~ 8#9#@ @ @ @ @ @ @ @ ",
"+ @ @ @ @ @ A@0#~ ~ ~ ~ ~ 3.a#~ ~ ~ ~ b#9#@ @ @ @ @ @ c#d#~ ~ ~ ~ ~ ~ ~ ~ ~ ~ ~ ~ ~ ~ ~ ~ ~ ~ ~ ~ ~ ~ ~ ~ ~ ~ ~ 3#t.Q.e#~ f#g#@ @ @ @ @ @ @ @ ",
"+ @ @ @ @ @ @ h#i#~ ~ ~ ~ ~ ~ ~ ~ ~ j#=#@ @ @ @ @ @ k#l#~ ~ ~ ~ ~ ~ ~ ~ ~ ~ ~ ~ ~ ~ ~ ~ ~ ~ ~ ~ ~ ~ ~ ~ ~ ~ ~ ~ f@m#8.u+~ ~ n#J@@ @ @ @ @ @ @ ",
"+ @ @ @ @ @ @ @ o#;#~ ~ ~ ~ ~ ~ ~ ~ A+p#@ @ @ @ @ @ q#~ ~ ~ ~ ~ ~ ~ ~ ~ ~ ~ ~ ~ ~ ~ ~ ~ ~ ~ ~ ~ ~ ~ ~ ~ ~ ~ ~ ~ 7+[+).r#s#t#u#v#@ @ @ @ @ @ @ ",
"+ @ @ @ @ @ @ @ @ w#x#y#~ ~ ~ ~ ~ z#g#@ @ @ @ @ @ A#l+~ ~ ~ ~ ~ ~ ~ ~ ~ ~ ~ ~ ~ ~ ~ ~ ~ ~ ~ ~ ~ ~ ~ ~ ~ ~ ~ ~ ~ :+B#B R.C#D#E#$+@ @ @ @ @ @ @ ",
"+ @ @ @ @ @ @ @ @ @ @ F#G#H#I#a p.J#@ @ @ @ @ @ K#/@~ ~ ~ ~ ~ ~ ~ ~ ~ ~ ~ ~ ~ ~ ~ ~ ~ ~ ~ ~ ~ ~ ~ ~ ~ ~ ~ ~ ~ ~ n k.S f+~ L#@ @ @ @ @ @ @ @ @ ",
"+ @ @ @ @ @ @ @ @ @ @ @ S+M#N#O#w#@ @ @ @ @ @ P#Q#~ ~ ~ ~ ~ ~ ~ ~ ~ ~ ~ ~ ~ ~ ~ ~ ~ ~ ~ ~ ~ ~ ~ ~ ~ ~ ~ ~ ~ ~ ~ m.^#S O.~ R#S#@ @ @ @ @ @ @ @ ",
"+ @ @ @ @ @ @ @ @ @ @ @ @ @ @ @ @ @ @ @ @ @ 9#T#~ ~ ~ ~ ~ ~ ~ ~ ~ ~ ~ ~ ~ ~ ~ ~ ~ ~ ~ ~ ~ ~ ~ ~ ~ ~ ~ ~ ~ ~ ~ ~ ~ U#S 1#D.~ V#{#@ @ @ @ @ @ @ ",
"+ @ @ @ @ @ @ @ @ @ @ @ @ @ @ @ @ @ @ @ @ @ p j#~ ~ ~ ~ ~ ~ ~ ~ ~ ~ ~ ~ ~ ~ ~ ~ ~ ~ ~ ~ ~ ~ ~ ~ ~ ~ ~ ~ ~ ~ ~ ~ ~ (@S V+f.~ W#X#@ @ @ @ @ @ @ ",
"+ @ @ @ @ @ @ @ @ @ @ @ @ @ @ @ @ @ @ @ @ I@Y#~ ~ ~ ~ ~ ~ ~ ~ ~ ~ ~ ~ ~ ~ ~ ~ ~ ~ ~ ~ ~ ~ ~ ~ ~ ~ ~ ~ ~ ~ ~ ~ ~ ~ Z#S `#W. $~ .$U.@ @ @ @ @ @ ",
"+ @ @ @ @ @ @ @ @ @ @ @ @ @ @ @ @ @ @ @ @ +$F ~ ~ ~ ~ ~ ~ ~ ~ ~ ~ ~ ~ ~ ~ ~ ~ ~ ~ ~ ~ ~ ~ ~ ~ ~ ~ ~ ~ ~ ~ ~ ~ ~ ~ @$9+-@#$$$%$]#l@@ @ @ @ @ @ ",
"+ @ @ @ @ @ @ @ @ @ @ @ @ @ @ @ @ @ @ @ @ &$~ ~ ~ ~ ~ ~ ~ ~ ~ ~ ~ ~ ~ ~ ~ ~ ~ ~ ~ ~ ~ ~ ~ ~ ~ ~ ~ ~ ~ ~ ~ ~ ~ ~ ~ *.P.E+X+A++.*$@ @ @ @ @ @ @ ",
"+ @ @ @ @ @ @ @ @ @ @ @ @ @ @ @ @ @ @ @ =$-$~ ~ ~ ~ ~ ~ ~ ~ ~ ~ ~ ~ ~ ~ ~ ~ ~ ~ ~ ~ ~ ~ ~ ~ ~ ~ ~ ~ ~ ~ ~ ~ ~ ~ ~ j A d+N.I.;$@ @ @ @ @ @ @ @ ",
"+ @ @ @ @ @ @ @ @ @ @ @ @ @ @ @ @ @ @ @ z@>$~ ~ ~ ~ ~ ~ ~ ~ ~ ~ ~ ~ ~ ~ ~ ~ ~ ~ ~ ~ ~ ~ ~ ~ ~ ~ ~ ~ ~ ~ ~ ~ ~ ~ ~ E.~@,$7+~ '$@.@ @ @ @ @ @ @ ",
"+ @ @ @ @ @ @ @ @ @ @ @ @ @ @ @ @ @ @ @ )$!$~ ~ ~ ~ ~ ~ ~ ~ ~ ~ ~ ~ ~ ~ ~ ~ ~ ~ ~ ~ ~ ~ ~ ~ ~ ~ ~ ~ ~ ~ ~ ~ ~ ~ ~ ~$q+V+{$~ ]$^$@ @ @ @ @ @ @ ",
"+ @ @ @ @ @ @ @ @ @ @ @ @ @ @ @ @ @ @ @ [./$u#u#u#u#u#u#u#u#u#u#u#u#u#u#u#u#u#u#u#u#u#u#u#u#u#u#u#u#u#u#u#u#u#($u#_$:$<$z#u#[$}$@ @ @ @ @ @ @ ",
"+ @ @ @ @ @ @ @ @ @ @ @ @ @ @ @ @ @ @ @ 9#|$|$|$|$|$|$|$|$|$|$|$|$|$|$|$|$|$|$|$|$|$|$|$|$|$|$|$|$|$|$|$|$|$|$1$|$2$3$4$|$|$|$9#@ @ @ @ @ @ @ ",
"+ @ @ @ @ @ @ @ @ @ @ @ @ @ @ @ @ @ @ @ @ @ @ @ @ @ @ @ @ @ @ @ @ @ @ @ @ @ @ @ @ @ @ @ @ @ @ @ @ @ @ @ @ @ @ @ @ @ @ @ @ @ @ @ @ @ @ @ @ @ @ ",
"+ @ @ @ @ @ @ @ @ @ @ @ @ @ @ @ @ @ @ @ @ @ @ @ @ @ @ @ @ @ @ @ @ @ @ @ @ @ @ @ @ @ @ @ @ @ @ @ @ @ @ @ @ @ @ @ @ @ @ @ @ @ @ @ @ @ @ @ @ @ @ ",
"+ @ @ @ @ @ @ @ @ @ @ @ @ @ @ @ @ @ @ @ @ @ @ @ @ @ @ @ @ @ @ @ @ @ @ @ @ @ @ @ @ @ @ @ @ @ @ @ @ @ @ @ @ @ @ @ @ @ @ @ @ @ @ @ @ @ @ @ @ @ @ ",
"+ @ @ @ @ @ @ @ @ @ @ @ @ @ @ @ @ @ @ @ @ @ @ @ @ @ @ @ @ @ @ @ @ @ @ @ @ @ @ @ @ @ @ @ @ @ @ @ @ @ @ @ @ @ @ @ @ @ @ @ @ @ @ @ @ @ @ @ @ @ @ ",
"+ @ @ @ @ @ @ @ @ @ @ @ @ @ @ @ @ @ @ @ @ @ @ @ @ @ @ @ @ @ @ @ @ @ @ @ @ @ @ @ @ @ @ @ @ @ @ @ @ @ @ @ @ @ @ @ @ @ @ @ @ @ @ @ @ @ @ @ @ @ @ ",
"+ @ @ @ @ @ @ @ @ @ @ @ @ @ @ @ @ @ @ @ @ @ @ @ @ @ @ @ @ @ @ @ @ @ @ @ @ @ @ @ @ @ @ @ @ @ @ @ @ @ @ @ @ @ @ @ @ @ @ @ @ @ @ @ @ @ @ @ @ @ @ ",
"+ @ @ @ @ @ @ @ @ @ @ @ @ @ @ @ @ @ @ @ @ @ @ @ @ @ @ @ @ @ @ @ @ @ @ @ @ @ @ @ @ @ @ @ @ @ @ @ @ @ @ @ @ @ @ @ @ @ @ @ @ @ @ @ @ @ @ @ @ @ @ ",
"+ @ @ @ @ @ @ @ @ @ @ @ @ @ @ @ @ @ @ @ @ @ @ @ @ @ @ @ @ @ @ @ @ @ @ @ @ @ @ @ @ @ @ @ @ @ @ @ @ @ @ @ @ @ @ @ @ @ @ @ @ @ @ @ @ @ @ @ @ @ @ "};
