/* XPM */
static char * ywbp_xpm[] = {
"71 71 215 2",
"  	c None",
". 	c #C4F9C4",
"+ 	c #94F494",
"@ 	c #42EC42",
"# 	c #43D543",
"$ 	c #3CAA3C",
"% 	c #388F38",
"& 	c #389138",
"* 	c #3FAD3F",
"= 	c #45D845",
"- 	c #3A993A",
"; 	c #1B391B",
"> 	c #040704",
", 	c #000000",
"' 	c #060806",
") 	c #1E411E",
"! 	c #3B9E3B",
"~ 	c #3B9B3B",
"{ 	c #1B1E1B",
"] 	c #141E14",
"^ 	c #38A138",
"/ 	c #46DC46",
"( 	c #1E431E",
"_ 	c #234D23",
": 	c #45E045",
"< 	c #40B940",
"[ 	c #0A0E0A",
"} 	c #0C130C",
"| 	c #3FBF3F",
"1 	c #39A739",
"2 	c #040604",
"3 	c #070A07",
"4 	c #40B340",
"5 	c #3EB43E",
"6 	c #080C08",
"7 	c #0A100A",
"8 	c #41BD41",
"9 	c #1B3A1B",
"0 	c #204420",
"a 	c #46DD46",
"b 	c #359935",
"c 	c #151C15",
"d 	c #0F200F",
"e 	c #339E33",
"f 	c #2C652C",
"g 	c #2A6E2A",
"h 	c #49D049",
"i 	c #284B28",
"j 	c #224F22",
"k 	c #40CF40",
"l 	c #3FD03F",
"m 	c #215821",
"n 	c #1D5D1D",
"o 	c #44D844",
"p 	c #1E5D1E",
"q 	c #2B6B2B",
"r 	c #53E753",
"s 	c #53E853",
"t 	c #2C6B2C",
"u 	c #367736",
"v 	c #55EE55",
"w 	c #54ED54",
"x 	c #357535",
"y 	c #2E762E",
"z 	c #47EB47",
"A 	c #47EC47",
"B 	c #2E772E",
"C 	c #257725",
"D 	c #42EB42",
"E 	c #267926",
"F 	c #080808",
"G 	c #318531",
"H 	c #40C140",
"I 	c #030603",
"J 	c #040504",
"K 	c #030503",
"L 	c #1D291D",
"M 	c #41C941",
"N 	c #46E546",
"O 	c #38AC38",
"P 	c #34A734",
"Q 	c #329132",
"R 	c #152715",
"S 	c #162C16",
"T 	c #329532",
"U 	c #3AAE3A",
"V 	c #48EB48",
"W 	c #44E544",
"X 	c #1E401E",
"Y 	c #204820",
"Z 	c #45E845",
"` 	c #3EB93E",
" .	c #0F1B0F",
"..	c #122212",
"+.	c #43C343",
"@.	c #4BEA4B",
"#.	c #2A662A",
"$.	c #286B28",
"%.	c #46EB46",
"&.	c #318631",
"*.	c #040404",
"=.	c #0A0A0A",
"-.	c #3A903A",
";.	c #3C933C",
">.	c #1A1A1A",
",.	c #1C1E1C",
"'.	c #3D943D",
").	c #38A338",
"!.	c #171E17",
"~.	c #172217",
"{.	c #39A939",
"].	c #45DC45",
"^.	c #245224",
"/.	c #48E248",
"(.	c #3DA53D",
"_.	c #090D09",
":.	c #3EAF3E",
"<.	c #45EC45",
"[.	c #317631",
"}.	c #317F31",
"|.	c #46E846",
"1.	c #255525",
"2.	c #2C662C",
"3.	c #45EB45",
"4.	c #2A592A",
"5.	c #2D672D",
"6.	c #327D32",
"7.	c #348834",
"8.	c #41B741",
"9.	c #101810",
"0.	c #132013",
"a.	c #3FC03F",
"b.	c #2C722C",
"c.	c #337B33",
"d.	c #1E5B1E",
"e.	c #276727",
"f.	c #4CE24C",
"g.	c #48DC48",
"h.	c #2C742C",
"i.	c #030303",
"j.	c #0F0F0F",
"k.	c #307A30",
"l.	c #4FE54F",
"m.	c #287028",
"n.	c #317D31",
"o.	c #44EB44",
"p.	c #40AD40",
"q.	c #090C09",
"r.	c #070D07",
"s.	c #43B643",
"t.	c #48ED48",
"u.	c #358D35",
"v.	c #050505",
"w.	c #48E548",
"x.	c #255225",
"y.	c #265C26",
"z.	c #47E847",
"A.	c #339533",
"B.	c #0A0B0A",
"C.	c #0B0F0B",
"D.	c #3CA13C",
"E.	c #43B243",
"F.	c #1B331B",
"G.	c #36B236",
"H.	c #41AF41",
"I.	c #213C21",
"J.	c #163D16",
"K.	c #3EB23E",
"L.	c #369536",
"M.	c #182A18",
"N.	c #1B321B",
"O.	c #329932",
"P.	c #409540",
"Q.	c #121E12",
"R.	c #339A33",
"S.	c #181E18",
"T.	c #41BE41",
"U.	c #173117",
"V.	c #1F3C1F",
"W.	c #43C543",
"X.	c #46E946",
"Y.	c #286228",
"Z.	c #296A29",
"`.	c #3DAB3D",
" +	c #0B100B",
".+	c #0F170F",
"++	c #3FB33F",
"@+	c #44E944",
"#+	c #286128",
"$+	c #286A28",
"%+	c #44CA44",
"&+	c #122112",
"*+	c #182918",
"=+	c #46D246",
"-+	c #3C9F3C",
";+	c #3EA83E",
">+	c #2D732D",
",+	c #348034",
"'+	c #44E844",
")+	c #245424",
"!+	c #285E28",
"~+	c #43E943",
"{+	c #43E343",
"]+	c #1D401D",
"^+	c #45E745",
"/+	c #43E143",
"(+	c #1B3B1B",
"_+	c #214821",
":+	c #45E645",
"<+	c #2D622D",
"[+	c #152415",
"}+	c #306C30",
"|+	c #46D946",
"1+	c #46D646",
"2+	c #45DA45",
". + + + + + + + + + + + + + + + + + + + + + + + + + + + + + + + + + + + + + + + + + + + + + + + + + + + + + + + + + + + + + + + + + + + + + + ",
"+ @ @ @ @ @ @ @ @ @ @ @ @ @ @ @ @ @ @ @ @ @ @ @ @ @ @ @ @ @ @ @ @ @ @ @ @ @ @ @ @ @ @ @ @ @ @ @ @ @ @ @ @ @ @ @ @ @ @ @ @ @ @ @ @ @ @ @ @ @ @ ",
"+ @ @ @ @ @ @ @ @ @ @ @ @ @ @ @ @ @ @ @ @ @ @ @ @ @ @ @ @ @ @ @ @ @ @ @ @ @ @ @ @ @ @ @ @ @ @ @ @ @ @ @ @ @ @ @ @ @ @ @ @ @ @ @ @ @ @ @ @ @ @ ",
"+ @ @ @ @ @ @ @ @ @ @ @ @ @ @ @ @ @ @ @ @ @ @ @ @ @ @ @ @ @ @ @ @ @ @ @ @ @ @ @ @ @ @ @ @ @ @ @ @ @ @ @ @ @ @ @ @ @ @ @ @ @ @ @ @ @ @ @ @ @ @ ",
"+ @ @ @ @ @ @ @ @ @ @ @ @ @ @ @ @ @ @ @ @ @ @ @ @ @ @ @ @ @ @ @ @ @ @ @ @ @ @ @ @ @ @ @ @ @ @ @ @ @ @ @ @ @ @ @ @ @ @ @ @ @ @ @ @ @ @ @ @ @ @ ",
"+ @ @ @ @ @ @ @ @ @ @ @ @ @ @ @ @ @ @ @ @ @ @ @ @ @ @ @ @ @ @ @ @ @ @ @ @ @ @ @ @ @ @ @ @ @ @ @ @ @ @ @ @ @ @ @ @ @ @ @ @ @ @ @ @ @ @ @ @ @ @ ",
"+ @ @ @ @ @ @ @ @ @ @ @ @ @ @ @ @ @ @ @ @ @ @ @ @ @ @ @ @ @ @ @ @ # $ % & * = @ @ @ @ @ @ @ @ @ @ @ @ @ @ @ @ @ @ @ @ @ @ @ @ @ @ @ @ @ @ @ @ ",
"+ @ @ @ @ @ @ @ @ @ @ @ @ @ @ @ @ @ @ @ @ @ @ @ @ @ @ @ @ @ @ @ - ; > , , ' ) ! @ @ @ @ @ @ @ @ @ @ @ @ @ @ @ @ @ @ @ @ @ @ @ @ @ @ @ @ @ @ @ ",
"+ @ @ @ @ @ @ @ @ @ @ @ @ @ @ @ @ @ @ @ @ @ @ @ @ @ @ @ @ @ @ ~ { , , , , , , ] ^ @ @ @ @ @ @ @ @ @ @ @ @ @ @ @ @ @ @ @ @ @ @ @ @ @ @ @ @ @ @ ",
"+ @ @ @ @ @ @ @ @ @ @ @ @ @ @ @ @ @ @ @ @ @ @ @ @ @ @ @ @ @ / ( , , , , , , , , _ : @ @ @ @ @ @ @ @ @ @ @ @ @ @ @ @ @ @ @ @ @ @ @ @ @ @ @ @ @ ",
"+ @ @ @ @ @ @ @ @ @ @ @ @ @ @ @ @ @ @ @ @ @ @ @ @ @ @ @ @ @ < [ , , , , , , , , } | @ @ @ @ @ @ @ @ @ @ @ @ @ @ @ @ @ @ @ @ @ @ @ @ @ @ @ @ @ ",
"+ @ @ @ @ @ @ @ @ @ @ @ @ @ @ @ @ @ @ @ @ @ @ @ @ @ @ @ @ @ 1 2 , , , , , , , , 3 4 @ @ @ @ @ @ @ @ @ @ @ @ @ @ @ @ @ @ @ @ @ @ @ @ @ @ @ @ @ ",
"+ @ @ @ @ @ @ @ @ @ @ @ @ @ @ @ @ @ @ @ @ @ @ @ @ @ @ @ @ @ 5 6 , , , , , , , , 7 8 @ @ @ @ @ @ @ @ @ @ @ @ @ @ @ @ @ @ @ @ @ @ @ @ @ @ @ @ @ ",
"+ @ @ @ @ @ @ @ @ @ @ @ @ @ @ @ @ @ @ @ @ @ @ @ @ @ @ @ @ @ = 9 , , , , , , , , 0 a @ @ @ @ @ @ @ @ @ @ @ @ @ @ @ @ @ @ @ @ @ @ @ @ @ @ @ @ @ ",
"+ @ @ @ @ @ @ @ @ @ @ @ @ @ @ @ @ @ @ @ @ @ @ @ @ @ @ @ @ @ @ b c , , , , , , d e @ @ @ @ @ @ @ @ @ @ @ @ @ @ @ @ @ @ @ @ @ @ @ @ @ @ @ @ @ @ ",
"+ @ @ @ @ @ @ @ @ @ @ @ @ @ @ @ @ @ @ @ @ @ @ @ @ @ @ @ @ @ @ @ f , , , , , , g @ @ @ @ @ @ @ @ @ @ @ @ @ @ @ @ @ @ @ @ @ @ @ @ @ @ @ @ @ @ @ ",
"+ @ @ @ @ @ @ @ @ @ @ @ @ @ @ @ @ @ @ @ @ @ @ @ @ @ @ @ @ @ @ h i , , , , , , j k @ @ @ @ @ @ @ @ @ @ @ @ @ @ @ @ @ @ @ @ @ @ @ @ @ @ @ @ @ @ ",
"+ @ @ @ @ @ @ @ @ @ @ @ @ @ @ @ @ @ @ @ @ @ @ @ @ @ @ @ @ @ l m , , , , , , , , n = @ @ @ @ @ @ @ @ @ @ @ @ @ @ @ @ @ @ @ @ @ @ @ @ @ @ @ @ @ ",
"+ @ @ @ @ @ @ @ @ @ @ @ @ @ @ @ @ @ @ @ @ @ @ @ @ @ @ @ @ o p , , , , , , , , , , q r @ @ @ @ @ @ @ @ @ @ @ @ @ @ @ @ @ @ @ @ @ @ @ @ @ @ @ @ ",
"+ @ @ @ @ @ @ @ @ @ @ @ @ @ @ @ @ @ @ @ @ @ @ @ @ @ @ @ s t , , , , , , , , , , , , u v @ @ @ @ @ @ @ @ @ @ @ @ @ @ @ @ @ @ @ @ @ @ @ @ @ @ @ ",
"+ @ @ @ @ @ @ @ @ @ @ @ @ @ @ @ @ @ @ @ @ @ @ @ @ @ @ w x , , , , , , , , , , , , , , y z @ @ @ @ @ @ @ @ @ @ @ @ @ @ @ @ @ @ @ @ @ @ @ @ @ @ ",
"+ @ @ @ @ @ @ @ @ @ @ @ @ @ @ @ @ @ @ @ @ @ @ @ @ @ A B , , , , , , , , , , , , , , , , C D @ @ @ @ @ @ @ @ @ @ @ @ @ @ @ @ @ @ @ @ @ @ @ @ @ ",
"+ @ @ @ @ @ @ @ @ @ @ @ @ @ @ @ @ @ @ @ @ @ @ @ @ D E , , , , , , , , , , , , , , , , , F G @ @ @ @ @ @ @ @ @ @ @ @ @ @ @ @ @ @ @ @ @ @ @ @ @ ",
"+ @ @ @ @ @ @ @ @ @ @ @ @ @ @ @ @ @ @ @ @ @ @ @ @ H ] I I J , , , , , , , , , , , , K I I L M @ @ @ @ @ @ @ @ @ @ @ @ @ @ @ @ @ @ @ @ @ @ @ @ ",
"+ @ @ @ @ @ @ @ @ @ @ @ @ @ @ @ @ @ @ @ @ @ @ @ @ N O P P Q R , , , , , , , , , , S T P P U V @ @ @ @ @ @ @ @ @ @ @ @ @ @ @ @ @ @ @ @ @ @ @ @ ",
"+ @ @ @ @ @ @ @ @ @ @ @ @ @ @ @ @ @ @ @ @ @ @ @ @ @ @ @ @ W X , , , , , , , , , , Y Z @ @ @ @ @ @ @ @ @ @ @ @ @ @ @ @ @ @ @ @ @ @ @ @ @ @ @ @ ",
"+ @ @ @ @ @ @ @ @ @ @ @ @ @ @ @ @ @ @ @ @ @ @ @ @ @ @ @ @ `  ., , , , , , , , , , ..+.@ @ @ @ @ @ @ @ @ @ @ @ @ @ @ @ @ @ @ @ @ @ @ @ @ @ @ @ ",
"+ @ @ @ @ @ @ @ @ @ @ @ @ @ @ @ @ @ @ @ @ @ @ @ @ @ @ @ @.#., , , , , , , , , , , , $.%.@ @ @ @ @ @ @ @ @ @ @ @ @ @ @ @ @ @ @ @ @ @ @ @ @ @ @ ",
"+ @ @ @ @ @ @ @ @ @ @ @ @ @ @ @ @ @ @ @ @ @ @ @ @ @ @ @ &.*., , , , , , , , , , , , =.-.@ @ @ @ @ @ @ @ @ @ @ @ @ @ @ @ @ @ @ @ @ @ @ @ @ @ @ ",
"+ @ @ @ @ @ @ @ @ @ @ @ @ @ @ @ @ @ @ @ @ @ @ @ @ @ @ ;.>., , , , , , , , , , , , , , ,.'.@ @ @ @ @ @ @ @ @ @ @ @ @ @ @ @ @ @ @ @ @ @ @ @ @ @ ",
"+ @ @ @ @ @ @ @ @ @ @ @ @ @ @ @ @ @ @ @ @ @ @ @ @ @ ).!., , , , , , , , , , , , , , , , ~.{.@ @ @ @ @ @ @ @ @ @ @ @ @ @ @ @ @ @ @ @ @ @ @ @ @ ",
"+ @ @ @ @ @ @ @ @ @ @ @ @ @ @ @ @ @ @ @ @ @ @ @ @ ].Y , , , , , , , , , , , , , , , , , , ^./.@ @ @ @ @ @ @ @ @ @ @ @ @ @ @ @ @ @ @ @ @ @ @ @ ",
"+ @ @ @ @ @ @ @ @ @ @ @ @ @ @ @ @ @ @ @ @ @ @ @ @ (.' , , , , , , , , , , , , , , , , , , _.:.@ @ @ @ @ @ @ @ @ @ @ @ @ @ @ @ @ @ @ @ @ @ @ @ ",
"+ @ @ @ @ @ @ @ @ @ @ @ @ @ @ @ @ @ @ @ @ @ @ @ <.[., , , , , , , , , , , , , , , , , , , , }.@ @ @ @ @ @ @ @ @ @ @ @ @ @ @ @ @ @ @ @ @ @ @ @ ",
"+ @ @ @ @ @ @ @ @ @ @ @ @ @ @ @ @ @ @ @ @ @ @ @ |.1., , , , , , , , , , , , , , , , , , , , 2.3.@ @ @ @ @ @ @ @ @ @ @ @ @ @ @ @ @ @ @ @ @ @ @ ",
"+ @ @ @ @ @ @ @ @ @ @ @ @ @ @ @ @ @ @ @ @ @ @ @ Z 4., , , , , , , , , , , , , , , , , , , , 5.3.@ @ @ @ @ @ @ @ @ @ @ @ @ @ @ @ @ @ @ @ @ @ @ ",
"+ @ @ @ @ @ @ @ @ @ @ @ @ @ @ @ @ @ @ @ @ @ @ @ @ 6., , , , , , , , , , , , , , , , , , , , 7.@ @ @ @ @ @ @ @ @ @ @ @ @ @ @ @ @ @ @ @ @ @ @ @ ",
"+ @ @ @ @ @ @ @ @ @ @ @ @ @ @ @ @ @ @ @ @ @ @ @ @ 8.9., , , , , , , , , , , , , , , , , , 0.a.@ @ @ @ @ @ @ @ @ @ @ @ @ @ @ @ @ @ @ @ @ @ @ @ ",
"+ @ @ @ @ @ @ @ @ @ @ @ @ @ @ @ @ @ @ @ @ @ @ @ @ 3.b., , , , , , , , , , , , , , , , , , c.D @ @ @ @ @ @ @ @ @ @ @ @ @ @ @ @ @ @ @ @ @ @ @ @ ",
"+ @ @ @ @ @ @ @ @ @ @ @ @ @ @ @ @ @ @ @ @ @ @ @ @ @ = d., , , , , , , , , , , , , , , , e.f.@ @ @ @ @ @ @ @ @ @ @ @ @ @ @ @ @ @ @ @ @ @ @ @ @ ",
"+ @ @ @ @ @ @ @ @ @ @ @ @ @ @ @ @ @ @ @ @ @ @ @ @ @ @ g.h.i., , , , , , , , , , , , j.k.l.@ @ @ @ @ @ @ @ @ @ @ @ @ @ @ @ @ @ @ @ @ @ @ @ @ @ ",
"+ @ @ @ @ @ @ @ @ @ @ @ @ @ @ @ @ @ @ @ @ @ @ @ @ @ @ @ 3.m., , , , , , , , , , , , n.D @ @ @ @ @ @ @ @ @ @ @ @ @ 3.o.@ @ @ @ @ @ @ @ @ @ @ @ ",
"+ @ @ @ @ @ @ @ @ @ @ @ @ @ @ @ @ @ @ @ @ @ @ @ @ @ @ @ @ p.q., , , , , , , , , , r.s.@ @ @ @ @ @ @ @ @ @ @ @ @ @ t.t.@ @ @ @ @ @ @ @ @ @ @ @ ",
"+ @ @ @ @ @ @ @ @ @ @ @ @ @ @ @ @ @ @ @ @ @ @ @ @ @ @ @ @ u.i., , , , , , , , , , v.- @ @ @ @ @ @ @ @ @ @ @ @ @ @ @ @ @ @ @ @ @ @ @ @ @ @ @ @ ",
"+ @ @ @ @ @ @ @ @ @ @ @ @ @ @ @ @ @ @ @ @ @ @ @ @ @ @ @ w.x., , , , , , , , , , , , y.z.@ @ @ @ @ @ @ @ @ @ @ @ @ @ @ @ @ @ @ @ @ @ @ @ @ @ @ ",
"+ @ @ @ @ @ @ @ @ @ @ @ @ @ @ @ @ @ @ @ @ @ @ @ @ @ @ @ A.B., , , , , , , , , , , , C.D.@ @ @ @ @ @ @ @ @ @ @ @ @ @ @ @ @ @ @ @ @ @ @ @ @ @ @ ",
"+ @ @ @ @ @ @ @ @ @ @ @ @ @ @ @ @ @ @ @ @ @ @ @ @ @ @ E.F., , , , , , , , , , , , , , ; G.@ @ @ @ @ @ @ @ @ @ @ @ @ @ @ @ @ @ @ @ @ @ @ @ @ @ ",
"+ @ @ @ @ @ @ @ @ @ @ @ @ @ @ @ @ @ @ @ @ @ @ @ @ @ H.I., , , , , , , , , , , , , , , , J.K.@ @ @ @ @ @ @ @ @ @ @ @ @ @ @ @ @ @ @ @ @ @ @ @ @ ",
"+ @ @ @ @ @ @ @ @ @ @ @ @ @ @ @ @ @ @ @ @ @ @ @ @ L.M., , , , , , , , , , , , , , , , , , N.O.@ @ @ @ @ @ @ @ @ @ @ @ @ @ @ @ @ @ @ @ @ @ @ @ ",
"+ @ @ @ @ @ @ @ @ @ @ @ @ @ @ @ @ @ @ @ @ @ @ @ P.,., , , , , , , , , , , , , , , , , , , , Q.A.@ @ @ @ @ @ @ @ @ @ @ @ @ @ @ @ @ @ @ @ @ @ @ ",
"+ @ @ @ @ @ @ @ @ @ @ @ @ @ @ @ @ @ @ @ @ @ @ R.S., , , , , , , , , , , , , , , , , , , , , , d ).@ @ @ @ @ @ @ @ @ @ @ @ @ @ @ @ @ @ @ @ @ @ ",
"+ @ @ @ @ @ @ @ @ @ @ @ @ @ @ @ @ @ @ @ @ @ T.U., , , , , , , , , , , , , , , , , , , , , , , , V.W.@ @ @ @ @ @ @ @ @ @ @ @ @ @ @ @ @ @ @ @ @ ",
"+ @ @ @ @ @ @ @ @ @ @ @ @ @ @ @ @ @ @ @ @ X.Y., , , , , , , , , , , , , , , , , , , , , , , , , , Z.3.@ @ @ @ @ @ @ @ @ @ @ @ @ @ @ @ @ @ @ @ ",
"+ @ @ @ @ @ @ @ @ @ @ @ @ @ @ @ @ @ @ @ @ `. +, , , , , , , , , , , , , , , , , , , , , , , , , , .+++@ @ @ @ @ @ @ @ @ @ @ @ @ @ @ @ @ @ @ @ ",
"+ @ @ @ @ @ @ @ @ @ @ @ @ @ @ @ @ @ @ @ @+#+, , , , , , , , , , , , , , , , , , , , , , , , , , , , $+o.@ @ @ @ @ @ @ @ @ @ @ @ @ @ @ @ @ @ @ ",
"+ @ @ @ @ @ @ @ @ @ @ @ @ @ @ @ @ @ @ @ %+&+, , , , , , , , , , , , , , , , , , , , , , , , , , , , *+=+@ @ @ @ @ @ @ @ @ @ @ @ @ @ @ @ @ @ @ ",
"+ @ @ @ @ @ @ @ @ @ @ @ @ @ @ @ @ @ @ @ -+v., , , , , , , , , , , , , , , , , , , , , , , , , , , , ' ;+@ @ @ @ @ @ @ @ @ @ @ @ @ @ @ @ @ @ @ ",
"+ @ @ @ @ @ @ @ @ @ @ @ @ @ @ @ @ @ @ D >+, , , , , , , , , , , , , , , , , , , , , , , , , , , , , , ,+@ @ @ @ @ @ @ @ @ @ @ @ @ @ @ @ @ @ @ ",
"+ @ @ @ @ @ @ @ @ @ @ @ @ @ @ @ @ @ @ '+)+, , , , , , , , , , , , , , , , , , , , , , , , , , , , , , !+~+@ @ @ @ @ @ @ @ @ @ @ @ @ @ @ @ @ @ ",
"+ @ @ @ @ @ @ @ @ @ @ @ @ @ @ @ @ @ @ {+]+, , , , , , , , , , , , , , , , , , , , , , , , , , , , , , _ ^+@ @ @ @ @ @ @ @ @ @ @ @ @ @ @ @ @ @ ",
"+ @ @ @ @ @ @ @ @ @ @ @ @ @ @ @ @ @ @ /+(+, , , , , , , , , , , , , , , , , , , , , , , , , , , , , , _+W @ @ @ @ @ @ @ @ @ @ @ @ @ @ @ @ @ @ ",
"+ @ @ @ @ @ @ @ @ @ @ @ @ @ @ @ @ @ @ :+<+[+[+[+[+[+[+[+[+[+[+[+[+[+[+[+[+[+[+[+[+[+[+[+[+[+[+[+[+[+[+}+Z @ @ @ @ @ @ @ @ @ @ @ @ @ @ @ @ @ @ ",
"+ @ @ @ @ @ @ @ @ @ @ @ @ @ @ @ @ @ @ @ |+1+1+1+1+1+1+1+1+1+1+1+1+1+1+1+1+1+1+1+1+1+1+1+1+1+1+1+1+1+1+2+@ @ @ @ @ @ @ @ @ @ @ @ @ @ @ @ @ @ @ ",
"+ @ @ @ @ @ @ @ @ @ @ @ @ @ @ @ @ @ @ @ @ @ @ @ @ @ @ @ @ @ @ @ @ @ @ @ @ @ @ @ @ @ @ @ @ @ @ @ @ @ @ @ @ @ @ @ @ @ @ @ @ @ @ @ @ @ @ @ @ @ @ ",
"+ @ @ @ @ @ @ @ @ @ @ @ @ @ @ @ @ @ @ @ @ @ @ @ @ @ @ @ @ @ @ @ @ @ @ @ @ @ @ @ @ @ @ @ @ @ @ @ @ @ @ @ @ @ @ @ @ @ @ @ @ @ @ @ @ @ @ @ @ @ @ ",
"+ @ @ @ @ @ @ @ @ @ @ @ @ @ @ @ @ @ @ @ @ @ @ @ @ @ @ @ @ @ @ @ @ @ @ @ @ @ @ @ @ @ @ @ @ @ @ @ @ @ @ @ @ @ @ @ @ @ @ @ @ @ @ @ @ @ @ @ @ @ @ ",
"+ @ @ @ @ @ @ @ @ @ @ @ @ @ @ @ @ @ @ @ @ @ @ @ @ @ @ @ @ @ @ @ @ @ @ @ @ @ @ @ @ @ @ @ @ @ @ @ @ @ @ @ @ @ @ @ @ @ @ @ @ @ @ @ @ @ @ @ @ @ @ ",
"+ @ @ @ @ @ @ @ @ @ @ @ @ @ @ @ @ @ @ @ @ @ @ @ @ @ @ @ @ @ @ @ @ @ @ @ @ @ @ @ @ @ @ @ @ @ @ @ @ @ @ @ @ @ @ @ @ @ @ @ @ @ @ @ @ @ @ @ @ @ @ ",
"+ @ @ @ @ @ @ @ @ @ @ @ @ @ @ @ @ @ @ @ @ @ @ @ @ @ @ @ @ @ @ @ @ @ @ @ @ @ @ @ @ @ @ @ @ @ @ @ @ @ @ @ @ @ @ @ @ @ @ @ @ @ @ @ @ @ @ @ @ @ @ ",
"+ @ @ @ @ @ @ @ @ @ @ @ @ @ @ @ @ @ @ @ @ @ @ @ @ @ @ @ @ @ @ @ @ @ @ @ @ @ @ @ @ @ @ @ @ @ @ @ @ @ @ @ @ @ @ @ @ @ @ @ @ @ @ @ @ @ @ @ @ @ @ ",
"+ @ @ @ @ @ @ @ @ @ @ @ @ @ @ @ @ @ @ @ @ @ @ @ @ @ @ @ @ @ @ @ @ @ @ @ @ @ @ @ @ @ @ @ @ @ @ @ @ @ @ @ @ @ @ @ @ @ @ @ @ @ @ @ @ @ @ @ @ @ @ "};
