/* XPM */
static char * ywbq_xpm[] = {
"71 71 592 2",
"  	c None",
". 	c #C4F9C4",
"+ 	c #94F494",
"@ 	c #42EC42",
"# 	c #3FDF3F",
"$ 	c #3FE03F",
"% 	c #3DD43D",
"& 	c #257825",
"* 	c #133D13",
"= 	c #143F14",
"- 	c #277D27",
"; 	c #3ED83E",
"> 	c #3FE13F",
", 	c #1A5C1A",
"' 	c #000000",
") 	c #1C611C",
"! 	c #41E541",
"~ 	c #32A732",
"{ 	c #030703",
"] 	c #050C05",
"^ 	c #35B035",
"/ 	c #2A8C2A",
"( 	c #000100",
"_ 	c #2D982D",
": 	c #2E9F2E",
"< 	c #010401",
"[ 	c #32AA32",
"} 	c #3FD93F",
"| 	c #1B541B",
"1 	c #1C591C",
"2 	c #3FDD3F",
"3 	c #3CCD3C",
"4 	c #1F691F",
"5 	c #040504",
"6 	c #226F22",
"7 	c #3ED23E",
"8 	c #3FDC3F",
"9 	c #40DE40",
"0 	c #298729",
"a 	c #143D14",
"b 	c #123512",
"c 	c #247324",
"d 	c #3FD53F",
"e 	c #41E641",
"f 	c #134113",
"g 	c #1C4C1C",
"h 	c #41E841",
"i 	c #3BD03B",
"j 	c #216F21",
"k 	c #123312",
"l 	c #164016",
"m 	c #2D902D",
"n 	c #31A131",
"o 	c #070D07",
"p 	c #227022",
"q 	c #40E840",
"r 	c #174A17",
"s 	c #1F571F",
"t 	c #42EA42",
"u 	c #42E942",
"v 	c #1F681F",
"w 	c #0D190D",
"x 	c #34AC34",
"y 	c #43EB43",
"z 	c #226B22",
"A 	c #123212",
"B 	c #133813",
"C 	c #154115",
"D 	c #41E441",
"E 	c #3DD63D",
"F 	c #0E290E",
"G 	c #227722",
"H 	c #42EB42",
"I 	c #153E15",
"J 	c #3BCD3B",
"K 	c #0A1D0A",
"L 	c #0C240C",
"M 	c #3DD33D",
"N 	c #3FDA3F",
"O 	c #113211",
"P 	c #257B25",
"Q 	c #33AE33",
"R 	c #0D270D",
"S 	c #278527",
"T 	c #34AD34",
"U 	c #040A04",
"V 	c #040E04",
"W 	c #36B736",
"X 	c #247E24",
"Y 	c #112F11",
"Z 	c #38B838",
"` 	c #143C14",
" .	c #1E681E",
"..	c #010201",
"+.	c #2C902C",
"@.	c #1F631F",
"#.	c #184718",
"$.	c #36B236",
"%.	c #3EDF3E",
"&.	c #35B935",
"*.	c #34B734",
"=.	c #2C942C",
"-.	c #030A03",
";.	c #2D992D",
">.	c #1E5D1E",
",.	c #2E8E2E",
"'.	c #050E05",
").	c #309F30",
"!.	c #3CD43C",
"~.	c #33B633",
"{.	c #34BA34",
"].	c #40E040",
"^.	c #3DCC3D",
"/.	c #1B551B",
"(.	c #040D04",
"_.	c #040B04",
":.	c #144314",
"<.	c #34B634",
"[.	c #050D05",
"}.	c #237823",
"|.	c #3EDE3E",
"1.	c #113611",
"2.	c #154015",
"3.	c #40E340",
"4.	c #226D22",
"5.	c #091409",
"6.	c #3CC23C",
"7.	c #35B235",
"8.	c #1B5B1B",
"9.	c #237923",
"0.	c #1C5E1C",
"a.	c #36B836",
"b.	c #123712",
"c.	c #3ED73E",
"d.	c #3AC83A",
"e.	c #091909",
"f.	c #0A200A",
"g.	c #3BCF3B",
"h.	c #3DD13D",
"i.	c #0F2E0F",
"j.	c #0A140A",
"k.	c #3EC43E",
"l.	c #1C571C",
"m.	c #298329",
"n.	c #195419",
"o.	c #113811",
"p.	c #020502",
"q.	c #31A731",
"r.	c #36B136",
"s.	c #298B29",
"t.	c #3DD83D",
"u.	c #112C11",
"v.	c #236423",
"w.	c #247724",
"x.	c #1A531A",
"y.	c #42E642",
"z.	c #164D16",
"A.	c #277F27",
"B.	c #2B8A2B",
"C.	c #3FDE3F",
"D.	c #184818",
"E.	c #288228",
"F.	c #3BC53B",
"G.	c #010301",
"H.	c #237523",
"I.	c #060E06",
"J.	c #32A932",
"K.	c #1D561D",
"L.	c #1F611F",
"M.	c #30A030",
"N.	c #030903",
"O.	c #1E531E",
"P.	c #3DD03D",
"Q.	c #3DD53D",
"R.	c #2E9E2E",
"S.	c #1D631D",
"T.	c #1B571B",
"U.	c #43E843",
"V.	c #1E621E",
"W.	c #43EA43",
"X.	c #3FDB3F",
"Y.	c #103110",
"Z.	c #123A12",
"`.	c #41E741",
" +	c #1C581C",
".+	c #194D19",
"++	c #020202",
"@+	c #206720",
"#+	c #31A231",
"$+	c #42DA42",
"%+	c #40DF40",
"&+	c #164216",
"*+	c #030303",
"=+	c #091B09",
"-+	c #37BE37",
";+	c #39C339",
">+	c #091609",
",+	c #0A1C0A",
"'+	c #3CCB3C",
")+	c #35B535",
"!+	c #061506",
"~+	c #267E26",
"{+	c #174B17",
"]+	c #268226",
"^+	c #0B200B",
"/+	c #31A531",
"(+	c #2FA02F",
"_+	c #32AB32",
":+	c #216D21",
"<+	c #091809",
"[+	c #2A8B2A",
"}+	c #39C139",
"|+	c #0A1A0A",
"1+	c #39C439",
"2+	c #267826",
"3+	c #278327",
"4+	c #3AC93A",
"5+	c #0D260D",
"6+	c #38BD38",
"7+	c #0C210C",
"8+	c #3BC93B",
"9+	c #1D5E1D",
"0+	c #43E343",
"a+	c #195119",
"b+	c #1E5C1E",
"c+	c #43E943",
"d+	c #258225",
"e+	c #40DB40",
"f+	c #1B561B",
"g+	c #1E601E",
"h+	c #2D962D",
"i+	c #267C26",
"j+	c #154415",
"k+	c #3FD83F",
"l+	c #0F2B0F",
"m+	c #113411",
"n+	c #40DD40",
"o+	c #247524",
"p+	c #2F9F2F",
"q+	c #3ED13E",
"r+	c #102A10",
"s+	c #091509",
"t+	c #2E9B2E",
"u+	c #31A031",
"v+	c #3ABE3A",
"w+	c #071307",
"x+	c #081808",
"y+	c #3AC73A",
"z+	c #2D972D",
"A+	c #020602",
"B+	c #2D942D",
"C+	c #070E07",
"D+	c #123412",
"E+	c #216A21",
"F+	c #113511",
"G+	c #37BB37",
"H+	c #1D591D",
"I+	c #42E742",
"J+	c #309A30",
"K+	c #32A532",
"L+	c #40E440",
"M+	c #174F17",
"N+	c #112D11",
"O+	c #237323",
"P+	c #040C04",
"Q+	c #071407",
"R+	c #31A931",
"S+	c #236D23",
"T+	c #2FA12F",
"U+	c #061106",
"V+	c #35B435",
"W+	c #227222",
"X+	c #144014",
"Y+	c #2F9B2F",
"Z+	c #102810",
"`+	c #102F10",
" @	c #2C962C",
".@	c #2C982C",
"+@	c #113B11",
"@@	c #081208",
"#@	c #3ABF3A",
"$@	c #206B20",
"%@	c #174817",
"&@	c #40E240",
"*@	c #287F28",
"=@	c #060C06",
"-@	c #2B8F2B",
";@	c #298A29",
">@	c #040904",
",@	c #010601",
"'@	c #020702",
")@	c #030803",
"!@	c #010501",
"~@	c #2A932A",
"{@	c #298429",
"]@	c #2A882A",
"^@	c #39BE39",
"/@	c #081708",
"(@	c #081508",
"_@	c #298129",
":@	c #123012",
"<@	c #298229",
"[@	c #226922",
"}@	c #0B1F0B",
"|@	c #3BC63B",
"1@	c #1A521A",
"2@	c #000300",
"3@	c #1D5C1D",
"4@	c #2D922D",
"5@	c #020302",
"6@	c #309D30",
"7@	c #3CCE3C",
"8@	c #080808",
"9@	c #141414",
"0@	c #222222",
"a@	c #313131",
"b@	c #404040",
"c@	c #4F4F4F",
"d@	c #5C5C5C",
"e@	c #6B6B6B",
"f@	c #707070",
"g@	c #757575",
"h@	c #7A7A7A",
"i@	c #747474",
"j@	c #4E4E4E",
"k@	c #3F3F3F",
"l@	c #303030",
"m@	c #212121",
"n@	c #131313",
"o@	c #070707",
"p@	c #0F2F0F",
"q@	c #3FD63F",
"r@	c #1E651E",
"s@	c #050505",
"t@	c #1E1E1E",
"u@	c #434343",
"v@	c #6E6E6E",
"w@	c #949494",
"x@	c #B7B7B7",
"y@	c #CFCFCF",
"z@	c #E1E1E1",
"A@	c #ECECEC",
"B@	c #F4F4F4",
"C@	c #FAFAFA",
"D@	c #FBFBFB",
"E@	c #FFFFFF",
"F@	c #E0E0E0",
"G@	c #B5B5B5",
"H@	c #929292",
"I@	c #6C6C6C",
"J@	c #414141",
"K@	c #1C1C1C",
"L@	c #040404",
"M@	c #236F23",
"N@	c #30A430",
"O@	c #636363",
"P@	c #A4A4A4",
"Q@	c #D9D9D9",
"R@	c #FEFEFE",
"S@	c #FDFDFD",
"T@	c #FCFCFC",
"U@	c #F3F3F3",
"V@	c #D7D7D7",
"W@	c #A0A0A0",
"X@	c #5F5F5F",
"Y@	c #1B1B1B",
"Z@	c #35AE35",
"`@	c #113111",
" #	c #0B0B0B",
".#	c #727272",
"+#	c #CBCBCB",
"@#	c #F2F2F2",
"##	c #E3E3E3",
"$#	c #D0D0D0",
"%#	c #BDBDBD",
"&#	c #AAAAAA",
"*#	c #989898",
"=#	c #878787",
"-#	c #787878",
";#	c #6D6D6D",
">#	c #656565",
",#	c #666666",
"'#	c #999999",
")#	c #ABABAB",
"!#	c #BEBEBE",
"~#	c #D2D2D2",
"{#	c #E4E4E4",
"]#	c #C6C6C6",
"^#	c #8C8C8C",
"/#	c #EBEBEB",
"(#	c #C2C2C2",
"_#	c #919191",
":#	c #3E3E3E",
"<#	c #252525",
"[#	c #151515",
"}#	c #010101",
"|#	c #161616",
"1#	c #262626",
"2#	c #686868",
"3#	c #C4C4C4",
"4#	c #EDEDED",
"5#	c #7E7E7E",
"6#	c #30A530",
"7#	c #252B25",
"8#	c #CACACA",
"9#	c #7D7D7D",
"0#	c #383838",
"a#	c #0F0F0F",
"b#	c #060606",
"c#	c #696969",
"d#	c #2D2D2D",
"e#	c #101010",
"f#	c #3C3C3C",
"g#	c #828282",
"h#	c #D6D6D6",
"i#	c #1F291F",
"j#	c #33B133",
"k#	c #294529",
"l#	c #D8D8D8",
"m#	c #898989",
"n#	c #242424",
"o#	c #A2A2A2",
"p#	c #E6E6E6",
"q#	c #9D9D9D",
"r#	c #494949",
"s#	c #292929",
"t#	c #8E8E8E",
"u#	c #CDCDCD",
"v#	c #244724",
"w#	c #3EDA3E",
"x#	c #1F5D1F",
"y#	c #111111",
"z#	c #4A4A4A",
"A#	c #888888",
"B#	c #7C7C7C",
"C#	c #5B5B5B",
"D#	c #5A5A5A",
"E#	c #EFEFEF",
"F#	c #EAEAEA",
"G#	c #090909",
"H#	c #272727",
"I#	c #444444",
"J#	c #767676",
"K#	c #474747",
"L#	c #226522",
"M#	c #298829",
"N#	c #A5A5A5",
"O#	c #F6F6F6",
"P#	c #E2E2E2",
"Q#	c #838383",
"R#	c #323232",
"S#	c #9C9C9C",
"T#	c #E8E8E8",
"U#	c #979797",
"V#	c #282828",
"W#	c #8B8B8B",
"X#	c #F5F5F5",
"Y#	c #9B9B9B",
"Z#	c #101210",
"`#	c #33AF33",
" $	c #1E251E",
".$	c #CECECE",
"+$	c #5E5E5E",
"@$	c #3B3B3B",
"#$	c #DBDBDB",
"$$	c #DADADA",
"%$	c #B4B4B4",
"&$	c #373737",
"*$	c #606060",
"=$	c #D3D3D3",
"-$	c #1B241B",
";$	c #37B937",
">$	c #1C291C",
",$	c #DFDFDF",
"'$	c #0A0A0A",
")$	c #1D1D1D",
"!$	c #909090",
"~$	c #C5C5C5",
"{$	c #162716",
"]$	c #3ACB3A",
"^$	c #38C738",
"/$	c #0D1D0D",
"($	c #A9A9A9",
"_$	c #C3C3C3",
":$	c #7B7B7B",
"<$	c #191919",
"[$	c #232323",
"}$	c #2C2C2C",
"|$	c #2B2B2B",
"1$	c #343434",
"2$	c #808080",
"3$	c #C7C7C7",
"4$	c #9F9F9F",
"5$	c #102110",
"6$	c #3ECF3E",
"7$	c #38BF38",
"8$	c #071107",
"9$	c #555555",
"0$	c #181818",
"a$	c #4D4D4D",
"b$	c #A6A6A6",
"c$	c #BCBCBC",
"d$	c #E7E7E7",
"e$	c #E9E9E9",
"f$	c #CCCCCC",
"g$	c #BBBBBB",
"h$	c #8A8A8A",
"i$	c #4B4B4B",
"j$	c #2F2F2F",
"k$	c #171717",
"l$	c #464646",
"m$	c #091A09",
"n$	c #3BCB3B",
"o$	c #32AC32",
"p$	c #7F7F7F",
"q$	c #AFAFAF",
"r$	c #F8F8F8",
"s$	c #ADADAD",
"t$	c #484848",
"u$	c #071507",
"v$	c #38C338",
"w$	c #288928",
"x$	c #3A3A3A",
"y$	c #F0F0F0",
"z$	c #E5E5E5",
"A$	c #1A551A",
"B$	c #505050",
"C$	c #F7F7F7",
"D$	c #8D8D8D",
"E$	c #717171",
"F$	c #575757",
"G$	c #363636",
"H$	c #1F1F1F",
"I$	c #202020",
"J$	c #585858",
"K$	c #8F8F8F",
"L$	c #1F621F",
"M$	c #37B837",
"N$	c #0E1C0E",
"O$	c #A3A3A3",
"P$	c #797979",
"Q$	c #121212",
"R$	c #0C1F0C",
"S$	c #37C037",
"T$	c #515151",
"U$	c #545454",
"V$	c #D4D4D4",
"W$	c #267B26",
"X$	c #40D840",
"Y$	c #1F561F",
"Z$	c #242724",
"`$	c #565656",
" %	c #1E231E",
".%	c #246224",
"+%	c #41DD41",
"@%	c #3ED63E",
"#%	c #309E30",
"$%	c #1F601F",
"%%	c #0F270F",
"&%	c #040804",
"*%	c #0F2A0F",
"=%	c #1F641F",
"-%	c #30A130",
";%	c #030603",
">%	c #153F15",
",%	c #257225",
"'%	c #35A635",
")%	c #3FD43F",
"!%	c #3AC63A",
"~%	c #267726",
"{%	c #195019",
"]%	c #0F300F",
"^%	c #0A1B0A",
"/%	c #1B521B",
"(%	c #267A26",
"_%	c #30A230",
":%	c #39C839",
"<%	c #3EDC3E",
"[%	c #3BCA3B",
"}%	c #2E9D2E",
"|%	c #288528",
"1%	c #237023",
"2%	c #1B4D1B",
"3%	c #174417",
"4%	c #153D15",
"5%	c #103810",
"6%	c #194F19",
"7%	c #1D5D1D",
"8%	c #237123",
"9%	c #2F9E2F",
"0%	c #36B636",
"a%	c #40E540",
". + + + + + + + + + + + + + + + + + + + + + + + + + + + + + + + + + + + + + + + + + + + + + + + + + + + + + + + + + + + + + + + + + + + + + + ",
"+ @ @ @ @ @ @ @ @ @ @ @ @ @ @ @ @ @ @ @ @ @ @ @ @ @ @ @ @ @ @ @ @ @ @ @ @ @ @ @ @ @ @ @ @ @ @ @ @ @ @ @ @ @ @ @ @ @ @ @ @ @ @ @ @ @ @ @ @ @ @ ",
"+ @ @ @ @ @ @ @ @ @ @ @ @ @ @ @ @ @ @ @ @ @ @ @ @ @ @ @ @ @ @ @ @ @ @ @ @ @ @ @ @ @ @ @ @ @ @ @ @ @ @ @ @ @ @ @ @ @ @ @ @ @ @ @ @ @ @ @ @ @ @ ",
"+ @ @ @ @ @ @ @ @ @ @ @ @ @ @ @ @ @ @ @ @ @ @ @ @ @ @ @ @ @ @ @ @ @ @ @ @ @ @ @ @ @ @ @ @ @ @ @ @ @ @ @ @ @ @ @ @ @ @ @ @ @ @ @ @ @ @ @ @ @ @ ",
"+ @ @ @ @ @ @ @ @ @ @ @ @ @ @ @ @ @ @ @ @ @ @ @ @ @ @ @ @ @ @ @ @ @ @ @ @ @ @ @ @ @ @ @ @ @ @ @ @ @ @ @ @ @ @ @ @ @ @ @ @ @ @ @ @ @ @ @ @ @ @ ",
"+ @ @ @ @ @ @ @ @ @ @ @ @ @ @ @ @ @ @ @ @ @ @ @ @ @ @ @ @ @ @ @ @ @ @ @ @ @ @ @ @ @ @ @ @ @ @ @ @ @ @ @ @ @ @ @ @ @ @ @ @ @ @ @ @ @ @ @ @ @ @ ",
"+ @ @ @ @ @ @ @ @ @ @ @ @ @ @ @ @ @ @ @ @ @ @ @ @ @ @ @ @ @ @ @ @ @ @ @ @ @ @ @ @ @ @ @ @ @ @ @ @ @ @ @ @ @ @ @ @ @ @ @ @ @ @ @ @ @ @ @ @ @ @ ",
"+ @ @ @ @ @ @ @ @ @ @ @ @ @ @ @ @ @ @ @ @ @ @ @ @ @ @ @ @ @ @ @ @ @ @ # $ @ @ @ @ @ @ @ @ @ @ @ @ @ @ @ @ @ @ @ @ @ @ @ @ @ @ @ @ @ @ @ @ @ @ ",
"+ @ @ @ @ @ @ @ @ @ @ @ @ @ @ @ @ @ @ @ @ @ @ @ @ @ @ @ @ @ @ @ @ % & * = - ; @ @ @ @ @ @ @ @ @ @ @ @ @ @ @ @ @ @ @ @ @ @ @ @ @ @ @ @ @ @ @ @ ",
"+ @ @ @ @ @ @ @ @ @ @ @ @ @ @ @ @ @ @ @ @ @ @ @ @ @ @ @ @ @ @ @ > , ' ' ' ' ) ! @ @ @ @ @ @ @ @ @ @ @ @ @ @ @ @ @ @ @ @ @ @ @ @ @ @ @ @ @ @ @ ",
"+ @ @ @ @ @ @ @ @ @ @ @ @ @ @ @ @ @ @ @ @ @ @ @ @ @ @ @ @ @ @ @ ~ { ' ' ' ' ] ^ @ @ @ @ @ @ @ @ @ @ @ @ @ @ @ @ @ @ @ @ @ @ @ @ @ @ @ @ @ @ @ ",
"+ @ @ @ @ @ @ @ @ @ @ @ @ @ @ @ @ @ @ @ @ @ @ @ @ @ @ @ @ @ @ @ / ' ' ' ' ' ( _ @ @ @ @ @ @ @ @ @ @ @ @ @ @ @ @ @ @ @ @ @ @ @ @ @ @ @ @ @ @ @ ",
"+ @ @ @ @ @ @ @ @ @ @ @ @ @ @ @ @ @ @ @ @ @ @ @ @ @ @ @ @ @ @ @ : < ' ' ' ' { [ @ @ @ @ @ @ @ @ @ @ @ @ @ @ @ @ @ @ @ @ @ @ @ @ @ @ @ @ @ @ @ ",
"+ @ @ @ @ @ @ @ @ @ @ @ @ @ @ @ @ @ @ @ @ @ @ @ @ @ @ @ @ @ @ @ } | ' ' ' ' 1 # @ @ @ @ @ @ @ @ @ @ @ @ @ @ @ @ @ @ @ @ @ @ @ @ @ @ @ @ @ @ @ ",
"+ @ @ @ @ @ @ @ @ @ @ @ @ @ @ @ @ @ @ @ 2 2 @ @ @ @ @ @ @ @ @ @ @ 3 4 ' 5 6 7 @ @ @ @ @ @ @ @ @ @ @ 8 9 @ @ @ @ @ @ @ @ @ @ @ @ @ @ @ @ @ @ @ ",
"+ @ @ @ @ @ @ @ @ @ @ @ @ @ @ @ @ @ @ 0 a b c d @ @ @ @ @ @ @ @ @ @ e f g h @ @ @ @ @ @ @ @ @ @ i j k l m @ @ @ @ @ @ @ @ @ @ @ @ @ @ @ @ @ @ ",
"+ @ @ @ @ @ @ @ @ @ @ @ @ @ @ @ @ @ n o ' ' ' p @ @ @ @ @ @ @ @ @ @ q r s t @ @ @ @ @ @ @ @ @ u v ' ' ' w x @ @ @ @ @ @ @ @ @ @ @ @ @ @ @ @ @ ",
"+ @ @ @ @ @ @ @ @ @ @ @ @ @ @ @ @ y z ' ' ' ' A 8 @ @ @ @ @ @ @ @ @ $ B C D @ @ @ @ @ @ @ @ @ E F ' ' ' ' G @ @ @ @ @ @ @ @ @ @ @ @ @ @ @ @ @ ",
"+ @ @ @ @ @ @ @ @ @ @ @ @ @ @ @ @ H j ' ' ' ' I 9 @ @ @ @ @ @ @ @ @ J K L M @ @ @ @ @ @ @ @ @ N O ' ' ' ' P @ @ @ @ @ @ @ @ @ @ @ @ @ @ @ @ @ ",
"+ @ @ @ @ @ @ @ @ @ @ @ @ @ @ @ @ @ Q R ' ' ' S @ @ @ @ @ @ @ @ @ @ T U V W @ @ @ @ @ @ @ @ @ @ X ' ' ' Y Z @ @ @ @ @ @ @ @ @ @ @ @ @ @ @ @ @ ",
"+ @ @ @ @ @ @ @ @ @ @ @ @ @ @ @ @ @ @ [ ` '  .@ @ @ @ @ @ @ @ @ @ @ S ' ..+.@ @ @ @ @ @ @ @ @ @ H @.' #.$.@ @ @ @ @ @ @ @ @ @ @ @ @ @ @ @ @ @ ",
"+ @ @ @ @ %.&.*.E @ @ @ @ @ @ @ @ @ @ @ =.-.;.@ @ @ @ @ @ @ @ @ @ t >.' ' v H @ @ @ @ @ @ @ @ @ @ ,.'.).@ @ @ @ @ @ @ @ @ @ @ !.~.{.].@ @ @ @ ",
"+ @ @ @ ^./.(._.:.<.@ @ @ @ @ @ @ @ @ @ W [.}.@ @ @ @ @ @ @ @ @ @ |.1.' ' 2.3.@ @ @ @ @ @ @ @ @ @ 4.5.6.@ @ @ @ @ @ @ @ @ @ 7.l -.(.8.!.@ @ @ ",
"+ @ @ @ 9.' ' ' ' 0.h @ @ @ @ @ @ @ @ @ a.[.b.c.@ @ @ @ @ @ @ @ @ d.e.' ' f.g.@ @ @ @ @ @ @ @ @ h.i.j.k.@ @ @ @ @ @ @ @ @ ! l.' ' ' ' m.@ @ @ ",
"+ @ @ h n.' ' ' ' o.$ @ @ @ @ @ @ @ @ @ a.[.p.=.@ @ @ @ @ @ @ @ @ q.{ ' ' _.r.@ @ @ @ @ @ @ @ @ s...j.k.@ @ @ @ @ @ @ @ @ t.u.' ' ' ' v.u @ @ ",
"+ @ @ @ w.' ' ' ' x.y.@ @ @ @ @ @ @ @ @ a.[.' z.3.@ @ @ @ @ @ @ @ A.' ' ' ' B.@ @ @ @ @ @ @ @ C.:.' j.k.@ @ @ @ @ @ @ @ @ 3.D.' ' ' ' E.@ @ @ ",
"+ @ @ @ F.D.G.' ' H.@ @ @ @ @ @ @ @ @ @ a.[.' I.J.@ @ @ @ @ @ @ h K.' ' ' ' L.y @ @ @ @ @ @ @ M.N.' j.k.@ @ @ @ @ @ @ @ @ @ v ' ' < O.P.@ @ @ ",
"+ @ @ @ @ Q.R.S.' T.U.@ @ @ @ @ @ @ @ @ a.[.' ' V.W.@ @ @ @ @ @ X.Y.' ' ' ' Z.$ @ @ @ @ @ @ `. +' ' j.k.@ @ @ @ @ @ @ @ @ D .+++@+#+$+@ @ @ @ ",
"+ @ @ @ @ @ @ %+&+*+0 @ @ @ @ @ @ @ @ @ a.[.' ' =+-+@ @ @ @ @ @ ;+>+' ' ' ' ,+'+@ @ @ @ @ @ )+!+' ' j.k.@ @ @ @ @ @ @ @ @ ~+' {+D @ @ @ @ @ @ ",
"+ @ @ @ @ @ @ @ ]+' ^+/+@ @ @ @ @ @ @ @ a.[.' ' ' w.@ @ @ @ @ @ (+p.' ' ' ' N._+@ @ @ @ @ @ :+' ' ' j.k.@ @ @ @ @ @ @ @ R.<+++[+@ @ @ @ @ @ @ ",
"+ @ @ @ @ @ @ @ }+|+' = 1+@ @ @ @ @ @ @ a.[.' ' ' Y h.@ @ @ @ @ 2+' ' ' ' ' ' 3+@ @ @ @ @ 4+5+' ' ' j.k.@ @ @ @ @ @ @ 6+b.' 7+8+@ @ @ @ @ @ @ ",
"+ @ @ @ @ @ @ @ `./.' ' 9+0+@ @ @ @ @ @ a.[.' ' ' ..s.@ @ @ @ h a+' ' ' ' ' ' b+c+@ @ @ @ d+' ' ' ' j.k.@ @ @ @ @ @ e+f+' ' g+t @ @ @ @ @ @ @ ",
"+ @ @ @ @ @ @ @ @ h+< ' ' i+@ @ @ @ @ @ a.[.' ' ' ' j+9 @ @ @ k+l+' ' ' ' ' ' m+n+@ @ @ ; Z.' ' ' ' j.k.@ @ @ @ @ @ o+' ' { p+@ @ @ @ @ @ @ @ ",
"+ @ @ @ @ @ @ @ @ q+r+' ' s+t+@ @ @ @ @ a.[.' ' ' ' N.u+@ @ @ v+w+' ' ' ' ' ' x+y+@ @ @ z+A+' ' ' ' j.k.@ @ @ @ @ B+C+' ' D+k+@ @ @ @ @ @ @ @ ",
"+ @ @ @ @ @ @ @ @ @ E+' ' ' F+G+@ @ @ @ a.[.' ' ' ' ' H+I+@ @ J+G.' ' ' ' ' ' A+K+@ @ L+M+' ' ' ' ' j.k.@ @ @ @ 7.N+' ' ' O+@ @ @ @ @ @ @ @ @ ",
"+ @ @ @ @ @ @ @ @ @ J.P+' ' ' | k+@ @ @ a.[.' ' ' ' ' Q+R+@ @ S+' ' ' ' ' ' ' ' & @ @ T+'.' ' ' ' ' j.k.@ @ @ 7 {+' ' ' U+V+@ @ @ @ @ @ @ @ @ ",
"+ @ @ @ @ @ @ @ @ @ n+I ' ' ' ' W+@ @ @ )+P+' ' ' ' ' ' X+Y+=.Z+' ' ' ' ' ' ' ' `+ @.@+@' ' ' ' ' ' @@#@@ @ H $@' ' ' ' %@&@@ @ @ @ @ @ @ @ @ ",
"+ @ @ @ @ @ @ @ @ @ @ *@' ' ' ' =@-@@ @ ;@..' ' ' ' ' ' ' >@,@' ' ' ' ' ' ' ' ' ' '@)@' ' ' ' ' ' ' !@~@@ @ {@*+' ' ' ' ]@@ @ @ @ @ @ @ @ @ @ ",
"+ @ @ @ @ @ @ @ @ @ @ ^@/@' ' ' ' (@:+_@:@' ' ' ' ' ' ' ' ' ' ' ' ' ' ' ' ' ' ' ' ' ' ' ' ' ' ' ' ' ' F+<@[@C+' ' ' ' }@|@@ @ @ @ @ @ @ @ @ @ ",
"+ @ @ @ @ @ @ @ @ @ @ e 1@' ' ' ' ' ' ..' ' ' ' ' ' ' ' ' ' ' ' ' ' ' ' ' ' ' ' ' ' ' ' ' ' ' ' ' ' ' ' 2@' ' ' ' ' ' 3@h @ @ @ @ @ @ @ @ @ @ ",
"+ @ @ @ @ @ @ @ @ @ @ @ 4@5@' ' ' ' ' ' ' ' ' ' ' ' ' ' ' ' ' ' ' ' ' ' ' ' ' ' ' ' ' ' ' ' ' ' ' ' ' ' ' ' ' ' ' ' A+6@@ @ @ @ @ @ @ @ @ @ @ ",
"+ @ @ @ @ @ @ @ @ @ @ @ 7@R ' ' ' ' ' ' ' ' ' ' ' 8@9@0@a@b@c@d@e@f@g@h@h@i@f@e@d@j@k@l@m@n@o@' ' ' ' ' ' ' ' ' ' ' p@q@@ @ @ @ @ @ @ @ @ @ @ ",
"+ @ @ @ @ @ @ @ @ @ @ @ y r@' ' ' ' ' ' s@t@u@v@w@x@y@z@A@B@C@D@E@E@E@E@E@E@E@E@D@C@B@A@F@y@G@H@I@J@K@L@' ' ' ' ' ' M@@ @ @ @ @ @ @ @ @ @ @ @ ",
"+ @ @ @ @ @ @ @ @ @ @ @ @ N@>@' ' ' t@O@P@Q@B@R@E@E@E@E@E@E@E@E@R@S@T@T@T@T@S@R@E@E@E@E@E@E@E@E@R@U@V@W@X@Y@' ' ' '.Z@@ @ @ @ @ @ @ @ @ @ @ @ ",
"+ @ @ @ @ @ @ @ @ @ @ @ @ ; `@'  #.#+#T@E@E@E@T@@###$#%#&#*#=#-#;#>#X@d@d@X@,#v@-#=#'#)#!#~#{#U@S@E@E@E@C@]#;#++' ` 2 @ @ @ @ @ @ @ @ @ @ @ @ ",
"+ @ @ @ @ @ @ @ @ @ @ @ @ @ 4.++^#R@E@E@/#(#_#>#:#<#[# #*+' ' ' ' ' ' }#}#' ' ' ' ' ' *+ #|#1#b@2#w@3#4#E@E@R@5#' w.@ @ @ @ @ @ @ @ @ @ @ @ @ ",
"+ @ @ @ @ @ @ @ @ @ @ @ @ @ 6#7#z@E@8#9#0#a#' ' ' ' ' ' ' ' ' ' b#l@c#w@H@,#d#L@' ' ' ' ' ' ' ' ' ' e#f#g#$#E@h#i#j#@ @ @ @ @ @ @ @ @ @ @ @ @ ",
"+ @ @ @ @ @ @ @ @ @ @ @ @ @ !.k#l#m#n#' ' ' ' ' ' ' ' ' ' ' ' j@o#p#R@E@E@S@##q#r#' ' ' ' ' ' ' ' ' ' ' ' s#t#u#v#w#@ @ @ @ @ @ @ @ @ @ @ @ @ ",
"+ @ @ @ @ @ @ @ @ @ @ @ @ @ h x#J@y#z#-#A#B#;#C#u@1#8@' ' ' D#E#E@E@E@E@E@E@E@E@F#c@' ' ' G#H#I#d@v@9#A#J#K#9@b@L#y @ @ @ @ @ @ @ @ @ @ @ @ @ ",
"+ @ @ @ @ @ @ @ @ @ @ @ @ @ @ M#|#N#O#E@E@E@E@D@B@P#Q# #' ' R#S#F#E@E@E@E@E@R@T#U#V#' ' e#W#{#X#D@E@E@E@E@B@Y#Z#4@@ @ @ @ @ @ @ @ @ @ @ @ @ @ ",
"+ @ @ @ @ @ @ @ @ @ @ @ @ @ @ `# $Q@E@E@E@E@E@E@E@.$+$' ' ' ' b#@$9#x@#$$$%$h@&$L@' ' ' ' *$=$E@E@E@E@E@E@E@~#-$;$@ @ @ @ @ @ @ @ @ @ @ @ @ @ ",
"+ @ @ @ @ @ @ @ @ @ @ @ @ @ @ ;+>$.$E@E@E@E@E@,$W#a@' ' ' ' ' ' ' ' '$)$K@G#' ' ' ' ' ' ' ' &$!$##E@E@E@E@E@~${$]$@ @ @ @ @ @ @ @ @ @ @ @ @ @ ",
"+ @ @ @ @ @ @ @ @ @ @ @ @ @ @ ^$/$($E@E@@#_$:$l@' ' ' ' *+'$y#<$[$V#}$a@a@|$V#0@<$y#'$*+' ' ' ' 1$2$3$U@E@E@4$5$6$@ @ @ @ @ @ @ @ @ @ @ @ @ @ ",
"+ @ @ @ @ @ @ @ @ @ @ @ @ @ @ 7$8$9$S#:$u@n@b#0$a@a$v@W#b$c$u#l#P#d$e$4#4#e$d$z@l#f$g$N#h$I@i$j$k$s@[#l$9#q#j@m$n$@ @ @ @ @ @ @ @ @ @ @ @ @ @ ",
"+ @ @ @ @ @ @ @ @ @ @ @ @ @ @ o$N.' L@Y@i$p$q$=$/#r$R@E@E@E@E@E@E@E@E@E@E@E@E@E@E@E@E@E@E@R@r$F#~#s$9#t$0$L@' u$v$@ @ @ @ @ @ @ @ @ @ @ @ @ @ ",
"+ @ @ @ @ @ @ @ @ @ @ @ @ @ @ w$}#x$^#~#O#E@E@E@E@E@E@E@E@D@X#y$T#z$P#,$,$##z$T#y$X#D@E@E@E@E@E@E@E@E@X#y@A#1${ p+@ @ @ @ @ @ @ @ @ @ @ @ @ @ ",
"+ @ @ @ @ @ @ @ @ @ @ @ @ @ I+A$B$h#E@E@E@E@E@C$##+#s$D$E$F$u@G$|$1#[$H$I$[$1#|$&$I#J$.#K$q$f${#C$E@E@E@E@E@$#t$L$t @ @ @ @ @ @ @ @ @ @ @ @ @ ",
"+ @ @ @ @ @ @ @ @ @ @ @ @ @ M$N$O$E@E@C$Q@($P$i$H#y#s@' ' ' ' ' ' ' ' ' ' ' ' ' ' ' ' ' ' s@Q$s#j@B#s$$$r$E@E@U#R$S$@ @ @ @ @ @ @ @ @ @ @ @ @ ",
"+ @ @ @ @ @ @ @ @ @ @ @ @ @ p s##$.$t#T$H$s@' ' ' ' ' ' ' ' ' ' ' ' ' ' ' ' ' ' ' ' ' ' ' ' ' ' ' ' b#I$U$_#~#V$m@W$@ @ @ @ @ @ @ @ @ @ @ @ @ ",
"+ @ @ @ @ @ @ @ @ @ @ @ @ X$Y$Z$`$<$' ' ' ' ' ' ' ' ' ' ' ' ' ' ' ' ' ' ' ' ' ' ' ' ' ' ' ' ' ' ' ' ' ' ' ' K@F$ %.%+%@ @ @ @ @ @ @ @ @ @ @ @ ",
"+ @ @ @ @ @ @ @ @ @ @ @ @ @ @%#%$%%%'@' ' ' ' ' ' ' ' ' ' ' ' ' ' ' ' ' ' ' ' ' ' ' ' ' ' ' ' ' ' ' ' ' ' &%*%=%-%} @ @ @ @ @ @ @ @ @ @ @ @ @ ",
"+ @ @ @ @ @ @ @ @ @ @ @ @ @ @ @ t q+#+M@` <+p.' ' ' ' ' ' ' ' ' ' ' ' ' ' ' ' ' ' ' ' ' ' ' ' ' ' ;%m$>%,%'%)%t @ @ @ @ @ @ @ @ @ @ @ @ @ @ @ ",
"+ @ @ @ @ @ @ @ @ @ @ @ @ @ @ @ @ @ @ @ ].!%M.~%{%]%m$P+G.' ' ' ' ' ' ' ' ' ' ' ' ' ' G.] ^%`@/%(%_%:%$ @ @ @ @ @ @ @ @ @ @ @ @ @ @ @ @ @ @ @ ",
"+ @ @ @ @ @ @ @ @ @ @ @ @ @ @ @ @ @ @ @ @ @ @ @ q <%[%V+}%|%1%3@2%3%4%5%5%4%3%6%7%8%0 9%0%n$8 q @ @ @ @ @ @ @ @ @ @ @ @ @ @ @ @ @ @ @ @ @ @ @ ",
"+ @ @ @ @ @ @ @ @ @ @ @ @ @ @ @ @ @ @ @ @ @ @ @ @ @ @ @ @ @ @ t I+a%&@> > &@a%I+t @ @ @ @ @ @ @ @ @ @ @ @ @ @ @ @ @ @ @ @ @ @ @ @ @ @ @ @ @ @ ",
"+ @ @ @ @ @ @ @ @ @ @ @ @ @ @ @ @ @ @ @ @ @ @ @ @ @ @ @ @ @ @ @ @ @ @ @ @ @ @ @ @ @ @ @ @ @ @ @ @ @ @ @ @ @ @ @ @ @ @ @ @ @ @ @ @ @ @ @ @ @ @ ",
"+ @ @ @ @ @ @ @ @ @ @ @ @ @ @ @ @ @ @ @ @ @ @ @ @ @ @ @ @ @ @ @ @ @ @ @ @ @ @ @ @ @ @ @ @ @ @ @ @ @ @ @ @ @ @ @ @ @ @ @ @ @ @ @ @ @ @ @ @ @ @ ",
"+ @ @ @ @ @ @ @ @ @ @ @ @ @ @ @ @ @ @ @ @ @ @ @ @ @ @ @ @ @ @ @ @ @ @ @ @ @ @ @ @ @ @ @ @ @ @ @ @ @ @ @ @ @ @ @ @ @ @ @ @ @ @ @ @ @ @ @ @ @ @ ",
"+ @ @ @ @ @ @ @ @ @ @ @ @ @ @ @ @ @ @ @ @ @ @ @ @ @ @ @ @ @ @ @ @ @ @ @ @ @ @ @ @ @ @ @ @ @ @ @ @ @ @ @ @ @ @ @ @ @ @ @ @ @ @ @ @ @ @ @ @ @ @ ",
"+ @ @ @ @ @ @ @ @ @ @ @ @ @ @ @ @ @ @ @ @ @ @ @ @ @ @ @ @ @ @ @ @ @ @ @ @ @ @ @ @ @ @ @ @ @ @ @ @ @ @ @ @ @ @ @ @ @ @ @ @ @ @ @ @ @ @ @ @ @ @ ",
"+ @ @ @ @ @ @ @ @ @ @ @ @ @ @ @ @ @ @ @ @ @ @ @ @ @ @ @ @ @ @ @ @ @ @ @ @ @ @ @ @ @ @ @ @ @ @ @ @ @ @ @ @ @ @ @ @ @ @ @ @ @ @ @ @ @ @ @ @ @ @ "};
