/* XPM */
static char * ywbr_xpm[] = {
"71 71 354 2",
"  	c None",
". 	c #C4F9C4",
"+ 	c #94F494",
"@ 	c #42EC42",
"# 	c #45EB45",
"$ 	c #45E945",
"% 	c #44E544",
"& 	c #45E345",
"* 	c #48E248",
"= 	c #41C141",
"- 	c #3FB53F",
"; 	c #40B340",
"> 	c #38A938",
", 	c #3CA53C",
"' 	c #39A939",
") 	c #40B440",
"! 	c #3FB63F",
"~ 	c #43C343",
"{ 	c #49E749",
"] 	c #44EC44",
"^ 	c #47E047",
"/ 	c #43E243",
"( 	c #45E745",
"_ 	c #44EA44",
": 	c #48D448",
"< 	c #3DA73D",
"[ 	c #399139",
"} 	c #2F782F",
"| 	c #2A642A",
"1 	c #255325",
"2 	c #214821",
"3 	c #244E24",
"4 	c #43C143",
"5 	c #3B9E3B",
"6 	c #0D150D",
"7 	c #080C08",
"8 	c #080A08",
"9 	c #050805",
"0 	c #050605",
"a 	c #080B08",
"b 	c #131D13",
"c 	c #3FB13F",
"d 	c #41B641",
"e 	c #234123",
"f 	c #1D3E1D",
"g 	c #214C21",
"h 	c #285E28",
"i 	c #337533",
"j 	c #399039",
"k 	c #3DA83D",
"l 	c #48D748",
"m 	c #338233",
"n 	c #050705",
"o 	c #010101",
"p 	c #000000",
"q 	c #3EA73E",
"r 	c #399839",
"s 	c #020202",
"t 	c #060906",
"u 	c #3CB03C",
"v 	c #3A9A3A",
"w 	c #040404",
"x 	c #378B37",
"y 	c #317C31",
"z 	c #388F38",
"A 	c #318331",
"B 	c #378837",
"C 	c #2F772F",
"D 	c #44EB44",
"E 	c #3C983C",
"F 	c #3FAF3F",
"G 	c #46EB46",
"H 	c #2C6B2C",
"I 	c #1C2C1C",
"J 	c #2D652D",
"K 	c #234223",
"L 	c #030303",
"M 	c #254D25",
"N 	c #182718",
"O 	c #121212",
"P 	c #101010",
"Q 	c #090909",
"R 	c #939393",
"S 	c #CECECE",
"T 	c #8A8A8A",
"U 	c #060606",
"V 	c #BDBDBD",
"W 	c #FFFFFF",
"X 	c #B1B1B1",
"Y 	c #FEFEFE",
"Z 	c #FBFBFB",
"` 	c #F7F7F7",
" .	c #F2F2F2",
"..	c #EAEAEA",
"+.	c #E6E6E6",
"@.	c #E0E0E0",
"#.	c #DADADA",
"$.	c #D7D7D7",
"%.	c #D4D4D4",
"&.	c #D2D2D2",
"*.	c #D0D0D0",
"=.	c #D1D1D1",
"-.	c #D3D3D3",
";.	c #D6D6D6",
">.	c #D9D9D9",
",.	c #DCDCDC",
"'.	c #E4E4E4",
").	c #E7E7E7",
"!.	c #EEEEEE",
"~.	c #F3F3F3",
"{.	c #F9F9F9",
"].	c #FCFCFC",
"^.	c #A4A4A4",
"/.	c #BABABA",
"(.	c #A1A1A1",
"_.	c #878787",
":.	c #6F6F6F",
"<.	c #5A5A5A",
"[.	c #484848",
"}.	c #3B3B3B",
"|.	c #2E2E2E",
"1.	c #282828",
"2.	c #212121",
"3.	c #1B1B1B",
"4.	c #181818",
"5.	c #161616",
"6.	c #151515",
"7.	c #131313",
"8.	c #141414",
"9.	c #171717",
"0.	c #191919",
"a.	c #1D1D1D",
"b.	c #242424",
"c.	c #292929",
"d.	c #333333",
"e.	c #3E3E3E",
"f.	c #4C4C4C",
"g.	c #5E5E5E",
"h.	c #747474",
"i.	c #8B8B8B",
"j.	c #BCBCBC",
"k.	c #9A9A9A",
"l.	c #368936",
"m.	c #202020",
"n.	c #0A0A0A",
"o.	c #0B0B0B",
"p.	c #1F1F1F",
"q.	c #389238",
"r.	c #43C543",
"s.	c #1B3E1B",
"t.	c #1F471F",
"u.	c #49CE49",
"v.	c #3EAD3E",
"w.	c #162816",
"x.	c #1B301B",
"y.	c #3EB23E",
"z.	c #369336",
"A.	c #050505",
"B.	c #0D0D0D",
"C.	c #161B16",
"D.	c #339933",
"E.	c #43EB43",
"F.	c #2D7A2D",
"G.	c #868686",
"H.	c #979797",
"I.	c #A5A5A5",
"J.	c #B0B0B0",
"K.	c #C3C3C3",
"L.	c #C6C6C6",
"M.	c #D5D5D5",
"N.	c #CDCDCD",
"O.	c #969696",
"P.	c #858585",
"Q.	c #3C3C3C",
"R.	c #2F832F",
"S.	c #4EE74E",
"T.	c #255B25",
"U.	c #A9A9A9",
"V.	c #FAFAFA",
"W.	c #F1F1F1",
"X.	c #E8E8E8",
"Y.	c #D8D8D8",
"Z.	c #E9E9E9",
"`.	c #909090",
" +	c #306830",
".+	c #4FED4F",
"++	c #379137",
"@+	c #4E4E4E",
"#+	c #6C6C6C",
"$+	c #535353",
"%+	c #3D3D3D",
"&+	c #373737",
"*+	c #2F2F2F",
"=+	c #B3B3B3",
"-+	c #DDDDDD",
";+	c #383838",
">+	c #414141",
",+	c #B2B2B2",
"'+	c #303030",
")+	c #494949",
"!+	c #5F5F5F",
"~+	c #6D6D6D",
"{+	c #434343",
"]+	c #3F9C3F",
"^+	c #3A973A",
"/+	c #ABABAB",
"(+	c #1E1E1E",
"_+	c #272727",
":+	c #AAAAAA",
"<+	c #41A141",
"[+	c #080808",
"}+	c #1A1A1A",
"|+	c #2C2C2C",
"1+	c #B4B4B4",
"2+	c #585858",
"3+	c #3F3F3F",
"4+	c #454545",
"5+	c #474747",
"6+	c #0C0C0C",
"7+	c #636363",
"8+	c #A3A3A3",
"9+	c #B7B7B7",
"0+	c #C5C5C5",
"a+	c #F4F4F4",
"b+	c #F6F6F6",
"c+	c #C4C4C4",
"d+	c #B6B6B6",
"e+	c #A2A2A2",
"f+	c #545454",
"g+	c #9C9C9C",
"h+	c #9E9E9E",
"i+	c #919191",
"j+	c #7F7F7F",
"k+	c #777777",
"l+	c #808080",
"m+	c #E3E3E3",
"n+	c #7B7B7B",
"o+	c #929292",
"p+	c #9F9F9F",
"q+	c #E5E5E5",
"r+	c #252525",
"s+	c #262626",
"t+	c #5C5C5C",
"u+	c #CFCFCF",
"v+	c #505050",
"w+	c #848484",
"x+	c #6A6A6A",
"y+	c #4B4B4B",
"z+	c #656565",
"A+	c #6B6B6B",
"B+	c #E1E1E1",
"C+	c #767676",
"D+	c #4A4A4A",
"E+	c #A0A0A0",
"F+	c #DFDFDF",
"G+	c #F8F8F8",
"H+	c #757575",
"I+	c #ADADAD",
"J+	c #7E7E7E",
"K+	c #4F4F4F",
"L+	c #727272",
"M+	c #EBEBEB",
"N+	c #AEAEAE",
"O+	c #6E6E6E",
"P+	c #0E0E0E",
"Q+	c #323232",
"R+	c #959595",
"S+	c #AFAFAF",
"T+	c #EDEDED",
"U+	c #C1C1C1",
"V+	c #BEBEBE",
"W+	c #ECECEC",
"X+	c #949494",
"Y+	c #F0F0F0",
"Z+	c #DBDBDB",
"`+	c #FDFDFD",
" @	c #EFEFEF",
".@	c #2B2B2B",
"+@	c #828282",
"@@	c #1C1C1C",
"#@	c #2A2A2A",
"$@	c #232323",
"%@	c #616161",
"&@	c #3A923A",
"*@	c #3C993C",
"=@	c #46E646",
"-@	c #275D27",
";@	c #A8A8A8",
">@	c #717171",
",@	c #DEDEDE",
"'@	c #F5F5F5",
")@	c #595959",
"!@	c #296429",
"~@	c #48EB48",
"{@	c #308C30",
"]@	c #7A7A7A",
"^@	c #0B0C0B",
"/@	c #379837",
"(@	c #44BF44",
"_@	c #182E18",
":@	c #555555",
"<@	c #1A361A",
"[@	c #41C341",
"}@	c #49E549",
"|@	c #2B602B",
"1@	c #2A672A",
"2@	c #4AEA4A",
"3@	c #328C32",
"4@	c #B5B5B5",
"5@	c #090A09",
"6@	c #359435",
"7@	c #42BC42",
"8@	c #182C18",
"9@	c #1B351B",
"0@	c #43C243",
"a@	c #4AE64A",
"b@	c #285F28",
"c@	c #2B662B",
"d@	c #47EA47",
"e@	c #338D33",
"f@	c #339533",
"g@	c #45E845",
"h@	c #265526",
"i@	c #215D21",
"j@	c #42E942",
"k@	c #224F22",
"l@	c #1F561F",
"m@	c #204C20",
"n@	c #1E531E",
"o@	c #42BA42",
"p@	c #132213",
"q@	c #070707",
"r@	c #132913",
"s@	c #44C444",
"t@	c #307530",
"u@	c #337F33",
"v@	c #42EB42",
"w@	c #43E043",
"x@	c #1F411F",
"y@	c #244A24",
"z@	c #45E545",
"A@	c #43D843",
"B@	c #162B16",
"C@	c #1D381D",
"D@	c #45DE45",
"E@	c #1A341A",
"F@	c #1D3D1D",
"G@	c #43E143",
"H@	c #44E844",
"I@	c #2E762E",
"J@	c #1B3C1B",
"K@	c #317E31",
"L@	c #44E944",
"M@	c #44E344",
". + + + + + + + + + + + + + + + + + + + + + + + + + + + + + + + + + + + + + + + + + + + + + + + + + + + + + + + + + + + + + + + + + + + + + + ",
"+ @ @ @ @ @ @ @ @ @ @ @ @ @ @ @ @ @ @ @ @ @ @ @ @ @ @ @ @ @ @ @ @ @ @ @ @ @ @ @ @ @ @ @ @ @ @ @ @ @ @ @ @ @ @ @ @ @ @ @ @ @ @ @ @ @ @ @ @ @ @ ",
"+ @ @ @ @ @ @ @ @ @ @ @ @ @ @ @ @ @ @ @ @ @ @ @ @ @ @ @ @ @ @ @ @ @ @ @ @ @ @ @ @ @ @ @ @ @ @ @ @ @ @ @ @ @ @ @ @ @ @ @ @ @ @ @ @ @ @ @ @ @ @ ",
"+ @ @ @ @ @ @ @ @ @ @ @ @ @ @ @ @ @ @ @ @ @ @ @ @ @ @ @ @ @ @ @ @ @ @ @ @ @ @ @ @ @ @ @ @ @ @ @ @ @ @ @ @ @ @ @ @ @ @ @ @ @ @ @ @ @ @ @ @ @ @ ",
"+ @ @ @ @ @ @ @ @ @ @ @ @ @ @ @ @ @ @ @ # $ % & @ @ @ @ @ @ * = - ; > , , ' ) ! ~ { @ @ @ @ @ ] ^ / ( _ @ @ @ @ @ @ @ @ @ @ @ @ @ @ @ @ @ @ @ ",
"+ @ @ @ @ @ @ @ @ @ @ @ @ @ @ @ : < [ } | 1 2 3 4 @ @ @ @ @ 5 6 7 8 9 0 0 9 a 7 b c @ @ @ @ @ d e f g h i j k l @ @ @ @ @ @ @ @ @ @ @ @ @ @ @ ",
"+ @ @ @ @ @ @ @ @ @ @ @ @ @ @ @ m n o p p p p 0 q @ @ @ @ @ r s p p p p p p p p t u @ @ @ @ @ v w p p p p o n x @ @ @ @ @ @ @ @ @ @ @ @ @ @ @ ",
"+ @ @ @ @ @ @ @ @ @ @ @ @ @ @ @ y p p p p p p o z @ @ @ @ @ r s p p p p p p p p t u @ @ @ @ @ A p p p p p p p B @ @ @ @ @ @ @ @ @ @ @ @ @ @ @ ",
"+ @ @ @ @ @ @ @ @ @ @ @ @ @ @ @ y p p p p p p p C D D D D D E s p p p p p p p p t F D D D D G H p p p p p p p B @ @ @ @ @ @ @ @ @ @ @ @ @ @ @ ",
"+ @ @ @ @ @ @ @ @ @ @ @ @ @ @ @ y p p p p p p p I J J J J J K p p p p p p p p p L M J J J J J N p p p p p p p B @ @ @ @ @ @ @ @ @ @ @ @ @ @ @ ",
"+ @ @ @ @ @ @ @ @ @ @ @ @ @ @ @ y p O O O O O O O O O O O O O O O O O O O O O O O O O O O O O O O O O O O P p B @ @ @ @ @ @ @ @ @ @ @ @ @ @ @ ",
"+ @ @ @ @ @ @ @ @ @ @ @ @ @ @ @ y Q R S S S S S S S S S S S S S S S S S S S S S S S S S S S S S S S S S S T U B @ @ @ @ @ @ @ @ @ @ @ @ @ @ @ ",
"+ @ @ @ @ @ @ @ @ @ @ @ @ @ @ @ y Q V W W W W W W W W W W W W W W W W W W W W W W W W W W W W W W W W W W X U B @ @ @ @ @ @ @ @ @ @ @ @ @ @ @ ",
"+ @ @ @ @ @ @ @ @ @ @ @ @ @ @ @ y Q V W W W W Y Z `  ...+.@.#.$.%.&.*.*.*.=.-.;.>.,.'.).!.~.{.].W W W W W X U B @ @ @ @ @ @ @ @ @ @ @ @ @ @ @ ",
"+ @ @ @ @ @ @ @ @ @ @ @ @ @ @ @ y Q ^.=./.(._.:.<.[.}.|.1.2.3.4.5.6.7.7.7.8.6.9.0.a.b.c.d.e.f.g.h.i.^.j.-.k.U B @ @ @ @ @ @ @ @ @ @ @ @ @ @ @ ",
"+ @ @ @ @ @ @ @ @ @ @ @ @ @ @ @ l.p m.5.n.L p p p p p p p p p p p p p p p p p p p p p p p p p p p p L o.9.p.p q.@ @ @ @ @ @ @ @ @ @ @ @ @ @ @ ",
"+ @ @ @ @ @ @ @ @ @ @ @ @ @ @ @ r.s.p p p p p p p p p p p p p p p p p p p p p p p p p p p p p p p p p p p p t.u.@ @ @ @ @ @ @ @ @ @ @ @ @ @ @ ",
"+ @ @ @ @ @ @ @ @ @ @ @ @ @ @ @ @ v.w.p p p p p p p p p p p p p p p p p p p p p p p p p p p p p p p p p p x.y.@ @ @ @ @ @ @ @ @ @ @ @ @ @ @ @ ",
"+ @ @ @ @ @ @ @ @ @ @ @ @ @ @ @ @ @ z.O p p p p p o L A.n.o.B.O 5.5.9.9.9.9.5.5.O B.o.n.w L p p p p p p C.D.@ @ @ @ @ @ @ @ @ @ @ @ @ @ @ @ @ ",
"+ @ @ @ @ @ @ @ @ @ @ @ @ @ @ @ @ @ E.F.p p [.h.G.H.I.J.V K.L.S %.M.M.;.;.M.M.%.N.L.K.V J.I.O.P.h.Q.p p R.@ @ @ @ @ @ @ @ @ @ @ @ @ @ @ @ @ @ ",
"+ @ @ @ @ @ @ @ @ @ @ @ @ @ @ @ @ @ @ S.T.L U.Y ].V.`  .W.X.Z W Y.$.$.$.$.$.$.Y.W V.Z.W.~.` V.].Y `.p  +.+@ @ @ @ @ @ @ @ @ @ @ @ @ @ @ @ @ @ ",
"+ @ @ @ @ @ @ @ @ @ @ @ @ @ @ @ @ @ @ @ ++L @+#+g.$+[.%+&+*+=+-+;+4.4.9.9.4.4.>+).,+'+;+%+)+$+!+~+{+A.]+@ @ @ @ @ @ @ @ @ @ @ @ @ @ @ @ @ @ @ ",
"+ @ @ @ @ @ @ @ @ @ @ @ @ @ @ @ @ @ @ @ ^+s p p p p p p p L /+-+(+p p p p p p _+).:+L p p p p p p p w <+@ @ @ @ @ @ @ @ @ @ @ @ @ @ @ @ @ @ @ ",
"+ @ @ @ @ @ @ @ @ @ @ @ @ @ @ @ @ @ @ @ ^+s p p p p p p p L /+-+(+p p p p p p _+).:+L p p p p p p p w <+@ @ @ @ @ @ @ @ @ @ @ @ @ @ @ @ @ @ @ ",
"+ @ @ @ @ @ @ @ @ @ @ @ @ @ @ @ @ @ @ @ ^+s p L [+B.8.}+2.|+1+@.2+3+4+5+5+4+3+!+).=+|+m.0.8.6+[+L p w <+@ @ @ @ @ @ @ @ @ @ @ @ @ @ @ @ @ @ @ ",
"+ @ @ @ @ @ @ @ @ @ @ @ @ @ @ @ @ @ @ @ ^+U 7+8+9+0+=.>.@.).Z W ~.a+b+` ` b+a+~.W Z ).@.Y.*.c+d+e+f+A.<+@ @ @ @ @ @ @ @ @ @ @ @ @ @ @ @ @ @ @ ",
"+ @ @ @ @ @ @ @ @ @ @ @ @ @ @ @ @ @ @ @ ^+U g+'.>.#.W *.:+h+i+T j+k+l+m+,.n+k+l+i.o+p+:+Y.W Y.>.q+_.A.<+@ @ @ @ @ @ @ @ @ @ @ @ @ @ @ @ @ @ @ ",
"+ @ @ @ @ @ @ @ @ @ @ @ @ @ @ @ @ @ @ @ ^+s r+s+}+t+` h.L s p p p p 7.u+K.o.p p p p s L G.~.v+}+s+p.w <+@ @ @ @ @ @ @ @ @ @ @ @ @ @ @ @ @ @ @ ",
"+ @ @ @ @ @ @ @ @ @ @ @ @ @ @ @ @ @ @ @ ^+s p p p [.` :.p p p p p p 7.u+K.o.p p p p p p w+~.}.p p p w <+@ @ @ @ @ @ @ @ @ @ @ @ @ @ @ @ @ @ @ ",
"+ @ @ @ @ @ @ @ @ @ @ @ @ @ @ @ @ @ @ @ ^+s p p p [.` :.p p p p p p 7.u+K.o.p p p p p p w+~.}.p p p w <+@ @ @ @ @ @ @ @ @ @ @ @ @ @ @ @ @ @ @ ",
"+ @ @ @ @ @ @ @ @ @ @ @ @ @ @ @ @ @ @ @ ^+s p p p [.` :.p p p p p p 7.u+K.o.p p p p p p w+~.}.p p p w <+@ @ @ @ @ @ @ @ @ @ @ @ @ @ @ @ @ @ @ ",
"+ @ @ @ @ @ @ @ @ @ @ @ @ @ @ @ @ @ @ @ ^+s p p p [.` :.p p p p p p 7.u+K.o.p p p p p p w+~.}.p p p w <+@ @ @ @ @ @ @ @ @ @ @ @ @ @ @ @ @ @ @ ",
"+ @ @ @ @ @ @ @ @ @ @ @ @ @ @ @ @ @ @ @ ^+s P 4.m.x+` R 3+y+$+t+z+A+n+B+#.C+A+z+t+$+D+e.E+~.!+p.4.6+w <+@ @ @ @ @ @ @ @ @ @ @ @ @ @ @ @ @ @ @ ",
"+ @ @ @ @ @ @ @ @ @ @ @ @ @ @ @ @ @ @ @ ^+U _.$.F+Z.W b+~.G+V.].{.{.{.{.{.{.{.{.].V.G+~.{.W ).F+$.H+A.<+@ @ @ @ @ @ @ @ @ @ @ @ @ @ @ @ @ @ @ ",
"+ @ @ @ @ @ @ @ @ @ @ @ @ @ @ @ @ @ @ @ ^+U j+j.I+^.O.i.J+C+S '.#+v+K+K+K+K+v+L+M+N.C+j+i.H.I.N+V O+A.<+@ @ @ @ @ @ @ @ @ @ @ @ @ @ @ @ @ @ @ ",
"+ @ @ @ @ @ @ @ @ @ @ @ @ @ @ @ @ @ @ @ ^+s o.n.w L p p p L /+-+(+p p p p p p _+).:+L p p p L w n.[+w <+@ @ @ @ @ @ @ @ @ @ @ @ @ @ @ @ @ @ @ ",
"+ @ @ @ @ @ @ @ @ @ @ @ @ @ @ @ @ @ @ @ ^+s p p p p p p p L /+-+(+p p p p p p _+).:+L p p p p p p p w <+@ @ @ @ @ @ @ @ @ @ @ @ @ @ @ @ @ @ @ ",
"+ @ @ @ @ @ @ @ @ @ @ @ @ @ @ @ @ @ @ @ ^+s p p p p p p p L /+-+(+p p p p p p _+).:+L p p p p p p p w <+@ @ @ @ @ @ @ @ @ @ @ @ @ @ @ @ @ @ @ ",
"+ @ @ @ @ @ @ @ @ @ @ @ @ @ @ @ @ @ @ @ ^+s p p p p p p p L /+-+(+p p p p p p _+).:+L p p p p p p p w <+@ @ @ @ @ @ @ @ @ @ @ @ @ @ @ @ @ @ @ ",
"+ @ @ @ @ @ @ @ @ @ @ @ @ @ @ @ @ @ @ @ ^+s p p p L L A.[+P+/+-+c.n.n.n.n.n.n.Q+).:+B.[+A.L L p p p w <+@ @ @ @ @ @ @ @ @ @ @ @ @ @ @ @ @ @ @ ",
"+ @ @ @ @ @ @ @ @ @ @ @ @ @ @ @ @ @ @ @ ^+L 2+i.R+^./+S+9+j.T+Z U+V+V+V+V+V+V+K.Y W+j.9+S+/+^.X+T f.A.<+@ @ @ @ @ @ @ @ @ @ @ @ @ @ @ @ @ @ @ ",
"+ @ @ @ @ @ @ @ @ @ @ @ @ @ @ @ @ @ @ @ ^+U p+Y+Z...W ..Z+#.Y.Y.$.$.$.`+Z $.$.$.Y.Y.#.,. @W X.Z.W.T A.<+@ @ @ @ @ @ @ @ @ @ @ @ @ @ @ @ @ @ @ ",
"+ @ @ @ @ @ @ @ @ @ @ @ @ @ @ @ @ @ @ @ ^+s .@&+|+A+` +@@@}+0.4.4.4.#@u+K.$@4.4.4.0.}+@@o+~.%@|+;+b.w <+@ @ @ @ @ @ @ @ @ @ @ @ @ @ @ @ @ @ @ ",
"+ @ @ @ @ @ @ @ @ @ @ @ @ @ @ @ @ @ @ @ ^+s p p p [.` :.p p p p p p 7.u+K.o.p p p p p p w+~.}.p p p w <+@ @ @ @ @ @ @ @ @ @ @ @ @ @ @ @ @ @ @ ",
"+ @ @ @ @ @ @ @ @ @ @ @ @ @ @ @ @ @ @ @ ^+s p p p [.` :.p p p p p p 7.u+K.o.p p p p p p w+~.}.p p p w <+@ @ @ @ @ @ @ @ @ @ @ @ @ @ @ @ @ @ @ ",
"+ @ @ @ @ @ @ @ @ @ @ @ @ @ @ @ @ @ @ @ &@s p p p [.` :.p p p p p p 7.u+K.o.p p p p p p w+~.}.p p p w *@@ @ @ @ @ @ @ @ @ @ @ @ @ @ @ @ @ @ @ ",
"+ @ @ @ @ @ @ @ @ @ @ @ @ @ @ @ @ @ @ =@-@0.<.7+7+o+G+;@7+7+7+7+7+7+>@,@$.#+7+7+7+7+7+7+=+'@T 7+7+)@7.!@~@@ @ @ @ @ @ @ @ @ @ @ @ @ @ @ @ @ @ ",
"+ @ @ @ @ @ @ @ @ @ @ @ @ @ @ @ @ @ @ {@U w+{.{.{.{.Z {.{.{.{.{.{.{.{.Z Z {.{.{.{.{.{.{.V.Z {.{.{.{.]@^@/@@ @ @ @ @ @ @ @ @ @ @ @ @ @ @ @ @ @ ",
"+ @ @ @ @ @ @ @ @ @ @ @ @ @ @ @ @ @ (@_@p >+:@:@:@:@:@:@:@:@:@:@:@:@:@:@:@:@:@:@:@:@:@:@:@:@:@:@:@:@Q.p <@[@@ @ @ @ @ @ @ @ @ @ @ @ @ @ @ @ @ ",
"+ @ @ @ @ @ @ @ @ @ @ @ @ @ @ @ @ }@|@p 5.3.3.3.3.3.3.3.3.3.3.3.3.3.3.3.3.3.3.3.3.3.3.3.3.3.3.3.3.3.3.6.p 1@2@@ @ @ @ @ @ @ @ @ @ @ @ @ @ @ @ ",
"+ @ @ @ @ @ @ @ @ @ @ @ @ @ @ @ @ 3@A.e.4@Z+Z+Z+Z+Z+Z+Z+Z+Z+Z+Z+Z+Z+Z+Z+Z+Z+Z+Z+Z+Z+Z+Z+Z+Z+Z+Z+Z+Z+Z+4@;+5@6@@ @ @ @ @ @ @ @ @ @ @ @ @ @ @ @ ",
"+ @ @ @ @ @ @ @ @ @ @ @ @ @ @ @ 7@8@P I+W W W W W W W W W W W W W W W W W W W W W W W W W W W W W W W W ^.6+9@0@@ @ @ @ @ @ @ @ @ @ @ @ @ @ @ ",
"+ @ @ @ @ @ @ @ @ @ @ @ @ @ @ a@b@p 4+` W W W W W W W W W W W W W W W W W W W W W W W W W W W W W W W W  .%+p c@d@@ @ @ @ @ @ @ @ @ @ @ @ @ @ ",
"+ @ @ @ @ @ @ @ @ @ @ @ @ @ @ e@A.p @+Z+F+F+F+F+F+F+F+F+F+F+F+F+F+F+F+F+F+F+F+F+F+F+F+F+F+F+F+F+F+F+F+F+#.5+p Q f@@ @ @ @ @ @ @ @ @ @ @ @ @ @ ",
"+ @ @ @ @ @ @ @ @ @ @ @ @ @ g@h@p p A.m.m.m.m.m.m.m.m.m.m.m.m.m.m.m.m.m.m.m.m.m.m.m.m.m.m.m.m.m.m.m.m.m.m.s p p i@j@@ @ @ @ @ @ @ @ @ @ @ @ @ ",
"+ @ @ @ @ @ @ @ @ @ @ @ @ @ g@k@p p p p p p p p p p p p p p p p p p p p p p p p p p p p p p p p p p p p p p p p l@j@@ @ @ @ @ @ @ @ @ @ @ @ @ ",
"+ @ @ @ @ @ @ @ @ @ @ @ @ @ g@k@p p p p p p p p p p p p p p p p p p p p p p p p p p p p p p p p p p p p p p p p l@j@@ @ @ @ @ @ @ @ @ @ @ @ @ ",
"+ @ @ @ @ @ @ @ @ @ @ @ @ @ g@k@p p p p p p p p p p p p p p p p p p p p p p p p p p p p p p p p p p p p p p p p l@j@@ @ @ @ @ @ @ @ @ @ @ @ @ ",
"+ @ @ @ @ @ @ @ @ @ @ @ @ @ g@k@p U U U U U U U U U U U U U U U U U U U U U U U U U U U U U U U U U U U U U U p l@j@@ @ @ @ @ @ @ @ @ @ @ @ @ ",
"+ @ @ @ @ @ @ @ @ @ @ @ @ @ g@k@&+e+=+=+=+=+=+=+=+=+=+=+=+=+=+=+=+=+=+=+=+=+=+=+=+=+=+=+=+=+=+=+=+=+=+=+=+=+h+|.l@j@@ @ @ @ @ @ @ @ @ @ @ @ @ ",
"+ @ @ @ @ @ @ @ @ @ @ @ @ @ g@m@2+;.$.$.$.$.$.$.$.$.$.$.$.$.$.$.$.$.$.$.$.$.$.$.$.$.$.$.$.$.$.$.$.$.$.$.$.$.-.f.n@j@@ @ @ @ @ @ @ @ @ @ @ @ @ ",
"+ @ @ @ @ @ @ @ @ @ @ @ @ @ o@p@q@9.9.9.9.9.9.9.9.9.9.9.9.9.9.9.9.9.9.9.9.9.9.9.9.9.9.9.9.9.9.9.9.9.9.9.9.9.9.L r@s@@ @ @ @ @ @ @ @ @ @ @ @ @ ",
"+ @ @ @ @ @ @ @ @ @ @ @ @ E.t@p p p p p p p p p p p p p p p p p p p p p p p p p p p p p p p p p p p p p p p p p p u@v@@ @ @ @ @ @ @ @ @ @ @ @ ",
"+ @ @ @ @ @ @ @ @ @ @ @ @ w@x@p p p p p p p p p p p p p p p p p p p p p p p p p p p p p p p p p p p p p p p p p p y@z@@ @ @ @ @ @ @ @ @ @ @ @ ",
"+ @ @ @ @ @ @ @ @ @ @ @ @ A@B@p p p p p p p p p p p p p p p p p p p p p p p p p p p p p p p p p p p p p p p p p p C@^ @ @ @ @ @ @ @ @ @ @ @ @ ",
"+ @ @ @ @ @ @ @ @ @ @ @ @ D@E@p p p p p p p p p p p p p p p p p p p p p p p p p p p p p p p p p p p p p p p p p p F@G@@ @ @ @ @ @ @ @ @ @ @ @ ",
"+ @ @ @ @ @ @ @ @ @ @ @ @ H@I@J@J@J@J@J@J@J@J@J@J@J@J@J@J@J@J@J@J@J@J@J@J@J@J@J@J@J@J@J@J@J@J@J@J@J@J@J@J@J@J@J@J@K@L@@ @ @ @ @ @ @ @ @ @ @ @ ",
"+ @ @ @ @ @ @ @ @ @ @ @ @ @ M@/ / / / / / / / / / / / / / / / / / / / / / / / / / / / / / / / / / / / / / / / / / z@@ @ @ @ @ @ @ @ @ @ @ @ @ ",
"+ @ @ @ @ @ @ @ @ @ @ @ @ @ @ @ @ @ @ @ @ @ @ @ @ @ @ @ @ @ @ @ @ @ @ @ @ @ @ @ @ @ @ @ @ @ @ @ @ @ @ @ @ @ @ @ @ @ @ @ @ @ @ @ @ @ @ @ @ @ @ ",
"+ @ @ @ @ @ @ @ @ @ @ @ @ @ @ @ @ @ @ @ @ @ @ @ @ @ @ @ @ @ @ @ @ @ @ @ @ @ @ @ @ @ @ @ @ @ @ @ @ @ @ @ @ @ @ @ @ @ @ @ @ @ @ @ @ @ @ @ @ @ @ ",
"+ @ @ @ @ @ @ @ @ @ @ @ @ @ @ @ @ @ @ @ @ @ @ @ @ @ @ @ @ @ @ @ @ @ @ @ @ @ @ @ @ @ @ @ @ @ @ @ @ @ @ @ @ @ @ @ @ @ @ @ @ @ @ @ @ @ @ @ @ @ @ "};
