/* XPM */
static char * bbbg_xpm[] = {
"71 71 444 2",
"  	c None",
". 	c #C4F9C4",
"+ 	c #95F495",
"@ 	c #42EC42",
"# 	c #43EC43",
"$ 	c #226022",
"% 	c #213E21",
"& 	c #1E381E",
"* 	c #213F21",
"= 	c #276827",
"- 	c #44EC44",
"; 	c #1A2D1A",
"> 	c #0B0B0B",
", 	c #171717",
"' 	c #6A6A6A",
") 	c #8F8F8F",
"! 	c #5B5B5B",
"~ 	c #121212",
"{ 	c #090909",
"] 	c #1B351B",
"^ 	c #213221",
"/ 	c #656565",
"( 	c #242424",
"_ 	c #4C4C4C",
": 	c #C0C0C0",
"< 	c #FFFFFF",
"[ 	c #B8B8B8",
"} 	c #404040",
"| 	c #383838",
"1 	c #5E5E5E",
"2 	c #192E19",
"3 	c #C6C6C6",
"4 	c #B2B2B2",
"5 	c #3E3E3E",
"6 	c #363636",
"7 	c #A7A7A7",
"8 	c #A0A0A0",
"9 	c #2A2A2A",
"0 	c #4A4A4A",
"a 	c #BFBFBF",
"b 	c #B1B1B1",
"c 	c #C4C4C4",
"d 	c #515151",
"e 	c #141414",
"f 	c #131313",
"g 	c #606060",
"h 	c #D8D8D8",
"i 	c #E3E3E3",
"j 	c #616161",
"k 	c #000000",
"l 	c #707070",
"m 	c #F7F7F7",
"n 	c #D1D1D1",
"o 	c #878787",
"p 	c #808080",
"q 	c #696969",
"r 	c #DFDFDF",
"s 	c #848484",
"t 	c #444444",
"u 	c #2C2C2C",
"v 	c #999999",
"w 	c #202020",
"x 	c #585858",
"y 	c #7B7B7B",
"z 	c #132513",
"A 	c #1A1A1A",
"B 	c #1C1C1C",
"C 	c #7E7E7E",
"D 	c #C3C3C3",
"E 	c #6D6D6D",
"F 	c #151515",
"G 	c #161616",
"H 	c #132813",
"I 	c #282828",
"J 	c #333333",
"K 	c #272727",
"L 	c #232323",
"M 	c #AEAEAE",
"N 	c #E7E7E7",
"O 	c #DEDEDE",
"P 	c #ABABAB",
"Q 	c #1F331F",
"R 	c #797979",
"S 	c #4D4D4D",
"T 	c #7D7D7D",
"U 	c #C8C8C8",
"V 	c #969696",
"W 	c #353535",
"X 	c #919191",
"Y 	c #9E9E9E",
"Z 	c #C2C2C2",
"` 	c #246F24",
" .	c #245D24",
"..	c #225222",
"+.	c #1F511F",
"@.	c #245724",
"#.	c #276027",
"$.	c #266D26",
"%.	c #30A130",
"&.	c #45EC45",
"*.	c #152715",
"=.	c #424242",
"-.	c #FBFBFB",
";.	c #FAFAFA",
">.	c #132913",
",.	c #258025",
"'.	c #246C24",
").	c #256025",
"!.	c #225422",
"~.	c #255F25",
"{.	c #247024",
"].	c #36B136",
"^.	c #1D4C1D",
"/.	c #132213",
"(.	c #070907",
"_.	c #151715",
":.	c #101610",
"<.	c #172B17",
"[.	c #1E501E",
"}.	c #277727",
"|.	c #767676",
"1.	c #FEFEFE",
"2.	c #6B6B6B",
"3.	c #267526",
"4.	c #1D4D1D",
"5.	c #142914",
"6.	c #0F150F",
"7.	c #161716",
"8.	c #222222",
"9.	c #111111",
"0.	c #070A07",
"a.	c #132413",
"b.	c #1C4F1C",
"c.	c #41DE41",
"d.	c #1E5A1E",
"e.	c #142214",
"f.	c #0C0C0C",
"g.	c #939393",
"h.	c #DBDBDB",
"i.	c #D4D4D4",
"j.	c #A2A2A2",
"k.	c #6C6C6C",
"l.	c #313131",
"m.	c #131913",
"n.	c #1B421B",
"o.	c #237023",
"p.	c #ACACAC",
"q.	c #070707",
"r.	c #256E25",
"s.	c #1B3F1B",
"t.	c #141914",
"u.	c #343434",
"v.	c #717171",
"w.	c #A4A4A4",
"x.	c #C7C7C7",
"y.	c #D5D5D5",
"z.	c #909090",
"A.	c #4E4E4E",
"B.	c #0A0A0A",
"C.	c #142514",
"D.	c #226122",
"E.	c #48ED48",
"F.	c #194C19",
"G.	c #F1F1F1",
"H.	c #C9C9C9",
"I.	c #8D8D8D",
"J.	c #3D3D3D",
"K.	c #454545",
"L.	c #595959",
"M.	c #7F7F7F",
"N.	c #AFAFAF",
"O.	c #CBCBCB",
"P.	c #505050",
"Q.	c #1B3B1B",
"R.	c #0E0E0E",
"S.	c #BCBCBC",
"T.	c #0D150D",
"U.	c #173717",
"V.	c #141814",
"W.	c #555555",
"X.	c #A5A5A5",
"Y.	c #ADADAD",
"Z.	c #434343",
"`.	c #CCCCCC",
" +	c #A6A6A6",
".+	c #474747",
"++	c #0F0F0F",
"@+	c #134913",
"#+	c #194E19",
"$+	c #E0E0E0",
"%+	c #626262",
"&+	c #5A5A5A",
"*+	c #646464",
"=+	c #5C5C5C",
"-+	c #494949",
";+	c #2E2E2E",
">+	c #191919",
",+	c #020202",
"'+	c #949494",
")+	c #898989",
"!+	c #A3A3A3",
"~+	c #2D2D2D",
"{+	c #303030",
"]+	c #3C3C3C",
"^+	c #181818",
"/+	c #676767",
"(+	c #C5C5C5",
"_+	c #DADADA",
":+	c #1D541D",
"<+	c #256825",
"[+	c #111211",
"}+	c #727272",
"|+	c #9A9A9A",
"1+	c #292929",
"2+	c #F2F2F2",
"3+	c #FDFDFD",
"4+	c #FCFCFC",
"5+	c #F8F8F8",
"6+	c #E9E9E9",
"7+	c #868686",
"8+	c #3B3B3B",
"9+	c #929292",
"0+	c #D0D0D0",
"a+	c #CDCDCD",
"b+	c #D2D2D2",
"c+	c #8E8E8E",
"d+	c #3F3F3F",
"e+	c #8A8A8A",
"f+	c #EBEBEB",
"g+	c #F9F9F9",
"h+	c #CECECE",
"i+	c #828282",
"j+	c #2B2B2B",
"k+	c #9F9F9F",
"l+	c #216921",
"m+	c #46EC46",
"n+	c #193319",
"o+	c #E2E2E2",
"p+	c #CFCFCF",
"q+	c #E5E5E5",
"r+	c #DCDCDC",
"s+	c #414141",
"t+	c #CACACA",
"u+	c #1F1F1F",
"v+	c #1B391B",
"w+	c #236723",
"x+	c #AAAAAA",
"y+	c #636363",
"z+	c #E4E4E4",
"A+	c #B7B7B7",
"B+	c #535353",
"C+	c #545454",
"D+	c #B5B5B5",
"E+	c #1E1E1E",
"F+	c #101210",
"G+	c #226B22",
"H+	c #1A401A",
"I+	c #464646",
"J+	c #EFEFEF",
"K+	c #686868",
"L+	c #BABABA",
"M+	c #888888",
"N+	c #ECECEC",
"O+	c #1D471D",
"P+	c #152515",
"Q+	c #B3B3B3",
"R+	c #737373",
"S+	c #252525",
"T+	c #262626",
"U+	c #BBBBBB",
"V+	c #182C18",
"W+	c #131E13",
"X+	c #080808",
"Y+	c #1D1D1D",
"Z+	c #484848",
"`+	c #060606",
" @	c #131F13",
".@	c #47ED47",
"+@	c #0F1A0F",
"@@	c #E1E1E1",
"#@	c #BDBDBD",
"$@	c #EAEAEA",
"%@	c #777777",
"&@	c #525252",
"*@	c #F3F3F3",
"=@	c #D9D9D9",
"-@	c #162016",
";@	c #152015",
">@	c #DDDDDD",
",@	c #F5F5F5",
"'@	c #050505",
")@	c #A8A8A8",
"!@	c #E6E6E6",
"~@	c #666666",
"{@	c #9B9B9B",
"]@	c #212121",
"^@	c #BEBEBE",
"/@	c #122012",
"(@	c #7C7C7C",
"_@	c #747474",
":@	c #2F2F2F",
"<@	c #1E411E",
"[@	c #1E4F1E",
"}@	c #575757",
"|@	c #C1C1C1",
"1@	c #5D5D5D",
"2@	c #1B1B1B",
"3@	c #D3D3D3",
"4@	c #E8E8E8",
"5@	c #5F5F5F",
"6@	c #F0F0F0",
"7@	c #F6F6F6",
"8@	c #4F4F4F",
"9@	c #247124",
"0@	c #121512",
"a@	c #959595",
"b@	c #B0B0B0",
"c@	c #040404",
"d@	c #B6B6B6",
"e@	c #4B4B4B",
"f@	c #030303",
"g@	c #A1A1A1",
"h@	c #141C14",
"i@	c #31A131",
"j@	c #1A381A",
"k@	c #393939",
"l@	c #323232",
"m@	c #B4B4B4",
"n@	c #373737",
"o@	c #A9A9A9",
"p@	c #1B451B",
"q@	c #236A23",
"r@	c #171A17",
"s@	c #8C8C8C",
"t@	c #9D9D9D",
"u@	c #1C251C",
"v@	c #237423",
"w@	c #1C4B1C",
"x@	c #9C9C9C",
"y@	c #7A7A7A",
"z@	c #1E551E",
"A@	c #193719",
"B@	c #1C411C",
"C@	c #237323",
"D@	c #838383",
"E@	c #818181",
"F@	c #8B8B8B",
"G@	c #3A3A3A",
"H@	c #172E17",
"I@	c #3DCF3D",
"J@	c #236523",
"K@	c #252825",
"L@	c #6F6F6F",
"M@	c #979797",
"N@	c #212921",
"O@	c #216B21",
"P@	c #565656",
"Q@	c #B9B9B9",
"R@	c #1E541E",
"S@	c #182E18",
"T@	c #0D0D0D",
"U@	c #183318",
"V@	c #205F20",
"W@	c #3C3D3C",
"X@	c #D6D6D6",
"Y@	c #323332",
"Z@	c #216521",
"`@	c #112111",
" #	c #F4F4F4",
".#	c #111D11",
"+#	c #152215",
"@#	c #266C26",
"##	c #030403",
"$#	c #EEEEEE",
"%#	c #101010",
"&#	c #060806",
"*#	c #267026",
"=#	c #256B25",
"-#	c #787878",
";#	c #6E6E6E",
">#	c #040604",
",#	c #256D25",
"'#	c #257725",
")#	c #0B0F0B",
"!#	c #0C120C",
"~#	c #2FA12F",
"{#	c #1A321A",
"]#	c #183618",
"^#	c #205D20",
"/#	c #070B07",
"(#	c #247324",
"_#	c #277327",
":#	c #080A08",
"<#	c #080C08",
"[#	c #257625",
"}#	c #246724",
"|#	c #EDEDED",
"1#	c #D7D7D7",
"2#	c #050705",
"3#	c #246B24",
"4#	c #215421",
"5#	c #205A20",
"6#	c #1E421E",
"7#	c #1E471E",
"8#	c #172D17",
"9#	c #101E10",
"0#	c #858585",
"a#	c #122312",
"b#	c #225622",
"c#	c #1A301A",
"d#	c #090E09",
"e#	c #0B100B",
"f#	c #205720",
"g#	c #1D551D",
"h#	c #1A371A",
"i#	c #101B10",
"j#	c #757575",
"k#	c #090B09",
"l#	c #0F1C0F",
"m#	c #1C3B1C",
"n#	c #205820",
"o#	c #257125",
"p#	c #225922",
"q#	c #1D401D",
"r#	c #0C170C",
"s#	c #070C07",
"t#	c #030503",
"u#	c #010101",
"v#	c #090D09",
"w#	c #0D180D",
"x#	c #267226",
"y#	c #257825",
"z#	c #1E441E",
"A#	c #1A341A",
"B#	c #152D15",
"C#	c #112911",
"D#	c #162A16",
"E#	c #102810",
"F#	c #162D16",
"G#	c #1A3B1A",
"H#	c #1F451F",
"I#	c #235123",
"J#	c #286028",
"K#	c #257925",
". + + + + + + + + + + + + + + + + + + + + + + + + + + + + + + + + + + + + + + + + + + + + + + + + + + + + + + + + + + + + + + + + + + + + + + ",
"+ @ @ @ @ @ @ @ @ @ @ @ @ @ @ @ @ @ @ @ @ @ @ @ @ @ @ @ @ @ @ @ @ @ @ @ @ @ @ @ @ @ @ @ @ @ @ @ @ @ @ @ @ @ @ @ @ @ @ @ @ @ @ @ @ @ @ @ @ @ @ ",
"+ @ @ @ @ @ @ @ @ @ @ @ @ @ @ @ @ @ @ @ @ @ @ @ @ @ @ @ @ @ @ @ @ @ @ @ @ @ @ @ @ @ @ @ @ @ @ @ @ @ @ @ @ @ @ @ @ @ @ @ @ @ @ @ @ @ @ @ @ @ @ ",
"+ @ @ @ @ @ @ @ @ @ @ @ @ @ @ @ @ @ @ @ @ @ @ @ @ @ @ @ @ @ @ @ @ @ @ @ @ @ @ @ @ @ @ @ @ @ @ @ @ @ @ @ @ @ @ @ @ @ @ @ @ @ @ @ @ @ @ @ @ @ @ ",
"+ @ @ @ @ @ @ @ @ @ @ @ @ @ @ @ @ @ @ @ @ @ @ @ @ @ @ @ @ @ @ @ @ @ @ @ @ @ @ @ @ @ @ @ @ @ @ @ @ @ @ @ @ @ @ @ @ @ @ @ @ @ @ @ @ @ @ @ @ @ @ ",
"+ @ @ @ @ @ @ @ @ @ @ @ @ @ @ @ @ @ @ @ @ @ @ @ @ @ @ @ @ @ @ @ @ @ @ @ @ @ @ @ @ @ @ @ @ @ @ @ @ @ @ @ @ @ @ @ @ @ @ @ @ @ @ @ @ @ @ @ @ @ @ ",
"+ @ @ @ @ @ @ @ @ @ @ @ @ @ @ @ @ @ @ @ @ @ @ @ @ @ @ @ @ @ @ # # # # # # # # # # @ @ @ @ @ @ @ @ @ @ @ @ @ @ @ @ @ @ @ @ @ @ @ @ @ @ @ @ @ @ ",
"+ @ @ @ @ @ @ @ @ @ @ @ @ @ @ @ @ @ @ @ @ @ @ @ @ @ @ @ @ @ $ % & & & & & & & & * = @ @ @ @ @ @ @ @ @ @ @ @ @ @ @ @ @ @ @ @ @ @ @ @ @ @ @ @ @ ",
"+ @ @ @ @ @ @ @ @ @ @ @ @ @ @ @ @ @ @ @ @ @ @ @ @ @ @ @ @ - ; > , ' ) ) ) ) ! ~ { ] - @ @ @ @ @ @ @ @ @ @ @ @ @ @ @ @ @ @ @ @ @ @ @ @ @ @ @ @ ",
"+ @ @ @ @ @ @ @ @ @ @ @ @ @ @ @ @ @ @ @ @ @ @ @ @ @ @ @ @ # ^ / ( _ : < < [ } | 1 2 # @ @ @ @ @ @ @ @ @ @ @ @ @ @ @ @ @ @ @ @ @ @ @ @ @ @ @ @ ",
"+ @ @ @ @ @ @ @ @ @ @ @ @ @ @ @ @ @ @ @ @ @ @ @ @ @ @ @ @ # ^ 3 4 5 6 7 8 9 0 a b 2 # @ @ @ @ @ @ @ @ @ @ @ @ @ @ @ @ @ @ @ @ @ @ @ @ @ @ @ @ ",
"+ @ @ @ @ @ @ @ @ @ @ @ @ @ @ @ @ @ @ @ @ @ @ @ @ @ @ @ @ # ^ 3 < c d e f g h < b 2 # @ @ @ @ @ @ @ @ @ @ @ @ @ @ @ @ @ @ @ @ @ @ @ @ @ @ @ @ ",
"+ @ @ @ @ @ @ @ @ @ @ @ @ @ @ @ @ @ @ @ @ @ @ @ @ @ @ @ @ # ^ 3 < i j k k l m < b 2 # @ @ @ @ @ @ @ @ @ @ @ @ @ @ @ @ @ @ @ @ @ @ @ @ @ @ @ @ ",
"+ @ @ @ @ @ @ @ @ @ @ @ @ @ @ @ @ @ @ @ @ @ @ @ @ @ @ @ @ # ^ 3 n 1 , o p > q r b 2 # @ @ @ @ @ @ @ @ @ @ @ @ @ @ @ @ @ @ @ @ @ @ @ @ @ @ @ @ ",
"+ @ @ @ @ @ @ @ @ @ @ @ @ @ @ @ @ @ @ @ @ @ @ @ @ @ @ @ @ # ^ s t u 8 < < v w x y 2 # @ @ @ @ @ @ @ @ @ @ @ @ @ @ @ @ @ @ @ @ @ @ @ @ @ @ @ @ ",
"+ @ @ @ @ @ @ @ @ @ @ @ @ @ @ @ @ @ @ @ @ @ @ @ @ @ @ @ @ # z A B C D D D D E F G H # @ @ @ @ @ @ @ @ @ @ @ @ @ @ @ @ @ @ @ @ @ @ @ @ @ @ @ @ ",
"+ @ @ @ @ @ @ @ @ @ @ @ @ @ @ @ @ @ @ @ @ @ @ @ @ @ @ @ @ # z ( I J J J J J J K L H # @ @ @ @ @ @ @ @ @ @ @ @ @ @ @ @ @ @ @ @ @ @ @ @ @ @ @ @ ",
"+ @ @ @ @ @ @ @ @ @ @ @ @ @ @ @ @ @ @ @ @ @ @ @ @ @ @ @ @ # ^ M N N N O r N N N P Q # @ @ @ @ @ @ @ @ @ @ @ @ @ @ @ @ @ @ @ @ @ @ @ @ @ @ @ @ ",
"+ @ @ @ @ @ @ @ @ @ @ @ @ @ @ @ @ @ @ @ @ @ @ @ @ @ @ @ @ # ^ 3 < D R _ S T U < D Q # @ @ @ @ @ @ @ @ @ @ @ @ @ @ @ @ @ @ @ @ @ @ @ @ @ @ @ @ ",
"+ @ @ @ @ @ @ @ @ @ @ @ @ @ @ @ @ @ @ @ @ @ @ @ @ @ @ @ @ # ^ 3 V W 1 X ) ! 6 Y Z Q # @ @ @ @ @ @ @ @ @ @ @ @ @ @ @ @ @ @ @ @ @ @ @ @ @ @ @ @ ",
"+ @ @ @ @ @ @ @ @ @ @ @ @ @ # - `  ...+.@.#.$.%.&.@ @ @ @ # *.=.( Y -.< < ;.v I t >.# @ @ @ # # ,.'.).@.+.!.~.{.- # @ @ @ @ @ @ @ @ @ @ @ @ @ ",
"+ @ @ @ @ @ @ @ @ @ @ @ @ ].^./.(.~ L 9 I w _.:.<.[.}.- @ # z k |.< < < < < 1.2.k H # @ # 3.4.5.6.7.w I 9 8.9.0.a.b.c.@ @ @ @ @ @ @ @ @ @ @ @ ",
"+ @ @ @ @ @ @ @ @ @ @ &.d.e.f.d g.U O O h.i.3 j.k.l.m.n.o.&.z > [ < < < < < < p.q.H - r.s.t.u.v.w.x.y.h.O O x.z.A.B.C.D.# @ @ @ @ @ @ @ @ @ @ ",
"+ @ @ @ @ @ @ @ @ @ E.F.q._ P G.H.I.1 =.J.K.L.M.N.O.8 P.t.Q.6.R.c < < < < < < S.> T.U.V.W.X.O.Y.T x t J.Z.j z.`.G. +.+++@+# @ @ @ @ @ @ @ @ @ ",
"+ @ @ @ @ @ @ @ @ @ #+k l $+: %+F A 5 &+*+=+-+;+>+l.p O.Y 5 k ,+'+< < < < < < )+k k t !+x.y ~+>+{+0 =+*+x ]+^+^+/+(+_+/ ,+:+@ @ @ @ @ @ @ @ @ ",
"+ @ @ @ @ @ @ @ @ <+[+}+;.|+1+{+o n 2+-.3+4+5+6+3 7+8+J 9+0+K.k J.a+< < < < Z u.k A.b+c+;+d+e+H.f+g+4+3+-.G.h+i+j+u k+6+/ m.l+@ @ @ @ @ @ @ @ ",
"+ @ @ @ @ @ @ @ m+n+S o+v G g p+< < < < < < < < < < q+e+I _ I K.K .+w.r+h.8 ]+j+s+u .+u ) 6+< < < < < < < < < < t+! u+k+_+K.v+m+@ @ @ @ @ @ @ ",
"+ @ @ @ @ @ @ @ w+[+x+: I y+z+< < < < < < < < < < < < < A+d+L x.H.p B+C+C+C+s h+D+E+Z.S.< < < < < < < < < < < < < r 1 ~+t+j.F+G+@ @ @ @ @ @ @ ",
"+ @ @ @ @ @ @ # H+I+J+K+8+y.< < < < < < < < < < < < < < < a d+! $+< L+7+M+a < h S =.c < < < < < < < < < < < < < < < p+{+}+N+8+O+# @ @ @ @ @ @ ",
"+ @ @ @ @ @ @ m+P+T h.L ) < < < < < < < < < < < < < < < < < Q+w R+w.L S+L T+7 E u U+< < < < < < < < < < < < < < < < < s j+i v.V+&.@ @ @ @ @ @ ",
"+ @ @ @ @ @ @ # W+j.S.u+h+< < < < < < < < < < < < < < < < < < e+X+Y+Z+n O.5 u+`+9+< < < < < < < < < < < < < < < < < < c E+3 V  @.@@ @ @ @ @ @ ",
"+ @ @ @ @ @ @ @ +@p.Y.T+@@< < < < < < < 3+#@4+< < < < < < < < $@.+k i+< < %@k &@2+< < < < < < < < *@#@1.< < < < < < < =@8.L+ +-@m+@ @ @ @ @ @ ",
"+ @ @ @ @ @ @ # ;@ +Q+( >@< < < < < < < 9+,+|.,@< < < < < < < < k+'@o < < y { )@< < < < < < < < !@~@q.{@< < < < < < < y.]@^@{@/@m+@ @ @ @ @ @ ",
"+ @ @ @ @ @ @ &./.c+D E+H.< < < < < < =@J { k (@< < < < < < < < f+J.*+3+;.x -+G.< < < < < < < 3+_@k > 8+@@< < < < < < : E+a+p <.&.@ @ @ @ @ @ ",
"+ @ @ @ @ @ @ # n+~@h.L |+< < < < < < e+{ C C+f.w.< < -.5+4+< < < 7+:@!@>@T+z.< < < -.5+-.< < |+'@=+C '@'+< < < < < < c+I r L.<@# @ @ @ @ @ @ ",
"+ @ @ @ @ @ @ @ [@J @@d }@5+< < < < G.K.P.,@|@u+K.c I.1@A.K+j.N+< H.2@ +{@u+3@< 4@Y ~@A.5@z.Z J.T+t+6@t P.7@< < < < ,@8@=+O u  .@ @ @ @ @ @ @ ",
"+ @ @ @ @ @ @ @ 9@0@p.a@9.b@m h (+h+c >+I.< 3+/ k 8.f K.S u c@A.#@2+=.A.Z+S m d@e@f@:@A.Z.++8.k l 1.< i+u+t+a+3 =@5+7 ++8 g@h@i@@ @ @ @ @ @ @ ",
"+ @ @ @ @ @ @ @ &.j@=+h.]+k@&@Y+e e u { A+< < |+f@l@N.m ;.y.:@`+8+#@R k k s m@~+`+n@r -.7@X.K '@ +< < o@`+~+f F E+&@W K.O d p@# @ @ @ @ @ @ @ ",
"+ @ @ @ @ @ @ @ @ q@r@w.|+'@]@z.Q+s@W { A+< < d@9.t@< < < !+K v.j+S a@'@{ v .+k@_@( P < < < a@9.: < < x+c@k@z.Q+s@E+B.w.|+u@v@@ @ @ @ @ @ @ @ ",
"+ @ @ @ @ @ @ @ @ - w@5 h+' 1+a+< < a ]+'+< < Q+K.J+< < b+J.s < x@> ' ^+u+K+R.)@< y@.+_+< < 6+5 a < < M+=.c < < c 8.v.t+W z@@ @ @ @ @ @ @ @ @ ",
"+ @ @ @ @ @ @ @ @ @ .@A@%+O.-+/+5+< < 7 2.-.< !+}+1.< ,@/ K r+< 2+} , 9.~ e 0 m < n u+E 4+< 3+/+b@< 5+*+N.< < G.1@&@O.! B@&.@ @ @ @ @ @ @ @ @ ",
"+ @ @ @ @ @ @ @ @ @ @ C@*.D@m@Y+E@< < m |.U < s F@< m T k K.g+< -.A.W.U+[ S x 4+< *@G@k M.3+< C X < : y@;.< < C 1+^@y@H@I@@ @ @ @ @ @ @ @ @ @ ",
"+ @ @ @ @ @ @ @ @ @ @ @ J@K@M i+f@E@m < Y L@f+&@~@Q+*+k k 9 `.-.L+T+M@< < s@j+^@-.: 8.k k 2.D+5@5@i ~@o@< *@M.k s@)@N@O@@ @ @ @ @ @ @ @ @ @ @ ",
"+ @ @ @ @ @ @ @ @ @ @ @ - [@_ h+s+k *+Z j.f.n@,+k f.k k k k l@P.K k P@S.Q@8@k 9 P.~+k k k k f.k X+n@9.P #@1 k 0 a+=.R@@ @ @ @ @ @ @ @ @ @ @ @ ",
"+ @ @ @ @ @ @ @ @ @ @ @ @ m+S@I.{@c@k G 2@k k k k k k k k k f@B.T@f G I K G f T@{ f@k k k k k k k k k B e k { w.D@U@m+@ @ @ @ @ @ @ @ @ @ @ @ ",
"+ @ @ @ @ @ @ @ @ @ @ @ @ @ V@W@w.S+k k k k k c@~ I Z.5@(@a@x+U+(+p+i.X@X@i.p+(+L+)@'+y@1@s+T+9.f@k k k k k j+ +Y@Z@@ @ @ @ @ @ @ @ @ @ @ @ @ ",
"+ @ @ @ @ @ @ @ @ @ @ @ @ @ &.`@A k k k , =.|.X.O.z+ #4+< < < < < < < < < < < < < < < < 4+*@i t+j.R+} F k k k 2@*.&.@ @ @ @ @ @ @ @ @ @ @ @ @ ",
"+ @ @ @ @ @ @ @ @ @ @ @ @ @ m+.#k f@Z.I.h+2+< < < < < 3+,@N+@@X@H.D : U+U+: D t+X@o+N+7@3+< < < < < G.O.)+d+k k +#.@@ @ @ @ @ @ @ @ @ @ @ @ @ ",
"+ @ @ @ @ @ @ @ @ @ @ @ @ @ @###E+9+N+< < < 3+$#b+N.M+/ I+{+8., ++> R., , T@> %#, 8.l..+/+F@b i.J+1.< < < 6+I.>+&#*#@ @ @ @ @ @ @ @ @ @ @ @ @ ",
"+ @ @ @ @ @ @ @ @ @ @ @ @ @ =#c@-#< < ;._+j.2.k@, `+k k k k k k E+j t@3 (+v 1@2@k k k k k k `+>+]+L@ +r+-.< < ;#>#,#@ @ @ @ @ @ @ @ @ @ @ @ @ ",
"+ @ @ @ @ @ @ @ @ @ @ @ @ @ '#)#%+c !+g K E+K ( A 9.c@k k k '@v.O.-.< < < < ;.x.E k k k k '@~ 2@S+K E+9 *+ +|@x !#~#@ @ @ @ @ @ @ @ @ @ @ @ @ ",
"+ @ @ @ @ @ @ @ @ @ @ @ @ @ &.{#k %#9 q 7 X@N z+=@O.k+u.k k g 1.< < < < < < < < 3+P@k k 5 w.a+_+z+N i.w./ K %#k ]#- @ @ @ @ @ @ @ @ @ @ @ @ @ ",
"+ @ @ @ @ @ @ @ @ @ @ @ @ @ @ R@k &@3@3+< < < < < < O t k k ]+D+-.< < < < < < g+b@W k k e@$+< < < < < < 4+h+0 f@^#@ @ @ @ @ @ @ @ @ @ @ @ @ @ ",
"+ @ @ @ @ @ @ @ @ @ @ @ @ @ @ *#(.T < < < < < < 1.[ &@k k k k , %+7 r+2+G.h.w.1@~ k k k k }@^@1.< < < < < < v./#(#@ @ @ @ @ @ @ @ @ @ @ @ @ @ ",
"+ @ @ @ @ @ @ @ @ @ @ @ @ @ @ _#:#)+< < < < g+c v.A k k k f@q.> %#2@6 8@A.W A %#> q.f@k k k E+%@H.;.< < < < (@<#[#@ @ @ @ @ @ @ @ @ @ @ @ @ @ ",
"+ @ @ @ @ @ @ @ @ @ @ @ @ @ @ }#q.i+$@|#1#k+=+>+++1+0 k.M+j.d@Z t+n i.y.y.i.n t+Z D+g@o ' Z+K R.2@g j.=@|#$@|.2#3#@ @ @ @ @ @ @ @ @ @ @ @ @ @ ",
"+ @ @ @ @ @ @ @ @ @ @ @ @ @ @ 4#k G ;+{+u+K L.z.c q+m 1.< < < 1.4+;.;.;.;.;.;.4+1.< < < 1.7@i Z I.W.S+w l.~+~ k 5#@ @ @ @ @ @ @ @ @ @ @ @ @ @ ",
"+ @ @ @ @ @ @ @ @ @ @ @ @ @ # 6#k k F P@{@_+g+< < -.$@n m@M@C 2.=+B+d P.P.d B+=+k.M.v D+b+f+-.< < g+1#V &@f k k 7## @ @ @ @ @ @ @ @ @ @ @ @ @ ",
"+ @ @ @ @ @ @ @ @ @ @ @ @ @ - 8#9.v.c 5+< < 2+H.g.1 n@~+W .+1@l E@I.) ) ) ) I.p L@=+I+u.u | j M@a+ #< < 7@a k.T@n+- @ @ @ @ @ @ @ @ @ @ @ @ @ ",
"+ @ @ @ @ @ @ @ @ @ @ @ @ @ - 9#> }@X t+x.0#-+l@_ C Y.b+$@7@4+< < < < < < < < < < -.,@6+0+P y -+J _ )+O.3 c+B+q.a#&.@ @ @ @ @ @ @ @ @ @ @ @ @ ",
"+ @ @ @ @ @ @ @ @ @ @ @ @ @ m+b#c#d#k f F `+k@g.b+J+;.< < < < < < < < < < < < < < < < < < ;.$#p+) 6 '@G ~ k e#{#f#- @ @ @ @ @ @ @ @ @ @ @ @ @ ",
"+ @ @ @ @ @ @ @ @ @ @ @ @ @ @ @ &.v@g#h#i#(.k B.Y+6 C+j#g.M |@n _+z+N N N N z+_+0+|@p.X R+&@u.B { k k#l#m#n#'#m+@ @ @ @ @ @ @ @ @ @ @ @ @ @ @ ",
"+ @ @ @ @ @ @ @ @ @ @ @ @ @ @ @ @ @ @ # m+o#p#q#*.r#s#t#k c@f.e 2@S+I I I I S+2@e > c@u#>#v#w#H 6#f#x#&.- @ @ @ @ @ @ @ @ @ @ @ @ @ @ @ @ @ @ ",
"+ @ @ @ @ @ @ @ @ @ @ @ @ @ @ @ @ @ @ @ @ @ @ &.m+&.y#3#~...z#Q.A#B#C#D#D#E#F#n+G#H#I#J#,#K#m+# # @ @ @ @ @ @ @ @ @ @ @ @ @ @ @ @ @ @ @ @ @ @ ",
"+ @ @ @ @ @ @ @ @ @ @ @ @ @ @ @ @ @ @ @ @ @ @ @ @ @ @ @ @ @ # # # # # E.E.# # # # # @ @ @ @ @ @ @ @ @ @ @ @ @ @ @ @ @ @ @ @ @ @ @ @ @ @ @ @ @ ",
"+ @ @ @ @ @ @ @ @ @ @ @ @ @ @ @ @ @ @ @ @ @ @ @ @ @ @ @ @ @ @ @ @ @ @ @ @ @ @ @ @ @ @ @ @ @ @ @ @ @ @ @ @ @ @ @ @ @ @ @ @ @ @ @ @ @ @ @ @ @ @ ",
"+ @ @ @ @ @ @ @ @ @ @ @ @ @ @ @ @ @ @ @ @ @ @ @ @ @ @ @ @ @ @ @ @ @ @ @ @ @ @ @ @ @ @ @ @ @ @ @ @ @ @ @ @ @ @ @ @ @ @ @ @ @ @ @ @ @ @ @ @ @ @ ",
"+ @ @ @ @ @ @ @ @ @ @ @ @ @ @ @ @ @ @ @ @ @ @ @ @ @ @ @ @ @ @ @ @ @ @ @ @ @ @ @ @ @ @ @ @ @ @ @ @ @ @ @ @ @ @ @ @ @ @ @ @ @ @ @ @ @ @ @ @ @ @ ",
"+ @ @ @ @ @ @ @ @ @ @ @ @ @ @ @ @ @ @ @ @ @ @ @ @ @ @ @ @ @ @ @ @ @ @ @ @ @ @ @ @ @ @ @ @ @ @ @ @ @ @ @ @ @ @ @ @ @ @ @ @ @ @ @ @ @ @ @ @ @ @ ",
"+ @ @ @ @ @ @ @ @ @ @ @ @ @ @ @ @ @ @ @ @ @ @ @ @ @ @ @ @ @ @ @ @ @ @ @ @ @ @ @ @ @ @ @ @ @ @ @ @ @ @ @ @ @ @ @ @ @ @ @ @ @ @ @ @ @ @ @ @ @ @ ",
"+ @ @ @ @ @ @ @ @ @ @ @ @ @ @ @ @ @ @ @ @ @ @ @ @ @ @ @ @ @ @ @ @ @ @ @ @ @ @ @ @ @ @ @ @ @ @ @ @ @ @ @ @ @ @ @ @ @ @ @ @ @ @ @ @ @ @ @ @ @ @ "};
