/* XPM */
static char * bbbd_xpm[] = {
"71 71 518 2",
"  	c None",
". 	c #C4F9C4",
"+ 	c #94F494",
"@ 	c #42EC42",
"# 	c #43EB43",
"$ 	c #45EB45",
"% 	c #44DE44",
"& 	c #389D38",
"* 	c #46C346",
"= 	c #42EB42",
"- 	c #308730",
"; 	c #2D752D",
"> 	c #46D846",
", 	c #359535",
"' 	c #020202",
") 	c #213B21",
"! 	c #46B246",
"~ 	c #42C042",
"{ 	c #111D11",
"] 	c #000000",
"^ 	c #2C772C",
"/ 	c #347D34",
"( 	c #1C3D1C",
"_ 	c #3FBE3F",
": 	c #358735",
"< 	c #162716",
"[ 	c #45C945",
"} 	c #368236",
"| 	c #111111",
"1 	c #275B27",
"2 	c #4AE34A",
"3 	c #45E845",
"4 	c #275527",
"5 	c #232323",
"6 	c #1B1B1B",
"7 	c #318031",
"8 	c #3A913A",
"9 	c #010101",
"0 	c #484848",
"a 	c #3E3E3E",
"b 	c #338733",
"c 	c #43D943",
"d 	c #172D17",
"e 	c #040404",
"f 	c #9A9A9A",
"g 	c #9E9E9E",
"h 	c #213721",
"i 	c #40BB40",
"j 	c #3EA73E",
"k 	c #040604",
"l 	c #8D8D8D",
"m 	c #1A2D1A",
"n 	c #3C9E3C",
"o 	c #3A963A",
"p 	c #0E180E",
"q 	c #0B0B0B",
"r 	c #BEBEBE",
"s 	c #E7E7E7",
"t 	c #2F2F2F",
"u 	c #255025",
"v 	c #41BF41",
"w 	c #43BE43",
"x 	c #0B110B",
"y 	c #262626",
"z 	c #6D6D6D",
"A 	c #080D08",
"B 	c #0C0C0C",
"C 	c #C5C5C5",
"D 	c #FCFCFC",
"E 	c #656565",
"F 	c #1D3E1D",
"G 	c #3CA23C",
"H 	c #45D345",
"I 	c #43CD43",
"J 	c #41BE41",
"K 	c #40B840",
"L 	c #40C140",
"M 	c #44D144",
"N 	c #44E644",
"O 	c #44CE44",
"P 	c #101D10",
"Q 	c #030303",
"R 	c #151515",
"S 	c #D2D2D2",
"T 	c #FFFFFF",
"U 	c #9F9F9F",
"V 	c #090E09",
"W 	c #132313",
"X 	c #0F1D0F",
"Y 	c #0A100A",
"Z 	c #090C09",
"` 	c #0B120B",
" .	c #122212",
"..	c #2C702C",
"+.	c #46E546",
"@.	c #3FAD3F",
"#.	c #0D130D",
"$.	c #353535",
"%.	c #646464",
"&.	c #191919",
"*.	c #181818",
"=.	c #D7D7D7",
"-.	c #D5D5D5",
";.	c #070707",
">.	c #0A0A0A",
",.	c #1A371A",
"'.	c #47C847",
").	c #45DF45",
"!.	c #44E844",
"~.	c #46E846",
"{.	c #275C27",
"].	c #474747",
"^.	c #BABABA",
"/.	c #686868",
"(.	c #161616",
"_.	c #575757",
":.	c #E5E5E5",
"<.	c #F6F6F6",
"[.	c #ADADAD",
"}.	c #D4D4D4",
"|.	c #B8B8B8",
"1.	c #818181",
"2.	c #454545",
"3.	c #121212",
"4.	c #193519",
"5.	c #245324",
"6.	c #2F792F",
"7.	c #3DA43D",
"8.	c #42B742",
"9.	c #0E150E",
"0.	c #343434",
"a.	c #C2C2C2",
"b.	c #A8A8A8",
"c.	c #131313",
"d.	c #4A4A4A",
"e.	c #EFEFEF",
"f.	c #FEFEFE",
"g.	c #F2F2F2",
"h.	c #BFBFBF",
"i.	c #767676",
"j.	c #282828",
"k.	c #223622",
"l.	c #44BD44",
"m.	c #2C722C",
"n.	c #050505",
"o.	c #989898",
"p.	c #8C8C8C",
"q.	c #303030",
"r.	c #B2B2B2",
"s.	c #D6D6D6",
"t.	c #7F7F7F",
"u.	c #242424",
"v.	c #1F371F",
"w.	c #3C963C",
"x.	c #4DEB4D",
"y.	c #46DB46",
"z.	c #1A341A",
"A.	c #383838",
"B.	c #EAEAEA",
"C.	c #CECECE",
"D.	c #858585",
"E.	c #AEAEAE",
"F.	c #C4C4C4",
"G.	c #616161",
"H.	c #0F120F",
"I.	c #1B331B",
"J.	c #296629",
"K.	c #3BA13B",
"L.	c #43D543",
"M.	c #42B342",
"N.	c #0A0E0A",
"O.	c #717171",
"P.	c #8F8F8F",
"Q.	c #1F1F1F",
"R.	c #070807",
"S.	c #182F18",
"T.	c #2D762D",
"U.	c #45C345",
"V.	c #318131",
"W.	c #A4A4A4",
"X.	c #AAAAAA",
"Y.	c #182C18",
"Z.	c #3BB03B",
"`.	c #45E745",
" +	c #245224",
".+	c #BDBDBD",
"++	c #3F3F3F",
"@+	c #0F110F",
"#+	c #2E562E",
"$+	c #338233",
"%+	c #47D247",
"&+	c #45DA45",
"*+	c #172C17",
"=+	c #505050",
"-+	c #EEEEEE",
";+	c #CACACA",
">+	c #BCBCBC",
",+	c #C0C0C0",
"'+	c #F8F8F8",
")+	c #080808",
"!+	c #2C622C",
"~+	c #42C142",
"{+	c #39A039",
"]+	c #464646",
"^+	c #101010",
"/+	c #090909",
"(+	c #757575",
"_+	c #898989",
":+	c #A6A6A6",
"<+	c #1C1C1C",
"[+	c #1C351C",
"}+	c #389C38",
"|+	c #44CD44",
"1+	c #204320",
"2+	c #4E4E4E",
"3+	c #A0A0A0",
"4+	c #727272",
"5+	c #747474",
"6+	c #F5F5F5",
"7+	c #D1D1D1",
"8+	c #171717",
"9+	c #2E2E2E",
"0+	c #E8E8E8",
"a+	c #8B8B8B",
"b+	c #161B16",
"c+	c #318631",
"d+	c #45EC45",
"e+	c #47EC47",
"f+	c #202020",
"g+	c #B5B5B5",
"h+	c #2C2C2C",
"i+	c #CFCFCF",
"j+	c #F4F4F4",
"k+	c #606060",
"l+	c #267726",
"m+	c #46EC46",
"n+	c #3DAB3D",
"o+	c #0E160E",
"p+	c #878787",
"q+	c #DDDDDD",
"r+	c #323232",
"s+	c #565656",
"t+	c #525252",
"u+	c #C8C8C8",
"v+	c #999999",
"w+	c #333333",
"x+	c #EDEDED",
"y+	c #C7C7C7",
"z+	c #2A2A2A",
"A+	c #2E832E",
"B+	c #47E347",
"C+	c #255425",
"D+	c #4B4B4B",
"E+	c #A7A7A7",
"F+	c #E0E0E0",
"G+	c #0F0F0F",
"H+	c #3A3A3A",
"I+	c #E2E2E2",
"J+	c #909090",
"K+	c #ABABAB",
"L+	c #888888",
"M+	c #172017",
"N+	c #389A38",
"O+	c #121412",
"P+	c #919191",
"Q+	c #8E8E8E",
"R+	c #E4E4E4",
"S+	c #0E190E",
"T+	c #265F26",
"U+	c #338333",
"V+	c #4ADC4A",
"W+	c #47E047",
"X+	c #214B21",
"Y+	c #555555",
"Z+	c #D9D9D9",
"`+	c #7C7C7C",
" @	c #B0B0B0",
".@	c #515151",
"+@	c #979797",
"@@	c #151815",
"#@	c #328532",
"$@	c #389638",
"%@	c #101110",
"&@	c #FDFDFD",
"*@	c #3B3B3B",
"=@	c #237723",
"-@	c #48D548",
";@	c #1E401E",
">@	c #5A5A5A",
",@	c #737373",
"'@	c #8A8A8A",
")@	c #257925",
"!@	c #2E7B2E",
"~@	c #B6B6B6",
"{@	c #6F6F6F",
"]@	c #212121",
"^@	c #0E0E0E",
"/@	c #379037",
"(@	c #38A938",
"_@	c #131E13",
":@	c #5B5B5B",
"<@	c #A9A9A9",
"[@	c #FBFBFB",
"}@	c #132113",
"|@	c #39A439",
"1@	c #47D447",
"2@	c #204A20",
"3@	c #DBDBDB",
"4@	c #929292",
"5@	c #808080",
"6@	c #363636",
"7@	c #214421",
"8@	c #47D547",
"9@	c #4CED4C",
"0@	c #2B6C2B",
"a@	c #2D2D2D",
"b@	c #E3E3E3",
"c@	c #B9B9B9",
"d@	c #222222",
"e@	c #868686",
"f@	c #182718",
"g@	c #1F471F",
"h@	c #192C19",
"i@	c #3BA73B",
"j@	c #338C33",
"k@	c #1E1E1E",
"l@	c #F7F7F7",
"m@	c #1A1A1A",
"n@	c #A2A2A2",
"o@	c #676767",
"p@	c #203820",
"q@	c #48AD48",
"r@	c #44D844",
"s@	c #46E446",
"t@	c #3FB33F",
"u@	c #182618",
"v@	c #AFAFAF",
"w@	c #F1F1F1",
"x@	c #4F4F4F",
"y@	c #CBCBCB",
"z@	c #495A49",
"A@	c #326E32",
"B@	c #1C2E1C",
"C@	c #1E3C1E",
"D@	c #39B239",
"E@	c #44E744",
"F@	c #255D25",
"G@	c #393939",
"H@	c #7A7A7A",
"I@	c #E9E9E9",
"J@	c #365736",
"K@	c #3C743C",
"L@	c #359035",
"M@	c #46CD46",
"N@	c #45D745",
"O@	c #1B2E1B",
"P@	c #1A421A",
"Q@	c #47C747",
"R@	c #46C746",
"S@	c #101B10",
"T@	c #777777",
"U@	c #828282",
"V@	c #192019",
"W@	c #389E38",
"X@	c #45E345",
"Y@	c #44E944",
"Z@	c #42B642",
"`@	c #1C211C",
" #	c #F3F3F3",
".#	c #444444",
"+#	c #255925",
"@#	c #49DD49",
"##	c #595959",
"$#	c #707070",
"%#	c #B3B3B3",
"&#	c #545454",
"*#	c #192519",
"=#	c #3D943D",
"-#	c #348134",
";#	c #2B2B2B",
">#	c #E6E6E6",
",#	c #2E792E",
"'#	c #338033",
")#	c #7D7D7D",
"!#	c #B7B7B7",
"~#	c #214821",
"{#	c #39A739",
"]#	c #48E248",
"^#	c #224622",
"/#	c #5F5F5F",
"(#	c #FAFAFA",
"_#	c #0A0C0A",
":#	c #131B13",
"<#	c #40B540",
"[#	c #44EB44",
"}#	c #2F6F2F",
"|#	c #9D9D9D",
"1#	c #B1B1B1",
"2#	c #2B6D2B",
"3#	c #45D045",
"4#	c #3DA83D",
"5#	c #0F130F",
"6#	c #A3A3A3",
"7#	c #141414",
"8#	c #253E25",
"9#	c #378137",
"0#	c #204520",
"a#	c #399739",
"b#	c #306B30",
"c#	c #9C9C9C",
"d#	c #A1A1A1",
"e#	c #2C762C",
"f#	c #51EE51",
"g#	c #45E445",
"h#	c #255725",
"i#	c #338F33",
"j#	c #45E145",
"k#	c #337C33",
"l#	c #272727",
"m#	c #296029",
"n#	c #4FE94F",
"o#	c #329032",
"p#	c #111211",
"q#	c #192F19",
"r#	c #939393",
"s#	c #6B6B6B",
"t#	c #6C6C6C",
"u#	c #41BA41",
"v#	c #3FB63F",
"w#	c #1B311B",
"x#	c #787878",
"y#	c #286628",
"z#	c #46EA46",
"A#	c #1E3F1E",
"B#	c #494949",
"C#	c #252525",
"D#	c #ECECEC",
"E#	c #373737",
"F#	c #2C662C",
"G#	c #46D046",
"H#	c #234F23",
"I#	c #0D140D",
"J#	c #3EAF3E",
"K#	c #379E37",
"L#	c #101E10",
"M#	c #6E6E6E",
"N#	c #3CA83C",
"O#	c #50E450",
"P#	c #246124",
"Q#	c #296529",
"R#	c #1F3E1F",
"S#	c #292929",
"T#	c #255525",
"U#	c #307730",
"V#	c #121912",
"W#	c #101810",
"X#	c #122512",
"Y#	c #41CF41",
"Z#	c #46D146",
"`#	c #318531",
" $	c #1D381D",
".$	c #3DAE3D",
"+$	c #328932",
"@$	c #7E7E7E",
"#$	c #213F21",
"$$	c #489D48",
"%$	c #368D36",
"&$	c #44D744",
"*$	c #0A0F0A",
"=$	c #0A0B0A",
"-$	c #060706",
";$	c #1A351A",
">$	c #2F972F",
",$	c #38A138",
"'$	c #141F14",
")$	c #2C742C",
"!$	c #46E146",
"~$	c #40BA40",
"{$	c #3CA53C",
"]$	c #3CA93C",
"^$	c #45D145",
"/$	c #41C341",
"($	c #1D3D1D",
"_$	c #DADADA",
":$	c #111911",
"<$	c #47EA47",
"[$	c #245724",
"}$	c #3AA23A",
"|$	c #0B0E0B",
"1$	c #848484",
"2$	c #080C08",
"3$	c #3BA43B",
"4$	c #235023",
"5$	c #9B9B9B",
"6$	c #285E28",
"7$	c #3CAB3C",
"8$	c #101410",
"9$	c #325C32",
"0$	c #265C26",
"a$	c #2B582B",
"b$	c #43D843",
"c$	c #245524",
"d$	c #49E049",
"e$	c #42D942",
"f$	c #1B391B",
"g$	c #424242",
"h$	c #42CC42",
"i$	c #101C10",
"j$	c #CDCDCD",
"k$	c #255625",
"l$	c #47E747",
"m$	c #40B940",
"n$	c #080E08",
"o$	c #414141",
"p$	c #121F12",
"q$	c #1C2D1C",
"r$	c #152415",
"s$	c #46D646",
". + + + + + + + + + + + + + + + + + + + + + + + + + + + + + + + + + + + + + + + + + + + + + + + + + + + + + + + + + + + + + + + + + + + + + + ",
"+ @ @ @ @ @ @ @ @ @ @ @ @ @ @ @ @ @ @ @ @ @ @ @ @ @ @ @ @ @ @ @ @ @ @ @ @ @ @ @ @ @ @ @ @ @ @ @ @ @ @ @ @ @ @ @ @ @ @ @ @ @ @ @ @ @ @ @ @ @ @ ",
"+ @ @ @ @ @ @ @ @ @ @ @ @ @ @ @ @ @ @ @ @ @ @ @ @ @ @ @ @ @ @ @ @ @ @ @ @ @ @ @ @ @ @ @ @ @ @ @ @ @ @ @ @ @ @ @ @ @ @ @ @ @ @ @ @ @ @ @ @ @ @ ",
"+ @ @ @ @ @ @ @ @ @ @ @ @ @ @ @ @ @ @ @ @ @ @ @ @ @ @ @ @ @ @ @ @ @ @ @ @ @ @ @ @ @ @ @ @ @ @ @ @ @ @ @ @ @ @ @ @ @ @ @ @ @ @ @ @ @ @ @ @ @ @ ",
"+ @ @ @ @ @ @ @ @ @ @ @ @ @ @ @ @ @ @ @ @ @ @ @ @ @ @ @ @ @ @ @ @ @ @ @ @ @ @ @ @ @ @ @ @ @ @ @ @ @ @ @ @ @ @ @ @ @ @ @ @ @ @ @ @ @ @ @ @ @ @ ",
"+ @ @ @ @ @ @ @ @ @ @ @ @ @ @ @ @ @ @ @ @ @ @ @ @ @ @ @ @ @ @ @ @ @ @ @ @ @ @ @ @ @ @ @ @ @ @ @ @ @ @ @ @ @ @ @ @ @ @ @ @ @ @ @ @ @ @ @ @ @ @ ",
"+ @ @ @ @ @ @ @ @ @ @ @ @ @ @ @ @ @ @ @ @ @ @ @ @ @ @ @ # $ @ @ @ @ @ @ @ @ @ @ @ @ @ @ @ @ @ @ @ @ @ @ @ @ @ @ @ @ @ @ @ @ @ @ @ @ @ @ @ @ @ ",
"+ @ @ @ @ @ @ @ @ @ @ @ @ @ @ @ @ @ @ % & * @ @ @ @ @ = - ; > @ @ @ @ @ @ @ @ @ @ @ @ @ @ @ @ @ @ @ @ @ @ @ @ @ @ @ @ @ @ @ @ @ @ @ @ @ @ @ @ ",
"+ @ @ @ @ @ @ @ @ @ @ @ @ @ @ @ @ @ @ , ' ) ! @ @ @ @ ~ { ] ^ # @ @ @ @ @ @ @ @ @ @ @ @ @ @ @ @ @ @ @ @ @ @ @ @ @ @ @ @ @ @ @ @ @ @ @ @ @ @ @ ",
"+ @ @ @ @ @ @ @ @ @ @ @ @ @ @ @ @ @ = / ] ] ( _ @ @ @ : ] ] < [ @ @ @ @ @ @ @ @ @ @ @ @ @ @ @ @ @ @ @ @ @ @ @ @ @ @ @ @ @ @ @ @ @ @ @ @ @ @ @ ",
"+ @ @ @ @ @ @ @ @ @ @ @ @ @ @ @ @ @ @ } ] | ] 1 2 @ 3 4 ] 5 6 7 @ @ @ @ @ @ @ @ @ @ @ @ @ @ @ @ @ @ @ @ @ @ @ @ @ @ @ @ @ @ @ @ @ @ @ @ @ @ @ ",
"+ @ @ @ @ @ @ @ @ @ @ @ @ @ @ @ @ @ @ 8 9 0 a ' b @ c d e f g h i @ @ @ @ @ @ @ @ @ @ @ @ @ @ @ @ @ @ @ @ @ @ @ @ @ @ @ @ @ @ @ @ @ @ @ @ @ @ ",
"+ @ @ @ @ @ @ @ @ @ @ @ @ @ @ @ @ @ @ j k 0 l ' m n o p q r s t u v @ @ @ @ @ @ @ @ @ @ @ @ @ @ @ @ @ @ @ @ @ @ @ @ @ @ @ @ @ @ @ @ @ @ @ @ @ ",
"+ @ @ @ @ @ @ @ @ @ @ @ @ @ @ @ @ @ @ w x y z q ] A A ] B C D E ] F G H I J K L M N @ @ @ @ @ @ @ @ @ @ @ @ @ @ @ @ @ @ @ @ @ @ @ @ @ @ @ @ @ ",
"+ @ @ @ @ @ @ @ @ @ @ @ @ @ @ @ @ @ @ O P ] ] Q ] ] ] ] R S T U Q ] V W X Y Z `  ...+.@ @ @ @ @ @ @ @ @ @ @ @ @ @ @ @ @ @ @ @ @ @ @ @ @ @ @ @ ",
"+ @ @ @ @ @ @ @ @ @ @ @ @ @ @ @ @ @ @ @.#.] $.%.&.] ] ] *.=.T -.6 ;.*.>.] ] ] ] ] ,.'.).!.= @ @ @ @ @ @ @ @ @ @ @ @ @ @ @ @ @ @ @ @ @ @ @ @ @ ",
"+ @ @ @ @ @ @ @ @ @ @ @ @ @ @ @ @ @ ~.{.] ].^./.] ] ] (._.:.T <.U [.}.|.1.2.3.] ] ]  .4.5.6.7.O @ @ @ @ @ @ @ @ @ @ @ @ @ @ @ @ @ @ @ @ @ @ @ ",
"+ @ @ @ @ @ @ @ @ @ @ @ @ @ @ @ @ @ 8.9.0.a.b.e ] c.d.^.e.T T T f.T T T T g.h.i.j.] ] ] ] ] ;.k.l.@ @ @ @ @ @ @ @ @ @ @ @ @ @ @ @ @ @ @ @ @ @ ",
"+ @ @ @ @ @ @ @ @ @ @ @ @ @ @ @ @ # m.n.o.T p.] q.r.:.T T T T T T T T T T T T T s.t.u.] ] ] v.w.x.@ @ @ @ @ @ @ @ @ @ @ @ @ @ @ @ @ @ @ @ @ @ ",
"+ @ @ @ @ @ @ @ @ @ @ @ @ @ @ @ @ y.z.A.B.T C.D.E.T T T T T T T T T T T T T T T T T F.G.9 ] H.I.J.K.L.= @ @ @ @ @ @ @ @ @ @ @ @ @ @ @ @ @ @ @ ",
"+ @ @ @ @ @ @ @ @ @ @ @ @ @ @ @ @ M.N.O.f.T T f.T T T T T T T T T T T T T T T T T T T <.P.Q.] ] ] R.S.T.U.@ @ @ @ @ @ @ @ @ @ @ @ @ @ @ @ @ @ ",
"+ @ @ @ @ @ @ @ @ @ @ @ @ @ @ @ @ V.e W.T T T T T T T T T T T T T T T T T T T T T T T T T X.A.] ] ] ] ] Y.Z.@ @ @ @ @ @ @ @ @ @ @ @ @ @ @ @ @ ",
"+ @ @ @ @ @ @ @ @ @ @ @ @ @ @ @ `. +6 -.T T T T T T T T T T T T T T T T T T T T T T T T T T .+++] ] @+#+$+%+@ @ @ @ @ @ @ @ @ @ @ @ @ @ @ @ @ ",
"+ @ @ @ @ @ @ @ @ @ @ @ @ @ @ @ &+*+=+<.T T -+;+>+,+}.'+T T T T T T T f.f.T T T T T T T T T T >+0.] )+!+~+@ @ @ @ @ @ @ @ @ @ @ @ @ @ @ @ @ @ ",
"+ @ @ @ @ @ @ @ @ @ @ @ @ @ @ @ {+Y o.T f.g ]+^+/+(.*.(+'+T T T T T f._+P.T T T T T T T T T T T :+<+] ] [+}+@ @ @ @ @ @ @ @ @ @ @ @ @ @ @ @ @ ",
"+ @ @ @ @ @ @ @ @ @ @ @ @ @ @ |+1+2+B.f.t.)+u.c.u.3+4+5+6+T T T T T 7+8+9+0+T T T T T T T T T T T a+] ] ] b+c+d+@ @ @ @ @ @ @ @ @ @ @ @ @ @ @ ",
"+ @ @ @ @ @ @ @ @ @ @ @ @ @ e+..f+g+T P.9 h+;+P.&.i+D <.T T T T T T E.e y :.T T T T T T T T T T T j+k+] ] ] n.l+m+@ @ @ @ @ @ @ @ @ @ @ @ @ @ ",
"+ @ @ @ @ @ @ @ @ @ @ @ @ @ n+o+p+T q+r+s+t+i+a+| u+T T T T T T T T v+] w+x+T T T T T T T T T T T T y+z+] ] ] 9 A+@ @ @ @ @ @ @ @ @ @ @ @ @ @ ",
"+ @ @ @ @ @ @ @ @ @ @ @ @ B+C+D+B.T E+r+F+i.5 G+H+I+T T T T T T T T J+] t+B.K+F+T T T T T T T T T T T L+] ] ] ] M+v @ @ @ @ @ @ @ @ @ @ @ @ @ ",
"+ @ @ @ @ @ @ @ @ @ @ @ @ N+O+E+T T P+/.D s Q+t..+T T T T T T T T T a+] 1.l ] P+T T T T T T T T T T T R+++] S+T+U+V+@ @ @ @ @ @ @ @ @ @ @ @ @ ",
"+ @ @ @ @ @ @ @ @ @ @ @ W+X+Y+6+T T q+Z+T T T f.T T T T T T T T T T `+>. @.@e :+T T T T T T T T T T T T +@' @@#@# @ @ @ @ @ @ @ @ @ @ @ @ @ @ ",
"+ @ @ @ @ @ @ @ @ @ @ @ $@%@b.T T T T T T T T T T T T T T T T T T &@G.0.u+y ++:.T T T T T T T T T T T T s *@] e =@# @ @ @ @ @ @ @ @ @ @ @ @ @ ",
"+ @ @ @ @ @ @ @ @ @ @ -@;@>@6+T T T T T T T T T T T T T T T T T T x+A.,@p./+g T T T T T T T T T T T T T T '@] ] 9 )@= @ @ @ @ @ @ @ @ @ @ @ @ ",
"+ @ @ @ @ @ @ @ @ @ @ !@(.~@T T T T T T T T T T T T T T T T T T T  @B q.R {@&@T T T T T T T T T T T T T T }.]@] ] ^@/@@ @ @ @ @ @ @ @ @ @ @ @ ",
"+ @ @ @ @ @ @ @ @ @ (@_@i.f.T T T T T T T T T T T T T T T T T T 6+:@] ] t+E+<@[@T T T T T T T T T T T T T D E ] ] ] }@|@@ @ @ @ @ @ @ @ @ @ @ ",
"+ @ @ @ @ @ @ @ @ 1@2@].3@T T T T T T T T T T T T T T T T T T T 4@Q ] t 5@6@f+3@T T T T T T T T T T T T T T <@;.] ] ] 7@8@@ @ @ @ @ @ @ @ @ @ ",
"+ @ @ @ @ @ @ @ 9@0@a@1.W.&@T T T T T T T T T T b@3+<.T T T T c@z+] ] d@w+| e@T T T T T T T T T T T T T T T b@h+] f@g@h@i@@ @ @ @ @ @ @ @ @ @ ",
"+ @ @ @ @ @ @ @ j@k@o.>@>@l@T T T T T T T T T T 7+m@n@T T T r ++] ] ] n.].b.T T T T T T T T T T T T T T T T &@o@] p@q@r@s@@ @ @ @ @ @ @ @ @ @ ",
"+ @ @ @ @ @ @ t@u@5@v@m@X.T T T T T T T T T T T w@$.x@C y@p.z@A@B@H+O.:+B.T T T T T T T T T T T T T T T T T T n@e ] C@D@@ @ @ @ @ @ @ @ @ @ @ ",
"+ @ @ @ @ @ E@F@G@u+t+H@f.T T T T T T T T T T T I@a@{ J@K@L@M@N@O@X.f.T T T T T T T T T T T T T T T T T T T T s.6 ] ] P@Q@@ @ @ @ @ @ @ @ @ @ ",
"+ @ @ @ @ @ R@S@t.T@2+I@T T T T T T T T T T T g.U@V@W@X@Y@@ @ Z@`@y@T T T T T T T T T T T T T T T T T T T T T  #.#] ] ] +#@#@ @ @ @ @ @ @ @ @ ",
"+ @ @ @ @ @ n ^@<@##<+$#g.T T T T T T T T T %#&#*#=#@ @ @ @ @ -#;#>#T T T T T T T T T T T T T T T T T T T T T T i.] ] ] ] ,#= @ @ @ @ @ @ @ @ ",
"+ @ @ @ @ @ '#(.S F+)#/+!#T T T T T T T T 3+d@~#{#@ @ @ @ @ ]#^#/#(#T T T T T T T T T T T T T T T T T T T T T T :+e ] _#] :#<#@ @ @ @ @ @ @ @ ",
"+ @ @ @ @ [#}#8+=.T =.&.|#T T T T T T T 1#j.2#3#@ @ @ @ @ @ 4#5#6#T T T T T T T T T T T T T T T T T T T T T T T i+7#] 8#9#0#a## @ @ @ @ @ @ @ ",
"+ @ @ @ @ [#b#c.i+T c#^@v@.+%#T T T T d#a@e#f#@ @ @ @ @ @ g#h#2.B.T T T T T T T T T T T T T T T T T T T T T T T B.t ] /+i#j#B+@ @ @ @ @ @ @ @ ",
"+ @ @ @ @ = k#q .+B.s+k+K+l#w+s T f.U@3.m#n#@ @ @ @ @ @ @ o#p#n@T T T T T T T T T T T T T T T T T T T T T T T T (#t+] ] q#v @ @ @ @ @ @ @ @ @ ",
"+ @ @ @ @ @ 7.)+r#T =.x+s#] t#D T _+] _@u#@ @ @ @ @ @ @ v#w#z D T T T T T T T T T T T T T T T T T T T T T T T T T x#] ] ] y#z#@ @ @ @ @ @ @ @ ",
"+ @ @ @ @ @ N@A#t+6+T  #B#C#u+T D#E#] F#$ @ @ @ @ @ @ G#H#2.-.T T T T T T T T T T T T T T T T T T T T T T T T T T c#' ] ] I#J#@ @ @ @ @ @ @ @ ",
"+ @ @ @ @ @ @ K#L#x#=.s t+M#T T -.6 Z N#@ @ @ @ @ @ O#P#u.r.T T T T T T T T T T T T T T T T T T T T T T T T T T T >+q ] ] ] Q#z#@ @ @ @ @ @ @ ",
"+ @ @ @ @ @ @ @ K#R#k@S#;.r#T T p+] T#B+@ @ @ @ @ e+U#)++@T T T T T T T T T T T T T T T T T T T T T T T T T T T T -.*.] V#W#X#Y#@ @ @ @ @ @ @ ",
"+ @ @ @ @ @ @ @ @ Z#`# $] Y+W.)#*.X#.$@ @ @ @ @ @ +$n.@$T T T T T T T T T T T T T T T T T T T T T T T T T T T T T s z+] #$$$%$&$@ @ @ @ @ @ @ ",
"+ @ @ @ @ @ @ @ @ @ @ v T#*$=$-$;$>$@ @ @ @ @ @ ,$'$%.g.T T T T T T T T T T T T T T T T T T T T T T T T T T T T T  #a ] ] )$m+@ @ @ @ @ @ @ @ ",
"+ @ @ @ @ @ @ @ @ @ @ @ !$~${$]$^$@ @ @ @ @ @ /$($d._$T T T T T T T T T T T T T T T T T T T T T T T T T T T T T T [@Y+] ] :$.$@ @ @ @ @ @ @ @ ",
"+ @ @ @ @ @ @ @ @ @ @ @ @ @ @ @ @ @ @ @ @ @ <$Q#]@g+T T T T T T T T T T T T T T T T T T T T T T T T T T T T T T T T z ] ] ] [$g#@ @ @ @ @ @ @ ",
"+ @ @ @ @ @ @ @ @ @ @ @ @ @ @ @ @ @ @ @ @ @ }$|$e@T T T T T T T T T T T T T T T T T T T T T T T T T T T T T T T T T 1$] ] ] 2$3$@ @ @ @ @ @ @ ",
"+ @ @ @ @ @ @ @ @ @ @ @ @ @ @ @ @ @ @ @ @ ]#4$a R+T T T T T T T T T T T T T T T T T T T T T T T T T T T T T T T T T 5$' ] Q ] 6$E@@ @ @ @ @ @ ",
"+ @ @ @ @ @ @ @ @ @ @ @ @ @ @ @ @ @ @ @ @ 7$N.l T T T T T T T T T T T T T T T T T T T T T T T T T T T T T T T T T T E.e 8$9$0$a$b$@ @ @ @ @ @ ",
"+ @ @ @ @ @ @ @ @ @ @ @ @ @ @ @ @ @ @ @ [#2#m@S T T T T T T T T T T T T T T T T T T T T T T T T T T T T T T T T T T r >.] c$d$e$@ @ @ @ @ @ @ ",
"+ @ @ @ @ @ @ @ @ @ @ @ @ @ @ @ @ @ @ @ % f$g$j+T T T T T T T T T T T T T T T T T T T T T T T T T T T T T T T T T T ;+G+] R.& @ @ @ @ @ @ @ @ ",
"+ @ @ @ @ @ @ @ @ @ @ @ @ @ @ @ @ @ @ @ h$i$%.<.l@l@l@l@l@l@l@l@l@l@l@l@l@l@l@l@l@l@l@l@l@l@l@l@l@l@l@l@l@l@l@l@l@l@j$8+] ] k$l$@ @ @ @ @ @ @ ",
"+ @ @ @ @ @ @ @ @ @ @ @ @ @ @ @ @ @ @ @ m$n$f+].].].].].].].].].].].].].].].].].].].].].].].].].].].].].].].].].].].o$' ] ] p$|+@ @ @ @ @ @ @ ",
"+ @ @ @ @ @ @ @ @ @ @ @ @ @ @ @ @ @ @ @ 8.q$r$r$r$r$r$r$r$r$r$r$r$r$r$r$r$r$r$r$r$r$r$r$r$r$r$r$r$r$r$r$r$r$r$r$r$r$r$r$r$r$B@m$@ @ @ @ @ @ @ ",
"+ @ @ @ @ @ @ @ @ @ @ @ @ @ @ @ @ @ @ @ z#s$s$s$s$s$s$s$s$s$s$s$s$s$s$s$s$s$s$s$s$s$s$s$s$s$s$s$s$s$s$s$s$s$s$s$s$s$s$s$s$s$s$z#@ @ @ @ @ @ @ ",
"+ @ @ @ @ @ @ @ @ @ @ @ @ @ @ @ @ @ @ @ @ @ @ @ @ @ @ @ @ @ @ @ @ @ @ @ @ @ @ @ @ @ @ @ @ @ @ @ @ @ @ @ @ @ @ @ @ @ @ @ @ @ @ @ @ @ @ @ @ @ @ ",
"+ @ @ @ @ @ @ @ @ @ @ @ @ @ @ @ @ @ @ @ @ @ @ @ @ @ @ @ @ @ @ @ @ @ @ @ @ @ @ @ @ @ @ @ @ @ @ @ @ @ @ @ @ @ @ @ @ @ @ @ @ @ @ @ @ @ @ @ @ @ @ ",
"+ @ @ @ @ @ @ @ @ @ @ @ @ @ @ @ @ @ @ @ @ @ @ @ @ @ @ @ @ @ @ @ @ @ @ @ @ @ @ @ @ @ @ @ @ @ @ @ @ @ @ @ @ @ @ @ @ @ @ @ @ @ @ @ @ @ @ @ @ @ @ ",
"+ @ @ @ @ @ @ @ @ @ @ @ @ @ @ @ @ @ @ @ @ @ @ @ @ @ @ @ @ @ @ @ @ @ @ @ @ @ @ @ @ @ @ @ @ @ @ @ @ @ @ @ @ @ @ @ @ @ @ @ @ @ @ @ @ @ @ @ @ @ @ ",
"+ @ @ @ @ @ @ @ @ @ @ @ @ @ @ @ @ @ @ @ @ @ @ @ @ @ @ @ @ @ @ @ @ @ @ @ @ @ @ @ @ @ @ @ @ @ @ @ @ @ @ @ @ @ @ @ @ @ @ @ @ @ @ @ @ @ @ @ @ @ @ ",
"+ @ @ @ @ @ @ @ @ @ @ @ @ @ @ @ @ @ @ @ @ @ @ @ @ @ @ @ @ @ @ @ @ @ @ @ @ @ @ @ @ @ @ @ @ @ @ @ @ @ @ @ @ @ @ @ @ @ @ @ @ @ @ @ @ @ @ @ @ @ @ ",
"+ @ @ @ @ @ @ @ @ @ @ @ @ @ @ @ @ @ @ @ @ @ @ @ @ @ @ @ @ @ @ @ @ @ @ @ @ @ @ @ @ @ @ @ @ @ @ @ @ @ @ @ @ @ @ @ @ @ @ @ @ @ @ @ @ @ @ @ @ @ @ ",
"+ @ @ @ @ @ @ @ @ @ @ @ @ @ @ @ @ @ @ @ @ @ @ @ @ @ @ @ @ @ @ @ @ @ @ @ @ @ @ @ @ @ @ @ @ @ @ @ @ @ @ @ @ @ @ @ @ @ @ @ @ @ @ @ @ @ @ @ @ @ @ "};
