/* XPM */
static char * ywwb_xpm[] = {
"71 71 193 2",
"  	c None",
". 	c #C4F9C4",
"+ 	c #95F495",
"@ 	c #42EC42",
"# 	c #44EC44",
"$ 	c #646464",
"% 	c #585858",
"& 	c #676767",
"* 	c #45EC45",
"= 	c #5C5C5C",
"- 	c #252525",
"; 	c #0B0B0B",
"> 	c #1B1B1B",
", 	c #1A1A1A",
"' 	c #2A2A2A",
") 	c #5F5F5F",
"! 	c #1C1C1C",
"~ 	c #393939",
"{ 	c #9C9C9C",
"] 	c #D7D7D7",
"^ 	c #D6D6D6",
"/ 	c #969696",
"( 	c #353535",
"_ 	c #171717",
": 	c #2B2B2B",
"< 	c #232323",
"[ 	c #BABABA",
"} 	c #FFFFFF",
"| 	c #B5B5B5",
"1 	c #323232",
"2 	c #43EC43",
"3 	c #6C6C6C",
"4 	c #6A6A6A",
"5 	c #FEFEFE",
"6 	c #FCFCFC",
"7 	c #0E0E0E",
"8 	c #9F9F9F",
"9 	c #626262",
"0 	c #050505",
"a 	c #878787",
"b 	c #797979",
"c 	c #080808",
"d 	c #696969",
"e 	c #0A0A0A",
"f 	c #6E6E6E",
"g 	c #FDFDFD",
"h 	c #636363",
"i 	c #0C0C0C",
"j 	c #777777",
"k 	c #262626",
"l 	c #C3C3C3",
"m 	c #BBBBBB",
"n 	c #222222",
"o 	c #2C2C2C",
"p 	c #5A5A5A",
"q 	c #434343",
"r 	c #ABABAB",
"s 	c #E5E5E5",
"t 	c #E4E4E4",
"u 	c #A6A6A6",
"v 	c #3D3D3D",
"w 	c #151515",
"x 	c #5B5B5B",
"y 	c #404040",
"z 	c #000000",
"A 	c #272727",
"B 	c #090909",
"C 	c #49ED49",
"D 	c #343434",
"E 	c #7F7F7F",
"F 	c #616161",
"G 	c #9DEC9D",
"H 	c #46EC46",
"I 	c #363636",
"J 	c #7A7A7A",
"K 	c #747474",
"L 	c #F0F0F0",
"M 	c #666666",
"N 	c #424242",
"O 	c #E9E9E9",
"P 	c #E0E0E0",
"Q 	c #4E4E4E",
"R 	c #4AED4A",
"S 	c #4B4B4B",
"T 	c #DFDFDF",
"U 	c #DDDDDD",
"V 	c #515151",
"W 	c #484848",
"X 	c #47ED47",
"Y 	c #4A4A4A",
"Z 	c #BFBFBF",
"` 	c #B3B3B3",
" .	c #101010",
"..	c #444444",
"+.	c #040404",
"@.	c #B9B9B9",
"#.	c #B2B2B2",
"$.	c #717171",
"%.	c #181818",
"&.	c #9EEC9E",
"*.	c #5E5E5E",
"=.	c #555555",
"-.	c #888888",
";.	c #686868",
">.	c #060606",
",.	c #1E1E1E",
"'.	c #656565",
").	c #DCDCDC",
"!.	c #2E2E2E",
"~.	c #6B6B6B",
"{.	c #141414",
"].	c #6D6D6D",
"^.	c #FAFAFA",
"/.	c #DADADA",
"(.	c #414141",
"_.	c #131313",
":.	c #AFAFAF",
"<.	c #4F4F4F",
"[.	c #727272",
"}.	c #595959",
"|.	c #5D5D5D",
"1.	c #E1E1E1",
"2.	c #DBDBDB",
"3.	c #1D1D1D",
"4.	c #535353",
"5.	c #D0D0D0",
"6.	c #B8B8B8",
"7.	c #202020",
"8.	c #070707",
"9.	c #7E7E7E",
"0.	c #757575",
"a.	c #494949",
"b.	c #C0C0C0",
"c.	c #B4B4B4",
"d.	c #383838",
"e.	c #D8D8D8",
"f.	c #D1D1D1",
"g.	c #3A3A3A",
"h.	c #D5D5D5",
"i.	c #CDCDCD",
"j.	c #4D4D4D",
"k.	c #A9A9A9",
"l.	c #9D9D9D",
"m.	c #525252",
"n.	c #F7F7F7",
"o.	c #F1F1F1",
"p.	c #505050",
"q.	c #464646",
"r.	c #828282",
"s.	c #333333",
"t.	c #020202",
"u.	c #CBCBCB",
"v.	c #3E3E3E",
"w.	c #474747",
"x.	c #030303",
"y.	c #7B7B7B",
"z.	c #565656",
"A.	c #1F1F1F",
"B.	c #0F0F0F",
"C.	c #121212",
"D.	c #B6B6B6",
"E.	c #EFEFEF",
"F.	c #3C3C3C",
"G.	c #999999",
"H.	c #909090",
"I.	c #0D0D0D",
"J.	c #606060",
"K.	c #F2F2F2",
"L.	c #EDEDED",
"M.	c #C4C4C4",
"N.	c #3F3F3F",
"O.	c #242424",
"P.	c #BEBEBE",
"Q.	c #CACACA",
"R.	c #C2C2C2",
"S.	c #161616",
"T.	c #575757",
"U.	c #8C8C8C",
"V.	c #212121",
"W.	c #E3E3E3",
"X.	c #292929",
"Y.	c #C7C7C7",
"Z.	c #8A8A8A",
"`.	c #C5C5C5",
" +	c #E8E8E8",
".+	c #F5F5F5",
"++	c #373737",
"@+	c #EBEBEB",
"#+	c #303030",
"$+	c #B1B1B1",
"%+	c #AAAAAA",
"&+	c #2D2D2D",
"*+	c #454545",
". + + + + + + + + + + + + + + + + + + + + + + + + + + + + + + + + + + + + + + + + + + + + + + + + + + + + + + + + + + + + + + + + + + + + + + ",
"+ @ @ @ @ @ @ @ @ @ @ @ @ @ @ @ @ @ @ @ @ @ @ @ @ @ @ @ @ @ @ @ @ @ @ @ @ @ @ @ @ @ @ @ @ @ @ @ @ @ @ @ @ @ @ @ @ @ @ @ @ @ @ @ @ @ @ @ @ @ @ ",
"+ @ @ @ @ @ @ @ @ @ @ @ @ @ @ @ @ @ @ @ @ @ @ @ @ @ @ @ @ @ @ @ @ @ @ @ @ @ @ @ @ @ @ @ @ @ @ @ @ @ @ @ @ @ @ @ @ @ @ @ @ @ @ @ @ @ @ @ @ @ @ ",
"+ @ @ @ @ @ @ @ @ @ @ @ @ @ @ @ @ @ @ @ @ @ @ @ @ @ @ @ @ @ @ @ @ @ @ @ @ @ @ @ @ @ @ @ @ @ @ @ @ @ @ @ @ @ @ @ @ @ @ @ @ @ @ @ @ @ @ @ @ @ @ ",
"+ @ @ @ @ @ @ @ @ @ @ @ @ @ @ @ @ @ @ @ @ @ @ @ @ @ @ @ @ @ @ @ @ @ @ @ @ @ @ @ @ @ @ @ @ @ @ @ @ @ @ @ @ @ @ @ @ @ @ @ @ @ @ @ @ @ @ @ @ @ @ ",
"+ @ @ @ @ @ @ @ @ @ @ @ @ @ @ @ @ @ @ @ @ @ @ @ @ @ @ @ @ @ @ @ @ @ @ @ @ @ @ @ @ @ @ @ @ @ @ @ @ @ @ @ @ @ @ @ @ @ @ @ @ @ @ @ @ @ @ @ @ @ @ ",
"+ @ @ @ @ @ @ @ @ @ @ @ @ @ @ @ @ @ @ @ @ @ @ @ @ @ @ @ @ @ @ @ @ # $ % % & * @ @ @ @ @ @ @ @ @ @ @ @ @ @ @ @ @ @ @ @ @ @ @ @ @ @ @ @ @ @ @ @ ",
"+ @ @ @ @ @ @ @ @ @ @ @ @ @ @ @ @ @ @ @ @ @ @ @ @ @ @ @ @ @ @ @ = - ; > , ; ' ) @ @ @ @ @ @ @ @ @ @ @ @ @ @ @ @ @ @ @ @ @ @ @ @ @ @ @ @ @ @ @ ",
"+ @ @ @ @ @ @ @ @ @ @ @ @ @ @ @ @ @ @ @ @ @ @ @ @ @ @ @ @ @ @ ) ! ~ { ] ^ / ( _ ) @ @ @ @ @ @ @ @ @ @ @ @ @ @ @ @ @ @ @ @ @ @ @ @ @ @ @ @ @ @ ",
"+ @ @ @ @ @ @ @ @ @ @ @ @ @ @ @ @ @ @ @ @ @ @ @ @ @ @ @ @ @ * : < [ } } } } | > 1 2 @ @ @ @ @ @ @ @ @ @ @ @ @ @ @ @ @ @ @ @ @ @ @ @ @ @ @ @ @ ",
"+ @ @ @ @ @ @ @ @ @ @ @ @ @ @ @ @ @ @ @ @ @ @ @ @ @ @ @ @ @ 3 ; 4 5 } } } } 6 ) 7 8 @ @ @ @ @ @ @ @ @ @ @ @ @ @ @ @ @ @ @ @ @ @ @ @ @ @ @ @ @ ",
"+ @ @ @ @ @ @ @ @ @ @ @ @ @ @ @ @ @ @ @ @ @ @ @ @ @ @ @ @ @ 9 0 a } } } } } } b c 4 @ @ @ @ @ @ @ @ @ @ @ @ @ @ @ @ @ @ @ @ @ @ @ @ @ @ @ @ @ ",
"+ @ @ @ @ @ @ @ @ @ @ @ @ @ @ @ @ @ @ @ @ @ @ @ @ @ @ @ @ @ d e f 5 } } } } g h i j @ @ @ @ @ @ @ @ @ @ @ @ @ @ @ @ @ @ @ @ @ @ @ @ @ @ @ @ @ ",
"+ @ @ @ @ @ @ @ @ @ @ @ @ @ @ @ @ @ @ @ @ @ @ @ @ @ @ @ @ @ * k ' l } } } } m n o * @ @ @ @ @ @ @ @ @ @ @ @ @ @ @ @ @ @ @ @ @ @ @ @ @ @ @ @ @ ",
"+ @ @ @ @ @ @ @ @ @ @ @ @ @ @ @ @ @ @ @ @ @ @ @ @ @ @ @ @ @ @ p _ q r s t u v w x @ @ @ @ @ @ @ @ @ @ @ @ @ @ @ @ @ @ @ @ @ @ @ @ @ @ @ @ @ @ ",
"+ @ @ @ @ @ @ @ @ @ @ @ @ @ @ @ @ @ @ @ @ @ @ @ @ @ @ @ @ @ @ @ y z ; A k B z q @ @ @ @ @ @ @ @ @ @ @ @ @ @ @ @ @ @ @ @ @ @ @ @ @ @ @ @ @ @ @ ",
"+ @ @ @ @ @ @ @ @ @ @ @ @ @ @ @ @ @ @ @ @ @ @ @ @ @ @ @ @ @ @ C D z 9 E E F z 1 G @ @ @ @ @ @ @ @ @ @ @ @ @ @ @ @ @ @ @ @ @ @ @ @ @ @ @ @ @ @ ",
"+ @ @ @ @ @ @ @ @ @ @ @ @ @ @ @ @ @ @ @ @ @ @ @ @ @ @ @ @ @ H I z E } } } 5 J z ( 2 @ @ @ @ @ @ @ @ @ @ @ @ @ @ @ @ @ @ @ @ @ @ @ @ @ @ @ @ @ ",
"+ @ @ @ @ @ @ @ @ @ @ @ @ @ @ @ @ @ @ @ @ @ @ @ @ @ @ @ @ 2 ( z K 6 } } } } L M z N # @ @ @ @ @ @ @ @ @ @ @ @ @ @ @ @ @ @ @ @ @ @ @ @ @ @ @ @ ",
"+ @ @ @ @ @ @ @ @ @ @ @ @ @ @ @ @ @ @ @ @ @ @ @ @ @ @ @ # q z 9 O } } } } } } P ) z Q R @ @ @ @ @ @ @ @ @ @ @ @ @ @ @ @ @ @ @ @ @ @ @ @ @ @ @ ",
"+ @ @ @ @ @ @ @ @ @ @ @ @ @ @ @ @ @ @ @ @ @ @ @ @ @ @ C S z p T } } } } } } } } U V z W H @ @ @ @ @ @ @ @ @ @ @ @ @ @ @ @ @ @ @ @ @ @ @ @ @ @ ",
"+ @ @ @ @ @ @ @ @ @ @ @ @ @ @ @ @ @ @ @ @ @ @ @ @ @ X Y z w Z } } } } } } } } } } `  .z N 2 @ @ @ @ @ @ @ @ @ @ @ @ @ @ @ @ @ @ @ @ @ @ @ @ @ ",
"+ @ @ @ @ @ @ @ @ @ @ @ @ @ @ @ @ @ @ @ @ @ @ @ @ 2 ..z z +.j ` @.@.@.@.@.@.@.@.#.$.z z c V @ @ @ @ @ @ @ @ @ @ @ @ @ @ @ @ @ @ @ @ @ @ @ @ @ ",
"+ @ @ @ @ @ @ @ @ @ @ @ @ @ @ @ @ @ @ @ @ @ @ @ @ #.%.+.+.+.z c c c c c c c c c c z +.+.+.n &.@ @ @ @ @ @ @ @ @ @ @ @ @ @ @ @ @ @ @ @ @ @ @ @ ",
"+ @ @ @ @ @ @ @ @ @ @ @ @ @ @ @ @ @ @ @ @ @ @ @ @ 2 h *.*.=.! c 3 -.-.-.-.-.-.;.>.,.=.*.*.'.2 @ @ @ @ @ @ @ @ @ @ @ @ @ @ @ @ @ @ @ @ @ @ @ @ ",
"+ @ @ @ @ @ @ @ @ @ @ @ @ @ @ @ @ @ @ @ @ @ @ @ @ @ @ @ @ 2 : : t } } } } } } ).< !.# @ @ @ @ @ @ @ @ @ @ @ @ @ @ @ @ @ @ @ @ @ @ @ @ @ @ @ @ ",
"+ @ @ @ @ @ @ @ @ @ @ @ @ @ @ @ @ @ @ @ @ @ @ @ @ @ @ @ @ ~.{.].5 } } } } } } ^.h %./.@ @ @ @ @ @ @ @ @ @ @ @ @ @ @ @ @ @ @ @ @ @ @ @ @ @ @ @ ",
"+ @ @ @ @ @ @ @ @ @ @ @ @ @ @ @ @ @ @ @ @ @ @ @ @ @ @ @ H (._.[ } } } } } } } } :.i (.# @ @ @ @ @ @ @ @ @ @ @ @ @ @ @ @ @ @ @ @ @ @ @ @ @ @ @ ",
"+ @ @ @ @ @ @ @ @ @ @ @ @ @ @ @ @ @ @ @ @ @ @ @ @ @ @ @ <.+.[.5 } } } } } } } } ^.~.e }.@ @ @ @ @ @ @ @ @ @ @ @ @ @ @ @ @ @ @ @ @ @ @ @ @ @ @ ",
"+ @ @ @ @ @ @ @ @ @ @ @ @ @ @ @ @ @ @ @ @ @ @ @ @ @ @ |., *.1.} } } } } } } } } } 2.=.3.|.@ @ @ @ @ @ @ @ @ @ @ @ @ @ @ @ @ @ @ @ @ @ @ @ @ @ ",
"+ @ @ @ @ @ @ @ @ @ @ @ @ @ @ @ @ @ @ @ @ @ @ @ @ @ *., 4.).} } } } } } } } } } } } 5.W , h @ @ @ @ @ @ @ @ @ @ @ @ @ @ @ @ @ @ @ @ @ @ @ @ @ ",
"+ @ @ @ @ @ @ @ @ @ @ @ @ @ @ @ @ @ @ @ @ @ @ @ @ 2 !.' l } } } } } } } } } } } } } } 6.7.D * @ @ @ @ @ @ @ @ @ @ @ @ @ @ @ @ @ @ @ @ @ @ @ @ ",
"+ @ @ @ @ @ @ @ @ @ @ @ @ @ @ @ @ @ @ @ @ @ @ @ @ $ 8.9.} } } } } } } } } } } } } } } } 0.; M @ @ @ @ @ @ @ @ @ @ @ @ @ @ @ @ @ @ @ @ @ @ @ @ ",
"+ @ @ @ @ @ @ @ @ @ @ @ @ @ @ @ @ @ @ @ @ @ @ @ * a.7 b.} } } } } } } } } } } } } } } } c.B Q @ @ @ @ @ @ @ @ @ @ @ @ @ @ @ @ @ @ @ @ @ @ @ @ ",
"+ @ @ @ @ @ @ @ @ @ @ @ @ @ @ @ @ @ @ @ @ @ @ @ * d., e.} } } } } } } } } } } } } } } } f.w y 2 @ @ @ @ @ @ @ @ @ @ @ @ @ @ @ @ @ @ @ @ @ @ @ ",
"+ @ @ @ @ @ @ @ @ @ @ @ @ @ @ @ @ @ @ @ @ @ @ @ * g.%.h.} } } } } } } } } } } } } } } } i._.q 2 @ @ @ @ @ @ @ @ @ @ @ @ @ @ @ @ @ @ @ @ @ @ @ ",
"+ @ @ @ @ @ @ @ @ @ @ @ @ @ @ @ @ @ @ @ @ @ @ @ @ j.8.k.} } } } } } } } } } } } } } } } l.+.m.@ @ @ @ @ @ @ @ @ @ @ @ @ @ @ @ @ @ @ @ @ @ @ @ ",
"+ @ @ @ @ @ @ @ @ @ @ @ @ @ @ @ @ @ @ @ @ @ @ @ @ 3 _.= n.} } } } } } } } } } } } } } o.p.%.#.@ @ @ @ @ @ @ @ @ @ @ @ @ @ @ @ @ @ @ @ @ @ @ @ ",
"+ @ @ @ @ @ @ @ @ @ @ @ @ @ @ @ @ @ @ @ @ @ @ @ @ # q.z r.5 } } } } } } } } } } } } g E z j.2 @ @ @ @ @ @ @ @ @ @ @ @ @ @ @ @ @ @ @ @ @ @ @ @ ",
"+ @ @ @ @ @ @ @ @ @ @ @ @ @ @ @ @ @ @ @ @ @ @ @ @ @ * s.t.[.5.^.} } } } } } } } ^.u.f z v.# @ @ @ @ @ @ @ @ @ @ @ @ @ @ @ @ @ @ @ @ @ @ @ @ @ ",
"+ @ @ @ @ @ @ @ @ @ @ @ @ @ @ @ @ @ @ @ @ @ @ @ @ @ @ # w.x.< % y.a -.-.-.-.a b z.A.B.Y H @ @ @ @ @ @ @ @ @ @ @ @ @ @ @ @ @ @ @ @ @ @ @ @ @ @ ",
"+ @ @ @ @ @ @ @ @ @ @ @ @ @ @ @ @ @ @ @ @ @ @ @ @ @ @ @ # N z 8.; ; ; ; ; ; ; ; 0 z j.2 @ @ @ @ @ @ @ @ @ @ @ @ @ @ @ @ @ @ @ @ @ @ @ @ @ @ @ ",
"+ @ @ @ @ @ @ @ @ @ @ @ @ @ @ @ @ @ @ @ @ @ @ @ @ @ @ @ @ d e 0.l l l l l l l l f B 3 @ @ @ @ @ @ @ @ @ @ @ @ @ @ @ @ @ @ @ @ @ @ @ @ @ @ @ @ ",
"+ @ @ @ @ @ @ @ @ @ @ @ @ @ @ @ @ @ @ @ @ @ @ @ @ @ @ @ @ =.C.b.} } } } } } } } D.7 = @ @ @ @ @ @ @ @ @ @ @ @ @ @ @ @ @ @ @ @ @ @ @ @ @ @ @ @ ",
"+ @ @ @ @ @ @ @ @ @ @ @ @ @ @ @ @ @ @ @ @ @ @ @ @ @ @ @ * I w.E.} } } } } } } } O F.g.* @ @ @ @ @ @ @ @ @ @ @ @ @ @ @ @ @ @ @ @ @ @ @ @ @ @ @ ",
"+ @ @ @ @ @ @ @ @ @ @ @ @ @ @ @ @ @ @ @ @ @ @ @ @ @ @ @ % 7 G.} } } } } } } } } } H.I.J.@ @ @ @ @ @ @ @ @ @ @ @ @ @ @ @ @ @ @ @ @ @ @ @ @ @ @ ",
"+ @ @ @ @ @ @ @ @ @ @ @ @ @ @ @ @ @ @ @ @ @ @ @ @ @ @ 3 < *.K.} } } } } } } } } } L.=.- h @ @ @ @ @ @ @ @ @ @ @ @ @ @ @ @ @ @ @ @ @ @ @ @ @ @ ",
"+ @ @ @ @ @ @ @ @ @ @ @ @ @ @ @ @ @ @ @ @ @ @ @ @ @ d ' (.u.} } } } } } } } } } } } M.N.O.d @ @ @ @ @ @ @ @ @ @ @ @ @ @ @ @ @ @ @ @ @ @ @ @ @ ",
"+ @ @ @ @ @ @ @ @ @ @ @ @ @ @ @ @ @ @ @ @ @ @ @ @ % A.(.Z } } } } } } } } } } } } } } P.N.< % @ @ @ @ @ @ @ @ @ @ @ @ @ @ @ @ @ @ @ @ @ @ @ @ ",
"+ @ @ @ @ @ @ @ @ @ @ @ @ @ @ @ @ @ @ @ @ @ @ @ ) ! }.Q.} } } } } } } } } } } } } } } } R.p.S.T.@ @ @ @ @ @ @ @ @ @ @ @ @ @ @ @ @ @ @ @ @ @ @ ",
"+ @ @ @ @ @ @ @ @ @ @ @ @ @ @ @ @ @ @ @ @ @ @ }., h T } } } } } } } } } } } } } } } } } } ).) w *.@ @ @ @ @ @ @ @ @ @ @ @ @ @ @ @ @ @ @ @ @ @ ",
"+ @ @ @ @ @ @ @ @ @ @ @ @ @ @ @ @ @ @ @ @ @ U.V.J.W.} } } } } } } } } } } } } } } } } } } } T p X.G @ @ @ @ @ @ @ @ @ @ @ @ @ @ @ @ @ @ @ @ @ ",
"+ @ @ @ @ @ @ @ @ @ @ @ @ @ @ @ @ @ @ @ @ 2 v.s.5.} } } } } } } } } } } } } } } } } } } } } } Y.X.(.2 @ @ @ @ @ @ @ @ @ @ @ @ @ @ @ @ @ @ @ @ ",
"+ @ @ @ @ @ @ @ @ @ @ @ @ @ @ @ @ @ @ @ @ $ I.Z.} } } } } } } } } } } } } } } } } } } } } } } } E C.d @ @ @ @ @ @ @ @ @ @ @ @ @ @ @ @ @ @ @ @ ",
"+ @ @ @ @ @ @ @ @ @ @ @ @ @ @ @ @ @ @ @ 2 v.%.5.} } } } } } } } } } } } } } } } } } } } } } } } `.C.(.2 @ @ @ @ @ @ @ @ @ @ @ @ @ @ @ @ @ @ @ ",
"+ @ @ @ @ @ @ @ @ @ @ @ @ @ @ @ @ @ @ @ H %.D E.} } } } } } } } } } } } } } } } } } } } } } } }  +o 3.H @ @ @ @ @ @ @ @ @ @ @ @ @ @ @ @ @ @ @ ",
"+ @ @ @ @ @ @ @ @ @ @ @ @ @ @ @ @ @ @ @ J.0 N..+} } } } } } } } } } } } } } } } } } } } } } } } K.g.8.'.@ @ @ @ @ @ @ @ @ @ @ @ @ @ @ @ @ @ @ ",
"+ @ @ @ @ @ @ @ @ @ @ @ @ @ @ @ @ @ @ 2 w.z ++L } } } } } } } } } } } } } } } } } } } } } } } } @+#+z <.@ @ @ @ @ @ @ @ @ @ @ @ @ @ @ @ @ @ @ ",
"+ @ @ @ @ @ @ @ @ @ @ @ @ @ @ @ @ @ @ 2 ( z C.$+g g g g g g g g g g g g g g g g g g g g g g g g %+i z v 2 @ @ @ @ @ @ @ @ @ @ @ @ @ @ @ @ @ @ ",
"+ @ @ @ @ @ @ @ @ @ @ @ @ @ @ @ @ @ @ # X.z z &+F & & & & & & & & & & & & & & & & & & & & & & ) ' z z 1 2 @ @ @ @ @ @ @ @ @ @ @ @ @ @ @ @ @ @ ",
"+ @ @ @ @ @ @ @ @ @ @ @ @ @ @ @ @ @ @ 2 k z z z z z z z z z z z z z z z z z z z z z z z z z z z z z z !.2 @ @ @ @ @ @ @ @ @ @ @ @ @ @ @ @ @ @ ",
"+ @ @ @ @ @ @ @ @ @ @ @ @ @ @ @ @ @ @ # y , , , , , , , , , , , , , , , , , , , , , , , , , , , , , , *+# @ @ @ @ @ @ @ @ @ @ @ @ @ @ @ @ @ @ ",
"+ @ @ @ @ @ @ @ @ @ @ @ @ @ @ @ @ @ @ @ * * * * * * * * * * * * * * * * * * * * * * * * * * * * * * * # @ @ @ @ @ @ @ @ @ @ @ @ @ @ @ @ @ @ @ ",
"+ @ @ @ @ @ @ @ @ @ @ @ @ @ @ @ @ @ @ @ @ @ @ @ @ @ @ @ @ @ @ @ @ @ @ @ @ @ @ @ @ @ @ @ @ @ @ @ @ @ @ @ @ @ @ @ @ @ @ @ @ @ @ @ @ @ @ @ @ @ @ ",
"+ @ @ @ @ @ @ @ @ @ @ @ @ @ @ @ @ @ @ @ @ @ @ @ @ @ @ @ @ @ @ @ @ @ @ @ @ @ @ @ @ @ @ @ @ @ @ @ @ @ @ @ @ @ @ @ @ @ @ @ @ @ @ @ @ @ @ @ @ @ @ ",
"+ @ @ @ @ @ @ @ @ @ @ @ @ @ @ @ @ @ @ @ @ @ @ @ @ @ @ @ @ @ @ @ @ @ @ @ @ @ @ @ @ @ @ @ @ @ @ @ @ @ @ @ @ @ @ @ @ @ @ @ @ @ @ @ @ @ @ @ @ @ @ ",
"+ @ @ @ @ @ @ @ @ @ @ @ @ @ @ @ @ @ @ @ @ @ @ @ @ @ @ @ @ @ @ @ @ @ @ @ @ @ @ @ @ @ @ @ @ @ @ @ @ @ @ @ @ @ @ @ @ @ @ @ @ @ @ @ @ @ @ @ @ @ @ ",
"+ @ @ @ @ @ @ @ @ @ @ @ @ @ @ @ @ @ @ @ @ @ @ @ @ @ @ @ @ @ @ @ @ @ @ @ @ @ @ @ @ @ @ @ @ @ @ @ @ @ @ @ @ @ @ @ @ @ @ @ @ @ @ @ @ @ @ @ @ @ @ ",
"+ @ @ @ @ @ @ @ @ @ @ @ @ @ @ @ @ @ @ @ @ @ @ @ @ @ @ @ @ @ @ @ @ @ @ @ @ @ @ @ @ @ @ @ @ @ @ @ @ @ @ @ @ @ @ @ @ @ @ @ @ @ @ @ @ @ @ @ @ @ @ ",
"+ @ @ @ @ @ @ @ @ @ @ @ @ @ @ @ @ @ @ @ @ @ @ @ @ @ @ @ @ @ @ @ @ @ @ @ @ @ @ @ @ @ @ @ @ @ @ @ @ @ @ @ @ @ @ @ @ @ @ @ @ @ @ @ @ @ @ @ @ @ @ ",
"+ @ @ @ @ @ @ @ @ @ @ @ @ @ @ @ @ @ @ @ @ @ @ @ @ @ @ @ @ @ @ @ @ @ @ @ @ @ @ @ @ @ @ @ @ @ @ @ @ @ @ @ @ @ @ @ @ @ @ @ @ @ @ @ @ @ @ @ @ @ @ "};
