/* XPM */
static char * ywwq_xpm[] = {
"71 71 267 2",
"  	c None",
". 	c #42EC42",
"+ 	c #E5E5E5",
"@ 	c #818181",
"# 	c #454545",
"$ 	c #484848",
"% 	c #888888",
"& 	c #E8E8E8",
"* 	c #636363",
"= 	c #4E4E4E",
"- 	c #979797",
"; 	c #949494",
"> 	c #464646",
", 	c #686868",
"' 	c #B5B5B5",
") 	c #323232",
"! 	c #D2D2D2",
"~ 	c #FFFFFF",
"{ 	c #C7C7C7",
"] 	c #2E2E2E",
"^ 	c #BEBEBE",
"/ 	c #494949",
"( 	c #FAFAFA",
"_ 	c #F5F5F5",
": 	c #414141",
"< 	c #A4A4A4",
"[ 	c #ACACAC",
"} 	c #343434",
"| 	c #D7D7D7",
"1 	c #303030",
"2 	c #B8B8B8",
"3 	c #C8EAC8",
"4 	c #5B5B5B",
"5 	c #585858",
"6 	c #ADADAD",
"7 	c #A9A9A9",
"8 	c #555555",
"9 	c #616161",
"0 	c #70EC70",
"a 	c #DEDEDE",
"b 	c #737373",
"c 	c #090909",
"d 	c #0E0E0E",
"e 	c #777777",
"f 	c #59EC59",
"g 	c #919191",
"h 	c #444444",
"i 	c #3E3E3E",
"j 	c #7D7D7D",
"k 	c #E6E6E6",
"l 	c #515151",
"m 	c #E1E1E1",
"n 	c #797979",
"o 	c #3D3D3D",
"p 	c #9A9A9A",
"q 	c #AFAFAF",
"r 	c #292929",
"s 	c #8B8B8B",
"t 	c #9C9C9C",
"u 	c #787878",
"v 	c #505050",
"w 	c #5D5D5D",
"x 	c #707070",
"y 	c #A1A1A1",
"z 	c #313131",
"A 	c #B9B9B9",
"B 	c #666666",
"C 	c #3B3B3B",
"D 	c #9CEC9C",
"E 	c #353535",
"F 	c #AAAAAA",
"G 	c #FEFEFE",
"H 	c #5C5C5C",
"I 	c #5A5A5A",
"J 	c #FBFBFB",
"K 	c #8A8A8A",
"L 	c #1F1F1F",
"M 	c #262626",
"N 	c #E4E4E4",
"O 	c #C9EAC9",
"P 	c #969696",
"Q 	c #F6F6F6",
"R 	c #858585",
"S 	c #BABABA",
"T 	c #2B2B2B",
"U 	c #1B1B1B",
"V 	c #8F8F8F",
"W 	c #BBBBBB",
"X 	c #0B0B0B",
"Y 	c #0F0F0F",
"Z 	c #C4C4C4",
"` 	c #898989",
" .	c #212121",
"..	c #676767",
"+.	c #C6C6C6",
"@.	c #B6B6B6",
"#.	c #000000",
"$.	c #1A1A1A",
"%.	c #9B9B9B",
"&.	c #6A6A6A",
"*.	c #4B4B4B",
"=.	c #C1C1C1",
"-.	c #C9C9C9",
";.	c #E7E7E7",
">.	c #A0A0A0",
",.	c #A6A6A6",
"'.	c #565656",
").	c #4C4C4C",
"!.	c #6F6F6F",
"~.	c #ABABAB",
"{.	c #CACACA",
"].	c #DBDBDB",
"^.	c #2C2C2C",
"/.	c #2D2D2D",
"(.	c #C5C5C5",
"_.	c #3A3A3A",
":.	c #878787",
"<.	c #7B7B7B",
"[.	c #757575",
"}.	c #151515",
"|.	c #BFBFBF",
"1.	c #2A2A2A",
"2.	c #838383",
"3.	c #4A4A4A",
"4.	c #CBCBCB",
"5.	c #D4D4D4",
"6.	c #C8C8C8",
"7.	c #232323",
"8.	c #B2B2B2",
"9.	c #A7A7A7",
"0.	c #E0E0E0",
"a.	c #161616",
"b.	c #D3D3D3",
"c.	c #5F5F5F",
"d.	c #DCDCDC",
"e.	c #8D8D8D",
"f.	c #7A7A7A",
"g.	c #999999",
"h.	c #3F3F3F",
"i.	c #060606",
"j.	c #B4B4B4",
"k.	c #D6D6D6",
"l.	c #CECECE",
"m.	c #202020",
"n.	c #020202",
"o.	c #DEEADE",
"p.	c #393939",
"q.	c #A8A8A8",
"r.	c #6B6B6B",
"s.	c #D5D5D5",
"t.	c #696969",
"u.	c #595959",
"v.	c #222222",
"w.	c #383838",
"x.	c #535353",
"y.	c #EFEFEF",
"z.	c #E9E9E9",
"A.	c #2F2F2F",
"B.	c #959595",
"C.	c #717171",
"D.	c #EBEBEB",
"E.	c #D1D1D1",
"F.	c #7E7E7E",
"G.	c #272727",
"H.	c #FCFCFC",
"I.	c #5E5E5E",
"J.	c #4D4D4D",
"K.	c #9DEC9D",
"L.	c #8C8C8C",
"M.	c #808080",
"N.	c #575757",
"O.	c #6C6C6C",
"P.	c #AEAEAE",
"Q.	c #B2EBB2",
"R.	c #040404",
"S.	c #929292",
"T.	c #CCCCCC",
"U.	c #B7B7B7",
"V.	c #242424",
"W.	c #1E1E1E",
"X.	c #A5A5A5",
"Y.	c #545454",
"Z.	c #939393",
"`.	c #010101",
" +	c #7F7F7F",
".+	c #DADADA",
"++	c #767676",
"@+	c #424242",
"#+	c #191919",
"$+	c #050505",
"%+	c #9E9E9E",
"&+	c #282828",
"*+	c #868686",
"=+	c #E2E2E2",
"-+	c #828282",
";+	c #3C3C3C",
">+	c #F1F1F1",
",+	c #ECECEC",
"'+	c #333333",
")+	c #D9D9D9",
"!+	c #909090",
"~+	c #CDCDCD",
"{+	c #727272",
"]+	c #656565",
"^+	c #FDFDFD",
"/+	c #626262",
"(+	c #DDDDDD",
"_+	c #525252",
":+	c #7C7C7C",
"<+	c #DDE9DD",
"[+	c #A3A3A3",
"}+	c #A2A2A2",
"|+	c #BCBCBC",
"1+	c #B1B1B1",
"2+	c #989898",
"3+	c #363636",
"4+	c #4F4F4F",
"5+	c #606060",
"6+	c #8E8E8E",
"7+	c #141414",
"8+	c #121212",
"9+	c #373737",
"0+	c #C0C0C0",
"a+	c #9D9D9D",
"b+	c #DEE9DE",
"c+	c #0C0C0C",
"d+	c #181818",
"e+	c #1C1C1C",
"f+	c #030303",
"g+	c #111111",
"h+	c #E3E3E3",
"i+	c #F8F8F8",
"j+	c #D0D0D0",
"k+	c #404040",
"l+	c #C2C2C2",
"m+	c #101010",
"n+	c #9F9F9F",
"o+	c #D8D8D8",
"p+	c #252525",
"q+	c #131313",
"r+	c #070707",
"s+	c #171717",
"t+	c #DFDFDF",
"u+	c #F9F9F9",
"v+	c #6E6E6E",
"w+	c #434343",
"x+	c #F7F7F7",
"y+	c #F0F0F0",
"z+	c #EDEDED",
"A+	c #F2F2F2",
"B+	c #F3F3F3",
"C+	c #F4F4F4",
"D+	c #646464",
"E+	c #EAEAEA",
"F+	c #86EC86",
"G+	c #080808",
"H+	c #848484",
"I+	c #EEEEEE",
"J+	c #0A0A0A",
"K+	c #6D6D6D",
"L+	c #C3C3C3",
"M+	c #B0B0B0",
"N+	c #0D0D0D",
"O+	c #CFCFCF",
"P+	c #B3B3B3",
"Q+	c #1D1D1D",
"R+	c #85EC85",
". . . . . . . . . . . . . . . . . . . . . . . . . . . . . . . . . . . . . . . . . . . . . . . . . . . . . . . . . . . . . . . . . . . . . . . ",
". . . . . . . . . . . . . . . . . . . . . . . . . . . . . . . . . . . . . . . . . . . . . . . . . . . . . . . . . . . . . . . . . . . . . . . ",
". . . . . . . . . . . . . . . . . . . . . . . . . . . . . . . . . . . . . . . . . . . . . . . . . . . . . . . . . . . . . . . . . . . . . . . ",
". . . . . . . . . . . . . . . . . . . . . . . . . . . . . . . . . . . . . . . . . . . . . . . . . . . . . . . . . . . . . . . . . . . . . . . ",
". . . . . . . . . . . . . . . . . . . . . . . . . . . . . . . . . . . . . . . . . . . . . . . . . . . . . . . . . . . . . . . . . . . . . . . ",
". . . . . . . . . . . . . . . . . . . . . . . . . . . . . . . . . . . . . . . . . . . . . . . . . . . . . . . . . . . . . . . . . . . . . . . ",
". . . . . . . . . . . . . . . . . . . . . . . . . . . . . . . . . . . . . . . . . . . . . . . . . . . . . . . . . . . . . . . . . . . . . . . ",
". . . . . . . . . . . . . . . . . . . . . . . . . . . . . . . . . . . . . . . . . . . . . . . . . . . . . . . . . . . . . . . . . . . . . . . ",
". . . . . . . . . . . . . . . . . . . . . . . . . . . . . . . . . + @ # $ % & . . . . . . . . . . . . . . . . . . . . . . . . . . . . . . . . ",
". . . . . . . . . . . . . . . . . . . . . . . . . . . . . . . . . * = - ; > , . . . . . . . . . . . . . . . . . . . . . . . . . . . . . . . . ",
". . . . . . . . . . . . . . . . . . . . . . . . . . . . . . . . ' ) ! ~ ~ { ] ^ . . . . . . . . . . . . . . . . . . . . . . . . . . . . . . . ",
". . . . . . . . . . . . . . . . . . . . . . . . . . . . . . . . - / ( ~ ~ _ : < . . . . . . . . . . . . . . . . . . . . . . . . . . . . . . . ",
". . . . . . . . . . . . . . . . . . . . . . . . . . . . . . . . [ } | ~ ~ ! 1 2 . . . . . . . . . . . . . . . . . . . . . . . . . . . . . . . ",
". . . . . . . . . . . . . . . . . . . . . . . . . . . . . . . . 3 4 5 6 7 8 9 . . . . . . . . . . . . . . . . . . . . . . . . . . . . . . . . ",
". . . . . . . . . . . . . . . . . . . . 0 0 . . . . . . . . . . . a b c d e + . . . . . . . . . . . 0 f . . . . . . . . . . . . . . . . . . . ",
". . . . . . . . . . . . . . . . . . . g h i j k . . . . . . . . . . . > l . . . . . . . . . . . m n o > p . . . . . . . . . . . . . . . . . . ",
". . . . . . . . . . . . . . . . . . q r s t i u . . . . . . . . . . . v w . . . . . . . . . . . x / y % z A . . . . . . . . . . . . . . . . . ",
". . . . . . . . . . . . . . . . . . b B ~ ~ t C D . . . . . . . . . . C > . . . . . . . . . . k E F ~ G H @ . . . . . . . . . . . . . . . . . ",
". . . . . . . . . . . . . . . . . . e I J ~ K # . . . . . . . . . . a L M N . . . . . . . . . O C P ~ Q l R . . . . . . . . . . . . . . . . . ",
". . . . . . . . . . . . . . . . . . S T I B U V . . . . . . . . . . W X Y Z . . . . . . . . . . `  ...5 ) +.. . . . . . . . . . . . . . . . . ",
". . . . . . . . . . . . . . . . . . . @.: #.x . . . . . . . . . . . V U $.%.. . . . . . . . . . . &.#.*.=.. . . . . . . . . . . . . . . . . . ",
". . . . . . -.+.;.. . . . . . . . . . . >.X ,.. . . . . . . . . . . * '.).!.. . . . . . . . . . . p d ~.. . . . . . . . . . . + Z {.. . . . . ",
". . . . ].4 ^./.$ (.. . . . . . . . . . (.d @ . . . . . . . . . . f _.:.<.# . . . . . . . . . . . [.}.! . . . . . . . . . . |.> ] 1.9 + . . . ",
". . . . 2.3.4.5.w B . . . . . . . . . . 6.Y C & . . . . . . . . . | 7.8.9.M 0.. . . . . . . . . m z a.b.. . . . . . . . . . c...d.Z i e.. . . ",
". . . . H f.~ ~ g.h.. . . . . . . . . . 6.Y i.>.. . . . . . . . . j.7.k.l.m.|.. . . . . . . . . P n.a.b.. . . . . . . . . o.p.q.~ ~ r.&.. . . ",
". . . . @ = s.k t.u.. . . . . . . . . . 6.v.w.x.. . . . . . . . . % w.y.z.A.B.. . . . . . . . f $ C r b.. . . . . . . . . . = C.D.E.# s . . . ",
". . . . s.).] /.#.F.. . . . . . . . . . 6.G.% U ' . . . . . . . . H 9 H.( 8 t.. . . . . . . . [ U e.1.b.. . . . . . . . . . C.#.A.^.I 0.. . . ",
". . . . . + ~.&.#.I.. . . . . . . . . . 6.G.4.J.&.. . . . . . . K.} L.~ ~ M.o . . . . . . . . I.N.-.1.b.. . . . . . . . . . x.#.O.P.Q.. . . . ",
". . . . . . . . 3.R.S.. . . . . . . . . 6.G.| %. .T.. . . . . . b.v.U.~ ~ ~.V.d.. . . . . . Z W.X.E.1.b.. . . . . . . . . ` #.Y.. . . . . . . ",
". . . . . . . . Z.`.7.8.. . . . . . . . 6.G.| + w. +. . . . . . 6 V..+~ ~ !  .A . . . . . . ++@+D.E.1.b.. . . . . . . . ~.#+$+%+. . . . . . . ",
". . . . . . . . d.&+a.# 5.. . . . . . . 6.G.| ~ *+z =+. . . . . -+;+>+~ ~ ,+'+e.. . . . . )+r !+~ E.1.b.. . . . . . . ~+;+a.z N . . . . . . . ",
". . . . . . . . . {+: J.]+. . . . . . . 6.G.| ~ b.M P . . . . . 8 B ^+~ ~ J I /+. . . . . L./.(+~ E.1.b.. . . . . . D w _+o :+. . . . . . . . ",
". . . . . . . . . W r s ) *+. . . . . . 6.G.| J G x / f . . . <+] g ~ [+q.~ *+w.f . . . o.i f.~ G E.1.b.. . . . . . j C % &++.. . . . . . . . ",
". . . . . . . . . . v :+}+r 9.. . . . . 6.G.| 8.|.^ W.6 . . . l.m.|+A T } ^ 1+v.k.. . . [+v.-.|.W E.1.b.. . . . . >.1.~.{+I . . . . . . . . . ",
". . . . . . . . . . 2+3+N @ p.-.. . . . 6.G.l.J.C y 4+5+. . . ,.V.6+;+7+8+h.e.m.8.. . . Y.N.%+9+N.T.1.b.. . . . 0+z ` d.A.X.. . . . . . . . . ",
". . . . . . . . . . 0.) a+y.5+4 b+. . . 6.G.:+c+X c+}.a.@.. . [.$+d+W.%+g.a.e+f+@ . . P.Y d+X c+g+M.1.b.. . . h+l t.i+S.p.k . . . . . . . . . ",
". . . . . . . . . . . ++_+Q j+k+<.. . . l+m+$.p.-+/.#.#.# q.>.T #.^.n+~ ~ %.r #.'+[+X.h.#.#.'+@ 1 L a.l.. . . b $ o+>+/ -+. . . . . . . . . . ",
". . . . . . . . . . . l+v.K =+q ^.%.. . ; f+R.- ~ (.r.p+d q+8+7.O.+.~ ~ ~ ~ 0+..m.q+8+d &+C.4.~ V #.$+n+. . e.^.@.a 2.V.4.. . . . . . . . . . ",
". . . . . . . . . . . . 8 r+h C.} s+e s ) `.j G ~ ~ H.t+{ |+=.d.H.~ ~ ~ ~ ~ ~ J .+0+|+6.m ^+~ ~ u+b #.p.e.C.Y 3+v+w+$+5+. . . . . . . . . . . ",
". . . . . . . . . . . . >.&+; F.: L a.e+: ; ^+~ ~ ~ ~ ~ ~ ~ ~ ~ ~ ~ ~ ~ ~ ~ ~ ~ ~ ~ ~ ~ ~ ~ ~ ~ ~ x+!+o U a.m.h @ e.V.7 . . . . . . . . . . . ",
". . . . . . . . . . . . N '+-+~ y+a 5.| z+~ ~ ~ ~ ~ ~ ~ ~ ~ ~ ~ ~ ~ ~ ~ ~ ~ ~ ~ ~ ~ ~ ~ ~ ~ ~ ~ ~ ~ ~ ,+| s.t+A+G ++i Q.. . . . . . . . . . . ",
". . . . . . . . . . . . . <.3+& ~ ~ ~ ~ ~ ~ ~ ~ ~ ~ ~ ~ G ^+J ( u+_ B+B+B+B+Q u+( J ^+G ~ ~ ~ ~ ~ ~ ~ ~ ~ ~ ~ ~ m /.R . . . . . . . . . . . . ",
". . . . . . . . . . . . . ^ $.U.~ ~ ~ H.C+z..+-.U.[+!+ +C.D+N.x.J.h i o o h.# = x.5 ]+C.M.g < 2 {.].E+_ H.~ ~ ~ F e+-.. . . . . . . . . . . . ",
". . . . . . . . . . . . . F+_.e (.X.-+5+w+/.U d r+R.$+X Y s+$.v.M G.G.G.G.G.M M v.#+s+Y X $+R.G+Y e+] h /+H+9.+.v+h . . . . . . . . . . . . . ",
". . . . . . . . . . . . . . !.c d f+R.Y L '+)...-+%.P.|.{.k.)+m + k k k k k k + m )+k.-.^ 6 p @ B *.) W.d f+f+Y r+f.. . . . . . . . . . . . . ",
". . . . . . . . . . . . . . y R.# H+q.{ (+I+u+G ~ ~ ~ ~ ~ ~ ~ ~ ~ ~ ~ ~ ~ ~ ~ ~ ~ ~ ~ ~ ~ ~ ~ ~ G i+z+d.(.9.-+k+i.6 . . . . . . . . . . . . . ",
". . . . . . . . . . . . . . -.p+^ ~ ~ ~ ~ ~ ~ ~ ~ ~ ~ ~ ~ ~ ~ ~ ~ ~ ~ ~ ~ ~ ~ ~ ~ ~ ~ ~ ~ ~ ~ ~ ~ ~ ~ ~ ~ ~ ~ @.&+5.. . . . . . . . . . . . . ",
". . . . . . . . . . . . . . + k+o+~ ~ ~ ~ ~ ~ J B+& ].4.|+[ %+S.` @ <.n n :+@ ` S.n+[ |+~+d.z.C+J ~ ~ ~ ~ ~ ~ ! > 3 . . . . . . . . . . . . . ",
". . . . . . . . . . . . . . . > }+u+,+o+^ %+:+4 : ^.e+m+J+R.`.#.#.r+7.i o v.i.#.#.n.R.X g+e+/.@+w F.>.|..+z+( ; = . . . . . . . . . . . . . . ",
". . . . . . . . . . . . . . . l r _+3+W.X n.#.#.#.#.#.#.#.#.#.e+, [ t+C+B+(+q.D+d+#.#.#.#.#.#.#.#.#.f+c+L 9+l m.I.. . . . . . . . . . . . . . ",
". . . . . . . . . . . . . . . w d+V F y ; R x 8 ) n.#.#.#.#.G.2 ^+~ ~ ~ ~ ~ ~ H.' V.#.#.#.#.r+E N.{+*+; }+F K q+K+. . . . . . . . . . . . . . ",
". . . . . . . . . . . . . . . w W.(+~ ~ ~ ~ ~ ( z.@+#.#.#.#.s+g N G ~ ~ ~ ~ ^+m L.7+#.#.#.#.J.,+( ~ ~ ~ ~ ~ k.s+v+. . . . . . . . . . . . . . ",
". . . . . . . . . . . . . . . Y. .m ~ ~ ~ ~ ~ T.v+`.#.#.#.#.#.f+A.&.>.L+l+a+, /.`.#.#.#.#.#.i.{+! ~ ~ ~ ~ ~ )+$./+. . . . . . . . . . . . . . ",
". . . . . . . . . . . . . . . h.1.& ~ ~ J {.f.p+#.#.#.#.#.n.$+G+X c+m+$.$.m+c+X G+R.n.#.#.#.#.#.1.F.l.H.~ ~ =+7.3.. . . . . . . . . . . . . . ",
". . . . . . . . . . . . . . =+M k+A+z.[ D+U n.m+M : w u e.>.6 2 =.Z Z (.(.Z Z =.2 6 n+L.++4 h.p+Y `.L t.M+D.I+3+] & . . . . . . . . . . . . . ",
". . . . . . . . . . . . . . L+d 3+++E N+T * g.{ h+B+J ~ ~ J u+_ A+y+y.y.y.y.>+A+_ u+H.~ ~ J B+=+(.B.5+&+d _.++A.8+4.. . . . . . . . . . . . . ",
". . . . . . . . . . . . . . - n.#.N+'.}+=+H.~ ( ;.T.P.V [.I.4+w+C w.3+E E 3+w.;+h 4+c.++!+q l.& ( ~ J t+a+_+X #.R.< . . . . . . . . . . . . . ",
". . . . . . . . . . . . . . K+#.x.q Q ~ Q ~+Z.4 ^.a.}. .'+h x.w ..O.v+v+v+v+r...w _+w+) m.}.s+A.w P O+x+~ _ 7 = #.u . . . . . . . . . . . . . ",
". . . . . . . . . . . . . . w+'+@.B+t+P v d+#+h ++< -.0.I+C+( H.G G G G G G G G H.( C+z+t+{ y b : d+#+Y.%.=+>+q ] J.. . . . . . . . . . . . . ",
". . . . . . . . . . . . . N = r+q+;+/.n.9+!+E.B+~ ~ ~ ~ ~ ~ ~ ~ ~ ~ ~ ~ ~ ~ ~ ~ ~ ~ ~ ~ ~ ~ ~ ~ A+O+s ) f+1 C g+G+u.<+. . . . . . . . . . . . ",
". . . . . . . . . . . . . . ;.7 , r r+#.L Y.R P+)+y.J ~ ~ ~ ~ ~ ~ ~ ~ ~ ~ ~ ~ ~ ~ ~ ~ ~ ~ ( I+| 1+-+l e+#.c ^.r.P.b+. . . . . . . . . . . . . ",
". . . . . . . . . . . . . . . . . =+P.++: $.i.G+e+3+'.u g.P+(.b.(++ ;.;.;.;.+ d.b.(.8.- e Y.E U r+i.Q+w+f.P++ . . . . . . . . . . . . . . . . ",
". . . . . . . . . . . . . . . . . . . . . k.6 M.N.) e+N+i.r+d a.Q+M &+&+&+&+M Q+a.N+i.$+N+Q+} u.2.q | . . . . . . . . . . . . . . . . . . . . ",
". . . . . . . . . . . . . . . . . . . . . . . . . R+.+l+q.V n * x.3.@+;+;+@+3.x.]+<.!+~.Z ].R+. . . . . . . . . . . . . . . . . . . . . . . . ",
". . . . . . . . . . . . . . . . . . . . . . . . . . . . . . . . . . . . . . . . . . . . . . . . . . . . . . . . . . . . . . . . . . . . . . . ",
". . . . . . . . . . . . . . . . . . . . . . . . . . . . . . . . . . . . . . . . . . . . . . . . . . . . . . . . . . . . . . . . . . . . . . . ",
". . . . . . . . . . . . . . . . . . . . . . . . . . . . . . . . . . . . . . . . . . . . . . . . . . . . . . . . . . . . . . . . . . . . . . . ",
". . . . . . . . . . . . . . . . . . . . . . . . . . . . . . . . . . . . . . . . . . . . . . . . . . . . . . . . . . . . . . . . . . . . . . . ",
". . . . . . . . . . . . . . . . . . . . . . . . . . . . . . . . . . . . . . . . . . . . . . . . . . . . . . . . . . . . . . . . . . . . . . . ",
". . . . . . . . . . . . . . . . . . . . . . . . . . . . . . . . . . . . . . . . . . . . . . . . . . . . . . . . . . . . . . . . . . . . . . . ",
". . . . . . . . . . . . . . . . . . . . . . . . . . . . . . . . . . . . . . . . . . . . . . . . . . . . . . . . . . . . . . . . . . . . . . . "};
