/* XPM */
static char * ywwr_xpm[] = {
"71 71 240 2",
"  	c None",
". 	c #C4F9C4",
"+ 	c #95F495",
"@ 	c #42EC42",
"# 	c #43EC43",
"$ 	c #44EC44",
"% 	c #45EC45",
"& 	c #5BA95B",
"* 	c #6A6A6A",
"= 	c #636363",
"- 	c #646464",
"; 	c #626262",
"> 	c #6B6B6B",
", 	c #50CC50",
"' 	c #46EC46",
") 	c #595959",
"! 	c #4A4A4A",
"~ 	c #3F3F3F",
"{ 	c #363636",
"] 	c #2E2E2E",
"^ 	c #353535",
"/ 	c #56BB56",
"( 	c #5E5E5E",
"_ 	c #101010",
": 	c #090909",
"< 	c #060606",
"[ 	c #0A0A0A",
"} 	c #161616",
"| 	c #676767",
"1 	c #6C6C6C",
"2 	c #2F2F2F",
"3 	c #282828",
"4 	c #303030",
"5 	c #3C3C3C",
"6 	c #4B4B4B",
"7 	c #585858",
"8 	c #515151",
"9 	c #050505",
"0 	c #0C0C0C",
"a 	c #151515",
"b 	c #1B1B1B",
"c 	c #171717",
"d 	c #656565",
"e 	c #5C5C5C",
"f 	c #020202",
"g 	c #424242",
"h 	c #7B7B7B",
"i 	c #878787",
"j 	c #8D8D8D",
"k 	c #8C8C8C",
"l 	c #7A7A7A",
"m 	c #070707",
"n 	c #5D5D5D",
"o 	c #040404",
"p 	c #191919",
"q 	c #555555",
"r 	c #4C4C4C",
"s 	c #808080",
"t 	c #C3C3C3",
"u 	c #D3D3D3",
"v 	c #DADADA",
"w 	c #939393",
"x 	c #575757",
"y 	c #030303",
"z 	c #919191",
"A 	c #FFFFFF",
"B 	c #858585",
"C 	c #4F4F4F",
"D 	c #9C9C9C",
"E 	c #D2D2D2",
"F 	c #C2C2C2",
"G 	c #787878",
"H 	c #535353",
"I 	c #BDBDBD",
"J 	c #C4C4C4",
"K 	c #0D0D0D",
"L 	c #686868",
"M 	c #444444",
"N 	c #131313",
"O 	c #CECECE",
"P 	c #B1B1B1",
"Q 	c #DBDBDB",
"R 	c #1C1C1C",
"S 	c #212121",
"T 	c #000000",
"U 	c #333333",
"V 	c #434343",
"W 	c #1E1E1E",
"X 	c #232323",
"Y 	c #E1E1E1",
"Z 	c #EAEAEA",
"` 	c #414141",
" .	c #121212",
"..	c #979797",
"+.	c #F0F0F0",
"@.	c #ECECEC",
"#.	c #E8E8E8",
"$.	c #D5D5D5",
"%.	c #FEFEFE",
"&.	c #FBFBFB",
"*.	c #FAFAFA",
"=.	c #F5F5F5",
"-.	c #F3F3F3",
";.	c #E9E9E9",
">.	c #E7E7E7",
",.	c #E4E4E4",
"'.	c #DFDFDF",
").	c #DCDCDC",
"!.	c #E0E0E0",
"~.	c #E5E5E5",
"{.	c #F6F6F6",
"].	c #7C7C7C",
"^.	c #A3A3A3",
"/.	c #757575",
"(.	c #5A5A5A",
"_.	c #3B3B3B",
":.	c #2B2B2B",
"<.	c #252525",
"[.	c #202020",
"}.	c #1A1A1A",
"|.	c #1D1D1D",
"1.	c #262626",
"2.	c #2C2C2C",
"3.	c #373737",
"4.	c #454545",
"5.	c #5B5B5B",
"6.	c #696969",
"7.	c #767676",
"8.	c #868686",
"9.	c #949494",
"0.	c #A4A4A4",
"a.	c #747474",
"b.	c #545454",
"c.	c #181818",
"d.	c #272727",
"e.	c #3D3D3D",
"f.	c #505050",
"g.	c #565656",
"h.	c #222222",
"i.	c #383838",
"j.	c #ADADAD",
"k.	c #BBBBBB",
"l.	c #C5C5C5",
"m.	c #D8D8D8",
"n.	c #E2E2E2",
"o.	c #E6E6E6",
"p.	c #F8F8F8",
"q.	c #F7F7F7",
"r.	c #EBEBEB",
"s.	c #D7D7D7",
"t.	c #D1D1D1",
"u.	c #BABABA",
"v.	c #ACACAC",
"w.	c #343434",
"x.	c #47ED47",
"y.	c #9D9D9D",
"z.	c #959595",
"A.	c #B3B3B3",
"B.	c #FCFCFC",
"C.	c #F4F4F4",
"D.	c #F9F9F9",
"E.	c #AAAAAA",
"F.	c #1F1F1F",
"G.	c #494949",
"H.	c #9E9E9E",
"I.	c #8F8F8F",
"J.	c #828282",
"K.	c #525252",
"L.	c #4D4D4D",
"M.	c #404040",
"N.	c #3E3E3E",
"O.	c #464646",
"P.	c #5F5F5F",
"Q.	c #ABABAB",
"R.	c #393939",
"S.	c #4E4E4E",
"T.	c #0B0B0B",
"U.	c #929292",
"V.	c #A0A0A0",
"W.	c #B6B6B6",
"X.	c #C1C1C1",
"Y.	c #C7C7C7",
"Z.	c #CFCFCF",
"`.	c #C6C6C6",
" +	c #C0C0C0",
".+	c #B5B5B5",
"++	c #9F9F9F",
"@+	c #616161",
"#+	c #F1F1F1",
"$+	c #DDDDDD",
"%+	c #A6A6A6",
"&+	c #BFBFBF",
"*+	c #B9B9B9",
"=+	c #B7B7B7",
"-+	c #DEDEDE",
";+	c #F2F2F2",
">+	c #474747",
",+	c #2D2D2D",
"'+	c #080808",
")+	c #3A3A3A",
"!+	c #484848",
"~+	c #0F0F0F",
"{+	c #242424",
"]+	c #606060",
"^+	c #6D6D6D",
"/+	c #7F7F7F",
"(+	c #7E7E7E",
"_+	c #737373",
":+	c #A2A2A2",
"<+	c #8A8A8A",
"[+	c #777777",
"}+	c #9A9A9A",
"|+	c #999999",
"1+	c #838383",
"2+	c #888888",
"3+	c #AEAEAE",
"4+	c #AFAFAF",
"5+	c #313131",
"6+	c #727272",
"7+	c #CCCCCC",
"8+	c #111111",
"9+	c #141414",
"0+	c #010101",
"a+	c #D4D4D4",
"b+	c #6E6E6E",
"c+	c #666666",
"d+	c #9B9B9B",
"e+	c #A9A9A9",
"f+	c #BCBCBC",
"g+	c #B2B2B2",
"h+	c #6B756B",
"i+	c #323232",
"j+	c #797979",
"k+	c #898989",
"l+	c #6F6F6F",
"m+	c #FDFDFD",
"n+	c #CACACA",
"o+	c #668866",
"p+	c #34BB34",
"q+	c #292929",
". + + + + + + + + + + + + + + + + + + + + + + + + + + + + + + + + + + + + + + + + + + + + + + + + + + + + + + + + + + + + + + + + + + + + + + ",
"+ @ @ @ @ @ @ @ @ @ @ @ @ @ @ @ @ @ @ @ @ @ @ @ @ @ @ @ @ @ @ @ @ @ @ @ @ @ @ @ @ @ @ @ @ @ @ @ @ @ @ @ @ @ @ @ @ @ @ @ @ @ @ @ @ @ @ @ @ @ @ ",
"+ @ @ @ @ @ @ @ @ @ @ @ @ @ @ @ @ @ @ @ @ @ @ @ @ @ @ @ @ @ @ @ @ @ @ @ @ @ @ @ @ @ @ @ @ @ @ @ @ @ @ @ @ @ @ @ @ @ @ @ @ @ @ @ @ @ @ @ @ @ @ ",
"+ @ @ @ @ @ @ @ @ @ @ @ @ @ @ @ @ @ @ @ @ @ @ @ @ @ @ @ @ @ @ @ @ @ @ @ @ @ @ @ @ @ @ @ @ @ @ @ @ @ @ @ @ @ @ @ @ @ @ @ @ @ @ @ @ @ @ @ @ @ @ ",
"+ @ @ @ @ @ @ @ @ @ @ @ @ @ @ @ @ @ @ @ # $ # % @ @ @ @ @ @ # & * * = = - ; > * , % @ @ @ @ @ $ % # # # @ @ @ @ @ @ @ @ @ @ @ @ @ @ @ @ @ @ @ ",
"+ @ @ @ @ @ @ @ @ @ @ @ @ @ @ @ ' - ) ! ~ { ] ^ / @ @ @ @ @ ( _ : : < < < < : [ } | @ @ @ @ @ 1 2 3 4 5 6 7 = ' @ @ @ @ @ @ @ @ @ @ @ @ @ @ @ ",
"+ @ @ @ @ @ @ @ @ @ @ @ @ @ @ @ 8 9 9 0 a b c < d @ @ @ @ @ e f g h i j k i l 5 m | @ @ @ @ @ n o p b a 0 9 < q @ @ @ @ @ @ @ @ @ @ @ @ @ @ @ ",
"+ @ @ @ @ @ @ @ @ @ @ @ @ @ @ @ r : s t u v w 9 x @ @ @ @ @ e y z A A A A A A B m | @ @ @ @ @ C m D v E F G 9 H @ @ @ @ @ @ @ @ @ @ @ @ @ @ @ ",
"+ @ @ @ @ @ @ @ @ @ @ @ @ @ @ @ r : I A A A J K ! # # # # # n y z A A A A A A B m L # # # # $ M N O A A A P < H @ @ @ @ @ @ @ @ @ @ @ @ @ @ @ ",
"+ @ @ @ @ @ @ @ @ @ @ @ @ @ @ @ r : I A A A Q R S g g g g g ] T z A A A A A A B y U g g g g V W X Y A A A P < H @ @ @ @ @ @ @ @ @ @ @ @ @ @ @ ",
"+ @ @ @ @ @ @ @ @ @ @ @ @ @ @ @ r : I A A A Z `  . . . . . . . ...A A A A A A j  . . . . . . . .! +.A A A P < H @ @ @ @ @ @ @ @ @ @ @ @ @ @ @ ",
"+ @ @ @ @ @ @ @ @ @ @ @ @ @ @ @ r : I A A A A u O O O O O O O O @.A A A A A A #.O O O O O O O O $.A A A A P < H @ @ @ @ @ @ @ @ @ @ @ @ @ @ @ ",
"+ @ @ @ @ @ @ @ @ @ @ @ @ @ @ @ r : I A A A A A A A A A A A A A A A A A A A A A A A A A A A A A A A A A A P < H @ @ @ @ @ @ @ @ @ @ @ @ @ @ @ ",
"+ @ @ @ @ @ @ @ @ @ @ @ @ @ @ @ r : I A A A A %.&.*.=.-.+.;.>.,.'.).v v v v ).!.~.>.;.+.-.{.*.&.%.A A A A P < H @ @ @ @ @ @ @ @ @ @ @ @ @ @ @ ",
"+ @ @ @ @ @ @ @ @ @ @ @ @ @ @ @ r : ].^.w B /.L (.8 M _.{ :.3 <.[.R b }.}.b |.[.1.3 2.3.5 4.8 5.6.7.8.9.0.a.< H @ @ @ @ @ @ @ @ @ @ @ @ @ @ @ ",
"+ @ @ @ @ @ @ @ @ @ @ @ @ @ @ @ b.T o 9 9 : 0 a c.X d.4 3.e.M 6 f.b.g.x x g.b.f.! V 5 3.2 d.h.c.a 0 : 9 9 9 T ) @ @ @ @ @ @ @ @ @ @ @ @ @ @ @ ",
"+ @ @ @ @ @ @ @ @ @ @ @ @ @ @ @ # 3 T i.j.k.l.E m.n.o.@.+.-.=.p.*.&.&.&.&.&.&.*.q.=.-.+.r.o.Y s.t.J u.v.w.T 2.x.@ @ @ @ @ @ @ @ @ @ @ @ @ @ @ ",
"+ @ @ @ @ @ @ @ @ @ @ @ @ @ @ @ @ | |._ y.A A A A A A A A A A A A A A A A A A A A A A A A A A A A A A z.m X 6.@ @ @ @ @ @ @ @ @ @ @ @ @ @ @ @ ",
"+ @ @ @ @ @ @ @ @ @ @ @ @ @ @ @ @ @ 7  .<.A.A A A A A A %.B.*.*.p.{.C.-.-.C.{.D.*.*.B.%.A A A A A A E.F.c.) @ @ @ @ @ @ @ @ @ @ @ @ @ @ @ @ @ ",
"+ @ @ @ @ @ @ @ @ @ @ @ @ @ @ @ @ @ # G.T ~ H.E.y.I.J.a.* ( q K.L.4.M.e.N.M.O.L.K.q P.* /.J.I.H.Q.H.R.T S.@ @ @ @ @ @ @ @ @ @ @ @ @ @ @ @ @ @ ",
"+ @ @ @ @ @ @ @ @ @ @ @ @ @ @ @ @ @ @ ' R.T : o o o m T.K } y T 1.d.d.d.d.d.d.<.T o a K T.m o o o : T V x.@ @ @ @ @ @ @ @ @ @ @ @ @ @ @ @ @ @ ",
"+ @ @ @ @ @ @ @ @ @ @ @ @ @ @ @ @ @ @ @ ) 9 n U.V.Q.W.X.Y.Z.6 S `.o.o.>.>.o.o.I c r O `. +.+E.++z C 9 @+@ @ @ @ @ @ @ @ @ @ @ @ @ @ @ @ @ @ @ ",
"+ @ @ @ @ @ @ @ @ @ @ @ @ @ @ @ @ @ @ @ n < Q.A A A A A A &.H S !.A A A A A A s.c b.&.A A A A A A U.9 - @ @ @ @ @ @ @ @ @ @ @ @ @ @ @ @ @ @ @ ",
"+ @ @ @ @ @ @ @ @ @ @ @ @ @ @ @ @ @ @ @ n < Q.A A A A A A &.H S !.A A A A A A s.c b.&.A A A A A A U.9 - @ @ @ @ @ @ @ @ @ @ @ @ @ @ @ @ @ @ @ ",
"+ @ @ @ @ @ @ @ @ @ @ @ @ @ @ @ @ @ @ @ n < Q.&.{.#+Z ,.$+E ! W %+&+*+=+=+*+&+++c 6 E -+,.Z ;+{.&.U.9 - @ @ @ @ @ @ @ @ @ @ @ @ @ @ @ @ @ @ @ ",
"+ @ @ @ @ @ @ @ @ @ @ @ @ @ @ @ @ @ @ @ n f >+5.>+R.,+<.W c y T T.[ '+m m '+[ T.T y c W <.,+)+!+e e.o - @ @ @ @ @ @ @ @ @ @ @ @ @ @ @ @ @ @ @ ",
"+ @ @ @ @ @ @ @ @ @ @ @ @ @ @ @ @ @ @ @ n f ~+}.<.{+T ] b.]+^+a./+i (+b h.J.i (+_+1 P.H 1.T 1.{+p T.o - @ @ @ @ @ @ @ @ @ @ @ @ @ @ @ @ @ @ @ ",
"+ @ @ @ @ @ @ @ @ @ @ @ @ @ @ @ @ @ @ @ n < 8.m.,.:+m <+&.B.%.A A A r.2 _.-.A A A %.B.&.[+T.j.,.m.a.9 - @ @ @ @ @ @ @ @ @ @ @ @ @ @ @ @ @ @ @ ",
"+ @ @ @ @ @ @ @ @ @ @ @ @ @ @ @ @ @ @ @ n < Q.A A W.m I.A A A A A A r.2 _.-.A A A A A A l T.t A A U.9 - @ @ @ @ @ @ @ @ @ @ @ @ @ @ @ @ @ @ @ ",
"+ @ @ @ @ @ @ @ @ @ @ @ @ @ @ @ @ @ @ @ n < Q.A A W.m I.A A A A A A r.2 _.-.A A A A A A l T.t A A U.9 - @ @ @ @ @ @ @ @ @ @ @ @ @ @ @ @ @ @ @ ",
"+ @ @ @ @ @ @ @ @ @ @ @ @ @ @ @ @ @ @ @ n < Q.A A W.m I.A A A A A A r.2 _.-.A A A A A A l T.t A A U.9 - @ @ @ @ @ @ @ @ @ @ @ @ @ @ @ @ @ @ @ ",
"+ @ @ @ @ @ @ @ @ @ @ @ @ @ @ @ @ @ @ @ n < Q.A A W.m I.A A A A A A r.2 _.-.A A A A A A l T.t A A U.9 - @ @ @ @ @ @ @ @ @ @ @ @ @ @ @ @ @ @ @ ",
"+ @ @ @ @ @ @ @ @ @ @ @ @ @ @ @ @ @ @ @ n < }+o.-+9.m > &+A.Q.:+|+w 1+R {+2+w |+:+Q.A. +( T.++'.o.8.9 - @ @ @ @ @ @ @ @ @ @ @ @ @ @ @ @ @ @ @ ",
"+ @ @ @ @ @ @ @ @ @ @ @ @ @ @ @ @ @ @ @ n f {+d.F.a T '+T.< o f 9 9 9 9 9 9 9 9 f o < T.9 T c F.d.|.o - @ @ @ @ @ @ @ @ @ @ @ @ @ @ @ @ @ @ @ ",
"+ @ @ @ @ @ @ @ @ @ @ @ @ @ @ @ @ @ @ @ n f :.g 8 (.| _+s 2+4 }.U.3+4+4+4+4+3+k N 5+2+/+6+| ) f.` {+o - @ @ @ @ @ @ @ @ @ @ @ @ @ @ @ @ @ @ @ ",
"+ @ @ @ @ @ @ @ @ @ @ @ @ @ @ @ @ @ @ @ n < ++C.*.&.%.A A &.H S !.A A A A A A s.c b.&.A A %.&.*.C.<+9 - @ @ @ @ @ @ @ @ @ @ @ @ @ @ @ @ @ @ @ ",
"+ @ @ @ @ @ @ @ @ @ @ @ @ @ @ @ @ @ @ @ n < Q.A A A A A A &.H S !.A A A A A A s.c b.&.A A A A A A U.9 - @ @ @ @ @ @ @ @ @ @ @ @ @ @ @ @ @ @ @ ",
"+ @ @ @ @ @ @ @ @ @ @ @ @ @ @ @ @ @ @ @ n < Q.A A A A A A &.H S !.A A A A A A s.c b.&.A A A A A A U.9 - @ @ @ @ @ @ @ @ @ @ @ @ @ @ @ @ @ @ @ ",
"+ @ @ @ @ @ @ @ @ @ @ @ @ @ @ @ @ @ @ @ n < Q.A A A A A A &.H S !.A A A A A A s.c b.&.A A A A A A U.9 - @ @ @ @ @ @ @ @ @ @ @ @ @ @ @ @ @ @ @ ",
"+ @ @ @ @ @ @ @ @ @ @ @ @ @ @ @ @ @ @ @ n < Q.%.%.&.&.D.{.+.H S $.C.C.C.C.C.C.7+c b.#+{.D.&.&.%.%.U.9 - @ @ @ @ @ @ @ @ @ @ @ @ @ @ @ @ @ @ @ ",
"+ @ @ @ @ @ @ @ @ @ @ @ @ @ @ @ @ @ @ @ n 9 H a.L ) H C >+g 8+y e.~ ~ ~ ~ ~ ~ _.T  .g >+C H (.6.a.>+9 - @ @ @ @ @ @ @ @ @ @ @ @ @ @ @ @ @ @ @ ",
"+ @ @ @ @ @ @ @ @ @ @ @ @ @ @ @ @ @ @ @ n f T.K a 9+T 9+h.{+1.1.d.d.d.0+y d.d.d.1.<.{+h.~+T } a K '+o - @ @ @ @ @ @ @ @ @ @ @ @ @ @ @ @ @ @ @ ",
"+ @ @ @ @ @ @ @ @ @ @ @ @ @ @ @ @ @ @ @ n < /+Y.E w m h n.,.~.o.o.o.a+2 _.Q o.o.o.~.,.n.1 T.y.E `.b+9 - @ @ @ @ @ @ @ @ @ @ @ @ @ @ @ @ @ @ @ ",
"+ @ @ @ @ @ @ @ @ @ @ @ @ @ @ @ @ @ @ @ n < Q.A A W.m I.A A A A A A r.2 _.-.A A A A A A l T.t A A U.9 - @ @ @ @ @ @ @ @ @ @ @ @ @ @ @ @ @ @ @ ",
"+ @ @ @ @ @ @ @ @ @ @ @ @ @ @ @ @ @ @ @ n < Q.A A W.m I.A A A A A A r.2 _.-.A A A A A A l T.t A A U.9 - @ @ @ @ @ @ @ @ @ @ @ @ @ @ @ @ @ @ @ ",
"+ @ @ @ @ @ @ @ @ @ @ @ @ @ @ @ @ @ @ @ n < Q.A A W.m I.A A A A A A r.2 _.-.A A A A A A l T.t A A U.9 - @ @ @ @ @ @ @ @ @ @ @ @ @ @ @ @ @ @ @ ",
"+ @ @ @ @ @ @ @ @ @ @ @ @ @ @ @ @ @ @ @ H < c+d+d+1 < g.d+d+d+d+d+d+j [.d.z d+d+d+d+d+d+6 : a.d+d+7 9 ( @ @ @ @ @ @ @ @ @ @ @ @ @ @ @ @ @ @ @ ",
"+ @ @ @ @ @ @ @ @ @ @ @ @ @ @ @ @ @ @ % 2 T 9 9 9 9 y 9 9 9 9 9 9 9 9 y y 9 9 9 9 9 9 9 o y 9 9 9 9 T 3.' @ @ @ @ @ @ @ @ @ @ @ @ @ @ @ @ @ @ ",
"+ @ @ @ @ @ @ @ @ @ @ @ @ @ @ @ @ @ ' V T !+H.e+e+e+e+e+e+e+e+e+e+e+e+e+e+e+e+e+e+e+e+e+e+e+e+e+e+|+` T !+# @ @ @ @ @ @ @ @ @ @ @ @ @ @ @ @ @ ",
"+ @ @ @ @ @ @ @ @ @ @ @ @ @ @ @ @ @ q [ 2.f+A A A A A A A A A A A A A A A A A A A A A A A A A A A A g+X _ ) @ @ @ @ @ @ @ @ @ @ @ @ @ @ @ @ @ ",
"+ @ @ @ @ @ @ @ @ @ @ @ @ @ @ @ @ L [.[ }+A A A A A A A A A A A A A A A A A A A A A A A A A A A A A A w o [.h+@ @ @ @ @ @ @ @ @ @ @ @ @ @ @ @ ",
"+ @ @ @ @ @ @ @ @ @ @ @ @ @ @ @ % 5+T 5.Y Y Y Y Y Y Y Y Y Y Y Y Y Y Y Y Y Y Y Y Y Y Y Y Y Y Y Y Y Y Y !.q T ^ ' @ @ @ @ @ @ @ @ @ @ @ @ @ @ @ ",
"+ @ @ @ @ @ @ @ @ @ @ @ @ @ @ $ M.T T b S S S S S S S S S S S S S S S S S S S S S S S S S S S S S S S S } T T G.# @ @ @ @ @ @ @ @ @ @ @ @ @ @ ",
"+ @ @ @ @ @ @ @ @ @ @ @ @ @ @ g.: 0+4.S.S.S.S.S.S.S.S.S.S.S.S.S.S.S.S.S.S.S.S.S.S.S.S.S.S.S.S.S.S.S.S.S.S.V T _ 5.@ @ @ @ @ @ @ @ @ @ @ @ @ @ ",
"+ @ @ @ @ @ @ @ @ @ @ @ @ @ @ 3.T M r.D.D.D.D.D.D.D.D.D.D.D.D.D.D.D.D.D.D.D.D.D.D.D.D.D.D.D.D.D.D.D.D.D.D.~.R.T i.@ @ @ @ @ @ @ @ @ @ @ @ @ @ ",
"+ @ @ @ @ @ @ @ @ @ @ @ @ @ @ i+T j+A A A A A A A A A A A A A A A A A A A A A A A A A A A A A A A A A A A A b+T U @ @ @ @ @ @ @ @ @ @ @ @ @ @ ",
"+ @ @ @ @ @ @ @ @ @ @ @ @ @ @ i+T z.A A A A A A A A A A A A A A A A A A A A A A A A A A A A A A A A A A A A k+T U @ @ @ @ @ @ @ @ @ @ @ @ @ @ ",
"+ @ @ @ @ @ @ @ @ @ @ @ @ @ @ i+f }+A A A A A A A A A A A A A A A A A A A A A A A A A A A A A A A A A A A A I.T U @ @ @ @ @ @ @ @ @ @ @ @ @ @ ",
"+ @ @ @ @ @ @ @ @ @ @ @ @ @ @ i+T j A A A A A A A A A A A A A A A A A A A A A A A A A A A A A A A A A A A A J.T U @ @ @ @ @ @ @ @ @ @ @ @ @ @ ",
"+ @ @ @ @ @ @ @ @ @ @ @ @ @ @ i+T l+%.A A A A A A A A A A A A A A A A A A A A A A A A A A A A A A A A A A m+; T U @ @ @ @ @ @ @ @ @ @ @ @ @ @ ",
"+ @ @ @ @ @ @ @ @ @ @ @ @ @ @ 4 T ` n+s.s.s.s.s.s.s.s.s.s.s.s.s.s.s.s.s.s.s.s.s.s.s.s.s.s.s.s.s.s.s.s.s.s.`.i.T 5+@ @ @ @ @ @ @ @ @ @ @ @ @ @ ",
"+ @ @ @ @ @ @ @ @ @ @ @ @ @ o+p T T c c c c c c c c c c c c c c c c c c c c c c c c c c c c c c c c c c c c T T b p+@ @ @ @ @ @ @ @ @ @ @ @ @ ",
"+ @ @ @ @ @ @ @ @ @ @ @ @ # !+T : C H H H H H H H H H H H H H H H H H H H H H H H H H H H H H H H H H H H H r 9 T S.# @ @ @ @ @ @ @ @ @ @ @ @ ",
"+ @ @ @ @ @ @ @ @ @ @ @ @ # :.T K.{.&.&.&.&.&.&.&.&.&.&.&.&.&.&.&.&.&.&.&.&.&.&.&.&.&.&.&.&.&.&.&.&.&.&.&.&.-.4.T i+$ @ @ @ @ @ @ @ @ @ @ @ @ ",
"+ @ @ @ @ @ @ @ @ @ @ @ @ x.R T d B.B.B.B.B.B.B.B.B.B.B.B.B.B.B.B.B.B.B.B.B.B.B.B.B.B.B.B.B.B.B.B.B.B.B.B.B.D.q T d.# @ @ @ @ @ @ @ @ @ @ @ @ ",
"+ @ @ @ @ @ @ @ @ @ @ @ @ # {+T S ( ( ( ( ( ( ( ( ( ( ( ( ( ( ( ( ( ( ( ( ( ( ( ( ( ( ( ( ( ( ( ( ( ( ( ( ( n }.T q+$ @ @ @ @ @ @ @ @ @ @ @ @ ",
"+ @ @ @ @ @ @ @ @ @ @ @ @ # G.d.d.d.d.d.d.d.d.d.d.d.d.d.d.d.d.d.d.d.d.d.d.d.d.d.d.d.d.d.d.d.d.d.d.d.d.d.d.d.d.d.d.S.# @ @ @ @ @ @ @ @ @ @ @ @ ",
"+ @ @ @ @ @ @ @ @ @ @ @ @ @ # # # # # # # # # # # # # # # # # # # # # # # # # # # # # # # # # # # # # # # # # # # $ @ @ @ @ @ @ @ @ @ @ @ @ @ ",
"+ @ @ @ @ @ @ @ @ @ @ @ @ @ @ @ @ @ @ @ @ @ @ @ @ @ @ @ @ @ @ @ @ @ @ @ @ @ @ @ @ @ @ @ @ @ @ @ @ @ @ @ @ @ @ @ @ @ @ @ @ @ @ @ @ @ @ @ @ @ @ ",
"+ @ @ @ @ @ @ @ @ @ @ @ @ @ @ @ @ @ @ @ @ @ @ @ @ @ @ @ @ @ @ @ @ @ @ @ @ @ @ @ @ @ @ @ @ @ @ @ @ @ @ @ @ @ @ @ @ @ @ @ @ @ @ @ @ @ @ @ @ @ @ ",
"+ @ @ @ @ @ @ @ @ @ @ @ @ @ @ @ @ @ @ @ @ @ @ @ @ @ @ @ @ @ @ @ @ @ @ @ @ @ @ @ @ @ @ @ @ @ @ @ @ @ @ @ @ @ @ @ @ @ @ @ @ @ @ @ @ @ @ @ @ @ @ "};
